<?xml version="1.0" encoding="utf-8"?>
<svg xmlns="http://www.w3.org/2000/svg" xmlns:xlink="http://www.w3.org/1999/xlink" width="800" height="600" viewBox="0 0 3200 2400">
<defs>
  <clipPath id="clip130">
    <rect x="0" y="0" width="3200" height="2400"/>
  </clipPath>
</defs>
<path clip-path="url(#clip130)" d="
M0 2400 L3200 2400 L3200 0 L0 0  Z
  " fill="#ffffff" fill-rule="evenodd" fill-opacity="1"/>
<defs>
  <clipPath id="clip131">
    <rect x="640" y="0" width="2241" height="2241"/>
  </clipPath>
</defs>
<path clip-path="url(#clip130)" d="
M455.118 2352.76 L2744.88 2352.76 L2744.88 62.9921 L455.118 62.9921  Z
  " fill="#ffffff" fill-rule="evenodd" fill-opacity="1"/>
<defs>
  <clipPath id="clip132">
    <rect x="455" y="62" width="2291" height="2291"/>
  </clipPath>
</defs>
<path clip-path="url(#clip130)" d="M1221.82 103.433 L1221.82 78.112 Q1221.82 76.6916 1221.88 76.1975 Q1221.95 75.7034 1222.32 75.3329 Q1222.69 74.9623 1223.43 74.9623 Q1224.85 74.9623 1224.97 76.2593 Q1225.34 88.7962 1232.82 95.7132 Q1240.16 102.568 1252.76 102.568 Q1260.36 102.568 1265.05 97.1336 Q1269.75 91.6371 1269.75 84.4731 Q1269.75 77.618 1265.79 72.8008 Q1264.13 70.6393 1262.03 69.2806 Q1259.99 67.8601 1258.69 67.4278 Q1257.46 66.9955 1255.05 66.3779 Q1239.36 62.6107 1238.37 62.1784 Q1230.9 59.6463 1226.33 53.2851 Q1221.82 46.8623 1221.82 39.019 Q1221.82 28.8906 1228.92 21.7266 Q1236.09 14.5009 1246.46 14.5009 Q1251.65 14.5009 1255.97 16.1683 Q1260.36 17.7741 1262.15 19.2563 Q1263.94 20.7385 1266.72 23.3941 L1271.11 16.1683 Q1272.09 14.5009 1273.02 14.5009 Q1274.01 14.5009 1274.19 15.1185 Q1274.44 15.6743 1274.44 17.527 L1274.44 42.9715 Q1274.44 44.3919 1274.38 44.886 Q1274.32 45.3801 1273.88 45.6889 Q1273.51 45.9977 1272.77 45.9977 Q1271.54 45.9977 1271.23 44.5155 Q1267.71 18.0829 1246.59 18.0829 Q1239.36 18.0829 1234.61 22.9618 Q1229.91 27.7789 1229.91 34.6341 Q1229.91 40.1924 1233.37 44.7625 Q1236.83 49.2709 1242.7 50.6913 L1258.88 54.5821 Q1266.97 56.4966 1272.4 63.6606 Q1277.84 70.8245 1277.84 80.1501 Q1277.84 90.896 1270.8 98.6776 Q1263.82 106.459 1252.89 106.459 Q1245.04 106.459 1238.99 103.865 Q1232.94 101.271 1229.67 97.6277 Q1227.13 101.827 1225.47 104.174 L1225.1 104.792 Q1224.11 106.459 1223.18 106.459 Q1222.19 106.459 1222.01 105.842 Q1221.82 105.224 1221.82 103.433 Z" fill="#000000" fill-rule="evenodd" fill-opacity="1" /><path clip-path="url(#clip130)" d="M1289.08 103.68 L1289.08 99.7892 Q1295.81 99.7892 1297.35 98.9864 Q1298.9 98.1217 1298.9 94.0457 L1298.9 60.0168 Q1298.9 55.3232 1297.29 54.2115 Q1295.75 53.0999 1289.57 53.0999 L1289.57 49.1473 L1307.23 47.7886 L1307.23 94.1692 Q1307.23 97.9365 1308.59 98.8628 Q1309.95 99.7892 1316.13 99.7892 L1316.13 103.68 Q1303.22 103.309 1302.97 103.309 Q1301.24 103.309 1289.08 103.68 M1294.39 25.7409 Q1294.39 23.2088 1296.3 21.1708 Q1298.28 19.071 1301.06 19.071 Q1303.84 19.071 1305.81 20.9855 Q1307.79 22.8383 1307.79 25.8027 Q1307.79 28.7053 1305.81 30.6198 Q1303.84 32.4726 1301.06 32.4726 Q1298.16 32.4726 1296.24 30.4345 Q1294.39 28.3965 1294.39 25.7409 Z" fill="#000000" fill-rule="evenodd" fill-opacity="1" /><path clip-path="url(#clip130)" d="M1323.97 103.68 L1323.97 99.7892 Q1330.7 99.7892 1332.25 98.9864 Q1333.79 98.1217 1333.79 94.0457 L1333.79 60.1403 Q1333.79 55.4467 1332.12 54.2733 Q1330.52 53.0999 1323.97 53.0999 L1323.97 49.1473 L1341.76 47.7886 L1341.76 61.0667 Q1347.69 47.7886 1360.47 47.7886 Q1375.29 47.7886 1377.33 60.1403 Q1379.49 55.3232 1384 51.5559 Q1388.57 47.7886 1395.67 47.7886 Q1405.18 47.7886 1408.95 52.4823 Q1411.73 55.632 1412.29 59.1522 Q1412.84 62.6724 1412.84 71.8127 L1412.84 95.9602 Q1412.96 98.6158 1415 99.2334 Q1417.04 99.7892 1422.72 99.7892 L1422.72 103.68 Q1409.82 103.309 1408.58 103.309 Q1407.59 103.309 1394.25 103.68 L1394.25 99.7892 Q1400.98 99.7892 1402.53 98.9864 Q1404.13 98.1217 1404.13 94.0457 L1404.13 64.5869 Q1404.13 58.1641 1402.16 54.3968 Q1400.18 50.5678 1394.75 50.5678 Q1388.2 50.5678 1382.95 56.0643 Q1377.7 61.5608 1377.7 70.8245 L1377.7 94.0457 Q1377.7 98.1217 1379.24 98.9864 Q1380.85 99.7892 1387.58 99.7892 L1387.58 103.68 Q1374.67 103.309 1373.38 103.309 Q1372.39 103.309 1359.11 103.68 L1359.11 99.7892 Q1365.84 99.7892 1367.39 98.9864 Q1368.99 98.1217 1368.99 94.0457 L1368.99 64.5869 Q1368.99 58.1641 1367.02 54.3968 Q1365.04 50.5678 1359.61 50.5678 Q1353.06 50.5678 1347.81 56.0643 Q1342.56 61.5608 1342.56 70.8245 L1342.56 94.0457 Q1342.56 98.1217 1344.1 98.9864 Q1345.71 99.7892 1352.38 99.7892 L1352.38 103.68 Q1339.47 103.309 1338.24 103.309 Q1337.25 103.309 1323.97 103.68 Z" fill="#000000" fill-rule="evenodd" fill-opacity="1" /><path clip-path="url(#clip130)" d="M1428.71 124.307 Q1435.44 124.307 1436.99 123.443 Q1438.59 122.64 1438.59 118.626 L1438.59 59.3992 Q1438.59 55.1997 1436.99 54.1498 Q1435.44 53.0999 1428.71 53.0999 L1428.71 49.1473 L1446.93 47.7886 L1446.93 56.126 Q1454.53 47.7886 1464.66 47.7886 Q1475.4 47.7886 1483.25 56.126 Q1491.09 64.4634 1491.09 76.3828 Q1491.09 88.4257 1482.75 96.7631 Q1474.41 105.1 1462.87 105.1 Q1456.57 105.1 1452.3 101.889 Q1448.11 98.6158 1447.3 96.2072 L1447.3 97.3806 L1447.3 118.626 Q1447.3 122.702 1448.91 123.504 Q1450.51 124.307 1457.18 124.307 L1457.18 128.198 Q1443.91 127.828 1442.92 127.828 Q1441.68 127.828 1428.71 128.198 L1428.71 124.307 M1447.3 89.2903 Q1447.3 91.2048 1447.55 91.8841 Q1447.86 92.5635 1449.09 94.6015 Q1454.1 102.26 1462.25 102.26 Q1462.31 102.26 1462.37 102.26 Q1469.6 102.26 1475.09 94.9103 Q1480.59 87.4993 1480.59 76.3828 Q1480.59 65.7603 1475.59 58.3493 Q1470.59 50.9383 1463.67 50.9383 Q1458.73 50.9383 1454.4 53.5939 Q1450.08 56.2495 1447.3 61.0667 L1447.3 89.2903 Z" fill="#000000" fill-rule="evenodd" fill-opacity="1" /><path clip-path="url(#clip130)" d="M1499.55 103.68 L1499.55 99.7892 Q1506.28 99.7892 1507.83 98.9864 Q1509.37 98.1217 1509.37 94.0457 L1509.37 28.273 Q1509.37 23.5794 1507.7 22.4059 Q1506.1 21.2325 1499.55 21.2325 L1499.55 17.28 L1517.71 15.9213 L1517.71 94.0457 Q1517.71 98.1217 1519.31 98.9864 Q1520.92 99.7892 1527.59 99.7892 L1527.59 103.68 Q1526.04 103.68 1522.83 103.556 Q1519.62 103.433 1517.27 103.371 Q1514.93 103.309 1513.57 103.309 Q1512.09 103.309 1499.55 103.68 Z" fill="#000000" fill-rule="evenodd" fill-opacity="1" /><path clip-path="url(#clip130)" d="M1533.89 75.827 Q1533.89 63.9076 1541.55 55.4467 Q1549.2 46.9858 1560.2 46.9858 Q1571.31 46.9858 1577.06 54.2115 Q1582.86 61.4373 1582.86 71.8127 Q1582.86 73.7272 1582.37 74.0977 Q1581.87 74.4683 1579.71 74.4683 L1544.39 74.4683 Q1544.39 87.3758 1548.22 93.4281 Q1553.53 101.889 1562.48 101.889 Q1563.72 101.889 1565.2 101.642 Q1566.68 101.395 1569.71 100.345 Q1572.73 99.2334 1575.39 96.3308 Q1578.04 93.4281 1579.59 88.858 Q1579.96 87.067 1581.19 87.1287 Q1582.86 87.1287 1582.86 88.611 Q1582.86 89.7226 1581.63 92.2547 Q1580.45 94.725 1578.17 97.6894 Q1575.88 100.654 1571.44 102.877 Q1567.05 105.1 1561.74 105.1 Q1550.62 105.1 1542.23 96.7013 Q1533.89 88.2404 1533.89 75.827 M1544.51 71.8127 L1574.52 71.8127 Q1574.52 69.1571 1574.03 66.1927 Q1573.6 63.2282 1572.24 59.1522 Q1570.94 55.0144 1567.85 52.4205 Q1564.77 49.8267 1560.2 49.8267 Q1558.16 49.8267 1555.94 50.6913 Q1553.77 51.5559 1551.12 53.6557 Q1548.46 55.7555 1546.61 60.5109 Q1544.76 65.2663 1544.51 71.8127 Z" fill="#000000" fill-rule="evenodd" fill-opacity="1" /><path clip-path="url(#clip130)" d="M1648.63 93.0576 Q1635.67 79.656 1635.67 60.4491 Q1635.67 41.1805 1648.76 27.8407 Q1661.85 14.5009 1679.64 14.5009 Q1684.08 14.5009 1687.85 15.5508 Q1691.68 16.5389 1694.71 18.5769 Q1697.73 20.5532 1699.28 21.9119 Q1700.88 23.2088 1703.04 25.3704 L1709.41 16.0448 Q1710.39 14.5009 1711.38 14.5009 Q1712.43 14.5009 1712.62 15.1185 Q1712.8 15.6743 1712.8 17.527 L1712.8 47.5416 Q1712.8 49.5796 1712.55 50.0737 Q1712.31 50.5678 1710.76 50.5678 Q1709.53 50.5678 1709.28 50.1972 Q1709.03 49.8267 1708.73 48.4062 Q1706.81 34.7576 1699.15 26.6055 Q1691.56 18.4534 1681.18 18.4534 Q1678.16 18.4534 1674.76 19.1328 Q1671.42 19.8121 1666.48 22.4059 Q1661.6 24.9998 1657.84 29.2611 Q1654.13 33.4607 1651.41 41.6128 Q1648.7 49.7032 1648.7 60.4491 Q1648.7 71.0716 1651.41 79.2237 Q1654.13 87.3758 1657.9 91.6371 Q1661.73 95.8367 1666.67 98.4923 Q1671.67 101.148 1675.19 101.889 Q1678.77 102.568 1681.92 102.568 Q1684.08 102.568 1686.62 102.136 Q1689.15 101.642 1692.92 100.283 Q1696.74 98.8628 1699.15 95.5279 Q1701.56 92.1929 1701.56 87.2523 L1701.56 79.1619 Q1701.56 75.3947 1699.71 74.2212 Q1697.86 73.0478 1689.77 73.0478 L1685.75 73.0478 L1685.75 69.1571 Q1690.32 69.5276 1706.07 69.5276 Q1707.49 69.5276 1721.51 69.1571 L1721.51 73.0478 Q1715.46 73.0478 1714.1 73.9742 Q1712.8 74.8388 1712.8 78.6061 L1712.8 100.654 Q1712.8 103.556 1711.69 103.556 Q1710.7 103.556 1707.74 100.716 Q1704.83 97.8747 1703.54 95.7132 Q1700.51 101.024 1693.9 103.742 Q1687.36 106.459 1679.88 106.459 Q1661.67 106.459 1648.63 93.0576 Z" fill="#000000" fill-rule="evenodd" fill-opacity="1" /><path clip-path="url(#clip130)" d="M1731.21 103.68 L1731.21 99.7892 Q1737.94 99.7892 1739.48 98.9864 Q1741.09 98.1217 1741.09 94.0457 L1741.09 60.1403 Q1741.09 55.4467 1739.42 54.2733 Q1737.81 53.0999 1731.21 53.0999 L1731.21 49.1473 L1748.81 47.7886 L1748.81 61.6843 Q1750.6 56.2495 1754.37 52.05 Q1758.19 47.7886 1764.37 47.7886 Q1768.45 47.7886 1771.04 50.0737 Q1773.7 52.3588 1773.7 55.5084 Q1773.7 58.2876 1771.97 59.708 Q1770.3 61.0667 1768.26 61.0667 Q1765.98 61.0667 1764.37 59.6463 Q1762.83 58.1641 1762.83 55.632 Q1762.83 54.088 1763.51 52.9146 Q1764.25 51.6794 1764.8 51.2471 Q1765.36 50.8148 1765.73 50.6913 Q1765.48 50.5678 1764.37 50.5678 Q1757.39 50.5678 1753.38 57.5465 Q1749.42 64.4634 1749.42 74.3448 L1749.42 93.7987 Q1749.42 97.4424 1750.91 98.6158 Q1752.45 99.7892 1759.06 99.7892 L1761.71 99.7892 L1761.71 103.68 Q1756.65 103.309 1745.66 103.309 Q1744.11 103.309 1741.7 103.371 Q1739.3 103.433 1736.15 103.556 Q1733 103.68 1731.21 103.68 Z" fill="#000000" fill-rule="evenodd" fill-opacity="1" /><path clip-path="url(#clip130)" d="M1782.4 91.6371 Q1782.4 80.8912 1795.06 75.2094 Q1802.66 71.5656 1818.35 70.6393 L1818.35 66.0074 Q1818.35 58.1641 1814.21 54.0262 Q1810.13 49.8267 1804.95 49.8267 Q1795.68 49.8267 1791.23 55.632 Q1795 55.7555 1796.36 57.67 Q1797.72 59.5227 1797.72 61.4373 Q1797.72 63.9693 1796.11 65.6368 Q1794.57 67.2425 1791.91 67.2425 Q1789.38 67.2425 1787.71 65.6986 Q1786.05 64.0929 1786.05 61.3137 Q1786.05 55.1379 1791.61 51.0618 Q1797.23 46.9858 1805.19 46.9858 Q1815.57 46.9858 1822.48 53.9645 Q1824.65 56.126 1825.7 58.9052 Q1826.81 61.6843 1826.93 63.537 Q1827.05 65.328 1827.05 68.91 L1827.05 94.1692 Q1827.05 94.9103 1827.3 96.1455 Q1827.55 97.3806 1828.66 98.9864 Q1829.83 100.53 1831.75 100.53 Q1836.32 100.53 1836.26 92.44 L1836.26 85.3378 L1839.47 85.3378 L1839.47 92.44 Q1839.47 99.1716 1835.89 101.827 Q1832.37 104.421 1829.09 104.421 Q1824.89 104.421 1822.24 101.333 Q1819.58 98.2453 1819.21 94.0457 Q1817.3 98.8628 1812.91 102.013 Q1808.59 105.1 1802.66 105.1 Q1798.09 105.1 1793.77 103.927 Q1789.51 102.815 1785.92 99.6657 Q1782.4 96.4543 1782.4 91.6371 M1792.16 91.5136 Q1792.16 96.2072 1795.5 99.2334 Q1798.83 102.26 1803.52 102.26 Q1808.84 102.26 1813.59 98.1835 Q1818.35 94.0457 1818.35 85.9553 L1818.35 73.2949 Q1804.33 73.7889 1798.21 79.4089 Q1792.16 84.9672 1792.16 91.5136 Z" fill="#000000" fill-rule="evenodd" fill-opacity="1" /><path clip-path="url(#clip130)" d="M1843.85 124.307 Q1850.58 124.307 1852.13 123.443 Q1853.73 122.64 1853.73 118.626 L1853.73 59.3992 Q1853.73 55.1997 1852.13 54.1498 Q1850.58 53.0999 1843.85 53.0999 L1843.85 49.1473 L1862.07 47.7886 L1862.07 56.126 Q1869.67 47.7886 1879.8 47.7886 Q1890.54 47.7886 1898.39 56.126 Q1906.23 64.4634 1906.23 76.3828 Q1906.23 88.4257 1897.89 96.7631 Q1889.55 105.1 1878.01 105.1 Q1871.71 105.1 1867.44 101.889 Q1863.25 98.6158 1862.44 96.2072 L1862.44 97.3806 L1862.44 118.626 Q1862.44 122.702 1864.05 123.504 Q1865.65 124.307 1872.32 124.307 L1872.32 128.198 Q1859.05 127.828 1858.06 127.828 Q1856.82 127.828 1843.85 128.198 L1843.85 124.307 M1862.44 89.2903 Q1862.44 91.2048 1862.69 91.8841 Q1863 92.5635 1864.23 94.6015 Q1869.24 102.26 1877.39 102.26 Q1877.45 102.26 1877.51 102.26 Q1884.74 102.26 1890.23 94.9103 Q1895.73 87.4993 1895.73 76.3828 Q1895.73 65.7603 1890.73 58.3493 Q1885.73 50.9383 1878.81 50.9383 Q1873.87 50.9383 1869.54 53.5939 Q1865.22 56.2495 1862.44 61.0667 L1862.44 89.2903 Z" fill="#000000" fill-rule="evenodd" fill-opacity="1" /><path clip-path="url(#clip130)" d="M1914.57 103.68 L1914.57 99.7892 Q1921.3 99.7892 1922.84 98.9864 Q1924.39 98.1217 1924.39 94.0457 L1924.39 28.273 Q1924.39 23.5794 1922.72 22.4059 Q1921.11 21.2325 1914.57 21.2325 L1914.57 17.28 L1932.72 15.9213 L1932.72 59.8933 L1932.85 59.8933 Q1934.88 55.3232 1939.46 51.5559 Q1944.03 47.7886 1951.07 47.7886 Q1960.58 47.7886 1964.34 52.4823 Q1967.12 55.632 1967.68 59.1522 Q1968.3 62.6724 1968.3 71.8127 L1968.3 95.9602 Q1968.42 98.6158 1970.46 99.2334 Q1972.5 99.7892 1978.18 99.7892 L1978.18 103.68 Q1965.27 103.309 1963.97 103.309 Q1962.98 103.309 1949.71 103.68 L1949.71 99.7892 Q1956.44 99.7892 1957.98 98.9864 Q1959.59 98.1217 1959.59 94.0457 L1959.59 64.5869 Q1959.59 58.1641 1957.61 54.3968 Q1955.64 50.5678 1950.2 50.5678 Q1943.65 50.5678 1938.41 56.0643 Q1933.16 61.5608 1933.16 70.8245 L1933.16 94.0457 Q1933.16 98.1217 1934.7 98.9864 Q1936.31 99.7892 1942.98 99.7892 L1942.98 103.68 Q1930.07 103.309 1928.83 103.309 Q1927.84 103.309 1914.57 103.68 Z" fill="#000000" fill-rule="evenodd" fill-opacity="1" /><polyline clip-path="url(#clip132)" style="stroke:#000000; stroke-linecap:butt; stroke-linejoin:round; stroke-width:4; stroke-opacity:1; fill:none" points="
  899.173,390.101 901.77,416.87 904.35,443.637 906.897,470.401 909.395,497.161 911.825,523.914 914.173,550.66 916.421,577.397 918.553,604.124 920.551,630.838 
  922.401,657.539 924.084,684.225 925.584,710.894 926.885,737.545 927.97,764.177 928.823,790.787 929.426,817.375 929.763,843.939 929.818,870.477 929.574,896.988 
  929.014,923.47 928.122,949.923 926.881,976.343 925.275,1002.73 923.286,1029.08 920.899,1055.4 918.115,1081.68 914.948,1107.93 911.415,1134.14 907.534,1160.32 
  903.321,1186.47 898.792,1212.59 893.963,1238.69 888.853,1264.76 883.476,1290.8 877.85,1316.83 871.992,1342.83 865.918,1368.81 859.644,1394.78 853.188,1420.72 
  846.565,1446.66 839.793,1472.57 832.888,1498.48 825.867,1524.38 818.746,1550.27 811.542,1576.15 804.271,1602.02 796.951,1627.89 789.597,1653.75 782.227,1679.62 
  
  "/>
<polyline clip-path="url(#clip132)" style="stroke:#000000; stroke-linecap:butt; stroke-linejoin:round; stroke-width:4; stroke-opacity:1; fill:none" points="
  899.173,390.101 909.676,410.047 920.192,429.981 930.733,449.894 941.312,469.774 951.941,489.611 962.634,509.394 973.403,529.111 984.261,548.753 995.22,568.307 
  1006.29,587.764 1017.49,607.112 1028.83,626.341 1040.32,645.44 1051.98,664.397 1063.81,683.203 1075.83,701.846 1088.06,720.315 1100.5,738.599 1113.17,756.688 
  1126.08,774.571 1139.24,792.237 1152.67,809.675 1166.38,826.874 1180.38,843.823 1194.68,860.512 1209.29,876.941 1224.19,893.12 1239.36,909.061 1254.8,924.774 
  1270.5,940.269 1286.43,955.558 1302.6,970.652 1318.98,985.561 1335.56,1000.3 1352.33,1014.87 1369.28,1029.29 1386.4,1043.57 1403.66,1057.72 1421.07,1071.75 
  1438.6,1085.67 1456.25,1099.49 1473.99,1113.23 1491.83,1126.89 1509.74,1140.49 1527.72,1154.03 1545.74,1167.53 1563.81,1180.99 1581.9,1194.44 1600,1207.87 
  
  "/>
<polyline clip-path="url(#clip132)" style="stroke:#000000; stroke-linecap:butt; stroke-linejoin:round; stroke-width:4; stroke-opacity:1; fill:none" points="
  782.227,1679.62 801.417,1674.33 820.598,1669.02 839.763,1663.68 858.903,1658.3 878.009,1652.87 897.073,1647.36 916.088,1641.76 935.044,1636.06 953.934,1630.25 
  972.748,1624.3 991.48,1618.22 1010.12,1611.97 1028.66,1605.55 1047.09,1598.94 1065.4,1592.13 1083.59,1585.1 1101.65,1577.85 1119.56,1570.34 1137.33,1562.58 
  1154.93,1554.54 1172.37,1546.21 1189.64,1537.58 1206.72,1528.63 1223.61,1519.35 1240.3,1509.72 1256.79,1499.75 1273.08,1489.44 1289.2,1478.82 1305.14,1467.89 
  1320.91,1456.68 1336.52,1445.18 1351.99,1433.43 1367.31,1421.44 1382.5,1409.21 1397.56,1396.76 1412.51,1384.12 1427.35,1371.28 1442.09,1358.27 1456.74,1345.11 
  1471.3,1331.79 1485.79,1318.35 1500.21,1304.8 1514.57,1291.14 1528.89,1277.39 1543.16,1263.57 1557.4,1249.7 1571.61,1235.78 1585.81,1221.83 1600,1207.87 
  
  "/>
<polyline clip-path="url(#clip132)" style="stroke:#000000; stroke-linecap:butt; stroke-linejoin:round; stroke-width:4; stroke-opacity:1; fill:none" points="
  1600,1207.87 1610.5,1227.82 1621.02,1247.75 1631.56,1267.66 1642.14,1287.54 1652.77,1307.38 1663.46,1327.16 1674.23,1346.88 1685.09,1366.52 1696.05,1386.08 
  1707.12,1405.53 1718.32,1424.88 1729.66,1444.11 1741.15,1463.21 1752.8,1482.17 1764.64,1500.97 1776.66,1519.62 1788.88,1538.09 1801.33,1556.37 1813.99,1574.46 
  1826.9,1592.34 1840.07,1610.01 1853.5,1627.45 1867.2,1644.65 1881.2,1661.6 1895.51,1678.28 1910.11,1694.71 1925.01,1710.89 1940.19,1726.83 1955.63,1742.55 
  1971.32,1758.04 1987.26,1773.33 2003.42,1788.43 2019.8,1803.34 2036.38,1818.07 2053.16,1832.64 2070.11,1847.06 2087.22,1861.34 2104.49,1875.49 2121.89,1889.52 
  2139.42,1903.45 2157.07,1917.27 2174.82,1931.01 2192.65,1944.67 2210.57,1958.26 2228.54,1971.81 2246.57,1985.3 2264.63,1998.77 2282.72,2012.21 2300.82,2025.65 
  
  "/>
<polyline clip-path="url(#clip132)" style="stroke:#000000; stroke-linecap:butt; stroke-linejoin:round; stroke-width:4; stroke-opacity:1; fill:none" points="
  1600,1207.87 1619.19,1202.58 1638.37,1197.27 1657.53,1191.93 1676.67,1186.55 1695.78,1181.12 1714.85,1175.61 1733.86,1170.01 1752.82,1164.31 1771.71,1158.5 
  1790.52,1152.56 1809.25,1146.47 1827.89,1140.22 1846.43,1133.8 1864.86,1127.2 1883.18,1120.39 1901.37,1113.36 1919.42,1106.1 1937.34,1098.6 1955.1,1090.83 
  1972.71,1082.79 1990.14,1074.47 2007.41,1065.84 2024.49,1056.89 2041.38,1047.61 2058.07,1037.98 2074.56,1028 2090.86,1017.7 2106.97,1007.08 2122.91,996.148 
  2138.68,984.931 2154.3,973.441 2169.76,961.69 2185.08,949.693 2200.27,937.465 2215.34,925.021 2230.28,912.374 2245.12,899.539 2259.86,886.531 2274.51,873.364 
  2289.07,860.052 2303.56,846.611 2317.98,833.053 2332.35,819.395 2346.66,805.65 2360.93,791.832 2375.17,777.957 2389.39,764.039 2403.58,750.091 2417.77,736.129 
  
  "/>
<polyline clip-path="url(#clip132)" style="stroke:#000000; stroke-linecap:butt; stroke-linejoin:round; stroke-width:4; stroke-opacity:1; fill:none" points="
  2300.82,2025.65 2308.19,1999.78 2315.55,1973.92 2322.87,1948.05 2330.14,1922.17 2337.34,1896.29 2344.46,1870.41 2351.48,1844.51 2358.39,1818.6 2365.16,1792.68 
  2371.78,1766.75 2378.24,1740.8 2384.51,1714.84 2390.59,1688.86 2396.45,1662.86 2402.07,1636.83 2407.45,1610.79 2412.56,1584.72 2417.39,1558.62 2421.92,1532.5 
  2426.13,1506.35 2430.01,1480.17 2433.54,1453.95 2436.71,1427.71 2439.5,1401.43 2441.88,1375.11 2443.87,1348.76 2445.48,1322.37 2446.72,1295.95 2447.61,1269.5 
  2448.17,1243.02 2448.42,1216.51 2448.36,1189.97 2448.02,1163.4 2447.42,1136.82 2446.57,1110.2 2445.48,1083.57 2444.18,1056.92 2442.68,1030.25 2441,1003.57 
  2439.15,976.866 2437.15,950.152 2435.02,923.426 2432.77,896.689 2430.42,869.943 2427.99,843.189 2425.5,816.429 2422.95,789.665 2420.37,762.898 2417.77,736.129 
  
  "/>
<path clip-path="url(#clip132)" d="
M1042.69 390.101 L970.934 265.808 L827.412 265.808 L755.652 390.101 L827.412 514.395 L970.934 514.395 L1042.69 390.101 L1042.69 390.101  Z
  " fill="#f5fffa" fill-rule="evenodd" fill-opacity="1"/>
<polyline clip-path="url(#clip132)" style="stroke:#000000; stroke-linecap:butt; stroke-linejoin:round; stroke-width:4; stroke-opacity:1; fill:none" points="
  1042.69,390.101 970.934,265.808 827.412,265.808 755.652,390.101 827.412,514.395 970.934,514.395 1042.69,390.101 
  "/>
<path clip-path="url(#clip132)" d="
M925.749 1679.62 L853.988 1555.33 L710.466 1555.33 L638.706 1679.62 L710.466 1803.91 L853.988 1803.91 L925.749 1679.62 L925.749 1679.62  Z
  " fill="#f5fffa" fill-rule="evenodd" fill-opacity="1"/>
<polyline clip-path="url(#clip132)" style="stroke:#000000; stroke-linecap:butt; stroke-linejoin:round; stroke-width:4; stroke-opacity:1; fill:none" points="
  925.749,1679.62 853.988,1555.33 710.466,1555.33 638.706,1679.62 710.466,1803.91 853.988,1803.91 925.749,1679.62 
  "/>
<path clip-path="url(#clip132)" d="
M1743.52 1207.87 L1671.76 1083.58 L1528.24 1083.58 L1456.48 1207.87 L1528.24 1332.16 L1671.76 1332.16 L1743.52 1207.87 L1743.52 1207.87  Z
  " fill="#f5fffa" fill-rule="evenodd" fill-opacity="1"/>
<polyline clip-path="url(#clip132)" style="stroke:#000000; stroke-linecap:butt; stroke-linejoin:round; stroke-width:4; stroke-opacity:1; fill:none" points="
  1743.52,1207.87 1671.76,1083.58 1528.24,1083.58 1456.48,1207.87 1528.24,1332.16 1671.76,1332.16 1743.52,1207.87 
  "/>
<path clip-path="url(#clip132)" d="
M2444.34 2025.65 L2372.58 1901.35 L2229.06 1901.35 L2157.3 2025.65 L2229.06 2149.94 L2372.58 2149.94 L2444.34 2025.65 L2444.34 2025.65  Z
  " fill="#f5fffa" fill-rule="evenodd" fill-opacity="1"/>
<polyline clip-path="url(#clip132)" style="stroke:#000000; stroke-linecap:butt; stroke-linejoin:round; stroke-width:4; stroke-opacity:1; fill:none" points="
  2444.34,2025.65 2372.58,1901.35 2229.06,1901.35 2157.3,2025.65 2229.06,2149.94 2372.58,2149.94 2444.34,2025.65 
  "/>
<path clip-path="url(#clip132)" d="
M2561.29 736.129 L2489.53 611.836 L2346.01 611.836 L2274.25 736.129 L2346.01 860.423 L2489.53 860.423 L2561.29 736.129 L2561.29 736.129  Z
  " fill="#f5fffa" fill-rule="evenodd" fill-opacity="1"/>
<polyline clip-path="url(#clip132)" style="stroke:#000000; stroke-linecap:butt; stroke-linejoin:round; stroke-width:4; stroke-opacity:1; fill:none" points="
  2561.29,736.129 2489.53,611.836 2346.01,611.836 2274.25,736.129 2346.01,860.423 2489.53,860.423 2561.29,736.129 
  "/>
<circle clip-path="url(#clip132)" style="fill:#f5fffa; stroke:none; fill-opacity:1" cx="899.173" cy="390.101" r="2"/>
<circle clip-path="url(#clip132)" style="fill:#f5fffa; stroke:none; fill-opacity:1" cx="782.227" cy="1679.62" r="2"/>
<circle clip-path="url(#clip132)" style="fill:#f5fffa; stroke:none; fill-opacity:1" cx="1600" cy="1207.87" r="2"/>
<circle clip-path="url(#clip132)" style="fill:#f5fffa; stroke:none; fill-opacity:1" cx="2300.82" cy="2025.65" r="2"/>
<circle clip-path="url(#clip132)" style="fill:#f5fffa; stroke:none; fill-opacity:1" cx="2417.77" cy="736.129" r="2"/>
<path clip-path="url(#clip130)" d="M886.514 377.675 Q883.354 377.675 881.754 380.794 Q880.174 383.893 880.174 390.132 Q880.174 396.35 881.754 399.469 Q883.354 402.568 886.514 402.568 Q889.694 402.568 891.274 399.469 Q892.874 396.35 892.874 390.132 Q892.874 383.893 891.274 380.794 Q889.694 377.675 886.514 377.675 M886.514 374.434 Q891.598 374.434 894.272 378.465 Q896.965 382.475 896.965 390.132 Q896.965 397.768 894.272 401.798 Q891.598 405.809 886.514 405.809 Q881.43 405.809 878.736 401.798 Q876.063 397.768 876.063 390.132 Q876.063 382.475 878.736 378.465 Q881.43 374.434 886.514 374.434 Z" fill="#000000" fill-rule="evenodd" fill-opacity="1" /><path clip-path="url(#clip130)" d="M904.865 401.778 L911.549 401.778 L911.549 378.708 L904.277 380.166 L904.277 376.44 L911.508 374.981 L915.6 374.981 L915.6 401.778 L922.284 401.778 L922.284 405.221 L904.865 405.221 L904.865 401.778 Z" fill="#000000" fill-rule="evenodd" fill-opacity="1" /><path clip-path="url(#clip130)" d="M769.73 1667.19 Q766.57 1667.19 764.97 1670.31 Q763.391 1673.41 763.391 1679.65 Q763.391 1685.87 764.97 1688.99 Q766.57 1692.09 769.73 1692.09 Q772.91 1692.09 774.49 1688.99 Q776.09 1685.87 776.09 1679.65 Q776.09 1673.41 774.49 1670.31 Q772.91 1667.19 769.73 1667.19 M769.73 1663.95 Q774.814 1663.95 777.488 1667.98 Q780.182 1671.99 780.182 1679.65 Q780.182 1687.29 777.488 1691.32 Q774.814 1695.33 769.73 1695.33 Q764.646 1695.33 761.952 1691.32 Q759.279 1687.29 759.279 1679.65 Q759.279 1671.99 761.952 1667.98 Q764.646 1663.95 769.73 1663.95 Z" fill="#000000" fill-rule="evenodd" fill-opacity="1" /><path clip-path="url(#clip130)" d="M790.896 1691.3 L805.176 1691.3 L805.176 1694.74 L785.974 1694.74 L785.974 1691.3 Q788.304 1688.89 792.314 1684.83 Q796.345 1680.76 797.378 1679.59 Q799.342 1677.38 800.112 1675.86 Q800.902 1674.32 800.902 1672.84 Q800.902 1670.43 799.201 1668.91 Q797.519 1667.4 794.805 1667.4 Q792.881 1667.4 790.734 1668.06 Q788.607 1668.73 786.177 1670.09 L786.177 1665.96 Q788.648 1664.97 790.795 1664.46 Q792.942 1663.95 794.724 1663.95 Q799.423 1663.95 802.218 1666.3 Q805.014 1668.65 805.014 1672.58 Q805.014 1674.44 804.305 1676.13 Q803.616 1677.79 801.773 1680.05 Q801.266 1680.64 798.552 1683.46 Q795.838 1686.25 790.896 1691.3 Z" fill="#000000" fill-rule="evenodd" fill-opacity="1" /><path clip-path="url(#clip130)" d="M1587.09 1195.44 Q1583.93 1195.44 1582.33 1198.56 Q1580.75 1201.66 1580.75 1207.9 Q1580.75 1214.12 1582.33 1217.24 Q1583.93 1220.34 1587.09 1220.34 Q1590.27 1220.34 1591.85 1217.24 Q1593.45 1214.12 1593.45 1207.9 Q1593.45 1201.66 1591.85 1198.56 Q1590.27 1195.44 1587.09 1195.44 M1587.09 1192.2 Q1592.17 1192.2 1594.84 1196.23 Q1597.54 1200.24 1597.54 1207.9 Q1597.54 1215.54 1594.84 1219.57 Q1592.17 1223.58 1587.09 1223.58 Q1582 1223.58 1579.31 1219.57 Q1576.64 1215.54 1576.64 1207.9 Q1576.64 1200.24 1579.31 1196.23 Q1582 1192.2 1587.09 1192.2 Z" fill="#000000" fill-rule="evenodd" fill-opacity="1" /><path clip-path="url(#clip130)" d="M1617.12 1206.69 Q1620.06 1207.31 1621.7 1209.3 Q1623.36 1211.28 1623.36 1214.2 Q1623.36 1218.68 1620.28 1221.13 Q1617.21 1223.58 1611.53 1223.58 Q1609.63 1223.58 1607.6 1223.19 Q1605.6 1222.83 1603.45 1222.08 L1603.45 1218.13 Q1605.15 1219.12 1607.18 1219.63 Q1609.2 1220.13 1611.41 1220.13 Q1615.26 1220.13 1617.27 1218.62 Q1619.29 1217.1 1619.29 1214.2 Q1619.29 1211.53 1617.41 1210.03 Q1615.54 1208.51 1612.2 1208.51 L1608.68 1208.51 L1608.68 1205.15 L1612.36 1205.15 Q1615.38 1205.15 1616.98 1203.95 Q1618.58 1202.74 1618.58 1200.47 Q1618.58 1198.14 1616.92 1196.9 Q1615.28 1195.65 1612.2 1195.65 Q1610.52 1195.65 1608.6 1196.01 Q1606.67 1196.38 1604.36 1197.15 L1604.36 1193.5 Q1606.69 1192.85 1608.72 1192.53 Q1610.76 1192.2 1612.57 1192.2 Q1617.23 1192.2 1619.94 1194.33 Q1622.65 1196.44 1622.65 1200.04 Q1622.65 1202.55 1621.22 1204.3 Q1619.78 1206.02 1617.12 1206.69 Z" fill="#000000" fill-rule="evenodd" fill-opacity="1" /><path clip-path="url(#clip130)" d="M2287.41 2013.22 Q2284.25 2013.22 2282.65 2016.34 Q2281.07 2019.44 2281.07 2025.68 Q2281.07 2031.9 2282.65 2035.01 Q2284.25 2038.11 2287.41 2038.11 Q2290.59 2038.11 2292.17 2035.01 Q2293.77 2031.9 2293.77 2025.68 Q2293.77 2019.44 2292.17 2016.34 Q2290.59 2013.22 2287.41 2013.22 M2287.41 2009.98 Q2292.5 2009.98 2295.17 2014.01 Q2297.87 2018.02 2297.87 2025.68 Q2297.87 2033.31 2295.17 2037.34 Q2292.5 2041.35 2287.41 2041.35 Q2282.33 2041.35 2279.64 2037.34 Q2276.96 2033.31 2276.96 2025.68 Q2276.96 2018.02 2279.64 2014.01 Q2282.33 2009.98 2287.41 2009.98 Z" fill="#000000" fill-rule="evenodd" fill-opacity="1" /><path clip-path="url(#clip130)" d="M2316.3 2014.09 L2305.97 2030.23 L2316.3 2030.23 L2316.3 2014.09 M2315.22 2010.53 L2320.37 2010.53 L2320.37 2030.23 L2324.68 2030.23 L2324.68 2033.64 L2320.37 2033.64 L2320.37 2040.77 L2316.3 2040.77 L2316.3 2033.64 L2302.65 2033.64 L2302.65 2029.69 L2315.22 2010.53 Z" fill="#000000" fill-rule="evenodd" fill-opacity="1" /><path clip-path="url(#clip130)" d="M2405.01 723.703 Q2401.85 723.703 2400.25 726.822 Q2398.67 729.921 2398.67 736.16 Q2398.67 742.378 2400.25 745.497 Q2401.85 748.596 2405.01 748.596 Q2408.19 748.596 2409.77 745.497 Q2411.37 742.378 2411.37 736.16 Q2411.37 729.921 2409.77 726.822 Q2408.19 723.703 2405.01 723.703 M2405.01 720.463 Q2410.1 720.463 2412.77 724.493 Q2415.46 728.504 2415.46 736.16 Q2415.46 743.796 2412.77 747.826 Q2410.1 751.837 2405.01 751.837 Q2399.93 751.837 2397.23 747.826 Q2394.56 743.796 2394.56 736.16 Q2394.56 728.504 2397.23 724.493 Q2399.93 720.463 2405.01 720.463 Z" fill="#000000" fill-rule="evenodd" fill-opacity="1" /><path clip-path="url(#clip130)" d="M2422.69 721.009 L2438.76 721.009 L2438.76 724.453 L2426.44 724.453 L2426.44 731.866 Q2427.33 731.562 2428.22 731.42 Q2429.12 731.258 2430.01 731.258 Q2435.07 731.258 2438.03 734.033 Q2440.98 736.808 2440.98 741.548 Q2440.98 746.429 2437.95 749.143 Q2434.91 751.837 2429.38 751.837 Q2427.47 751.837 2425.49 751.513 Q2423.53 751.189 2421.42 750.541 L2421.42 746.429 Q2423.24 747.421 2425.19 747.907 Q2427.13 748.394 2429.3 748.394 Q2432.8 748.394 2434.85 746.55 Q2436.89 744.707 2436.89 741.548 Q2436.89 738.388 2434.85 736.545 Q2432.8 734.701 2429.3 734.701 Q2427.66 734.701 2426.02 735.066 Q2424.4 735.431 2422.69 736.2 L2422.69 721.009 Z" fill="#000000" fill-rule="evenodd" fill-opacity="1" /></svg>
