<?xml version="1.0" encoding="utf-8"?>
<svg xmlns="http://www.w3.org/2000/svg" xmlns:xlink="http://www.w3.org/1999/xlink" width="800" height="600" viewBox="0 0 3200 2400">
<defs>
  <clipPath id="clip140">
    <rect x="0" y="0" width="3200" height="2400"/>
  </clipPath>
</defs>
<path clip-path="url(#clip140)" d="
M0 2400 L3200 2400 L3200 0 L0 0  Z
  " fill="#ffffff" fill-rule="evenodd" fill-opacity="1"/>
<defs>
  <clipPath id="clip141">
    <rect x="640" y="0" width="2241" height="2241"/>
  </clipPath>
</defs>
<path clip-path="url(#clip140)" d="
M455.118 2352.76 L2744.88 2352.76 L2744.88 62.9921 L455.118 62.9921  Z
  " fill="#ffffff" fill-rule="evenodd" fill-opacity="1"/>
<defs>
  <clipPath id="clip142">
    <rect x="455" y="62" width="2291" height="2291"/>
  </clipPath>
</defs>
<path clip-path="url(#clip140)" d="M1221.82 103.433 L1221.82 78.112 Q1221.82 76.6916 1221.88 76.1975 Q1221.95 75.7034 1222.32 75.3329 Q1222.69 74.9623 1223.43 74.9623 Q1224.85 74.9623 1224.97 76.2593 Q1225.34 88.7962 1232.82 95.7132 Q1240.16 102.568 1252.76 102.568 Q1260.36 102.568 1265.05 97.1336 Q1269.75 91.6371 1269.75 84.4731 Q1269.75 77.618 1265.79 72.8008 Q1264.13 70.6393 1262.03 69.2806 Q1259.99 67.8601 1258.69 67.4278 Q1257.46 66.9955 1255.05 66.3779 Q1239.36 62.6107 1238.37 62.1784 Q1230.9 59.6463 1226.33 53.2851 Q1221.82 46.8623 1221.82 39.019 Q1221.82 28.8906 1228.92 21.7266 Q1236.09 14.5009 1246.46 14.5009 Q1251.65 14.5009 1255.97 16.1683 Q1260.36 17.7741 1262.15 19.2563 Q1263.94 20.7385 1266.72 23.3941 L1271.11 16.1683 Q1272.09 14.5009 1273.02 14.5009 Q1274.01 14.5009 1274.19 15.1185 Q1274.44 15.6743 1274.44 17.527 L1274.44 42.9715 Q1274.44 44.3919 1274.38 44.886 Q1274.32 45.3801 1273.88 45.6889 Q1273.51 45.9977 1272.77 45.9977 Q1271.54 45.9977 1271.23 44.5155 Q1267.71 18.0829 1246.59 18.0829 Q1239.36 18.0829 1234.61 22.9618 Q1229.91 27.7789 1229.91 34.6341 Q1229.91 40.1924 1233.37 44.7625 Q1236.83 49.2709 1242.7 50.6913 L1258.88 54.5821 Q1266.97 56.4966 1272.4 63.6606 Q1277.84 70.8245 1277.84 80.1501 Q1277.84 90.896 1270.8 98.6776 Q1263.82 106.459 1252.89 106.459 Q1245.04 106.459 1238.99 103.865 Q1232.94 101.271 1229.67 97.6277 Q1227.13 101.827 1225.47 104.174 L1225.1 104.792 Q1224.11 106.459 1223.18 106.459 Q1222.19 106.459 1222.01 105.842 Q1221.82 105.224 1221.82 103.433 Z" fill="#000000" fill-rule="evenodd" fill-opacity="1" /><path clip-path="url(#clip140)" d="M1289.08 103.68 L1289.08 99.7892 Q1295.81 99.7892 1297.35 98.9864 Q1298.9 98.1217 1298.9 94.0457 L1298.9 60.0168 Q1298.9 55.3232 1297.29 54.2115 Q1295.75 53.0999 1289.57 53.0999 L1289.57 49.1473 L1307.23 47.7886 L1307.23 94.1692 Q1307.23 97.9365 1308.59 98.8628 Q1309.95 99.7892 1316.13 99.7892 L1316.13 103.68 Q1303.22 103.309 1302.97 103.309 Q1301.24 103.309 1289.08 103.68 M1294.39 25.7409 Q1294.39 23.2088 1296.3 21.1708 Q1298.28 19.071 1301.06 19.071 Q1303.84 19.071 1305.81 20.9855 Q1307.79 22.8383 1307.79 25.8027 Q1307.79 28.7053 1305.81 30.6198 Q1303.84 32.4726 1301.06 32.4726 Q1298.16 32.4726 1296.24 30.4345 Q1294.39 28.3965 1294.39 25.7409 Z" fill="#000000" fill-rule="evenodd" fill-opacity="1" /><path clip-path="url(#clip140)" d="M1323.97 103.68 L1323.97 99.7892 Q1330.7 99.7892 1332.25 98.9864 Q1333.79 98.1217 1333.79 94.0457 L1333.79 60.1403 Q1333.79 55.4467 1332.12 54.2733 Q1330.52 53.0999 1323.97 53.0999 L1323.97 49.1473 L1341.76 47.7886 L1341.76 61.0667 Q1347.69 47.7886 1360.47 47.7886 Q1375.29 47.7886 1377.33 60.1403 Q1379.49 55.3232 1384 51.5559 Q1388.57 47.7886 1395.67 47.7886 Q1405.18 47.7886 1408.95 52.4823 Q1411.73 55.632 1412.29 59.1522 Q1412.84 62.6724 1412.84 71.8127 L1412.84 95.9602 Q1412.96 98.6158 1415 99.2334 Q1417.04 99.7892 1422.72 99.7892 L1422.72 103.68 Q1409.82 103.309 1408.58 103.309 Q1407.59 103.309 1394.25 103.68 L1394.25 99.7892 Q1400.98 99.7892 1402.53 98.9864 Q1404.13 98.1217 1404.13 94.0457 L1404.13 64.5869 Q1404.13 58.1641 1402.16 54.3968 Q1400.18 50.5678 1394.75 50.5678 Q1388.2 50.5678 1382.95 56.0643 Q1377.7 61.5608 1377.7 70.8245 L1377.7 94.0457 Q1377.7 98.1217 1379.24 98.9864 Q1380.85 99.7892 1387.58 99.7892 L1387.58 103.68 Q1374.67 103.309 1373.38 103.309 Q1372.39 103.309 1359.11 103.68 L1359.11 99.7892 Q1365.84 99.7892 1367.39 98.9864 Q1368.99 98.1217 1368.99 94.0457 L1368.99 64.5869 Q1368.99 58.1641 1367.02 54.3968 Q1365.04 50.5678 1359.61 50.5678 Q1353.06 50.5678 1347.81 56.0643 Q1342.56 61.5608 1342.56 70.8245 L1342.56 94.0457 Q1342.56 98.1217 1344.1 98.9864 Q1345.71 99.7892 1352.38 99.7892 L1352.38 103.68 Q1339.47 103.309 1338.24 103.309 Q1337.25 103.309 1323.97 103.68 Z" fill="#000000" fill-rule="evenodd" fill-opacity="1" /><path clip-path="url(#clip140)" d="M1428.71 124.307 Q1435.44 124.307 1436.99 123.443 Q1438.59 122.64 1438.59 118.626 L1438.59 59.3992 Q1438.59 55.1997 1436.99 54.1498 Q1435.44 53.0999 1428.71 53.0999 L1428.71 49.1473 L1446.93 47.7886 L1446.93 56.126 Q1454.53 47.7886 1464.66 47.7886 Q1475.4 47.7886 1483.25 56.126 Q1491.09 64.4634 1491.09 76.3828 Q1491.09 88.4257 1482.75 96.7631 Q1474.41 105.1 1462.87 105.1 Q1456.57 105.1 1452.3 101.889 Q1448.11 98.6158 1447.3 96.2072 L1447.3 97.3806 L1447.3 118.626 Q1447.3 122.702 1448.91 123.504 Q1450.51 124.307 1457.18 124.307 L1457.18 128.198 Q1443.91 127.828 1442.92 127.828 Q1441.68 127.828 1428.71 128.198 L1428.71 124.307 M1447.3 89.2903 Q1447.3 91.2048 1447.55 91.8841 Q1447.86 92.5635 1449.09 94.6015 Q1454.1 102.26 1462.25 102.26 Q1462.31 102.26 1462.37 102.26 Q1469.6 102.26 1475.09 94.9103 Q1480.59 87.4993 1480.59 76.3828 Q1480.59 65.7603 1475.59 58.3493 Q1470.59 50.9383 1463.67 50.9383 Q1458.73 50.9383 1454.4 53.5939 Q1450.08 56.2495 1447.3 61.0667 L1447.3 89.2903 Z" fill="#000000" fill-rule="evenodd" fill-opacity="1" /><path clip-path="url(#clip140)" d="M1499.55 103.68 L1499.55 99.7892 Q1506.28 99.7892 1507.83 98.9864 Q1509.37 98.1217 1509.37 94.0457 L1509.37 28.273 Q1509.37 23.5794 1507.7 22.4059 Q1506.1 21.2325 1499.55 21.2325 L1499.55 17.28 L1517.71 15.9213 L1517.71 94.0457 Q1517.71 98.1217 1519.31 98.9864 Q1520.92 99.7892 1527.59 99.7892 L1527.59 103.68 Q1526.04 103.68 1522.83 103.556 Q1519.62 103.433 1517.27 103.371 Q1514.93 103.309 1513.57 103.309 Q1512.09 103.309 1499.55 103.68 Z" fill="#000000" fill-rule="evenodd" fill-opacity="1" /><path clip-path="url(#clip140)" d="M1533.89 75.827 Q1533.89 63.9076 1541.55 55.4467 Q1549.2 46.9858 1560.2 46.9858 Q1571.31 46.9858 1577.06 54.2115 Q1582.86 61.4373 1582.86 71.8127 Q1582.86 73.7272 1582.37 74.0977 Q1581.87 74.4683 1579.71 74.4683 L1544.39 74.4683 Q1544.39 87.3758 1548.22 93.4281 Q1553.53 101.889 1562.48 101.889 Q1563.72 101.889 1565.2 101.642 Q1566.68 101.395 1569.71 100.345 Q1572.73 99.2334 1575.39 96.3308 Q1578.04 93.4281 1579.59 88.858 Q1579.96 87.067 1581.19 87.1287 Q1582.86 87.1287 1582.86 88.611 Q1582.86 89.7226 1581.63 92.2547 Q1580.45 94.725 1578.17 97.6894 Q1575.88 100.654 1571.44 102.877 Q1567.05 105.1 1561.74 105.1 Q1550.62 105.1 1542.23 96.7013 Q1533.89 88.2404 1533.89 75.827 M1544.51 71.8127 L1574.52 71.8127 Q1574.52 69.1571 1574.03 66.1927 Q1573.6 63.2282 1572.24 59.1522 Q1570.94 55.0144 1567.85 52.4205 Q1564.77 49.8267 1560.2 49.8267 Q1558.16 49.8267 1555.94 50.6913 Q1553.77 51.5559 1551.12 53.6557 Q1548.46 55.7555 1546.61 60.5109 Q1544.76 65.2663 1544.51 71.8127 Z" fill="#000000" fill-rule="evenodd" fill-opacity="1" /><path clip-path="url(#clip140)" d="M1648.63 93.0576 Q1635.67 79.656 1635.67 60.4491 Q1635.67 41.1805 1648.76 27.8407 Q1661.85 14.5009 1679.64 14.5009 Q1684.08 14.5009 1687.85 15.5508 Q1691.68 16.5389 1694.71 18.5769 Q1697.73 20.5532 1699.28 21.9119 Q1700.88 23.2088 1703.04 25.3704 L1709.41 16.0448 Q1710.39 14.5009 1711.38 14.5009 Q1712.43 14.5009 1712.62 15.1185 Q1712.8 15.6743 1712.8 17.527 L1712.8 47.5416 Q1712.8 49.5796 1712.55 50.0737 Q1712.31 50.5678 1710.76 50.5678 Q1709.53 50.5678 1709.28 50.1972 Q1709.03 49.8267 1708.73 48.4062 Q1706.81 34.7576 1699.15 26.6055 Q1691.56 18.4534 1681.18 18.4534 Q1678.16 18.4534 1674.76 19.1328 Q1671.42 19.8121 1666.48 22.4059 Q1661.6 24.9998 1657.84 29.2611 Q1654.13 33.4607 1651.41 41.6128 Q1648.7 49.7032 1648.7 60.4491 Q1648.7 71.0716 1651.41 79.2237 Q1654.13 87.3758 1657.9 91.6371 Q1661.73 95.8367 1666.67 98.4923 Q1671.67 101.148 1675.19 101.889 Q1678.77 102.568 1681.92 102.568 Q1684.08 102.568 1686.62 102.136 Q1689.15 101.642 1692.92 100.283 Q1696.74 98.8628 1699.15 95.5279 Q1701.56 92.1929 1701.56 87.2523 L1701.56 79.1619 Q1701.56 75.3947 1699.71 74.2212 Q1697.86 73.0478 1689.77 73.0478 L1685.75 73.0478 L1685.75 69.1571 Q1690.32 69.5276 1706.07 69.5276 Q1707.49 69.5276 1721.51 69.1571 L1721.51 73.0478 Q1715.46 73.0478 1714.1 73.9742 Q1712.8 74.8388 1712.8 78.6061 L1712.8 100.654 Q1712.8 103.556 1711.69 103.556 Q1710.7 103.556 1707.74 100.716 Q1704.83 97.8747 1703.54 95.7132 Q1700.51 101.024 1693.9 103.742 Q1687.36 106.459 1679.88 106.459 Q1661.67 106.459 1648.63 93.0576 Z" fill="#000000" fill-rule="evenodd" fill-opacity="1" /><path clip-path="url(#clip140)" d="M1731.21 103.68 L1731.21 99.7892 Q1737.94 99.7892 1739.48 98.9864 Q1741.09 98.1217 1741.09 94.0457 L1741.09 60.1403 Q1741.09 55.4467 1739.42 54.2733 Q1737.81 53.0999 1731.21 53.0999 L1731.21 49.1473 L1748.81 47.7886 L1748.81 61.6843 Q1750.6 56.2495 1754.37 52.05 Q1758.19 47.7886 1764.37 47.7886 Q1768.45 47.7886 1771.04 50.0737 Q1773.7 52.3588 1773.7 55.5084 Q1773.7 58.2876 1771.97 59.708 Q1770.3 61.0667 1768.26 61.0667 Q1765.98 61.0667 1764.37 59.6463 Q1762.83 58.1641 1762.83 55.632 Q1762.83 54.088 1763.51 52.9146 Q1764.25 51.6794 1764.8 51.2471 Q1765.36 50.8148 1765.73 50.6913 Q1765.48 50.5678 1764.37 50.5678 Q1757.39 50.5678 1753.38 57.5465 Q1749.42 64.4634 1749.42 74.3448 L1749.42 93.7987 Q1749.42 97.4424 1750.91 98.6158 Q1752.45 99.7892 1759.06 99.7892 L1761.71 99.7892 L1761.71 103.68 Q1756.65 103.309 1745.66 103.309 Q1744.11 103.309 1741.7 103.371 Q1739.3 103.433 1736.15 103.556 Q1733 103.68 1731.21 103.68 Z" fill="#000000" fill-rule="evenodd" fill-opacity="1" /><path clip-path="url(#clip140)" d="M1782.4 91.6371 Q1782.4 80.8912 1795.06 75.2094 Q1802.66 71.5656 1818.35 70.6393 L1818.35 66.0074 Q1818.35 58.1641 1814.21 54.0262 Q1810.13 49.8267 1804.95 49.8267 Q1795.68 49.8267 1791.23 55.632 Q1795 55.7555 1796.36 57.67 Q1797.72 59.5227 1797.72 61.4373 Q1797.72 63.9693 1796.11 65.6368 Q1794.57 67.2425 1791.91 67.2425 Q1789.38 67.2425 1787.71 65.6986 Q1786.05 64.0929 1786.05 61.3137 Q1786.05 55.1379 1791.61 51.0618 Q1797.23 46.9858 1805.19 46.9858 Q1815.57 46.9858 1822.48 53.9645 Q1824.65 56.126 1825.7 58.9052 Q1826.81 61.6843 1826.93 63.537 Q1827.05 65.328 1827.05 68.91 L1827.05 94.1692 Q1827.05 94.9103 1827.3 96.1455 Q1827.55 97.3806 1828.66 98.9864 Q1829.83 100.53 1831.75 100.53 Q1836.32 100.53 1836.26 92.44 L1836.26 85.3378 L1839.47 85.3378 L1839.47 92.44 Q1839.47 99.1716 1835.89 101.827 Q1832.37 104.421 1829.09 104.421 Q1824.89 104.421 1822.24 101.333 Q1819.58 98.2453 1819.21 94.0457 Q1817.3 98.8628 1812.91 102.013 Q1808.59 105.1 1802.66 105.1 Q1798.09 105.1 1793.77 103.927 Q1789.51 102.815 1785.92 99.6657 Q1782.4 96.4543 1782.4 91.6371 M1792.16 91.5136 Q1792.16 96.2072 1795.5 99.2334 Q1798.83 102.26 1803.52 102.26 Q1808.84 102.26 1813.59 98.1835 Q1818.35 94.0457 1818.35 85.9553 L1818.35 73.2949 Q1804.33 73.7889 1798.21 79.4089 Q1792.16 84.9672 1792.16 91.5136 Z" fill="#000000" fill-rule="evenodd" fill-opacity="1" /><path clip-path="url(#clip140)" d="M1843.85 124.307 Q1850.58 124.307 1852.13 123.443 Q1853.73 122.64 1853.73 118.626 L1853.73 59.3992 Q1853.73 55.1997 1852.13 54.1498 Q1850.58 53.0999 1843.85 53.0999 L1843.85 49.1473 L1862.07 47.7886 L1862.07 56.126 Q1869.67 47.7886 1879.8 47.7886 Q1890.54 47.7886 1898.39 56.126 Q1906.23 64.4634 1906.23 76.3828 Q1906.23 88.4257 1897.89 96.7631 Q1889.55 105.1 1878.01 105.1 Q1871.71 105.1 1867.44 101.889 Q1863.25 98.6158 1862.44 96.2072 L1862.44 97.3806 L1862.44 118.626 Q1862.44 122.702 1864.05 123.504 Q1865.65 124.307 1872.32 124.307 L1872.32 128.198 Q1859.05 127.828 1858.06 127.828 Q1856.82 127.828 1843.85 128.198 L1843.85 124.307 M1862.44 89.2903 Q1862.44 91.2048 1862.69 91.8841 Q1863 92.5635 1864.23 94.6015 Q1869.24 102.26 1877.39 102.26 Q1877.45 102.26 1877.51 102.26 Q1884.74 102.26 1890.23 94.9103 Q1895.73 87.4993 1895.73 76.3828 Q1895.73 65.7603 1890.73 58.3493 Q1885.73 50.9383 1878.81 50.9383 Q1873.87 50.9383 1869.54 53.5939 Q1865.22 56.2495 1862.44 61.0667 L1862.44 89.2903 Z" fill="#000000" fill-rule="evenodd" fill-opacity="1" /><path clip-path="url(#clip140)" d="M1914.57 103.68 L1914.57 99.7892 Q1921.3 99.7892 1922.84 98.9864 Q1924.39 98.1217 1924.39 94.0457 L1924.39 28.273 Q1924.39 23.5794 1922.72 22.4059 Q1921.11 21.2325 1914.57 21.2325 L1914.57 17.28 L1932.72 15.9213 L1932.72 59.8933 L1932.85 59.8933 Q1934.88 55.3232 1939.46 51.5559 Q1944.03 47.7886 1951.07 47.7886 Q1960.58 47.7886 1964.34 52.4823 Q1967.12 55.632 1967.68 59.1522 Q1968.3 62.6724 1968.3 71.8127 L1968.3 95.9602 Q1968.42 98.6158 1970.46 99.2334 Q1972.5 99.7892 1978.18 99.7892 L1978.18 103.68 Q1965.27 103.309 1963.97 103.309 Q1962.98 103.309 1949.71 103.68 L1949.71 99.7892 Q1956.44 99.7892 1957.98 98.9864 Q1959.59 98.1217 1959.59 94.0457 L1959.59 64.5869 Q1959.59 58.1641 1957.61 54.3968 Q1955.64 50.5678 1950.2 50.5678 Q1943.65 50.5678 1938.41 56.0643 Q1933.16 61.5608 1933.16 70.8245 L1933.16 94.0457 Q1933.16 98.1217 1934.7 98.9864 Q1936.31 99.7892 1942.98 99.7892 L1942.98 103.68 Q1930.07 103.309 1928.83 103.309 Q1927.84 103.309 1914.57 103.68 Z" fill="#000000" fill-rule="evenodd" fill-opacity="1" /><polyline clip-path="url(#clip142)" style="stroke:#000000; stroke-linecap:butt; stroke-linejoin:round; stroke-width:4; stroke-opacity:1; fill:none" points="
  1700.26,390.101 1712.29,403.334 1724.33,416.552 1736.39,429.741 1748.47,442.889 1760.59,455.979 1772.75,468.998 1784.96,481.931 1797.24,494.765 1809.58,507.485 
  1822,520.078 1834.51,532.527 1847.12,544.821 1859.83,556.943 1872.65,568.881 1885.59,580.62 1898.67,592.145 1911.89,603.442 1925.25,614.498 1938.77,625.297 
  1952.45,635.826 1966.31,646.071 1980.36,656.017 1994.59,665.649 2009.02,674.955 2023.67,683.92 2038.52,692.543 2053.57,700.84 2068.81,708.823 2084.24,716.508 
  2099.84,723.908 2115.61,731.038 2131.53,737.912 2147.6,744.544 2163.81,750.948 2180.15,757.139 2196.62,763.131 2213.19,768.937 2229.87,774.573 2246.65,780.053 
  2263.52,785.39 2280.46,790.599 2297.47,795.695 2314.54,800.69 2331.67,805.601 2348.84,810.44 2366.04,815.222 2383.27,819.962 2400.52,824.673 2417.77,829.37 
  
  "/>
<polyline clip-path="url(#clip142)" style="stroke:#000000; stroke-linecap:butt; stroke-linejoin:round; stroke-width:4; stroke-opacity:1; fill:none" points="
  1700.26,390.101 1703.18,407.399 1706.09,424.696 1708.96,441.988 1711.78,459.274 1714.53,476.552 1717.21,493.819 1719.78,511.075 1722.24,528.316 1724.56,545.541 
  1726.74,562.748 1728.75,579.935 1730.57,597.099 1732.2,614.239 1733.62,631.352 1734.8,648.437 1735.73,665.492 1736.4,682.514 1736.79,699.501 1736.88,716.452 
  1736.65,733.365 1736.1,750.237 1735.19,767.066 1733.92,783.851 1732.27,800.588 1730.23,817.278 1727.78,833.918 1724.96,850.512 1721.77,867.061 1718.24,883.568 
  1714.37,900.034 1710.19,916.462 1705.71,932.852 1700.95,949.209 1695.92,965.533 1690.65,981.826 1685.14,998.091 1679.42,1014.33 1673.5,1030.54 1667.4,1046.74 
  1661.13,1062.91 1654.71,1079.06 1648.16,1095.2 1641.5,1111.32 1634.73,1127.43 1627.89,1143.53 1620.97,1159.62 1614.01,1175.71 1607.01,1191.79 1600,1207.87 
  
  "/>
<polyline clip-path="url(#clip142)" style="stroke:#000000; stroke-linecap:butt; stroke-linejoin:round; stroke-width:4; stroke-opacity:1; fill:none" points="
  2417.77,829.37 2403.19,841.636 2388.59,853.886 2373.98,866.107 2359.35,878.281 2344.7,890.396 2330,902.434 2315.27,914.382 2300.49,926.224 2285.65,937.945 
  2270.74,949.529 2255.77,960.962 2240.72,972.229 2225.59,983.314 2210.36,994.202 2195.04,1004.88 2179.61,1015.33 2164.07,1025.53 2148.41,1035.48 2132.62,1045.16 
  2116.71,1054.55 2100.65,1063.64 2084.44,1072.4 2068.08,1080.84 2051.56,1088.93 2034.87,1096.65 2018.01,1104.01 2000.99,1111.03 1983.82,1117.71 1966.5,1124.07 
  1949.04,1130.13 1931.45,1135.9 1913.73,1141.4 1895.89,1146.64 1877.94,1151.64 1859.89,1156.42 1841.73,1160.98 1823.49,1165.34 1805.16,1169.53 1786.75,1173.54 
  1768.28,1177.41 1749.74,1181.13 1731.14,1184.74 1712.5,1188.24 1693.81,1191.65 1675.09,1194.99 1656.34,1198.26 1637.57,1201.49 1618.79,1204.69 1600,1207.87 
  
  "/>
<polyline clip-path="url(#clip142)" style="stroke:#000000; stroke-linecap:butt; stroke-linejoin:round; stroke-width:4; stroke-opacity:1; fill:none" points="
  1600,1207.87 1585.41,1220.14 1570.82,1232.39 1556.21,1244.61 1541.58,1256.79 1526.92,1268.9 1512.23,1280.94 1497.5,1292.89 1482.71,1304.73 1467.87,1316.45 
  1452.97,1328.03 1438,1339.47 1422.95,1350.73 1407.81,1361.82 1392.59,1372.71 1377.26,1383.38 1361.84,1393.83 1346.3,1404.04 1330.64,1413.99 1314.85,1423.66 
  1298.93,1433.05 1282.87,1442.14 1266.67,1450.91 1250.31,1459.34 1233.79,1467.43 1217.1,1475.16 1200.24,1482.52 1183.22,1489.53 1166.05,1496.21 1148.73,1502.58 
  1131.27,1508.64 1113.68,1514.41 1095.96,1519.91 1078.12,1525.15 1060.17,1530.15 1042.11,1534.92 1023.96,1539.48 1005.72,1543.85 987.388,1548.03 968.982,1552.05 
  950.506,1555.91 931.967,1559.64 913.373,1563.25 894.729,1566.75 876.043,1570.16 857.322,1573.49 838.572,1576.77 819.802,1580 801.018,1583.2 782.227,1586.38 
  
  "/>
<polyline clip-path="url(#clip142)" style="stroke:#000000; stroke-linecap:butt; stroke-linejoin:round; stroke-width:4; stroke-opacity:1; fill:none" points="
  1600,1207.87 1602.92,1225.17 1605.82,1242.47 1608.7,1259.76 1611.52,1277.05 1614.27,1294.32 1616.94,1311.59 1619.52,1328.85 1621.97,1346.09 1624.3,1363.31 
  1626.47,1380.52 1628.48,1397.71 1630.31,1414.87 1631.94,1432.01 1633.35,1449.12 1634.54,1466.21 1635.47,1483.26 1636.14,1500.29 1636.53,1517.27 1636.62,1534.22 
  1636.39,1551.14 1635.83,1568.01 1634.93,1584.84 1633.66,1601.62 1632.01,1618.36 1629.97,1635.05 1627.52,1651.69 1624.7,1668.28 1621.51,1684.83 1617.98,1701.34 
  1614.11,1717.81 1609.93,1734.23 1605.45,1750.63 1600.69,1766.98 1595.66,1783.31 1590.39,1799.6 1584.88,1815.86 1579.16,1832.1 1573.24,1848.32 1567.14,1864.51 
  1560.87,1880.68 1554.45,1896.83 1547.9,1912.97 1541.24,1929.09 1534.47,1945.2 1527.63,1961.31 1520.71,1977.4 1513.75,1993.48 1506.75,2009.57 1499.74,2025.65 
  
  "/>
<polyline clip-path="url(#clip142)" style="stroke:#000000; stroke-linecap:butt; stroke-linejoin:round; stroke-width:4; stroke-opacity:1; fill:none" points="
  782.227,1586.38 794.258,1599.61 806.297,1612.83 818.353,1626.02 830.436,1639.17 842.553,1652.26 854.714,1665.28 866.928,1678.21 879.202,1691.04 891.546,1703.76 
  903.968,1716.36 916.477,1728.81 929.083,1741.1 941.792,1753.22 954.615,1765.16 967.56,1776.9 980.636,1788.42 993.851,1799.72 1007.21,1810.78 1020.73,1821.57 
  1034.42,1832.1 1048.28,1842.35 1062.32,1852.29 1076.56,1861.93 1090.99,1871.23 1105.63,1880.2 1120.48,1888.82 1135.54,1897.12 1150.78,1905.1 1166.21,1912.79 
  1181.81,1920.19 1197.57,1927.32 1213.5,1934.19 1229.57,1940.82 1245.78,1947.23 1262.12,1953.42 1278.58,1959.41 1295.16,1965.21 1311.84,1970.85 1328.62,1976.33 
  1345.48,1981.67 1362.42,1986.88 1379.44,1991.97 1396.51,1996.97 1413.63,2001.88 1430.8,2006.72 1448.01,2011.5 1465.24,2016.24 1482.48,2020.95 1499.74,2025.65 
  
  "/>
<path clip-path="url(#clip142)" d="
M1843.78 390.101 L1772.02 265.808 L1628.5 265.808 L1556.74 390.101 L1628.5 514.395 L1772.02 514.395 L1843.78 390.101 L1843.78 390.101  Z
  " fill="#f5fffa" fill-rule="evenodd" fill-opacity="1"/>
<polyline clip-path="url(#clip142)" style="stroke:#000000; stroke-linecap:butt; stroke-linejoin:round; stroke-width:4; stroke-opacity:1; fill:none" points="
  1843.78,390.101 1772.02,265.808 1628.5,265.808 1556.74,390.101 1628.5,514.395 1772.02,514.395 1843.78,390.101 
  "/>
<path clip-path="url(#clip142)" d="
M2561.29 829.37 L2489.53 705.077 L2346.01 705.077 L2274.25 829.37 L2346.01 953.663 L2489.53 953.663 L2561.29 829.37 L2561.29 829.37  Z
  " fill="#f5fffa" fill-rule="evenodd" fill-opacity="1"/>
<polyline clip-path="url(#clip142)" style="stroke:#000000; stroke-linecap:butt; stroke-linejoin:round; stroke-width:4; stroke-opacity:1; fill:none" points="
  2561.29,829.37 2489.53,705.077 2346.01,705.077 2274.25,829.37 2346.01,953.663 2489.53,953.663 2561.29,829.37 
  "/>
<path clip-path="url(#clip142)" d="
M1743.52 1207.87 L1671.76 1083.58 L1528.24 1083.58 L1456.48 1207.87 L1528.24 1332.17 L1671.76 1332.17 L1743.52 1207.87 L1743.52 1207.87  Z
  " fill="#f5fffa" fill-rule="evenodd" fill-opacity="1"/>
<polyline clip-path="url(#clip142)" style="stroke:#000000; stroke-linecap:butt; stroke-linejoin:round; stroke-width:4; stroke-opacity:1; fill:none" points="
  1743.52,1207.87 1671.76,1083.58 1528.24,1083.58 1456.48,1207.87 1528.24,1332.17 1671.76,1332.17 1743.52,1207.87 
  "/>
<path clip-path="url(#clip142)" d="
M925.749 1586.38 L853.988 1462.09 L710.466 1462.09 L638.706 1586.38 L710.466 1710.67 L853.988 1710.67 L925.749 1586.38 L925.749 1586.38  Z
  " fill="#f5fffa" fill-rule="evenodd" fill-opacity="1"/>
<polyline clip-path="url(#clip142)" style="stroke:#000000; stroke-linecap:butt; stroke-linejoin:round; stroke-width:4; stroke-opacity:1; fill:none" points="
  925.749,1586.38 853.988,1462.09 710.466,1462.09 638.706,1586.38 710.466,1710.67 853.988,1710.67 925.749,1586.38 925.749,1586.38 
  "/>
<path clip-path="url(#clip142)" d="
M1643.26 2025.65 L1571.5 1901.35 L1427.98 1901.35 L1356.22 2025.65 L1427.98 2149.94 L1571.5 2149.94 L1643.26 2025.65 L1643.26 2025.65  Z
  " fill="#f5fffa" fill-rule="evenodd" fill-opacity="1"/>
<polyline clip-path="url(#clip142)" style="stroke:#000000; stroke-linecap:butt; stroke-linejoin:round; stroke-width:4; stroke-opacity:1; fill:none" points="
  1643.26,2025.65 1571.5,1901.35 1427.98,1901.35 1356.22,2025.65 1427.98,2149.94 1571.5,2149.94 1643.26,2025.65 
  "/>
<circle clip-path="url(#clip142)" style="fill:#f5fffa; stroke:none; fill-opacity:1" cx="1700.26" cy="390.101" r="2"/>
<circle clip-path="url(#clip142)" style="fill:#f5fffa; stroke:none; fill-opacity:1" cx="2417.77" cy="829.37" r="2"/>
<circle clip-path="url(#clip142)" style="fill:#f5fffa; stroke:none; fill-opacity:1" cx="1600" cy="1207.87" r="2"/>
<circle clip-path="url(#clip142)" style="fill:#f5fffa; stroke:none; fill-opacity:1" cx="782.227" cy="1586.38" r="2"/>
<circle clip-path="url(#clip142)" style="fill:#f5fffa; stroke:none; fill-opacity:1" cx="1499.74" cy="2025.65" r="2"/>
<path clip-path="url(#clip140)" d="M1687.6 377.675 Q1684.44 377.675 1682.84 380.794 Q1681.26 383.893 1681.26 390.132 Q1681.26 396.35 1682.84 399.469 Q1684.44 402.568 1687.6 402.568 Q1690.78 402.568 1692.36 399.469 Q1693.96 396.35 1693.96 390.132 Q1693.96 383.893 1692.36 380.794 Q1690.78 377.675 1687.6 377.675 M1687.6 374.434 Q1692.69 374.434 1695.36 378.465 Q1698.05 382.475 1698.05 390.132 Q1698.05 397.768 1695.36 401.798 Q1692.69 405.809 1687.6 405.809 Q1682.52 405.809 1679.83 401.798 Q1677.15 397.768 1677.15 390.132 Q1677.15 382.475 1679.83 378.465 Q1682.52 374.434 1687.6 374.434 Z" fill="#000000" fill-rule="evenodd" fill-opacity="1" /><path clip-path="url(#clip140)" d="M1705.95 401.778 L1712.64 401.778 L1712.64 378.708 L1705.37 380.166 L1705.37 376.44 L1712.6 374.981 L1716.69 374.981 L1716.69 401.778 L1723.37 401.778 L1723.37 405.221 L1705.95 405.221 L1705.95 401.778 Z" fill="#000000" fill-rule="evenodd" fill-opacity="1" /><path clip-path="url(#clip140)" d="M2405.28 816.944 Q2402.12 816.944 2400.52 820.063 Q2398.94 823.162 2398.94 829.4 Q2398.94 835.618 2400.52 838.738 Q2402.12 841.837 2405.28 841.837 Q2408.46 841.837 2410.04 838.738 Q2411.64 835.618 2411.64 829.4 Q2411.64 823.162 2410.04 820.063 Q2408.46 816.944 2405.28 816.944 M2405.28 813.703 Q2410.36 813.703 2413.03 817.734 Q2415.73 821.744 2415.73 829.4 Q2415.73 837.036 2413.03 841.067 Q2410.36 845.077 2405.28 845.077 Q2400.19 845.077 2397.5 841.067 Q2394.82 837.036 2394.82 829.4 Q2394.82 821.744 2397.5 817.734 Q2400.19 813.703 2405.28 813.703 Z" fill="#000000" fill-rule="evenodd" fill-opacity="1" /><path clip-path="url(#clip140)" d="M2426.44 841.047 L2440.72 841.047 L2440.72 844.49 L2421.52 844.49 L2421.52 841.047 Q2423.85 838.636 2427.86 834.585 Q2431.89 830.514 2432.92 829.34 Q2434.89 827.132 2435.66 825.613 Q2436.45 824.073 2436.45 822.595 Q2436.45 820.184 2434.75 818.665 Q2433.06 817.146 2430.35 817.146 Q2428.43 817.146 2426.28 817.815 Q2424.15 818.483 2421.72 819.84 L2421.72 815.708 Q2424.19 814.716 2426.34 814.209 Q2428.49 813.703 2430.27 813.703 Q2434.97 813.703 2437.76 816.053 Q2440.56 818.402 2440.56 822.331 Q2440.56 824.195 2439.85 825.876 Q2439.16 827.537 2437.32 829.805 Q2436.81 830.393 2434.1 833.208 Q2431.38 836.003 2426.44 841.047 Z" fill="#000000" fill-rule="evenodd" fill-opacity="1" /><path clip-path="url(#clip140)" d="M1587.09 1195.45 Q1583.93 1195.45 1582.33 1198.57 Q1580.75 1201.67 1580.75 1207.9 Q1580.75 1214.12 1582.33 1217.24 Q1583.93 1220.34 1587.09 1220.34 Q1590.27 1220.34 1591.85 1217.24 Q1593.45 1214.12 1593.45 1207.9 Q1593.45 1201.67 1591.85 1198.57 Q1590.27 1195.45 1587.09 1195.45 M1587.09 1192.21 Q1592.17 1192.21 1594.84 1196.24 Q1597.54 1200.25 1597.54 1207.9 Q1597.54 1215.54 1594.84 1219.57 Q1592.17 1223.58 1587.09 1223.58 Q1582 1223.58 1579.31 1219.57 Q1576.64 1215.54 1576.64 1207.9 Q1576.64 1200.25 1579.31 1196.24 Q1582 1192.21 1587.09 1192.21 Z" fill="#000000" fill-rule="evenodd" fill-opacity="1" /><path clip-path="url(#clip140)" d="M1617.12 1206.69 Q1620.06 1207.32 1621.7 1209.3 Q1623.36 1211.29 1623.36 1214.2 Q1623.36 1218.68 1620.28 1221.13 Q1617.21 1223.58 1611.53 1223.58 Q1609.63 1223.58 1607.6 1223.2 Q1605.6 1222.83 1603.45 1222.08 L1603.45 1218.13 Q1605.15 1219.13 1607.18 1219.63 Q1609.2 1220.14 1611.41 1220.14 Q1615.26 1220.14 1617.27 1218.62 Q1619.29 1217.1 1619.29 1214.2 Q1619.29 1211.53 1617.41 1210.03 Q1615.54 1208.51 1612.2 1208.51 L1608.68 1208.51 L1608.68 1205.15 L1612.36 1205.15 Q1615.38 1205.15 1616.98 1203.95 Q1618.58 1202.74 1618.58 1200.47 Q1618.58 1198.14 1616.92 1196.91 Q1615.28 1195.65 1612.2 1195.65 Q1610.52 1195.65 1608.6 1196.01 Q1606.67 1196.38 1604.36 1197.15 L1604.36 1193.5 Q1606.69 1192.86 1608.72 1192.53 Q1610.76 1192.21 1612.57 1192.21 Q1617.23 1192.21 1619.94 1194.33 Q1622.65 1196.44 1622.65 1200.05 Q1622.65 1202.56 1621.22 1204.3 Q1619.78 1206.02 1617.12 1206.69 Z" fill="#000000" fill-rule="evenodd" fill-opacity="1" /><path clip-path="url(#clip140)" d="M768.819 1573.95 Q765.659 1573.95 764.059 1577.07 Q762.479 1580.17 762.479 1586.41 Q762.479 1592.63 764.059 1595.75 Q765.659 1598.85 768.819 1598.85 Q771.999 1598.85 773.579 1595.75 Q775.179 1592.63 775.179 1586.41 Q775.179 1580.17 773.579 1577.07 Q771.999 1573.95 768.819 1573.95 M768.819 1570.71 Q773.903 1570.71 776.576 1574.74 Q779.27 1578.75 779.27 1586.41 Q779.27 1594.05 776.576 1598.08 Q773.903 1602.09 768.819 1602.09 Q763.735 1602.09 761.041 1598.08 Q758.367 1594.05 758.367 1586.41 Q758.367 1578.75 761.041 1574.74 Q763.735 1570.71 768.819 1570.71 Z" fill="#000000" fill-rule="evenodd" fill-opacity="1" /><path clip-path="url(#clip140)" d="M797.702 1574.82 L787.372 1590.97 L797.702 1590.97 L797.702 1574.82 M796.628 1571.26 L801.773 1571.26 L801.773 1590.97 L806.087 1590.97 L806.087 1594.37 L801.773 1594.37 L801.773 1601.5 L797.702 1601.5 L797.702 1594.37 L784.05 1594.37 L784.05 1590.42 L796.628 1571.26 Z" fill="#000000" fill-rule="evenodd" fill-opacity="1" /><path clip-path="url(#clip140)" d="M1486.98 2013.22 Q1483.82 2013.22 1482.22 2016.34 Q1480.64 2019.44 1480.64 2025.68 Q1480.64 2031.9 1482.22 2035.01 Q1483.82 2038.11 1486.98 2038.11 Q1490.16 2038.11 1491.74 2035.01 Q1493.34 2031.9 1493.34 2025.68 Q1493.34 2019.44 1491.74 2016.34 Q1490.16 2013.22 1486.98 2013.22 M1486.98 2009.98 Q1492.06 2009.98 1494.74 2014.01 Q1497.43 2018.02 1497.43 2025.68 Q1497.43 2033.31 1494.74 2037.34 Q1492.06 2041.35 1486.98 2041.35 Q1481.89 2041.35 1479.2 2037.34 Q1476.53 2033.31 1476.53 2025.68 Q1476.53 2018.02 1479.2 2014.01 Q1481.89 2009.98 1486.98 2009.98 Z" fill="#000000" fill-rule="evenodd" fill-opacity="1" /><path clip-path="url(#clip140)" d="M1504.66 2010.53 L1520.72 2010.53 L1520.72 2013.97 L1508.41 2013.97 L1508.41 2021.38 Q1509.3 2021.08 1510.19 2020.94 Q1511.08 2020.78 1511.97 2020.78 Q1517.04 2020.78 1519.99 2023.55 Q1522.95 2026.33 1522.95 2031.06 Q1522.95 2035.95 1519.91 2038.66 Q1516.87 2041.35 1511.34 2041.35 Q1509.44 2041.35 1507.46 2041.03 Q1505.49 2040.71 1503.38 2040.06 L1503.38 2035.95 Q1505.21 2036.94 1507.15 2037.42 Q1509.1 2037.91 1511.26 2037.91 Q1514.77 2037.91 1516.81 2036.07 Q1518.86 2034.22 1518.86 2031.06 Q1518.86 2027.91 1516.81 2026.06 Q1514.77 2024.22 1511.26 2024.22 Q1509.62 2024.22 1507.98 2024.58 Q1506.36 2024.95 1504.66 2025.72 L1504.66 2010.53 Z" fill="#000000" fill-rule="evenodd" fill-opacity="1" /></svg>
