<?xml version="1.0" encoding="utf-8"?>
<svg xmlns="http://www.w3.org/2000/svg" xmlns:xlink="http://www.w3.org/1999/xlink" width="800" height="600" viewBox="0 0 3200 2400">
<defs>
  <clipPath id="clip150">
    <rect x="0" y="0" width="3200" height="2400"/>
  </clipPath>
</defs>
<path clip-path="url(#clip150)" d="M0 2400 L3200 2400 L3200 0 L0 0  Z" fill="#ffffff" fill-rule="evenodd" fill-opacity="1"/>
<defs>
  <clipPath id="clip151">
    <rect x="640" y="0" width="2241" height="2241"/>
  </clipPath>
</defs>
<path clip-path="url(#clip150)" d="M455.118 2352.76 L2744.88 2352.76 L2744.88 62.9921 L455.118 62.9921  Z" fill="#ffffff" fill-rule="evenodd" fill-opacity="1"/>
<defs>
  <clipPath id="clip152">
    <rect x="455" y="62" width="2291" height="2291"/>
  </clipPath>
</defs>
<path clip-path="url(#clip150)" d="M1221.82 103.433 L1221.82 78.112 Q1221.82 76.6916 1221.88 76.1975 Q1221.95 75.7034 1222.32 75.3329 Q1222.69 74.9623 1223.43 74.9623 Q1224.85 74.9623 1224.97 76.2593 Q1225.34 88.7962 1232.82 95.7132 Q1240.16 102.568 1252.76 102.568 Q1260.36 102.568 1265.05 97.1336 Q1269.75 91.6371 1269.75 84.4731 Q1269.75 77.618 1265.79 72.8008 Q1264.13 70.6393 1262.03 69.2806 Q1259.99 67.8601 1258.69 67.4278 Q1257.46 66.9955 1255.05 66.3779 Q1239.36 62.6107 1238.37 62.1784 Q1230.9 59.6463 1226.33 53.2851 Q1221.82 46.8623 1221.82 39.019 Q1221.82 28.8906 1228.92 21.7266 Q1236.09 14.5009 1246.46 14.5009 Q1251.65 14.5009 1255.97 16.1683 Q1260.36 17.7741 1262.15 19.2563 Q1263.94 20.7385 1266.72 23.3941 L1271.11 16.1683 Q1272.09 14.5009 1273.02 14.5009 Q1274.01 14.5009 1274.19 15.1185 Q1274.44 15.6743 1274.44 17.527 L1274.44 42.9715 Q1274.44 44.3919 1274.38 44.886 Q1274.32 45.3801 1273.88 45.6889 Q1273.51 45.9977 1272.77 45.9977 Q1271.54 45.9977 1271.23 44.5155 Q1267.71 18.0829 1246.59 18.0829 Q1239.36 18.0829 1234.61 22.9618 Q1229.91 27.7789 1229.91 34.6341 Q1229.91 40.1924 1233.37 44.7625 Q1236.83 49.2709 1242.7 50.6913 L1258.88 54.5821 Q1266.97 56.4966 1272.4 63.6606 Q1277.84 70.8245 1277.84 80.1501 Q1277.84 90.896 1270.8 98.6776 Q1263.82 106.459 1252.89 106.459 Q1245.04 106.459 1238.99 103.865 Q1232.94 101.271 1229.67 97.6277 Q1227.13 101.827 1225.47 104.174 L1225.1 104.792 Q1224.11 106.459 1223.18 106.459 Q1222.19 106.459 1222.01 105.842 Q1221.82 105.224 1221.82 103.433 Z" fill="#000000" fill-rule="nonzero" fill-opacity="1" /><path clip-path="url(#clip150)" d="M1289.08 103.68 L1289.08 99.7892 Q1295.81 99.7892 1297.35 98.9864 Q1298.9 98.1217 1298.9 94.0457 L1298.9 60.0168 Q1298.9 55.3232 1297.29 54.2115 Q1295.75 53.0999 1289.57 53.0999 L1289.57 49.1473 L1307.23 47.7886 L1307.23 94.1692 Q1307.23 97.9365 1308.59 98.8628 Q1309.95 99.7892 1316.13 99.7892 L1316.13 103.68 Q1303.22 103.309 1302.97 103.309 Q1301.24 103.309 1289.08 103.68 M1294.39 25.7409 Q1294.39 23.2088 1296.3 21.1708 Q1298.28 19.071 1301.06 19.071 Q1303.84 19.071 1305.81 20.9855 Q1307.79 22.8383 1307.79 25.8027 Q1307.79 28.7053 1305.81 30.6198 Q1303.84 32.4726 1301.06 32.4726 Q1298.16 32.4726 1296.24 30.4345 Q1294.39 28.3965 1294.39 25.7409 Z" fill="#000000" fill-rule="nonzero" fill-opacity="1" /><path clip-path="url(#clip150)" d="M1323.97 103.68 L1323.97 99.7892 Q1330.7 99.7892 1332.25 98.9864 Q1333.79 98.1217 1333.79 94.0457 L1333.79 60.1403 Q1333.79 55.4467 1332.12 54.2733 Q1330.52 53.0999 1323.97 53.0999 L1323.97 49.1473 L1341.76 47.7886 L1341.76 61.0667 Q1347.69 47.7886 1360.47 47.7886 Q1375.29 47.7886 1377.33 60.1403 Q1379.49 55.3232 1384 51.5559 Q1388.57 47.7886 1395.67 47.7886 Q1405.18 47.7886 1408.95 52.4823 Q1411.73 55.632 1412.29 59.1522 Q1412.84 62.6724 1412.84 71.8127 L1412.84 95.9602 Q1412.96 98.6158 1415 99.2334 Q1417.04 99.7892 1422.72 99.7892 L1422.72 103.68 Q1409.82 103.309 1408.58 103.309 Q1407.59 103.309 1394.25 103.68 L1394.25 99.7892 Q1400.98 99.7892 1402.53 98.9864 Q1404.13 98.1217 1404.13 94.0457 L1404.13 64.5869 Q1404.13 58.1641 1402.16 54.3968 Q1400.18 50.5678 1394.75 50.5678 Q1388.2 50.5678 1382.95 56.0643 Q1377.7 61.5608 1377.7 70.8245 L1377.7 94.0457 Q1377.7 98.1217 1379.24 98.9864 Q1380.85 99.7892 1387.58 99.7892 L1387.58 103.68 Q1374.67 103.309 1373.38 103.309 Q1372.39 103.309 1359.11 103.68 L1359.11 99.7892 Q1365.84 99.7892 1367.39 98.9864 Q1368.99 98.1217 1368.99 94.0457 L1368.99 64.5869 Q1368.99 58.1641 1367.02 54.3968 Q1365.04 50.5678 1359.61 50.5678 Q1353.06 50.5678 1347.81 56.0643 Q1342.56 61.5608 1342.56 70.8245 L1342.56 94.0457 Q1342.56 98.1217 1344.1 98.9864 Q1345.71 99.7892 1352.38 99.7892 L1352.38 103.68 Q1339.47 103.309 1338.24 103.309 Q1337.25 103.309 1323.97 103.68 Z" fill="#000000" fill-rule="nonzero" fill-opacity="1" /><path clip-path="url(#clip150)" d="M1428.71 124.307 Q1435.44 124.307 1436.99 123.443 Q1438.59 122.64 1438.59 118.626 L1438.59 59.3992 Q1438.59 55.1997 1436.99 54.1498 Q1435.44 53.0999 1428.71 53.0999 L1428.71 49.1473 L1446.93 47.7886 L1446.93 56.126 Q1454.53 47.7886 1464.66 47.7886 Q1475.4 47.7886 1483.25 56.126 Q1491.09 64.4634 1491.09 76.3828 Q1491.09 88.4257 1482.75 96.7631 Q1474.41 105.1 1462.87 105.1 Q1456.57 105.1 1452.3 101.889 Q1448.11 98.6158 1447.3 96.2072 L1447.3 97.3806 L1447.3 118.626 Q1447.3 122.702 1448.91 123.504 Q1450.51 124.307 1457.18 124.307 L1457.18 128.198 Q1443.91 127.828 1442.92 127.828 Q1441.68 127.828 1428.71 128.198 L1428.71 124.307 M1447.3 89.2903 Q1447.3 91.2048 1447.55 91.8841 Q1447.86 92.5635 1449.09 94.6015 Q1454.1 102.26 1462.25 102.26 Q1462.31 102.26 1462.37 102.26 Q1469.6 102.26 1475.09 94.9103 Q1480.59 87.4993 1480.59 76.3828 Q1480.59 65.7603 1475.59 58.3493 Q1470.59 50.9383 1463.67 50.9383 Q1458.73 50.9383 1454.4 53.5939 Q1450.08 56.2495 1447.3 61.0667 L1447.3 89.2903 Z" fill="#000000" fill-rule="nonzero" fill-opacity="1" /><path clip-path="url(#clip150)" d="M1499.55 103.68 L1499.55 99.7892 Q1506.28 99.7892 1507.83 98.9864 Q1509.37 98.1217 1509.37 94.0457 L1509.37 28.273 Q1509.37 23.5794 1507.7 22.4059 Q1506.1 21.2325 1499.55 21.2325 L1499.55 17.28 L1517.71 15.9213 L1517.71 94.0457 Q1517.71 98.1217 1519.31 98.9864 Q1520.92 99.7892 1527.59 99.7892 L1527.59 103.68 Q1526.04 103.68 1522.83 103.556 Q1519.62 103.433 1517.27 103.371 Q1514.93 103.309 1513.57 103.309 Q1512.09 103.309 1499.55 103.68 Z" fill="#000000" fill-rule="nonzero" fill-opacity="1" /><path clip-path="url(#clip150)" d="M1533.89 75.827 Q1533.89 63.9076 1541.55 55.4467 Q1549.2 46.9858 1560.2 46.9858 Q1571.31 46.9858 1577.06 54.2115 Q1582.86 61.4373 1582.86 71.8127 Q1582.86 73.7272 1582.37 74.0977 Q1581.87 74.4683 1579.71 74.4683 L1544.39 74.4683 Q1544.39 87.3758 1548.22 93.4281 Q1553.53 101.889 1562.48 101.889 Q1563.72 101.889 1565.2 101.642 Q1566.68 101.395 1569.71 100.345 Q1572.73 99.2334 1575.39 96.3308 Q1578.04 93.4281 1579.59 88.858 Q1579.96 87.067 1581.19 87.1287 Q1582.86 87.1287 1582.86 88.611 Q1582.86 89.7226 1581.63 92.2547 Q1580.45 94.725 1578.17 97.6894 Q1575.88 100.654 1571.44 102.877 Q1567.05 105.1 1561.74 105.1 Q1550.62 105.1 1542.23 96.7013 Q1533.89 88.2404 1533.89 75.827 M1544.51 71.8127 L1574.52 71.8127 Q1574.52 69.1571 1574.03 66.1927 Q1573.6 63.2282 1572.24 59.1522 Q1570.94 55.0144 1567.85 52.4205 Q1564.77 49.8267 1560.2 49.8267 Q1558.16 49.8267 1555.94 50.6913 Q1553.77 51.5559 1551.12 53.6557 Q1548.46 55.7555 1546.61 60.5109 Q1544.76 65.2663 1544.51 71.8127 Z" fill="#000000" fill-rule="nonzero" fill-opacity="1" /><path clip-path="url(#clip150)" d="M1648.63 93.0576 Q1635.67 79.656 1635.67 60.4491 Q1635.67 41.1805 1648.76 27.8407 Q1661.85 14.5009 1679.64 14.5009 Q1684.08 14.5009 1687.85 15.5508 Q1691.68 16.5389 1694.71 18.5769 Q1697.73 20.5532 1699.28 21.9119 Q1700.88 23.2088 1703.04 25.3704 L1709.41 16.0448 Q1710.39 14.5009 1711.38 14.5009 Q1712.43 14.5009 1712.62 15.1185 Q1712.8 15.6743 1712.8 17.527 L1712.8 47.5416 Q1712.8 49.5796 1712.55 50.0737 Q1712.31 50.5678 1710.76 50.5678 Q1709.53 50.5678 1709.28 50.1972 Q1709.03 49.8267 1708.73 48.4062 Q1706.81 34.7576 1699.15 26.6055 Q1691.56 18.4534 1681.18 18.4534 Q1678.16 18.4534 1674.76 19.1328 Q1671.42 19.8121 1666.48 22.4059 Q1661.6 24.9998 1657.84 29.2611 Q1654.13 33.4607 1651.41 41.6128 Q1648.7 49.7032 1648.7 60.4491 Q1648.7 71.0716 1651.41 79.2237 Q1654.13 87.3758 1657.9 91.6371 Q1661.73 95.8367 1666.67 98.4923 Q1671.67 101.148 1675.19 101.889 Q1678.77 102.568 1681.92 102.568 Q1684.08 102.568 1686.62 102.136 Q1689.15 101.642 1692.92 100.283 Q1696.74 98.8628 1699.15 95.5279 Q1701.56 92.1929 1701.56 87.2523 L1701.56 79.1619 Q1701.56 75.3947 1699.71 74.2212 Q1697.86 73.0478 1689.77 73.0478 L1685.75 73.0478 L1685.75 69.1571 Q1690.32 69.5276 1706.07 69.5276 Q1707.49 69.5276 1721.51 69.1571 L1721.51 73.0478 Q1715.46 73.0478 1714.1 73.9742 Q1712.8 74.8388 1712.8 78.6061 L1712.8 100.654 Q1712.8 103.556 1711.69 103.556 Q1710.7 103.556 1707.74 100.716 Q1704.83 97.8747 1703.54 95.7132 Q1700.51 101.024 1693.9 103.742 Q1687.36 106.459 1679.88 106.459 Q1661.67 106.459 1648.63 93.0576 Z" fill="#000000" fill-rule="nonzero" fill-opacity="1" /><path clip-path="url(#clip150)" d="M1731.21 103.68 L1731.21 99.7892 Q1737.94 99.7892 1739.48 98.9864 Q1741.09 98.1217 1741.09 94.0457 L1741.09 60.1403 Q1741.09 55.4467 1739.42 54.2733 Q1737.81 53.0999 1731.21 53.0999 L1731.21 49.1473 L1748.81 47.7886 L1748.81 61.6843 Q1750.6 56.2495 1754.37 52.05 Q1758.19 47.7886 1764.37 47.7886 Q1768.45 47.7886 1771.04 50.0737 Q1773.7 52.3588 1773.7 55.5084 Q1773.7 58.2876 1771.97 59.708 Q1770.3 61.0667 1768.26 61.0667 Q1765.98 61.0667 1764.37 59.6463 Q1762.83 58.1641 1762.83 55.632 Q1762.83 54.088 1763.51 52.9146 Q1764.25 51.6794 1764.8 51.2471 Q1765.36 50.8148 1765.73 50.6913 Q1765.48 50.5678 1764.37 50.5678 Q1757.39 50.5678 1753.38 57.5465 Q1749.42 64.4634 1749.42 74.3448 L1749.42 93.7987 Q1749.42 97.4424 1750.91 98.6158 Q1752.45 99.7892 1759.06 99.7892 L1761.71 99.7892 L1761.71 103.68 Q1756.65 103.309 1745.66 103.309 Q1744.11 103.309 1741.7 103.371 Q1739.3 103.433 1736.15 103.556 Q1733 103.68 1731.21 103.68 Z" fill="#000000" fill-rule="nonzero" fill-opacity="1" /><path clip-path="url(#clip150)" d="M1782.4 91.6371 Q1782.4 80.8912 1795.06 75.2094 Q1802.66 71.5656 1818.35 70.6393 L1818.35 66.0074 Q1818.35 58.1641 1814.21 54.0262 Q1810.13 49.8267 1804.95 49.8267 Q1795.68 49.8267 1791.23 55.632 Q1795 55.7555 1796.36 57.67 Q1797.72 59.5227 1797.72 61.4373 Q1797.72 63.9693 1796.11 65.6368 Q1794.57 67.2425 1791.91 67.2425 Q1789.38 67.2425 1787.71 65.6986 Q1786.05 64.0929 1786.05 61.3137 Q1786.05 55.1379 1791.61 51.0618 Q1797.23 46.9858 1805.19 46.9858 Q1815.57 46.9858 1822.48 53.9645 Q1824.65 56.126 1825.7 58.9052 Q1826.81 61.6843 1826.93 63.537 Q1827.05 65.328 1827.05 68.91 L1827.05 94.1692 Q1827.05 94.9103 1827.3 96.1455 Q1827.55 97.3806 1828.66 98.9864 Q1829.83 100.53 1831.75 100.53 Q1836.32 100.53 1836.26 92.44 L1836.26 85.3378 L1839.47 85.3378 L1839.47 92.44 Q1839.47 99.1716 1835.89 101.827 Q1832.37 104.421 1829.09 104.421 Q1824.89 104.421 1822.24 101.333 Q1819.58 98.2453 1819.21 94.0457 Q1817.3 98.8628 1812.91 102.013 Q1808.59 105.1 1802.66 105.1 Q1798.09 105.1 1793.77 103.927 Q1789.51 102.815 1785.92 99.6657 Q1782.4 96.4543 1782.4 91.6371 M1792.16 91.5136 Q1792.16 96.2072 1795.5 99.2334 Q1798.83 102.26 1803.52 102.26 Q1808.84 102.26 1813.59 98.1835 Q1818.35 94.0457 1818.35 85.9553 L1818.35 73.2949 Q1804.33 73.7889 1798.21 79.4089 Q1792.16 84.9672 1792.16 91.5136 Z" fill="#000000" fill-rule="nonzero" fill-opacity="1" /><path clip-path="url(#clip150)" d="M1843.85 124.307 Q1850.58 124.307 1852.13 123.443 Q1853.73 122.64 1853.73 118.626 L1853.73 59.3992 Q1853.73 55.1997 1852.13 54.1498 Q1850.58 53.0999 1843.85 53.0999 L1843.85 49.1473 L1862.07 47.7886 L1862.07 56.126 Q1869.67 47.7886 1879.8 47.7886 Q1890.54 47.7886 1898.39 56.126 Q1906.23 64.4634 1906.23 76.3828 Q1906.23 88.4257 1897.89 96.7631 Q1889.55 105.1 1878.01 105.1 Q1871.71 105.1 1867.44 101.889 Q1863.25 98.6158 1862.44 96.2072 L1862.44 97.3806 L1862.44 118.626 Q1862.44 122.702 1864.05 123.504 Q1865.65 124.307 1872.32 124.307 L1872.32 128.198 Q1859.05 127.828 1858.06 127.828 Q1856.82 127.828 1843.85 128.198 L1843.85 124.307 M1862.44 89.2903 Q1862.44 91.2048 1862.69 91.8841 Q1863 92.5635 1864.23 94.6015 Q1869.24 102.26 1877.39 102.26 Q1877.45 102.26 1877.51 102.26 Q1884.74 102.26 1890.23 94.9103 Q1895.73 87.4993 1895.73 76.3828 Q1895.73 65.7603 1890.73 58.3493 Q1885.73 50.9383 1878.81 50.9383 Q1873.87 50.9383 1869.54 53.5939 Q1865.22 56.2495 1862.44 61.0667 L1862.44 89.2903 Z" fill="#000000" fill-rule="nonzero" fill-opacity="1" /><path clip-path="url(#clip150)" d="M1914.57 103.68 L1914.57 99.7892 Q1921.3 99.7892 1922.84 98.9864 Q1924.39 98.1217 1924.39 94.0457 L1924.39 28.273 Q1924.39 23.5794 1922.72 22.4059 Q1921.11 21.2325 1914.57 21.2325 L1914.57 17.28 L1932.72 15.9213 L1932.72 59.8933 L1932.85 59.8933 Q1934.88 55.3232 1939.46 51.5559 Q1944.03 47.7886 1951.07 47.7886 Q1960.58 47.7886 1964.34 52.4823 Q1967.12 55.632 1967.68 59.1522 Q1968.3 62.6724 1968.3 71.8127 L1968.3 95.9602 Q1968.42 98.6158 1970.46 99.2334 Q1972.5 99.7892 1978.18 99.7892 L1978.18 103.68 Q1965.27 103.309 1963.97 103.309 Q1962.98 103.309 1949.71 103.68 L1949.71 99.7892 Q1956.44 99.7892 1957.98 98.9864 Q1959.59 98.1217 1959.59 94.0457 L1959.59 64.5869 Q1959.59 58.1641 1957.61 54.3968 Q1955.64 50.5678 1950.2 50.5678 Q1943.65 50.5678 1938.41 56.0643 Q1933.16 61.5608 1933.16 70.8245 L1933.16 94.0457 Q1933.16 98.1217 1934.7 98.9864 Q1936.31 99.7892 1942.98 99.7892 L1942.98 103.68 Q1930.07 103.309 1928.83 103.309 Q1927.84 103.309 1914.57 103.68 Z" fill="#000000" fill-rule="nonzero" fill-opacity="1" /><polyline clip-path="url(#clip152)" style="stroke:#000000; stroke-linecap:round; stroke-linejoin:round; stroke-width:4; stroke-opacity:1; fill:none" points="2417.77,1414.75 2408.02,1394.98 2398.29,1375.2 2388.59,1355.41 2378.94,1335.61 2369.35,1315.8 2359.84,1295.97 2350.43,1276.12 2341.14,1256.23 2331.97,1236.32 2322.95,1216.38 2314.1,1196.39 2305.42,1176.37 2296.94,1156.3 2288.67,1136.18 2280.62,1116.01 2272.82,1095.78 2265.28,1075.49 2258.02,1055.13 2251.04,1034.71 2244.38,1014.22 2238.04,993.646 2232.05,972.997 2226.41,952.263 2221.14,931.443 2216.26,910.532 2211.78,889.53 2207.66,868.441 2203.91,847.268 2200.49,826.016 2197.4,804.688 2194.62,783.288 2192.13,761.82 2189.92,740.288 2187.96,718.695 2186.25,697.045 2184.77,675.342 2183.5,653.59 2182.43,631.792 2181.53,609.953 2180.79,588.076 2180.21,566.165 2179.75,544.223 2179.4,522.255 2179.16,500.264 2178.99,478.254 2178.89,456.229 2178.84,434.193 2178.82,412.149 2178.81,390.101 "/>
<polyline clip-path="url(#clip152)" style="stroke:#000000; stroke-linecap:round; stroke-linejoin:round; stroke-width:4; stroke-opacity:1; fill:none" points="2417.77,1414.75 2399.86,1415.38 2381.94,1415.99 2364.04,1416.57 2346.15,1417.11 2328.27,1417.57 2310.42,1417.96 2292.59,1418.25 2274.78,1418.43 2257.02,1418.47 2239.28,1418.37 2221.59,1418.11 2203.95,1417.67 2186.35,1417.04 2168.8,1416.2 2151.32,1415.13 2133.89,1413.82 2116.53,1412.25 2099.24,1410.4 2082.02,1408.27 2064.88,1405.82 2047.83,1403.06 2030.86,1399.95 2013.97,1396.49 1997.19,1392.65 1980.5,1388.43 1963.91,1383.82 1947.41,1378.84 1931,1373.5 1914.68,1367.83 1898.44,1361.83 1882.28,1355.52 1866.19,1348.92 1850.17,1342.05 1834.22,1334.91 1818.33,1327.54 1802.5,1319.94 1786.71,1312.13 1770.98,1304.12 1755.3,1295.94 1739.65,1287.59 1724.04,1279.1 1708.46,1270.48 1692.92,1261.75 1677.39,1252.91 1661.89,1244 1646.4,1235.03 1630.93,1226 1615.46,1216.95 1600,1207.87 "/>
<polyline clip-path="url(#clip152)" style="stroke:#000000; stroke-linecap:round; stroke-linejoin:round; stroke-width:4; stroke-opacity:1; fill:none" points="2178.81,390.101 2171.08,409.681 2163.34,429.252 2155.57,448.803 2147.76,468.325 2139.9,487.809 2131.97,507.245 2123.95,526.622 2115.84,545.933 2107.63,565.166 2099.29,584.312 2090.81,603.362 2082.18,622.306 2073.39,641.135 2064.42,659.838 2055.27,678.406 2045.9,696.83 2036.32,715.099 2026.51,733.205 2016.46,751.137 2006.14,768.886 1995.55,786.442 1984.68,803.796 1973.51,820.938 1962.02,837.858 1950.21,854.547 1938.07,871.005 1925.62,887.242 1912.87,903.266 1899.83,919.089 1886.52,934.718 1872.95,950.164 1859.14,965.437 1845.09,980.546 1830.83,995.501 1816.36,1010.31 1801.7,1024.99 1786.87,1039.54 1771.87,1053.97 1756.72,1068.3 1741.44,1082.53 1726.03,1096.68 1710.52,1110.74 1694.91,1124.75 1679.21,1138.69 1663.45,1152.58 1647.64,1166.44 1631.78,1180.27 1615.9,1194.07 1600,1207.87 "/>
<polyline clip-path="url(#clip152)" style="stroke:#000000; stroke-linecap:round; stroke-linejoin:round; stroke-width:4; stroke-opacity:1; fill:none" points="1600,1207.87 1582.08,1208.5 1564.17,1209.11 1546.27,1209.7 1528.38,1210.23 1510.5,1210.7 1492.64,1211.08 1474.81,1211.37 1457.01,1211.55 1439.24,1211.6 1421.51,1211.5 1403.82,1211.24 1386.17,1210.8 1368.58,1210.17 1351.03,1209.32 1333.54,1208.25 1316.12,1206.94 1298.76,1205.37 1281.47,1203.53 1264.25,1201.39 1247.11,1198.95 1230.06,1196.18 1213.08,1193.07 1196.2,1189.61 1179.42,1185.78 1162.73,1181.56 1146.13,1176.95 1129.64,1171.96 1113.23,1166.63 1096.91,1160.95 1080.67,1154.95 1064.51,1148.64 1048.42,1142.04 1032.4,1135.17 1016.45,1128.04 1000.56,1120.66 984.723,1113.06 968.942,1105.25 953.21,1097.24 937.523,1089.06 921.876,1080.72 906.267,1072.22 890.691,1063.6 875.143,1054.87 859.619,1046.04 844.116,1037.13 828.63,1028.15 813.155,1019.13 797.689,1010.07 782.227,1001 "/>
<polyline clip-path="url(#clip152)" style="stroke:#000000; stroke-linecap:round; stroke-linejoin:round; stroke-width:4; stroke-opacity:1; fill:none" points="1600,1207.87 1592.27,1227.45 1584.53,1247.02 1576.76,1266.57 1568.95,1286.1 1561.09,1305.58 1553.16,1325.02 1545.14,1344.39 1537.03,1363.7 1528.81,1382.94 1520.47,1402.08 1512,1421.13 1503.37,1440.08 1494.58,1458.91 1485.61,1477.61 1476.45,1496.18 1467.09,1514.6 1457.51,1532.87 1447.7,1550.98 1437.64,1568.91 1427.33,1586.66 1416.74,1604.21 1405.87,1621.57 1394.7,1638.71 1383.21,1655.63 1371.4,1672.32 1359.26,1688.78 1346.81,1705.01 1334.05,1721.04 1321.02,1736.86 1307.71,1752.49 1294.14,1767.94 1280.33,1783.21 1266.28,1798.32 1252.02,1813.27 1237.55,1828.08 1222.89,1842.76 1208.06,1857.31 1193.06,1871.74 1177.91,1886.07 1162.63,1900.31 1147.22,1914.45 1131.71,1928.52 1116.09,1942.52 1100.4,1956.46 1084.64,1970.36 1068.83,1984.21 1052.97,1998.04 1037.09,2011.85 1021.19,2025.65 "/>
<polyline clip-path="url(#clip152)" style="stroke:#000000; stroke-linecap:round; stroke-linejoin:round; stroke-width:4; stroke-opacity:1; fill:none" points="782.227,1001 782.231,1023.05 782.251,1045.09 782.303,1067.13 782.404,1089.15 782.57,1111.16 782.817,1133.15 783.162,1155.12 783.62,1177.06 784.209,1198.97 784.943,1220.85 785.841,1242.69 786.916,1264.49 788.187,1286.24 789.669,1307.94 791.379,1329.59 793.332,1351.19 795.545,1372.72 798.034,1394.19 800.816,1415.59 803.906,1436.91 807.321,1458.17 811.078,1479.34 815.192,1500.43 819.679,1521.43 824.556,1542.34 829.822,1563.16 835.462,1583.89 841.459,1604.54 847.797,1625.11 854.46,1645.61 861.432,1666.03 868.697,1686.39 876.237,1706.68 884.038,1726.9 892.082,1747.08 900.353,1767.2 908.836,1787.27 917.514,1807.29 926.37,1827.27 935.389,1847.22 944.554,1867.13 953.849,1887.01 963.258,1906.87 972.765,1926.7 982.352,1946.51 992.005,1966.31 1001.71,1986.09 1011.44,2005.87 1021.19,2025.65 "/>
<path clip-path="url(#clip152)" d="M2561.29 1414.75 L2489.53 1290.46 L2346.01 1290.46 L2274.25 1414.75 L2346.01 1539.04 L2489.53 1539.04 L2561.29 1414.75 L2561.29 1414.75  Z" fill="#f5fffa" fill-rule="evenodd" fill-opacity="1"/>
<polyline clip-path="url(#clip152)" style="stroke:#000000; stroke-linecap:round; stroke-linejoin:round; stroke-width:4; stroke-opacity:1; fill:none" points="2561.29,1414.75 2489.53,1290.46 2346.01,1290.46 2274.25,1414.75 2346.01,1539.04 2489.53,1539.04 2561.29,1414.75 "/>
<path clip-path="url(#clip152)" d="M2322.33 390.101 L2250.57 265.808 L2107.05 265.808 L2035.29 390.101 L2107.05 514.395 L2250.57 514.395 L2322.33 390.101 L2322.33 390.101  Z" fill="#f5fffa" fill-rule="evenodd" fill-opacity="1"/>
<polyline clip-path="url(#clip152)" style="stroke:#000000; stroke-linecap:round; stroke-linejoin:round; stroke-width:4; stroke-opacity:1; fill:none" points="2322.33,390.101 2250.57,265.808 2107.05,265.808 2035.29,390.101 2107.05,514.395 2250.57,514.395 2322.33,390.101 "/>
<path clip-path="url(#clip152)" d="M1743.52 1207.87 L1671.76 1083.58 L1528.24 1083.58 L1456.48 1207.87 L1528.24 1332.17 L1671.76 1332.17 L1743.52 1207.87 L1743.52 1207.87  Z" fill="#f5fffa" fill-rule="evenodd" fill-opacity="1"/>
<polyline clip-path="url(#clip152)" style="stroke:#000000; stroke-linecap:round; stroke-linejoin:round; stroke-width:4; stroke-opacity:1; fill:none" points="1743.52,1207.87 1671.76,1083.58 1528.24,1083.58 1456.48,1207.87 1528.24,1332.17 1671.76,1332.17 1743.52,1207.87 "/>
<path clip-path="url(#clip152)" d="M925.749 1001 L853.988 876.706 L710.466 876.706 L638.706 1001 L710.466 1125.29 L853.988 1125.29 L925.749 1001 L925.749 1001  Z" fill="#f5fffa" fill-rule="evenodd" fill-opacity="1"/>
<polyline clip-path="url(#clip152)" style="stroke:#000000; stroke-linecap:round; stroke-linejoin:round; stroke-width:4; stroke-opacity:1; fill:none" points="925.749,1001 853.988,876.706 710.466,876.706 638.706,1001 710.466,1125.29 853.988,1125.29 925.749,1001 "/>
<path clip-path="url(#clip152)" d="M1164.71 2025.65 L1092.95 1901.35 L949.429 1901.35 L877.668 2025.65 L949.429 2149.94 L1092.95 2149.94 L1164.71 2025.65 L1164.71 2025.65  Z" fill="#f5fffa" fill-rule="evenodd" fill-opacity="1"/>
<polyline clip-path="url(#clip152)" style="stroke:#000000; stroke-linecap:round; stroke-linejoin:round; stroke-width:4; stroke-opacity:1; fill:none" points="1164.71,2025.65 1092.95,1901.35 949.429,1901.35 877.668,2025.65 949.429,2149.94 1092.95,2149.94 1164.71,2025.65 "/>
<path clip-path="url(#clip152)" d="M2417.77 1415.55 L2417.08 1415.15 L2417.08 1414.35 L2417.77 1413.95 L2418.47 1414.35 L2418.47 1415.15 Z" fill="#f5fffa" fill-rule="evenodd" fill-opacity="1" stroke="#000000" stroke-opacity="1" stroke-width="4.8"/>
<path clip-path="url(#clip152)" d="M2178.81 390.901 L2178.12 390.501 L2178.12 389.701 L2178.81 389.301 L2179.51 389.701 L2179.51 390.501 Z" fill="#f5fffa" fill-rule="evenodd" fill-opacity="1" stroke="#000000" stroke-opacity="1" stroke-width="4.8"/>
<path clip-path="url(#clip152)" d="M1600 1208.67 L1599.31 1208.27 L1599.31 1207.47 L1600 1207.07 L1600.69 1207.47 L1600.69 1208.27 Z" fill="#f5fffa" fill-rule="evenodd" fill-opacity="1" stroke="#000000" stroke-opacity="1" stroke-width="4.8"/>
<path clip-path="url(#clip152)" d="M782.227 1001.8 L781.534 1001.4 L781.534 1000.6 L782.227 1000.2 L782.92 1000.6 L782.92 1001.4 Z" fill="#f5fffa" fill-rule="evenodd" fill-opacity="1" stroke="#000000" stroke-opacity="1" stroke-width="4.8"/>
<path clip-path="url(#clip152)" d="M1021.19 2026.45 L1020.5 2026.05 L1020.5 2025.25 L1021.19 2024.85 L1021.88 2025.25 L1021.88 2026.05 Z" fill="#f5fffa" fill-rule="evenodd" fill-opacity="1" stroke="#000000" stroke-opacity="1" stroke-width="4.8"/>
<path clip-path="url(#clip150)" d="M2405.11 1402.32 Q2401.95 1402.32 2400.35 1405.44 Q2398.77 1408.54 2398.77 1414.78 Q2398.77 1421 2400.35 1424.12 Q2401.95 1427.22 2405.11 1427.22 Q2408.29 1427.22 2409.87 1424.12 Q2411.47 1421 2411.47 1414.78 Q2411.47 1408.54 2409.87 1405.44 Q2408.29 1402.32 2405.11 1402.32 M2405.11 1399.08 Q2410.2 1399.08 2412.87 1403.11 Q2415.57 1407.12 2415.57 1414.78 Q2415.57 1422.42 2412.87 1426.45 Q2410.2 1430.46 2405.11 1430.46 Q2400.03 1430.46 2397.34 1426.45 Q2394.66 1422.42 2394.66 1414.78 Q2394.66 1407.12 2397.34 1403.11 Q2400.03 1399.08 2405.11 1399.08 Z" fill="#000000" fill-rule="nonzero" fill-opacity="1" /><path clip-path="url(#clip150)" d="M2423.46 1426.43 L2430.15 1426.43 L2430.15 1403.36 L2422.88 1404.82 L2422.88 1401.09 L2430.11 1399.63 L2434.2 1399.63 L2434.2 1426.43 L2440.88 1426.43 L2440.88 1429.87 L2423.46 1429.87 L2423.46 1426.43 Z" fill="#000000" fill-rule="nonzero" fill-opacity="1" /><path clip-path="url(#clip150)" d="M2166.32 377.675 Q2163.16 377.675 2161.56 380.794 Q2159.98 383.893 2159.98 390.132 Q2159.98 396.35 2161.56 399.469 Q2163.16 402.568 2166.32 402.568 Q2169.5 402.568 2171.08 399.469 Q2172.68 396.35 2172.68 390.132 Q2172.68 383.893 2171.08 380.794 Q2169.5 377.675 2166.32 377.675 M2166.32 374.434 Q2171.4 374.434 2174.07 378.465 Q2176.77 382.475 2176.77 390.132 Q2176.77 397.768 2174.07 401.798 Q2171.4 405.809 2166.32 405.809 Q2161.23 405.809 2158.54 401.798 Q2155.86 397.768 2155.86 390.132 Q2155.86 382.475 2158.54 378.465 Q2161.23 374.434 2166.32 374.434 Z" fill="#000000" fill-rule="nonzero" fill-opacity="1" /><path clip-path="url(#clip150)" d="M2187.48 401.778 L2201.76 401.778 L2201.76 405.221 L2182.56 405.221 L2182.56 401.778 Q2184.89 399.368 2188.9 395.317 Q2192.93 391.246 2193.96 390.071 Q2195.93 387.863 2196.7 386.344 Q2197.49 384.805 2197.49 383.326 Q2197.49 380.916 2195.79 379.397 Q2194.1 377.878 2191.39 377.878 Q2189.47 377.878 2187.32 378.546 Q2185.19 379.214 2182.76 380.571 L2182.76 376.44 Q2185.23 375.447 2187.38 374.941 Q2189.53 374.434 2191.31 374.434 Q2196.01 374.434 2198.8 376.784 Q2201.6 379.133 2201.6 383.063 Q2201.6 384.926 2200.89 386.607 Q2200.2 388.268 2198.36 390.537 Q2197.85 391.124 2195.14 393.939 Q2192.42 396.735 2187.48 401.778 Z" fill="#000000" fill-rule="nonzero" fill-opacity="1" /><path clip-path="url(#clip150)" d="M1587.09 1195.45 Q1583.93 1195.45 1582.33 1198.57 Q1580.75 1201.66 1580.75 1207.9 Q1580.75 1214.12 1582.33 1217.24 Q1583.93 1220.34 1587.09 1220.34 Q1590.27 1220.34 1591.85 1217.24 Q1593.45 1214.12 1593.45 1207.9 Q1593.45 1201.66 1591.85 1198.57 Q1590.27 1195.45 1587.09 1195.45 M1587.09 1192.21 Q1592.17 1192.21 1594.85 1196.24 Q1597.54 1200.25 1597.54 1207.9 Q1597.54 1215.54 1594.85 1219.57 Q1592.17 1223.58 1587.09 1223.58 Q1582 1223.58 1579.31 1219.57 Q1576.64 1215.54 1576.64 1207.9 Q1576.64 1200.25 1579.31 1196.24 Q1582 1192.21 1587.09 1192.21 Z" fill="#000000" fill-rule="nonzero" fill-opacity="1" /><path clip-path="url(#clip150)" d="M1617.13 1206.69 Q1620.06 1207.32 1621.7 1209.3 Q1623.36 1211.29 1623.36 1214.2 Q1623.36 1218.68 1620.29 1221.13 Q1617.21 1223.58 1611.54 1223.58 Q1609.63 1223.58 1607.61 1223.2 Q1605.6 1222.83 1603.45 1222.08 L1603.45 1218.13 Q1605.15 1219.12 1607.18 1219.63 Q1609.21 1220.14 1611.41 1220.14 Q1615.26 1220.14 1617.27 1218.62 Q1619.29 1217.1 1619.29 1214.2 Q1619.29 1211.53 1617.41 1210.03 Q1615.55 1208.51 1612.2 1208.51 L1608.68 1208.51 L1608.68 1205.15 L1612.37 1205.15 Q1615.38 1205.15 1616.98 1203.95 Q1618.58 1202.74 1618.58 1200.47 Q1618.58 1198.14 1616.92 1196.9 Q1615.28 1195.65 1612.2 1195.65 Q1610.52 1195.65 1608.6 1196.01 Q1606.67 1196.38 1604.36 1197.15 L1604.36 1193.5 Q1606.69 1192.85 1608.72 1192.53 Q1610.77 1192.21 1612.57 1192.21 Q1617.23 1192.21 1619.94 1194.33 Q1622.65 1196.44 1622.65 1200.04 Q1622.65 1202.56 1621.22 1204.3 Q1619.78 1206.02 1617.13 1206.69 Z" fill="#000000" fill-rule="nonzero" fill-opacity="1" /><path clip-path="url(#clip150)" d="M768.819 988.573 Q765.659 988.573 764.059 991.692 Q762.479 994.791 762.479 1001.03 Q762.479 1007.25 764.059 1010.37 Q765.659 1013.47 768.819 1013.47 Q771.999 1013.47 773.579 1010.37 Q775.179 1007.25 775.179 1001.03 Q775.179 994.791 773.579 991.692 Q771.999 988.573 768.819 988.573 M768.819 985.332 Q773.903 985.332 776.576 989.363 Q779.27 993.373 779.27 1001.03 Q779.27 1008.67 776.576 1012.7 Q773.903 1016.71 768.819 1016.71 Q763.735 1016.71 761.041 1012.7 Q758.367 1008.67 758.367 1001.03 Q758.367 993.373 761.041 989.363 Q763.735 985.332 768.819 985.332 Z" fill="#000000" fill-rule="nonzero" fill-opacity="1" /><path clip-path="url(#clip150)" d="M797.702 989.444 L787.372 1005.59 L797.702 1005.59 L797.702 989.444 M796.628 985.879 L801.773 985.879 L801.773 1005.59 L806.087 1005.59 L806.087 1008.99 L801.773 1008.99 L801.773 1016.12 L797.702 1016.12 L797.702 1008.99 L784.05 1008.99 L784.05 1005.04 L796.628 985.879 Z" fill="#000000" fill-rule="nonzero" fill-opacity="1" /><path clip-path="url(#clip150)" d="M1008.43 2013.22 Q1005.27 2013.22 1003.67 2016.34 Q1002.09 2019.44 1002.09 2025.68 Q1002.09 2031.9 1003.67 2035.01 Q1005.27 2038.11 1008.43 2038.11 Q1011.61 2038.11 1013.19 2035.01 Q1014.79 2031.9 1014.79 2025.68 Q1014.79 2019.44 1013.19 2016.34 Q1011.61 2013.22 1008.43 2013.22 M1008.43 2009.98 Q1013.51 2009.98 1016.19 2014.01 Q1018.88 2018.02 1018.88 2025.68 Q1018.88 2033.31 1016.19 2037.34 Q1013.51 2041.35 1008.43 2041.35 Q1003.35 2041.35 1000.65 2037.34 Q997.978 2033.31 997.978 2025.68 Q997.978 2018.02 1000.65 2014.01 Q1003.35 2009.98 1008.43 2009.98 Z" fill="#000000" fill-rule="nonzero" fill-opacity="1" /><path clip-path="url(#clip150)" d="M1026.11 2010.53 L1042.17 2010.53 L1042.17 2013.97 L1029.86 2013.97 L1029.86 2021.38 Q1030.75 2021.08 1031.64 2020.94 Q1032.53 2020.78 1033.42 2020.78 Q1038.49 2020.78 1041.44 2023.55 Q1044.4 2026.33 1044.4 2031.06 Q1044.4 2035.95 1041.36 2038.66 Q1038.32 2041.35 1032.8 2041.35 Q1030.89 2041.35 1028.91 2041.03 Q1026.94 2040.71 1024.84 2040.06 L1024.84 2035.95 Q1026.66 2036.94 1028.6 2037.42 Q1030.55 2037.91 1032.71 2037.91 Q1036.22 2037.91 1038.26 2036.07 Q1040.31 2034.22 1040.31 2031.06 Q1040.31 2027.91 1038.26 2026.06 Q1036.22 2024.22 1032.71 2024.22 Q1031.07 2024.22 1029.43 2024.58 Q1027.81 2024.95 1026.11 2025.72 L1026.11 2010.53 Z" fill="#000000" fill-rule="nonzero" fill-opacity="1" /></svg>
