<?xml version="1.0" encoding="utf-8"?>
<svg xmlns="http://www.w3.org/2000/svg" xmlns:xlink="http://www.w3.org/1999/xlink" width="800" height="600" viewBox="0 0 3200 2400">
<defs>
  <clipPath id="clip590">
    <rect x="0" y="0" width="3200" height="2400"/>
  </clipPath>
</defs>
<path clip-path="url(#clip590)" d="M0 2400 L3200 2400 L3200 0 L0 0  Z" fill="#ffffff" fill-rule="evenodd" fill-opacity="1"/>
<defs>
  <clipPath id="clip591">
    <rect x="640" y="0" width="2241" height="2241"/>
  </clipPath>
</defs>
<path clip-path="url(#clip590)" d="M455.118 2352.76 L2744.88 2352.76 L2744.88 62.9921 L455.118 62.9921  Z" fill="#ffffff" fill-rule="evenodd" fill-opacity="1"/>
<defs>
  <clipPath id="clip592">
    <rect x="455" y="62" width="2291" height="2291"/>
  </clipPath>
</defs>
<path clip-path="url(#clip590)" d="M1221.82 103.433 L1221.82 78.112 Q1221.82 76.6916 1221.88 76.1975 Q1221.95 75.7034 1222.32 75.3329 Q1222.69 74.9623 1223.43 74.9623 Q1224.85 74.9623 1224.97 76.2593 Q1225.34 88.7962 1232.82 95.7132 Q1240.16 102.568 1252.76 102.568 Q1260.36 102.568 1265.05 97.1336 Q1269.75 91.6371 1269.75 84.4731 Q1269.75 77.618 1265.79 72.8008 Q1264.13 70.6393 1262.03 69.2806 Q1259.99 67.8601 1258.69 67.4278 Q1257.46 66.9955 1255.05 66.3779 Q1239.36 62.6107 1238.37 62.1784 Q1230.9 59.6463 1226.33 53.2851 Q1221.82 46.8623 1221.82 39.019 Q1221.82 28.8906 1228.92 21.7266 Q1236.09 14.5009 1246.46 14.5009 Q1251.65 14.5009 1255.97 16.1683 Q1260.36 17.7741 1262.15 19.2563 Q1263.94 20.7385 1266.72 23.3941 L1271.11 16.1683 Q1272.09 14.5009 1273.02 14.5009 Q1274.01 14.5009 1274.19 15.1185 Q1274.44 15.6743 1274.44 17.527 L1274.44 42.9715 Q1274.44 44.3919 1274.38 44.886 Q1274.32 45.3801 1273.88 45.6889 Q1273.51 45.9977 1272.77 45.9977 Q1271.54 45.9977 1271.23 44.5155 Q1267.71 18.0829 1246.59 18.0829 Q1239.36 18.0829 1234.61 22.9618 Q1229.91 27.7789 1229.91 34.6341 Q1229.91 40.1924 1233.37 44.7625 Q1236.83 49.2709 1242.7 50.6913 L1258.88 54.5821 Q1266.97 56.4966 1272.4 63.6606 Q1277.84 70.8245 1277.84 80.1501 Q1277.84 90.896 1270.8 98.6776 Q1263.82 106.459 1252.89 106.459 Q1245.04 106.459 1238.99 103.865 Q1232.94 101.271 1229.67 97.6277 Q1227.13 101.827 1225.47 104.174 L1225.1 104.792 Q1224.11 106.459 1223.18 106.459 Q1222.19 106.459 1222.01 105.842 Q1221.82 105.224 1221.82 103.433 Z" fill="#000000" fill-rule="nonzero" fill-opacity="1" /><path clip-path="url(#clip590)" d="M1289.08 103.68 L1289.08 99.7892 Q1295.81 99.7892 1297.35 98.9864 Q1298.9 98.1217 1298.9 94.0457 L1298.9 60.0168 Q1298.9 55.3232 1297.29 54.2115 Q1295.75 53.0999 1289.57 53.0999 L1289.57 49.1473 L1307.23 47.7886 L1307.23 94.1692 Q1307.23 97.9365 1308.59 98.8628 Q1309.95 99.7892 1316.13 99.7892 L1316.13 103.68 Q1303.22 103.309 1302.97 103.309 Q1301.24 103.309 1289.08 103.68 M1294.39 25.7409 Q1294.39 23.2088 1296.3 21.1708 Q1298.28 19.071 1301.06 19.071 Q1303.84 19.071 1305.81 20.9855 Q1307.79 22.8383 1307.79 25.8027 Q1307.79 28.7053 1305.81 30.6198 Q1303.84 32.4726 1301.06 32.4726 Q1298.16 32.4726 1296.24 30.4345 Q1294.39 28.3965 1294.39 25.7409 Z" fill="#000000" fill-rule="nonzero" fill-opacity="1" /><path clip-path="url(#clip590)" d="M1323.97 103.68 L1323.97 99.7892 Q1330.7 99.7892 1332.25 98.9864 Q1333.79 98.1217 1333.79 94.0457 L1333.79 60.1403 Q1333.79 55.4467 1332.12 54.2733 Q1330.52 53.0999 1323.97 53.0999 L1323.97 49.1473 L1341.76 47.7886 L1341.76 61.0667 Q1347.69 47.7886 1360.47 47.7886 Q1375.29 47.7886 1377.33 60.1403 Q1379.49 55.3232 1384 51.5559 Q1388.57 47.7886 1395.67 47.7886 Q1405.18 47.7886 1408.95 52.4823 Q1411.73 55.632 1412.29 59.1522 Q1412.84 62.6724 1412.84 71.8127 L1412.84 95.9602 Q1412.96 98.6158 1415 99.2334 Q1417.04 99.7892 1422.72 99.7892 L1422.72 103.68 Q1409.82 103.309 1408.58 103.309 Q1407.59 103.309 1394.25 103.68 L1394.25 99.7892 Q1400.98 99.7892 1402.53 98.9864 Q1404.13 98.1217 1404.13 94.0457 L1404.13 64.5869 Q1404.13 58.1641 1402.16 54.3968 Q1400.18 50.5678 1394.75 50.5678 Q1388.2 50.5678 1382.95 56.0643 Q1377.7 61.5608 1377.7 70.8245 L1377.7 94.0457 Q1377.7 98.1217 1379.24 98.9864 Q1380.85 99.7892 1387.58 99.7892 L1387.58 103.68 Q1374.67 103.309 1373.38 103.309 Q1372.39 103.309 1359.11 103.68 L1359.11 99.7892 Q1365.84 99.7892 1367.39 98.9864 Q1368.99 98.1217 1368.99 94.0457 L1368.99 64.5869 Q1368.99 58.1641 1367.02 54.3968 Q1365.04 50.5678 1359.61 50.5678 Q1353.06 50.5678 1347.81 56.0643 Q1342.56 61.5608 1342.56 70.8245 L1342.56 94.0457 Q1342.56 98.1217 1344.1 98.9864 Q1345.71 99.7892 1352.38 99.7892 L1352.38 103.68 Q1339.47 103.309 1338.24 103.309 Q1337.25 103.309 1323.97 103.68 Z" fill="#000000" fill-rule="nonzero" fill-opacity="1" /><path clip-path="url(#clip590)" d="M1428.71 124.307 Q1435.44 124.307 1436.99 123.443 Q1438.59 122.64 1438.59 118.626 L1438.59 59.3992 Q1438.59 55.1997 1436.99 54.1498 Q1435.44 53.0999 1428.71 53.0999 L1428.71 49.1473 L1446.93 47.7886 L1446.93 56.126 Q1454.53 47.7886 1464.66 47.7886 Q1475.4 47.7886 1483.25 56.126 Q1491.09 64.4634 1491.09 76.3828 Q1491.09 88.4257 1482.75 96.7631 Q1474.41 105.1 1462.87 105.1 Q1456.57 105.1 1452.3 101.889 Q1448.11 98.6158 1447.3 96.2072 L1447.3 97.3806 L1447.3 118.626 Q1447.3 122.702 1448.91 123.504 Q1450.51 124.307 1457.18 124.307 L1457.18 128.198 Q1443.91 127.828 1442.92 127.828 Q1441.68 127.828 1428.71 128.198 L1428.71 124.307 M1447.3 89.2903 Q1447.3 91.2048 1447.55 91.8841 Q1447.86 92.5635 1449.09 94.6015 Q1454.1 102.26 1462.25 102.26 Q1462.31 102.26 1462.37 102.26 Q1469.6 102.26 1475.09 94.9103 Q1480.59 87.4993 1480.59 76.3828 Q1480.59 65.7603 1475.59 58.3493 Q1470.59 50.9383 1463.67 50.9383 Q1458.73 50.9383 1454.4 53.5939 Q1450.08 56.2495 1447.3 61.0667 L1447.3 89.2903 Z" fill="#000000" fill-rule="nonzero" fill-opacity="1" /><path clip-path="url(#clip590)" d="M1499.55 103.68 L1499.55 99.7892 Q1506.28 99.7892 1507.83 98.9864 Q1509.37 98.1217 1509.37 94.0457 L1509.37 28.273 Q1509.37 23.5794 1507.7 22.4059 Q1506.1 21.2325 1499.55 21.2325 L1499.55 17.28 L1517.71 15.9213 L1517.71 94.0457 Q1517.71 98.1217 1519.31 98.9864 Q1520.92 99.7892 1527.59 99.7892 L1527.59 103.68 Q1526.04 103.68 1522.83 103.556 Q1519.62 103.433 1517.27 103.371 Q1514.93 103.309 1513.57 103.309 Q1512.09 103.309 1499.55 103.68 Z" fill="#000000" fill-rule="nonzero" fill-opacity="1" /><path clip-path="url(#clip590)" d="M1533.89 75.827 Q1533.89 63.9076 1541.55 55.4467 Q1549.2 46.9858 1560.2 46.9858 Q1571.31 46.9858 1577.06 54.2115 Q1582.86 61.4373 1582.86 71.8127 Q1582.86 73.7272 1582.37 74.0977 Q1581.87 74.4683 1579.71 74.4683 L1544.39 74.4683 Q1544.39 87.3758 1548.22 93.4281 Q1553.53 101.889 1562.48 101.889 Q1563.72 101.889 1565.2 101.642 Q1566.68 101.395 1569.71 100.345 Q1572.73 99.2334 1575.39 96.3308 Q1578.04 93.4281 1579.59 88.858 Q1579.96 87.067 1581.19 87.1287 Q1582.86 87.1287 1582.86 88.611 Q1582.86 89.7226 1581.63 92.2547 Q1580.45 94.725 1578.17 97.6894 Q1575.88 100.654 1571.44 102.877 Q1567.05 105.1 1561.74 105.1 Q1550.62 105.1 1542.23 96.7013 Q1533.89 88.2404 1533.89 75.827 M1544.51 71.8127 L1574.52 71.8127 Q1574.52 69.1571 1574.03 66.1927 Q1573.6 63.2282 1572.24 59.1522 Q1570.94 55.0144 1567.85 52.4205 Q1564.77 49.8267 1560.2 49.8267 Q1558.16 49.8267 1555.94 50.6913 Q1553.77 51.5559 1551.12 53.6557 Q1548.46 55.7555 1546.61 60.5109 Q1544.76 65.2663 1544.51 71.8127 Z" fill="#000000" fill-rule="nonzero" fill-opacity="1" /><path clip-path="url(#clip590)" d="M1648.63 93.0576 Q1635.67 79.656 1635.67 60.4491 Q1635.67 41.1805 1648.76 27.8407 Q1661.85 14.5009 1679.64 14.5009 Q1684.08 14.5009 1687.85 15.5508 Q1691.68 16.5389 1694.71 18.5769 Q1697.73 20.5532 1699.28 21.9119 Q1700.88 23.2088 1703.04 25.3704 L1709.41 16.0448 Q1710.39 14.5009 1711.38 14.5009 Q1712.43 14.5009 1712.62 15.1185 Q1712.8 15.6743 1712.8 17.527 L1712.8 47.5416 Q1712.8 49.5796 1712.55 50.0737 Q1712.31 50.5678 1710.76 50.5678 Q1709.53 50.5678 1709.28 50.1972 Q1709.03 49.8267 1708.73 48.4062 Q1706.81 34.7576 1699.15 26.6055 Q1691.56 18.4534 1681.18 18.4534 Q1678.16 18.4534 1674.76 19.1328 Q1671.42 19.8121 1666.48 22.4059 Q1661.6 24.9998 1657.84 29.2611 Q1654.13 33.4607 1651.41 41.6128 Q1648.7 49.7032 1648.7 60.4491 Q1648.7 71.0716 1651.41 79.2237 Q1654.13 87.3758 1657.9 91.6371 Q1661.73 95.8367 1666.67 98.4923 Q1671.67 101.148 1675.19 101.889 Q1678.77 102.568 1681.92 102.568 Q1684.08 102.568 1686.62 102.136 Q1689.15 101.642 1692.92 100.283 Q1696.74 98.8628 1699.15 95.5279 Q1701.56 92.1929 1701.56 87.2523 L1701.56 79.1619 Q1701.56 75.3947 1699.71 74.2212 Q1697.86 73.0478 1689.77 73.0478 L1685.75 73.0478 L1685.75 69.1571 Q1690.32 69.5276 1706.07 69.5276 Q1707.49 69.5276 1721.51 69.1571 L1721.51 73.0478 Q1715.46 73.0478 1714.1 73.9742 Q1712.8 74.8388 1712.8 78.6061 L1712.8 100.654 Q1712.8 103.556 1711.69 103.556 Q1710.7 103.556 1707.74 100.716 Q1704.83 97.8747 1703.54 95.7132 Q1700.51 101.024 1693.9 103.742 Q1687.36 106.459 1679.88 106.459 Q1661.67 106.459 1648.63 93.0576 Z" fill="#000000" fill-rule="nonzero" fill-opacity="1" /><path clip-path="url(#clip590)" d="M1731.21 103.68 L1731.21 99.7892 Q1737.94 99.7892 1739.48 98.9864 Q1741.09 98.1217 1741.09 94.0457 L1741.09 60.1403 Q1741.09 55.4467 1739.42 54.2733 Q1737.81 53.0999 1731.21 53.0999 L1731.21 49.1473 L1748.81 47.7886 L1748.81 61.6843 Q1750.6 56.2495 1754.37 52.05 Q1758.19 47.7886 1764.37 47.7886 Q1768.45 47.7886 1771.04 50.0737 Q1773.7 52.3588 1773.7 55.5084 Q1773.7 58.2876 1771.97 59.708 Q1770.3 61.0667 1768.26 61.0667 Q1765.98 61.0667 1764.37 59.6463 Q1762.83 58.1641 1762.83 55.632 Q1762.83 54.088 1763.51 52.9146 Q1764.25 51.6794 1764.8 51.2471 Q1765.36 50.8148 1765.73 50.6913 Q1765.48 50.5678 1764.37 50.5678 Q1757.39 50.5678 1753.38 57.5465 Q1749.42 64.4634 1749.42 74.3448 L1749.42 93.7987 Q1749.42 97.4424 1750.91 98.6158 Q1752.45 99.7892 1759.06 99.7892 L1761.71 99.7892 L1761.71 103.68 Q1756.65 103.309 1745.66 103.309 Q1744.11 103.309 1741.7 103.371 Q1739.3 103.433 1736.15 103.556 Q1733 103.68 1731.21 103.68 Z" fill="#000000" fill-rule="nonzero" fill-opacity="1" /><path clip-path="url(#clip590)" d="M1782.4 91.6371 Q1782.4 80.8912 1795.06 75.2094 Q1802.66 71.5656 1818.35 70.6393 L1818.35 66.0074 Q1818.35 58.1641 1814.21 54.0262 Q1810.13 49.8267 1804.95 49.8267 Q1795.68 49.8267 1791.23 55.632 Q1795 55.7555 1796.36 57.67 Q1797.72 59.5227 1797.72 61.4373 Q1797.72 63.9693 1796.11 65.6368 Q1794.57 67.2425 1791.91 67.2425 Q1789.38 67.2425 1787.71 65.6986 Q1786.05 64.0929 1786.05 61.3137 Q1786.05 55.1379 1791.61 51.0618 Q1797.23 46.9858 1805.19 46.9858 Q1815.57 46.9858 1822.48 53.9645 Q1824.65 56.126 1825.7 58.9052 Q1826.81 61.6843 1826.93 63.537 Q1827.05 65.328 1827.05 68.91 L1827.05 94.1692 Q1827.05 94.9103 1827.3 96.1455 Q1827.55 97.3806 1828.66 98.9864 Q1829.83 100.53 1831.75 100.53 Q1836.32 100.53 1836.26 92.44 L1836.26 85.3378 L1839.47 85.3378 L1839.47 92.44 Q1839.47 99.1716 1835.89 101.827 Q1832.37 104.421 1829.09 104.421 Q1824.89 104.421 1822.24 101.333 Q1819.58 98.2453 1819.21 94.0457 Q1817.3 98.8628 1812.91 102.013 Q1808.59 105.1 1802.66 105.1 Q1798.09 105.1 1793.77 103.927 Q1789.51 102.815 1785.92 99.6657 Q1782.4 96.4543 1782.4 91.6371 M1792.16 91.5136 Q1792.16 96.2072 1795.5 99.2334 Q1798.83 102.26 1803.52 102.26 Q1808.84 102.26 1813.59 98.1835 Q1818.35 94.0457 1818.35 85.9553 L1818.35 73.2949 Q1804.33 73.7889 1798.21 79.4089 Q1792.16 84.9672 1792.16 91.5136 Z" fill="#000000" fill-rule="nonzero" fill-opacity="1" /><path clip-path="url(#clip590)" d="M1843.85 124.307 Q1850.58 124.307 1852.13 123.443 Q1853.73 122.64 1853.73 118.626 L1853.73 59.3992 Q1853.73 55.1997 1852.13 54.1498 Q1850.58 53.0999 1843.85 53.0999 L1843.85 49.1473 L1862.07 47.7886 L1862.07 56.126 Q1869.67 47.7886 1879.8 47.7886 Q1890.54 47.7886 1898.39 56.126 Q1906.23 64.4634 1906.23 76.3828 Q1906.23 88.4257 1897.89 96.7631 Q1889.55 105.1 1878.01 105.1 Q1871.71 105.1 1867.44 101.889 Q1863.25 98.6158 1862.44 96.2072 L1862.44 97.3806 L1862.44 118.626 Q1862.44 122.702 1864.05 123.504 Q1865.65 124.307 1872.32 124.307 L1872.32 128.198 Q1859.05 127.828 1858.06 127.828 Q1856.82 127.828 1843.85 128.198 L1843.85 124.307 M1862.44 89.2903 Q1862.44 91.2048 1862.69 91.8841 Q1863 92.5635 1864.23 94.6015 Q1869.24 102.26 1877.39 102.26 Q1877.45 102.26 1877.51 102.26 Q1884.74 102.26 1890.23 94.9103 Q1895.73 87.4993 1895.73 76.3828 Q1895.73 65.7603 1890.73 58.3493 Q1885.73 50.9383 1878.81 50.9383 Q1873.87 50.9383 1869.54 53.5939 Q1865.22 56.2495 1862.44 61.0667 L1862.44 89.2903 Z" fill="#000000" fill-rule="nonzero" fill-opacity="1" /><path clip-path="url(#clip590)" d="M1914.57 103.68 L1914.57 99.7892 Q1921.3 99.7892 1922.84 98.9864 Q1924.39 98.1217 1924.39 94.0457 L1924.39 28.273 Q1924.39 23.5794 1922.72 22.4059 Q1921.11 21.2325 1914.57 21.2325 L1914.57 17.28 L1932.72 15.9213 L1932.72 59.8933 L1932.85 59.8933 Q1934.88 55.3232 1939.46 51.5559 Q1944.03 47.7886 1951.07 47.7886 Q1960.58 47.7886 1964.34 52.4823 Q1967.12 55.632 1967.68 59.1522 Q1968.3 62.6724 1968.3 71.8127 L1968.3 95.9602 Q1968.42 98.6158 1970.46 99.2334 Q1972.5 99.7892 1978.18 99.7892 L1978.18 103.68 Q1965.27 103.309 1963.97 103.309 Q1962.98 103.309 1949.71 103.68 L1949.71 99.7892 Q1956.44 99.7892 1957.98 98.9864 Q1959.59 98.1217 1959.59 94.0457 L1959.59 64.5869 Q1959.59 58.1641 1957.61 54.3968 Q1955.64 50.5678 1950.2 50.5678 Q1943.65 50.5678 1938.41 56.0643 Q1933.16 61.5608 1933.16 70.8245 L1933.16 94.0457 Q1933.16 98.1217 1934.7 98.9864 Q1936.31 99.7892 1942.98 99.7892 L1942.98 103.68 Q1930.07 103.309 1928.83 103.309 Q1927.84 103.309 1914.57 103.68 Z" fill="#000000" fill-rule="nonzero" fill-opacity="1" /><polyline clip-path="url(#clip592)" style="stroke:#000000; stroke-linecap:round; stroke-linejoin:round; stroke-width:4; stroke-opacity:1; fill:none" points="2417.77,1375.24 2411.64,1391.55 2405.49,1407.84 2399.32,1424.12 2393.11,1440.36 2386.84,1456.57 2380.51,1472.72 2374.1,1488.82 2367.6,1504.84 2360.98,1520.78 2354.25,1536.63 2347.39,1552.39 2340.38,1568.02 2333.22,1583.54 2325.88,1598.93 2318.35,1614.17 2310.62,1629.27 2302.69,1644.2 2294.52,1658.96 2286.12,1673.53 2277.47,1687.92 2268.55,1702.1 2259.35,1716.07 2249.86,1729.82 2240.06,1743.34 2229.95,1756.61 2219.52,1769.64 2208.78,1782.44 2197.76,1795.02 2186.45,1807.38 2174.88,1819.54 2163.05,1831.51 2150.99,1843.3 2138.7,1854.92 2126.2,1866.37 2113.5,1877.67 2100.61,1888.83 2087.55,1899.86 2074.34,1910.77 2060.97,1921.57 2047.48,1932.26 2033.86,1942.87 2020.14,1953.39 2006.32,1963.85 1992.43,1974.24 1978.47,1984.58 1964.45,1994.88 1950.4,2005.15 1936.32,2015.41 1922.23,2025.65 "/>
<polyline clip-path="url(#clip592)" style="stroke:#000000; stroke-linecap:round; stroke-linejoin:round; stroke-width:4; stroke-opacity:1; fill:none" points="2417.77,1375.24 2400.08,1376.73 2382.39,1378.2 2364.71,1379.64 2347.04,1381.02 2329.38,1382.35 2311.73,1383.59 2294.11,1384.73 2276.51,1385.76 2258.94,1386.66 2241.4,1387.41 2223.89,1388 2206.42,1388.41 2188.99,1388.62 2171.6,1388.62 2154.26,1388.39 2136.97,1387.92 2119.73,1387.18 2102.55,1386.17 2085.43,1384.86 2068.37,1383.24 2051.38,1381.29 2034.46,1379.01 2017.61,1376.36 2000.84,1373.33 1984.15,1369.92 1967.55,1366.11 1951.01,1361.93 1934.55,1357.38 1918.17,1352.5 1901.84,1347.29 1885.59,1341.76 1869.39,1335.95 1853.25,1329.85 1837.16,1323.49 1821.12,1316.89 1805.13,1310.06 1789.19,1303.02 1773.28,1295.78 1757.41,1288.36 1741.57,1280.78 1725.77,1273.05 1709.99,1265.19 1694.23,1257.21 1678.5,1249.14 1662.78,1240.98 1647.07,1232.76 1631.37,1224.5 1615.68,1216.19 1600,1207.88 "/>
<polyline clip-path="url(#clip592)" style="stroke:#000000; stroke-linecap:round; stroke-linejoin:round; stroke-width:4; stroke-opacity:1; fill:none" points="1922.23,2025.65 1910.99,2010.79 1899.78,1995.93 1888.59,1981.06 1877.45,1966.17 1866.38,1951.25 1855.38,1936.3 1844.47,1921.32 1833.68,1906.3 1823,1891.22 1812.47,1876.09 1802.09,1860.9 1791.89,1845.64 1781.86,1830.31 1772.04,1814.9 1762.44,1799.4 1753.07,1783.81 1743.95,1768.13 1735.1,1752.34 1726.52,1736.43 1718.24,1720.42 1710.26,1704.28 1702.62,1688.01 1695.31,1671.61 1688.36,1655.07 1681.79,1638.38 1675.58,1621.54 1669.74,1604.57 1664.23,1587.45 1659.05,1570.22 1654.18,1552.85 1649.61,1535.38 1645.31,1517.79 1641.28,1500.1 1637.5,1482.31 1633.95,1464.42 1630.61,1446.46 1627.48,1428.41 1624.54,1410.29 1621.76,1392.1 1619.15,1373.86 1616.67,1355.55 1614.31,1337.2 1612.06,1318.8 1609.91,1300.37 1607.84,1281.91 1605.82,1263.42 1603.86,1244.92 1601.92,1226.4 1600,1207.88 "/>
<polyline clip-path="url(#clip592)" style="stroke:#000000; stroke-linecap:round; stroke-linejoin:round; stroke-width:4; stroke-opacity:1; fill:none" points="1600,1207.88 1582.31,1209.36 1564.62,1210.83 1546.93,1212.27 1529.26,1213.66 1511.6,1214.98 1493.96,1216.22 1476.34,1217.37 1458.74,1218.4 1441.17,1219.29 1423.62,1220.05 1406.12,1220.63 1388.64,1221.04 1371.21,1221.25 1353.82,1221.25 1336.48,1221.02 1319.19,1220.55 1301.95,1219.81 1284.77,1218.8 1267.65,1217.49 1250.6,1215.87 1233.61,1213.93 1216.69,1211.64 1199.84,1208.99 1183.07,1205.96 1166.38,1202.55 1149.77,1198.74 1133.24,1194.56 1116.78,1190.01 1100.39,1185.13 1084.07,1179.92 1067.81,1174.39 1051.62,1168.57 1035.48,1162.48 1019.39,1156.12 1003.35,1149.52 987.361,1142.69 971.414,1135.65 955.507,1128.41 939.638,1120.99 923.801,1113.4 907.995,1105.67 892.215,1097.81 876.459,1089.84 860.723,1081.77 845.004,1073.61 829.298,1065.39 813.602,1057.12 797.913,1048.82 782.227,1040.5 "/>
<polyline clip-path="url(#clip592)" style="stroke:#000000; stroke-linecap:round; stroke-linejoin:round; stroke-width:4; stroke-opacity:1; fill:none" points="1600,1207.88 1588.77,1193.02 1577.55,1178.16 1566.37,1163.29 1555.23,1148.4 1544.15,1133.48 1533.15,1118.53 1522.25,1103.55 1511.45,1088.52 1500.78,1073.45 1490.24,1058.32 1479.87,1043.13 1469.66,1027.87 1459.64,1012.54 1449.82,997.125 1440.22,981.628 1430.85,966.04 1421.73,950.353 1412.87,934.563 1404.29,918.662 1396.01,902.645 1388.04,886.506 1380.39,870.238 1373.09,853.836 1366.14,837.293 1359.56,820.604 1353.36,803.768 1347.51,786.792 1342.01,769.681 1336.83,752.441 1331.96,735.08 1327.38,717.602 1323.09,700.014 1319.06,682.322 1315.28,664.532 1311.73,646.65 1308.39,628.683 1305.26,610.637 1302.32,592.516 1299.54,574.329 1296.92,556.081 1294.45,537.777 1292.09,519.425 1289.84,501.029 1287.69,482.597 1285.62,464.135 1283.6,445.648 1281.64,427.143 1279.7,408.625 1277.78,390.101 "/>
<polyline clip-path="url(#clip592)" style="stroke:#000000; stroke-linecap:round; stroke-linejoin:round; stroke-width:4; stroke-opacity:1; fill:none" points="782.227,1040.5 796.321,1030.26 810.401,1020.01 824.455,1009.74 838.469,999.437 852.43,989.096 866.325,978.703 880.139,968.25 893.862,957.726 907.477,947.121 920.974,936.426 934.338,925.629 947.556,914.721 960.614,903.691 973.5,892.53 986.201,881.228 998.702,869.774 1010.99,858.158 1023.05,846.37 1034.88,834.401 1046.45,822.239 1057.76,809.875 1068.79,797.299 1079.52,784.5 1089.95,771.469 1100.07,758.195 1109.86,744.679 1119.35,730.931 1128.55,716.961 1137.47,702.778 1146.13,688.392 1154.53,673.815 1162.69,659.056 1170.63,644.125 1178.35,629.032 1185.88,613.787 1193.22,598.401 1200.39,582.884 1207.4,567.245 1214.26,551.495 1220.99,535.643 1227.6,519.701 1234.11,503.678 1240.52,487.584 1246.85,471.43 1253.12,455.225 1259.33,438.979 1265.5,422.703 1271.65,406.407 1277.78,390.101 "/>
<path clip-path="url(#clip592)" d="M2561.29 1375.24 L2489.53 1250.95 L2346.01 1250.95 L2274.25 1375.24 L2346.01 1499.53 L2489.53 1499.53 L2561.29 1375.24 L2561.29 1375.24  Z" fill="#f5fffa" fill-rule="evenodd" fill-opacity="1"/>
<polyline clip-path="url(#clip592)" style="stroke:#000000; stroke-linecap:round; stroke-linejoin:round; stroke-width:4; stroke-opacity:1; fill:none" points="2561.29,1375.24 2489.53,1250.95 2346.01,1250.95 2274.25,1375.24 2346.01,1499.53 2489.53,1499.53 2561.29,1375.24 "/>
<path clip-path="url(#clip592)" d="M2065.75 2025.65 L1993.99 1901.35 L1850.47 1901.35 L1778.7 2025.65 L1850.47 2149.94 L1993.99 2149.94 L2065.75 2025.65 L2065.75 2025.65  Z" fill="#f5fffa" fill-rule="evenodd" fill-opacity="1"/>
<polyline clip-path="url(#clip592)" style="stroke:#000000; stroke-linecap:round; stroke-linejoin:round; stroke-width:4; stroke-opacity:1; fill:none" points="2065.75,2025.65 1993.99,1901.35 1850.47,1901.35 1778.7,2025.65 1850.47,2149.94 1993.99,2149.94 2065.75,2025.65 "/>
<path clip-path="url(#clip592)" d="M1743.52 1207.88 L1671.76 1083.58 L1528.24 1083.58 L1456.48 1207.88 L1528.24 1332.17 L1671.76 1332.17 L1743.52 1207.88 L1743.52 1207.88  Z" fill="#f5fffa" fill-rule="evenodd" fill-opacity="1"/>
<polyline clip-path="url(#clip592)" style="stroke:#000000; stroke-linecap:round; stroke-linejoin:round; stroke-width:4; stroke-opacity:1; fill:none" points="1743.52,1207.88 1671.76,1083.58 1528.24,1083.58 1456.48,1207.88 1528.24,1332.17 1671.76,1332.17 1743.52,1207.88 1743.52,1207.88 "/>
<path clip-path="url(#clip592)" d="M925.749 1040.5 L853.988 916.209 L710.466 916.209 L638.706 1040.5 L710.466 1164.8 L853.988 1164.8 L925.749 1040.5 L925.749 1040.5  Z" fill="#f5fffa" fill-rule="evenodd" fill-opacity="1"/>
<polyline clip-path="url(#clip592)" style="stroke:#000000; stroke-linecap:round; stroke-linejoin:round; stroke-width:4; stroke-opacity:1; fill:none" points="925.749,1040.5 853.988,916.209 710.466,916.209 638.706,1040.5 710.466,1164.8 853.988,1164.8 925.749,1040.5 "/>
<path clip-path="url(#clip592)" d="M1421.3 390.101 L1349.54 265.808 L1206.02 265.808 L1134.26 390.101 L1206.02 514.395 L1349.54 514.395 L1421.3 390.101 L1421.3 390.101  Z" fill="#f5fffa" fill-rule="evenodd" fill-opacity="1"/>
<polyline clip-path="url(#clip592)" style="stroke:#000000; stroke-linecap:round; stroke-linejoin:round; stroke-width:4; stroke-opacity:1; fill:none" points="1421.3,390.101 1349.54,265.808 1206.02,265.808 1134.26,390.101 1206.02,514.395 1349.54,514.395 1421.3,390.101 "/>
<path clip-path="url(#clip592)" d="M2417.77 1376.04 L2417.08 1375.64 L2417.08 1374.84 L2417.77 1374.44 L2418.47 1374.84 L2418.47 1375.64 Z" fill="#f5fffa" fill-rule="evenodd" fill-opacity="1" stroke="#000000" stroke-opacity="1" stroke-width="4.8"/>
<path clip-path="url(#clip592)" d="M1922.23 2026.45 L1921.53 2026.05 L1921.53 2025.25 L1922.23 2024.85 L1922.92 2025.25 L1922.92 2026.05 Z" fill="#f5fffa" fill-rule="evenodd" fill-opacity="1" stroke="#000000" stroke-opacity="1" stroke-width="4.8"/>
<path clip-path="url(#clip592)" d="M1600 1208.68 L1599.31 1208.28 L1599.31 1207.48 L1600 1207.08 L1600.69 1207.48 L1600.69 1208.28 Z" fill="#f5fffa" fill-rule="evenodd" fill-opacity="1" stroke="#000000" stroke-opacity="1" stroke-width="4.8"/>
<path clip-path="url(#clip592)" d="M782.227 1041.3 L781.534 1040.9 L781.534 1040.1 L782.227 1039.7 L782.92 1040.1 L782.92 1040.9 Z" fill="#f5fffa" fill-rule="evenodd" fill-opacity="1" stroke="#000000" stroke-opacity="1" stroke-width="4.8"/>
<path clip-path="url(#clip592)" d="M1277.78 390.901 L1277.09 390.501 L1277.09 389.701 L1277.78 389.301 L1278.47 389.701 L1278.47 390.501 Z" fill="#f5fffa" fill-rule="evenodd" fill-opacity="1" stroke="#000000" stroke-opacity="1" stroke-width="4.8"/>
<path clip-path="url(#clip590)" d="M2405.11 1362.81 Q2401.95 1362.81 2400.35 1365.93 Q2398.77 1369.03 2398.77 1375.27 Q2398.77 1381.49 2400.35 1384.61 Q2401.95 1387.71 2405.11 1387.71 Q2408.29 1387.71 2409.87 1384.61 Q2411.47 1381.49 2411.47 1375.27 Q2411.47 1369.03 2409.87 1365.93 Q2408.29 1362.81 2405.11 1362.81 M2405.11 1359.57 Q2410.2 1359.57 2412.87 1363.6 Q2415.57 1367.62 2415.57 1375.27 Q2415.57 1382.91 2412.87 1386.94 Q2410.2 1390.95 2405.11 1390.95 Q2400.03 1390.95 2397.34 1386.94 Q2394.66 1382.91 2394.66 1375.27 Q2394.66 1367.62 2397.34 1363.6 Q2400.03 1359.57 2405.11 1359.57 Z" fill="#000000" fill-rule="nonzero" fill-opacity="1" /><path clip-path="url(#clip590)" d="M2423.46 1386.92 L2430.15 1386.92 L2430.15 1363.85 L2422.88 1365.31 L2422.88 1361.58 L2430.11 1360.12 L2434.2 1360.12 L2434.2 1386.92 L2440.88 1386.92 L2440.88 1390.36 L2423.46 1390.36 L2423.46 1386.92 Z" fill="#000000" fill-rule="nonzero" fill-opacity="1" /><path clip-path="url(#clip590)" d="M1909.73 2013.22 Q1906.57 2013.22 1904.97 2016.34 Q1903.39 2019.44 1903.39 2025.68 Q1903.39 2031.9 1904.97 2035.01 Q1906.57 2038.11 1909.73 2038.11 Q1912.91 2038.11 1914.49 2035.01 Q1916.09 2031.9 1916.09 2025.68 Q1916.09 2019.44 1914.49 2016.34 Q1912.91 2013.22 1909.73 2013.22 M1909.73 2009.98 Q1914.81 2009.98 1917.49 2014.01 Q1920.18 2018.02 1920.18 2025.68 Q1920.18 2033.31 1917.49 2037.34 Q1914.81 2041.35 1909.73 2041.35 Q1904.65 2041.35 1901.95 2037.34 Q1899.28 2033.31 1899.28 2025.68 Q1899.28 2018.02 1901.95 2014.01 Q1904.65 2009.98 1909.73 2009.98 Z" fill="#000000" fill-rule="nonzero" fill-opacity="1" /><path clip-path="url(#clip590)" d="M1930.9 2037.32 L1945.17 2037.32 L1945.17 2040.77 L1925.97 2040.77 L1925.97 2037.32 Q1928.3 2034.91 1932.31 2030.86 Q1936.34 2026.79 1937.38 2025.62 Q1939.34 2023.41 1940.11 2021.89 Q1940.9 2020.35 1940.9 2018.87 Q1940.9 2016.46 1939.2 2014.94 Q1937.52 2013.42 1934.8 2013.42 Q1932.88 2013.42 1930.73 2014.09 Q1928.61 2014.76 1926.18 2016.12 L1926.18 2011.99 Q1928.65 2010.99 1930.79 2010.49 Q1932.94 2009.98 1934.72 2009.98 Q1939.42 2009.98 1942.22 2012.33 Q1945.01 2014.68 1945.01 2018.61 Q1945.01 2020.47 1944.3 2022.15 Q1943.62 2023.81 1941.77 2026.08 Q1941.27 2026.67 1938.55 2029.49 Q1935.84 2032.28 1930.9 2037.32 Z" fill="#000000" fill-rule="nonzero" fill-opacity="1" /><path clip-path="url(#clip590)" d="M1587.09 1195.45 Q1583.93 1195.45 1582.33 1198.57 Q1580.75 1201.67 1580.75 1207.91 Q1580.75 1214.12 1582.33 1217.24 Q1583.93 1220.34 1587.09 1220.34 Q1590.27 1220.34 1591.85 1217.24 Q1593.45 1214.12 1593.45 1207.91 Q1593.45 1201.67 1591.85 1198.57 Q1590.27 1195.45 1587.09 1195.45 M1587.09 1192.21 Q1592.17 1192.21 1594.84 1196.24 Q1597.54 1200.25 1597.54 1207.91 Q1597.54 1215.54 1594.84 1219.57 Q1592.17 1223.58 1587.09 1223.58 Q1582 1223.58 1579.31 1219.57 Q1576.63 1215.54 1576.63 1207.91 Q1576.63 1200.25 1579.31 1196.24 Q1582 1192.21 1587.09 1192.21 Z" fill="#000000" fill-rule="nonzero" fill-opacity="1" /><path clip-path="url(#clip590)" d="M1617.12 1206.69 Q1620.06 1207.32 1621.7 1209.3 Q1623.36 1211.29 1623.36 1214.21 Q1623.36 1218.68 1620.28 1221.13 Q1617.2 1223.58 1611.53 1223.58 Q1609.63 1223.58 1607.6 1223.2 Q1605.6 1222.83 1603.45 1222.08 L1603.45 1218.14 Q1605.15 1219.13 1607.18 1219.63 Q1609.2 1220.14 1611.41 1220.14 Q1615.26 1220.14 1617.27 1218.62 Q1619.29 1217.1 1619.29 1214.21 Q1619.29 1211.53 1617.41 1210.03 Q1615.54 1208.51 1612.2 1208.51 L1608.68 1208.51 L1608.68 1205.15 L1612.36 1205.15 Q1615.38 1205.15 1616.98 1203.96 Q1618.58 1202.74 1618.58 1200.47 Q1618.58 1198.14 1616.92 1196.91 Q1615.28 1195.65 1612.2 1195.65 Q1610.52 1195.65 1608.6 1196.02 Q1606.67 1196.38 1604.36 1197.15 L1604.36 1193.51 Q1606.69 1192.86 1608.72 1192.53 Q1610.76 1192.21 1612.57 1192.21 Q1617.23 1192.21 1619.94 1194.34 Q1622.65 1196.44 1622.65 1200.05 Q1622.65 1202.56 1621.22 1204.3 Q1619.78 1206.02 1617.12 1206.69 Z" fill="#000000" fill-rule="nonzero" fill-opacity="1" /><path clip-path="url(#clip590)" d="M768.819 1028.08 Q765.659 1028.08 764.059 1031.19 Q762.479 1034.29 762.479 1040.53 Q762.479 1046.75 764.059 1049.87 Q765.659 1052.97 768.819 1052.97 Q771.999 1052.97 773.579 1049.87 Q775.179 1046.75 775.179 1040.53 Q775.179 1034.29 773.579 1031.19 Q771.999 1028.08 768.819 1028.08 M768.819 1024.83 Q773.903 1024.83 776.576 1028.87 Q779.27 1032.88 779.27 1040.53 Q779.27 1048.17 776.576 1052.2 Q773.903 1056.21 768.819 1056.21 Q763.735 1056.21 761.041 1052.2 Q758.367 1048.17 758.367 1040.53 Q758.367 1032.88 761.041 1028.87 Q763.735 1024.83 768.819 1024.83 Z" fill="#000000" fill-rule="nonzero" fill-opacity="1" /><path clip-path="url(#clip590)" d="M797.702 1028.95 L787.372 1045.09 L797.702 1045.09 L797.702 1028.95 M796.628 1025.38 L801.773 1025.38 L801.773 1045.09 L806.087 1045.09 L806.087 1048.49 L801.773 1048.49 L801.773 1055.62 L797.702 1055.62 L797.702 1048.49 L784.05 1048.49 L784.05 1044.54 L796.628 1025.38 Z" fill="#000000" fill-rule="nonzero" fill-opacity="1" /><path clip-path="url(#clip590)" d="M1265.02 377.675 Q1261.86 377.675 1260.26 380.794 Q1258.68 383.893 1258.68 390.132 Q1258.68 396.35 1260.26 399.469 Q1261.86 402.568 1265.02 402.568 Q1268.2 402.568 1269.78 399.469 Q1271.38 396.35 1271.38 390.132 Q1271.38 383.893 1269.78 380.794 Q1268.2 377.675 1265.02 377.675 M1265.02 374.434 Q1270.1 374.434 1272.78 378.465 Q1275.47 382.475 1275.47 390.132 Q1275.47 397.768 1272.78 401.798 Q1270.1 405.809 1265.02 405.809 Q1259.94 405.809 1257.24 401.798 Q1254.57 397.768 1254.57 390.132 Q1254.57 382.475 1257.24 378.465 Q1259.94 374.434 1265.02 374.434 Z" fill="#000000" fill-rule="nonzero" fill-opacity="1" /><path clip-path="url(#clip590)" d="M1282.7 374.981 L1298.76 374.981 L1298.76 378.425 L1286.45 378.425 L1286.45 385.838 Q1287.34 385.534 1288.23 385.392 Q1289.12 385.23 1290.01 385.23 Q1295.08 385.23 1298.03 388.005 Q1300.99 390.78 1300.99 395.519 Q1300.99 400.401 1297.95 403.115 Q1294.92 405.809 1289.39 405.809 Q1287.48 405.809 1285.5 405.485 Q1283.53 405.16 1281.43 404.512 L1281.43 400.401 Q1283.25 401.393 1285.19 401.879 Q1287.14 402.365 1289.3 402.365 Q1292.81 402.365 1294.85 400.522 Q1296.9 398.679 1296.9 395.519 Q1296.9 392.36 1294.85 390.516 Q1292.81 388.673 1289.3 388.673 Q1287.66 388.673 1286.02 389.038 Q1284.4 389.402 1282.7 390.172 L1282.7 374.981 Z" fill="#000000" fill-rule="nonzero" fill-opacity="1" /></svg>
