<?xml version="1.0" encoding="utf-8"?>
<svg xmlns="http://www.w3.org/2000/svg" xmlns:xlink="http://www.w3.org/1999/xlink" width="800" height="600" viewBox="0 0 3200 2400">
<defs>
  <clipPath id="clip470">
    <rect x="0" y="0" width="3200" height="2400"/>
  </clipPath>
</defs>
<path clip-path="url(#clip470)" d="M0 2400 L3200 2400 L3200 0 L0 0  Z" fill="#ffffff" fill-rule="evenodd" fill-opacity="1"/>
<defs>
  <clipPath id="clip471">
    <rect x="640" y="0" width="2241" height="2241"/>
  </clipPath>
</defs>
<path clip-path="url(#clip470)" d="M455.118 2352.76 L2744.88 2352.76 L2744.88 62.9921 L455.118 62.9921  Z" fill="#ffffff" fill-rule="evenodd" fill-opacity="1"/>
<defs>
  <clipPath id="clip472">
    <rect x="455" y="62" width="2291" height="2291"/>
  </clipPath>
</defs>
<path clip-path="url(#clip470)" d="M1221.82 103.433 L1221.82 78.112 Q1221.82 76.6916 1221.88 76.1975 Q1221.95 75.7034 1222.32 75.3329 Q1222.69 74.9623 1223.43 74.9623 Q1224.85 74.9623 1224.97 76.2593 Q1225.34 88.7962 1232.82 95.7132 Q1240.16 102.568 1252.76 102.568 Q1260.36 102.568 1265.05 97.1336 Q1269.75 91.6371 1269.75 84.4731 Q1269.75 77.618 1265.79 72.8008 Q1264.13 70.6393 1262.03 69.2806 Q1259.99 67.8601 1258.69 67.4278 Q1257.46 66.9955 1255.05 66.3779 Q1239.36 62.6107 1238.37 62.1784 Q1230.9 59.6463 1226.33 53.2851 Q1221.82 46.8623 1221.82 39.019 Q1221.82 28.8906 1228.92 21.7266 Q1236.09 14.5009 1246.46 14.5009 Q1251.65 14.5009 1255.97 16.1683 Q1260.36 17.7741 1262.15 19.2563 Q1263.94 20.7385 1266.72 23.3941 L1271.11 16.1683 Q1272.09 14.5009 1273.02 14.5009 Q1274.01 14.5009 1274.19 15.1185 Q1274.44 15.6743 1274.44 17.527 L1274.44 42.9715 Q1274.44 44.3919 1274.38 44.886 Q1274.32 45.3801 1273.88 45.6889 Q1273.51 45.9977 1272.77 45.9977 Q1271.54 45.9977 1271.23 44.5155 Q1267.71 18.0829 1246.59 18.0829 Q1239.36 18.0829 1234.61 22.9618 Q1229.91 27.7789 1229.91 34.6341 Q1229.91 40.1924 1233.37 44.7625 Q1236.83 49.2709 1242.7 50.6913 L1258.88 54.5821 Q1266.97 56.4966 1272.4 63.6606 Q1277.84 70.8245 1277.84 80.1501 Q1277.84 90.896 1270.8 98.6776 Q1263.82 106.459 1252.89 106.459 Q1245.04 106.459 1238.99 103.865 Q1232.94 101.271 1229.67 97.6277 Q1227.13 101.827 1225.47 104.174 L1225.1 104.792 Q1224.11 106.459 1223.18 106.459 Q1222.19 106.459 1222.01 105.842 Q1221.82 105.224 1221.82 103.433 Z" fill="#000000" fill-rule="nonzero" fill-opacity="1" /><path clip-path="url(#clip470)" d="M1289.08 103.68 L1289.08 99.7892 Q1295.81 99.7892 1297.35 98.9864 Q1298.9 98.1217 1298.9 94.0457 L1298.9 60.0168 Q1298.9 55.3232 1297.29 54.2115 Q1295.75 53.0999 1289.57 53.0999 L1289.57 49.1473 L1307.23 47.7886 L1307.23 94.1692 Q1307.23 97.9365 1308.59 98.8628 Q1309.95 99.7892 1316.13 99.7892 L1316.13 103.68 Q1303.22 103.309 1302.97 103.309 Q1301.24 103.309 1289.08 103.68 M1294.39 25.7409 Q1294.39 23.2088 1296.3 21.1708 Q1298.28 19.071 1301.06 19.071 Q1303.84 19.071 1305.81 20.9855 Q1307.79 22.8383 1307.79 25.8027 Q1307.79 28.7053 1305.81 30.6198 Q1303.84 32.4726 1301.06 32.4726 Q1298.16 32.4726 1296.24 30.4345 Q1294.39 28.3965 1294.39 25.7409 Z" fill="#000000" fill-rule="nonzero" fill-opacity="1" /><path clip-path="url(#clip470)" d="M1323.97 103.68 L1323.97 99.7892 Q1330.7 99.7892 1332.25 98.9864 Q1333.79 98.1217 1333.79 94.0457 L1333.79 60.1403 Q1333.79 55.4467 1332.12 54.2733 Q1330.52 53.0999 1323.97 53.0999 L1323.97 49.1473 L1341.76 47.7886 L1341.76 61.0667 Q1347.69 47.7886 1360.47 47.7886 Q1375.29 47.7886 1377.33 60.1403 Q1379.49 55.3232 1384 51.5559 Q1388.57 47.7886 1395.67 47.7886 Q1405.18 47.7886 1408.95 52.4823 Q1411.73 55.632 1412.29 59.1522 Q1412.84 62.6724 1412.84 71.8127 L1412.84 95.9602 Q1412.96 98.6158 1415 99.2334 Q1417.04 99.7892 1422.72 99.7892 L1422.72 103.68 Q1409.82 103.309 1408.58 103.309 Q1407.59 103.309 1394.25 103.68 L1394.25 99.7892 Q1400.98 99.7892 1402.53 98.9864 Q1404.13 98.1217 1404.13 94.0457 L1404.13 64.5869 Q1404.13 58.1641 1402.16 54.3968 Q1400.18 50.5678 1394.75 50.5678 Q1388.2 50.5678 1382.95 56.0643 Q1377.7 61.5608 1377.7 70.8245 L1377.7 94.0457 Q1377.7 98.1217 1379.24 98.9864 Q1380.85 99.7892 1387.58 99.7892 L1387.58 103.68 Q1374.67 103.309 1373.38 103.309 Q1372.39 103.309 1359.11 103.68 L1359.11 99.7892 Q1365.84 99.7892 1367.39 98.9864 Q1368.99 98.1217 1368.99 94.0457 L1368.99 64.5869 Q1368.99 58.1641 1367.02 54.3968 Q1365.04 50.5678 1359.61 50.5678 Q1353.06 50.5678 1347.81 56.0643 Q1342.56 61.5608 1342.56 70.8245 L1342.56 94.0457 Q1342.56 98.1217 1344.1 98.9864 Q1345.71 99.7892 1352.38 99.7892 L1352.38 103.68 Q1339.47 103.309 1338.24 103.309 Q1337.25 103.309 1323.97 103.68 Z" fill="#000000" fill-rule="nonzero" fill-opacity="1" /><path clip-path="url(#clip470)" d="M1428.71 124.307 Q1435.44 124.307 1436.99 123.443 Q1438.59 122.64 1438.59 118.626 L1438.59 59.3992 Q1438.59 55.1997 1436.99 54.1498 Q1435.44 53.0999 1428.71 53.0999 L1428.71 49.1473 L1446.93 47.7886 L1446.93 56.126 Q1454.53 47.7886 1464.66 47.7886 Q1475.4 47.7886 1483.25 56.126 Q1491.09 64.4634 1491.09 76.3828 Q1491.09 88.4257 1482.75 96.7631 Q1474.41 105.1 1462.87 105.1 Q1456.57 105.1 1452.3 101.889 Q1448.11 98.6158 1447.3 96.2072 L1447.3 97.3806 L1447.3 118.626 Q1447.3 122.702 1448.91 123.504 Q1450.51 124.307 1457.18 124.307 L1457.18 128.198 Q1443.91 127.828 1442.92 127.828 Q1441.68 127.828 1428.71 128.198 L1428.71 124.307 M1447.3 89.2903 Q1447.3 91.2048 1447.55 91.8841 Q1447.86 92.5635 1449.09 94.6015 Q1454.1 102.26 1462.25 102.26 Q1462.31 102.26 1462.37 102.26 Q1469.6 102.26 1475.09 94.9103 Q1480.59 87.4993 1480.59 76.3828 Q1480.59 65.7603 1475.59 58.3493 Q1470.59 50.9383 1463.67 50.9383 Q1458.73 50.9383 1454.4 53.5939 Q1450.08 56.2495 1447.3 61.0667 L1447.3 89.2903 Z" fill="#000000" fill-rule="nonzero" fill-opacity="1" /><path clip-path="url(#clip470)" d="M1499.55 103.68 L1499.55 99.7892 Q1506.28 99.7892 1507.83 98.9864 Q1509.37 98.1217 1509.37 94.0457 L1509.37 28.273 Q1509.37 23.5794 1507.7 22.4059 Q1506.1 21.2325 1499.55 21.2325 L1499.55 17.28 L1517.71 15.9213 L1517.71 94.0457 Q1517.71 98.1217 1519.31 98.9864 Q1520.92 99.7892 1527.59 99.7892 L1527.59 103.68 Q1526.04 103.68 1522.83 103.556 Q1519.62 103.433 1517.27 103.371 Q1514.93 103.309 1513.57 103.309 Q1512.09 103.309 1499.55 103.68 Z" fill="#000000" fill-rule="nonzero" fill-opacity="1" /><path clip-path="url(#clip470)" d="M1533.89 75.827 Q1533.89 63.9076 1541.55 55.4467 Q1549.2 46.9858 1560.2 46.9858 Q1571.31 46.9858 1577.06 54.2115 Q1582.86 61.4373 1582.86 71.8127 Q1582.86 73.7272 1582.37 74.0977 Q1581.87 74.4683 1579.71 74.4683 L1544.39 74.4683 Q1544.39 87.3758 1548.22 93.4281 Q1553.53 101.889 1562.48 101.889 Q1563.72 101.889 1565.2 101.642 Q1566.68 101.395 1569.71 100.345 Q1572.73 99.2334 1575.39 96.3308 Q1578.04 93.4281 1579.59 88.858 Q1579.96 87.067 1581.19 87.1287 Q1582.86 87.1287 1582.86 88.611 Q1582.86 89.7226 1581.63 92.2547 Q1580.45 94.725 1578.17 97.6894 Q1575.88 100.654 1571.44 102.877 Q1567.05 105.1 1561.74 105.1 Q1550.62 105.1 1542.23 96.7013 Q1533.89 88.2404 1533.89 75.827 M1544.51 71.8127 L1574.52 71.8127 Q1574.52 69.1571 1574.03 66.1927 Q1573.6 63.2282 1572.24 59.1522 Q1570.94 55.0144 1567.85 52.4205 Q1564.77 49.8267 1560.2 49.8267 Q1558.16 49.8267 1555.94 50.6913 Q1553.77 51.5559 1551.12 53.6557 Q1548.46 55.7555 1546.61 60.5109 Q1544.76 65.2663 1544.51 71.8127 Z" fill="#000000" fill-rule="nonzero" fill-opacity="1" /><path clip-path="url(#clip470)" d="M1648.63 93.0576 Q1635.67 79.656 1635.67 60.4491 Q1635.67 41.1805 1648.76 27.8407 Q1661.85 14.5009 1679.64 14.5009 Q1684.08 14.5009 1687.85 15.5508 Q1691.68 16.5389 1694.71 18.5769 Q1697.73 20.5532 1699.28 21.9119 Q1700.88 23.2088 1703.04 25.3704 L1709.41 16.0448 Q1710.39 14.5009 1711.38 14.5009 Q1712.43 14.5009 1712.62 15.1185 Q1712.8 15.6743 1712.8 17.527 L1712.8 47.5416 Q1712.8 49.5796 1712.55 50.0737 Q1712.31 50.5678 1710.76 50.5678 Q1709.53 50.5678 1709.28 50.1972 Q1709.03 49.8267 1708.73 48.4062 Q1706.81 34.7576 1699.15 26.6055 Q1691.56 18.4534 1681.18 18.4534 Q1678.16 18.4534 1674.76 19.1328 Q1671.42 19.8121 1666.48 22.4059 Q1661.6 24.9998 1657.84 29.2611 Q1654.13 33.4607 1651.41 41.6128 Q1648.7 49.7032 1648.7 60.4491 Q1648.7 71.0716 1651.41 79.2237 Q1654.13 87.3758 1657.9 91.6371 Q1661.73 95.8367 1666.67 98.4923 Q1671.67 101.148 1675.19 101.889 Q1678.77 102.568 1681.92 102.568 Q1684.08 102.568 1686.62 102.136 Q1689.15 101.642 1692.92 100.283 Q1696.74 98.8628 1699.15 95.5279 Q1701.56 92.1929 1701.56 87.2523 L1701.56 79.1619 Q1701.56 75.3947 1699.71 74.2212 Q1697.86 73.0478 1689.77 73.0478 L1685.75 73.0478 L1685.75 69.1571 Q1690.32 69.5276 1706.07 69.5276 Q1707.49 69.5276 1721.51 69.1571 L1721.51 73.0478 Q1715.46 73.0478 1714.1 73.9742 Q1712.8 74.8388 1712.8 78.6061 L1712.8 100.654 Q1712.8 103.556 1711.69 103.556 Q1710.7 103.556 1707.74 100.716 Q1704.83 97.8747 1703.54 95.7132 Q1700.51 101.024 1693.9 103.742 Q1687.36 106.459 1679.88 106.459 Q1661.67 106.459 1648.63 93.0576 Z" fill="#000000" fill-rule="nonzero" fill-opacity="1" /><path clip-path="url(#clip470)" d="M1731.21 103.68 L1731.21 99.7892 Q1737.94 99.7892 1739.48 98.9864 Q1741.09 98.1217 1741.09 94.0457 L1741.09 60.1403 Q1741.09 55.4467 1739.42 54.2733 Q1737.81 53.0999 1731.21 53.0999 L1731.21 49.1473 L1748.81 47.7886 L1748.81 61.6843 Q1750.6 56.2495 1754.37 52.05 Q1758.19 47.7886 1764.37 47.7886 Q1768.45 47.7886 1771.04 50.0737 Q1773.7 52.3588 1773.7 55.5084 Q1773.7 58.2876 1771.97 59.708 Q1770.3 61.0667 1768.26 61.0667 Q1765.98 61.0667 1764.37 59.6463 Q1762.83 58.1641 1762.83 55.632 Q1762.83 54.088 1763.51 52.9146 Q1764.25 51.6794 1764.8 51.2471 Q1765.36 50.8148 1765.73 50.6913 Q1765.48 50.5678 1764.37 50.5678 Q1757.39 50.5678 1753.38 57.5465 Q1749.42 64.4634 1749.42 74.3448 L1749.42 93.7987 Q1749.42 97.4424 1750.91 98.6158 Q1752.45 99.7892 1759.06 99.7892 L1761.71 99.7892 L1761.71 103.68 Q1756.65 103.309 1745.66 103.309 Q1744.11 103.309 1741.7 103.371 Q1739.3 103.433 1736.15 103.556 Q1733 103.68 1731.21 103.68 Z" fill="#000000" fill-rule="nonzero" fill-opacity="1" /><path clip-path="url(#clip470)" d="M1782.4 91.6371 Q1782.4 80.8912 1795.06 75.2094 Q1802.66 71.5656 1818.35 70.6393 L1818.35 66.0074 Q1818.35 58.1641 1814.21 54.0262 Q1810.13 49.8267 1804.95 49.8267 Q1795.68 49.8267 1791.23 55.632 Q1795 55.7555 1796.36 57.67 Q1797.72 59.5227 1797.72 61.4373 Q1797.72 63.9693 1796.11 65.6368 Q1794.57 67.2425 1791.91 67.2425 Q1789.38 67.2425 1787.71 65.6986 Q1786.05 64.0929 1786.05 61.3137 Q1786.05 55.1379 1791.61 51.0618 Q1797.23 46.9858 1805.19 46.9858 Q1815.57 46.9858 1822.48 53.9645 Q1824.65 56.126 1825.7 58.9052 Q1826.81 61.6843 1826.93 63.537 Q1827.05 65.328 1827.05 68.91 L1827.05 94.1692 Q1827.05 94.9103 1827.3 96.1455 Q1827.55 97.3806 1828.66 98.9864 Q1829.83 100.53 1831.75 100.53 Q1836.32 100.53 1836.26 92.44 L1836.26 85.3378 L1839.47 85.3378 L1839.47 92.44 Q1839.47 99.1716 1835.89 101.827 Q1832.37 104.421 1829.09 104.421 Q1824.89 104.421 1822.24 101.333 Q1819.58 98.2453 1819.21 94.0457 Q1817.3 98.8628 1812.91 102.013 Q1808.59 105.1 1802.66 105.1 Q1798.09 105.1 1793.77 103.927 Q1789.51 102.815 1785.92 99.6657 Q1782.4 96.4543 1782.4 91.6371 M1792.16 91.5136 Q1792.16 96.2072 1795.5 99.2334 Q1798.83 102.26 1803.52 102.26 Q1808.84 102.26 1813.59 98.1835 Q1818.35 94.0457 1818.35 85.9553 L1818.35 73.2949 Q1804.33 73.7889 1798.21 79.4089 Q1792.16 84.9672 1792.16 91.5136 Z" fill="#000000" fill-rule="nonzero" fill-opacity="1" /><path clip-path="url(#clip470)" d="M1843.85 124.307 Q1850.58 124.307 1852.13 123.443 Q1853.73 122.64 1853.73 118.626 L1853.73 59.3992 Q1853.73 55.1997 1852.13 54.1498 Q1850.58 53.0999 1843.85 53.0999 L1843.85 49.1473 L1862.07 47.7886 L1862.07 56.126 Q1869.67 47.7886 1879.8 47.7886 Q1890.54 47.7886 1898.39 56.126 Q1906.23 64.4634 1906.23 76.3828 Q1906.23 88.4257 1897.89 96.7631 Q1889.55 105.1 1878.01 105.1 Q1871.71 105.1 1867.44 101.889 Q1863.25 98.6158 1862.44 96.2072 L1862.44 97.3806 L1862.44 118.626 Q1862.44 122.702 1864.05 123.504 Q1865.65 124.307 1872.32 124.307 L1872.32 128.198 Q1859.05 127.828 1858.06 127.828 Q1856.82 127.828 1843.85 128.198 L1843.85 124.307 M1862.44 89.2903 Q1862.44 91.2048 1862.69 91.8841 Q1863 92.5635 1864.23 94.6015 Q1869.24 102.26 1877.39 102.26 Q1877.45 102.26 1877.51 102.26 Q1884.74 102.26 1890.23 94.9103 Q1895.73 87.4993 1895.73 76.3828 Q1895.73 65.7603 1890.73 58.3493 Q1885.73 50.9383 1878.81 50.9383 Q1873.87 50.9383 1869.54 53.5939 Q1865.22 56.2495 1862.44 61.0667 L1862.44 89.2903 Z" fill="#000000" fill-rule="nonzero" fill-opacity="1" /><path clip-path="url(#clip470)" d="M1914.57 103.68 L1914.57 99.7892 Q1921.3 99.7892 1922.84 98.9864 Q1924.39 98.1217 1924.39 94.0457 L1924.39 28.273 Q1924.39 23.5794 1922.72 22.4059 Q1921.11 21.2325 1914.57 21.2325 L1914.57 17.28 L1932.72 15.9213 L1932.72 59.8933 L1932.85 59.8933 Q1934.88 55.3232 1939.46 51.5559 Q1944.03 47.7886 1951.07 47.7886 Q1960.58 47.7886 1964.34 52.4823 Q1967.12 55.632 1967.68 59.1522 Q1968.3 62.6724 1968.3 71.8127 L1968.3 95.9602 Q1968.42 98.6158 1970.46 99.2334 Q1972.5 99.7892 1978.18 99.7892 L1978.18 103.68 Q1965.27 103.309 1963.97 103.309 Q1962.98 103.309 1949.71 103.68 L1949.71 99.7892 Q1956.44 99.7892 1957.98 98.9864 Q1959.59 98.1217 1959.59 94.0457 L1959.59 64.5869 Q1959.59 58.1641 1957.61 54.3968 Q1955.64 50.5678 1950.2 50.5678 Q1943.65 50.5678 1938.41 56.0643 Q1933.16 61.5608 1933.16 70.8245 L1933.16 94.0457 Q1933.16 98.1217 1934.7 98.9864 Q1936.31 99.7892 1942.98 99.7892 L1942.98 103.68 Q1930.07 103.309 1928.83 103.309 Q1927.84 103.309 1914.57 103.68 Z" fill="#000000" fill-rule="nonzero" fill-opacity="1" /><polyline clip-path="url(#clip472)" style="stroke:#000000; stroke-linecap:round; stroke-linejoin:round; stroke-width:4; stroke-opacity:1; fill:none" points="2263.41,2025.65 2271.53,2001.8 2279.62,1977.95 2287.69,1954.09 2295.7,1930.23 2303.65,1906.36 2311.51,1882.48 2319.28,1858.59 2326.93,1834.68 2334.45,1810.76 2341.82,1786.81 2349.02,1762.85 2356.04,1738.86 2362.86,1714.84 2369.47,1690.8 2375.85,1666.73 2381.98,1642.62 2387.84,1618.49 2393.42,1594.31 2398.7,1570.1 2403.67,1545.85 2408.31,1521.55 2412.6,1497.21 2416.53,1472.83 2420.08,1448.39 2423.23,1423.9 2425.98,1399.36 2428.35,1374.78 2430.36,1350.14 2432.03,1325.47 2433.36,1300.74 2434.37,1275.98 2435.09,1251.18 2435.53,1226.35 2435.7,1201.48 2435.63,1176.58 2435.32,1151.64 2434.8,1126.68 2434.07,1101.7 2433.17,1076.69 2432.1,1051.66 2430.89,1026.61 2429.54,1001.55 2428.07,976.466 2426.51,951.373 2424.86,926.269 2423.15,901.156 2421.38,876.037 2419.59,850.914 2417.77,825.789 "/>
<polyline clip-path="url(#clip472)" style="stroke:#000000; stroke-linecap:round; stroke-linejoin:round; stroke-width:4; stroke-opacity:1; fill:none" points="2263.41,2025.65 2245.99,2012.11 2228.58,1998.56 2211.19,1984.99 2193.84,1971.39 2176.55,1957.75 2159.32,1944.06 2142.16,1930.3 2125.1,1916.47 2108.14,1902.55 2091.3,1888.54 2074.59,1874.43 2058.02,1860.2 2041.6,1845.84 2025.36,1831.35 2009.29,1816.71 1993.42,1801.91 1977.76,1786.95 1962.32,1771.8 1947.11,1756.47 1932.14,1740.93 1917.44,1725.19 1903,1709.22 1888.86,1693.03 1875.01,1676.59 1861.47,1659.9 1848.24,1642.96 1835.31,1625.78 1822.66,1608.36 1810.29,1590.73 1798.18,1572.88 1786.31,1554.84 1774.67,1536.61 1763.26,1518.19 1752.05,1499.61 1741.04,1480.87 1730.2,1461.99 1719.54,1442.97 1709.03,1423.82 1698.67,1404.55 1688.43,1385.18 1678.31,1365.72 1668.3,1346.17 1658.37,1326.55 1648.52,1306.87 1638.74,1287.13 1629.01,1267.35 1619.32,1247.54 1609.65,1227.71 1600,1207.87 "/>
<polyline clip-path="url(#clip472)" style="stroke:#000000; stroke-linecap:round; stroke-linejoin:round; stroke-width:4; stroke-opacity:1; fill:none" points="2417.77,825.789 2403.2,838.12 2388.62,850.436 2374.03,862.722 2359.42,874.962 2344.78,887.142 2330.1,899.246 2315.38,911.26 2300.61,923.168 2285.79,934.955 2270.9,946.606 2255.94,958.106 2240.9,969.44 2225.78,980.592 2210.56,991.548 2195.25,1002.29 2179.83,1012.81 2164.3,1023.08 2148.65,1033.1 2132.87,1042.85 2116.96,1052.31 2100.91,1061.47 2084.7,1070.31 2068.35,1078.81 2051.83,1086.97 2035.14,1094.77 2018.28,1102.21 2001.26,1109.29 1984.08,1116.05 1966.76,1122.49 1949.29,1128.62 1931.69,1134.47 1913.96,1140.05 1896.12,1145.37 1878.16,1150.45 1860.09,1155.3 1841.93,1159.94 1823.67,1164.38 1805.33,1168.64 1786.91,1172.74 1768.42,1176.68 1749.87,1180.49 1731.26,1184.17 1712.6,1187.76 1693.9,1191.25 1675.16,1194.66 1656.39,1198.02 1637.61,1201.33 1618.81,1204.61 1600,1207.87 "/>
<polyline clip-path="url(#clip472)" style="stroke:#000000; stroke-linecap:round; stroke-linejoin:round; stroke-width:4; stroke-opacity:1; fill:none" points="1600,1207.87 1585.43,1220.2 1570.85,1232.52 1556.26,1244.8 1541.64,1257.04 1527,1269.22 1512.33,1281.33 1497.61,1293.34 1482.84,1305.25 1468.01,1317.04 1453.12,1328.69 1438.16,1340.19 1423.13,1351.52 1408.01,1362.68 1392.79,1373.63 1377.48,1384.38 1362.06,1394.89 1346.53,1405.17 1330.88,1415.19 1315.1,1424.93 1299.19,1434.39 1283.13,1443.55 1266.93,1452.39 1250.57,1460.9 1234.05,1469.06 1217.36,1476.86 1200.51,1484.29 1183.48,1491.38 1166.31,1498.14 1148.98,1504.57 1131.52,1510.71 1113.92,1516.56 1096.19,1522.14 1078.34,1527.46 1060.38,1532.53 1042.32,1537.38 1024.15,1542.02 1005.9,1546.47 987.556,1550.73 969.137,1554.82 950.647,1558.77 932.094,1562.58 913.484,1566.26 894.825,1569.85 876.123,1573.34 857.386,1576.75 838.621,1580.11 819.835,1583.42 801.035,1586.7 782.227,1589.96 "/>
<polyline clip-path="url(#clip472)" style="stroke:#000000; stroke-linecap:round; stroke-linejoin:round; stroke-width:4; stroke-opacity:1; fill:none" points="1600,1207.87 1582.57,1194.33 1565.16,1180.79 1547.78,1167.22 1530.43,1153.62 1513.13,1139.98 1495.9,1126.28 1478.75,1112.52 1461.69,1098.69 1444.73,1084.78 1427.88,1070.77 1411.17,1056.65 1394.6,1042.42 1378.19,1028.07 1361.94,1013.58 1345.88,998.935 1330.01,984.137 1314.34,969.171 1298.9,954.027 1283.69,938.693 1268.73,923.159 1254.02,907.416 1239.59,891.451 1225.44,875.256 1211.59,858.818 1198.05,842.129 1184.82,825.188 1171.89,808.006 1159.25,790.592 1146.87,772.957 1134.76,755.112 1122.89,737.068 1111.25,718.834 1099.84,700.422 1088.63,681.841 1077.62,663.103 1066.79,644.218 1056.12,625.196 1045.61,606.048 1035.25,586.784 1025.01,567.415 1014.89,547.952 1004.88,528.405 994.952,508.784 985.105,489.1 975.322,469.363 965.591,449.584 955.899,429.774 946.233,409.943 936.58,390.101 "/>
<polyline clip-path="url(#clip472)" style="stroke:#000000; stroke-linecap:round; stroke-linejoin:round; stroke-width:4; stroke-opacity:1; fill:none" points="782.227,1589.96 790.34,1566.11 798.437,1542.26 806.5,1518.41 814.514,1494.55 822.462,1470.68 830.327,1446.8 838.093,1422.9 845.743,1398.99 853.26,1375.07 860.629,1351.13 867.832,1327.16 874.853,1303.17 881.675,1279.16 888.283,1255.11 894.659,1231.04 900.786,1206.94 906.649,1182.8 912.231,1158.63 917.515,1134.41 922.484,1110.16 927.123,1085.87 931.414,1061.53 935.341,1037.14 938.887,1012.7 942.037,988.215 944.791,963.677 947.164,939.09 949.173,914.457 950.834,889.778 952.165,865.057 953.181,840.296 953.9,815.496 954.337,790.66 954.51,765.79 954.434,740.888 954.127,715.957 953.604,690.997 952.883,666.012 951.98,641.004 950.912,615.974 949.694,590.926 948.344,565.86 946.879,540.779 945.314,515.686 943.666,490.582 941.953,465.469 940.189,440.35 938.393,415.227 936.58,390.101 "/>
<path clip-path="url(#clip472)" d="M2406.94 2025.65 L2335.18 1901.35 L2191.65 1901.35 L2119.89 2025.65 L2191.65 2149.94 L2335.18 2149.94 L2406.94 2025.65 L2406.94 2025.65  Z" fill="#f5fffa" fill-rule="evenodd" fill-opacity="1"/>
<polyline clip-path="url(#clip472)" style="stroke:#000000; stroke-linecap:round; stroke-linejoin:round; stroke-width:4; stroke-opacity:1; fill:none" points="2406.94,2025.65 2335.18,1901.35 2191.65,1901.35 2119.89,2025.65 2191.65,2149.94 2335.18,2149.94 2406.94,2025.65 "/>
<path clip-path="url(#clip472)" d="M2561.29 825.789 L2489.53 701.495 L2346.01 701.495 L2274.25 825.789 L2346.01 950.082 L2489.53 950.082 L2561.29 825.789 L2561.29 825.789  Z" fill="#f5fffa" fill-rule="evenodd" fill-opacity="1"/>
<polyline clip-path="url(#clip472)" style="stroke:#000000; stroke-linecap:round; stroke-linejoin:round; stroke-width:4; stroke-opacity:1; fill:none" points="2561.29,825.789 2489.53,701.495 2346.01,701.495 2274.25,825.789 2346.01,950.082 2489.53,950.082 2561.29,825.789 "/>
<path clip-path="url(#clip472)" d="M1743.52 1207.87 L1671.76 1083.58 L1528.24 1083.58 L1456.48 1207.87 L1528.24 1332.16 L1671.76 1332.16 L1743.52 1207.87 L1743.52 1207.87  Z" fill="#f5fffa" fill-rule="evenodd" fill-opacity="1"/>
<polyline clip-path="url(#clip472)" style="stroke:#000000; stroke-linecap:round; stroke-linejoin:round; stroke-width:4; stroke-opacity:1; fill:none" points="1743.52,1207.87 1671.76,1083.58 1528.24,1083.58 1456.48,1207.87 1528.24,1332.16 1671.76,1332.16 1743.52,1207.87 "/>
<path clip-path="url(#clip472)" d="M925.749 1589.96 L853.988 1465.67 L710.466 1465.67 L638.706 1589.96 L710.466 1714.25 L853.988 1714.25 L925.749 1589.96 L925.749 1589.96  Z" fill="#f5fffa" fill-rule="evenodd" fill-opacity="1"/>
<polyline clip-path="url(#clip472)" style="stroke:#000000; stroke-linecap:round; stroke-linejoin:round; stroke-width:4; stroke-opacity:1; fill:none" points="925.749,1589.96 853.988,1465.67 710.466,1465.67 638.706,1589.96 710.466,1714.25 853.988,1714.25 925.749,1589.96 "/>
<path clip-path="url(#clip472)" d="M1080.1 390.101 L1008.34 265.808 L864.819 265.808 L793.058 390.101 L864.819 514.395 L1008.34 514.395 L1080.1 390.101 L1080.1 390.101  Z" fill="#f5fffa" fill-rule="evenodd" fill-opacity="1"/>
<polyline clip-path="url(#clip472)" style="stroke:#000000; stroke-linecap:round; stroke-linejoin:round; stroke-width:4; stroke-opacity:1; fill:none" points="1080.1,390.101 1008.34,265.808 864.819,265.808 793.058,390.101 864.819,514.395 1008.34,514.395 1080.1,390.101 "/>
<path clip-path="url(#clip472)" d="M2263.41 2026.45 L2262.72 2026.05 L2262.72 2025.25 L2263.41 2024.85 L2264.11 2025.25 L2264.11 2026.05 Z" fill="#f5fffa" fill-rule="evenodd" fill-opacity="1" stroke="#000000" stroke-opacity="1" stroke-width="4.8"/>
<path clip-path="url(#clip472)" d="M2417.77 826.589 L2417.08 826.189 L2417.08 825.389 L2417.77 824.989 L2418.47 825.389 L2418.47 826.189 Z" fill="#f5fffa" fill-rule="evenodd" fill-opacity="1" stroke="#000000" stroke-opacity="1" stroke-width="4.8"/>
<path clip-path="url(#clip472)" d="M1600 1208.67 L1599.31 1208.27 L1599.31 1207.47 L1600 1207.07 L1600.69 1207.47 L1600.69 1208.27 Z" fill="#f5fffa" fill-rule="evenodd" fill-opacity="1" stroke="#000000" stroke-opacity="1" stroke-width="4.8"/>
<path clip-path="url(#clip472)" d="M782.227 1590.76 L781.534 1590.36 L781.534 1589.56 L782.227 1589.16 L782.92 1589.56 L782.92 1590.36 Z" fill="#f5fffa" fill-rule="evenodd" fill-opacity="1" stroke="#000000" stroke-opacity="1" stroke-width="4.8"/>
<path clip-path="url(#clip472)" d="M936.58 390.901 L935.887 390.501 L935.887 389.701 L936.58 389.301 L937.273 389.701 L937.273 390.501 Z" fill="#f5fffa" fill-rule="evenodd" fill-opacity="1" stroke="#000000" stroke-opacity="1" stroke-width="4.8"/>
<path clip-path="url(#clip470)" d="M2250.76 2013.22 Q2247.6 2013.22 2246 2016.34 Q2244.42 2019.44 2244.42 2025.68 Q2244.42 2031.9 2246 2035.01 Q2247.6 2038.11 2250.76 2038.11 Q2253.94 2038.11 2255.51 2035.01 Q2257.12 2031.9 2257.12 2025.68 Q2257.12 2019.44 2255.51 2016.34 Q2253.94 2013.22 2250.76 2013.22 M2250.76 2009.98 Q2255.84 2009.98 2258.51 2014.01 Q2261.21 2018.02 2261.21 2025.68 Q2261.21 2033.31 2258.51 2037.34 Q2255.84 2041.35 2250.76 2041.35 Q2245.67 2041.35 2242.98 2037.34 Q2240.3 2033.31 2240.3 2025.68 Q2240.3 2018.02 2242.98 2014.01 Q2245.67 2009.98 2250.76 2009.98 Z" fill="#000000" fill-rule="nonzero" fill-opacity="1" /><path clip-path="url(#clip470)" d="M2269.11 2037.32 L2275.79 2037.32 L2275.79 2014.25 L2268.52 2015.71 L2268.52 2011.99 L2275.75 2010.53 L2279.84 2010.53 L2279.84 2037.32 L2286.52 2037.32 L2286.52 2040.77 L2269.11 2040.77 L2269.11 2037.32 Z" fill="#000000" fill-rule="nonzero" fill-opacity="1" /><path clip-path="url(#clip470)" d="M2405.28 813.363 Q2402.12 813.363 2400.52 816.482 Q2398.94 819.581 2398.94 825.819 Q2398.94 832.037 2400.52 835.156 Q2402.12 838.255 2405.28 838.255 Q2408.46 838.255 2410.04 835.156 Q2411.64 832.037 2411.64 825.819 Q2411.64 819.581 2410.04 816.482 Q2408.46 813.363 2405.28 813.363 M2405.28 810.122 Q2410.36 810.122 2413.03 814.152 Q2415.73 818.163 2415.73 825.819 Q2415.73 833.455 2413.03 837.486 Q2410.36 841.496 2405.28 841.496 Q2400.19 841.496 2397.5 837.486 Q2394.82 833.455 2394.82 825.819 Q2394.82 818.163 2397.5 814.152 Q2400.19 810.122 2405.28 810.122 Z" fill="#000000" fill-rule="nonzero" fill-opacity="1" /><path clip-path="url(#clip470)" d="M2426.44 837.465 L2440.72 837.465 L2440.72 840.909 L2421.52 840.909 L2421.52 837.465 Q2423.85 835.055 2427.86 831.004 Q2431.89 826.933 2432.92 825.758 Q2434.89 823.551 2435.66 822.031 Q2436.45 820.492 2436.45 819.014 Q2436.45 816.603 2434.75 815.084 Q2433.06 813.565 2430.35 813.565 Q2428.43 813.565 2426.28 814.233 Q2424.15 814.902 2421.72 816.259 L2421.72 812.127 Q2424.19 811.135 2426.34 810.628 Q2428.49 810.122 2430.27 810.122 Q2434.97 810.122 2437.76 812.471 Q2440.56 814.821 2440.56 818.75 Q2440.56 820.614 2439.85 822.295 Q2439.16 823.956 2437.32 826.224 Q2436.81 826.812 2434.1 829.627 Q2431.38 832.422 2426.44 837.465 Z" fill="#000000" fill-rule="nonzero" fill-opacity="1" /><path clip-path="url(#clip470)" d="M1587.09 1195.44 Q1583.93 1195.44 1582.33 1198.56 Q1580.75 1201.66 1580.75 1207.9 Q1580.75 1214.12 1582.33 1217.24 Q1583.93 1220.34 1587.09 1220.34 Q1590.27 1220.34 1591.85 1217.24 Q1593.45 1214.12 1593.45 1207.9 Q1593.45 1201.66 1591.85 1198.56 Q1590.27 1195.44 1587.09 1195.44 M1587.09 1192.2 Q1592.17 1192.2 1594.84 1196.23 Q1597.54 1200.24 1597.54 1207.9 Q1597.54 1215.54 1594.84 1219.57 Q1592.17 1223.58 1587.09 1223.58 Q1582 1223.58 1579.31 1219.57 Q1576.64 1215.54 1576.64 1207.9 Q1576.64 1200.24 1579.31 1196.23 Q1582 1192.2 1587.09 1192.2 Z" fill="#000000" fill-rule="nonzero" fill-opacity="1" /><path clip-path="url(#clip470)" d="M1617.12 1206.68 Q1620.06 1207.31 1621.7 1209.3 Q1623.36 1211.28 1623.36 1214.2 Q1623.36 1218.68 1620.28 1221.13 Q1617.21 1223.58 1611.53 1223.58 Q1609.63 1223.58 1607.6 1223.19 Q1605.6 1222.83 1603.45 1222.08 L1603.45 1218.13 Q1605.15 1219.12 1607.18 1219.63 Q1609.2 1220.13 1611.41 1220.13 Q1615.26 1220.13 1617.27 1218.61 Q1619.29 1217.1 1619.29 1214.2 Q1619.29 1211.53 1617.41 1210.03 Q1615.54 1208.51 1612.2 1208.51 L1608.68 1208.51 L1608.68 1205.15 L1612.36 1205.15 Q1615.38 1205.15 1616.98 1203.95 Q1618.58 1202.73 1618.58 1200.47 Q1618.58 1198.14 1616.92 1196.9 Q1615.28 1195.65 1612.2 1195.65 Q1610.52 1195.65 1608.6 1196.01 Q1606.67 1196.37 1604.36 1197.14 L1604.36 1193.5 Q1606.69 1192.85 1608.72 1192.53 Q1610.76 1192.2 1612.57 1192.2 Q1617.23 1192.2 1619.94 1194.33 Q1622.65 1196.44 1622.65 1200.04 Q1622.65 1202.55 1621.22 1204.29 Q1619.78 1206.02 1617.12 1206.68 Z" fill="#000000" fill-rule="nonzero" fill-opacity="1" /><path clip-path="url(#clip470)" d="M768.819 1577.53 Q765.659 1577.53 764.059 1580.65 Q762.479 1583.75 762.479 1589.99 Q762.479 1596.21 764.059 1599.33 Q765.659 1602.43 768.819 1602.43 Q771.999 1602.43 773.579 1599.33 Q775.179 1596.21 775.179 1589.99 Q775.179 1583.75 773.579 1580.65 Q771.999 1577.53 768.819 1577.53 M768.819 1574.29 Q773.903 1574.29 776.576 1578.32 Q779.27 1582.34 779.27 1589.99 Q779.27 1597.63 776.576 1601.66 Q773.903 1605.67 768.819 1605.67 Q763.735 1605.67 761.041 1601.66 Q758.367 1597.63 758.367 1589.99 Q758.367 1582.34 761.041 1578.32 Q763.735 1574.29 768.819 1574.29 Z" fill="#000000" fill-rule="nonzero" fill-opacity="1" /><path clip-path="url(#clip470)" d="M797.702 1578.41 L787.372 1594.55 L797.702 1594.55 L797.702 1578.41 M796.628 1574.84 L801.773 1574.84 L801.773 1594.55 L806.087 1594.55 L806.087 1597.95 L801.773 1597.95 L801.773 1605.08 L797.702 1605.08 L797.702 1597.95 L784.05 1597.95 L784.05 1594 L796.628 1574.84 Z" fill="#000000" fill-rule="nonzero" fill-opacity="1" /><path clip-path="url(#clip470)" d="M923.819 377.675 Q920.66 377.675 919.06 380.794 Q917.48 383.893 917.48 390.132 Q917.48 396.35 919.06 399.469 Q920.66 402.568 923.819 402.568 Q926.999 402.568 928.579 399.469 Q930.179 396.35 930.179 390.132 Q930.179 383.893 928.579 380.794 Q926.999 377.675 923.819 377.675 M923.819 374.434 Q928.903 374.434 931.577 378.465 Q934.271 382.475 934.271 390.132 Q934.271 397.768 931.577 401.798 Q928.903 405.809 923.819 405.809 Q918.736 405.809 916.042 401.798 Q913.368 397.768 913.368 390.132 Q913.368 382.475 916.042 378.465 Q918.736 374.434 923.819 374.434 Z" fill="#000000" fill-rule="nonzero" fill-opacity="1" /><path clip-path="url(#clip470)" d="M941.502 374.981 L957.563 374.981 L957.563 378.425 L945.249 378.425 L945.249 385.838 Q946.14 385.534 947.031 385.392 Q947.922 385.23 948.813 385.23 Q953.877 385.23 956.834 388.005 Q959.791 390.78 959.791 395.519 Q959.791 400.401 956.753 403.115 Q953.715 405.809 948.186 405.809 Q946.282 405.809 944.297 405.485 Q942.332 405.16 940.226 404.512 L940.226 400.401 Q942.048 401.393 943.993 401.879 Q945.937 402.365 948.105 402.365 Q951.609 402.365 953.654 400.522 Q955.7 398.679 955.7 395.519 Q955.7 392.36 953.654 390.516 Q951.609 388.673 948.105 388.673 Q946.464 388.673 944.823 389.038 Q943.203 389.402 941.502 390.172 L941.502 374.981 Z" fill="#000000" fill-rule="nonzero" fill-opacity="1" /></svg>
