<?xml version="1.0" encoding="utf-8"?>
<svg xmlns="http://www.w3.org/2000/svg" xmlns:xlink="http://www.w3.org/1999/xlink" width="800" height="600" viewBox="0 0 3200 2400">
<defs>
  <clipPath id="clip350">
    <rect x="0" y="0" width="3200" height="2400"/>
  </clipPath>
</defs>
<path clip-path="url(#clip350)" d="M0 2400 L3200 2400 L3200 0 L0 0  Z" fill="#ffffff" fill-rule="evenodd" fill-opacity="1"/>
<defs>
  <clipPath id="clip351">
    <rect x="640" y="0" width="2241" height="2241"/>
  </clipPath>
</defs>
<path clip-path="url(#clip350)" d="M455.118 2352.76 L2744.88 2352.76 L2744.88 62.9921 L455.118 62.9921  Z" fill="#ffffff" fill-rule="evenodd" fill-opacity="1"/>
<defs>
  <clipPath id="clip352">
    <rect x="455" y="62" width="2291" height="2291"/>
  </clipPath>
</defs>
<path clip-path="url(#clip350)" d="M1221.82 103.433 L1221.82 78.112 Q1221.82 76.6916 1221.88 76.1975 Q1221.95 75.7034 1222.32 75.3329 Q1222.69 74.9623 1223.43 74.9623 Q1224.85 74.9623 1224.97 76.2593 Q1225.34 88.7962 1232.82 95.7132 Q1240.16 102.568 1252.76 102.568 Q1260.36 102.568 1265.05 97.1336 Q1269.75 91.6371 1269.75 84.4731 Q1269.75 77.618 1265.79 72.8008 Q1264.13 70.6393 1262.03 69.2806 Q1259.99 67.8601 1258.69 67.4278 Q1257.46 66.9955 1255.05 66.3779 Q1239.36 62.6107 1238.37 62.1784 Q1230.9 59.6463 1226.33 53.2851 Q1221.82 46.8623 1221.82 39.019 Q1221.82 28.8906 1228.92 21.7266 Q1236.09 14.5009 1246.46 14.5009 Q1251.65 14.5009 1255.97 16.1683 Q1260.36 17.7741 1262.15 19.2563 Q1263.94 20.7385 1266.72 23.3941 L1271.11 16.1683 Q1272.09 14.5009 1273.02 14.5009 Q1274.01 14.5009 1274.19 15.1185 Q1274.44 15.6743 1274.44 17.527 L1274.44 42.9715 Q1274.44 44.3919 1274.38 44.886 Q1274.32 45.3801 1273.88 45.6889 Q1273.51 45.9977 1272.77 45.9977 Q1271.54 45.9977 1271.23 44.5155 Q1267.71 18.0829 1246.59 18.0829 Q1239.36 18.0829 1234.61 22.9618 Q1229.91 27.7789 1229.91 34.6341 Q1229.91 40.1924 1233.37 44.7625 Q1236.83 49.2709 1242.7 50.6913 L1258.88 54.5821 Q1266.97 56.4966 1272.4 63.6606 Q1277.84 70.8245 1277.84 80.1501 Q1277.84 90.896 1270.8 98.6776 Q1263.82 106.459 1252.89 106.459 Q1245.04 106.459 1238.99 103.865 Q1232.94 101.271 1229.67 97.6277 Q1227.13 101.827 1225.47 104.174 L1225.1 104.792 Q1224.11 106.459 1223.18 106.459 Q1222.19 106.459 1222.01 105.842 Q1221.82 105.224 1221.82 103.433 Z" fill="#000000" fill-rule="nonzero" fill-opacity="1" /><path clip-path="url(#clip350)" d="M1289.08 103.68 L1289.08 99.7892 Q1295.81 99.7892 1297.35 98.9864 Q1298.9 98.1217 1298.9 94.0457 L1298.9 60.0168 Q1298.9 55.3232 1297.29 54.2115 Q1295.75 53.0999 1289.57 53.0999 L1289.57 49.1473 L1307.23 47.7886 L1307.23 94.1692 Q1307.23 97.9365 1308.59 98.8628 Q1309.95 99.7892 1316.13 99.7892 L1316.13 103.68 Q1303.22 103.309 1302.97 103.309 Q1301.24 103.309 1289.08 103.68 M1294.39 25.7409 Q1294.39 23.2088 1296.3 21.1708 Q1298.28 19.071 1301.06 19.071 Q1303.84 19.071 1305.81 20.9855 Q1307.79 22.8383 1307.79 25.8027 Q1307.79 28.7053 1305.81 30.6198 Q1303.84 32.4726 1301.06 32.4726 Q1298.16 32.4726 1296.24 30.4345 Q1294.39 28.3965 1294.39 25.7409 Z" fill="#000000" fill-rule="nonzero" fill-opacity="1" /><path clip-path="url(#clip350)" d="M1323.97 103.68 L1323.97 99.7892 Q1330.7 99.7892 1332.25 98.9864 Q1333.79 98.1217 1333.79 94.0457 L1333.79 60.1403 Q1333.79 55.4467 1332.12 54.2733 Q1330.52 53.0999 1323.97 53.0999 L1323.97 49.1473 L1341.76 47.7886 L1341.76 61.0667 Q1347.69 47.7886 1360.47 47.7886 Q1375.29 47.7886 1377.33 60.1403 Q1379.49 55.3232 1384 51.5559 Q1388.57 47.7886 1395.67 47.7886 Q1405.18 47.7886 1408.95 52.4823 Q1411.73 55.632 1412.29 59.1522 Q1412.84 62.6724 1412.84 71.8127 L1412.84 95.9602 Q1412.96 98.6158 1415 99.2334 Q1417.04 99.7892 1422.72 99.7892 L1422.72 103.68 Q1409.82 103.309 1408.58 103.309 Q1407.59 103.309 1394.25 103.68 L1394.25 99.7892 Q1400.98 99.7892 1402.53 98.9864 Q1404.13 98.1217 1404.13 94.0457 L1404.13 64.5869 Q1404.13 58.1641 1402.16 54.3968 Q1400.18 50.5678 1394.75 50.5678 Q1388.2 50.5678 1382.95 56.0643 Q1377.7 61.5608 1377.7 70.8245 L1377.7 94.0457 Q1377.7 98.1217 1379.24 98.9864 Q1380.85 99.7892 1387.58 99.7892 L1387.58 103.68 Q1374.67 103.309 1373.38 103.309 Q1372.39 103.309 1359.11 103.68 L1359.11 99.7892 Q1365.84 99.7892 1367.39 98.9864 Q1368.99 98.1217 1368.99 94.0457 L1368.99 64.5869 Q1368.99 58.1641 1367.02 54.3968 Q1365.04 50.5678 1359.61 50.5678 Q1353.06 50.5678 1347.81 56.0643 Q1342.56 61.5608 1342.56 70.8245 L1342.56 94.0457 Q1342.56 98.1217 1344.1 98.9864 Q1345.71 99.7892 1352.38 99.7892 L1352.38 103.68 Q1339.47 103.309 1338.24 103.309 Q1337.25 103.309 1323.97 103.68 Z" fill="#000000" fill-rule="nonzero" fill-opacity="1" /><path clip-path="url(#clip350)" d="M1428.71 124.307 Q1435.44 124.307 1436.99 123.443 Q1438.59 122.64 1438.59 118.626 L1438.59 59.3992 Q1438.59 55.1997 1436.99 54.1498 Q1435.44 53.0999 1428.71 53.0999 L1428.71 49.1473 L1446.93 47.7886 L1446.93 56.126 Q1454.53 47.7886 1464.66 47.7886 Q1475.4 47.7886 1483.25 56.126 Q1491.09 64.4634 1491.09 76.3828 Q1491.09 88.4257 1482.75 96.7631 Q1474.41 105.1 1462.87 105.1 Q1456.57 105.1 1452.3 101.889 Q1448.11 98.6158 1447.3 96.2072 L1447.3 97.3806 L1447.3 118.626 Q1447.3 122.702 1448.91 123.504 Q1450.51 124.307 1457.18 124.307 L1457.18 128.198 Q1443.91 127.828 1442.92 127.828 Q1441.68 127.828 1428.71 128.198 L1428.71 124.307 M1447.3 89.2903 Q1447.3 91.2048 1447.55 91.8841 Q1447.86 92.5635 1449.09 94.6015 Q1454.1 102.26 1462.25 102.26 Q1462.31 102.26 1462.37 102.26 Q1469.6 102.26 1475.09 94.9103 Q1480.59 87.4993 1480.59 76.3828 Q1480.59 65.7603 1475.59 58.3493 Q1470.59 50.9383 1463.67 50.9383 Q1458.73 50.9383 1454.4 53.5939 Q1450.08 56.2495 1447.3 61.0667 L1447.3 89.2903 Z" fill="#000000" fill-rule="nonzero" fill-opacity="1" /><path clip-path="url(#clip350)" d="M1499.55 103.68 L1499.55 99.7892 Q1506.28 99.7892 1507.83 98.9864 Q1509.37 98.1217 1509.37 94.0457 L1509.37 28.273 Q1509.37 23.5794 1507.7 22.4059 Q1506.1 21.2325 1499.55 21.2325 L1499.55 17.28 L1517.71 15.9213 L1517.71 94.0457 Q1517.71 98.1217 1519.31 98.9864 Q1520.92 99.7892 1527.59 99.7892 L1527.59 103.68 Q1526.04 103.68 1522.83 103.556 Q1519.62 103.433 1517.27 103.371 Q1514.93 103.309 1513.57 103.309 Q1512.09 103.309 1499.55 103.68 Z" fill="#000000" fill-rule="nonzero" fill-opacity="1" /><path clip-path="url(#clip350)" d="M1533.89 75.827 Q1533.89 63.9076 1541.55 55.4467 Q1549.2 46.9858 1560.2 46.9858 Q1571.31 46.9858 1577.06 54.2115 Q1582.86 61.4373 1582.86 71.8127 Q1582.86 73.7272 1582.37 74.0977 Q1581.87 74.4683 1579.71 74.4683 L1544.39 74.4683 Q1544.39 87.3758 1548.22 93.4281 Q1553.53 101.889 1562.48 101.889 Q1563.72 101.889 1565.2 101.642 Q1566.68 101.395 1569.71 100.345 Q1572.73 99.2334 1575.39 96.3308 Q1578.04 93.4281 1579.59 88.858 Q1579.96 87.067 1581.19 87.1287 Q1582.86 87.1287 1582.86 88.611 Q1582.86 89.7226 1581.63 92.2547 Q1580.45 94.725 1578.17 97.6894 Q1575.88 100.654 1571.44 102.877 Q1567.05 105.1 1561.74 105.1 Q1550.62 105.1 1542.23 96.7013 Q1533.89 88.2404 1533.89 75.827 M1544.51 71.8127 L1574.52 71.8127 Q1574.52 69.1571 1574.03 66.1927 Q1573.6 63.2282 1572.24 59.1522 Q1570.94 55.0144 1567.85 52.4205 Q1564.77 49.8267 1560.2 49.8267 Q1558.16 49.8267 1555.94 50.6913 Q1553.77 51.5559 1551.12 53.6557 Q1548.46 55.7555 1546.61 60.5109 Q1544.76 65.2663 1544.51 71.8127 Z" fill="#000000" fill-rule="nonzero" fill-opacity="1" /><path clip-path="url(#clip350)" d="M1648.63 93.0576 Q1635.67 79.656 1635.67 60.4491 Q1635.67 41.1805 1648.76 27.8407 Q1661.85 14.5009 1679.64 14.5009 Q1684.08 14.5009 1687.85 15.5508 Q1691.68 16.5389 1694.71 18.5769 Q1697.73 20.5532 1699.28 21.9119 Q1700.88 23.2088 1703.04 25.3704 L1709.41 16.0448 Q1710.39 14.5009 1711.38 14.5009 Q1712.43 14.5009 1712.62 15.1185 Q1712.8 15.6743 1712.8 17.527 L1712.8 47.5416 Q1712.8 49.5796 1712.55 50.0737 Q1712.31 50.5678 1710.76 50.5678 Q1709.53 50.5678 1709.28 50.1972 Q1709.03 49.8267 1708.73 48.4062 Q1706.81 34.7576 1699.15 26.6055 Q1691.56 18.4534 1681.18 18.4534 Q1678.16 18.4534 1674.76 19.1328 Q1671.42 19.8121 1666.48 22.4059 Q1661.6 24.9998 1657.84 29.2611 Q1654.13 33.4607 1651.41 41.6128 Q1648.7 49.7032 1648.7 60.4491 Q1648.7 71.0716 1651.41 79.2237 Q1654.13 87.3758 1657.9 91.6371 Q1661.73 95.8367 1666.67 98.4923 Q1671.67 101.148 1675.19 101.889 Q1678.77 102.568 1681.92 102.568 Q1684.08 102.568 1686.62 102.136 Q1689.15 101.642 1692.92 100.283 Q1696.74 98.8628 1699.15 95.5279 Q1701.56 92.1929 1701.56 87.2523 L1701.56 79.1619 Q1701.56 75.3947 1699.71 74.2212 Q1697.86 73.0478 1689.77 73.0478 L1685.75 73.0478 L1685.75 69.1571 Q1690.32 69.5276 1706.07 69.5276 Q1707.49 69.5276 1721.51 69.1571 L1721.51 73.0478 Q1715.46 73.0478 1714.1 73.9742 Q1712.8 74.8388 1712.8 78.6061 L1712.8 100.654 Q1712.8 103.556 1711.69 103.556 Q1710.7 103.556 1707.74 100.716 Q1704.83 97.8747 1703.54 95.7132 Q1700.51 101.024 1693.9 103.742 Q1687.36 106.459 1679.88 106.459 Q1661.67 106.459 1648.63 93.0576 Z" fill="#000000" fill-rule="nonzero" fill-opacity="1" /><path clip-path="url(#clip350)" d="M1731.21 103.68 L1731.21 99.7892 Q1737.94 99.7892 1739.48 98.9864 Q1741.09 98.1217 1741.09 94.0457 L1741.09 60.1403 Q1741.09 55.4467 1739.42 54.2733 Q1737.81 53.0999 1731.21 53.0999 L1731.21 49.1473 L1748.81 47.7886 L1748.81 61.6843 Q1750.6 56.2495 1754.37 52.05 Q1758.19 47.7886 1764.37 47.7886 Q1768.45 47.7886 1771.04 50.0737 Q1773.7 52.3588 1773.7 55.5084 Q1773.7 58.2876 1771.97 59.708 Q1770.3 61.0667 1768.26 61.0667 Q1765.98 61.0667 1764.37 59.6463 Q1762.83 58.1641 1762.83 55.632 Q1762.83 54.088 1763.51 52.9146 Q1764.25 51.6794 1764.8 51.2471 Q1765.36 50.8148 1765.73 50.6913 Q1765.48 50.5678 1764.37 50.5678 Q1757.39 50.5678 1753.38 57.5465 Q1749.42 64.4634 1749.42 74.3448 L1749.42 93.7987 Q1749.42 97.4424 1750.91 98.6158 Q1752.45 99.7892 1759.06 99.7892 L1761.71 99.7892 L1761.71 103.68 Q1756.65 103.309 1745.66 103.309 Q1744.11 103.309 1741.7 103.371 Q1739.3 103.433 1736.15 103.556 Q1733 103.68 1731.21 103.68 Z" fill="#000000" fill-rule="nonzero" fill-opacity="1" /><path clip-path="url(#clip350)" d="M1782.4 91.6371 Q1782.4 80.8912 1795.06 75.2094 Q1802.66 71.5656 1818.35 70.6393 L1818.35 66.0074 Q1818.35 58.1641 1814.21 54.0262 Q1810.13 49.8267 1804.95 49.8267 Q1795.68 49.8267 1791.23 55.632 Q1795 55.7555 1796.36 57.67 Q1797.72 59.5227 1797.72 61.4373 Q1797.72 63.9693 1796.11 65.6368 Q1794.57 67.2425 1791.91 67.2425 Q1789.38 67.2425 1787.71 65.6986 Q1786.05 64.0929 1786.05 61.3137 Q1786.05 55.1379 1791.61 51.0618 Q1797.23 46.9858 1805.19 46.9858 Q1815.57 46.9858 1822.48 53.9645 Q1824.65 56.126 1825.7 58.9052 Q1826.81 61.6843 1826.93 63.537 Q1827.05 65.328 1827.05 68.91 L1827.05 94.1692 Q1827.05 94.9103 1827.3 96.1455 Q1827.55 97.3806 1828.66 98.9864 Q1829.83 100.53 1831.75 100.53 Q1836.32 100.53 1836.26 92.44 L1836.26 85.3378 L1839.47 85.3378 L1839.47 92.44 Q1839.47 99.1716 1835.89 101.827 Q1832.37 104.421 1829.09 104.421 Q1824.89 104.421 1822.24 101.333 Q1819.58 98.2453 1819.21 94.0457 Q1817.3 98.8628 1812.91 102.013 Q1808.59 105.1 1802.66 105.1 Q1798.09 105.1 1793.77 103.927 Q1789.51 102.815 1785.92 99.6657 Q1782.4 96.4543 1782.4 91.6371 M1792.16 91.5136 Q1792.16 96.2072 1795.5 99.2334 Q1798.83 102.26 1803.52 102.26 Q1808.84 102.26 1813.59 98.1835 Q1818.35 94.0457 1818.35 85.9553 L1818.35 73.2949 Q1804.33 73.7889 1798.21 79.4089 Q1792.16 84.9672 1792.16 91.5136 Z" fill="#000000" fill-rule="nonzero" fill-opacity="1" /><path clip-path="url(#clip350)" d="M1843.85 124.307 Q1850.58 124.307 1852.13 123.443 Q1853.73 122.64 1853.73 118.626 L1853.73 59.3992 Q1853.73 55.1997 1852.13 54.1498 Q1850.58 53.0999 1843.85 53.0999 L1843.85 49.1473 L1862.07 47.7886 L1862.07 56.126 Q1869.67 47.7886 1879.8 47.7886 Q1890.54 47.7886 1898.39 56.126 Q1906.23 64.4634 1906.23 76.3828 Q1906.23 88.4257 1897.89 96.7631 Q1889.55 105.1 1878.01 105.1 Q1871.71 105.1 1867.44 101.889 Q1863.25 98.6158 1862.44 96.2072 L1862.44 97.3806 L1862.44 118.626 Q1862.44 122.702 1864.05 123.504 Q1865.65 124.307 1872.32 124.307 L1872.32 128.198 Q1859.05 127.828 1858.06 127.828 Q1856.82 127.828 1843.85 128.198 L1843.85 124.307 M1862.44 89.2903 Q1862.44 91.2048 1862.69 91.8841 Q1863 92.5635 1864.23 94.6015 Q1869.24 102.26 1877.39 102.26 Q1877.45 102.26 1877.51 102.26 Q1884.74 102.26 1890.23 94.9103 Q1895.73 87.4993 1895.73 76.3828 Q1895.73 65.7603 1890.73 58.3493 Q1885.73 50.9383 1878.81 50.9383 Q1873.87 50.9383 1869.54 53.5939 Q1865.22 56.2495 1862.44 61.0667 L1862.44 89.2903 Z" fill="#000000" fill-rule="nonzero" fill-opacity="1" /><path clip-path="url(#clip350)" d="M1914.57 103.68 L1914.57 99.7892 Q1921.3 99.7892 1922.84 98.9864 Q1924.39 98.1217 1924.39 94.0457 L1924.39 28.273 Q1924.39 23.5794 1922.72 22.4059 Q1921.11 21.2325 1914.57 21.2325 L1914.57 17.28 L1932.72 15.9213 L1932.72 59.8933 L1932.85 59.8933 Q1934.88 55.3232 1939.46 51.5559 Q1944.03 47.7886 1951.07 47.7886 Q1960.58 47.7886 1964.34 52.4823 Q1967.12 55.632 1967.68 59.1522 Q1968.3 62.6724 1968.3 71.8127 L1968.3 95.9602 Q1968.42 98.6158 1970.46 99.2334 Q1972.5 99.7892 1978.18 99.7892 L1978.18 103.68 Q1965.27 103.309 1963.97 103.309 Q1962.98 103.309 1949.71 103.68 L1949.71 99.7892 Q1956.44 99.7892 1957.98 98.9864 Q1959.59 98.1217 1959.59 94.0457 L1959.59 64.5869 Q1959.59 58.1641 1957.61 54.3968 Q1955.64 50.5678 1950.2 50.5678 Q1943.65 50.5678 1938.41 56.0643 Q1933.16 61.5608 1933.16 70.8245 L1933.16 94.0457 Q1933.16 98.1217 1934.7 98.9864 Q1936.31 99.7892 1942.98 99.7892 L1942.98 103.68 Q1930.07 103.309 1928.83 103.309 Q1927.84 103.309 1914.57 103.68 Z" fill="#000000" fill-rule="nonzero" fill-opacity="1" /><polyline clip-path="url(#clip352)" style="stroke:#000000; stroke-linecap:round; stroke-linejoin:round; stroke-width:4; stroke-opacity:1; fill:none" points="782.227,790.199 780.093,815.972 777.975,841.743 775.891,867.511 773.856,893.272 771.888,919.027 770.002,944.772 768.216,970.506 766.546,996.226 765.009,1021.93 763.621,1047.62 762.398,1073.29 761.358,1098.94 760.517,1124.57 759.891,1150.17 759.498,1175.75 759.353,1201.3 759.473,1226.82 759.876,1252.3 760.576,1277.76 761.592,1303.18 762.939,1328.56 764.634,1353.9 766.694,1379.2 769.135,1404.46 771.974,1429.67 775.209,1454.84 778.826,1479.97 782.808,1505.05 787.137,1530.1 791.799,1555.1 796.775,1580.08 802.049,1605.02 807.606,1629.92 813.427,1654.8 819.498,1679.65 825.8,1704.47 832.318,1729.27 839.035,1754.05 845.934,1778.8 852.999,1803.54 860.213,1828.26 867.56,1852.97 875.023,1877.66 882.585,1902.34 890.231,1927.01 897.942,1951.68 905.703,1976.34 913.498,2000.99 921.309,2025.65 "/>
<polyline clip-path="url(#clip352)" style="stroke:#000000; stroke-linecap:round; stroke-linejoin:round; stroke-width:4; stroke-opacity:1; fill:none" points="782.227,790.199 796.64,803.18 811.061,816.145 825.497,829.081 839.956,841.972 854.445,854.804 868.972,867.562 883.544,880.23 898.17,892.795 912.856,905.24 927.611,917.552 942.441,929.715 957.355,941.715 972.36,953.537 987.464,965.165 1002.67,976.586 1018,987.783 1033.44,998.743 1049.02,1009.45 1064.73,1019.89 1080.58,1030.05 1096.59,1039.91 1112.75,1049.46 1129.09,1058.68 1145.59,1067.56 1162.28,1076.08 1179.16,1084.25 1196.2,1092.08 1213.41,1099.58 1230.78,1106.76 1248.31,1113.65 1265.98,1120.26 1283.78,1126.6 1301.71,1132.69 1319.77,1138.54 1337.94,1144.17 1356.21,1149.59 1374.59,1154.82 1393.05,1159.86 1411.6,1164.75 1430.22,1169.49 1448.91,1174.09 1467.67,1178.57 1486.47,1182.95 1505.32,1187.24 1524.21,1191.46 1543.13,1195.61 1562.08,1199.73 1581.03,1203.81 1600,1207.88 "/>
<polyline clip-path="url(#clip352)" style="stroke:#000000; stroke-linecap:round; stroke-linejoin:round; stroke-width:4; stroke-opacity:1; fill:none" points="921.309,2025.65 939.01,2012.15 956.699,1998.65 974.362,1985.12 991.986,1971.57 1009.56,1957.97 1027.07,1944.31 1044.5,1930.6 1061.84,1916.8 1079.08,1902.93 1096.21,1888.95 1113.2,1874.88 1130.05,1860.68 1146.75,1846.35 1163.29,1831.89 1179.64,1817.28 1195.8,1802.51 1211.76,1787.56 1227.5,1772.44 1243,1757.13 1258.26,1741.61 1273.27,1725.88 1288.01,1709.92 1302.46,1693.73 1316.62,1677.3 1330.47,1660.61 1344.01,1643.67 1357.26,1626.48 1370.23,1609.05 1382.92,1591.41 1395.36,1573.55 1407.56,1555.48 1419.52,1537.23 1431.27,1518.79 1442.81,1500.18 1454.16,1481.42 1465.32,1462.5 1476.33,1443.45 1487.17,1424.27 1497.88,1404.97 1508.46,1385.56 1518.92,1366.06 1529.28,1346.47 1539.55,1326.81 1549.74,1307.09 1559.87,1287.31 1569.95,1267.49 1579.99,1247.64 1590,1227.76 1600,1207.88 "/>
<polyline clip-path="url(#clip352)" style="stroke:#000000; stroke-linecap:round; stroke-linejoin:round; stroke-width:4; stroke-opacity:1; fill:none" points="1600,1207.88 1617.7,1194.38 1635.39,1180.88 1653.05,1167.35 1670.68,1153.8 1688.25,1140.2 1705.76,1126.54 1723.19,1112.83 1740.53,1099.03 1757.77,1085.16 1774.9,1071.18 1791.89,1057.1 1808.74,1042.91 1825.44,1028.58 1841.98,1014.12 1858.33,999.507 1874.49,984.735 1890.45,969.793 1906.19,954.669 1921.69,939.354 1936.95,923.836 1951.96,908.105 1966.7,892.15 1981.15,875.961 1995.31,859.527 2009.16,842.838 2022.7,825.893 2035.95,808.704 2048.91,791.28 2061.61,773.632 2074.05,755.771 2086.25,737.708 2098.21,719.453 2109.96,701.017 2121.5,682.41 2132.84,663.644 2144.01,644.728 2155.01,625.674 2165.86,606.493 2176.57,587.194 2187.15,567.788 2197.61,548.286 2207.97,528.7 2218.24,509.038 2228.43,489.313 2238.56,469.535 2248.64,449.714 2258.67,429.861 2268.69,409.986 2278.69,390.101 "/>
<polyline clip-path="url(#clip352)" style="stroke:#000000; stroke-linecap:round; stroke-linejoin:round; stroke-width:4; stroke-opacity:1; fill:none" points="1600,1207.88 1614.41,1220.86 1628.83,1233.82 1643.27,1246.76 1657.73,1259.65 1672.22,1272.48 1686.74,1285.24 1701.32,1297.91 1715.94,1310.47 1730.63,1322.92 1745.38,1335.23 1760.21,1347.39 1775.13,1359.39 1790.13,1371.21 1805.24,1382.84 1820.45,1394.26 1835.77,1405.46 1851.22,1416.42 1866.79,1427.13 1882.5,1437.57 1898.36,1447.72 1914.36,1457.58 1930.53,1467.13 1946.86,1476.35 1963.37,1485.23 1980.06,1493.76 1996.93,1501.93 2013.97,1509.75 2031.19,1517.25 2048.56,1524.44 2066.08,1531.33 2083.75,1537.94 2101.55,1544.28 2119.49,1550.37 2137.54,1556.22 2155.71,1561.84 2173.99,1567.26 2192.36,1572.49 2210.82,1577.54 2229.37,1582.42 2248,1587.16 2266.69,1591.76 2285.44,1596.24 2304.25,1600.62 2323.1,1604.91 2341.99,1609.13 2360.91,1613.29 2379.85,1617.4 2398.81,1621.48 2417.77,1625.55 "/>
<polyline clip-path="url(#clip352)" style="stroke:#000000; stroke-linecap:round; stroke-linejoin:round; stroke-width:4; stroke-opacity:1; fill:none" points="2278.69,390.101 2276.55,415.874 2274.44,441.645 2272.35,467.413 2270.32,493.175 2268.35,518.929 2266.46,544.674 2264.68,570.408 2263.01,596.129 2261.47,621.834 2260.08,647.523 2258.86,673.194 2257.82,698.844 2256.98,724.471 2256.35,750.074 2255.96,775.651 2255.81,801.2 2255.93,826.719 2256.34,852.207 2257.04,877.661 2258.05,903.079 2259.4,928.46 2261.1,953.802 2263.16,979.103 2265.6,1004.36 2268.44,1029.57 2271.67,1054.74 2275.29,1079.87 2279.27,1104.95 2283.6,1130 2288.26,1155.01 2293.24,1179.98 2298.51,1204.92 2304.07,1229.82 2309.89,1254.7 2315.96,1279.55 2322.26,1304.37 2328.78,1329.17 2335.5,1353.95 2342.4,1378.71 2349.46,1403.44 2356.68,1428.16 2364.02,1452.87 2371.49,1477.56 2379.05,1502.24 2386.69,1526.92 2394.41,1551.58 2402.17,1576.24 2409.96,1600.89 2417.77,1625.55 "/>
<path clip-path="url(#clip352)" d="M925.749 790.199 L853.988 665.906 L710.466 665.906 L638.706 790.199 L710.466 914.492 L853.988 914.492 L925.749 790.199 L925.749 790.199  Z" fill="#f5fffa" fill-rule="evenodd" fill-opacity="1"/>
<polyline clip-path="url(#clip352)" style="stroke:#000000; stroke-linecap:round; stroke-linejoin:round; stroke-width:4; stroke-opacity:1; fill:none" points="925.749,790.199 853.988,665.906 710.466,665.906 638.706,790.199 710.466,914.492 853.988,914.492 925.749,790.199 "/>
<path clip-path="url(#clip352)" d="M1064.83 2025.65 L993.07 1901.35 L849.548 1901.35 L777.787 2025.65 L849.548 2149.94 L993.07 2149.94 L1064.83 2025.65 L1064.83 2025.65  Z" fill="#f5fffa" fill-rule="evenodd" fill-opacity="1"/>
<polyline clip-path="url(#clip352)" style="stroke:#000000; stroke-linecap:round; stroke-linejoin:round; stroke-width:4; stroke-opacity:1; fill:none" points="1064.83,2025.65 993.07,1901.35 849.548,1901.35 777.787,2025.65 849.548,2149.94 993.07,2149.94 1064.83,2025.65 "/>
<path clip-path="url(#clip352)" d="M1743.52 1207.88 L1671.76 1083.58 L1528.24 1083.58 L1456.48 1207.88 L1528.24 1332.17 L1671.76 1332.17 L1743.52 1207.88 L1743.52 1207.88  Z" fill="#f5fffa" fill-rule="evenodd" fill-opacity="1"/>
<polyline clip-path="url(#clip352)" style="stroke:#000000; stroke-linecap:round; stroke-linejoin:round; stroke-width:4; stroke-opacity:1; fill:none" points="1743.52,1207.88 1671.76,1083.58 1528.24,1083.58 1456.48,1207.88 1528.24,1332.17 1671.76,1332.17 1743.52,1207.88 "/>
<path clip-path="url(#clip352)" d="M2422.21 390.101 L2350.45 265.808 L2206.93 265.808 L2135.17 390.101 L2206.93 514.395 L2350.45 514.395 L2422.21 390.101 L2422.21 390.101  Z" fill="#f5fffa" fill-rule="evenodd" fill-opacity="1"/>
<polyline clip-path="url(#clip352)" style="stroke:#000000; stroke-linecap:round; stroke-linejoin:round; stroke-width:4; stroke-opacity:1; fill:none" points="2422.21,390.101 2350.45,265.808 2206.93,265.808 2135.17,390.101 2206.93,514.395 2350.45,514.395 2422.21,390.101 "/>
<path clip-path="url(#clip352)" d="M2561.29 1625.55 L2489.53 1501.25 L2346.01 1501.25 L2274.25 1625.55 L2346.01 1749.84 L2489.53 1749.84 L2561.29 1625.55 L2561.29 1625.55  Z" fill="#f5fffa" fill-rule="evenodd" fill-opacity="1"/>
<polyline clip-path="url(#clip352)" style="stroke:#000000; stroke-linecap:round; stroke-linejoin:round; stroke-width:4; stroke-opacity:1; fill:none" points="2561.29,1625.55 2489.53,1501.25 2346.01,1501.25 2274.25,1625.55 2346.01,1749.84 2489.53,1749.84 2561.29,1625.55 "/>
<path clip-path="url(#clip352)" d="M782.227 790.999 L781.534 790.599 L781.534 789.799 L782.227 789.399 L782.92 789.799 L782.92 790.599 Z" fill="#f5fffa" fill-rule="evenodd" fill-opacity="1" stroke="#000000" stroke-opacity="1" stroke-width="4.8"/>
<path clip-path="url(#clip352)" d="M921.309 2026.45 L920.616 2026.05 L920.616 2025.25 L921.309 2024.85 L922.002 2025.25 L922.002 2026.05 Z" fill="#f5fffa" fill-rule="evenodd" fill-opacity="1" stroke="#000000" stroke-opacity="1" stroke-width="4.8"/>
<path clip-path="url(#clip352)" d="M1600 1208.68 L1599.31 1208.28 L1599.31 1207.48 L1600 1207.08 L1600.69 1207.48 L1600.69 1208.28 Z" fill="#f5fffa" fill-rule="evenodd" fill-opacity="1" stroke="#000000" stroke-opacity="1" stroke-width="4.8"/>
<path clip-path="url(#clip352)" d="M2278.69 390.901 L2277.99 390.501 L2277.99 389.701 L2278.69 389.301 L2279.38 389.701 L2279.38 390.501 Z" fill="#f5fffa" fill-rule="evenodd" fill-opacity="1" stroke="#000000" stroke-opacity="1" stroke-width="4.8"/>
<path clip-path="url(#clip352)" d="M2417.77 1626.35 L2417.08 1625.95 L2417.08 1625.15 L2417.77 1624.75 L2418.47 1625.15 L2418.47 1625.95 Z" fill="#f5fffa" fill-rule="evenodd" fill-opacity="1" stroke="#000000" stroke-opacity="1" stroke-width="4.8"/>
<path clip-path="url(#clip350)" d="M769.568 777.773 Q766.408 777.773 764.808 780.892 Q763.228 783.991 763.228 790.229 Q763.228 796.448 764.808 799.567 Q766.408 802.666 769.568 802.666 Q772.748 802.666 774.328 799.567 Q775.928 796.448 775.928 790.229 Q775.928 783.991 774.328 780.892 Q772.748 777.773 769.568 777.773 M769.568 774.532 Q774.652 774.532 777.326 778.563 Q780.019 782.573 780.019 790.229 Q780.019 797.865 777.326 801.896 Q774.652 805.906 769.568 805.906 Q764.484 805.906 761.79 801.896 Q759.117 797.865 759.117 790.229 Q759.117 782.573 761.79 778.563 Q764.484 774.532 769.568 774.532 Z" fill="#000000" fill-rule="nonzero" fill-opacity="1" /><path clip-path="url(#clip350)" d="M787.919 801.876 L794.603 801.876 L794.603 778.806 L787.331 780.264 L787.331 776.537 L794.562 775.079 L798.654 775.079 L798.654 801.876 L805.338 801.876 L805.338 805.319 L787.919 805.319 L787.919 801.876 Z" fill="#000000" fill-rule="nonzero" fill-opacity="1" /><path clip-path="url(#clip350)" d="M908.812 2013.22 Q905.652 2013.22 904.052 2016.34 Q902.472 2019.44 902.472 2025.68 Q902.472 2031.9 904.052 2035.01 Q905.652 2038.11 908.812 2038.11 Q911.992 2038.11 913.572 2035.01 Q915.172 2031.9 915.172 2025.68 Q915.172 2019.44 913.572 2016.34 Q911.992 2013.22 908.812 2013.22 M908.812 2009.98 Q913.896 2009.98 916.569 2014.01 Q919.263 2018.02 919.263 2025.68 Q919.263 2033.31 916.569 2037.34 Q913.896 2041.35 908.812 2041.35 Q903.728 2041.35 901.034 2037.34 Q898.36 2033.31 898.36 2025.68 Q898.36 2018.02 901.034 2014.01 Q903.728 2009.98 908.812 2009.98 Z" fill="#000000" fill-rule="nonzero" fill-opacity="1" /><path clip-path="url(#clip350)" d="M929.978 2037.32 L944.257 2037.32 L944.257 2040.77 L925.056 2040.77 L925.056 2037.32 Q927.385 2034.91 931.395 2030.86 Q935.426 2026.79 936.459 2025.62 Q938.424 2023.41 939.193 2021.89 Q939.983 2020.35 939.983 2018.87 Q939.983 2016.46 938.282 2014.94 Q936.601 2013.42 933.887 2013.42 Q931.963 2013.42 929.816 2014.09 Q927.689 2014.76 925.258 2016.12 L925.258 2011.99 Q927.729 2010.99 929.876 2010.49 Q932.023 2009.98 933.806 2009.98 Q938.505 2009.98 941.3 2012.33 Q944.095 2014.68 944.095 2018.61 Q944.095 2020.47 943.386 2022.15 Q942.698 2023.81 940.854 2026.08 Q940.348 2026.67 937.634 2029.49 Q934.92 2032.28 929.978 2037.32 Z" fill="#000000" fill-rule="nonzero" fill-opacity="1" /><path clip-path="url(#clip350)" d="M1587.09 1195.45 Q1583.93 1195.45 1582.33 1198.57 Q1580.75 1201.67 1580.75 1207.91 Q1580.75 1214.13 1582.33 1217.24 Q1583.93 1220.34 1587.09 1220.34 Q1590.27 1220.34 1591.85 1217.24 Q1593.45 1214.13 1593.45 1207.91 Q1593.45 1201.67 1591.85 1198.57 Q1590.27 1195.45 1587.09 1195.45 M1587.09 1192.21 Q1592.17 1192.21 1594.84 1196.24 Q1597.54 1200.25 1597.54 1207.91 Q1597.54 1215.54 1594.84 1219.57 Q1592.17 1223.58 1587.09 1223.58 Q1582 1223.58 1579.31 1219.57 Q1576.64 1215.54 1576.64 1207.91 Q1576.64 1200.25 1579.31 1196.24 Q1582 1192.21 1587.09 1192.21 Z" fill="#000000" fill-rule="nonzero" fill-opacity="1" /><path clip-path="url(#clip350)" d="M1617.12 1206.69 Q1620.06 1207.32 1621.7 1209.31 Q1623.36 1211.29 1623.36 1214.21 Q1623.36 1218.68 1620.28 1221.13 Q1617.21 1223.58 1611.53 1223.58 Q1609.63 1223.58 1607.6 1223.2 Q1605.6 1222.84 1603.45 1222.09 L1603.45 1218.14 Q1605.15 1219.13 1607.18 1219.63 Q1609.21 1220.14 1611.41 1220.14 Q1615.26 1220.14 1617.27 1218.62 Q1619.29 1217.1 1619.29 1214.21 Q1619.29 1211.53 1617.41 1210.03 Q1615.54 1208.52 1612.2 1208.52 L1608.68 1208.52 L1608.68 1205.15 L1612.36 1205.15 Q1615.38 1205.15 1616.98 1203.96 Q1618.58 1202.74 1618.58 1200.47 Q1618.58 1198.14 1616.92 1196.91 Q1615.28 1195.65 1612.2 1195.65 Q1610.52 1195.65 1608.6 1196.02 Q1606.67 1196.38 1604.36 1197.15 L1604.36 1193.51 Q1606.69 1192.86 1608.72 1192.53 Q1610.76 1192.21 1612.57 1192.21 Q1617.23 1192.21 1619.94 1194.34 Q1622.65 1196.44 1622.65 1200.05 Q1622.65 1202.56 1621.22 1204.3 Q1619.78 1206.02 1617.12 1206.69 Z" fill="#000000" fill-rule="nonzero" fill-opacity="1" /><path clip-path="url(#clip350)" d="M2265.28 377.675 Q2262.12 377.675 2260.52 380.794 Q2258.94 383.893 2258.94 390.132 Q2258.94 396.35 2260.52 399.469 Q2262.12 402.568 2265.28 402.568 Q2268.46 402.568 2270.04 399.469 Q2271.64 396.35 2271.64 390.132 Q2271.64 383.893 2270.04 380.794 Q2268.46 377.675 2265.28 377.675 M2265.28 374.434 Q2270.36 374.434 2273.04 378.465 Q2275.73 382.475 2275.73 390.132 Q2275.73 397.768 2273.04 401.798 Q2270.36 405.809 2265.28 405.809 Q2260.19 405.809 2257.5 401.798 Q2254.83 397.768 2254.83 390.132 Q2254.83 382.475 2257.5 378.465 Q2260.19 374.434 2265.28 374.434 Z" fill="#000000" fill-rule="nonzero" fill-opacity="1" /><path clip-path="url(#clip350)" d="M2294.16 378.546 L2283.83 394.689 L2294.16 394.689 L2294.16 378.546 M2293.09 374.981 L2298.23 374.981 L2298.23 394.689 L2302.55 394.689 L2302.55 398.092 L2298.23 398.092 L2298.23 405.221 L2294.16 405.221 L2294.16 398.092 L2280.51 398.092 L2280.51 394.142 L2293.09 374.981 Z" fill="#000000" fill-rule="nonzero" fill-opacity="1" /><path clip-path="url(#clip350)" d="M2405.01 1613.12 Q2401.85 1613.12 2400.25 1616.24 Q2398.67 1619.34 2398.67 1625.58 Q2398.67 1631.8 2400.25 1634.92 Q2401.85 1638.01 2405.01 1638.01 Q2408.19 1638.01 2409.77 1634.92 Q2411.37 1631.8 2411.37 1625.58 Q2411.37 1619.34 2409.77 1616.24 Q2408.19 1613.12 2405.01 1613.12 M2405.01 1609.88 Q2410.1 1609.88 2412.77 1613.91 Q2415.46 1617.92 2415.46 1625.58 Q2415.46 1633.21 2412.77 1637.24 Q2410.1 1641.26 2405.01 1641.26 Q2399.93 1641.26 2397.23 1637.24 Q2394.56 1633.21 2394.56 1625.58 Q2394.56 1617.92 2397.23 1613.91 Q2399.93 1609.88 2405.01 1609.88 Z" fill="#000000" fill-rule="nonzero" fill-opacity="1" /><path clip-path="url(#clip350)" d="M2422.69 1610.43 L2438.76 1610.43 L2438.76 1613.87 L2426.44 1613.87 L2426.44 1621.28 Q2427.33 1620.98 2428.22 1620.84 Q2429.12 1620.68 2430.01 1620.68 Q2435.07 1620.68 2438.03 1623.45 Q2440.98 1626.23 2440.98 1630.97 Q2440.98 1635.85 2437.95 1638.56 Q2434.91 1641.26 2429.38 1641.26 Q2427.47 1641.26 2425.49 1640.93 Q2423.53 1640.61 2421.42 1639.96 L2421.42 1635.85 Q2423.24 1636.84 2425.19 1637.33 Q2427.13 1637.81 2429.3 1637.81 Q2432.8 1637.81 2434.85 1635.97 Q2436.89 1634.13 2436.89 1630.97 Q2436.89 1627.81 2434.85 1625.96 Q2432.8 1624.12 2429.3 1624.12 Q2427.66 1624.12 2426.02 1624.48 Q2424.4 1624.85 2422.69 1625.62 L2422.69 1610.43 Z" fill="#000000" fill-rule="nonzero" fill-opacity="1" /></svg>
