<?xml version="1.0" encoding="utf-8"?>
<svg xmlns="http://www.w3.org/2000/svg" xmlns:xlink="http://www.w3.org/1999/xlink" width="800" height="600" viewBox="0 0 3200 2400">
<defs>
  <clipPath id="clip110">
    <rect x="0" y="0" width="3200" height="2400"/>
  </clipPath>
</defs>
<path clip-path="url(#clip110)" d="
M0 2400 L3200 2400 L3200 0 L0 0  Z
  " fill="#ffffff" fill-rule="evenodd" fill-opacity="1"/>
<defs>
  <clipPath id="clip111">
    <rect x="640" y="0" width="2241" height="2241"/>
  </clipPath>
</defs>
<path clip-path="url(#clip110)" d="
M455.118 2352.76 L2744.88 2352.76 L2744.88 62.9921 L455.118 62.9921  Z
  " fill="#ffffff" fill-rule="evenodd" fill-opacity="1"/>
<defs>
  <clipPath id="clip112">
    <rect x="455" y="62" width="2291" height="2291"/>
  </clipPath>
</defs>
<path clip-path="url(#clip110)" d="M1221.82 103.433 L1221.82 78.112 Q1221.82 76.6916 1221.88 76.1975 Q1221.95 75.7034 1222.32 75.3329 Q1222.69 74.9623 1223.43 74.9623 Q1224.85 74.9623 1224.97 76.2593 Q1225.34 88.7962 1232.82 95.7132 Q1240.16 102.568 1252.76 102.568 Q1260.36 102.568 1265.05 97.1336 Q1269.75 91.6371 1269.75 84.4731 Q1269.75 77.618 1265.79 72.8008 Q1264.13 70.6393 1262.03 69.2806 Q1259.99 67.8601 1258.69 67.4278 Q1257.46 66.9955 1255.05 66.3779 Q1239.36 62.6107 1238.37 62.1784 Q1230.9 59.6463 1226.33 53.2851 Q1221.82 46.8623 1221.82 39.019 Q1221.82 28.8906 1228.92 21.7266 Q1236.09 14.5009 1246.46 14.5009 Q1251.65 14.5009 1255.97 16.1683 Q1260.36 17.7741 1262.15 19.2563 Q1263.94 20.7385 1266.72 23.3941 L1271.11 16.1683 Q1272.09 14.5009 1273.02 14.5009 Q1274.01 14.5009 1274.19 15.1185 Q1274.44 15.6743 1274.44 17.527 L1274.44 42.9715 Q1274.44 44.3919 1274.38 44.886 Q1274.32 45.3801 1273.88 45.6889 Q1273.51 45.9977 1272.77 45.9977 Q1271.54 45.9977 1271.23 44.5155 Q1267.71 18.0829 1246.59 18.0829 Q1239.36 18.0829 1234.61 22.9618 Q1229.91 27.7789 1229.91 34.6341 Q1229.91 40.1924 1233.37 44.7625 Q1236.83 49.2709 1242.7 50.6913 L1258.88 54.5821 Q1266.97 56.4966 1272.4 63.6606 Q1277.84 70.8245 1277.84 80.1501 Q1277.84 90.896 1270.8 98.6776 Q1263.82 106.459 1252.89 106.459 Q1245.04 106.459 1238.99 103.865 Q1232.94 101.271 1229.67 97.6277 Q1227.13 101.827 1225.47 104.174 L1225.1 104.792 Q1224.11 106.459 1223.18 106.459 Q1222.19 106.459 1222.01 105.842 Q1221.82 105.224 1221.82 103.433 Z" fill="#000000" fill-rule="evenodd" fill-opacity="1" /><path clip-path="url(#clip110)" d="M1289.08 103.68 L1289.08 99.7892 Q1295.81 99.7892 1297.35 98.9864 Q1298.9 98.1217 1298.9 94.0457 L1298.9 60.0168 Q1298.9 55.3232 1297.29 54.2115 Q1295.75 53.0999 1289.57 53.0999 L1289.57 49.1473 L1307.23 47.7886 L1307.23 94.1692 Q1307.23 97.9365 1308.59 98.8628 Q1309.95 99.7892 1316.13 99.7892 L1316.13 103.68 Q1303.22 103.309 1302.97 103.309 Q1301.24 103.309 1289.08 103.68 M1294.39 25.7409 Q1294.39 23.2088 1296.3 21.1708 Q1298.28 19.071 1301.06 19.071 Q1303.84 19.071 1305.81 20.9855 Q1307.79 22.8383 1307.79 25.8027 Q1307.79 28.7053 1305.81 30.6198 Q1303.84 32.4726 1301.06 32.4726 Q1298.16 32.4726 1296.24 30.4345 Q1294.39 28.3965 1294.39 25.7409 Z" fill="#000000" fill-rule="evenodd" fill-opacity="1" /><path clip-path="url(#clip110)" d="M1323.97 103.68 L1323.97 99.7892 Q1330.7 99.7892 1332.25 98.9864 Q1333.79 98.1217 1333.79 94.0457 L1333.79 60.1403 Q1333.79 55.4467 1332.12 54.2733 Q1330.52 53.0999 1323.97 53.0999 L1323.97 49.1473 L1341.76 47.7886 L1341.76 61.0667 Q1347.69 47.7886 1360.47 47.7886 Q1375.29 47.7886 1377.33 60.1403 Q1379.49 55.3232 1384 51.5559 Q1388.57 47.7886 1395.67 47.7886 Q1405.18 47.7886 1408.95 52.4823 Q1411.73 55.632 1412.29 59.1522 Q1412.84 62.6724 1412.84 71.8127 L1412.84 95.9602 Q1412.96 98.6158 1415 99.2334 Q1417.04 99.7892 1422.72 99.7892 L1422.72 103.68 Q1409.82 103.309 1408.58 103.309 Q1407.59 103.309 1394.25 103.68 L1394.25 99.7892 Q1400.98 99.7892 1402.53 98.9864 Q1404.13 98.1217 1404.13 94.0457 L1404.13 64.5869 Q1404.13 58.1641 1402.16 54.3968 Q1400.18 50.5678 1394.75 50.5678 Q1388.2 50.5678 1382.95 56.0643 Q1377.7 61.5608 1377.7 70.8245 L1377.7 94.0457 Q1377.7 98.1217 1379.24 98.9864 Q1380.85 99.7892 1387.58 99.7892 L1387.58 103.68 Q1374.67 103.309 1373.38 103.309 Q1372.39 103.309 1359.11 103.68 L1359.11 99.7892 Q1365.84 99.7892 1367.39 98.9864 Q1368.99 98.1217 1368.99 94.0457 L1368.99 64.5869 Q1368.99 58.1641 1367.02 54.3968 Q1365.04 50.5678 1359.61 50.5678 Q1353.06 50.5678 1347.81 56.0643 Q1342.56 61.5608 1342.56 70.8245 L1342.56 94.0457 Q1342.56 98.1217 1344.1 98.9864 Q1345.71 99.7892 1352.38 99.7892 L1352.38 103.68 Q1339.47 103.309 1338.24 103.309 Q1337.25 103.309 1323.97 103.68 Z" fill="#000000" fill-rule="evenodd" fill-opacity="1" /><path clip-path="url(#clip110)" d="M1428.71 124.307 Q1435.44 124.307 1436.99 123.443 Q1438.59 122.64 1438.59 118.626 L1438.59 59.3992 Q1438.59 55.1997 1436.99 54.1498 Q1435.44 53.0999 1428.71 53.0999 L1428.71 49.1473 L1446.93 47.7886 L1446.93 56.126 Q1454.53 47.7886 1464.66 47.7886 Q1475.4 47.7886 1483.25 56.126 Q1491.09 64.4634 1491.09 76.3828 Q1491.09 88.4257 1482.75 96.7631 Q1474.41 105.1 1462.87 105.1 Q1456.57 105.1 1452.3 101.889 Q1448.11 98.6158 1447.3 96.2072 L1447.3 97.3806 L1447.3 118.626 Q1447.3 122.702 1448.91 123.504 Q1450.51 124.307 1457.18 124.307 L1457.18 128.198 Q1443.91 127.828 1442.92 127.828 Q1441.68 127.828 1428.71 128.198 L1428.71 124.307 M1447.3 89.2903 Q1447.3 91.2048 1447.55 91.8841 Q1447.86 92.5635 1449.09 94.6015 Q1454.1 102.26 1462.25 102.26 Q1462.31 102.26 1462.37 102.26 Q1469.6 102.26 1475.09 94.9103 Q1480.59 87.4993 1480.59 76.3828 Q1480.59 65.7603 1475.59 58.3493 Q1470.59 50.9383 1463.67 50.9383 Q1458.73 50.9383 1454.4 53.5939 Q1450.08 56.2495 1447.3 61.0667 L1447.3 89.2903 Z" fill="#000000" fill-rule="evenodd" fill-opacity="1" /><path clip-path="url(#clip110)" d="M1499.55 103.68 L1499.55 99.7892 Q1506.28 99.7892 1507.83 98.9864 Q1509.37 98.1217 1509.37 94.0457 L1509.37 28.273 Q1509.37 23.5794 1507.7 22.4059 Q1506.1 21.2325 1499.55 21.2325 L1499.55 17.28 L1517.71 15.9213 L1517.71 94.0457 Q1517.71 98.1217 1519.31 98.9864 Q1520.92 99.7892 1527.59 99.7892 L1527.59 103.68 Q1526.04 103.68 1522.83 103.556 Q1519.62 103.433 1517.27 103.371 Q1514.93 103.309 1513.57 103.309 Q1512.09 103.309 1499.55 103.68 Z" fill="#000000" fill-rule="evenodd" fill-opacity="1" /><path clip-path="url(#clip110)" d="M1533.89 75.827 Q1533.89 63.9076 1541.55 55.4467 Q1549.2 46.9858 1560.2 46.9858 Q1571.31 46.9858 1577.06 54.2115 Q1582.86 61.4373 1582.86 71.8127 Q1582.86 73.7272 1582.37 74.0977 Q1581.87 74.4683 1579.71 74.4683 L1544.39 74.4683 Q1544.39 87.3758 1548.22 93.4281 Q1553.53 101.889 1562.48 101.889 Q1563.72 101.889 1565.2 101.642 Q1566.68 101.395 1569.71 100.345 Q1572.73 99.2334 1575.39 96.3308 Q1578.04 93.4281 1579.59 88.858 Q1579.96 87.067 1581.19 87.1287 Q1582.86 87.1287 1582.86 88.611 Q1582.86 89.7226 1581.63 92.2547 Q1580.45 94.725 1578.17 97.6894 Q1575.88 100.654 1571.44 102.877 Q1567.05 105.1 1561.74 105.1 Q1550.62 105.1 1542.23 96.7013 Q1533.89 88.2404 1533.89 75.827 M1544.51 71.8127 L1574.52 71.8127 Q1574.52 69.1571 1574.03 66.1927 Q1573.6 63.2282 1572.24 59.1522 Q1570.94 55.0144 1567.85 52.4205 Q1564.77 49.8267 1560.2 49.8267 Q1558.16 49.8267 1555.94 50.6913 Q1553.77 51.5559 1551.12 53.6557 Q1548.46 55.7555 1546.61 60.5109 Q1544.76 65.2663 1544.51 71.8127 Z" fill="#000000" fill-rule="evenodd" fill-opacity="1" /><path clip-path="url(#clip110)" d="M1648.63 93.0576 Q1635.67 79.656 1635.67 60.4491 Q1635.67 41.1805 1648.76 27.8407 Q1661.85 14.5009 1679.64 14.5009 Q1684.08 14.5009 1687.85 15.5508 Q1691.68 16.5389 1694.71 18.5769 Q1697.73 20.5532 1699.28 21.9119 Q1700.88 23.2088 1703.04 25.3704 L1709.41 16.0448 Q1710.39 14.5009 1711.38 14.5009 Q1712.43 14.5009 1712.62 15.1185 Q1712.8 15.6743 1712.8 17.527 L1712.8 47.5416 Q1712.8 49.5796 1712.55 50.0737 Q1712.31 50.5678 1710.76 50.5678 Q1709.53 50.5678 1709.28 50.1972 Q1709.03 49.8267 1708.73 48.4062 Q1706.81 34.7576 1699.15 26.6055 Q1691.56 18.4534 1681.18 18.4534 Q1678.16 18.4534 1674.76 19.1328 Q1671.42 19.8121 1666.48 22.4059 Q1661.6 24.9998 1657.84 29.2611 Q1654.13 33.4607 1651.41 41.6128 Q1648.7 49.7032 1648.7 60.4491 Q1648.7 71.0716 1651.41 79.2237 Q1654.13 87.3758 1657.9 91.6371 Q1661.73 95.8367 1666.67 98.4923 Q1671.67 101.148 1675.19 101.889 Q1678.77 102.568 1681.92 102.568 Q1684.08 102.568 1686.62 102.136 Q1689.15 101.642 1692.92 100.283 Q1696.74 98.8628 1699.15 95.5279 Q1701.56 92.1929 1701.56 87.2523 L1701.56 79.1619 Q1701.56 75.3947 1699.71 74.2212 Q1697.86 73.0478 1689.77 73.0478 L1685.75 73.0478 L1685.75 69.1571 Q1690.32 69.5276 1706.07 69.5276 Q1707.49 69.5276 1721.51 69.1571 L1721.51 73.0478 Q1715.46 73.0478 1714.1 73.9742 Q1712.8 74.8388 1712.8 78.6061 L1712.8 100.654 Q1712.8 103.556 1711.69 103.556 Q1710.7 103.556 1707.74 100.716 Q1704.83 97.8747 1703.54 95.7132 Q1700.51 101.024 1693.9 103.742 Q1687.36 106.459 1679.88 106.459 Q1661.67 106.459 1648.63 93.0576 Z" fill="#000000" fill-rule="evenodd" fill-opacity="1" /><path clip-path="url(#clip110)" d="M1731.21 103.68 L1731.21 99.7892 Q1737.94 99.7892 1739.48 98.9864 Q1741.09 98.1217 1741.09 94.0457 L1741.09 60.1403 Q1741.09 55.4467 1739.42 54.2733 Q1737.81 53.0999 1731.21 53.0999 L1731.21 49.1473 L1748.81 47.7886 L1748.81 61.6843 Q1750.6 56.2495 1754.37 52.05 Q1758.19 47.7886 1764.37 47.7886 Q1768.45 47.7886 1771.04 50.0737 Q1773.7 52.3588 1773.7 55.5084 Q1773.7 58.2876 1771.97 59.708 Q1770.3 61.0667 1768.26 61.0667 Q1765.98 61.0667 1764.37 59.6463 Q1762.83 58.1641 1762.83 55.632 Q1762.83 54.088 1763.51 52.9146 Q1764.25 51.6794 1764.8 51.2471 Q1765.36 50.8148 1765.73 50.6913 Q1765.48 50.5678 1764.37 50.5678 Q1757.39 50.5678 1753.38 57.5465 Q1749.42 64.4634 1749.42 74.3448 L1749.42 93.7987 Q1749.42 97.4424 1750.91 98.6158 Q1752.45 99.7892 1759.06 99.7892 L1761.71 99.7892 L1761.71 103.68 Q1756.65 103.309 1745.66 103.309 Q1744.11 103.309 1741.7 103.371 Q1739.3 103.433 1736.15 103.556 Q1733 103.68 1731.21 103.68 Z" fill="#000000" fill-rule="evenodd" fill-opacity="1" /><path clip-path="url(#clip110)" d="M1782.4 91.6371 Q1782.4 80.8912 1795.06 75.2094 Q1802.66 71.5656 1818.35 70.6393 L1818.35 66.0074 Q1818.35 58.1641 1814.21 54.0262 Q1810.13 49.8267 1804.95 49.8267 Q1795.68 49.8267 1791.23 55.632 Q1795 55.7555 1796.36 57.67 Q1797.72 59.5227 1797.72 61.4373 Q1797.72 63.9693 1796.11 65.6368 Q1794.57 67.2425 1791.91 67.2425 Q1789.38 67.2425 1787.71 65.6986 Q1786.05 64.0929 1786.05 61.3137 Q1786.05 55.1379 1791.61 51.0618 Q1797.23 46.9858 1805.19 46.9858 Q1815.57 46.9858 1822.48 53.9645 Q1824.65 56.126 1825.7 58.9052 Q1826.81 61.6843 1826.93 63.537 Q1827.05 65.328 1827.05 68.91 L1827.05 94.1692 Q1827.05 94.9103 1827.3 96.1455 Q1827.55 97.3806 1828.66 98.9864 Q1829.83 100.53 1831.75 100.53 Q1836.32 100.53 1836.26 92.44 L1836.26 85.3378 L1839.47 85.3378 L1839.47 92.44 Q1839.47 99.1716 1835.89 101.827 Q1832.37 104.421 1829.09 104.421 Q1824.89 104.421 1822.24 101.333 Q1819.58 98.2453 1819.21 94.0457 Q1817.3 98.8628 1812.91 102.013 Q1808.59 105.1 1802.66 105.1 Q1798.09 105.1 1793.77 103.927 Q1789.51 102.815 1785.92 99.6657 Q1782.4 96.4543 1782.4 91.6371 M1792.16 91.5136 Q1792.16 96.2072 1795.5 99.2334 Q1798.83 102.26 1803.52 102.26 Q1808.84 102.26 1813.59 98.1835 Q1818.35 94.0457 1818.35 85.9553 L1818.35 73.2949 Q1804.33 73.7889 1798.21 79.4089 Q1792.16 84.9672 1792.16 91.5136 Z" fill="#000000" fill-rule="evenodd" fill-opacity="1" /><path clip-path="url(#clip110)" d="M1843.85 124.307 Q1850.58 124.307 1852.13 123.443 Q1853.73 122.64 1853.73 118.626 L1853.73 59.3992 Q1853.73 55.1997 1852.13 54.1498 Q1850.58 53.0999 1843.85 53.0999 L1843.85 49.1473 L1862.07 47.7886 L1862.07 56.126 Q1869.67 47.7886 1879.8 47.7886 Q1890.54 47.7886 1898.39 56.126 Q1906.23 64.4634 1906.23 76.3828 Q1906.23 88.4257 1897.89 96.7631 Q1889.55 105.1 1878.01 105.1 Q1871.71 105.1 1867.44 101.889 Q1863.25 98.6158 1862.44 96.2072 L1862.44 97.3806 L1862.44 118.626 Q1862.44 122.702 1864.05 123.504 Q1865.65 124.307 1872.32 124.307 L1872.32 128.198 Q1859.05 127.828 1858.06 127.828 Q1856.82 127.828 1843.85 128.198 L1843.85 124.307 M1862.44 89.2903 Q1862.44 91.2048 1862.69 91.8841 Q1863 92.5635 1864.23 94.6015 Q1869.24 102.26 1877.39 102.26 Q1877.45 102.26 1877.51 102.26 Q1884.74 102.26 1890.23 94.9103 Q1895.73 87.4993 1895.73 76.3828 Q1895.73 65.7603 1890.73 58.3493 Q1885.73 50.9383 1878.81 50.9383 Q1873.87 50.9383 1869.54 53.5939 Q1865.22 56.2495 1862.44 61.0667 L1862.44 89.2903 Z" fill="#000000" fill-rule="evenodd" fill-opacity="1" /><path clip-path="url(#clip110)" d="M1914.57 103.68 L1914.57 99.7892 Q1921.3 99.7892 1922.84 98.9864 Q1924.39 98.1217 1924.39 94.0457 L1924.39 28.273 Q1924.39 23.5794 1922.72 22.4059 Q1921.11 21.2325 1914.57 21.2325 L1914.57 17.28 L1932.72 15.9213 L1932.72 59.8933 L1932.85 59.8933 Q1934.88 55.3232 1939.46 51.5559 Q1944.03 47.7886 1951.07 47.7886 Q1960.58 47.7886 1964.34 52.4823 Q1967.12 55.632 1967.68 59.1522 Q1968.3 62.6724 1968.3 71.8127 L1968.3 95.9602 Q1968.42 98.6158 1970.46 99.2334 Q1972.5 99.7892 1978.18 99.7892 L1978.18 103.68 Q1965.27 103.309 1963.97 103.309 Q1962.98 103.309 1949.71 103.68 L1949.71 99.7892 Q1956.44 99.7892 1957.98 98.9864 Q1959.59 98.1217 1959.59 94.0457 L1959.59 64.5869 Q1959.59 58.1641 1957.61 54.3968 Q1955.64 50.5678 1950.2 50.5678 Q1943.65 50.5678 1938.41 56.0643 Q1933.16 61.5608 1933.16 70.8245 L1933.16 94.0457 Q1933.16 98.1217 1934.7 98.9864 Q1936.31 99.7892 1942.98 99.7892 L1942.98 103.68 Q1930.07 103.309 1928.83 103.309 Q1927.84 103.309 1914.57 103.68 Z" fill="#000000" fill-rule="evenodd" fill-opacity="1" /><polyline clip-path="url(#clip112)" style="stroke:#000000; stroke-linecap:butt; stroke-linejoin:round; stroke-width:4; stroke-opacity:1; fill:none" points="
  2417.77,1701.43 2410.57,1675.08 2403.39,1648.73 2396.24,1622.38 2389.14,1596.02 2382.11,1569.65 2375.16,1543.28 2368.31,1516.91 2361.58,1490.52 2354.98,1464.12 
  2348.53,1437.71 2342.25,1411.28 2336.15,1384.84 2330.24,1358.38 2324.56,1331.91 2319.11,1305.42 2313.9,1278.9 2308.96,1252.36 2304.31,1225.8 2299.95,1199.22 
  2295.91,1172.61 2292.21,1145.97 2288.85,1119.3 2285.86,1092.61 2283.25,1065.88 2281.04,1039.12 2279.22,1012.32 2277.79,985.495 2276.73,958.638 2276.01,931.753 
  2275.63,904.84 2275.56,877.901 2275.79,850.937 2276.31,823.95 2277.09,796.941 2278.12,769.911 2279.38,742.862 2280.86,715.796 2282.54,688.712 2284.4,661.614 
  2286.42,634.502 2288.6,607.377 2290.91,580.242 2293.34,553.097 2295.86,525.943 2298.47,498.783 2301.15,471.618 2303.87,444.448 2306.63,417.275 2309.41,390.101 
  
  "/>
<polyline clip-path="url(#clip112)" style="stroke:#000000; stroke-linecap:butt; stroke-linejoin:round; stroke-width:4; stroke-opacity:1; fill:none" points="
  2417.77,1701.43 2398.5,1695.64 2379.23,1689.84 2359.98,1684.01 2340.76,1678.13 2321.57,1672.2 2302.43,1666.2 2283.33,1660.11 2264.3,1653.92 2245.33,1647.62 
  2226.45,1641.19 2207.65,1634.62 2188.94,1627.89 2170.34,1620.98 2151.85,1613.9 2133.48,1606.61 2115.24,1599.11 2097.13,1591.37 2079.18,1583.4 2061.38,1575.17 
  2043.74,1566.67 2026.27,1557.88 2008.99,1548.79 1991.9,1539.39 1975,1529.66 1958.31,1519.59 1941.83,1509.17 1925.54,1498.43 1909.45,1487.37 1893.54,1476.02 
  1877.79,1464.37 1862.22,1452.46 1846.79,1440.29 1831.52,1427.87 1816.38,1415.23 1801.37,1402.37 1786.48,1389.32 1771.71,1376.07 1757.04,1362.66 1742.46,1349.09 
  1727.97,1335.37 1713.55,1321.53 1699.21,1307.57 1684.92,1293.52 1670.69,1279.38 1656.5,1265.16 1642.34,1250.89 1628.22,1236.58 1614.1,1222.23 1600,1207.88 
  
  "/>
<polyline clip-path="url(#clip112)" style="stroke:#000000; stroke-linecap:butt; stroke-linejoin:round; stroke-width:4; stroke-opacity:1; fill:none" points="
  2309.41,390.101 2298.71,410.07 2288,430.027 2277.26,449.963 2266.49,469.865 2255.67,489.724 2244.78,509.529 2233.82,529.267 2222.77,548.93 2211.62,568.505 
  2200.35,587.981 2188.96,607.348 2177.43,626.595 2165.75,645.711 2153.91,664.684 2141.88,683.505 2129.67,702.161 2117.26,720.643 2104.64,738.939 2091.78,757.038 
  2078.69,774.929 2065.35,792.602 2051.74,810.045 2037.85,827.247 2023.68,844.199 2009.2,860.888 1994.42,877.315 1979.35,893.491 1964,909.427 1948.39,925.133 
  1932.53,940.62 1916.43,955.9 1900.1,970.982 1883.55,985.879 1866.81,1000.6 1849.87,1015.16 1832.76,1029.56 1815.49,1043.83 1798.06,1057.96 1780.5,1071.97 
  1762.81,1085.87 1745,1099.68 1727.1,1113.39 1709.1,1127.03 1691.04,1140.61 1672.9,1154.13 1654.72,1167.6 1636.5,1181.05 1618.26,1194.47 1600,1207.88 
  
  "/>
<polyline clip-path="url(#clip112)" style="stroke:#000000; stroke-linecap:butt; stroke-linejoin:round; stroke-width:4; stroke-opacity:1; fill:none" points="
  1600,1207.88 1589.3,1227.85 1578.59,1247.8 1567.86,1267.74 1557.08,1287.64 1546.26,1307.5 1535.37,1327.3 1524.41,1347.04 1513.36,1366.7 1502.21,1386.28 
  1490.94,1405.76 1479.55,1425.12 1468.02,1444.37 1456.34,1463.49 1444.5,1482.46 1432.47,1501.28 1420.26,1519.94 1407.85,1538.42 1395.23,1556.71 1382.37,1574.81 
  1369.28,1592.7 1355.94,1610.38 1342.33,1627.82 1328.44,1645.02 1314.27,1661.97 1299.79,1678.66 1285.01,1695.09 1269.94,1711.26 1254.59,1727.2 1238.98,1742.91 
  1223.12,1758.39 1207.02,1773.67 1190.69,1788.75 1174.14,1803.65 1157.4,1818.37 1140.46,1832.93 1123.35,1847.34 1106.08,1861.6 1088.65,1875.73 1071.09,1889.74 
  1053.4,1903.64 1035.59,1917.45 1017.69,1931.16 999.693,1944.8 981.625,1958.38 963.493,1971.9 945.311,1985.37 927.091,1998.82 908.846,2012.24 890.588,2025.65 
  
  "/>
<polyline clip-path="url(#clip112)" style="stroke:#000000; stroke-linecap:butt; stroke-linejoin:round; stroke-width:4; stroke-opacity:1; fill:none" points="
  1600,1207.88 1580.72,1202.09 1561.46,1196.29 1542.21,1190.45 1522.99,1184.58 1503.8,1178.65 1484.65,1172.65 1465.56,1166.56 1446.52,1160.37 1427.56,1154.07 
  1408.67,1147.64 1389.87,1141.06 1371.17,1134.33 1352.56,1127.43 1334.07,1120.34 1315.7,1113.05 1297.46,1105.55 1279.36,1097.82 1261.4,1089.84 1243.6,1081.61 
  1225.97,1073.11 1208.5,1064.32 1191.22,1055.24 1174.12,1045.83 1157.23,1036.1 1140.54,1026.03 1124.06,1015.62 1107.77,1004.87 1091.68,993.815 1075.76,982.458 
  1060.02,970.814 1044.44,958.9 1029.02,946.728 1013.75,934.314 998.608,921.671 983.599,908.814 968.711,895.757 953.935,882.514 939.263,869.1 924.685,855.528 
  910.194,841.814 895.78,827.972 881.435,814.015 867.15,799.958 852.917,785.815 838.728,771.601 824.572,757.33 810.443,743.016 796.331,728.673 782.227,714.316 
  
  "/>
<polyline clip-path="url(#clip112)" style="stroke:#000000; stroke-linecap:butt; stroke-linejoin:round; stroke-width:4; stroke-opacity:1; fill:none" points="
  890.588,2025.65 883.39,1999.3 876.208,1972.95 869.059,1946.59 861.961,1920.23 854.928,1893.87 847.979,1867.5 841.13,1841.12 834.397,1814.73 827.797,1788.33 
  821.347,1761.92 815.063,1735.5 808.962,1709.06 803.06,1682.6 797.375,1656.13 791.922,1629.63 786.719,1603.12 781.781,1576.58 777.126,1550.02 772.771,1523.44 
  768.731,1496.82 765.024,1470.19 761.666,1443.52 758.674,1416.82 756.065,1390.09 753.853,1363.33 752.04,1336.54 750.609,1309.71 749.544,1282.85 748.828,1255.97 
  748.445,1229.06 748.378,1202.12 748.609,1175.15 749.124,1148.17 749.904,1121.16 750.934,1094.13 752.197,1067.08 753.676,1040.01 755.354,1012.93 757.215,985.829 
  759.242,958.717 761.419,931.593 763.729,904.457 766.156,877.312 768.682,850.159 771.291,822.999 773.967,795.833 776.693,768.663 779.452,741.49 782.227,714.316 
  
  "/>
<path clip-path="url(#clip112)" d="
M2561.29 1701.43 L2489.53 1577.14 L2346.01 1577.14 L2274.25 1701.43 L2346.01 1825.72 L2489.53 1825.72 L2561.29 1701.43 L2561.29 1701.43  Z
  " fill="#f5fffa" fill-rule="evenodd" fill-opacity="1"/>
<polyline clip-path="url(#clip112)" style="stroke:#000000; stroke-linecap:butt; stroke-linejoin:round; stroke-width:4; stroke-opacity:1; fill:none" points="
  2561.29,1701.43 2489.53,1577.14 2346.01,1577.14 2274.25,1701.43 2346.01,1825.72 2489.53,1825.72 2561.29,1701.43 
  "/>
<path clip-path="url(#clip112)" d="
M2452.93 390.101 L2381.17 265.808 L2237.65 265.808 L2165.89 390.101 L2237.65 514.395 L2381.17 514.395 L2452.93 390.101 L2452.93 390.101  Z
  " fill="#f5fffa" fill-rule="evenodd" fill-opacity="1"/>
<polyline clip-path="url(#clip112)" style="stroke:#000000; stroke-linecap:butt; stroke-linejoin:round; stroke-width:4; stroke-opacity:1; fill:none" points="
  2452.93,390.101 2381.17,265.808 2237.65,265.808 2165.89,390.101 2237.65,514.395 2381.17,514.395 2452.93,390.101 
  "/>
<path clip-path="url(#clip112)" d="
M1743.52 1207.88 L1671.76 1083.58 L1528.24 1083.58 L1456.48 1207.88 L1528.24 1332.17 L1671.76 1332.17 L1743.52 1207.88 L1743.52 1207.88  Z
  " fill="#f5fffa" fill-rule="evenodd" fill-opacity="1"/>
<polyline clip-path="url(#clip112)" style="stroke:#000000; stroke-linecap:butt; stroke-linejoin:round; stroke-width:4; stroke-opacity:1; fill:none" points="
  1743.52,1207.88 1671.76,1083.58 1528.24,1083.58 1456.48,1207.88 1528.24,1332.17 1671.76,1332.17 1743.52,1207.88 
  "/>
<path clip-path="url(#clip112)" d="
M1034.11 2025.65 L962.349 1901.35 L818.827 1901.35 L747.067 2025.65 L818.827 2149.94 L962.349 2149.94 L1034.11 2025.65 L1034.11 2025.65  Z
  " fill="#f5fffa" fill-rule="evenodd" fill-opacity="1"/>
<polyline clip-path="url(#clip112)" style="stroke:#000000; stroke-linecap:butt; stroke-linejoin:round; stroke-width:4; stroke-opacity:1; fill:none" points="
  1034.11,2025.65 962.349,1901.35 818.827,1901.35 747.067,2025.65 818.827,2149.94 962.349,2149.94 1034.11,2025.65 
  "/>
<path clip-path="url(#clip112)" d="
M925.749 714.316 L853.988 590.023 L710.466 590.023 L638.706 714.316 L710.466 838.61 L853.988 838.61 L925.749 714.316 L925.749 714.316  Z
  " fill="#f5fffa" fill-rule="evenodd" fill-opacity="1"/>
<polyline clip-path="url(#clip112)" style="stroke:#000000; stroke-linecap:butt; stroke-linejoin:round; stroke-width:4; stroke-opacity:1; fill:none" points="
  925.749,714.316 853.988,590.023 710.466,590.023 638.706,714.316 710.466,838.61 853.988,838.61 925.749,714.316 
  "/>
<circle clip-path="url(#clip112)" style="fill:#f5fffa; stroke:none; fill-opacity:1" cx="2417.77" cy="1701.43" r="2"/>
<circle clip-path="url(#clip112)" style="fill:#f5fffa; stroke:none; fill-opacity:1" cx="2309.41" cy="390.101" r="2"/>
<circle clip-path="url(#clip112)" style="fill:#f5fffa; stroke:none; fill-opacity:1" cx="1600" cy="1207.88" r="2"/>
<circle clip-path="url(#clip112)" style="fill:#f5fffa; stroke:none; fill-opacity:1" cx="890.588" cy="2025.65" r="2"/>
<circle clip-path="url(#clip112)" style="fill:#f5fffa; stroke:none; fill-opacity:1" cx="782.227" cy="714.316" r="2"/>
<path clip-path="url(#clip110)" d="M2405.11 1689 Q2401.95 1689 2400.35 1692.12 Q2398.77 1695.22 2398.77 1701.46 Q2398.77 1707.68 2400.35 1710.8 Q2401.95 1713.9 2405.11 1713.9 Q2408.29 1713.9 2409.87 1710.8 Q2411.47 1707.68 2411.47 1701.46 Q2411.47 1695.22 2409.87 1692.12 Q2408.29 1689 2405.11 1689 M2405.11 1685.76 Q2410.2 1685.76 2412.87 1689.79 Q2415.57 1693.8 2415.57 1701.46 Q2415.57 1709.1 2412.87 1713.13 Q2410.2 1717.14 2405.11 1717.14 Q2400.03 1717.14 2397.34 1713.13 Q2394.66 1709.1 2394.66 1701.46 Q2394.66 1693.8 2397.34 1689.79 Q2400.03 1685.76 2405.11 1685.76 Z" fill="#000000" fill-rule="evenodd" fill-opacity="1" /><path clip-path="url(#clip110)" d="M2423.46 1713.11 L2430.15 1713.11 L2430.15 1690.04 L2422.88 1691.5 L2422.88 1687.77 L2430.11 1686.31 L2434.2 1686.31 L2434.2 1713.11 L2440.88 1713.11 L2440.88 1716.55 L2423.46 1716.55 L2423.46 1713.11 Z" fill="#000000" fill-rule="evenodd" fill-opacity="1" /><path clip-path="url(#clip110)" d="M2296.91 377.675 Q2293.75 377.675 2292.15 380.794 Q2290.57 383.893 2290.57 390.132 Q2290.57 396.35 2292.15 399.469 Q2293.75 402.568 2296.91 402.568 Q2300.09 402.568 2301.67 399.469 Q2303.27 396.35 2303.27 390.132 Q2303.27 383.893 2301.67 380.794 Q2300.09 377.675 2296.91 377.675 M2296.91 374.434 Q2301.99 374.434 2304.67 378.465 Q2307.36 382.475 2307.36 390.132 Q2307.36 397.768 2304.67 401.798 Q2301.99 405.809 2296.91 405.809 Q2291.83 405.809 2289.13 401.798 Q2286.46 397.768 2286.46 390.132 Q2286.46 382.475 2289.13 378.465 Q2291.83 374.434 2296.91 374.434 Z" fill="#000000" fill-rule="evenodd" fill-opacity="1" /><path clip-path="url(#clip110)" d="M2318.08 401.778 L2332.36 401.778 L2332.36 405.221 L2313.16 405.221 L2313.16 401.778 Q2315.48 399.368 2319.49 395.317 Q2323.53 391.246 2324.56 390.071 Q2326.52 387.863 2327.29 386.344 Q2328.08 384.805 2328.08 383.326 Q2328.08 380.916 2326.38 379.397 Q2324.7 377.878 2321.99 377.878 Q2320.06 377.878 2317.91 378.546 Q2315.79 379.214 2313.36 380.571 L2313.36 376.44 Q2315.83 375.447 2317.98 374.941 Q2320.12 374.434 2321.91 374.434 Q2326.6 374.434 2329.4 376.784 Q2332.19 379.133 2332.19 383.063 Q2332.19 384.926 2331.49 386.607 Q2330.8 388.268 2328.95 390.537 Q2328.45 391.124 2325.73 393.939 Q2323.02 396.735 2318.08 401.778 Z" fill="#000000" fill-rule="evenodd" fill-opacity="1" /><path clip-path="url(#clip110)" d="M1587.09 1195.45 Q1583.93 1195.45 1582.33 1198.57 Q1580.75 1201.67 1580.75 1207.91 Q1580.75 1214.13 1582.33 1217.24 Q1583.93 1220.34 1587.09 1220.34 Q1590.27 1220.34 1591.85 1217.24 Q1593.45 1214.13 1593.45 1207.91 Q1593.45 1201.67 1591.85 1198.57 Q1590.27 1195.45 1587.09 1195.45 M1587.09 1192.21 Q1592.17 1192.21 1594.84 1196.24 Q1597.54 1200.25 1597.54 1207.91 Q1597.54 1215.54 1594.84 1219.57 Q1592.17 1223.58 1587.09 1223.58 Q1582 1223.58 1579.31 1219.57 Q1576.64 1215.54 1576.64 1207.91 Q1576.64 1200.25 1579.31 1196.24 Q1582 1192.21 1587.09 1192.21 Z" fill="#000000" fill-rule="evenodd" fill-opacity="1" /><path clip-path="url(#clip110)" d="M1617.12 1206.69 Q1620.06 1207.32 1621.7 1209.31 Q1623.36 1211.29 1623.36 1214.21 Q1623.36 1218.68 1620.28 1221.13 Q1617.21 1223.58 1611.53 1223.58 Q1609.63 1223.58 1607.6 1223.2 Q1605.6 1222.84 1603.45 1222.09 L1603.45 1218.14 Q1605.15 1219.13 1607.18 1219.63 Q1609.21 1220.14 1611.41 1220.14 Q1615.26 1220.14 1617.27 1218.62 Q1619.29 1217.1 1619.29 1214.21 Q1619.29 1211.53 1617.41 1210.03 Q1615.54 1208.52 1612.2 1208.52 L1608.68 1208.52 L1608.68 1205.15 L1612.36 1205.15 Q1615.38 1205.15 1616.98 1203.96 Q1618.58 1202.74 1618.58 1200.47 Q1618.58 1198.14 1616.92 1196.91 Q1615.28 1195.65 1612.2 1195.65 Q1610.52 1195.65 1608.6 1196.02 Q1606.67 1196.38 1604.36 1197.15 L1604.36 1193.51 Q1606.69 1192.86 1608.72 1192.53 Q1610.76 1192.21 1612.57 1192.21 Q1617.23 1192.21 1619.94 1194.34 Q1622.65 1196.44 1622.65 1200.05 Q1622.65 1202.56 1621.22 1204.3 Q1619.78 1206.02 1617.12 1206.69 Z" fill="#000000" fill-rule="evenodd" fill-opacity="1" /><path clip-path="url(#clip110)" d="M877.18 2013.22 Q874.02 2013.22 872.42 2016.34 Q870.84 2019.44 870.84 2025.68 Q870.84 2031.9 872.42 2035.01 Q874.02 2038.11 877.18 2038.11 Q880.36 2038.11 881.94 2035.01 Q883.54 2031.9 883.54 2025.68 Q883.54 2019.44 881.94 2016.34 Q880.36 2013.22 877.18 2013.22 M877.18 2009.98 Q882.264 2009.98 884.937 2014.01 Q887.631 2018.02 887.631 2025.68 Q887.631 2033.31 884.937 2037.34 Q882.264 2041.35 877.18 2041.35 Q872.096 2041.35 869.402 2037.34 Q866.728 2033.31 866.728 2025.68 Q866.728 2018.02 869.402 2014.01 Q872.096 2009.98 877.18 2009.98 Z" fill="#000000" fill-rule="evenodd" fill-opacity="1" /><path clip-path="url(#clip110)" d="M906.063 2014.09 L895.733 2030.23 L906.063 2030.23 L906.063 2014.09 M904.989 2010.53 L910.134 2010.53 L910.134 2030.23 L914.448 2030.23 L914.448 2033.64 L910.134 2033.64 L910.134 2040.77 L906.063 2040.77 L906.063 2033.64 L892.411 2033.64 L892.411 2029.69 L904.989 2010.53 Z" fill="#000000" fill-rule="evenodd" fill-opacity="1" /><path clip-path="url(#clip110)" d="M769.467 701.89 Q766.307 701.89 764.707 705.01 Q763.127 708.108 763.127 714.347 Q763.127 720.565 764.707 723.684 Q766.307 726.783 769.467 726.783 Q772.647 726.783 774.227 723.684 Q775.827 720.565 775.827 714.347 Q775.827 708.108 774.227 705.01 Q772.647 701.89 769.467 701.89 M769.467 698.65 Q774.551 698.65 777.224 702.68 Q779.918 706.691 779.918 714.347 Q779.918 721.983 777.224 726.013 Q774.551 730.024 769.467 730.024 Q764.383 730.024 761.689 726.013 Q759.016 721.983 759.016 714.347 Q759.016 706.691 761.689 702.68 Q764.383 698.65 769.467 698.65 Z" fill="#000000" fill-rule="evenodd" fill-opacity="1" /><path clip-path="url(#clip110)" d="M787.149 699.196 L803.211 699.196 L803.211 702.64 L790.896 702.64 L790.896 710.053 Q791.787 709.749 792.679 709.607 Q793.57 709.445 794.461 709.445 Q799.525 709.445 802.482 712.22 Q805.439 714.995 805.439 719.735 Q805.439 724.616 802.401 727.33 Q799.363 730.024 793.833 730.024 Q791.929 730.024 789.944 729.7 Q787.98 729.376 785.873 728.728 L785.873 724.616 Q787.696 725.608 789.64 726.094 Q791.585 726.581 793.752 726.581 Q797.256 726.581 799.302 724.737 Q801.347 722.894 801.347 719.735 Q801.347 716.575 799.302 714.732 Q797.256 712.889 793.752 712.889 Q792.111 712.889 790.471 713.253 Q788.85 713.618 787.149 714.387 L787.149 699.196 Z" fill="#000000" fill-rule="evenodd" fill-opacity="1" /></svg>
