<?xml version="1.0" encoding="utf-8"?>
<svg xmlns="http://www.w3.org/2000/svg" xmlns:xlink="http://www.w3.org/1999/xlink" width="800" height="600" viewBox="0 0 3200 2400">
<defs>
  <clipPath id="clip180">
    <rect x="0" y="0" width="3200" height="2400"/>
  </clipPath>
</defs>
<path clip-path="url(#clip180)" d="
M0 2400 L3200 2400 L3200 0 L0 0  Z
  " fill="#ffffff" fill-rule="evenodd" fill-opacity="1"/>
<defs>
  <clipPath id="clip181">
    <rect x="640" y="0" width="2241" height="2241"/>
  </clipPath>
</defs>
<path clip-path="url(#clip180)" d="
M455.118 2352.76 L2744.88 2352.76 L2744.88 62.9921 L455.118 62.9921  Z
  " fill="#ffffff" fill-rule="evenodd" fill-opacity="1"/>
<defs>
  <clipPath id="clip182">
    <rect x="455" y="62" width="2291" height="2291"/>
  </clipPath>
</defs>
<path clip-path="url(#clip180)" d="M1221.82 103.433 L1221.82 78.112 Q1221.82 76.6916 1221.88 76.1975 Q1221.95 75.7034 1222.32 75.3329 Q1222.69 74.9623 1223.43 74.9623 Q1224.85 74.9623 1224.97 76.2593 Q1225.34 88.7962 1232.82 95.7132 Q1240.16 102.568 1252.76 102.568 Q1260.36 102.568 1265.05 97.1336 Q1269.75 91.6371 1269.75 84.4731 Q1269.75 77.618 1265.79 72.8008 Q1264.13 70.6393 1262.03 69.2806 Q1259.99 67.8601 1258.69 67.4278 Q1257.46 66.9955 1255.05 66.3779 Q1239.36 62.6107 1238.37 62.1784 Q1230.9 59.6463 1226.33 53.2851 Q1221.82 46.8623 1221.82 39.019 Q1221.82 28.8906 1228.92 21.7266 Q1236.09 14.5009 1246.46 14.5009 Q1251.65 14.5009 1255.97 16.1683 Q1260.36 17.7741 1262.15 19.2563 Q1263.94 20.7385 1266.72 23.3941 L1271.11 16.1683 Q1272.09 14.5009 1273.02 14.5009 Q1274.01 14.5009 1274.19 15.1185 Q1274.44 15.6743 1274.44 17.527 L1274.44 42.9715 Q1274.44 44.3919 1274.38 44.886 Q1274.32 45.3801 1273.88 45.6889 Q1273.51 45.9977 1272.77 45.9977 Q1271.54 45.9977 1271.23 44.5155 Q1267.71 18.0829 1246.59 18.0829 Q1239.36 18.0829 1234.61 22.9618 Q1229.91 27.7789 1229.91 34.6341 Q1229.91 40.1924 1233.37 44.7625 Q1236.83 49.2709 1242.7 50.6913 L1258.88 54.5821 Q1266.97 56.4966 1272.4 63.6606 Q1277.84 70.8245 1277.84 80.1501 Q1277.84 90.896 1270.8 98.6776 Q1263.82 106.459 1252.89 106.459 Q1245.04 106.459 1238.99 103.865 Q1232.94 101.271 1229.67 97.6277 Q1227.13 101.827 1225.47 104.174 L1225.1 104.792 Q1224.11 106.459 1223.18 106.459 Q1222.19 106.459 1222.01 105.842 Q1221.82 105.224 1221.82 103.433 Z" fill="#000000" fill-rule="evenodd" fill-opacity="1" /><path clip-path="url(#clip180)" d="M1289.08 103.68 L1289.08 99.7892 Q1295.81 99.7892 1297.35 98.9864 Q1298.9 98.1217 1298.9 94.0457 L1298.9 60.0168 Q1298.9 55.3232 1297.29 54.2115 Q1295.75 53.0999 1289.57 53.0999 L1289.57 49.1473 L1307.23 47.7886 L1307.23 94.1692 Q1307.23 97.9365 1308.59 98.8628 Q1309.95 99.7892 1316.13 99.7892 L1316.13 103.68 Q1303.22 103.309 1302.97 103.309 Q1301.24 103.309 1289.08 103.68 M1294.39 25.7409 Q1294.39 23.2088 1296.3 21.1708 Q1298.28 19.071 1301.06 19.071 Q1303.84 19.071 1305.81 20.9855 Q1307.79 22.8383 1307.79 25.8027 Q1307.79 28.7053 1305.81 30.6198 Q1303.84 32.4726 1301.06 32.4726 Q1298.16 32.4726 1296.24 30.4345 Q1294.39 28.3965 1294.39 25.7409 Z" fill="#000000" fill-rule="evenodd" fill-opacity="1" /><path clip-path="url(#clip180)" d="M1323.97 103.68 L1323.97 99.7892 Q1330.7 99.7892 1332.25 98.9864 Q1333.79 98.1217 1333.79 94.0457 L1333.79 60.1403 Q1333.79 55.4467 1332.12 54.2733 Q1330.52 53.0999 1323.97 53.0999 L1323.97 49.1473 L1341.76 47.7886 L1341.76 61.0667 Q1347.69 47.7886 1360.47 47.7886 Q1375.29 47.7886 1377.33 60.1403 Q1379.49 55.3232 1384 51.5559 Q1388.57 47.7886 1395.67 47.7886 Q1405.18 47.7886 1408.95 52.4823 Q1411.73 55.632 1412.29 59.1522 Q1412.84 62.6724 1412.84 71.8127 L1412.84 95.9602 Q1412.96 98.6158 1415 99.2334 Q1417.04 99.7892 1422.72 99.7892 L1422.72 103.68 Q1409.82 103.309 1408.58 103.309 Q1407.59 103.309 1394.25 103.68 L1394.25 99.7892 Q1400.98 99.7892 1402.53 98.9864 Q1404.13 98.1217 1404.13 94.0457 L1404.13 64.5869 Q1404.13 58.1641 1402.16 54.3968 Q1400.18 50.5678 1394.75 50.5678 Q1388.2 50.5678 1382.95 56.0643 Q1377.7 61.5608 1377.7 70.8245 L1377.7 94.0457 Q1377.7 98.1217 1379.24 98.9864 Q1380.85 99.7892 1387.58 99.7892 L1387.58 103.68 Q1374.67 103.309 1373.38 103.309 Q1372.39 103.309 1359.11 103.68 L1359.11 99.7892 Q1365.84 99.7892 1367.39 98.9864 Q1368.99 98.1217 1368.99 94.0457 L1368.99 64.5869 Q1368.99 58.1641 1367.02 54.3968 Q1365.04 50.5678 1359.61 50.5678 Q1353.06 50.5678 1347.81 56.0643 Q1342.56 61.5608 1342.56 70.8245 L1342.56 94.0457 Q1342.56 98.1217 1344.1 98.9864 Q1345.71 99.7892 1352.38 99.7892 L1352.38 103.68 Q1339.47 103.309 1338.24 103.309 Q1337.25 103.309 1323.97 103.68 Z" fill="#000000" fill-rule="evenodd" fill-opacity="1" /><path clip-path="url(#clip180)" d="M1428.71 124.307 Q1435.44 124.307 1436.99 123.443 Q1438.59 122.64 1438.59 118.626 L1438.59 59.3992 Q1438.59 55.1997 1436.99 54.1498 Q1435.44 53.0999 1428.71 53.0999 L1428.71 49.1473 L1446.93 47.7886 L1446.93 56.126 Q1454.53 47.7886 1464.66 47.7886 Q1475.4 47.7886 1483.25 56.126 Q1491.09 64.4634 1491.09 76.3828 Q1491.09 88.4257 1482.75 96.7631 Q1474.41 105.1 1462.87 105.1 Q1456.57 105.1 1452.3 101.889 Q1448.11 98.6158 1447.3 96.2072 L1447.3 97.3806 L1447.3 118.626 Q1447.3 122.702 1448.91 123.504 Q1450.51 124.307 1457.18 124.307 L1457.18 128.198 Q1443.91 127.828 1442.92 127.828 Q1441.68 127.828 1428.71 128.198 L1428.71 124.307 M1447.3 89.2903 Q1447.3 91.2048 1447.55 91.8841 Q1447.86 92.5635 1449.09 94.6015 Q1454.1 102.26 1462.25 102.26 Q1462.31 102.26 1462.37 102.26 Q1469.6 102.26 1475.09 94.9103 Q1480.59 87.4993 1480.59 76.3828 Q1480.59 65.7603 1475.59 58.3493 Q1470.59 50.9383 1463.67 50.9383 Q1458.73 50.9383 1454.4 53.5939 Q1450.08 56.2495 1447.3 61.0667 L1447.3 89.2903 Z" fill="#000000" fill-rule="evenodd" fill-opacity="1" /><path clip-path="url(#clip180)" d="M1499.55 103.68 L1499.55 99.7892 Q1506.28 99.7892 1507.83 98.9864 Q1509.37 98.1217 1509.37 94.0457 L1509.37 28.273 Q1509.37 23.5794 1507.7 22.4059 Q1506.1 21.2325 1499.55 21.2325 L1499.55 17.28 L1517.71 15.9213 L1517.71 94.0457 Q1517.71 98.1217 1519.31 98.9864 Q1520.92 99.7892 1527.59 99.7892 L1527.59 103.68 Q1526.04 103.68 1522.83 103.556 Q1519.62 103.433 1517.27 103.371 Q1514.93 103.309 1513.57 103.309 Q1512.09 103.309 1499.55 103.68 Z" fill="#000000" fill-rule="evenodd" fill-opacity="1" /><path clip-path="url(#clip180)" d="M1533.89 75.827 Q1533.89 63.9076 1541.55 55.4467 Q1549.2 46.9858 1560.2 46.9858 Q1571.31 46.9858 1577.06 54.2115 Q1582.86 61.4373 1582.86 71.8127 Q1582.86 73.7272 1582.37 74.0977 Q1581.87 74.4683 1579.71 74.4683 L1544.39 74.4683 Q1544.39 87.3758 1548.22 93.4281 Q1553.53 101.889 1562.48 101.889 Q1563.72 101.889 1565.2 101.642 Q1566.68 101.395 1569.71 100.345 Q1572.73 99.2334 1575.39 96.3308 Q1578.04 93.4281 1579.59 88.858 Q1579.96 87.067 1581.19 87.1287 Q1582.86 87.1287 1582.86 88.611 Q1582.86 89.7226 1581.63 92.2547 Q1580.45 94.725 1578.17 97.6894 Q1575.88 100.654 1571.44 102.877 Q1567.05 105.1 1561.74 105.1 Q1550.62 105.1 1542.23 96.7013 Q1533.89 88.2404 1533.89 75.827 M1544.51 71.8127 L1574.52 71.8127 Q1574.52 69.1571 1574.03 66.1927 Q1573.6 63.2282 1572.24 59.1522 Q1570.94 55.0144 1567.85 52.4205 Q1564.77 49.8267 1560.2 49.8267 Q1558.16 49.8267 1555.94 50.6913 Q1553.77 51.5559 1551.12 53.6557 Q1548.46 55.7555 1546.61 60.5109 Q1544.76 65.2663 1544.51 71.8127 Z" fill="#000000" fill-rule="evenodd" fill-opacity="1" /><path clip-path="url(#clip180)" d="M1648.63 93.0576 Q1635.67 79.656 1635.67 60.4491 Q1635.67 41.1805 1648.76 27.8407 Q1661.85 14.5009 1679.64 14.5009 Q1684.08 14.5009 1687.85 15.5508 Q1691.68 16.5389 1694.71 18.5769 Q1697.73 20.5532 1699.28 21.9119 Q1700.88 23.2088 1703.04 25.3704 L1709.41 16.0448 Q1710.39 14.5009 1711.38 14.5009 Q1712.43 14.5009 1712.62 15.1185 Q1712.8 15.6743 1712.8 17.527 L1712.8 47.5416 Q1712.8 49.5796 1712.55 50.0737 Q1712.31 50.5678 1710.76 50.5678 Q1709.53 50.5678 1709.28 50.1972 Q1709.03 49.8267 1708.73 48.4062 Q1706.81 34.7576 1699.15 26.6055 Q1691.56 18.4534 1681.18 18.4534 Q1678.16 18.4534 1674.76 19.1328 Q1671.42 19.8121 1666.48 22.4059 Q1661.6 24.9998 1657.84 29.2611 Q1654.13 33.4607 1651.41 41.6128 Q1648.7 49.7032 1648.7 60.4491 Q1648.7 71.0716 1651.41 79.2237 Q1654.13 87.3758 1657.9 91.6371 Q1661.73 95.8367 1666.67 98.4923 Q1671.67 101.148 1675.19 101.889 Q1678.77 102.568 1681.92 102.568 Q1684.08 102.568 1686.62 102.136 Q1689.15 101.642 1692.92 100.283 Q1696.74 98.8628 1699.15 95.5279 Q1701.56 92.1929 1701.56 87.2523 L1701.56 79.1619 Q1701.56 75.3947 1699.71 74.2212 Q1697.86 73.0478 1689.77 73.0478 L1685.75 73.0478 L1685.75 69.1571 Q1690.32 69.5276 1706.07 69.5276 Q1707.49 69.5276 1721.51 69.1571 L1721.51 73.0478 Q1715.46 73.0478 1714.1 73.9742 Q1712.8 74.8388 1712.8 78.6061 L1712.8 100.654 Q1712.8 103.556 1711.69 103.556 Q1710.7 103.556 1707.74 100.716 Q1704.83 97.8747 1703.54 95.7132 Q1700.51 101.024 1693.9 103.742 Q1687.36 106.459 1679.88 106.459 Q1661.67 106.459 1648.63 93.0576 Z" fill="#000000" fill-rule="evenodd" fill-opacity="1" /><path clip-path="url(#clip180)" d="M1731.21 103.68 L1731.21 99.7892 Q1737.94 99.7892 1739.48 98.9864 Q1741.09 98.1217 1741.09 94.0457 L1741.09 60.1403 Q1741.09 55.4467 1739.42 54.2733 Q1737.81 53.0999 1731.21 53.0999 L1731.21 49.1473 L1748.81 47.7886 L1748.81 61.6843 Q1750.6 56.2495 1754.37 52.05 Q1758.19 47.7886 1764.37 47.7886 Q1768.45 47.7886 1771.04 50.0737 Q1773.7 52.3588 1773.7 55.5084 Q1773.7 58.2876 1771.97 59.708 Q1770.3 61.0667 1768.26 61.0667 Q1765.98 61.0667 1764.37 59.6463 Q1762.83 58.1641 1762.83 55.632 Q1762.83 54.088 1763.51 52.9146 Q1764.25 51.6794 1764.8 51.2471 Q1765.36 50.8148 1765.73 50.6913 Q1765.48 50.5678 1764.37 50.5678 Q1757.39 50.5678 1753.38 57.5465 Q1749.42 64.4634 1749.42 74.3448 L1749.42 93.7987 Q1749.42 97.4424 1750.91 98.6158 Q1752.45 99.7892 1759.06 99.7892 L1761.71 99.7892 L1761.71 103.68 Q1756.65 103.309 1745.66 103.309 Q1744.11 103.309 1741.7 103.371 Q1739.3 103.433 1736.15 103.556 Q1733 103.68 1731.21 103.68 Z" fill="#000000" fill-rule="evenodd" fill-opacity="1" /><path clip-path="url(#clip180)" d="M1782.4 91.6371 Q1782.4 80.8912 1795.06 75.2094 Q1802.66 71.5656 1818.35 70.6393 L1818.35 66.0074 Q1818.35 58.1641 1814.21 54.0262 Q1810.13 49.8267 1804.95 49.8267 Q1795.68 49.8267 1791.23 55.632 Q1795 55.7555 1796.36 57.67 Q1797.72 59.5227 1797.72 61.4373 Q1797.72 63.9693 1796.11 65.6368 Q1794.57 67.2425 1791.91 67.2425 Q1789.38 67.2425 1787.71 65.6986 Q1786.05 64.0929 1786.05 61.3137 Q1786.05 55.1379 1791.61 51.0618 Q1797.23 46.9858 1805.19 46.9858 Q1815.57 46.9858 1822.48 53.9645 Q1824.65 56.126 1825.7 58.9052 Q1826.81 61.6843 1826.93 63.537 Q1827.05 65.328 1827.05 68.91 L1827.05 94.1692 Q1827.05 94.9103 1827.3 96.1455 Q1827.55 97.3806 1828.66 98.9864 Q1829.83 100.53 1831.75 100.53 Q1836.32 100.53 1836.26 92.44 L1836.26 85.3378 L1839.47 85.3378 L1839.47 92.44 Q1839.47 99.1716 1835.89 101.827 Q1832.37 104.421 1829.09 104.421 Q1824.89 104.421 1822.24 101.333 Q1819.58 98.2453 1819.21 94.0457 Q1817.3 98.8628 1812.91 102.013 Q1808.59 105.1 1802.66 105.1 Q1798.09 105.1 1793.77 103.927 Q1789.51 102.815 1785.92 99.6657 Q1782.4 96.4543 1782.4 91.6371 M1792.16 91.5136 Q1792.16 96.2072 1795.5 99.2334 Q1798.83 102.26 1803.52 102.26 Q1808.84 102.26 1813.59 98.1835 Q1818.35 94.0457 1818.35 85.9553 L1818.35 73.2949 Q1804.33 73.7889 1798.21 79.4089 Q1792.16 84.9672 1792.16 91.5136 Z" fill="#000000" fill-rule="evenodd" fill-opacity="1" /><path clip-path="url(#clip180)" d="M1843.85 124.307 Q1850.58 124.307 1852.13 123.443 Q1853.73 122.64 1853.73 118.626 L1853.73 59.3992 Q1853.73 55.1997 1852.13 54.1498 Q1850.58 53.0999 1843.85 53.0999 L1843.85 49.1473 L1862.07 47.7886 L1862.07 56.126 Q1869.67 47.7886 1879.8 47.7886 Q1890.54 47.7886 1898.39 56.126 Q1906.23 64.4634 1906.23 76.3828 Q1906.23 88.4257 1897.89 96.7631 Q1889.55 105.1 1878.01 105.1 Q1871.71 105.1 1867.44 101.889 Q1863.25 98.6158 1862.44 96.2072 L1862.44 97.3806 L1862.44 118.626 Q1862.44 122.702 1864.05 123.504 Q1865.65 124.307 1872.32 124.307 L1872.32 128.198 Q1859.05 127.828 1858.06 127.828 Q1856.82 127.828 1843.85 128.198 L1843.85 124.307 M1862.44 89.2903 Q1862.44 91.2048 1862.69 91.8841 Q1863 92.5635 1864.23 94.6015 Q1869.24 102.26 1877.39 102.26 Q1877.45 102.26 1877.51 102.26 Q1884.74 102.26 1890.23 94.9103 Q1895.73 87.4993 1895.73 76.3828 Q1895.73 65.7603 1890.73 58.3493 Q1885.73 50.9383 1878.81 50.9383 Q1873.87 50.9383 1869.54 53.5939 Q1865.22 56.2495 1862.44 61.0667 L1862.44 89.2903 Z" fill="#000000" fill-rule="evenodd" fill-opacity="1" /><path clip-path="url(#clip180)" d="M1914.57 103.68 L1914.57 99.7892 Q1921.3 99.7892 1922.84 98.9864 Q1924.39 98.1217 1924.39 94.0457 L1924.39 28.273 Q1924.39 23.5794 1922.72 22.4059 Q1921.11 21.2325 1914.57 21.2325 L1914.57 17.28 L1932.72 15.9213 L1932.72 59.8933 L1932.85 59.8933 Q1934.88 55.3232 1939.46 51.5559 Q1944.03 47.7886 1951.07 47.7886 Q1960.58 47.7886 1964.34 52.4823 Q1967.12 55.632 1967.68 59.1522 Q1968.3 62.6724 1968.3 71.8127 L1968.3 95.9602 Q1968.42 98.6158 1970.46 99.2334 Q1972.5 99.7892 1978.18 99.7892 L1978.18 103.68 Q1965.27 103.309 1963.97 103.309 Q1962.98 103.309 1949.71 103.68 L1949.71 99.7892 Q1956.44 99.7892 1957.98 98.9864 Q1959.59 98.1217 1959.59 94.0457 L1959.59 64.5869 Q1959.59 58.1641 1957.61 54.3968 Q1955.64 50.5678 1950.2 50.5678 Q1943.65 50.5678 1938.41 56.0643 Q1933.16 61.5608 1933.16 70.8245 L1933.16 94.0457 Q1933.16 98.1217 1934.7 98.9864 Q1936.31 99.7892 1942.98 99.7892 L1942.98 103.68 Q1930.07 103.309 1928.83 103.309 Q1927.84 103.309 1914.57 103.68 Z" fill="#000000" fill-rule="evenodd" fill-opacity="1" /><polyline clip-path="url(#clip182)" style="stroke:#000000; stroke-linecap:butt; stroke-linejoin:round; stroke-width:4; stroke-opacity:1; fill:none" points="
  1347.45,390.101 1339.49,405.359 1331.51,420.605 1323.51,435.828 1315.48,451.016 1307.39,466.156 1299.25,481.239 1291.04,496.251 1282.74,511.182 1274.35,526.019 
  1265.85,540.751 1257.23,555.366 1248.48,569.853 1239.59,584.199 1230.54,598.393 1221.32,612.424 1211.93,626.28 1202.35,639.948 1192.56,653.418 1182.56,666.678 
  1172.34,679.715 1161.87,692.519 1151.16,705.078 1140.18,717.379 1128.93,729.412 1117.4,741.164 1105.58,752.637 1093.48,763.841 1081.13,774.788 1068.52,785.489 
  1055.68,795.957 1042.61,806.202 1029.32,816.238 1015.83,826.075 1002.16,835.724 988.3,845.199 974.277,854.51 960.099,863.668 945.778,872.687 931.327,881.577 
  916.756,890.351 902.078,899.019 887.305,907.593 872.449,916.086 857.521,924.509 842.534,932.873 827.499,941.191 812.428,949.474 797.334,957.733 782.227,965.98 
  
  "/>
<polyline clip-path="url(#clip182)" style="stroke:#000000; stroke-linecap:butt; stroke-linejoin:round; stroke-width:4; stroke-opacity:1; fill:none" points="
  1347.45,390.101 1347.82,408.267 1348.21,426.428 1348.63,444.579 1349.1,462.715 1349.63,480.832 1350.25,498.924 1350.95,516.986 1351.77,535.014 1352.72,553.003 
  1353.81,570.947 1355.06,588.842 1356.48,606.683 1358.1,624.465 1359.92,642.183 1361.97,659.832 1364.26,677.407 1366.8,694.903 1369.61,712.316 1372.71,729.64 
  1376.11,746.87 1379.83,764.002 1383.88,781.031 1388.29,797.952 1393.06,814.759 1398.21,831.448 1403.75,848.019 1409.65,864.477 1415.91,880.827 1422.49,897.074 
  1429.4,913.222 1436.61,929.276 1444.11,945.242 1451.87,961.124 1459.9,976.927 1468.16,992.657 1476.64,1008.32 1485.34,1023.91 1494.22,1039.45 1503.28,1054.94 
  1512.49,1070.37 1521.86,1085.76 1531.35,1101.11 1540.95,1116.43 1550.64,1131.71 1560.42,1146.97 1570.26,1162.22 1580.14,1177.44 1590.06,1192.66 1600,1207.87 
  
  "/>
<polyline clip-path="url(#clip182)" style="stroke:#000000; stroke-linecap:butt; stroke-linejoin:round; stroke-width:4; stroke-opacity:1; fill:none" points="
  782.227,965.98 797.497,975.715 812.772,985.434 828.056,995.121 843.354,1004.76 858.671,1014.34 874.012,1023.83 889.381,1033.23 904.784,1042.52 920.224,1051.68 
  935.707,1060.69 951.237,1069.55 966.819,1078.23 982.458,1086.71 998.158,1094.99 1013.92,1103.05 1029.76,1110.86 1045.68,1118.42 1061.67,1125.71 1077.75,1132.71 
  1093.92,1139.41 1110.18,1145.78 1126.54,1151.82 1143.01,1157.51 1159.59,1162.83 1176.28,1167.77 1193.08,1172.32 1209.99,1176.5 1227.01,1180.34 1244.12,1183.84 
  1261.33,1187.01 1278.63,1189.89 1296.01,1192.47 1313.48,1194.79 1331.02,1196.84 1348.63,1198.66 1366.31,1200.26 1384.05,1201.64 1401.85,1202.84 1419.69,1203.85 
  1437.59,1204.71 1455.53,1205.43 1473.5,1206.01 1491.51,1206.49 1509.55,1206.86 1527.61,1207.16 1545.69,1207.4 1563.79,1207.58 1581.89,1207.74 1600,1207.87 
  
  "/>
<polyline clip-path="url(#clip182)" style="stroke:#000000; stroke-linecap:butt; stroke-linejoin:round; stroke-width:4; stroke-opacity:1; fill:none" points="
  1600,1207.87 1600.37,1226.04 1600.76,1244.2 1601.18,1262.35 1601.65,1280.49 1602.18,1298.61 1602.79,1316.7 1603.5,1334.76 1604.32,1352.79 1605.27,1370.78 
  1606.36,1388.72 1607.61,1406.62 1609.03,1424.46 1610.65,1442.24 1612.47,1459.96 1614.52,1477.6 1616.81,1495.18 1619.35,1512.68 1622.16,1530.09 1625.26,1547.41 
  1628.66,1564.64 1632.38,1581.78 1636.43,1598.8 1640.84,1615.72 1645.61,1632.53 1650.76,1649.22 1656.3,1665.79 1662.2,1682.25 1668.46,1698.6 1675.04,1714.85 
  1681.95,1730.99 1689.16,1747.05 1696.66,1763.01 1704.43,1778.9 1712.45,1794.7 1720.71,1810.43 1729.19,1826.09 1737.89,1841.69 1746.77,1857.22 1755.83,1872.71 
  1765.05,1888.14 1774.41,1903.53 1783.9,1918.88 1793.5,1934.2 1803.19,1949.49 1812.97,1964.75 1822.81,1979.99 1832.7,1995.22 1842.62,2010.43 1852.55,2025.65 
  
  "/>
<polyline clip-path="url(#clip182)" style="stroke:#000000; stroke-linecap:butt; stroke-linejoin:round; stroke-width:4; stroke-opacity:1; fill:none" points="
  1600,1207.87 1615.27,1217.61 1630.54,1227.33 1645.83,1237.02 1661.13,1246.65 1676.44,1256.23 1691.78,1265.72 1707.15,1275.12 1722.56,1284.41 1738,1293.57 
  1753.48,1302.59 1769.01,1311.44 1784.59,1320.12 1800.23,1328.61 1815.93,1336.89 1831.7,1344.94 1847.54,1352.76 1863.45,1360.32 1879.44,1367.6 1895.52,1374.6 
  1911.69,1381.3 1927.95,1387.67 1944.32,1393.71 1960.78,1399.4 1977.36,1404.72 1994.05,1409.66 2010.85,1414.21 2027.76,1418.4 2044.78,1422.23 2061.89,1425.73 
  2079.1,1428.91 2096.4,1431.78 2113.79,1434.37 2131.25,1436.68 2148.79,1438.74 2166.41,1440.55 2184.08,1442.15 2201.82,1443.53 2219.62,1444.73 2237.47,1445.75 
  2255.36,1446.6 2273.3,1447.32 2291.28,1447.9 2309.29,1448.38 2327.32,1448.76 2345.39,1449.05 2363.47,1449.29 2381.56,1449.47 2399.66,1449.63 2417.77,1449.77 
  
  "/>
<polyline clip-path="url(#clip182)" style="stroke:#000000; stroke-linecap:butt; stroke-linejoin:round; stroke-width:4; stroke-opacity:1; fill:none" points="
  1852.55,2025.65 1867.66,2017.4 1882.75,2009.14 1897.82,2000.86 1912.86,1992.54 1927.85,1984.18 1942.77,1975.75 1957.63,1967.26 1972.4,1958.69 1987.08,1950.02 
  2001.65,1941.24 2016.1,1932.35 2030.42,1923.33 2044.6,1914.18 2058.62,1904.86 2072.48,1895.39 2086.16,1885.74 2099.64,1875.9 2112.93,1865.87 2126,1855.62 
  2138.84,1845.15 2151.45,1834.45 2163.81,1823.51 2175.9,1812.3 2187.72,1800.83 2199.26,1789.08 2210.51,1777.04 2221.48,1764.74 2232.2,1752.18 2242.66,1739.38 
  2252.89,1726.34 2262.89,1713.08 2272.67,1699.61 2282.25,1685.95 2291.65,1672.09 2300.86,1658.06 2309.91,1643.86 2318.8,1629.52 2327.55,1615.03 2336.17,1600.42 
  2344.67,1585.68 2353.06,1570.85 2361.36,1555.92 2369.57,1540.9 2377.72,1525.82 2385.8,1510.68 2393.83,1495.49 2401.83,1480.27 2409.81,1465.02 2417.77,1449.77 
  
  "/>
<path clip-path="url(#clip182)" d="
M1490.97 390.101 L1419.21 265.808 L1275.69 265.808 L1203.93 390.101 L1275.69 514.395 L1419.21 514.395 L1490.97 390.101 L1490.97 390.101  Z
  " fill="#f5fffa" fill-rule="evenodd" fill-opacity="1"/>
<polyline clip-path="url(#clip182)" style="stroke:#000000; stroke-linecap:butt; stroke-linejoin:round; stroke-width:4; stroke-opacity:1; fill:none" points="
  1490.97,390.101 1419.21,265.808 1275.69,265.808 1203.93,390.101 1275.69,514.395 1419.21,514.395 1490.97,390.101 
  "/>
<path clip-path="url(#clip182)" d="
M925.749 965.98 L853.988 841.687 L710.466 841.687 L638.706 965.98 L710.466 1090.27 L853.988 1090.27 L925.749 965.98 L925.749 965.98  Z
  " fill="#f5fffa" fill-rule="evenodd" fill-opacity="1"/>
<polyline clip-path="url(#clip182)" style="stroke:#000000; stroke-linecap:butt; stroke-linejoin:round; stroke-width:4; stroke-opacity:1; fill:none" points="
  925.749,965.98 853.988,841.687 710.466,841.687 638.706,965.98 710.466,1090.27 853.988,1090.27 925.749,965.98 
  "/>
<path clip-path="url(#clip182)" d="
M1743.52 1207.87 L1671.76 1083.58 L1528.24 1083.58 L1456.48 1207.87 L1528.24 1332.17 L1671.76 1332.17 L1743.52 1207.87 L1743.52 1207.87  Z
  " fill="#f5fffa" fill-rule="evenodd" fill-opacity="1"/>
<polyline clip-path="url(#clip182)" style="stroke:#000000; stroke-linecap:butt; stroke-linejoin:round; stroke-width:4; stroke-opacity:1; fill:none" points="
  1743.52,1207.87 1671.76,1083.58 1528.24,1083.58 1456.48,1207.87 1528.24,1332.17 1671.76,1332.17 1743.52,1207.87 
  "/>
<path clip-path="url(#clip182)" d="
M1996.07 2025.65 L1924.31 1901.35 L1780.79 1901.35 L1709.03 2025.65 L1780.79 2149.94 L1924.31 2149.94 L1996.07 2025.65 L1996.07 2025.65  Z
  " fill="#f5fffa" fill-rule="evenodd" fill-opacity="1"/>
<polyline clip-path="url(#clip182)" style="stroke:#000000; stroke-linecap:butt; stroke-linejoin:round; stroke-width:4; stroke-opacity:1; fill:none" points="
  1996.07,2025.65 1924.31,1901.35 1780.79,1901.35 1709.03,2025.65 1780.79,2149.94 1924.31,2149.94 1996.07,2025.65 
  "/>
<path clip-path="url(#clip182)" d="
M2561.29 1449.77 L2489.53 1325.47 L2346.01 1325.47 L2274.25 1449.77 L2346.01 1574.06 L2489.53 1574.06 L2561.29 1449.77 L2561.29 1449.77  Z
  " fill="#f5fffa" fill-rule="evenodd" fill-opacity="1"/>
<polyline clip-path="url(#clip182)" style="stroke:#000000; stroke-linecap:butt; stroke-linejoin:round; stroke-width:4; stroke-opacity:1; fill:none" points="
  2561.29,1449.77 2489.53,1325.47 2346.01,1325.47 2274.25,1449.77 2346.01,1574.06 2489.53,1574.06 2561.29,1449.77 
  "/>
<circle clip-path="url(#clip182)" style="fill:#f5fffa; stroke:none; fill-opacity:1" cx="1347.45" cy="390.101" r="2"/>
<circle clip-path="url(#clip182)" style="fill:#f5fffa; stroke:none; fill-opacity:1" cx="782.227" cy="965.98" r="2"/>
<circle clip-path="url(#clip182)" style="fill:#f5fffa; stroke:none; fill-opacity:1" cx="1600" cy="1207.87" r="2"/>
<circle clip-path="url(#clip182)" style="fill:#f5fffa; stroke:none; fill-opacity:1" cx="1852.55" cy="2025.65" r="2"/>
<circle clip-path="url(#clip182)" style="fill:#f5fffa; stroke:none; fill-opacity:1" cx="2417.77" cy="1449.77" r="2"/>
<path clip-path="url(#clip180)" d="M1334.79 377.675 Q1331.63 377.675 1330.03 380.794 Q1328.45 383.893 1328.45 390.132 Q1328.45 396.35 1330.03 399.469 Q1331.63 402.568 1334.79 402.568 Q1337.97 402.568 1339.55 399.469 Q1341.15 396.35 1341.15 390.132 Q1341.15 383.893 1339.55 380.794 Q1337.97 377.675 1334.79 377.675 M1334.79 374.434 Q1339.88 374.434 1342.55 378.465 Q1345.24 382.475 1345.24 390.132 Q1345.24 397.768 1342.55 401.798 Q1339.88 405.809 1334.79 405.809 Q1329.71 405.809 1327.01 401.798 Q1324.34 397.768 1324.34 390.132 Q1324.34 382.475 1327.01 378.465 Q1329.71 374.434 1334.79 374.434 Z" fill="#000000" fill-rule="evenodd" fill-opacity="1" /><path clip-path="url(#clip180)" d="M1353.14 401.778 L1359.83 401.778 L1359.83 378.708 L1352.55 380.166 L1352.55 376.44 L1359.79 374.981 L1363.88 374.981 L1363.88 401.778 L1370.56 401.778 L1370.56 405.221 L1353.14 405.221 L1353.14 401.778 Z" fill="#000000" fill-rule="evenodd" fill-opacity="1" /><path clip-path="url(#clip180)" d="M769.73 953.554 Q766.57 953.554 764.97 956.673 Q763.391 959.772 763.391 966.011 Q763.391 972.229 764.97 975.348 Q766.57 978.447 769.73 978.447 Q772.91 978.447 774.49 975.348 Q776.09 972.229 776.09 966.011 Q776.09 959.772 774.49 956.673 Q772.91 953.554 769.73 953.554 M769.73 950.313 Q774.814 950.313 777.488 954.344 Q780.182 958.354 780.182 966.011 Q780.182 973.646 777.488 977.677 Q774.814 981.688 769.73 981.688 Q764.646 981.688 761.952 977.677 Q759.279 973.646 759.279 966.011 Q759.279 958.354 761.952 954.344 Q764.646 950.313 769.73 950.313 Z" fill="#000000" fill-rule="evenodd" fill-opacity="1" /><path clip-path="url(#clip180)" d="M790.896 977.657 L805.176 977.657 L805.176 981.1 L785.974 981.1 L785.974 977.657 Q788.304 975.247 792.314 971.196 Q796.345 967.125 797.378 965.95 Q799.342 963.742 800.112 962.223 Q800.902 960.684 800.902 959.205 Q800.902 956.795 799.201 955.276 Q797.519 953.757 794.805 953.757 Q792.881 953.757 790.734 954.425 Q788.607 955.093 786.177 956.45 L786.177 952.318 Q788.648 951.326 790.795 950.82 Q792.942 950.313 794.724 950.313 Q799.423 950.313 802.218 952.663 Q805.014 955.012 805.014 958.942 Q805.014 960.805 804.305 962.486 Q803.616 964.147 801.773 966.416 Q801.266 967.003 798.552 969.818 Q795.838 972.614 790.896 977.657 Z" fill="#000000" fill-rule="evenodd" fill-opacity="1" /><path clip-path="url(#clip180)" d="M1587.09 1195.45 Q1583.93 1195.45 1582.33 1198.57 Q1580.75 1201.67 1580.75 1207.9 Q1580.75 1214.12 1582.33 1217.24 Q1583.93 1220.34 1587.09 1220.34 Q1590.27 1220.34 1591.85 1217.24 Q1593.45 1214.12 1593.45 1207.9 Q1593.45 1201.67 1591.85 1198.57 Q1590.27 1195.45 1587.09 1195.45 M1587.09 1192.21 Q1592.17 1192.21 1594.84 1196.24 Q1597.54 1200.25 1597.54 1207.9 Q1597.54 1215.54 1594.84 1219.57 Q1592.17 1223.58 1587.09 1223.58 Q1582 1223.58 1579.31 1219.57 Q1576.64 1215.54 1576.64 1207.9 Q1576.64 1200.25 1579.31 1196.24 Q1582 1192.21 1587.09 1192.21 Z" fill="#000000" fill-rule="evenodd" fill-opacity="1" /><path clip-path="url(#clip180)" d="M1617.12 1206.69 Q1620.06 1207.32 1621.7 1209.3 Q1623.36 1211.29 1623.36 1214.2 Q1623.36 1218.68 1620.28 1221.13 Q1617.21 1223.58 1611.53 1223.58 Q1609.63 1223.58 1607.6 1223.2 Q1605.6 1222.83 1603.45 1222.08 L1603.45 1218.13 Q1605.15 1219.13 1607.18 1219.63 Q1609.21 1220.14 1611.41 1220.14 Q1615.26 1220.14 1617.27 1218.62 Q1619.29 1217.1 1619.29 1214.2 Q1619.29 1211.53 1617.41 1210.03 Q1615.54 1208.51 1612.2 1208.51 L1608.68 1208.51 L1608.68 1205.15 L1612.36 1205.15 Q1615.38 1205.15 1616.98 1203.96 Q1618.58 1202.74 1618.58 1200.47 Q1618.58 1198.14 1616.92 1196.91 Q1615.28 1195.65 1612.2 1195.65 Q1610.52 1195.65 1608.6 1196.02 Q1606.67 1196.38 1604.36 1197.15 L1604.36 1193.5 Q1606.69 1192.86 1608.72 1192.53 Q1610.76 1192.21 1612.57 1192.21 Q1617.23 1192.21 1619.94 1194.33 Q1622.65 1196.44 1622.65 1200.05 Q1622.65 1202.56 1621.22 1204.3 Q1619.78 1206.02 1617.12 1206.69 Z" fill="#000000" fill-rule="evenodd" fill-opacity="1" /><path clip-path="url(#clip180)" d="M1839.14 2013.22 Q1835.98 2013.22 1834.38 2016.34 Q1832.8 2019.44 1832.8 2025.68 Q1832.8 2031.9 1834.38 2035.01 Q1835.98 2038.11 1839.14 2038.11 Q1842.32 2038.11 1843.9 2035.01 Q1845.5 2031.9 1845.5 2025.68 Q1845.5 2019.44 1843.9 2016.34 Q1842.32 2013.22 1839.14 2013.22 M1839.14 2009.98 Q1844.23 2009.98 1846.9 2014.01 Q1849.59 2018.02 1849.59 2025.68 Q1849.59 2033.31 1846.9 2037.34 Q1844.23 2041.35 1839.14 2041.35 Q1834.06 2041.35 1831.37 2037.34 Q1828.69 2033.31 1828.69 2025.68 Q1828.69 2018.02 1831.37 2014.01 Q1834.06 2009.98 1839.14 2009.98 Z" fill="#000000" fill-rule="evenodd" fill-opacity="1" /><path clip-path="url(#clip180)" d="M1868.03 2014.09 L1857.7 2030.23 L1868.03 2030.23 L1868.03 2014.09 M1866.95 2010.53 L1872.1 2010.53 L1872.1 2030.23 L1876.41 2030.23 L1876.41 2033.64 L1872.1 2033.64 L1872.1 2040.77 L1868.03 2040.77 L1868.03 2033.64 L1854.37 2033.64 L1854.37 2029.69 L1866.95 2010.53 Z" fill="#000000" fill-rule="evenodd" fill-opacity="1" /><path clip-path="url(#clip180)" d="M2405.01 1437.34 Q2401.85 1437.34 2400.25 1440.46 Q2398.67 1443.56 2398.67 1449.8 Q2398.67 1456.01 2400.25 1459.13 Q2401.85 1462.23 2405.01 1462.23 Q2408.19 1462.23 2409.77 1459.13 Q2411.37 1456.01 2411.37 1449.8 Q2411.37 1443.56 2409.77 1440.46 Q2408.19 1437.34 2405.01 1437.34 M2405.01 1434.1 Q2410.1 1434.1 2412.77 1438.13 Q2415.46 1442.14 2415.46 1449.8 Q2415.46 1457.43 2412.77 1461.46 Q2410.1 1465.47 2405.01 1465.47 Q2399.93 1465.47 2397.23 1461.46 Q2394.56 1457.43 2394.56 1449.8 Q2394.56 1442.14 2397.23 1438.13 Q2399.93 1434.1 2405.01 1434.1 Z" fill="#000000" fill-rule="evenodd" fill-opacity="1" /><path clip-path="url(#clip180)" d="M2422.69 1434.65 L2438.76 1434.65 L2438.76 1438.09 L2426.44 1438.09 L2426.44 1445.5 Q2427.33 1445.2 2428.22 1445.06 Q2429.12 1444.89 2430.01 1444.89 Q2435.07 1444.89 2438.03 1447.67 Q2440.98 1450.44 2440.98 1455.18 Q2440.98 1460.07 2437.95 1462.78 Q2434.91 1465.47 2429.38 1465.47 Q2427.47 1465.47 2425.49 1465.15 Q2423.53 1464.83 2421.42 1464.18 L2421.42 1460.07 Q2423.24 1461.06 2425.19 1461.54 Q2427.13 1462.03 2429.3 1462.03 Q2432.8 1462.03 2434.85 1460.19 Q2436.89 1458.34 2436.89 1455.18 Q2436.89 1452.02 2434.85 1450.18 Q2432.8 1448.34 2429.3 1448.34 Q2427.66 1448.34 2426.02 1448.7 Q2424.4 1449.07 2422.69 1449.84 L2422.69 1434.65 Z" fill="#000000" fill-rule="evenodd" fill-opacity="1" /></svg>
