<?xml version="1.0" encoding="utf-8"?>
<svg xmlns="http://www.w3.org/2000/svg" xmlns:xlink="http://www.w3.org/1999/xlink" width="800" height="600" viewBox="0 0 3200 2400">
<defs>
  <clipPath id="clip550">
    <rect x="0" y="0" width="3200" height="2400"/>
  </clipPath>
</defs>
<path clip-path="url(#clip550)" d="M0 2400 L3200 2400 L3200 0 L0 0  Z" fill="#ffffff" fill-rule="evenodd" fill-opacity="1"/>
<defs>
  <clipPath id="clip551">
    <rect x="640" y="0" width="2241" height="2241"/>
  </clipPath>
</defs>
<path clip-path="url(#clip550)" d="M455.118 2352.76 L2744.88 2352.76 L2744.88 62.9921 L455.118 62.9921  Z" fill="#ffffff" fill-rule="evenodd" fill-opacity="1"/>
<defs>
  <clipPath id="clip552">
    <rect x="455" y="62" width="2291" height="2291"/>
  </clipPath>
</defs>
<path clip-path="url(#clip550)" d="M1221.82 103.433 L1221.82 78.112 Q1221.82 76.6916 1221.88 76.1975 Q1221.95 75.7034 1222.32 75.3329 Q1222.69 74.9623 1223.43 74.9623 Q1224.85 74.9623 1224.97 76.2593 Q1225.34 88.7962 1232.82 95.7132 Q1240.16 102.568 1252.76 102.568 Q1260.36 102.568 1265.05 97.1336 Q1269.75 91.6371 1269.75 84.4731 Q1269.75 77.618 1265.79 72.8008 Q1264.13 70.6393 1262.03 69.2806 Q1259.99 67.8601 1258.69 67.4278 Q1257.46 66.9955 1255.05 66.3779 Q1239.36 62.6107 1238.37 62.1784 Q1230.9 59.6463 1226.33 53.2851 Q1221.82 46.8623 1221.82 39.019 Q1221.82 28.8906 1228.92 21.7266 Q1236.09 14.5009 1246.46 14.5009 Q1251.65 14.5009 1255.97 16.1683 Q1260.36 17.7741 1262.15 19.2563 Q1263.94 20.7385 1266.72 23.3941 L1271.11 16.1683 Q1272.09 14.5009 1273.02 14.5009 Q1274.01 14.5009 1274.19 15.1185 Q1274.44 15.6743 1274.44 17.527 L1274.44 42.9715 Q1274.44 44.3919 1274.38 44.886 Q1274.32 45.3801 1273.88 45.6889 Q1273.51 45.9977 1272.77 45.9977 Q1271.54 45.9977 1271.23 44.5155 Q1267.71 18.0829 1246.59 18.0829 Q1239.36 18.0829 1234.61 22.9618 Q1229.91 27.7789 1229.91 34.6341 Q1229.91 40.1924 1233.37 44.7625 Q1236.83 49.2709 1242.7 50.6913 L1258.88 54.5821 Q1266.97 56.4966 1272.4 63.6606 Q1277.84 70.8245 1277.84 80.1501 Q1277.84 90.896 1270.8 98.6776 Q1263.82 106.459 1252.89 106.459 Q1245.04 106.459 1238.99 103.865 Q1232.94 101.271 1229.67 97.6277 Q1227.13 101.827 1225.47 104.174 L1225.1 104.792 Q1224.11 106.459 1223.18 106.459 Q1222.19 106.459 1222.01 105.842 Q1221.82 105.224 1221.82 103.433 Z" fill="#000000" fill-rule="nonzero" fill-opacity="1" /><path clip-path="url(#clip550)" d="M1289.08 103.68 L1289.08 99.7892 Q1295.81 99.7892 1297.35 98.9864 Q1298.9 98.1217 1298.9 94.0457 L1298.9 60.0168 Q1298.9 55.3232 1297.29 54.2115 Q1295.75 53.0999 1289.57 53.0999 L1289.57 49.1473 L1307.23 47.7886 L1307.23 94.1692 Q1307.23 97.9365 1308.59 98.8628 Q1309.95 99.7892 1316.13 99.7892 L1316.13 103.68 Q1303.22 103.309 1302.97 103.309 Q1301.24 103.309 1289.08 103.68 M1294.39 25.7409 Q1294.39 23.2088 1296.3 21.1708 Q1298.28 19.071 1301.06 19.071 Q1303.84 19.071 1305.81 20.9855 Q1307.79 22.8383 1307.79 25.8027 Q1307.79 28.7053 1305.81 30.6198 Q1303.84 32.4726 1301.06 32.4726 Q1298.16 32.4726 1296.24 30.4345 Q1294.39 28.3965 1294.39 25.7409 Z" fill="#000000" fill-rule="nonzero" fill-opacity="1" /><path clip-path="url(#clip550)" d="M1323.97 103.68 L1323.97 99.7892 Q1330.7 99.7892 1332.25 98.9864 Q1333.79 98.1217 1333.79 94.0457 L1333.79 60.1403 Q1333.79 55.4467 1332.12 54.2733 Q1330.52 53.0999 1323.97 53.0999 L1323.97 49.1473 L1341.76 47.7886 L1341.76 61.0667 Q1347.69 47.7886 1360.47 47.7886 Q1375.29 47.7886 1377.33 60.1403 Q1379.49 55.3232 1384 51.5559 Q1388.57 47.7886 1395.67 47.7886 Q1405.18 47.7886 1408.95 52.4823 Q1411.73 55.632 1412.29 59.1522 Q1412.84 62.6724 1412.84 71.8127 L1412.84 95.9602 Q1412.96 98.6158 1415 99.2334 Q1417.04 99.7892 1422.72 99.7892 L1422.72 103.68 Q1409.82 103.309 1408.58 103.309 Q1407.59 103.309 1394.25 103.68 L1394.25 99.7892 Q1400.98 99.7892 1402.53 98.9864 Q1404.13 98.1217 1404.13 94.0457 L1404.13 64.5869 Q1404.13 58.1641 1402.16 54.3968 Q1400.18 50.5678 1394.75 50.5678 Q1388.2 50.5678 1382.95 56.0643 Q1377.7 61.5608 1377.7 70.8245 L1377.7 94.0457 Q1377.7 98.1217 1379.24 98.9864 Q1380.85 99.7892 1387.58 99.7892 L1387.58 103.68 Q1374.67 103.309 1373.38 103.309 Q1372.39 103.309 1359.11 103.68 L1359.11 99.7892 Q1365.84 99.7892 1367.39 98.9864 Q1368.99 98.1217 1368.99 94.0457 L1368.99 64.5869 Q1368.99 58.1641 1367.02 54.3968 Q1365.04 50.5678 1359.61 50.5678 Q1353.06 50.5678 1347.81 56.0643 Q1342.56 61.5608 1342.56 70.8245 L1342.56 94.0457 Q1342.56 98.1217 1344.1 98.9864 Q1345.71 99.7892 1352.38 99.7892 L1352.38 103.68 Q1339.47 103.309 1338.24 103.309 Q1337.25 103.309 1323.97 103.68 Z" fill="#000000" fill-rule="nonzero" fill-opacity="1" /><path clip-path="url(#clip550)" d="M1428.71 124.307 Q1435.44 124.307 1436.99 123.443 Q1438.59 122.64 1438.59 118.626 L1438.59 59.3992 Q1438.59 55.1997 1436.99 54.1498 Q1435.44 53.0999 1428.71 53.0999 L1428.71 49.1473 L1446.93 47.7886 L1446.93 56.126 Q1454.53 47.7886 1464.66 47.7886 Q1475.4 47.7886 1483.25 56.126 Q1491.09 64.4634 1491.09 76.3828 Q1491.09 88.4257 1482.75 96.7631 Q1474.41 105.1 1462.87 105.1 Q1456.57 105.1 1452.3 101.889 Q1448.11 98.6158 1447.3 96.2072 L1447.3 97.3806 L1447.3 118.626 Q1447.3 122.702 1448.91 123.504 Q1450.51 124.307 1457.18 124.307 L1457.18 128.198 Q1443.91 127.828 1442.92 127.828 Q1441.68 127.828 1428.71 128.198 L1428.71 124.307 M1447.3 89.2903 Q1447.3 91.2048 1447.55 91.8841 Q1447.86 92.5635 1449.09 94.6015 Q1454.1 102.26 1462.25 102.26 Q1462.31 102.26 1462.37 102.26 Q1469.6 102.26 1475.09 94.9103 Q1480.59 87.4993 1480.59 76.3828 Q1480.59 65.7603 1475.59 58.3493 Q1470.59 50.9383 1463.67 50.9383 Q1458.73 50.9383 1454.4 53.5939 Q1450.08 56.2495 1447.3 61.0667 L1447.3 89.2903 Z" fill="#000000" fill-rule="nonzero" fill-opacity="1" /><path clip-path="url(#clip550)" d="M1499.55 103.68 L1499.55 99.7892 Q1506.28 99.7892 1507.83 98.9864 Q1509.37 98.1217 1509.37 94.0457 L1509.37 28.273 Q1509.37 23.5794 1507.7 22.4059 Q1506.1 21.2325 1499.55 21.2325 L1499.55 17.28 L1517.71 15.9213 L1517.71 94.0457 Q1517.71 98.1217 1519.31 98.9864 Q1520.92 99.7892 1527.59 99.7892 L1527.59 103.68 Q1526.04 103.68 1522.83 103.556 Q1519.62 103.433 1517.27 103.371 Q1514.93 103.309 1513.57 103.309 Q1512.09 103.309 1499.55 103.68 Z" fill="#000000" fill-rule="nonzero" fill-opacity="1" /><path clip-path="url(#clip550)" d="M1533.89 75.827 Q1533.89 63.9076 1541.55 55.4467 Q1549.2 46.9858 1560.2 46.9858 Q1571.31 46.9858 1577.06 54.2115 Q1582.86 61.4373 1582.86 71.8127 Q1582.86 73.7272 1582.37 74.0977 Q1581.87 74.4683 1579.71 74.4683 L1544.39 74.4683 Q1544.39 87.3758 1548.22 93.4281 Q1553.53 101.889 1562.48 101.889 Q1563.72 101.889 1565.2 101.642 Q1566.68 101.395 1569.71 100.345 Q1572.73 99.2334 1575.39 96.3308 Q1578.04 93.4281 1579.59 88.858 Q1579.96 87.067 1581.19 87.1287 Q1582.86 87.1287 1582.86 88.611 Q1582.86 89.7226 1581.63 92.2547 Q1580.45 94.725 1578.17 97.6894 Q1575.88 100.654 1571.44 102.877 Q1567.05 105.1 1561.74 105.1 Q1550.62 105.1 1542.23 96.7013 Q1533.89 88.2404 1533.89 75.827 M1544.51 71.8127 L1574.52 71.8127 Q1574.52 69.1571 1574.03 66.1927 Q1573.6 63.2282 1572.24 59.1522 Q1570.94 55.0144 1567.85 52.4205 Q1564.77 49.8267 1560.2 49.8267 Q1558.16 49.8267 1555.94 50.6913 Q1553.77 51.5559 1551.12 53.6557 Q1548.46 55.7555 1546.61 60.5109 Q1544.76 65.2663 1544.51 71.8127 Z" fill="#000000" fill-rule="nonzero" fill-opacity="1" /><path clip-path="url(#clip550)" d="M1648.63 93.0576 Q1635.67 79.656 1635.67 60.4491 Q1635.67 41.1805 1648.76 27.8407 Q1661.85 14.5009 1679.64 14.5009 Q1684.08 14.5009 1687.85 15.5508 Q1691.68 16.5389 1694.71 18.5769 Q1697.73 20.5532 1699.28 21.9119 Q1700.88 23.2088 1703.04 25.3704 L1709.41 16.0448 Q1710.39 14.5009 1711.38 14.5009 Q1712.43 14.5009 1712.62 15.1185 Q1712.8 15.6743 1712.8 17.527 L1712.8 47.5416 Q1712.8 49.5796 1712.55 50.0737 Q1712.31 50.5678 1710.76 50.5678 Q1709.53 50.5678 1709.28 50.1972 Q1709.03 49.8267 1708.73 48.4062 Q1706.81 34.7576 1699.15 26.6055 Q1691.56 18.4534 1681.18 18.4534 Q1678.16 18.4534 1674.76 19.1328 Q1671.42 19.8121 1666.48 22.4059 Q1661.6 24.9998 1657.84 29.2611 Q1654.13 33.4607 1651.41 41.6128 Q1648.7 49.7032 1648.7 60.4491 Q1648.7 71.0716 1651.41 79.2237 Q1654.13 87.3758 1657.9 91.6371 Q1661.73 95.8367 1666.67 98.4923 Q1671.67 101.148 1675.19 101.889 Q1678.77 102.568 1681.92 102.568 Q1684.08 102.568 1686.62 102.136 Q1689.15 101.642 1692.92 100.283 Q1696.74 98.8628 1699.15 95.5279 Q1701.56 92.1929 1701.56 87.2523 L1701.56 79.1619 Q1701.56 75.3947 1699.71 74.2212 Q1697.86 73.0478 1689.77 73.0478 L1685.75 73.0478 L1685.75 69.1571 Q1690.32 69.5276 1706.07 69.5276 Q1707.49 69.5276 1721.51 69.1571 L1721.51 73.0478 Q1715.46 73.0478 1714.1 73.9742 Q1712.8 74.8388 1712.8 78.6061 L1712.8 100.654 Q1712.8 103.556 1711.69 103.556 Q1710.7 103.556 1707.74 100.716 Q1704.83 97.8747 1703.54 95.7132 Q1700.51 101.024 1693.9 103.742 Q1687.36 106.459 1679.88 106.459 Q1661.67 106.459 1648.63 93.0576 Z" fill="#000000" fill-rule="nonzero" fill-opacity="1" /><path clip-path="url(#clip550)" d="M1731.21 103.68 L1731.21 99.7892 Q1737.94 99.7892 1739.48 98.9864 Q1741.09 98.1217 1741.09 94.0457 L1741.09 60.1403 Q1741.09 55.4467 1739.42 54.2733 Q1737.81 53.0999 1731.21 53.0999 L1731.21 49.1473 L1748.81 47.7886 L1748.81 61.6843 Q1750.6 56.2495 1754.37 52.05 Q1758.19 47.7886 1764.37 47.7886 Q1768.45 47.7886 1771.04 50.0737 Q1773.7 52.3588 1773.7 55.5084 Q1773.7 58.2876 1771.97 59.708 Q1770.3 61.0667 1768.26 61.0667 Q1765.98 61.0667 1764.37 59.6463 Q1762.83 58.1641 1762.83 55.632 Q1762.83 54.088 1763.51 52.9146 Q1764.25 51.6794 1764.8 51.2471 Q1765.36 50.8148 1765.73 50.6913 Q1765.48 50.5678 1764.37 50.5678 Q1757.39 50.5678 1753.38 57.5465 Q1749.42 64.4634 1749.42 74.3448 L1749.42 93.7987 Q1749.42 97.4424 1750.91 98.6158 Q1752.45 99.7892 1759.06 99.7892 L1761.71 99.7892 L1761.71 103.68 Q1756.65 103.309 1745.66 103.309 Q1744.11 103.309 1741.7 103.371 Q1739.3 103.433 1736.15 103.556 Q1733 103.68 1731.21 103.68 Z" fill="#000000" fill-rule="nonzero" fill-opacity="1" /><path clip-path="url(#clip550)" d="M1782.4 91.6371 Q1782.4 80.8912 1795.06 75.2094 Q1802.66 71.5656 1818.35 70.6393 L1818.35 66.0074 Q1818.35 58.1641 1814.21 54.0262 Q1810.13 49.8267 1804.95 49.8267 Q1795.68 49.8267 1791.23 55.632 Q1795 55.7555 1796.36 57.67 Q1797.72 59.5227 1797.72 61.4373 Q1797.72 63.9693 1796.11 65.6368 Q1794.57 67.2425 1791.91 67.2425 Q1789.38 67.2425 1787.71 65.6986 Q1786.05 64.0929 1786.05 61.3137 Q1786.05 55.1379 1791.61 51.0618 Q1797.23 46.9858 1805.19 46.9858 Q1815.57 46.9858 1822.48 53.9645 Q1824.65 56.126 1825.7 58.9052 Q1826.81 61.6843 1826.93 63.537 Q1827.05 65.328 1827.05 68.91 L1827.05 94.1692 Q1827.05 94.9103 1827.3 96.1455 Q1827.55 97.3806 1828.66 98.9864 Q1829.83 100.53 1831.75 100.53 Q1836.32 100.53 1836.26 92.44 L1836.26 85.3378 L1839.47 85.3378 L1839.47 92.44 Q1839.47 99.1716 1835.89 101.827 Q1832.37 104.421 1829.09 104.421 Q1824.89 104.421 1822.24 101.333 Q1819.58 98.2453 1819.21 94.0457 Q1817.3 98.8628 1812.91 102.013 Q1808.59 105.1 1802.66 105.1 Q1798.09 105.1 1793.77 103.927 Q1789.51 102.815 1785.92 99.6657 Q1782.4 96.4543 1782.4 91.6371 M1792.16 91.5136 Q1792.16 96.2072 1795.5 99.2334 Q1798.83 102.26 1803.52 102.26 Q1808.84 102.26 1813.59 98.1835 Q1818.35 94.0457 1818.35 85.9553 L1818.35 73.2949 Q1804.33 73.7889 1798.21 79.4089 Q1792.16 84.9672 1792.16 91.5136 Z" fill="#000000" fill-rule="nonzero" fill-opacity="1" /><path clip-path="url(#clip550)" d="M1843.85 124.307 Q1850.58 124.307 1852.13 123.443 Q1853.73 122.64 1853.73 118.626 L1853.73 59.3992 Q1853.73 55.1997 1852.13 54.1498 Q1850.58 53.0999 1843.85 53.0999 L1843.85 49.1473 L1862.07 47.7886 L1862.07 56.126 Q1869.67 47.7886 1879.8 47.7886 Q1890.54 47.7886 1898.39 56.126 Q1906.23 64.4634 1906.23 76.3828 Q1906.23 88.4257 1897.89 96.7631 Q1889.55 105.1 1878.01 105.1 Q1871.71 105.1 1867.44 101.889 Q1863.25 98.6158 1862.44 96.2072 L1862.44 97.3806 L1862.44 118.626 Q1862.44 122.702 1864.05 123.504 Q1865.65 124.307 1872.32 124.307 L1872.32 128.198 Q1859.05 127.828 1858.06 127.828 Q1856.82 127.828 1843.85 128.198 L1843.85 124.307 M1862.44 89.2903 Q1862.44 91.2048 1862.69 91.8841 Q1863 92.5635 1864.23 94.6015 Q1869.24 102.26 1877.39 102.26 Q1877.45 102.26 1877.51 102.26 Q1884.74 102.26 1890.23 94.9103 Q1895.73 87.4993 1895.73 76.3828 Q1895.73 65.7603 1890.73 58.3493 Q1885.73 50.9383 1878.81 50.9383 Q1873.87 50.9383 1869.54 53.5939 Q1865.22 56.2495 1862.44 61.0667 L1862.44 89.2903 Z" fill="#000000" fill-rule="nonzero" fill-opacity="1" /><path clip-path="url(#clip550)" d="M1914.57 103.68 L1914.57 99.7892 Q1921.3 99.7892 1922.84 98.9864 Q1924.39 98.1217 1924.39 94.0457 L1924.39 28.273 Q1924.39 23.5794 1922.72 22.4059 Q1921.11 21.2325 1914.57 21.2325 L1914.57 17.28 L1932.72 15.9213 L1932.72 59.8933 L1932.85 59.8933 Q1934.88 55.3232 1939.46 51.5559 Q1944.03 47.7886 1951.07 47.7886 Q1960.58 47.7886 1964.34 52.4823 Q1967.12 55.632 1967.68 59.1522 Q1968.3 62.6724 1968.3 71.8127 L1968.3 95.9602 Q1968.42 98.6158 1970.46 99.2334 Q1972.5 99.7892 1978.18 99.7892 L1978.18 103.68 Q1965.27 103.309 1963.97 103.309 Q1962.98 103.309 1949.71 103.68 L1949.71 99.7892 Q1956.44 99.7892 1957.98 98.9864 Q1959.59 98.1217 1959.59 94.0457 L1959.59 64.5869 Q1959.59 58.1641 1957.61 54.3968 Q1955.64 50.5678 1950.2 50.5678 Q1943.65 50.5678 1938.41 56.0643 Q1933.16 61.5608 1933.16 70.8245 L1933.16 94.0457 Q1933.16 98.1217 1934.7 98.9864 Q1936.31 99.7892 1942.98 99.7892 L1942.98 103.68 Q1930.07 103.309 1928.83 103.309 Q1927.84 103.309 1914.57 103.68 Z" fill="#000000" fill-rule="nonzero" fill-opacity="1" /><polyline clip-path="url(#clip552)" style="stroke:#000000; stroke-linecap:round; stroke-linejoin:round; stroke-width:4; stroke-opacity:1; fill:none" points="1902.43,2025.65 1916.82,2016 1931.19,2006.34 1945.54,1996.66 1959.85,1986.94 1974.1,1977.19 1988.3,1967.38 2002.41,1957.51 2016.44,1947.56 2030.36,1937.53 2044.16,1927.4 2057.84,1917.17 2071.38,1906.82 2084.76,1896.35 2097.97,1885.74 2111,1874.98 2123.84,1864.06 2136.47,1852.97 2148.88,1841.7 2161.06,1830.24 2173,1818.58 2184.68,1806.71 2196.08,1794.62 2207.21,1782.29 2218.03,1769.72 2228.55,1756.9 2238.76,1743.82 2248.67,1730.5 2258.3,1716.95 2267.66,1703.17 2276.75,1689.19 2285.61,1675 2294.23,1660.62 2302.63,1646.06 2310.83,1631.34 2318.83,1616.45 2326.65,1601.42 2334.31,1586.25 2341.81,1570.95 2349.16,1555.53 2356.39,1540.01 2363.5,1524.4 2370.51,1508.7 2377.43,1492.92 2384.27,1477.09 2391.05,1461.19 2397.78,1445.26 2404.46,1429.3 2411.12,1413.31 2417.77,1397.31 "/>
<polyline clip-path="url(#clip552)" style="stroke:#000000; stroke-linecap:round; stroke-linejoin:round; stroke-width:4; stroke-opacity:1; fill:none" points="1902.43,2025.65 1891.56,2010.69 1880.71,1995.73 1869.9,1980.76 1859.12,1965.77 1848.42,1950.76 1837.79,1935.72 1827.25,1920.65 1816.82,1905.53 1806.52,1890.37 1796.36,1875.16 1786.35,1859.88 1776.52,1844.55 1766.88,1829.14 1757.43,1813.66 1748.21,1798.1 1739.22,1782.45 1730.49,1766.71 1722.01,1750.88 1713.83,1734.93 1705.93,1718.88 1698.35,1702.71 1691.1,1686.42 1684.2,1670 1677.65,1653.45 1671.48,1636.76 1665.68,1619.94 1660.24,1602.97 1655.15,1585.89 1650.38,1568.68 1645.93,1551.35 1641.78,1533.92 1637.91,1516.38 1634.3,1498.74 1630.94,1481.01 1627.82,1463.19 1624.92,1445.29 1622.22,1427.32 1619.71,1409.27 1617.37,1391.17 1615.19,1373 1613.14,1354.79 1611.23,1336.52 1609.42,1318.22 1607.71,1299.88 1606.07,1281.52 1604.5,1263.12 1602.97,1244.72 1601.48,1226.3 1600,1207.87 "/>
<polyline clip-path="url(#clip552)" style="stroke:#000000; stroke-linecap:round; stroke-linejoin:round; stroke-width:4; stroke-opacity:1; fill:none" points="2417.77,1397.31 2399.95,1398.32 2382.14,1399.32 2364.33,1400.28 2346.54,1401.19 2328.76,1402.03 2310.99,1402.8 2293.25,1403.47 2275.54,1404.02 2257.86,1404.44 2240.21,1404.72 2222.6,1404.84 2205.03,1404.77 2187.5,1404.51 2170.03,1404.04 2152.6,1403.34 2135.24,1402.4 2117.93,1401.2 2100.69,1399.72 2083.51,1397.95 2066.41,1395.87 2049.38,1393.47 2032.43,1390.72 2015.57,1387.62 1998.79,1384.15 1982.1,1380.28 1965.5,1376.02 1948.99,1371.39 1932.56,1366.41 1916.21,1361.08 1899.93,1355.43 1883.73,1349.46 1867.59,1343.21 1851.52,1336.68 1835.51,1329.89 1819.55,1322.85 1803.65,1315.59 1787.8,1308.12 1771.99,1300.45 1756.22,1292.6 1740.49,1284.59 1724.8,1276.44 1709.13,1268.15 1693.49,1259.75 1677.88,1251.25 1662.28,1242.67 1646.7,1234.03 1631.12,1225.34 1615.56,1216.61 1600,1207.87 "/>
<polyline clip-path="url(#clip552)" style="stroke:#000000; stroke-linecap:round; stroke-linejoin:round; stroke-width:4; stroke-opacity:1; fill:none" points="1600,1207.87 1589.14,1192.92 1578.29,1177.96 1567.47,1162.99 1556.7,1148 1545.99,1132.99 1535.36,1117.95 1524.82,1102.87 1514.39,1087.76 1504.09,1072.6 1493.93,1057.38 1483.92,1042.11 1474.09,1026.78 1464.45,1011.37 1455,995.891 1445.78,980.33 1436.79,964.682 1428.06,948.942 1419.58,933.103 1411.39,917.16 1403.5,901.107 1395.92,884.938 1388.67,868.648 1381.76,852.23 1375.22,835.68 1369.05,818.991 1363.25,802.163 1357.81,785.202 1352.72,768.114 1347.95,750.904 1343.5,733.578 1339.35,716.143 1335.47,698.603 1331.87,680.965 1328.51,663.235 1325.39,645.417 1322.49,627.519 1319.79,609.545 1317.28,591.502 1314.94,573.396 1312.75,555.231 1310.71,537.015 1308.8,518.752 1306.99,500.448 1305.27,482.11 1303.64,463.743 1302.07,445.353 1300.54,426.945 1299.05,408.526 1297.57,390.101 "/>
<polyline clip-path="url(#clip552)" style="stroke:#000000; stroke-linecap:round; stroke-linejoin:round; stroke-width:4; stroke-opacity:1; fill:none" points="1600,1207.87 1582.18,1208.88 1564.37,1209.87 1546.56,1210.83 1528.76,1211.75 1510.98,1212.59 1493.22,1213.36 1475.48,1214.02 1457.77,1214.58 1440.09,1215 1422.44,1215.28 1404.83,1215.39 1387.25,1215.33 1369.73,1215.07 1352.25,1214.6 1334.83,1213.9 1317.46,1212.96 1300.16,1211.76 1282.92,1210.28 1265.74,1208.51 1248.64,1206.43 1231.61,1204.03 1214.66,1201.29 1197.79,1198.18 1181.01,1194.71 1164.33,1190.84 1147.73,1186.58 1131.21,1181.95 1114.78,1176.97 1098.43,1171.64 1082.16,1165.99 1065.95,1160.02 1049.82,1153.77 1033.75,1147.24 1017.74,1140.45 1001.78,1133.41 985.877,1126.15 970.024,1118.68 954.215,1111.01 938.448,1103.16 922.719,1095.15 907.023,1087 891.358,1078.71 875.719,1070.31 860.102,1061.82 844.505,1053.24 828.922,1044.59 813.351,1035.9 797.787,1027.18 782.227,1018.44 "/>
<polyline clip-path="url(#clip552)" style="stroke:#000000; stroke-linecap:round; stroke-linejoin:round; stroke-width:4; stroke-opacity:1; fill:none" points="1297.57,390.101 1290.92,406.098 1284.26,422.084 1277.57,438.048 1270.85,453.981 1264.07,469.872 1257.23,485.71 1250.31,501.484 1243.3,517.184 1236.19,532.8 1228.96,548.32 1221.6,563.735 1214.1,579.033 1206.45,594.204 1198.63,609.238 1190.62,624.124 1182.43,638.851 1174.03,653.409 1165.4,667.786 1156.55,681.974 1147.45,695.96 1138.09,709.735 1128.47,723.288 1118.56,736.608 1108.35,749.684 1097.83,762.507 1087,775.077 1075.88,787.403 1064.47,799.497 1052.8,811.368 1040.86,823.028 1028.68,834.487 1016.27,845.756 1003.64,856.844 990.798,867.764 977.766,878.524 964.553,889.137 951.173,899.612 937.638,909.96 923.962,920.191 910.156,930.317 896.234,940.348 882.209,950.294 868.093,960.166 853.901,969.975 839.643,979.73 825.334,989.443 810.987,999.125 796.613,1008.79 782.227,1018.44 "/>
<path clip-path="url(#clip552)" d="M2045.95 2025.65 L1974.19 1901.35 L1830.67 1901.35 L1758.91 2025.65 L1830.67 2149.94 L1974.19 2149.94 L2045.95 2025.65 L2045.95 2025.65  Z" fill="#f5fffa" fill-rule="evenodd" fill-opacity="1"/>
<polyline clip-path="url(#clip552)" style="stroke:#000000; stroke-linecap:round; stroke-linejoin:round; stroke-width:4; stroke-opacity:1; fill:none" points="2045.95,2025.65 1974.19,1901.35 1830.67,1901.35 1758.91,2025.65 1830.67,2149.94 1974.19,2149.94 2045.95,2025.65 "/>
<path clip-path="url(#clip552)" d="M2561.29 1397.31 L2489.53 1273.02 L2346.01 1273.02 L2274.25 1397.31 L2346.01 1521.61 L2489.53 1521.61 L2561.29 1397.31 L2561.29 1397.31  Z" fill="#f5fffa" fill-rule="evenodd" fill-opacity="1"/>
<polyline clip-path="url(#clip552)" style="stroke:#000000; stroke-linecap:round; stroke-linejoin:round; stroke-width:4; stroke-opacity:1; fill:none" points="2561.29,1397.31 2489.53,1273.02 2346.01,1273.02 2274.25,1397.31 2346.01,1521.61 2489.53,1521.61 2561.29,1397.31 "/>
<path clip-path="url(#clip552)" d="M1743.52 1207.87 L1671.76 1083.58 L1528.24 1083.58 L1456.48 1207.87 L1528.24 1332.17 L1671.76 1332.17 L1743.52 1207.87 L1743.52 1207.87  Z" fill="#f5fffa" fill-rule="evenodd" fill-opacity="1"/>
<polyline clip-path="url(#clip552)" style="stroke:#000000; stroke-linecap:round; stroke-linejoin:round; stroke-width:4; stroke-opacity:1; fill:none" points="1743.52,1207.87 1671.76,1083.58 1528.24,1083.58 1456.48,1207.87 1528.24,1332.17 1671.76,1332.17 1743.52,1207.87 "/>
<path clip-path="url(#clip552)" d="M1441.09 390.101 L1369.33 265.808 L1225.81 265.808 L1154.05 390.101 L1225.81 514.395 L1369.33 514.395 L1441.09 390.101 L1441.09 390.101  Z" fill="#f5fffa" fill-rule="evenodd" fill-opacity="1"/>
<polyline clip-path="url(#clip552)" style="stroke:#000000; stroke-linecap:round; stroke-linejoin:round; stroke-width:4; stroke-opacity:1; fill:none" points="1441.09,390.101 1369.33,265.808 1225.81,265.808 1154.05,390.101 1225.81,514.395 1369.33,514.395 1441.09,390.101 "/>
<path clip-path="url(#clip552)" d="M925.749 1018.44 L853.988 894.142 L710.466 894.142 L638.706 1018.44 L710.466 1142.73 L853.988 1142.73 L925.749 1018.44 L925.749 1018.44  Z" fill="#f5fffa" fill-rule="evenodd" fill-opacity="1"/>
<polyline clip-path="url(#clip552)" style="stroke:#000000; stroke-linecap:round; stroke-linejoin:round; stroke-width:4; stroke-opacity:1; fill:none" points="925.749,1018.44 853.988,894.142 710.466,894.142 638.706,1018.44 710.466,1142.73 853.988,1142.73 925.749,1018.44 "/>
<path clip-path="url(#clip552)" d="M1902.43 2026.45 L1901.74 2026.05 L1901.74 2025.25 L1902.43 2024.85 L1903.12 2025.25 L1903.12 2026.05 Z" fill="#f5fffa" fill-rule="evenodd" fill-opacity="1" stroke="#000000" stroke-opacity="1" stroke-width="4.8"/>
<path clip-path="url(#clip552)" d="M2417.77 1398.11 L2417.08 1397.71 L2417.08 1396.91 L2417.77 1396.51 L2418.47 1396.91 L2418.47 1397.71 Z" fill="#f5fffa" fill-rule="evenodd" fill-opacity="1" stroke="#000000" stroke-opacity="1" stroke-width="4.8"/>
<path clip-path="url(#clip552)" d="M1600 1208.67 L1599.31 1208.27 L1599.31 1207.47 L1600 1207.07 L1600.69 1207.47 L1600.69 1208.27 Z" fill="#f5fffa" fill-rule="evenodd" fill-opacity="1" stroke="#000000" stroke-opacity="1" stroke-width="4.8"/>
<path clip-path="url(#clip552)" d="M1297.57 390.901 L1296.88 390.501 L1296.88 389.701 L1297.57 389.301 L1298.26 389.701 L1298.26 390.501 Z" fill="#f5fffa" fill-rule="evenodd" fill-opacity="1" stroke="#000000" stroke-opacity="1" stroke-width="4.8"/>
<path clip-path="url(#clip552)" d="M782.227 1019.24 L781.534 1018.84 L781.534 1018.04 L782.227 1017.64 L782.92 1018.04 L782.92 1018.84 Z" fill="#f5fffa" fill-rule="evenodd" fill-opacity="1" stroke="#000000" stroke-opacity="1" stroke-width="4.8"/>
<path clip-path="url(#clip550)" d="M1889.77 2013.22 Q1886.61 2013.22 1885.01 2016.34 Q1883.43 2019.44 1883.43 2025.68 Q1883.43 2031.9 1885.01 2035.01 Q1886.61 2038.11 1889.77 2038.11 Q1892.95 2038.11 1894.53 2035.01 Q1896.13 2031.9 1896.13 2025.68 Q1896.13 2019.44 1894.53 2016.34 Q1892.95 2013.22 1889.77 2013.22 M1889.77 2009.98 Q1894.85 2009.98 1897.53 2014.01 Q1900.22 2018.02 1900.22 2025.68 Q1900.22 2033.31 1897.53 2037.34 Q1894.85 2041.35 1889.77 2041.35 Q1884.69 2041.35 1881.99 2037.34 Q1879.32 2033.31 1879.32 2025.68 Q1879.32 2018.02 1881.99 2014.01 Q1884.69 2009.98 1889.77 2009.98 Z" fill="#000000" fill-rule="nonzero" fill-opacity="1" /><path clip-path="url(#clip550)" d="M1908.12 2037.32 L1914.81 2037.32 L1914.81 2014.25 L1907.53 2015.71 L1907.53 2011.99 L1914.76 2010.53 L1918.86 2010.53 L1918.86 2037.32 L1925.54 2037.32 L1925.54 2040.77 L1908.12 2040.77 L1908.12 2037.32 Z" fill="#000000" fill-rule="nonzero" fill-opacity="1" /><path clip-path="url(#clip550)" d="M2405.28 1384.89 Q2402.12 1384.89 2400.52 1388.01 Q2398.94 1391.11 2398.94 1397.35 Q2398.94 1403.56 2400.52 1406.68 Q2402.12 1409.78 2405.28 1409.78 Q2408.46 1409.78 2410.04 1406.68 Q2411.64 1403.56 2411.64 1397.35 Q2411.64 1391.11 2410.04 1388.01 Q2408.46 1384.89 2405.28 1384.89 M2405.28 1381.65 Q2410.36 1381.65 2413.03 1385.68 Q2415.73 1389.69 2415.73 1397.35 Q2415.73 1404.98 2413.03 1409.01 Q2410.36 1413.02 2405.28 1413.02 Q2400.19 1413.02 2397.5 1409.01 Q2394.82 1404.98 2394.82 1397.35 Q2394.82 1389.69 2397.5 1385.68 Q2400.19 1381.65 2405.28 1381.65 Z" fill="#000000" fill-rule="nonzero" fill-opacity="1" /><path clip-path="url(#clip550)" d="M2426.44 1408.99 L2440.72 1408.99 L2440.72 1412.43 L2421.52 1412.43 L2421.52 1408.99 Q2423.85 1406.58 2427.86 1402.53 Q2431.89 1398.46 2432.92 1397.28 Q2434.89 1395.08 2435.66 1393.56 Q2436.45 1392.02 2436.45 1390.54 Q2436.45 1388.13 2434.75 1386.61 Q2433.06 1385.09 2430.35 1385.09 Q2428.43 1385.09 2426.28 1385.76 Q2424.15 1386.43 2421.72 1387.78 L2421.72 1383.65 Q2424.19 1382.66 2426.34 1382.15 Q2428.49 1381.65 2430.27 1381.65 Q2434.97 1381.65 2437.76 1384 Q2440.56 1386.35 2440.56 1390.28 Q2440.56 1392.14 2439.85 1393.82 Q2439.16 1395.48 2437.32 1397.75 Q2436.81 1398.34 2434.1 1401.15 Q2431.38 1403.95 2426.44 1408.99 Z" fill="#000000" fill-rule="nonzero" fill-opacity="1" /><path clip-path="url(#clip550)" d="M1587.09 1195.45 Q1583.93 1195.45 1582.33 1198.57 Q1580.75 1201.67 1580.75 1207.9 Q1580.75 1214.12 1582.33 1217.24 Q1583.93 1220.34 1587.09 1220.34 Q1590.27 1220.34 1591.85 1217.24 Q1593.45 1214.12 1593.45 1207.9 Q1593.45 1201.67 1591.85 1198.57 Q1590.27 1195.45 1587.09 1195.45 M1587.09 1192.21 Q1592.17 1192.21 1594.85 1196.24 Q1597.54 1200.25 1597.54 1207.9 Q1597.54 1215.54 1594.85 1219.57 Q1592.17 1223.58 1587.09 1223.58 Q1582 1223.58 1579.31 1219.57 Q1576.64 1215.54 1576.64 1207.9 Q1576.64 1200.25 1579.31 1196.24 Q1582 1192.21 1587.09 1192.21 Z" fill="#000000" fill-rule="nonzero" fill-opacity="1" /><path clip-path="url(#clip550)" d="M1617.13 1206.69 Q1620.06 1207.32 1621.7 1209.3 Q1623.36 1211.29 1623.36 1214.2 Q1623.36 1218.68 1620.29 1221.13 Q1617.21 1223.58 1611.54 1223.58 Q1609.63 1223.58 1607.61 1223.2 Q1605.6 1222.83 1603.45 1222.08 L1603.45 1218.13 Q1605.16 1219.12 1607.18 1219.63 Q1609.21 1220.14 1611.41 1220.14 Q1615.26 1220.14 1617.27 1218.62 Q1619.29 1217.1 1619.29 1214.2 Q1619.29 1211.53 1617.41 1210.03 Q1615.55 1208.51 1612.2 1208.51 L1608.68 1208.51 L1608.68 1205.15 L1612.37 1205.15 Q1615.38 1205.15 1616.98 1203.95 Q1618.58 1202.74 1618.58 1200.47 Q1618.58 1198.14 1616.92 1196.91 Q1615.28 1195.65 1612.2 1195.65 Q1610.52 1195.65 1608.6 1196.01 Q1606.67 1196.38 1604.37 1197.15 L1604.37 1193.5 Q1606.69 1192.85 1608.72 1192.53 Q1610.77 1192.21 1612.57 1192.21 Q1617.23 1192.21 1619.94 1194.33 Q1622.66 1196.44 1622.66 1200.04 Q1622.66 1202.56 1621.22 1204.3 Q1619.78 1206.02 1617.13 1206.69 Z" fill="#000000" fill-rule="nonzero" fill-opacity="1" /><path clip-path="url(#clip550)" d="M1284.16 377.675 Q1281 377.675 1279.4 380.794 Q1277.82 383.893 1277.82 390.132 Q1277.82 396.35 1279.4 399.469 Q1281 402.568 1284.16 402.568 Q1287.34 402.568 1288.92 399.469 Q1290.52 396.35 1290.52 390.132 Q1290.52 383.893 1288.92 380.794 Q1287.34 377.675 1284.16 377.675 M1284.16 374.434 Q1289.24 374.434 1291.92 378.465 Q1294.61 382.475 1294.61 390.132 Q1294.61 397.768 1291.92 401.798 Q1289.24 405.809 1284.16 405.809 Q1279.08 405.809 1276.38 401.798 Q1273.71 397.768 1273.71 390.132 Q1273.71 382.475 1276.38 378.465 Q1279.08 374.434 1284.16 374.434 Z" fill="#000000" fill-rule="nonzero" fill-opacity="1" /><path clip-path="url(#clip550)" d="M1313.04 378.546 L1302.71 394.689 L1313.04 394.689 L1313.04 378.546 M1311.97 374.981 L1317.11 374.981 L1317.11 394.689 L1321.43 394.689 L1321.43 398.092 L1317.11 398.092 L1317.11 405.221 L1313.04 405.221 L1313.04 398.092 L1299.39 398.092 L1299.39 394.142 L1311.97 374.981 Z" fill="#000000" fill-rule="nonzero" fill-opacity="1" /><path clip-path="url(#clip550)" d="M769.467 1006.01 Q766.307 1006.01 764.707 1009.13 Q763.127 1012.23 763.127 1018.47 Q763.127 1024.68 764.707 1027.8 Q766.307 1030.9 769.467 1030.9 Q772.647 1030.9 774.227 1027.8 Q775.827 1024.68 775.827 1018.47 Q775.827 1012.23 774.227 1009.13 Q772.647 1006.01 769.467 1006.01 M769.467 1002.77 Q774.551 1002.77 777.224 1006.8 Q779.918 1010.81 779.918 1018.47 Q779.918 1026.1 777.224 1030.13 Q774.551 1034.14 769.467 1034.14 Q764.383 1034.14 761.689 1030.13 Q759.016 1026.1 759.016 1018.47 Q759.016 1010.81 761.689 1006.8 Q764.383 1002.77 769.467 1002.77 Z" fill="#000000" fill-rule="nonzero" fill-opacity="1" /><path clip-path="url(#clip550)" d="M787.149 1003.32 L803.211 1003.32 L803.211 1006.76 L790.896 1006.76 L790.896 1014.17 Q791.787 1013.87 792.679 1013.73 Q793.57 1013.56 794.461 1013.56 Q799.525 1013.56 802.482 1016.34 Q805.439 1019.11 805.439 1023.85 Q805.439 1028.73 802.401 1031.45 Q799.363 1034.14 793.833 1034.14 Q791.929 1034.14 789.944 1033.82 Q787.98 1033.49 785.873 1032.85 L785.873 1028.73 Q787.696 1029.73 789.64 1030.21 Q791.585 1030.7 793.752 1030.7 Q797.256 1030.7 799.302 1028.86 Q801.347 1027.01 801.347 1023.85 Q801.347 1020.69 799.302 1018.85 Q797.256 1017.01 793.752 1017.01 Q792.111 1017.01 790.471 1017.37 Q788.85 1017.74 787.149 1018.51 L787.149 1003.32 Z" fill="#000000" fill-rule="nonzero" fill-opacity="1" /></svg>
