<?xml version="1.0" encoding="utf-8"?>
<svg xmlns="http://www.w3.org/2000/svg" xmlns:xlink="http://www.w3.org/1999/xlink" width="800" height="600" viewBox="0 0 3200 2400">
<defs>
  <clipPath id="clip470">
    <rect x="0" y="0" width="3200" height="2400"/>
  </clipPath>
</defs>
<path clip-path="url(#clip470)" d="
M0 2400 L3200 2400 L3200 0 L0 0  Z
  " fill="#ffffff" fill-rule="evenodd" fill-opacity="1"/>
<defs>
  <clipPath id="clip471">
    <rect x="640" y="0" width="2241" height="2241"/>
  </clipPath>
</defs>
<path clip-path="url(#clip470)" d="
M455.118 2352.76 L2744.88 2352.76 L2744.88 62.9921 L455.118 62.9921  Z
  " fill="#ffffff" fill-rule="evenodd" fill-opacity="1"/>
<defs>
  <clipPath id="clip472">
    <rect x="455" y="62" width="2291" height="2291"/>
  </clipPath>
</defs>
<path clip-path="url(#clip470)" d="M1221.82 103.433 L1221.82 78.112 Q1221.82 76.6916 1221.88 76.1975 Q1221.95 75.7034 1222.32 75.3329 Q1222.69 74.9623 1223.43 74.9623 Q1224.85 74.9623 1224.97 76.2593 Q1225.34 88.7962 1232.82 95.7132 Q1240.16 102.568 1252.76 102.568 Q1260.36 102.568 1265.05 97.1336 Q1269.75 91.6371 1269.75 84.4731 Q1269.75 77.618 1265.79 72.8008 Q1264.13 70.6393 1262.03 69.2806 Q1259.99 67.8601 1258.69 67.4278 Q1257.46 66.9955 1255.05 66.3779 Q1239.36 62.6107 1238.37 62.1784 Q1230.9 59.6463 1226.33 53.2851 Q1221.82 46.8623 1221.82 39.019 Q1221.82 28.8906 1228.92 21.7266 Q1236.09 14.5009 1246.46 14.5009 Q1251.65 14.5009 1255.97 16.1683 Q1260.36 17.7741 1262.15 19.2563 Q1263.94 20.7385 1266.72 23.3941 L1271.11 16.1683 Q1272.09 14.5009 1273.02 14.5009 Q1274.01 14.5009 1274.19 15.1185 Q1274.44 15.6743 1274.44 17.527 L1274.44 42.9715 Q1274.44 44.3919 1274.38 44.886 Q1274.32 45.3801 1273.88 45.6889 Q1273.51 45.9977 1272.77 45.9977 Q1271.54 45.9977 1271.23 44.5155 Q1267.71 18.0829 1246.59 18.0829 Q1239.36 18.0829 1234.61 22.9618 Q1229.91 27.7789 1229.91 34.6341 Q1229.91 40.1924 1233.37 44.7625 Q1236.83 49.2709 1242.7 50.6913 L1258.88 54.5821 Q1266.97 56.4966 1272.4 63.6606 Q1277.84 70.8245 1277.84 80.1501 Q1277.84 90.896 1270.8 98.6776 Q1263.82 106.459 1252.89 106.459 Q1245.04 106.459 1238.99 103.865 Q1232.94 101.271 1229.67 97.6277 Q1227.13 101.827 1225.47 104.174 L1225.1 104.792 Q1224.11 106.459 1223.18 106.459 Q1222.19 106.459 1222.01 105.842 Q1221.82 105.224 1221.82 103.433 Z" fill="#000000" fill-rule="evenodd" fill-opacity="1" /><path clip-path="url(#clip470)" d="M1289.08 103.68 L1289.08 99.7892 Q1295.81 99.7892 1297.35 98.9864 Q1298.9 98.1217 1298.9 94.0457 L1298.9 60.0168 Q1298.9 55.3232 1297.29 54.2115 Q1295.75 53.0999 1289.57 53.0999 L1289.57 49.1473 L1307.23 47.7886 L1307.23 94.1692 Q1307.23 97.9365 1308.59 98.8628 Q1309.95 99.7892 1316.13 99.7892 L1316.13 103.68 Q1303.22 103.309 1302.97 103.309 Q1301.24 103.309 1289.08 103.68 M1294.39 25.7409 Q1294.39 23.2088 1296.3 21.1708 Q1298.28 19.071 1301.06 19.071 Q1303.84 19.071 1305.81 20.9855 Q1307.79 22.8383 1307.79 25.8027 Q1307.79 28.7053 1305.81 30.6198 Q1303.84 32.4726 1301.06 32.4726 Q1298.16 32.4726 1296.24 30.4345 Q1294.39 28.3965 1294.39 25.7409 Z" fill="#000000" fill-rule="evenodd" fill-opacity="1" /><path clip-path="url(#clip470)" d="M1323.97 103.68 L1323.97 99.7892 Q1330.7 99.7892 1332.25 98.9864 Q1333.79 98.1217 1333.79 94.0457 L1333.79 60.1403 Q1333.79 55.4467 1332.12 54.2733 Q1330.52 53.0999 1323.97 53.0999 L1323.97 49.1473 L1341.76 47.7886 L1341.76 61.0667 Q1347.69 47.7886 1360.47 47.7886 Q1375.29 47.7886 1377.33 60.1403 Q1379.49 55.3232 1384 51.5559 Q1388.57 47.7886 1395.67 47.7886 Q1405.18 47.7886 1408.95 52.4823 Q1411.73 55.632 1412.29 59.1522 Q1412.84 62.6724 1412.84 71.8127 L1412.84 95.9602 Q1412.96 98.6158 1415 99.2334 Q1417.04 99.7892 1422.72 99.7892 L1422.72 103.68 Q1409.82 103.309 1408.58 103.309 Q1407.59 103.309 1394.25 103.68 L1394.25 99.7892 Q1400.98 99.7892 1402.53 98.9864 Q1404.13 98.1217 1404.13 94.0457 L1404.13 64.5869 Q1404.13 58.1641 1402.16 54.3968 Q1400.18 50.5678 1394.75 50.5678 Q1388.2 50.5678 1382.95 56.0643 Q1377.7 61.5608 1377.7 70.8245 L1377.7 94.0457 Q1377.7 98.1217 1379.24 98.9864 Q1380.85 99.7892 1387.58 99.7892 L1387.58 103.68 Q1374.67 103.309 1373.38 103.309 Q1372.39 103.309 1359.11 103.68 L1359.11 99.7892 Q1365.84 99.7892 1367.39 98.9864 Q1368.99 98.1217 1368.99 94.0457 L1368.99 64.5869 Q1368.99 58.1641 1367.02 54.3968 Q1365.04 50.5678 1359.61 50.5678 Q1353.06 50.5678 1347.81 56.0643 Q1342.56 61.5608 1342.56 70.8245 L1342.56 94.0457 Q1342.56 98.1217 1344.1 98.9864 Q1345.71 99.7892 1352.38 99.7892 L1352.38 103.68 Q1339.47 103.309 1338.24 103.309 Q1337.25 103.309 1323.97 103.68 Z" fill="#000000" fill-rule="evenodd" fill-opacity="1" /><path clip-path="url(#clip470)" d="M1428.71 124.307 Q1435.44 124.307 1436.99 123.443 Q1438.59 122.64 1438.59 118.626 L1438.59 59.3992 Q1438.59 55.1997 1436.99 54.1498 Q1435.44 53.0999 1428.71 53.0999 L1428.71 49.1473 L1446.93 47.7886 L1446.93 56.126 Q1454.53 47.7886 1464.66 47.7886 Q1475.4 47.7886 1483.25 56.126 Q1491.09 64.4634 1491.09 76.3828 Q1491.09 88.4257 1482.75 96.7631 Q1474.41 105.1 1462.87 105.1 Q1456.57 105.1 1452.3 101.889 Q1448.11 98.6158 1447.3 96.2072 L1447.3 97.3806 L1447.3 118.626 Q1447.3 122.702 1448.91 123.504 Q1450.51 124.307 1457.18 124.307 L1457.18 128.198 Q1443.91 127.828 1442.92 127.828 Q1441.68 127.828 1428.71 128.198 L1428.71 124.307 M1447.3 89.2903 Q1447.3 91.2048 1447.55 91.8841 Q1447.86 92.5635 1449.09 94.6015 Q1454.1 102.26 1462.25 102.26 Q1462.31 102.26 1462.37 102.26 Q1469.6 102.26 1475.09 94.9103 Q1480.59 87.4993 1480.59 76.3828 Q1480.59 65.7603 1475.59 58.3493 Q1470.59 50.9383 1463.67 50.9383 Q1458.73 50.9383 1454.4 53.5939 Q1450.08 56.2495 1447.3 61.0667 L1447.3 89.2903 Z" fill="#000000" fill-rule="evenodd" fill-opacity="1" /><path clip-path="url(#clip470)" d="M1499.55 103.68 L1499.55 99.7892 Q1506.28 99.7892 1507.83 98.9864 Q1509.37 98.1217 1509.37 94.0457 L1509.37 28.273 Q1509.37 23.5794 1507.7 22.4059 Q1506.1 21.2325 1499.55 21.2325 L1499.55 17.28 L1517.71 15.9213 L1517.71 94.0457 Q1517.71 98.1217 1519.31 98.9864 Q1520.92 99.7892 1527.59 99.7892 L1527.59 103.68 Q1526.04 103.68 1522.83 103.556 Q1519.62 103.433 1517.27 103.371 Q1514.93 103.309 1513.57 103.309 Q1512.09 103.309 1499.55 103.68 Z" fill="#000000" fill-rule="evenodd" fill-opacity="1" /><path clip-path="url(#clip470)" d="M1533.89 75.827 Q1533.89 63.9076 1541.55 55.4467 Q1549.2 46.9858 1560.2 46.9858 Q1571.31 46.9858 1577.06 54.2115 Q1582.86 61.4373 1582.86 71.8127 Q1582.86 73.7272 1582.37 74.0977 Q1581.87 74.4683 1579.71 74.4683 L1544.39 74.4683 Q1544.39 87.3758 1548.22 93.4281 Q1553.53 101.889 1562.48 101.889 Q1563.72 101.889 1565.2 101.642 Q1566.68 101.395 1569.71 100.345 Q1572.73 99.2334 1575.39 96.3308 Q1578.04 93.4281 1579.59 88.858 Q1579.96 87.067 1581.19 87.1287 Q1582.86 87.1287 1582.86 88.611 Q1582.86 89.7226 1581.63 92.2547 Q1580.45 94.725 1578.17 97.6894 Q1575.88 100.654 1571.44 102.877 Q1567.05 105.1 1561.74 105.1 Q1550.62 105.1 1542.23 96.7013 Q1533.89 88.2404 1533.89 75.827 M1544.51 71.8127 L1574.52 71.8127 Q1574.52 69.1571 1574.03 66.1927 Q1573.6 63.2282 1572.24 59.1522 Q1570.94 55.0144 1567.85 52.4205 Q1564.77 49.8267 1560.2 49.8267 Q1558.16 49.8267 1555.94 50.6913 Q1553.77 51.5559 1551.12 53.6557 Q1548.46 55.7555 1546.61 60.5109 Q1544.76 65.2663 1544.51 71.8127 Z" fill="#000000" fill-rule="evenodd" fill-opacity="1" /><path clip-path="url(#clip470)" d="M1648.63 93.0576 Q1635.67 79.656 1635.67 60.4491 Q1635.67 41.1805 1648.76 27.8407 Q1661.85 14.5009 1679.64 14.5009 Q1684.08 14.5009 1687.85 15.5508 Q1691.68 16.5389 1694.71 18.5769 Q1697.73 20.5532 1699.28 21.9119 Q1700.88 23.2088 1703.04 25.3704 L1709.41 16.0448 Q1710.39 14.5009 1711.38 14.5009 Q1712.43 14.5009 1712.62 15.1185 Q1712.8 15.6743 1712.8 17.527 L1712.8 47.5416 Q1712.8 49.5796 1712.55 50.0737 Q1712.31 50.5678 1710.76 50.5678 Q1709.53 50.5678 1709.28 50.1972 Q1709.03 49.8267 1708.73 48.4062 Q1706.81 34.7576 1699.15 26.6055 Q1691.56 18.4534 1681.18 18.4534 Q1678.16 18.4534 1674.76 19.1328 Q1671.42 19.8121 1666.48 22.4059 Q1661.6 24.9998 1657.84 29.2611 Q1654.13 33.4607 1651.41 41.6128 Q1648.7 49.7032 1648.7 60.4491 Q1648.7 71.0716 1651.41 79.2237 Q1654.13 87.3758 1657.9 91.6371 Q1661.73 95.8367 1666.67 98.4923 Q1671.67 101.148 1675.19 101.889 Q1678.77 102.568 1681.92 102.568 Q1684.08 102.568 1686.62 102.136 Q1689.15 101.642 1692.92 100.283 Q1696.74 98.8628 1699.15 95.5279 Q1701.56 92.1929 1701.56 87.2523 L1701.56 79.1619 Q1701.56 75.3947 1699.71 74.2212 Q1697.86 73.0478 1689.77 73.0478 L1685.75 73.0478 L1685.75 69.1571 Q1690.32 69.5276 1706.07 69.5276 Q1707.49 69.5276 1721.51 69.1571 L1721.51 73.0478 Q1715.46 73.0478 1714.1 73.9742 Q1712.8 74.8388 1712.8 78.6061 L1712.8 100.654 Q1712.8 103.556 1711.69 103.556 Q1710.7 103.556 1707.74 100.716 Q1704.83 97.8747 1703.54 95.7132 Q1700.51 101.024 1693.9 103.742 Q1687.36 106.459 1679.88 106.459 Q1661.67 106.459 1648.63 93.0576 Z" fill="#000000" fill-rule="evenodd" fill-opacity="1" /><path clip-path="url(#clip470)" d="M1731.21 103.68 L1731.21 99.7892 Q1737.94 99.7892 1739.48 98.9864 Q1741.09 98.1217 1741.09 94.0457 L1741.09 60.1403 Q1741.09 55.4467 1739.42 54.2733 Q1737.81 53.0999 1731.21 53.0999 L1731.21 49.1473 L1748.81 47.7886 L1748.81 61.6843 Q1750.6 56.2495 1754.37 52.05 Q1758.19 47.7886 1764.37 47.7886 Q1768.45 47.7886 1771.04 50.0737 Q1773.7 52.3588 1773.7 55.5084 Q1773.7 58.2876 1771.97 59.708 Q1770.3 61.0667 1768.26 61.0667 Q1765.98 61.0667 1764.37 59.6463 Q1762.83 58.1641 1762.83 55.632 Q1762.83 54.088 1763.51 52.9146 Q1764.25 51.6794 1764.8 51.2471 Q1765.36 50.8148 1765.73 50.6913 Q1765.48 50.5678 1764.37 50.5678 Q1757.39 50.5678 1753.38 57.5465 Q1749.42 64.4634 1749.42 74.3448 L1749.42 93.7987 Q1749.42 97.4424 1750.91 98.6158 Q1752.45 99.7892 1759.06 99.7892 L1761.71 99.7892 L1761.71 103.68 Q1756.65 103.309 1745.66 103.309 Q1744.11 103.309 1741.7 103.371 Q1739.3 103.433 1736.15 103.556 Q1733 103.68 1731.21 103.68 Z" fill="#000000" fill-rule="evenodd" fill-opacity="1" /><path clip-path="url(#clip470)" d="M1782.4 91.6371 Q1782.4 80.8912 1795.06 75.2094 Q1802.66 71.5656 1818.35 70.6393 L1818.35 66.0074 Q1818.35 58.1641 1814.21 54.0262 Q1810.13 49.8267 1804.95 49.8267 Q1795.68 49.8267 1791.23 55.632 Q1795 55.7555 1796.36 57.67 Q1797.72 59.5227 1797.72 61.4373 Q1797.72 63.9693 1796.11 65.6368 Q1794.57 67.2425 1791.91 67.2425 Q1789.38 67.2425 1787.71 65.6986 Q1786.05 64.0929 1786.05 61.3137 Q1786.05 55.1379 1791.61 51.0618 Q1797.23 46.9858 1805.19 46.9858 Q1815.57 46.9858 1822.48 53.9645 Q1824.65 56.126 1825.7 58.9052 Q1826.81 61.6843 1826.93 63.537 Q1827.05 65.328 1827.05 68.91 L1827.05 94.1692 Q1827.05 94.9103 1827.3 96.1455 Q1827.55 97.3806 1828.66 98.9864 Q1829.83 100.53 1831.75 100.53 Q1836.32 100.53 1836.26 92.44 L1836.26 85.3378 L1839.47 85.3378 L1839.47 92.44 Q1839.47 99.1716 1835.89 101.827 Q1832.37 104.421 1829.09 104.421 Q1824.89 104.421 1822.24 101.333 Q1819.58 98.2453 1819.21 94.0457 Q1817.3 98.8628 1812.91 102.013 Q1808.59 105.1 1802.66 105.1 Q1798.09 105.1 1793.77 103.927 Q1789.51 102.815 1785.92 99.6657 Q1782.4 96.4543 1782.4 91.6371 M1792.16 91.5136 Q1792.16 96.2072 1795.5 99.2334 Q1798.83 102.26 1803.52 102.26 Q1808.84 102.26 1813.59 98.1835 Q1818.35 94.0457 1818.35 85.9553 L1818.35 73.2949 Q1804.33 73.7889 1798.21 79.4089 Q1792.16 84.9672 1792.16 91.5136 Z" fill="#000000" fill-rule="evenodd" fill-opacity="1" /><path clip-path="url(#clip470)" d="M1843.85 124.307 Q1850.58 124.307 1852.13 123.443 Q1853.73 122.64 1853.73 118.626 L1853.73 59.3992 Q1853.73 55.1997 1852.13 54.1498 Q1850.58 53.0999 1843.85 53.0999 L1843.85 49.1473 L1862.07 47.7886 L1862.07 56.126 Q1869.67 47.7886 1879.8 47.7886 Q1890.54 47.7886 1898.39 56.126 Q1906.23 64.4634 1906.23 76.3828 Q1906.23 88.4257 1897.89 96.7631 Q1889.55 105.1 1878.01 105.1 Q1871.71 105.1 1867.44 101.889 Q1863.25 98.6158 1862.44 96.2072 L1862.44 97.3806 L1862.44 118.626 Q1862.44 122.702 1864.05 123.504 Q1865.65 124.307 1872.32 124.307 L1872.32 128.198 Q1859.05 127.828 1858.06 127.828 Q1856.82 127.828 1843.85 128.198 L1843.85 124.307 M1862.44 89.2903 Q1862.44 91.2048 1862.69 91.8841 Q1863 92.5635 1864.23 94.6015 Q1869.24 102.26 1877.39 102.26 Q1877.45 102.26 1877.51 102.26 Q1884.74 102.26 1890.23 94.9103 Q1895.73 87.4993 1895.73 76.3828 Q1895.73 65.7603 1890.73 58.3493 Q1885.73 50.9383 1878.81 50.9383 Q1873.87 50.9383 1869.54 53.5939 Q1865.22 56.2495 1862.44 61.0667 L1862.44 89.2903 Z" fill="#000000" fill-rule="evenodd" fill-opacity="1" /><path clip-path="url(#clip470)" d="M1914.57 103.68 L1914.57 99.7892 Q1921.3 99.7892 1922.84 98.9864 Q1924.39 98.1217 1924.39 94.0457 L1924.39 28.273 Q1924.39 23.5794 1922.72 22.4059 Q1921.11 21.2325 1914.57 21.2325 L1914.57 17.28 L1932.72 15.9213 L1932.72 59.8933 L1932.85 59.8933 Q1934.88 55.3232 1939.46 51.5559 Q1944.03 47.7886 1951.07 47.7886 Q1960.58 47.7886 1964.34 52.4823 Q1967.12 55.632 1967.68 59.1522 Q1968.3 62.6724 1968.3 71.8127 L1968.3 95.9602 Q1968.42 98.6158 1970.46 99.2334 Q1972.5 99.7892 1978.18 99.7892 L1978.18 103.68 Q1965.27 103.309 1963.97 103.309 Q1962.98 103.309 1949.71 103.68 L1949.71 99.7892 Q1956.44 99.7892 1957.98 98.9864 Q1959.59 98.1217 1959.59 94.0457 L1959.59 64.5869 Q1959.59 58.1641 1957.61 54.3968 Q1955.64 50.5678 1950.2 50.5678 Q1943.65 50.5678 1938.41 56.0643 Q1933.16 61.5608 1933.16 70.8245 L1933.16 94.0457 Q1933.16 98.1217 1934.7 98.9864 Q1936.31 99.7892 1942.98 99.7892 L1942.98 103.68 Q1930.07 103.309 1928.83 103.309 Q1927.84 103.309 1914.57 103.68 Z" fill="#000000" fill-rule="evenodd" fill-opacity="1" /><polyline clip-path="url(#clip472)" style="stroke:#000000; stroke-linecap:butt; stroke-linejoin:round; stroke-width:4; stroke-opacity:1; fill:none" points="
  1129.92,390.101 1127.45,409.209 1124.96,428.31 1122.45,447.398 1119.89,466.468 1117.26,485.511 1114.56,504.524 1111.77,523.497 1108.86,542.427 1105.84,561.305 
  1102.68,580.126 1099.36,598.884 1095.87,617.572 1092.2,636.183 1088.32,654.711 1084.23,673.151 1079.91,691.495 1075.35,709.737 1070.52,727.871 1065.41,745.891 
  1060.01,763.789 1054.3,781.561 1048.27,799.198 1041.9,816.696 1035.17,834.048 1028.07,851.247 1020.61,868.293 1012.79,885.194 1004.63,901.954 996.148,918.581 
  987.356,935.08 978.272,951.459 968.91,967.723 959.285,983.879 949.414,999.933 939.312,1015.89 928.994,1031.76 918.475,1047.55 907.771,1063.26 896.898,1078.9 
  885.871,1094.48 874.704,1110 863.414,1125.46 852.017,1140.89 840.526,1156.27 828.959,1171.63 817.33,1186.96 805.655,1202.27 793.949,1217.56 782.227,1232.86 
  
  "/>
<polyline clip-path="url(#clip472)" style="stroke:#000000; stroke-linecap:butt; stroke-linejoin:round; stroke-width:4; stroke-opacity:1; fill:none" points="
  1129.92,390.101 1135.17,409.284 1140.44,428.459 1145.74,447.617 1151.08,466.75 1156.48,485.85 1161.96,504.909 1167.52,523.917 1173.18,542.868 1178.95,561.751 
  1184.86,580.56 1190.91,599.286 1197.12,617.921 1203.5,636.455 1210.07,654.882 1216.85,673.192 1223.84,691.377 1231.06,709.43 1238.53,727.341 1246.26,745.102 
  1254.26,762.706 1262.55,780.143 1271.15,797.406 1280.06,814.485 1289.31,831.374 1298.9,848.063 1308.84,864.553 1319.11,880.852 1329.71,896.968 1340.6,912.91 
  1351.78,928.685 1363.24,944.302 1374.96,959.77 1386.93,975.096 1399.12,990.289 1411.54,1005.36 1424.15,1020.31 1436.95,1035.15 1449.93,1049.9 1463.07,1064.55 
  1476.35,1079.12 1489.76,1093.62 1503.29,1108.04 1516.92,1122.41 1530.63,1136.73 1544.42,1151.01 1558.26,1165.26 1572.15,1179.48 1586.07,1193.68 1600,1207.88 
  
  "/>
<polyline clip-path="url(#clip472)" style="stroke:#000000; stroke-linecap:butt; stroke-linejoin:round; stroke-width:4; stroke-opacity:1; fill:none" points="
  782.227,1232.86 799.069,1237.35 815.911,1241.82 832.751,1246.26 849.59,1250.66 866.427,1254.98 883.261,1259.22 900.093,1263.36 916.92,1267.39 933.744,1271.28 
  950.563,1275.02 967.377,1278.6 984.186,1281.99 1000.99,1285.18 1017.78,1288.15 1034.57,1290.9 1051.35,1293.39 1068.13,1295.61 1084.89,1297.55 1101.64,1299.19 
  1118.39,1300.52 1135.12,1301.51 1151.85,1302.15 1168.56,1302.42 1185.26,1302.31 1201.95,1301.8 1218.63,1300.89 1235.3,1299.6 1251.95,1297.94 1268.59,1295.93 
  1285.23,1293.59 1301.85,1290.93 1318.46,1287.97 1335.07,1284.72 1351.67,1281.21 1368.26,1277.45 1384.84,1273.46 1401.42,1269.25 1417.99,1264.83 1434.55,1260.24 
  1451.11,1255.48 1467.67,1250.57 1484.22,1245.52 1500.76,1240.36 1517.31,1235.1 1533.85,1229.76 1550.39,1224.35 1566.93,1218.88 1583.46,1213.39 1600,1207.88 
  
  "/>
<polyline clip-path="url(#clip472)" style="stroke:#000000; stroke-linecap:butt; stroke-linejoin:round; stroke-width:4; stroke-opacity:1; fill:none" points="
  1600,1207.88 1616.84,1212.37 1633.68,1216.84 1650.52,1221.29 1667.36,1225.68 1684.2,1230 1701.03,1234.24 1717.87,1238.39 1734.69,1242.41 1751.52,1246.3 
  1768.34,1250.04 1785.15,1253.62 1801.96,1257.01 1818.76,1260.2 1835.56,1263.17 1852.35,1265.92 1869.13,1268.41 1885.9,1270.63 1902.66,1272.57 1919.42,1274.21 
  1936.16,1275.53 1952.9,1276.52 1969.62,1277.16 1986.34,1277.44 2003.04,1277.33 2019.73,1276.82 2036.4,1275.91 2053.07,1274.61 2069.72,1272.95 2086.37,1270.94 
  2103,1268.6 2119.62,1265.94 2136.24,1262.98 2152.84,1259.74 2169.44,1256.23 2186.03,1252.46 2202.61,1248.47 2219.19,1244.26 2235.76,1239.85 2252.32,1235.25 
  2268.88,1230.49 2285.44,1225.58 2301.99,1220.54 2318.54,1215.38 2335.08,1210.11 2351.62,1204.77 2368.16,1199.36 2384.7,1193.9 2401.24,1188.4 2417.77,1182.89 
  
  "/>
<polyline clip-path="url(#clip472)" style="stroke:#000000; stroke-linecap:butt; stroke-linejoin:round; stroke-width:4; stroke-opacity:1; fill:none" points="
  1600,1207.88 1605.26,1227.06 1610.52,1246.24 1615.82,1265.39 1621.17,1284.53 1626.57,1303.63 1632.04,1322.68 1637.6,1341.69 1643.26,1360.64 1649.03,1379.53 
  1654.94,1398.34 1660.99,1417.06 1667.2,1435.7 1673.58,1454.23 1680.15,1472.66 1686.93,1490.97 1693.92,1509.15 1701.14,1527.2 1708.61,1545.12 1716.34,1562.88 
  1724.34,1580.48 1732.63,1597.92 1741.23,1615.18 1750.15,1632.26 1759.39,1649.15 1768.99,1665.84 1778.93,1682.33 1789.2,1698.63 1799.79,1714.74 1810.68,1730.68 
  1821.87,1746.46 1833.33,1762.07 1845.05,1777.54 1857.01,1792.87 1869.21,1808.06 1881.62,1823.13 1894.24,1838.08 1907.04,1852.92 1920.02,1867.67 1933.15,1882.32 
  1946.44,1896.89 1959.85,1911.39 1973.37,1925.81 1987,1940.18 2000.72,1954.5 2014.5,1968.78 2028.35,1983.03 2042.24,1997.25 2056.16,2011.45 2070.09,2025.65 
  
  "/>
<polyline clip-path="url(#clip472)" style="stroke:#000000; stroke-linecap:butt; stroke-linejoin:round; stroke-width:4; stroke-opacity:1; fill:none" points="
  2417.77,1182.89 2415.3,1202 2412.82,1221.1 2410.3,1240.19 2407.74,1259.26 2405.12,1278.3 2402.41,1297.31 2399.62,1316.29 2396.72,1335.21 2393.69,1354.09 
  2390.53,1372.91 2387.21,1391.67 2383.72,1410.36 2380.05,1428.97 2376.18,1447.5 2372.09,1465.94 2367.77,1484.28 2363.2,1502.53 2358.37,1520.66 2353.27,1538.68 
  2347.87,1556.58 2342.16,1574.35 2336.13,1591.99 2329.75,1609.49 2323.03,1626.84 2315.93,1644.04 2308.47,1661.08 2300.65,1677.98 2292.49,1694.74 2284,1711.37 
  2275.21,1727.87 2266.13,1744.25 2256.77,1760.51 2247.14,1776.67 2237.27,1792.72 2227.17,1808.68 2216.85,1824.55 2206.33,1840.34 2195.63,1856.05 2184.76,1871.69 
  2173.73,1887.27 2162.56,1902.79 2151.27,1918.26 2139.88,1933.68 2128.39,1949.07 2116.82,1964.42 2105.19,1979.75 2093.51,1995.06 2081.81,2010.36 2070.09,2025.65 
  
  "/>
<path clip-path="url(#clip472)" d="
M1273.44 390.101 L1201.68 265.808 L1058.16 265.808 L986.398 390.101 L1058.16 514.395 L1201.68 514.395 L1273.44 390.101 L1273.44 390.101  Z
  " fill="#f5fffa" fill-rule="evenodd" fill-opacity="1"/>
<polyline clip-path="url(#clip472)" style="stroke:#000000; stroke-linecap:butt; stroke-linejoin:round; stroke-width:4; stroke-opacity:1; fill:none" points="
  1273.44,390.101 1201.68,265.808 1058.16,265.808 986.398,390.101 1058.16,514.395 1201.68,514.395 1273.44,390.101 
  "/>
<path clip-path="url(#clip472)" d="
M925.749 1232.86 L853.988 1108.56 L710.466 1108.56 L638.706 1232.86 L710.466 1357.15 L853.988 1357.15 L925.749 1232.86 L925.749 1232.86  Z
  " fill="#f5fffa" fill-rule="evenodd" fill-opacity="1"/>
<polyline clip-path="url(#clip472)" style="stroke:#000000; stroke-linecap:butt; stroke-linejoin:round; stroke-width:4; stroke-opacity:1; fill:none" points="
  925.749,1232.86 853.988,1108.56 710.466,1108.56 638.706,1232.86 710.466,1357.15 853.988,1357.15 925.749,1232.86 925.749,1232.86 
  "/>
<path clip-path="url(#clip472)" d="
M1743.52 1207.88 L1671.76 1083.58 L1528.24 1083.58 L1456.48 1207.88 L1528.24 1332.17 L1671.76 1332.17 L1743.52 1207.88 L1743.52 1207.88  Z
  " fill="#f5fffa" fill-rule="evenodd" fill-opacity="1"/>
<polyline clip-path="url(#clip472)" style="stroke:#000000; stroke-linecap:butt; stroke-linejoin:round; stroke-width:4; stroke-opacity:1; fill:none" points="
  1743.52,1207.88 1671.76,1083.58 1528.24,1083.58 1456.48,1207.88 1528.24,1332.17 1671.76,1332.17 1743.52,1207.88 
  "/>
<path clip-path="url(#clip472)" d="
M2561.29 1182.89 L2489.53 1058.6 L2346.01 1058.6 L2274.25 1182.89 L2346.01 1307.18 L2489.53 1307.18 L2561.29 1182.89 L2561.29 1182.89  Z
  " fill="#f5fffa" fill-rule="evenodd" fill-opacity="1"/>
<polyline clip-path="url(#clip472)" style="stroke:#000000; stroke-linecap:butt; stroke-linejoin:round; stroke-width:4; stroke-opacity:1; fill:none" points="
  2561.29,1182.89 2489.53,1058.6 2346.01,1058.6 2274.25,1182.89 2346.01,1307.18 2489.53,1307.18 2561.29,1182.89 
  "/>
<path clip-path="url(#clip472)" d="
M2213.61 2025.65 L2141.85 1901.35 L1998.33 1901.35 L1926.57 2025.65 L1998.33 2149.94 L2141.85 2149.94 L2213.61 2025.65 L2213.61 2025.65  Z
  " fill="#f5fffa" fill-rule="evenodd" fill-opacity="1"/>
<polyline clip-path="url(#clip472)" style="stroke:#000000; stroke-linecap:butt; stroke-linejoin:round; stroke-width:4; stroke-opacity:1; fill:none" points="
  2213.61,2025.65 2141.85,1901.35 1998.33,1901.35 1926.57,2025.65 1998.33,2149.94 2141.85,2149.94 2213.61,2025.65 
  "/>
<circle clip-path="url(#clip472)" style="fill:#f5fffa; stroke:none; fill-opacity:1" cx="1129.92" cy="390.101" r="2"/>
<circle clip-path="url(#clip472)" style="fill:#f5fffa; stroke:none; fill-opacity:1" cx="782.227" cy="1232.86" r="2"/>
<circle clip-path="url(#clip472)" style="fill:#f5fffa; stroke:none; fill-opacity:1" cx="1600" cy="1207.88" r="2"/>
<circle clip-path="url(#clip472)" style="fill:#f5fffa; stroke:none; fill-opacity:1" cx="2417.77" cy="1182.89" r="2"/>
<circle clip-path="url(#clip472)" style="fill:#f5fffa; stroke:none; fill-opacity:1" cx="2070.09" cy="2025.65" r="2"/>
<path clip-path="url(#clip470)" d="M1117.26 377.675 Q1114.1 377.675 1112.5 380.794 Q1110.92 383.893 1110.92 390.132 Q1110.92 396.35 1112.5 399.469 Q1114.1 402.568 1117.26 402.568 Q1120.44 402.568 1122.02 399.469 Q1123.62 396.35 1123.62 390.132 Q1123.62 383.893 1122.02 380.794 Q1120.44 377.675 1117.26 377.675 M1117.26 374.434 Q1122.34 374.434 1125.02 378.465 Q1127.71 382.475 1127.71 390.132 Q1127.71 397.768 1125.02 401.798 Q1122.34 405.809 1117.26 405.809 Q1112.18 405.809 1109.48 401.798 Q1106.81 397.768 1106.81 390.132 Q1106.81 382.475 1109.48 378.465 Q1112.18 374.434 1117.26 374.434 Z" fill="#000000" fill-rule="evenodd" fill-opacity="1" /><path clip-path="url(#clip470)" d="M1135.61 401.778 L1142.3 401.778 L1142.3 378.708 L1135.02 380.166 L1135.02 376.44 L1142.25 374.981 L1146.35 374.981 L1146.35 401.778 L1153.03 401.778 L1153.03 405.221 L1135.61 405.221 L1135.61 401.778 Z" fill="#000000" fill-rule="evenodd" fill-opacity="1" /><path clip-path="url(#clip470)" d="M769.73 1220.43 Q766.57 1220.43 764.97 1223.55 Q763.391 1226.65 763.391 1232.89 Q763.391 1239.1 764.97 1242.22 Q766.57 1245.32 769.73 1245.32 Q772.91 1245.32 774.49 1242.22 Q776.09 1239.1 776.09 1232.89 Q776.09 1226.65 774.49 1223.55 Q772.91 1220.43 769.73 1220.43 M769.73 1217.19 Q774.814 1217.19 777.488 1221.22 Q780.182 1225.23 780.182 1232.89 Q780.182 1240.52 777.488 1244.55 Q774.814 1248.56 769.73 1248.56 Q764.646 1248.56 761.952 1244.55 Q759.279 1240.52 759.279 1232.89 Q759.279 1225.23 761.952 1221.22 Q764.646 1217.19 769.73 1217.19 Z" fill="#000000" fill-rule="evenodd" fill-opacity="1" /><path clip-path="url(#clip470)" d="M790.896 1244.53 L805.176 1244.53 L805.176 1247.98 L785.974 1247.98 L785.974 1244.53 Q788.304 1242.12 792.314 1238.07 Q796.345 1234 797.378 1232.82 Q799.342 1230.62 800.112 1229.1 Q800.902 1227.56 800.902 1226.08 Q800.902 1223.67 799.201 1222.15 Q797.519 1220.63 794.805 1220.63 Q792.881 1220.63 790.734 1221.3 Q788.607 1221.97 786.177 1223.33 L786.177 1219.19 Q788.648 1218.2 790.795 1217.69 Q792.942 1217.19 794.724 1217.19 Q799.423 1217.19 802.218 1219.54 Q805.014 1221.89 805.014 1225.82 Q805.014 1227.68 804.305 1229.36 Q803.616 1231.02 801.773 1233.29 Q801.266 1233.88 798.552 1236.69 Q795.838 1239.49 790.896 1244.53 Z" fill="#000000" fill-rule="evenodd" fill-opacity="1" /><path clip-path="url(#clip470)" d="M1587.09 1195.45 Q1583.93 1195.45 1582.33 1198.57 Q1580.75 1201.67 1580.75 1207.91 Q1580.75 1214.13 1582.33 1217.25 Q1583.93 1220.34 1587.09 1220.34 Q1590.27 1220.34 1591.85 1217.25 Q1593.45 1214.13 1593.45 1207.91 Q1593.45 1201.67 1591.85 1198.57 Q1590.27 1195.45 1587.09 1195.45 M1587.09 1192.21 Q1592.17 1192.21 1594.84 1196.24 Q1597.54 1200.25 1597.54 1207.91 Q1597.54 1215.54 1594.84 1219.57 Q1592.17 1223.59 1587.09 1223.59 Q1582 1223.59 1579.31 1219.57 Q1576.64 1215.54 1576.64 1207.91 Q1576.64 1200.25 1579.31 1196.24 Q1582 1192.21 1587.09 1192.21 Z" fill="#000000" fill-rule="evenodd" fill-opacity="1" /><path clip-path="url(#clip470)" d="M1617.12 1206.69 Q1620.06 1207.32 1621.7 1209.31 Q1623.36 1211.29 1623.36 1214.21 Q1623.36 1218.68 1620.28 1221.13 Q1617.21 1223.59 1611.53 1223.59 Q1609.63 1223.59 1607.61 1223.2 Q1605.6 1222.84 1603.45 1222.09 L1603.45 1218.14 Q1605.15 1219.13 1607.18 1219.64 Q1609.21 1220.14 1611.41 1220.14 Q1615.26 1220.14 1617.27 1218.62 Q1619.29 1217.1 1619.29 1214.21 Q1619.29 1211.53 1617.41 1210.03 Q1615.55 1208.52 1612.2 1208.52 L1608.68 1208.52 L1608.68 1205.15 L1612.37 1205.15 Q1615.38 1205.15 1616.98 1203.96 Q1618.58 1202.74 1618.58 1200.47 Q1618.58 1198.15 1616.92 1196.91 Q1615.28 1195.65 1612.2 1195.65 Q1610.52 1195.65 1608.6 1196.02 Q1606.67 1196.38 1604.36 1197.15 L1604.36 1193.51 Q1606.69 1192.86 1608.72 1192.53 Q1610.76 1192.21 1612.57 1192.21 Q1617.23 1192.21 1619.94 1194.34 Q1622.65 1196.44 1622.65 1200.05 Q1622.65 1202.56 1621.22 1204.3 Q1619.78 1206.02 1617.12 1206.69 Z" fill="#000000" fill-rule="evenodd" fill-opacity="1" /><path clip-path="url(#clip470)" d="M2404.36 1170.46 Q2401.2 1170.46 2399.6 1173.58 Q2398.02 1176.68 2398.02 1182.92 Q2398.02 1189.14 2399.6 1192.26 Q2401.2 1195.36 2404.36 1195.36 Q2407.54 1195.36 2409.12 1192.26 Q2410.72 1189.14 2410.72 1182.92 Q2410.72 1176.68 2409.12 1173.58 Q2407.54 1170.46 2404.36 1170.46 M2404.36 1167.22 Q2409.45 1167.22 2412.12 1171.25 Q2414.82 1175.26 2414.82 1182.92 Q2414.82 1190.56 2412.12 1194.59 Q2409.45 1198.6 2404.36 1198.6 Q2399.28 1198.6 2396.59 1194.59 Q2393.91 1190.56 2393.91 1182.92 Q2393.91 1175.26 2396.59 1171.25 Q2399.28 1167.22 2404.36 1167.22 Z" fill="#000000" fill-rule="evenodd" fill-opacity="1" /><path clip-path="url(#clip470)" d="M2433.25 1171.33 L2422.92 1187.48 L2433.25 1187.48 L2433.25 1171.33 M2432.17 1167.77 L2437.32 1167.77 L2437.32 1187.48 L2441.63 1187.48 L2441.63 1190.88 L2437.32 1190.88 L2437.32 1198.01 L2433.25 1198.01 L2433.25 1190.88 L2419.6 1190.88 L2419.6 1186.93 L2432.17 1167.77 Z" fill="#000000" fill-rule="evenodd" fill-opacity="1" /><path clip-path="url(#clip470)" d="M2057.33 2013.22 Q2054.17 2013.22 2052.57 2016.34 Q2050.99 2019.44 2050.99 2025.68 Q2050.99 2031.9 2052.57 2035.01 Q2054.17 2038.11 2057.33 2038.11 Q2060.51 2038.11 2062.09 2035.01 Q2063.69 2031.9 2063.69 2025.68 Q2063.69 2019.44 2062.09 2016.34 Q2060.51 2013.22 2057.33 2013.22 M2057.33 2009.98 Q2062.41 2009.98 2065.08 2014.01 Q2067.78 2018.02 2067.78 2025.68 Q2067.78 2033.31 2065.08 2037.34 Q2062.41 2041.35 2057.33 2041.35 Q2052.24 2041.35 2049.55 2037.34 Q2046.88 2033.31 2046.88 2025.68 Q2046.88 2018.02 2049.55 2014.01 Q2052.24 2009.98 2057.33 2009.98 Z" fill="#000000" fill-rule="evenodd" fill-opacity="1" /><path clip-path="url(#clip470)" d="M2075.01 2010.53 L2091.07 2010.53 L2091.07 2013.97 L2078.76 2013.97 L2078.76 2021.38 Q2079.65 2021.08 2080.54 2020.94 Q2081.43 2020.78 2082.32 2020.78 Q2087.38 2020.78 2090.34 2023.55 Q2093.3 2026.33 2093.3 2031.06 Q2093.3 2035.95 2090.26 2038.66 Q2087.22 2041.35 2081.69 2041.35 Q2079.79 2041.35 2077.8 2041.03 Q2075.84 2040.71 2073.73 2040.06 L2073.73 2035.95 Q2075.56 2036.94 2077.5 2037.42 Q2079.44 2037.91 2081.61 2037.91 Q2085.12 2037.91 2087.16 2036.07 Q2089.21 2034.22 2089.21 2031.06 Q2089.21 2027.91 2087.16 2026.06 Q2085.12 2024.22 2081.61 2024.22 Q2079.97 2024.22 2078.33 2024.58 Q2076.71 2024.95 2075.01 2025.72 L2075.01 2010.53 Z" fill="#000000" fill-rule="evenodd" fill-opacity="1" /></svg>
