<?xml version="1.0" encoding="utf-8"?>
<svg xmlns="http://www.w3.org/2000/svg" xmlns:xlink="http://www.w3.org/1999/xlink" width="800" height="600" viewBox="0 0 3200 2400">
<defs>
  <clipPath id="clip170">
    <rect x="0" y="0" width="3200" height="2400"/>
  </clipPath>
</defs>
<path clip-path="url(#clip170)" d="M0 2400 L3200 2400 L3200 0 L0 0  Z" fill="#ffffff" fill-rule="evenodd" fill-opacity="1"/>
<defs>
  <clipPath id="clip171">
    <rect x="640" y="0" width="2241" height="2241"/>
  </clipPath>
</defs>
<path clip-path="url(#clip170)" d="M455.118 2352.76 L2744.88 2352.76 L2744.88 62.9921 L455.118 62.9921  Z" fill="#ffffff" fill-rule="evenodd" fill-opacity="1"/>
<defs>
  <clipPath id="clip172">
    <rect x="455" y="62" width="2291" height="2291"/>
  </clipPath>
</defs>
<path clip-path="url(#clip170)" d="M1221.82 103.433 L1221.82 78.112 Q1221.82 76.6916 1221.88 76.1975 Q1221.95 75.7034 1222.32 75.3329 Q1222.69 74.9623 1223.43 74.9623 Q1224.85 74.9623 1224.97 76.2593 Q1225.34 88.7962 1232.82 95.7132 Q1240.16 102.568 1252.76 102.568 Q1260.36 102.568 1265.05 97.1336 Q1269.75 91.6371 1269.75 84.4731 Q1269.75 77.618 1265.79 72.8008 Q1264.13 70.6393 1262.03 69.2806 Q1259.99 67.8601 1258.69 67.4278 Q1257.46 66.9955 1255.05 66.3779 Q1239.36 62.6107 1238.37 62.1784 Q1230.9 59.6463 1226.33 53.2851 Q1221.82 46.8623 1221.82 39.019 Q1221.82 28.8906 1228.92 21.7266 Q1236.09 14.5009 1246.46 14.5009 Q1251.65 14.5009 1255.97 16.1683 Q1260.36 17.7741 1262.15 19.2563 Q1263.94 20.7385 1266.72 23.3941 L1271.11 16.1683 Q1272.09 14.5009 1273.02 14.5009 Q1274.01 14.5009 1274.19 15.1185 Q1274.44 15.6743 1274.44 17.527 L1274.44 42.9715 Q1274.44 44.3919 1274.38 44.886 Q1274.32 45.3801 1273.88 45.6889 Q1273.51 45.9977 1272.77 45.9977 Q1271.54 45.9977 1271.23 44.5155 Q1267.71 18.0829 1246.59 18.0829 Q1239.36 18.0829 1234.61 22.9618 Q1229.91 27.7789 1229.91 34.6341 Q1229.91 40.1924 1233.37 44.7625 Q1236.83 49.2709 1242.7 50.6913 L1258.88 54.5821 Q1266.97 56.4966 1272.4 63.6606 Q1277.84 70.8245 1277.84 80.1501 Q1277.84 90.896 1270.8 98.6776 Q1263.82 106.459 1252.89 106.459 Q1245.04 106.459 1238.99 103.865 Q1232.94 101.271 1229.67 97.6277 Q1227.13 101.827 1225.47 104.174 L1225.1 104.792 Q1224.11 106.459 1223.18 106.459 Q1222.19 106.459 1222.01 105.842 Q1221.82 105.224 1221.82 103.433 Z" fill="#000000" fill-rule="nonzero" fill-opacity="1" /><path clip-path="url(#clip170)" d="M1289.08 103.68 L1289.08 99.7892 Q1295.81 99.7892 1297.35 98.9864 Q1298.9 98.1217 1298.9 94.0457 L1298.9 60.0168 Q1298.9 55.3232 1297.29 54.2115 Q1295.75 53.0999 1289.57 53.0999 L1289.57 49.1473 L1307.23 47.7886 L1307.23 94.1692 Q1307.23 97.9365 1308.59 98.8628 Q1309.95 99.7892 1316.13 99.7892 L1316.13 103.68 Q1303.22 103.309 1302.97 103.309 Q1301.24 103.309 1289.08 103.68 M1294.39 25.7409 Q1294.39 23.2088 1296.3 21.1708 Q1298.28 19.071 1301.06 19.071 Q1303.84 19.071 1305.81 20.9855 Q1307.79 22.8383 1307.79 25.8027 Q1307.79 28.7053 1305.81 30.6198 Q1303.84 32.4726 1301.06 32.4726 Q1298.16 32.4726 1296.24 30.4345 Q1294.39 28.3965 1294.39 25.7409 Z" fill="#000000" fill-rule="nonzero" fill-opacity="1" /><path clip-path="url(#clip170)" d="M1323.97 103.68 L1323.97 99.7892 Q1330.7 99.7892 1332.25 98.9864 Q1333.79 98.1217 1333.79 94.0457 L1333.79 60.1403 Q1333.79 55.4467 1332.12 54.2733 Q1330.52 53.0999 1323.97 53.0999 L1323.97 49.1473 L1341.76 47.7886 L1341.76 61.0667 Q1347.69 47.7886 1360.47 47.7886 Q1375.29 47.7886 1377.33 60.1403 Q1379.49 55.3232 1384 51.5559 Q1388.57 47.7886 1395.67 47.7886 Q1405.18 47.7886 1408.95 52.4823 Q1411.73 55.632 1412.29 59.1522 Q1412.84 62.6724 1412.84 71.8127 L1412.84 95.9602 Q1412.96 98.6158 1415 99.2334 Q1417.04 99.7892 1422.72 99.7892 L1422.72 103.68 Q1409.82 103.309 1408.58 103.309 Q1407.59 103.309 1394.25 103.68 L1394.25 99.7892 Q1400.98 99.7892 1402.53 98.9864 Q1404.13 98.1217 1404.13 94.0457 L1404.13 64.5869 Q1404.13 58.1641 1402.16 54.3968 Q1400.18 50.5678 1394.75 50.5678 Q1388.2 50.5678 1382.95 56.0643 Q1377.7 61.5608 1377.7 70.8245 L1377.7 94.0457 Q1377.7 98.1217 1379.24 98.9864 Q1380.85 99.7892 1387.58 99.7892 L1387.58 103.68 Q1374.67 103.309 1373.38 103.309 Q1372.39 103.309 1359.11 103.68 L1359.11 99.7892 Q1365.84 99.7892 1367.39 98.9864 Q1368.99 98.1217 1368.99 94.0457 L1368.99 64.5869 Q1368.99 58.1641 1367.02 54.3968 Q1365.04 50.5678 1359.61 50.5678 Q1353.06 50.5678 1347.81 56.0643 Q1342.56 61.5608 1342.56 70.8245 L1342.56 94.0457 Q1342.56 98.1217 1344.1 98.9864 Q1345.71 99.7892 1352.38 99.7892 L1352.38 103.68 Q1339.47 103.309 1338.24 103.309 Q1337.25 103.309 1323.97 103.68 Z" fill="#000000" fill-rule="nonzero" fill-opacity="1" /><path clip-path="url(#clip170)" d="M1428.71 124.307 Q1435.44 124.307 1436.99 123.443 Q1438.59 122.64 1438.59 118.626 L1438.59 59.3992 Q1438.59 55.1997 1436.99 54.1498 Q1435.44 53.0999 1428.71 53.0999 L1428.71 49.1473 L1446.93 47.7886 L1446.93 56.126 Q1454.53 47.7886 1464.66 47.7886 Q1475.4 47.7886 1483.25 56.126 Q1491.09 64.4634 1491.09 76.3828 Q1491.09 88.4257 1482.75 96.7631 Q1474.41 105.1 1462.87 105.1 Q1456.57 105.1 1452.3 101.889 Q1448.11 98.6158 1447.3 96.2072 L1447.3 97.3806 L1447.3 118.626 Q1447.3 122.702 1448.91 123.504 Q1450.51 124.307 1457.18 124.307 L1457.18 128.198 Q1443.91 127.828 1442.92 127.828 Q1441.68 127.828 1428.71 128.198 L1428.71 124.307 M1447.3 89.2903 Q1447.3 91.2048 1447.55 91.8841 Q1447.86 92.5635 1449.09 94.6015 Q1454.1 102.26 1462.25 102.26 Q1462.31 102.26 1462.37 102.26 Q1469.6 102.26 1475.09 94.9103 Q1480.59 87.4993 1480.59 76.3828 Q1480.59 65.7603 1475.59 58.3493 Q1470.59 50.9383 1463.67 50.9383 Q1458.73 50.9383 1454.4 53.5939 Q1450.08 56.2495 1447.3 61.0667 L1447.3 89.2903 Z" fill="#000000" fill-rule="nonzero" fill-opacity="1" /><path clip-path="url(#clip170)" d="M1499.55 103.68 L1499.55 99.7892 Q1506.28 99.7892 1507.83 98.9864 Q1509.37 98.1217 1509.37 94.0457 L1509.37 28.273 Q1509.37 23.5794 1507.7 22.4059 Q1506.1 21.2325 1499.55 21.2325 L1499.55 17.28 L1517.71 15.9213 L1517.71 94.0457 Q1517.71 98.1217 1519.31 98.9864 Q1520.92 99.7892 1527.59 99.7892 L1527.59 103.68 Q1526.04 103.68 1522.83 103.556 Q1519.62 103.433 1517.27 103.371 Q1514.93 103.309 1513.57 103.309 Q1512.09 103.309 1499.55 103.68 Z" fill="#000000" fill-rule="nonzero" fill-opacity="1" /><path clip-path="url(#clip170)" d="M1533.89 75.827 Q1533.89 63.9076 1541.55 55.4467 Q1549.2 46.9858 1560.2 46.9858 Q1571.31 46.9858 1577.06 54.2115 Q1582.86 61.4373 1582.86 71.8127 Q1582.86 73.7272 1582.37 74.0977 Q1581.87 74.4683 1579.71 74.4683 L1544.39 74.4683 Q1544.39 87.3758 1548.22 93.4281 Q1553.53 101.889 1562.48 101.889 Q1563.72 101.889 1565.2 101.642 Q1566.68 101.395 1569.71 100.345 Q1572.73 99.2334 1575.39 96.3308 Q1578.04 93.4281 1579.59 88.858 Q1579.96 87.067 1581.19 87.1287 Q1582.86 87.1287 1582.86 88.611 Q1582.86 89.7226 1581.63 92.2547 Q1580.45 94.725 1578.17 97.6894 Q1575.88 100.654 1571.44 102.877 Q1567.05 105.1 1561.74 105.1 Q1550.62 105.1 1542.23 96.7013 Q1533.89 88.2404 1533.89 75.827 M1544.51 71.8127 L1574.52 71.8127 Q1574.52 69.1571 1574.03 66.1927 Q1573.6 63.2282 1572.24 59.1522 Q1570.94 55.0144 1567.85 52.4205 Q1564.77 49.8267 1560.2 49.8267 Q1558.16 49.8267 1555.94 50.6913 Q1553.77 51.5559 1551.12 53.6557 Q1548.46 55.7555 1546.61 60.5109 Q1544.76 65.2663 1544.51 71.8127 Z" fill="#000000" fill-rule="nonzero" fill-opacity="1" /><path clip-path="url(#clip170)" d="M1648.63 93.0576 Q1635.67 79.656 1635.67 60.4491 Q1635.67 41.1805 1648.76 27.8407 Q1661.85 14.5009 1679.64 14.5009 Q1684.08 14.5009 1687.85 15.5508 Q1691.68 16.5389 1694.71 18.5769 Q1697.73 20.5532 1699.28 21.9119 Q1700.88 23.2088 1703.04 25.3704 L1709.41 16.0448 Q1710.39 14.5009 1711.38 14.5009 Q1712.43 14.5009 1712.62 15.1185 Q1712.8 15.6743 1712.8 17.527 L1712.8 47.5416 Q1712.8 49.5796 1712.55 50.0737 Q1712.31 50.5678 1710.76 50.5678 Q1709.53 50.5678 1709.28 50.1972 Q1709.03 49.8267 1708.73 48.4062 Q1706.81 34.7576 1699.15 26.6055 Q1691.56 18.4534 1681.18 18.4534 Q1678.16 18.4534 1674.76 19.1328 Q1671.42 19.8121 1666.48 22.4059 Q1661.6 24.9998 1657.84 29.2611 Q1654.13 33.4607 1651.41 41.6128 Q1648.7 49.7032 1648.7 60.4491 Q1648.7 71.0716 1651.41 79.2237 Q1654.13 87.3758 1657.9 91.6371 Q1661.73 95.8367 1666.67 98.4923 Q1671.67 101.148 1675.19 101.889 Q1678.77 102.568 1681.92 102.568 Q1684.08 102.568 1686.62 102.136 Q1689.15 101.642 1692.92 100.283 Q1696.74 98.8628 1699.15 95.5279 Q1701.56 92.1929 1701.56 87.2523 L1701.56 79.1619 Q1701.56 75.3947 1699.71 74.2212 Q1697.86 73.0478 1689.77 73.0478 L1685.75 73.0478 L1685.75 69.1571 Q1690.32 69.5276 1706.07 69.5276 Q1707.49 69.5276 1721.51 69.1571 L1721.51 73.0478 Q1715.46 73.0478 1714.1 73.9742 Q1712.8 74.8388 1712.8 78.6061 L1712.8 100.654 Q1712.8 103.556 1711.69 103.556 Q1710.7 103.556 1707.74 100.716 Q1704.83 97.8747 1703.54 95.7132 Q1700.51 101.024 1693.9 103.742 Q1687.36 106.459 1679.88 106.459 Q1661.67 106.459 1648.63 93.0576 Z" fill="#000000" fill-rule="nonzero" fill-opacity="1" /><path clip-path="url(#clip170)" d="M1731.21 103.68 L1731.21 99.7892 Q1737.94 99.7892 1739.48 98.9864 Q1741.09 98.1217 1741.09 94.0457 L1741.09 60.1403 Q1741.09 55.4467 1739.42 54.2733 Q1737.81 53.0999 1731.21 53.0999 L1731.21 49.1473 L1748.81 47.7886 L1748.81 61.6843 Q1750.6 56.2495 1754.37 52.05 Q1758.19 47.7886 1764.37 47.7886 Q1768.45 47.7886 1771.04 50.0737 Q1773.7 52.3588 1773.7 55.5084 Q1773.7 58.2876 1771.97 59.708 Q1770.3 61.0667 1768.26 61.0667 Q1765.98 61.0667 1764.37 59.6463 Q1762.83 58.1641 1762.83 55.632 Q1762.83 54.088 1763.51 52.9146 Q1764.25 51.6794 1764.8 51.2471 Q1765.36 50.8148 1765.73 50.6913 Q1765.48 50.5678 1764.37 50.5678 Q1757.39 50.5678 1753.38 57.5465 Q1749.42 64.4634 1749.42 74.3448 L1749.42 93.7987 Q1749.42 97.4424 1750.91 98.6158 Q1752.45 99.7892 1759.06 99.7892 L1761.71 99.7892 L1761.71 103.68 Q1756.65 103.309 1745.66 103.309 Q1744.11 103.309 1741.7 103.371 Q1739.3 103.433 1736.15 103.556 Q1733 103.68 1731.21 103.68 Z" fill="#000000" fill-rule="nonzero" fill-opacity="1" /><path clip-path="url(#clip170)" d="M1782.4 91.6371 Q1782.4 80.8912 1795.06 75.2094 Q1802.66 71.5656 1818.35 70.6393 L1818.35 66.0074 Q1818.35 58.1641 1814.21 54.0262 Q1810.13 49.8267 1804.95 49.8267 Q1795.68 49.8267 1791.23 55.632 Q1795 55.7555 1796.36 57.67 Q1797.72 59.5227 1797.72 61.4373 Q1797.72 63.9693 1796.11 65.6368 Q1794.57 67.2425 1791.91 67.2425 Q1789.38 67.2425 1787.71 65.6986 Q1786.05 64.0929 1786.05 61.3137 Q1786.05 55.1379 1791.61 51.0618 Q1797.23 46.9858 1805.19 46.9858 Q1815.57 46.9858 1822.48 53.9645 Q1824.65 56.126 1825.7 58.9052 Q1826.81 61.6843 1826.93 63.537 Q1827.05 65.328 1827.05 68.91 L1827.05 94.1692 Q1827.05 94.9103 1827.3 96.1455 Q1827.55 97.3806 1828.66 98.9864 Q1829.83 100.53 1831.75 100.53 Q1836.32 100.53 1836.26 92.44 L1836.26 85.3378 L1839.47 85.3378 L1839.47 92.44 Q1839.47 99.1716 1835.89 101.827 Q1832.37 104.421 1829.09 104.421 Q1824.89 104.421 1822.24 101.333 Q1819.58 98.2453 1819.21 94.0457 Q1817.3 98.8628 1812.91 102.013 Q1808.59 105.1 1802.66 105.1 Q1798.09 105.1 1793.77 103.927 Q1789.51 102.815 1785.92 99.6657 Q1782.4 96.4543 1782.4 91.6371 M1792.16 91.5136 Q1792.16 96.2072 1795.5 99.2334 Q1798.83 102.26 1803.52 102.26 Q1808.84 102.26 1813.59 98.1835 Q1818.35 94.0457 1818.35 85.9553 L1818.35 73.2949 Q1804.33 73.7889 1798.21 79.4089 Q1792.16 84.9672 1792.16 91.5136 Z" fill="#000000" fill-rule="nonzero" fill-opacity="1" /><path clip-path="url(#clip170)" d="M1843.85 124.307 Q1850.58 124.307 1852.13 123.443 Q1853.73 122.64 1853.73 118.626 L1853.73 59.3992 Q1853.73 55.1997 1852.13 54.1498 Q1850.58 53.0999 1843.85 53.0999 L1843.85 49.1473 L1862.07 47.7886 L1862.07 56.126 Q1869.67 47.7886 1879.8 47.7886 Q1890.54 47.7886 1898.39 56.126 Q1906.23 64.4634 1906.23 76.3828 Q1906.23 88.4257 1897.89 96.7631 Q1889.55 105.1 1878.01 105.1 Q1871.71 105.1 1867.44 101.889 Q1863.25 98.6158 1862.44 96.2072 L1862.44 97.3806 L1862.44 118.626 Q1862.44 122.702 1864.05 123.504 Q1865.65 124.307 1872.32 124.307 L1872.32 128.198 Q1859.05 127.828 1858.06 127.828 Q1856.82 127.828 1843.85 128.198 L1843.85 124.307 M1862.44 89.2903 Q1862.44 91.2048 1862.69 91.8841 Q1863 92.5635 1864.23 94.6015 Q1869.24 102.26 1877.39 102.26 Q1877.45 102.26 1877.51 102.26 Q1884.74 102.26 1890.23 94.9103 Q1895.73 87.4993 1895.73 76.3828 Q1895.73 65.7603 1890.73 58.3493 Q1885.73 50.9383 1878.81 50.9383 Q1873.87 50.9383 1869.54 53.5939 Q1865.22 56.2495 1862.44 61.0667 L1862.44 89.2903 Z" fill="#000000" fill-rule="nonzero" fill-opacity="1" /><path clip-path="url(#clip170)" d="M1914.57 103.68 L1914.57 99.7892 Q1921.3 99.7892 1922.84 98.9864 Q1924.39 98.1217 1924.39 94.0457 L1924.39 28.273 Q1924.39 23.5794 1922.72 22.4059 Q1921.11 21.2325 1914.57 21.2325 L1914.57 17.28 L1932.72 15.9213 L1932.72 59.8933 L1932.85 59.8933 Q1934.88 55.3232 1939.46 51.5559 Q1944.03 47.7886 1951.07 47.7886 Q1960.58 47.7886 1964.34 52.4823 Q1967.12 55.632 1967.68 59.1522 Q1968.3 62.6724 1968.3 71.8127 L1968.3 95.9602 Q1968.42 98.6158 1970.46 99.2334 Q1972.5 99.7892 1978.18 99.7892 L1978.18 103.68 Q1965.27 103.309 1963.97 103.309 Q1962.98 103.309 1949.71 103.68 L1949.71 99.7892 Q1956.44 99.7892 1957.98 98.9864 Q1959.59 98.1217 1959.59 94.0457 L1959.59 64.5869 Q1959.59 58.1641 1957.61 54.3968 Q1955.64 50.5678 1950.2 50.5678 Q1943.65 50.5678 1938.41 56.0643 Q1933.16 61.5608 1933.16 70.8245 L1933.16 94.0457 Q1933.16 98.1217 1934.7 98.9864 Q1936.31 99.7892 1942.98 99.7892 L1942.98 103.68 Q1930.07 103.309 1928.83 103.309 Q1927.84 103.309 1914.57 103.68 Z" fill="#000000" fill-rule="nonzero" fill-opacity="1" /><polyline clip-path="url(#clip172)" style="stroke:#000000; stroke-linecap:round; stroke-linejoin:round; stroke-width:4; stroke-opacity:1; fill:none" points="1021.03,390.101 1021.03,412.154 1021.01,434.203 1020.97,456.245 1020.87,478.275 1020.71,500.29 1020.46,522.286 1020.12,544.259 1019.67,566.206 1019.08,588.122 1018.35,610.005 1017.46,631.849 1016.38,653.652 1015.12,675.41 1013.64,697.118 1011.93,718.774 1009.98,740.372 1007.77,761.91 1005.29,783.384 1002.51,804.789 999.42,826.123 996.008,847.381 992.255,868.559 988.145,889.654 983.66,910.662 978.787,931.58 973.524,952.406 967.887,973.146 961.894,993.802 955.558,1014.38 948.898,1034.88 941.93,1055.31 934.669,1075.67 927.131,1095.97 919.334,1116.2 911.293,1136.38 903.024,1156.51 894.545,1176.59 885.87,1196.62 877.016,1216.61 868.001,1236.56 858.838,1256.48 849.546,1276.37 840.141,1296.23 830.637,1316.07 821.053,1335.89 811.403,1355.69 801.705,1375.48 791.974,1395.27 782.227,1415.05 "/>
<polyline clip-path="url(#clip172)" style="stroke:#000000; stroke-linecap:round; stroke-linejoin:round; stroke-width:4; stroke-opacity:1; fill:none" points="1021.03,390.101 1028.76,409.682 1036.51,429.253 1044.28,448.805 1052.09,468.328 1059.96,487.812 1067.9,507.248 1075.91,526.627 1084.03,545.938 1092.25,565.171 1100.59,584.318 1109.07,603.369 1117.7,622.314 1126.5,641.142 1135.47,659.846 1144.63,678.415 1154,696.839 1163.58,715.108 1173.39,733.214 1183.45,751.147 1193.77,768.896 1204.36,786.452 1215.24,803.807 1226.42,820.949 1237.91,837.869 1249.72,854.558 1261.86,871.017 1274.32,887.253 1287.07,903.278 1300.11,919.1 1313.43,934.729 1327,950.176 1340.81,965.448 1354.86,980.557 1369.13,995.512 1383.6,1010.32 1398.26,1025 1413.1,1039.55 1428.1,1053.98 1443.25,1068.31 1458.54,1082.54 1473.95,1096.69 1489.46,1110.75 1505.08,1124.75 1520.77,1138.7 1536.54,1152.59 1552.36,1166.45 1568.21,1180.27 1584.1,1194.08 1600,1207.88 "/>
<polyline clip-path="url(#clip172)" style="stroke:#000000; stroke-linecap:round; stroke-linejoin:round; stroke-width:4; stroke-opacity:1; fill:none" points="782.227,1415.05 800.145,1415.67 818.059,1416.28 835.965,1416.85 853.859,1417.38 871.736,1417.84 889.593,1418.22 907.425,1418.5 925.228,1418.67 942.999,1418.72 960.733,1418.61 978.425,1418.34 996.073,1417.9 1013.67,1417.26 1031.22,1416.41 1048.7,1415.34 1066.13,1414.02 1083.49,1412.44 1100.78,1410.59 1118,1408.45 1135.14,1406 1152.2,1403.22 1169.17,1400.11 1186.05,1396.64 1202.84,1392.8 1219.53,1388.57 1236.12,1383.96 1252.62,1378.97 1269.02,1373.63 1285.34,1367.95 1301.58,1361.94 1317.74,1355.63 1333.83,1349.02 1349.85,1342.14 1365.8,1335 1381.69,1327.62 1397.52,1320.02 1413.3,1312.2 1429.04,1304.19 1444.72,1296 1460.37,1287.65 1475.97,1279.15 1491.55,1270.52 1507.09,1261.78 1522.62,1252.95 1538.12,1244.03 1553.6,1235.05 1569.08,1226.02 1584.54,1216.96 1600,1207.88 "/>
<polyline clip-path="url(#clip172)" style="stroke:#000000; stroke-linecap:round; stroke-linejoin:round; stroke-width:4; stroke-opacity:1; fill:none" points="1600,1207.88 1617.92,1208.5 1635.83,1209.11 1653.74,1209.68 1671.63,1210.21 1689.51,1210.67 1707.37,1211.05 1725.2,1211.33 1743,1211.5 1760.77,1211.54 1778.51,1211.43 1796.2,1211.17 1813.85,1210.72 1831.45,1210.08 1848.99,1209.24 1866.48,1208.16 1883.91,1206.84 1901.27,1205.26 1918.56,1203.41 1935.78,1201.27 1952.91,1198.82 1969.97,1196.05 1986.94,1192.93 2003.83,1189.46 2020.61,1185.62 2037.3,1181.4 2053.89,1176.78 2070.39,1171.79 2086.8,1166.45 2103.12,1160.77 2119.36,1154.76 2135.52,1148.45 2151.6,1141.84 2167.62,1134.96 2183.57,1127.82 2199.46,1120.44 2215.3,1112.83 2231.08,1105.02 2246.81,1097.01 2262.49,1088.82 2278.14,1080.46 2293.75,1071.97 2309.32,1063.34 2324.87,1054.6 2340.39,1045.77 2355.89,1036.85 2371.38,1027.87 2386.85,1018.84 2402.31,1009.77 2417.77,1000.69 "/>
<polyline clip-path="url(#clip172)" style="stroke:#000000; stroke-linecap:round; stroke-linejoin:round; stroke-width:4; stroke-opacity:1; fill:none" points="1600,1207.88 1607.73,1227.46 1615.48,1247.03 1623.25,1266.58 1631.06,1286.1 1638.93,1305.59 1646.87,1325.02 1654.89,1344.4 1663,1363.71 1671.22,1382.95 1679.56,1402.09 1688.05,1421.14 1696.68,1440.09 1705.47,1458.92 1714.44,1477.62 1723.6,1496.19 1732.97,1514.61 1742.55,1532.88 1752.37,1550.99 1762.43,1568.92 1772.74,1586.67 1783.34,1604.23 1794.21,1621.58 1805.39,1638.72 1816.88,1655.64 1828.69,1672.33 1840.84,1688.79 1853.29,1705.03 1866.05,1721.05 1879.09,1736.87 1892.4,1752.5 1905.97,1767.95 1919.79,1783.22 1933.84,1798.33 1948.1,1813.28 1962.57,1828.09 1977.23,1842.77 1992.07,1857.32 2007.07,1871.75 2022.22,1886.08 2037.51,1900.31 2052.92,1914.46 2068.44,1928.52 2084.05,1942.52 2099.75,1956.47 2115.51,1970.36 2131.33,1984.22 2147.19,1998.04 2163.08,2011.85 2178.98,2025.65 "/>
<polyline clip-path="url(#clip172)" style="stroke:#000000; stroke-linecap:round; stroke-linejoin:round; stroke-width:4; stroke-opacity:1; fill:none" points="2417.77,1000.69 2417.77,1022.75 2417.76,1044.8 2417.71,1066.84 2417.61,1088.87 2417.45,1110.88 2417.2,1132.88 2416.86,1154.85 2416.41,1176.8 2415.82,1198.72 2415.09,1220.6 2414.2,1242.44 2413.13,1264.25 2411.86,1286 2410.38,1307.71 2408.68,1329.37 2406.73,1350.97 2404.52,1372.5 2402.03,1393.98 2399.25,1415.38 2396.17,1436.72 2392.75,1457.97 2389,1479.15 2384.89,1500.25 2380.41,1521.26 2375.53,1542.17 2370.27,1563 2364.63,1583.74 2358.64,1604.4 2352.3,1624.97 2345.64,1645.47 2338.68,1665.9 2331.42,1686.26 2323.88,1706.56 2316.08,1726.8 2308.04,1746.98 2299.77,1767.1 2291.29,1787.18 2282.62,1807.21 2273.76,1827.2 2264.75,1847.15 2255.59,1867.07 2246.29,1886.96 2236.89,1906.82 2227.39,1926.66 2217.8,1946.48 2208.15,1966.29 2198.45,1986.08 2188.72,2005.86 2178.98,2025.65 "/>
<path clip-path="url(#clip172)" d="M1164.55 390.101 L1092.79 265.808 L949.27 265.808 L877.509 390.101 L949.27 514.395 L1092.79 514.395 L1164.55 390.101 L1164.55 390.101  Z" fill="#f5fffa" fill-rule="evenodd" fill-opacity="1"/>
<polyline clip-path="url(#clip172)" style="stroke:#000000; stroke-linecap:round; stroke-linejoin:round; stroke-width:4; stroke-opacity:1; fill:none" points="1164.55,390.101 1092.79,265.808 949.27,265.808 877.509,390.101 949.27,514.395 1092.79,514.395 1164.55,390.101 "/>
<path clip-path="url(#clip172)" d="M925.749 1415.05 L853.988 1290.76 L710.466 1290.76 L638.706 1415.05 L710.466 1539.34 L853.988 1539.34 L925.749 1415.05 L925.749 1415.05  Z" fill="#f5fffa" fill-rule="evenodd" fill-opacity="1"/>
<polyline clip-path="url(#clip172)" style="stroke:#000000; stroke-linecap:round; stroke-linejoin:round; stroke-width:4; stroke-opacity:1; fill:none" points="925.749,1415.05 853.988,1290.76 710.466,1290.76 638.706,1415.05 710.466,1539.34 853.988,1539.34 925.749,1415.05 "/>
<path clip-path="url(#clip172)" d="M1743.52 1207.88 L1671.76 1083.59 L1528.24 1083.59 L1456.48 1207.88 L1528.24 1332.17 L1671.76 1332.17 L1743.52 1207.88 L1743.52 1207.88  Z" fill="#f5fffa" fill-rule="evenodd" fill-opacity="1"/>
<polyline clip-path="url(#clip172)" style="stroke:#000000; stroke-linecap:round; stroke-linejoin:round; stroke-width:4; stroke-opacity:1; fill:none" points="1743.52,1207.88 1671.76,1083.59 1528.24,1083.59 1456.48,1207.88 1528.24,1332.17 1671.76,1332.17 1743.52,1207.88 "/>
<path clip-path="url(#clip172)" d="M2561.29 1000.69 L2489.53 876.401 L2346.01 876.401 L2274.25 1000.69 L2346.01 1124.99 L2489.53 1124.99 L2561.29 1000.69 L2561.29 1000.69  Z" fill="#f5fffa" fill-rule="evenodd" fill-opacity="1"/>
<polyline clip-path="url(#clip172)" style="stroke:#000000; stroke-linecap:round; stroke-linejoin:round; stroke-width:4; stroke-opacity:1; fill:none" points="2561.29,1000.69 2489.53,876.401 2346.01,876.401 2274.25,1000.69 2346.01,1124.99 2489.53,1124.99 2561.29,1000.69 "/>
<path clip-path="url(#clip172)" d="M2322.5 2025.65 L2250.74 1901.35 L2107.22 1901.35 L2035.45 2025.65 L2107.22 2149.94 L2250.74 2149.94 L2322.5 2025.65 L2322.5 2025.65  Z" fill="#f5fffa" fill-rule="evenodd" fill-opacity="1"/>
<polyline clip-path="url(#clip172)" style="stroke:#000000; stroke-linecap:round; stroke-linejoin:round; stroke-width:4; stroke-opacity:1; fill:none" points="2322.5,2025.65 2250.74,1901.35 2107.22,1901.35 2035.45,2025.65 2107.22,2149.94 2250.74,2149.94 2322.5,2025.65 "/>
<path clip-path="url(#clip172)" d="M1021.03 390.901 L1020.34 390.501 L1020.34 389.701 L1021.03 389.301 L1021.72 389.701 L1021.72 390.501 Z" fill="#f5fffa" fill-rule="evenodd" fill-opacity="1" stroke="#000000" stroke-opacity="1" stroke-width="4.8"/>
<path clip-path="url(#clip172)" d="M782.227 1415.85 L781.534 1415.45 L781.534 1414.65 L782.227 1414.25 L782.92 1414.65 L782.92 1415.45 Z" fill="#f5fffa" fill-rule="evenodd" fill-opacity="1" stroke="#000000" stroke-opacity="1" stroke-width="4.8"/>
<path clip-path="url(#clip172)" d="M1600 1208.68 L1599.31 1208.28 L1599.31 1207.48 L1600 1207.08 L1600.69 1207.48 L1600.69 1208.28 Z" fill="#f5fffa" fill-rule="evenodd" fill-opacity="1" stroke="#000000" stroke-opacity="1" stroke-width="4.8"/>
<path clip-path="url(#clip172)" d="M2417.77 1001.49 L2417.08 1001.09 L2417.08 1000.29 L2417.77 999.894 L2418.47 1000.29 L2418.47 1001.09 Z" fill="#f5fffa" fill-rule="evenodd" fill-opacity="1" stroke="#000000" stroke-opacity="1" stroke-width="4.8"/>
<path clip-path="url(#clip172)" d="M2178.98 2026.45 L2178.28 2026.05 L2178.28 2025.25 L2178.98 2024.85 L2179.67 2025.25 L2179.67 2026.05 Z" fill="#f5fffa" fill-rule="evenodd" fill-opacity="1" stroke="#000000" stroke-opacity="1" stroke-width="4.8"/>
<path clip-path="url(#clip170)" d="M1008.37 377.675 Q1005.21 377.675 1003.61 380.794 Q1002.03 383.893 1002.03 390.132 Q1002.03 396.35 1003.61 399.469 Q1005.21 402.568 1008.37 402.568 Q1011.55 402.568 1013.13 399.469 Q1014.73 396.35 1014.73 390.132 Q1014.73 383.893 1013.13 380.794 Q1011.55 377.675 1008.37 377.675 M1008.37 374.434 Q1013.46 374.434 1016.13 378.465 Q1018.82 382.475 1018.82 390.132 Q1018.82 397.768 1016.13 401.798 Q1013.46 405.809 1008.37 405.809 Q1003.29 405.809 1000.59 401.798 Q997.92 397.768 997.92 390.132 Q997.92 382.475 1000.59 378.465 Q1003.29 374.434 1008.37 374.434 Z" fill="#000000" fill-rule="nonzero" fill-opacity="1" /><path clip-path="url(#clip170)" d="M1026.72 401.778 L1033.41 401.778 L1033.41 378.708 L1026.13 380.166 L1026.13 376.44 L1033.37 374.981 L1037.46 374.981 L1037.46 401.778 L1044.14 401.778 L1044.14 405.221 L1026.72 405.221 L1026.72 401.778 Z" fill="#000000" fill-rule="nonzero" fill-opacity="1" /><path clip-path="url(#clip170)" d="M769.73 1402.63 Q766.57 1402.63 764.97 1405.74 Q763.391 1408.84 763.391 1415.08 Q763.391 1421.3 764.97 1424.42 Q766.57 1427.52 769.73 1427.52 Q772.91 1427.52 774.49 1424.42 Q776.09 1421.3 776.09 1415.08 Q776.09 1408.84 774.49 1405.74 Q772.91 1402.63 769.73 1402.63 M769.73 1399.38 Q774.814 1399.38 777.488 1403.41 Q780.182 1407.43 780.182 1415.08 Q780.182 1422.72 777.488 1426.75 Q774.814 1430.76 769.73 1430.76 Q764.646 1430.76 761.952 1426.75 Q759.279 1422.72 759.279 1415.08 Q759.279 1407.43 761.952 1403.41 Q764.646 1399.38 769.73 1399.38 Z" fill="#000000" fill-rule="nonzero" fill-opacity="1" /><path clip-path="url(#clip170)" d="M790.896 1426.73 L805.176 1426.73 L805.176 1430.17 L785.974 1430.17 L785.974 1426.73 Q788.304 1424.32 792.314 1420.27 Q796.345 1416.2 797.378 1415.02 Q799.342 1412.81 800.112 1411.29 Q800.902 1409.75 800.902 1408.28 Q800.902 1405.87 799.201 1404.35 Q797.519 1402.83 794.805 1402.83 Q792.881 1402.83 790.734 1403.5 Q788.607 1404.16 786.177 1405.52 L786.177 1401.39 Q788.648 1400.4 790.795 1399.89 Q792.942 1399.38 794.724 1399.38 Q799.423 1399.38 802.218 1401.73 Q805.014 1404.08 805.014 1408.01 Q805.014 1409.88 804.305 1411.56 Q803.616 1413.22 801.773 1415.49 Q801.266 1416.07 798.552 1418.89 Q795.838 1421.68 790.896 1426.73 Z" fill="#000000" fill-rule="nonzero" fill-opacity="1" /><path clip-path="url(#clip170)" d="M1587.09 1195.45 Q1583.93 1195.45 1582.33 1198.57 Q1580.75 1201.67 1580.75 1207.91 Q1580.75 1214.13 1582.33 1217.25 Q1583.93 1220.35 1587.09 1220.35 Q1590.27 1220.35 1591.85 1217.25 Q1593.45 1214.13 1593.45 1207.91 Q1593.45 1201.67 1591.85 1198.57 Q1590.27 1195.45 1587.09 1195.45 M1587.09 1192.21 Q1592.17 1192.21 1594.85 1196.24 Q1597.54 1200.25 1597.54 1207.91 Q1597.54 1215.54 1594.85 1219.58 Q1592.17 1223.59 1587.09 1223.59 Q1582 1223.59 1579.31 1219.58 Q1576.64 1215.54 1576.64 1207.91 Q1576.64 1200.25 1579.31 1196.24 Q1582 1192.21 1587.09 1192.21 Z" fill="#000000" fill-rule="nonzero" fill-opacity="1" /><path clip-path="url(#clip170)" d="M1617.13 1206.69 Q1620.06 1207.32 1621.7 1209.31 Q1623.36 1211.29 1623.36 1214.21 Q1623.36 1218.68 1620.29 1221.13 Q1617.21 1223.59 1611.54 1223.59 Q1609.63 1223.59 1607.61 1223.2 Q1605.6 1222.84 1603.45 1222.09 L1603.45 1218.14 Q1605.16 1219.13 1607.18 1219.64 Q1609.21 1220.14 1611.41 1220.14 Q1615.26 1220.14 1617.27 1218.62 Q1619.29 1217.1 1619.29 1214.21 Q1619.29 1211.53 1617.41 1210.04 Q1615.55 1208.52 1612.2 1208.52 L1608.68 1208.52 L1608.68 1205.15 L1612.37 1205.15 Q1615.38 1205.15 1616.98 1203.96 Q1618.58 1202.74 1618.58 1200.48 Q1618.58 1198.15 1616.92 1196.91 Q1615.28 1195.65 1612.2 1195.65 Q1610.52 1195.65 1608.6 1196.02 Q1606.67 1196.38 1604.37 1197.15 L1604.37 1193.51 Q1606.69 1192.86 1608.72 1192.54 Q1610.77 1192.21 1612.57 1192.21 Q1617.23 1192.21 1619.94 1194.34 Q1622.66 1196.44 1622.66 1200.05 Q1622.66 1202.56 1621.22 1204.3 Q1619.78 1206.03 1617.13 1206.69 Z" fill="#000000" fill-rule="nonzero" fill-opacity="1" /><path clip-path="url(#clip170)" d="M2404.36 988.268 Q2401.2 988.268 2399.6 991.387 Q2398.02 994.486 2398.02 1000.72 Q2398.02 1006.94 2399.6 1010.06 Q2401.2 1013.16 2404.36 1013.16 Q2407.54 1013.16 2409.12 1010.06 Q2410.72 1006.94 2410.72 1000.72 Q2410.72 994.486 2409.12 991.387 Q2407.54 988.268 2404.36 988.268 M2404.36 985.027 Q2409.45 985.027 2412.12 989.058 Q2414.82 993.068 2414.82 1000.72 Q2414.82 1008.36 2412.12 1012.39 Q2409.45 1016.4 2404.36 1016.4 Q2399.28 1016.4 2396.59 1012.39 Q2393.91 1008.36 2393.91 1000.72 Q2393.91 993.068 2396.59 989.058 Q2399.28 985.027 2404.36 985.027 Z" fill="#000000" fill-rule="nonzero" fill-opacity="1" /><path clip-path="url(#clip170)" d="M2433.25 989.139 L2422.92 1005.28 L2433.25 1005.28 L2433.25 989.139 M2432.17 985.574 L2437.32 985.574 L2437.32 1005.28 L2441.63 1005.28 L2441.63 1008.68 L2437.32 1008.68 L2437.32 1015.81 L2433.25 1015.81 L2433.25 1008.68 L2419.6 1008.68 L2419.6 1004.73 L2432.17 985.574 Z" fill="#000000" fill-rule="nonzero" fill-opacity="1" /><path clip-path="url(#clip170)" d="M2166.22 2013.22 Q2163.06 2013.22 2161.46 2016.34 Q2159.88 2019.44 2159.88 2025.68 Q2159.88 2031.9 2161.46 2035.01 Q2163.06 2038.11 2166.22 2038.11 Q2169.4 2038.11 2170.98 2035.01 Q2172.58 2031.9 2172.58 2025.68 Q2172.58 2019.44 2170.98 2016.34 Q2169.4 2013.22 2166.22 2013.22 M2166.22 2009.98 Q2171.3 2009.98 2173.97 2014.01 Q2176.67 2018.02 2176.67 2025.68 Q2176.67 2033.31 2173.97 2037.34 Q2171.3 2041.35 2166.22 2041.35 Q2161.13 2041.35 2158.44 2037.34 Q2155.76 2033.31 2155.76 2025.68 Q2155.76 2018.02 2158.44 2014.01 Q2161.13 2009.98 2166.22 2009.98 Z" fill="#000000" fill-rule="nonzero" fill-opacity="1" /><path clip-path="url(#clip170)" d="M2183.9 2010.53 L2199.96 2010.53 L2199.96 2013.97 L2187.65 2013.97 L2187.65 2021.38 Q2188.54 2021.08 2189.43 2020.94 Q2190.32 2020.78 2191.21 2020.78 Q2196.27 2020.78 2199.23 2023.55 Q2202.19 2026.33 2202.19 2031.06 Q2202.19 2035.95 2199.15 2038.66 Q2196.11 2041.35 2190.58 2041.35 Q2188.68 2041.35 2186.69 2041.03 Q2184.73 2040.71 2182.62 2040.06 L2182.62 2035.95 Q2184.44 2036.94 2186.39 2037.42 Q2188.33 2037.91 2190.5 2037.91 Q2194 2037.91 2196.05 2036.07 Q2198.1 2034.22 2198.1 2031.06 Q2198.1 2027.91 2196.05 2026.06 Q2194 2024.22 2190.5 2024.22 Q2188.86 2024.22 2187.22 2024.58 Q2185.6 2024.95 2183.9 2025.72 L2183.9 2010.53 Z" fill="#000000" fill-rule="nonzero" fill-opacity="1" /></svg>
