<?xml version="1.0" encoding="utf-8"?>
<svg xmlns="http://www.w3.org/2000/svg" xmlns:xlink="http://www.w3.org/1999/xlink" width="800" height="600" viewBox="0 0 3200 2400">
<defs>
  <clipPath id="clip680">
    <rect x="0" y="0" width="3200" height="2400"/>
  </clipPath>
</defs>
<path clip-path="url(#clip680)" d="
M0 2400 L3200 2400 L3200 0 L0 0  Z
  " fill="#ffffff" fill-rule="evenodd" fill-opacity="1"/>
<defs>
  <clipPath id="clip681">
    <rect x="640" y="0" width="2241" height="2241"/>
  </clipPath>
</defs>
<path clip-path="url(#clip680)" d="
M455.118 2352.76 L2744.88 2352.76 L2744.88 62.9921 L455.118 62.9921  Z
  " fill="#ffffff" fill-rule="evenodd" fill-opacity="1"/>
<defs>
  <clipPath id="clip682">
    <rect x="455" y="62" width="2291" height="2291"/>
  </clipPath>
</defs>
<path clip-path="url(#clip680)" d="M1221.82 103.433 L1221.82 78.112 Q1221.82 76.6916 1221.88 76.1975 Q1221.95 75.7034 1222.32 75.3329 Q1222.69 74.9623 1223.43 74.9623 Q1224.85 74.9623 1224.97 76.2593 Q1225.34 88.7962 1232.82 95.7132 Q1240.16 102.568 1252.76 102.568 Q1260.36 102.568 1265.05 97.1336 Q1269.75 91.6371 1269.75 84.4731 Q1269.75 77.618 1265.79 72.8008 Q1264.13 70.6393 1262.03 69.2806 Q1259.99 67.8601 1258.69 67.4278 Q1257.46 66.9955 1255.05 66.3779 Q1239.36 62.6107 1238.37 62.1784 Q1230.9 59.6463 1226.33 53.2851 Q1221.82 46.8623 1221.82 39.019 Q1221.82 28.8906 1228.92 21.7266 Q1236.09 14.5009 1246.46 14.5009 Q1251.65 14.5009 1255.97 16.1683 Q1260.36 17.7741 1262.15 19.2563 Q1263.94 20.7385 1266.72 23.3941 L1271.11 16.1683 Q1272.09 14.5009 1273.02 14.5009 Q1274.01 14.5009 1274.19 15.1185 Q1274.44 15.6743 1274.44 17.527 L1274.44 42.9715 Q1274.44 44.3919 1274.38 44.886 Q1274.32 45.3801 1273.88 45.6889 Q1273.51 45.9977 1272.77 45.9977 Q1271.54 45.9977 1271.23 44.5155 Q1267.71 18.0829 1246.59 18.0829 Q1239.36 18.0829 1234.61 22.9618 Q1229.91 27.7789 1229.91 34.6341 Q1229.91 40.1924 1233.37 44.7625 Q1236.83 49.2709 1242.7 50.6913 L1258.88 54.5821 Q1266.97 56.4966 1272.4 63.6606 Q1277.84 70.8245 1277.84 80.1501 Q1277.84 90.896 1270.8 98.6776 Q1263.82 106.459 1252.89 106.459 Q1245.04 106.459 1238.99 103.865 Q1232.94 101.271 1229.67 97.6277 Q1227.13 101.827 1225.47 104.174 L1225.1 104.792 Q1224.11 106.459 1223.18 106.459 Q1222.19 106.459 1222.01 105.842 Q1221.82 105.224 1221.82 103.433 Z" fill="#000000" fill-rule="evenodd" fill-opacity="1" /><path clip-path="url(#clip680)" d="M1289.08 103.68 L1289.08 99.7892 Q1295.81 99.7892 1297.35 98.9864 Q1298.9 98.1217 1298.9 94.0457 L1298.9 60.0168 Q1298.9 55.3232 1297.29 54.2115 Q1295.75 53.0999 1289.57 53.0999 L1289.57 49.1473 L1307.23 47.7886 L1307.23 94.1692 Q1307.23 97.9365 1308.59 98.8628 Q1309.95 99.7892 1316.13 99.7892 L1316.13 103.68 Q1303.22 103.309 1302.97 103.309 Q1301.24 103.309 1289.08 103.68 M1294.39 25.7409 Q1294.39 23.2088 1296.3 21.1708 Q1298.28 19.071 1301.06 19.071 Q1303.84 19.071 1305.81 20.9855 Q1307.79 22.8383 1307.79 25.8027 Q1307.79 28.7053 1305.81 30.6198 Q1303.84 32.4726 1301.06 32.4726 Q1298.16 32.4726 1296.24 30.4345 Q1294.39 28.3965 1294.39 25.7409 Z" fill="#000000" fill-rule="evenodd" fill-opacity="1" /><path clip-path="url(#clip680)" d="M1323.97 103.68 L1323.97 99.7892 Q1330.7 99.7892 1332.25 98.9864 Q1333.79 98.1217 1333.79 94.0457 L1333.79 60.1403 Q1333.79 55.4467 1332.12 54.2733 Q1330.52 53.0999 1323.97 53.0999 L1323.97 49.1473 L1341.76 47.7886 L1341.76 61.0667 Q1347.69 47.7886 1360.47 47.7886 Q1375.29 47.7886 1377.33 60.1403 Q1379.49 55.3232 1384 51.5559 Q1388.57 47.7886 1395.67 47.7886 Q1405.18 47.7886 1408.95 52.4823 Q1411.73 55.632 1412.29 59.1522 Q1412.84 62.6724 1412.84 71.8127 L1412.84 95.9602 Q1412.96 98.6158 1415 99.2334 Q1417.04 99.7892 1422.72 99.7892 L1422.72 103.68 Q1409.82 103.309 1408.58 103.309 Q1407.59 103.309 1394.25 103.68 L1394.25 99.7892 Q1400.98 99.7892 1402.53 98.9864 Q1404.13 98.1217 1404.13 94.0457 L1404.13 64.5869 Q1404.13 58.1641 1402.16 54.3968 Q1400.18 50.5678 1394.75 50.5678 Q1388.2 50.5678 1382.95 56.0643 Q1377.7 61.5608 1377.7 70.8245 L1377.7 94.0457 Q1377.7 98.1217 1379.24 98.9864 Q1380.85 99.7892 1387.58 99.7892 L1387.58 103.68 Q1374.67 103.309 1373.38 103.309 Q1372.39 103.309 1359.11 103.68 L1359.11 99.7892 Q1365.84 99.7892 1367.39 98.9864 Q1368.99 98.1217 1368.99 94.0457 L1368.99 64.5869 Q1368.99 58.1641 1367.02 54.3968 Q1365.04 50.5678 1359.61 50.5678 Q1353.06 50.5678 1347.81 56.0643 Q1342.56 61.5608 1342.56 70.8245 L1342.56 94.0457 Q1342.56 98.1217 1344.1 98.9864 Q1345.71 99.7892 1352.38 99.7892 L1352.38 103.68 Q1339.47 103.309 1338.24 103.309 Q1337.25 103.309 1323.97 103.68 Z" fill="#000000" fill-rule="evenodd" fill-opacity="1" /><path clip-path="url(#clip680)" d="M1428.71 124.307 Q1435.44 124.307 1436.99 123.443 Q1438.59 122.64 1438.59 118.626 L1438.59 59.3992 Q1438.59 55.1997 1436.99 54.1498 Q1435.44 53.0999 1428.71 53.0999 L1428.71 49.1473 L1446.93 47.7886 L1446.93 56.126 Q1454.53 47.7886 1464.66 47.7886 Q1475.4 47.7886 1483.25 56.126 Q1491.09 64.4634 1491.09 76.3828 Q1491.09 88.4257 1482.75 96.7631 Q1474.41 105.1 1462.87 105.1 Q1456.57 105.1 1452.3 101.889 Q1448.11 98.6158 1447.3 96.2072 L1447.3 97.3806 L1447.3 118.626 Q1447.3 122.702 1448.91 123.504 Q1450.51 124.307 1457.18 124.307 L1457.18 128.198 Q1443.91 127.828 1442.92 127.828 Q1441.68 127.828 1428.71 128.198 L1428.71 124.307 M1447.3 89.2903 Q1447.3 91.2048 1447.55 91.8841 Q1447.86 92.5635 1449.09 94.6015 Q1454.1 102.26 1462.25 102.26 Q1462.31 102.26 1462.37 102.26 Q1469.6 102.26 1475.09 94.9103 Q1480.59 87.4993 1480.59 76.3828 Q1480.59 65.7603 1475.59 58.3493 Q1470.59 50.9383 1463.67 50.9383 Q1458.73 50.9383 1454.4 53.5939 Q1450.08 56.2495 1447.3 61.0667 L1447.3 89.2903 Z" fill="#000000" fill-rule="evenodd" fill-opacity="1" /><path clip-path="url(#clip680)" d="M1499.55 103.68 L1499.55 99.7892 Q1506.28 99.7892 1507.83 98.9864 Q1509.37 98.1217 1509.37 94.0457 L1509.37 28.273 Q1509.37 23.5794 1507.7 22.4059 Q1506.1 21.2325 1499.55 21.2325 L1499.55 17.28 L1517.71 15.9213 L1517.71 94.0457 Q1517.71 98.1217 1519.31 98.9864 Q1520.92 99.7892 1527.59 99.7892 L1527.59 103.68 Q1526.04 103.68 1522.83 103.556 Q1519.62 103.433 1517.27 103.371 Q1514.93 103.309 1513.57 103.309 Q1512.09 103.309 1499.55 103.68 Z" fill="#000000" fill-rule="evenodd" fill-opacity="1" /><path clip-path="url(#clip680)" d="M1533.89 75.827 Q1533.89 63.9076 1541.55 55.4467 Q1549.2 46.9858 1560.2 46.9858 Q1571.31 46.9858 1577.06 54.2115 Q1582.86 61.4373 1582.86 71.8127 Q1582.86 73.7272 1582.37 74.0977 Q1581.87 74.4683 1579.71 74.4683 L1544.39 74.4683 Q1544.39 87.3758 1548.22 93.4281 Q1553.53 101.889 1562.48 101.889 Q1563.72 101.889 1565.2 101.642 Q1566.68 101.395 1569.71 100.345 Q1572.73 99.2334 1575.39 96.3308 Q1578.04 93.4281 1579.59 88.858 Q1579.96 87.067 1581.19 87.1287 Q1582.86 87.1287 1582.86 88.611 Q1582.86 89.7226 1581.63 92.2547 Q1580.45 94.725 1578.17 97.6894 Q1575.88 100.654 1571.44 102.877 Q1567.05 105.1 1561.74 105.1 Q1550.62 105.1 1542.23 96.7013 Q1533.89 88.2404 1533.89 75.827 M1544.51 71.8127 L1574.52 71.8127 Q1574.52 69.1571 1574.03 66.1927 Q1573.6 63.2282 1572.24 59.1522 Q1570.94 55.0144 1567.85 52.4205 Q1564.77 49.8267 1560.2 49.8267 Q1558.16 49.8267 1555.94 50.6913 Q1553.77 51.5559 1551.12 53.6557 Q1548.46 55.7555 1546.61 60.5109 Q1544.76 65.2663 1544.51 71.8127 Z" fill="#000000" fill-rule="evenodd" fill-opacity="1" /><path clip-path="url(#clip680)" d="M1648.63 93.0576 Q1635.67 79.656 1635.67 60.4491 Q1635.67 41.1805 1648.76 27.8407 Q1661.85 14.5009 1679.64 14.5009 Q1684.08 14.5009 1687.85 15.5508 Q1691.68 16.5389 1694.71 18.5769 Q1697.73 20.5532 1699.28 21.9119 Q1700.88 23.2088 1703.04 25.3704 L1709.41 16.0448 Q1710.39 14.5009 1711.38 14.5009 Q1712.43 14.5009 1712.62 15.1185 Q1712.8 15.6743 1712.8 17.527 L1712.8 47.5416 Q1712.8 49.5796 1712.55 50.0737 Q1712.31 50.5678 1710.76 50.5678 Q1709.53 50.5678 1709.28 50.1972 Q1709.03 49.8267 1708.73 48.4062 Q1706.81 34.7576 1699.15 26.6055 Q1691.56 18.4534 1681.18 18.4534 Q1678.16 18.4534 1674.76 19.1328 Q1671.42 19.8121 1666.48 22.4059 Q1661.6 24.9998 1657.84 29.2611 Q1654.13 33.4607 1651.41 41.6128 Q1648.7 49.7032 1648.7 60.4491 Q1648.7 71.0716 1651.41 79.2237 Q1654.13 87.3758 1657.9 91.6371 Q1661.73 95.8367 1666.67 98.4923 Q1671.67 101.148 1675.19 101.889 Q1678.77 102.568 1681.92 102.568 Q1684.08 102.568 1686.62 102.136 Q1689.15 101.642 1692.92 100.283 Q1696.74 98.8628 1699.15 95.5279 Q1701.56 92.1929 1701.56 87.2523 L1701.56 79.1619 Q1701.56 75.3947 1699.71 74.2212 Q1697.86 73.0478 1689.77 73.0478 L1685.75 73.0478 L1685.75 69.1571 Q1690.32 69.5276 1706.07 69.5276 Q1707.49 69.5276 1721.51 69.1571 L1721.51 73.0478 Q1715.46 73.0478 1714.1 73.9742 Q1712.8 74.8388 1712.8 78.6061 L1712.8 100.654 Q1712.8 103.556 1711.69 103.556 Q1710.7 103.556 1707.74 100.716 Q1704.83 97.8747 1703.54 95.7132 Q1700.51 101.024 1693.9 103.742 Q1687.36 106.459 1679.88 106.459 Q1661.67 106.459 1648.63 93.0576 Z" fill="#000000" fill-rule="evenodd" fill-opacity="1" /><path clip-path="url(#clip680)" d="M1731.21 103.68 L1731.21 99.7892 Q1737.94 99.7892 1739.48 98.9864 Q1741.09 98.1217 1741.09 94.0457 L1741.09 60.1403 Q1741.09 55.4467 1739.42 54.2733 Q1737.81 53.0999 1731.21 53.0999 L1731.21 49.1473 L1748.81 47.7886 L1748.81 61.6843 Q1750.6 56.2495 1754.37 52.05 Q1758.19 47.7886 1764.37 47.7886 Q1768.45 47.7886 1771.04 50.0737 Q1773.7 52.3588 1773.7 55.5084 Q1773.7 58.2876 1771.97 59.708 Q1770.3 61.0667 1768.26 61.0667 Q1765.98 61.0667 1764.37 59.6463 Q1762.83 58.1641 1762.83 55.632 Q1762.83 54.088 1763.51 52.9146 Q1764.25 51.6794 1764.8 51.2471 Q1765.36 50.8148 1765.73 50.6913 Q1765.48 50.5678 1764.37 50.5678 Q1757.39 50.5678 1753.38 57.5465 Q1749.42 64.4634 1749.42 74.3448 L1749.42 93.7987 Q1749.42 97.4424 1750.91 98.6158 Q1752.45 99.7892 1759.06 99.7892 L1761.71 99.7892 L1761.71 103.68 Q1756.65 103.309 1745.66 103.309 Q1744.11 103.309 1741.7 103.371 Q1739.3 103.433 1736.15 103.556 Q1733 103.68 1731.21 103.68 Z" fill="#000000" fill-rule="evenodd" fill-opacity="1" /><path clip-path="url(#clip680)" d="M1782.4 91.6371 Q1782.4 80.8912 1795.06 75.2094 Q1802.66 71.5656 1818.35 70.6393 L1818.35 66.0074 Q1818.35 58.1641 1814.21 54.0262 Q1810.13 49.8267 1804.95 49.8267 Q1795.68 49.8267 1791.23 55.632 Q1795 55.7555 1796.36 57.67 Q1797.72 59.5227 1797.72 61.4373 Q1797.72 63.9693 1796.11 65.6368 Q1794.57 67.2425 1791.91 67.2425 Q1789.38 67.2425 1787.71 65.6986 Q1786.05 64.0929 1786.05 61.3137 Q1786.05 55.1379 1791.61 51.0618 Q1797.23 46.9858 1805.19 46.9858 Q1815.57 46.9858 1822.48 53.9645 Q1824.65 56.126 1825.7 58.9052 Q1826.81 61.6843 1826.93 63.537 Q1827.05 65.328 1827.05 68.91 L1827.05 94.1692 Q1827.05 94.9103 1827.3 96.1455 Q1827.55 97.3806 1828.66 98.9864 Q1829.83 100.53 1831.75 100.53 Q1836.32 100.53 1836.26 92.44 L1836.26 85.3378 L1839.47 85.3378 L1839.47 92.44 Q1839.47 99.1716 1835.89 101.827 Q1832.37 104.421 1829.09 104.421 Q1824.89 104.421 1822.24 101.333 Q1819.58 98.2453 1819.21 94.0457 Q1817.3 98.8628 1812.91 102.013 Q1808.59 105.1 1802.66 105.1 Q1798.09 105.1 1793.77 103.927 Q1789.51 102.815 1785.92 99.6657 Q1782.4 96.4543 1782.4 91.6371 M1792.16 91.5136 Q1792.16 96.2072 1795.5 99.2334 Q1798.83 102.26 1803.52 102.26 Q1808.84 102.26 1813.59 98.1835 Q1818.35 94.0457 1818.35 85.9553 L1818.35 73.2949 Q1804.33 73.7889 1798.21 79.4089 Q1792.16 84.9672 1792.16 91.5136 Z" fill="#000000" fill-rule="evenodd" fill-opacity="1" /><path clip-path="url(#clip680)" d="M1843.85 124.307 Q1850.58 124.307 1852.13 123.443 Q1853.73 122.64 1853.73 118.626 L1853.73 59.3992 Q1853.73 55.1997 1852.13 54.1498 Q1850.58 53.0999 1843.85 53.0999 L1843.85 49.1473 L1862.07 47.7886 L1862.07 56.126 Q1869.67 47.7886 1879.8 47.7886 Q1890.54 47.7886 1898.39 56.126 Q1906.23 64.4634 1906.23 76.3828 Q1906.23 88.4257 1897.89 96.7631 Q1889.55 105.1 1878.01 105.1 Q1871.71 105.1 1867.44 101.889 Q1863.25 98.6158 1862.44 96.2072 L1862.44 97.3806 L1862.44 118.626 Q1862.44 122.702 1864.05 123.504 Q1865.65 124.307 1872.32 124.307 L1872.32 128.198 Q1859.05 127.828 1858.06 127.828 Q1856.82 127.828 1843.85 128.198 L1843.85 124.307 M1862.44 89.2903 Q1862.44 91.2048 1862.69 91.8841 Q1863 92.5635 1864.23 94.6015 Q1869.24 102.26 1877.39 102.26 Q1877.45 102.26 1877.51 102.26 Q1884.74 102.26 1890.23 94.9103 Q1895.73 87.4993 1895.73 76.3828 Q1895.73 65.7603 1890.73 58.3493 Q1885.73 50.9383 1878.81 50.9383 Q1873.87 50.9383 1869.54 53.5939 Q1865.22 56.2495 1862.44 61.0667 L1862.44 89.2903 Z" fill="#000000" fill-rule="evenodd" fill-opacity="1" /><path clip-path="url(#clip680)" d="M1914.57 103.68 L1914.57 99.7892 Q1921.3 99.7892 1922.84 98.9864 Q1924.39 98.1217 1924.39 94.0457 L1924.39 28.273 Q1924.39 23.5794 1922.72 22.4059 Q1921.11 21.2325 1914.57 21.2325 L1914.57 17.28 L1932.72 15.9213 L1932.72 59.8933 L1932.85 59.8933 Q1934.88 55.3232 1939.46 51.5559 Q1944.03 47.7886 1951.07 47.7886 Q1960.58 47.7886 1964.34 52.4823 Q1967.12 55.632 1967.68 59.1522 Q1968.3 62.6724 1968.3 71.8127 L1968.3 95.9602 Q1968.42 98.6158 1970.46 99.2334 Q1972.5 99.7892 1978.18 99.7892 L1978.18 103.68 Q1965.27 103.309 1963.97 103.309 Q1962.98 103.309 1949.71 103.68 L1949.71 99.7892 Q1956.44 99.7892 1957.98 98.9864 Q1959.59 98.1217 1959.59 94.0457 L1959.59 64.5869 Q1959.59 58.1641 1957.61 54.3968 Q1955.64 50.5678 1950.2 50.5678 Q1943.65 50.5678 1938.41 56.0643 Q1933.16 61.5608 1933.16 70.8245 L1933.16 94.0457 Q1933.16 98.1217 1934.7 98.9864 Q1936.31 99.7892 1942.98 99.7892 L1942.98 103.68 Q1930.07 103.309 1928.83 103.309 Q1927.84 103.309 1914.57 103.68 Z" fill="#000000" fill-rule="evenodd" fill-opacity="1" /><polyline clip-path="url(#clip682)" style="stroke:#000000; stroke-linecap:butt; stroke-linejoin:round; stroke-width:4; stroke-opacity:1; fill:none" points="
  2163.47,390.101 2163.81,411.672 2164.17,433.239 2164.56,454.798 2164.99,476.345 2165.5,497.874 2166.08,519.384 2166.76,540.868 2167.56,562.324 2168.48,583.746 
  2169.55,605.132 2170.78,626.476 2172.19,647.775 2173.79,669.024 2175.6,690.22 2177.64,711.358 2179.92,732.434 2182.46,753.444 2185.27,774.384 2188.38,795.25 
  2191.79,816.037 2195.53,836.742 2199.6,857.36 2204.03,877.887 2208.84,898.32 2214.03,918.653 2219.6,938.888 2225.55,959.028 2231.86,979.077 2238.5,999.039 
  2245.47,1018.92 2252.74,1038.72 2260.31,1058.45 2268.15,1078.11 2276.25,1097.7 2284.59,1117.23 2293.16,1136.7 2301.93,1156.12 2310.91,1175.48 2320.06,1194.81 
  2329.37,1214.09 2338.82,1233.33 2348.41,1252.54 2358.11,1271.73 2367.9,1290.88 2377.78,1310.02 2387.72,1329.14 2397.71,1348.25 2407.73,1367.35 2417.77,1386.45 
  
  "/>
<polyline clip-path="url(#clip682)" style="stroke:#000000; stroke-linecap:butt; stroke-linejoin:round; stroke-width:4; stroke-opacity:1; fill:none" points="
  2163.47,390.101 2156.09,409.63 2148.7,429.148 2141.28,448.648 2133.81,468.12 2126.3,487.554 2118.71,506.94 2111.05,526.27 2103.28,545.533 2095.41,564.72 
  2087.41,583.823 2079.28,602.831 2070.99,621.734 2062.54,640.524 2053.91,659.191 2045.09,677.726 2036.07,696.118 2026.82,714.359 2017.34,732.439 2007.61,750.349 
  1997.62,768.079 1987.36,785.62 1976.81,802.962 1965.95,820.095 1954.78,837.011 1943.28,853.7 1931.45,870.163 1919.31,886.407 1906.86,902.444 1894.13,918.282 
  1881.12,933.93 1867.85,949.398 1854.33,964.697 1840.58,979.834 1826.61,994.82 1812.43,1009.66 1798.06,1024.37 1783.51,1038.96 1768.8,1053.44 1753.93,1067.81 
  1738.93,1082.08 1723.81,1096.27 1708.57,1110.39 1693.24,1124.44 1677.82,1138.43 1662.34,1152.38 1646.8,1166.28 1631.23,1180.16 1615.62,1194.02 1600,1207.87 
  
  "/>
<polyline clip-path="url(#clip682)" style="stroke:#000000; stroke-linecap:butt; stroke-linejoin:round; stroke-width:4; stroke-opacity:1; fill:none" points="
  2417.77,1386.45 2400.02,1387.69 2382.26,1388.92 2364.52,1390.12 2346.78,1391.26 2329.06,1392.34 2311.36,1393.34 2293.67,1394.25 2276.02,1395.03 2258.39,1395.69 
  2240.79,1396.2 2223.23,1396.55 2205.71,1396.72 2188.23,1396.69 2170.8,1396.45 2153.41,1395.99 2136.08,1395.27 2118.81,1394.3 2101.6,1393.05 2084.45,1391.51 
  2067.37,1389.66 2050.36,1387.48 2033.43,1384.96 2016.57,1382.08 1999.8,1378.83 1983.11,1375.18 1966.5,1371.15 1949.98,1366.74 1933.54,1361.97 1917.17,1356.86 
  1900.87,1351.42 1884.64,1345.68 1868.47,1339.64 1852.37,1333.32 1836.32,1326.74 1820.32,1319.92 1804.38,1312.87 1788.48,1305.61 1772.62,1298.15 1756.8,1290.51 
  1741.02,1282.71 1725.27,1274.77 1709.55,1266.69 1693.85,1258.5 1678.18,1250.21 1662.52,1241.84 1646.88,1233.4 1631.25,1224.92 1615.62,1216.4 1600,1207.87 
  
  "/>
<polyline clip-path="url(#clip682)" style="stroke:#000000; stroke-linecap:butt; stroke-linejoin:round; stroke-width:4; stroke-opacity:1; fill:none" points="
  1600,1207.87 1582.24,1209.11 1564.49,1210.34 1546.74,1211.54 1529.01,1212.69 1511.29,1213.77 1493.58,1214.77 1475.9,1215.67 1458.25,1216.46 1440.62,1217.12 
  1423.02,1217.63 1405.46,1217.97 1387.94,1218.14 1370.46,1218.12 1353.03,1217.88 1335.64,1217.41 1318.31,1216.7 1301.04,1215.73 1283.83,1214.48 1266.68,1212.94 
  1249.6,1211.08 1232.59,1208.91 1215.65,1206.39 1198.8,1203.51 1182.02,1200.25 1165.33,1196.61 1148.73,1192.57 1132.21,1188.17 1115.76,1183.4 1099.4,1178.29 
  1083.1,1172.85 1066.87,1167.1 1050.7,1161.07 1034.6,1154.75 1018.55,1148.17 1002.55,1141.35 986.605,1134.3 970.706,1127.04 954.849,1119.58 939.032,1111.94 
  923.25,1104.14 907.5,1096.2 891.779,1088.12 876.082,1079.93 860.407,1071.64 844.75,1063.27 829.107,1054.84 813.474,1046.35 797.849,1037.84 782.227,1029.3 
  
  "/>
<polyline clip-path="url(#clip682)" style="stroke:#000000; stroke-linecap:butt; stroke-linejoin:round; stroke-width:4; stroke-opacity:1; fill:none" points="
  1600,1207.87 1592.62,1227.4 1585.23,1246.92 1577.81,1266.42 1570.35,1285.89 1562.83,1305.32 1555.25,1324.71 1547.58,1344.04 1539.82,1363.3 1531.94,1382.49 
  1523.95,1401.59 1515.81,1420.6 1507.53,1439.5 1499.08,1458.29 1490.45,1476.96 1481.63,1495.5 1472.6,1513.89 1463.35,1532.13 1453.87,1550.21 1444.15,1568.12 
  1434.16,1585.85 1423.89,1603.39 1413.34,1620.73 1402.49,1637.87 1391.32,1654.78 1379.82,1671.47 1367.99,1687.94 1355.85,1704.18 1343.4,1720.22 1330.66,1736.05 
  1317.66,1751.7 1304.38,1767.17 1290.87,1782.47 1277.12,1797.61 1263.14,1812.59 1248.97,1827.44 1234.6,1842.15 1220.05,1856.74 1205.34,1871.21 1190.47,1885.58 
  1175.47,1899.86 1160.34,1914.05 1145.11,1928.17 1129.78,1942.21 1114.36,1956.21 1098.88,1970.15 1083.34,1984.06 1067.77,1997.94 1052.16,2011.8 1036.54,2025.65 
  
  "/>
<polyline clip-path="url(#clip682)" style="stroke:#000000; stroke-linecap:butt; stroke-linejoin:round; stroke-width:4; stroke-opacity:1; fill:none" points="
  782.227,1029.3 782.569,1050.87 782.926,1072.44 783.316,1094 783.755,1115.55 784.258,1137.08 784.842,1158.59 785.523,1180.07 786.317,1201.53 787.241,1222.95 
  788.309,1244.33 789.54,1265.68 790.948,1286.98 792.551,1308.23 794.363,1329.42 796.402,1350.56 798.683,1371.64 801.223,1392.65 804.037,1413.59 807.143,1434.45 
  810.556,1455.24 814.292,1475.94 818.367,1496.56 822.798,1517.09 827.601,1537.52 832.791,1557.85 838.368,1578.09 844.317,1598.23 850.622,1618.28 857.266,1638.24 
  864.234,1658.12 871.508,1677.92 879.074,1697.65 886.914,1717.31 895.013,1736.9 903.354,1756.43 911.922,1775.9 920.7,1795.32 929.671,1814.68 938.821,1834.01 
  948.132,1853.29 957.589,1872.53 967.175,1891.74 976.874,1910.93 986.67,1930.08 996.547,1949.22 1006.49,1968.34 1016.48,1987.45 1026.5,2006.55 1036.54,2025.65 
  
  "/>
<path clip-path="url(#clip682)" d="
M2306.99 390.101 L2235.23 265.808 L2091.71 265.808 L2019.95 390.101 L2091.71 514.395 L2235.23 514.395 L2306.99 390.101 L2306.99 390.101  Z
  " fill="#f5fffa" fill-rule="evenodd" fill-opacity="1"/>
<polyline clip-path="url(#clip682)" style="stroke:#000000; stroke-linecap:butt; stroke-linejoin:round; stroke-width:4; stroke-opacity:1; fill:none" points="
  2306.99,390.101 2235.23,265.808 2091.71,265.808 2019.95,390.101 2091.71,514.395 2235.23,514.395 2306.99,390.101 
  "/>
<path clip-path="url(#clip682)" d="
M2561.29 1386.45 L2489.53 1262.15 L2346.01 1262.15 L2274.25 1386.45 L2346.01 1510.74 L2489.53 1510.74 L2561.29 1386.45 L2561.29 1386.45  Z
  " fill="#f5fffa" fill-rule="evenodd" fill-opacity="1"/>
<polyline clip-path="url(#clip682)" style="stroke:#000000; stroke-linecap:butt; stroke-linejoin:round; stroke-width:4; stroke-opacity:1; fill:none" points="
  2561.29,1386.45 2489.53,1262.15 2346.01,1262.15 2274.25,1386.45 2346.01,1510.74 2489.53,1510.74 2561.29,1386.45 
  "/>
<path clip-path="url(#clip682)" d="
M1743.52 1207.87 L1671.76 1083.58 L1528.24 1083.58 L1456.48 1207.87 L1528.24 1332.16 L1671.76 1332.16 L1743.52 1207.87 L1743.52 1207.87  Z
  " fill="#f5fffa" fill-rule="evenodd" fill-opacity="1"/>
<polyline clip-path="url(#clip682)" style="stroke:#000000; stroke-linecap:butt; stroke-linejoin:round; stroke-width:4; stroke-opacity:1; fill:none" points="
  1743.52,1207.87 1671.76,1083.58 1528.24,1083.58 1456.48,1207.87 1528.24,1332.16 1671.76,1332.16 1743.52,1207.87 
  "/>
<path clip-path="url(#clip682)" d="
M925.749 1029.3 L853.988 905.01 L710.466 905.01 L638.706 1029.3 L710.466 1153.6 L853.988 1153.6 L925.749 1029.3 L925.749 1029.3  Z
  " fill="#f5fffa" fill-rule="evenodd" fill-opacity="1"/>
<polyline clip-path="url(#clip682)" style="stroke:#000000; stroke-linecap:butt; stroke-linejoin:round; stroke-width:4; stroke-opacity:1; fill:none" points="
  925.749,1029.3 853.988,905.01 710.466,905.01 638.706,1029.3 710.466,1153.6 853.988,1153.6 925.749,1029.3 
  "/>
<path clip-path="url(#clip682)" d="
M1180.06 2025.65 L1108.3 1901.35 L964.779 1901.35 L893.018 2025.65 L964.779 2149.94 L1108.3 2149.94 L1180.06 2025.65 L1180.06 2025.65  Z
  " fill="#f5fffa" fill-rule="evenodd" fill-opacity="1"/>
<polyline clip-path="url(#clip682)" style="stroke:#000000; stroke-linecap:butt; stroke-linejoin:round; stroke-width:4; stroke-opacity:1; fill:none" points="
  1180.06,2025.65 1108.3,1901.35 964.779,1901.35 893.018,2025.65 964.779,2149.94 1108.3,2149.94 1180.06,2025.65 
  "/>
<circle clip-path="url(#clip682)" style="fill:#f5fffa; stroke:none; fill-opacity:1" cx="2163.47" cy="390.101" r="2"/>
<circle clip-path="url(#clip682)" style="fill:#f5fffa; stroke:none; fill-opacity:1" cx="2417.77" cy="1386.45" r="2"/>
<circle clip-path="url(#clip682)" style="fill:#f5fffa; stroke:none; fill-opacity:1" cx="1600" cy="1207.87" r="2"/>
<circle clip-path="url(#clip682)" style="fill:#f5fffa; stroke:none; fill-opacity:1" cx="782.227" cy="1029.3" r="2"/>
<circle clip-path="url(#clip682)" style="fill:#f5fffa; stroke:none; fill-opacity:1" cx="1036.54" cy="2025.65" r="2"/>
<path clip-path="url(#clip680)" d="M2150.81 377.675 Q2147.65 377.675 2146.05 380.794 Q2144.47 383.893 2144.47 390.132 Q2144.47 396.35 2146.05 399.469 Q2147.65 402.568 2150.81 402.568 Q2153.99 402.568 2155.57 399.469 Q2157.17 396.35 2157.17 390.132 Q2157.17 383.893 2155.57 380.794 Q2153.99 377.675 2150.81 377.675 M2150.81 374.434 Q2155.89 374.434 2158.56 378.465 Q2161.26 382.475 2161.26 390.132 Q2161.26 397.768 2158.56 401.798 Q2155.89 405.809 2150.81 405.809 Q2145.72 405.809 2143.03 401.798 Q2140.36 397.768 2140.36 390.132 Q2140.36 382.475 2143.03 378.465 Q2145.72 374.434 2150.81 374.434 Z" fill="#000000" fill-rule="evenodd" fill-opacity="1" /><path clip-path="url(#clip680)" d="M2169.16 401.778 L2175.84 401.778 L2175.84 378.708 L2168.57 380.166 L2168.57 376.44 L2175.8 374.981 L2179.89 374.981 L2179.89 401.778 L2186.58 401.778 L2186.58 405.221 L2169.16 405.221 L2169.16 401.778 Z" fill="#000000" fill-rule="evenodd" fill-opacity="1" /><path clip-path="url(#clip680)" d="M2405.28 1374.02 Q2402.12 1374.02 2400.52 1377.14 Q2398.94 1380.24 2398.94 1386.48 Q2398.94 1392.7 2400.52 1395.82 Q2402.12 1398.91 2405.28 1398.91 Q2408.46 1398.91 2410.04 1395.82 Q2411.64 1392.7 2411.64 1386.48 Q2411.64 1380.24 2410.04 1377.14 Q2408.46 1374.02 2405.28 1374.02 M2405.28 1370.78 Q2410.36 1370.78 2413.03 1374.81 Q2415.73 1378.82 2415.73 1386.48 Q2415.73 1394.11 2413.03 1398.14 Q2410.36 1402.16 2405.28 1402.16 Q2400.19 1402.16 2397.5 1398.14 Q2394.82 1394.11 2394.82 1386.48 Q2394.82 1378.82 2397.5 1374.81 Q2400.19 1370.78 2405.28 1370.78 Z" fill="#000000" fill-rule="evenodd" fill-opacity="1" /><path clip-path="url(#clip680)" d="M2426.44 1398.12 L2440.72 1398.12 L2440.72 1401.57 L2421.52 1401.57 L2421.52 1398.12 Q2423.85 1395.71 2427.86 1391.66 Q2431.89 1387.59 2432.92 1386.42 Q2434.89 1384.21 2435.66 1382.69 Q2436.45 1381.15 2436.45 1379.67 Q2436.45 1377.26 2434.75 1375.74 Q2433.06 1374.22 2430.35 1374.22 Q2428.43 1374.22 2426.28 1374.89 Q2424.15 1375.56 2421.72 1376.92 L2421.72 1372.79 Q2424.19 1371.79 2426.34 1371.29 Q2428.49 1370.78 2430.27 1370.78 Q2434.97 1370.78 2437.76 1373.13 Q2440.56 1375.48 2440.56 1379.41 Q2440.56 1381.27 2439.85 1382.95 Q2439.16 1384.61 2437.32 1386.88 Q2436.81 1387.47 2434.1 1390.29 Q2431.38 1393.08 2426.44 1398.12 Z" fill="#000000" fill-rule="evenodd" fill-opacity="1" /><path clip-path="url(#clip680)" d="M1587.09 1195.44 Q1583.93 1195.44 1582.33 1198.56 Q1580.75 1201.66 1580.75 1207.9 Q1580.75 1214.12 1582.33 1217.24 Q1583.93 1220.34 1587.09 1220.34 Q1590.27 1220.34 1591.85 1217.24 Q1593.45 1214.12 1593.45 1207.9 Q1593.45 1201.66 1591.85 1198.56 Q1590.27 1195.44 1587.09 1195.44 M1587.09 1192.2 Q1592.17 1192.2 1594.85 1196.23 Q1597.54 1200.24 1597.54 1207.9 Q1597.54 1215.54 1594.85 1219.57 Q1592.17 1223.58 1587.09 1223.58 Q1582 1223.58 1579.31 1219.57 Q1576.64 1215.54 1576.64 1207.9 Q1576.64 1200.24 1579.31 1196.23 Q1582 1192.2 1587.09 1192.2 Z" fill="#000000" fill-rule="evenodd" fill-opacity="1" /><path clip-path="url(#clip680)" d="M1617.13 1206.68 Q1620.06 1207.31 1621.7 1209.3 Q1623.36 1211.28 1623.36 1214.2 Q1623.36 1218.68 1620.29 1221.13 Q1617.21 1223.58 1611.54 1223.58 Q1609.63 1223.58 1607.61 1223.19 Q1605.6 1222.83 1603.45 1222.08 L1603.45 1218.13 Q1605.16 1219.12 1607.18 1219.63 Q1609.21 1220.13 1611.41 1220.13 Q1615.26 1220.13 1617.27 1218.61 Q1619.29 1217.1 1619.29 1214.2 Q1619.29 1211.53 1617.41 1210.03 Q1615.55 1208.51 1612.2 1208.51 L1608.68 1208.51 L1608.68 1205.15 L1612.37 1205.15 Q1615.38 1205.15 1616.98 1203.95 Q1618.58 1202.74 1618.58 1200.47 Q1618.58 1198.14 1616.92 1196.9 Q1615.28 1195.65 1612.2 1195.65 Q1610.52 1195.65 1608.6 1196.01 Q1606.67 1196.38 1604.37 1197.15 L1604.37 1193.5 Q1606.69 1192.85 1608.72 1192.53 Q1610.77 1192.2 1612.57 1192.2 Q1617.23 1192.2 1619.94 1194.33 Q1622.65 1196.44 1622.65 1200.04 Q1622.65 1202.55 1621.22 1204.29 Q1619.78 1206.02 1617.13 1206.68 Z" fill="#000000" fill-rule="evenodd" fill-opacity="1" /><path clip-path="url(#clip680)" d="M768.819 1016.88 Q765.659 1016.88 764.059 1020 Q762.479 1023.1 762.479 1029.33 Q762.479 1035.55 764.059 1038.67 Q765.659 1041.77 768.819 1041.77 Q771.999 1041.77 773.579 1038.67 Q775.179 1035.55 775.179 1029.33 Q775.179 1023.1 773.579 1020 Q771.999 1016.88 768.819 1016.88 M768.819 1013.64 Q773.903 1013.64 776.576 1017.67 Q779.27 1021.68 779.27 1029.33 Q779.27 1036.97 776.576 1041 Q773.903 1045.01 768.819 1045.01 Q763.735 1045.01 761.041 1041 Q758.367 1036.97 758.367 1029.33 Q758.367 1021.68 761.041 1017.67 Q763.735 1013.64 768.819 1013.64 Z" fill="#000000" fill-rule="evenodd" fill-opacity="1" /><path clip-path="url(#clip680)" d="M797.702 1017.75 L787.372 1033.89 L797.702 1033.89 L797.702 1017.75 M796.628 1014.18 L801.773 1014.18 L801.773 1033.89 L806.087 1033.89 L806.087 1037.29 L801.773 1037.29 L801.773 1044.42 L797.702 1044.42 L797.702 1037.29 L784.05 1037.29 L784.05 1033.34 L796.628 1014.18 Z" fill="#000000" fill-rule="evenodd" fill-opacity="1" /><path clip-path="url(#clip680)" d="M1023.78 2013.22 Q1020.62 2013.22 1019.02 2016.34 Q1017.44 2019.44 1017.44 2025.68 Q1017.44 2031.9 1019.02 2035.01 Q1020.62 2038.11 1023.78 2038.11 Q1026.96 2038.11 1028.54 2035.01 Q1030.14 2031.9 1030.14 2025.68 Q1030.14 2019.44 1028.54 2016.34 Q1026.96 2013.22 1023.78 2013.22 M1023.78 2009.98 Q1028.86 2009.98 1031.54 2014.01 Q1034.23 2018.02 1034.23 2025.68 Q1034.23 2033.31 1031.54 2037.34 Q1028.86 2041.35 1023.78 2041.35 Q1018.7 2041.35 1016 2037.34 Q1013.33 2033.31 1013.33 2025.68 Q1013.33 2018.02 1016 2014.01 Q1018.7 2009.98 1023.78 2009.98 Z" fill="#000000" fill-rule="evenodd" fill-opacity="1" /><path clip-path="url(#clip680)" d="M1041.46 2010.53 L1057.52 2010.53 L1057.52 2013.97 L1045.21 2013.97 L1045.21 2021.38 Q1046.1 2021.08 1046.99 2020.94 Q1047.88 2020.78 1048.77 2020.78 Q1053.84 2020.78 1056.79 2023.55 Q1059.75 2026.33 1059.75 2031.06 Q1059.75 2035.95 1056.71 2038.66 Q1053.68 2041.35 1048.15 2041.35 Q1046.24 2041.35 1044.26 2041.03 Q1042.29 2040.71 1040.19 2040.06 L1040.19 2035.95 Q1042.01 2036.94 1043.95 2037.42 Q1045.9 2037.91 1048.06 2037.91 Q1051.57 2037.91 1053.61 2036.07 Q1055.66 2034.22 1055.66 2031.06 Q1055.66 2027.91 1053.61 2026.06 Q1051.57 2024.22 1048.06 2024.22 Q1046.42 2024.22 1044.78 2024.58 Q1043.16 2024.95 1041.46 2025.72 L1041.46 2010.53 Z" fill="#000000" fill-rule="evenodd" fill-opacity="1" /></svg>
