<?xml version="1.0" encoding="utf-8"?>
<svg xmlns="http://www.w3.org/2000/svg" xmlns:xlink="http://www.w3.org/1999/xlink" width="800" height="600" viewBox="0 0 3200 2400">
<defs>
  <clipPath id="clip030">
    <rect x="0" y="0" width="3200" height="2400"/>
  </clipPath>
</defs>
<path clip-path="url(#clip030)" d="M0 2400 L3200 2400 L3200 0 L0 0  Z" fill="#ffffff" fill-rule="evenodd" fill-opacity="1"/>
<defs>
  <clipPath id="clip031">
    <rect x="640" y="0" width="2241" height="2241"/>
  </clipPath>
</defs>
<path clip-path="url(#clip030)" d="M455.118 2352.76 L2744.88 2352.76 L2744.88 62.9921 L455.118 62.9921  Z" fill="#ffffff" fill-rule="evenodd" fill-opacity="1"/>
<defs>
  <clipPath id="clip032">
    <rect x="455" y="62" width="2291" height="2291"/>
  </clipPath>
</defs>
<path clip-path="url(#clip030)" d="M1221.82 103.433 L1221.82 78.112 Q1221.82 76.6916 1221.88 76.1975 Q1221.95 75.7034 1222.32 75.3329 Q1222.69 74.9623 1223.43 74.9623 Q1224.85 74.9623 1224.97 76.2593 Q1225.34 88.7962 1232.82 95.7132 Q1240.16 102.568 1252.76 102.568 Q1260.36 102.568 1265.05 97.1336 Q1269.75 91.6371 1269.75 84.4731 Q1269.75 77.618 1265.79 72.8008 Q1264.13 70.6393 1262.03 69.2806 Q1259.99 67.8601 1258.69 67.4278 Q1257.46 66.9955 1255.05 66.3779 Q1239.36 62.6107 1238.37 62.1784 Q1230.9 59.6463 1226.33 53.2851 Q1221.82 46.8623 1221.82 39.019 Q1221.82 28.8906 1228.92 21.7266 Q1236.09 14.5009 1246.46 14.5009 Q1251.65 14.5009 1255.97 16.1683 Q1260.36 17.7741 1262.15 19.2563 Q1263.94 20.7385 1266.72 23.3941 L1271.11 16.1683 Q1272.09 14.5009 1273.02 14.5009 Q1274.01 14.5009 1274.19 15.1185 Q1274.44 15.6743 1274.44 17.527 L1274.44 42.9715 Q1274.44 44.3919 1274.38 44.886 Q1274.32 45.3801 1273.88 45.6889 Q1273.51 45.9977 1272.77 45.9977 Q1271.54 45.9977 1271.23 44.5155 Q1267.71 18.0829 1246.59 18.0829 Q1239.36 18.0829 1234.61 22.9618 Q1229.91 27.7789 1229.91 34.6341 Q1229.91 40.1924 1233.37 44.7625 Q1236.83 49.2709 1242.7 50.6913 L1258.88 54.5821 Q1266.97 56.4966 1272.4 63.6606 Q1277.84 70.8245 1277.84 80.1501 Q1277.84 90.896 1270.8 98.6776 Q1263.82 106.459 1252.89 106.459 Q1245.04 106.459 1238.99 103.865 Q1232.94 101.271 1229.67 97.6277 Q1227.13 101.827 1225.47 104.174 L1225.1 104.792 Q1224.11 106.459 1223.18 106.459 Q1222.19 106.459 1222.01 105.842 Q1221.82 105.224 1221.82 103.433 Z" fill="#000000" fill-rule="nonzero" fill-opacity="1" /><path clip-path="url(#clip030)" d="M1289.08 103.68 L1289.08 99.7892 Q1295.81 99.7892 1297.35 98.9864 Q1298.9 98.1217 1298.9 94.0457 L1298.9 60.0168 Q1298.9 55.3232 1297.29 54.2115 Q1295.75 53.0999 1289.57 53.0999 L1289.57 49.1473 L1307.23 47.7886 L1307.23 94.1692 Q1307.23 97.9365 1308.59 98.8628 Q1309.95 99.7892 1316.13 99.7892 L1316.13 103.68 Q1303.22 103.309 1302.97 103.309 Q1301.24 103.309 1289.08 103.68 M1294.39 25.7409 Q1294.39 23.2088 1296.3 21.1708 Q1298.28 19.071 1301.06 19.071 Q1303.84 19.071 1305.81 20.9855 Q1307.79 22.8383 1307.79 25.8027 Q1307.79 28.7053 1305.81 30.6198 Q1303.84 32.4726 1301.06 32.4726 Q1298.16 32.4726 1296.24 30.4345 Q1294.39 28.3965 1294.39 25.7409 Z" fill="#000000" fill-rule="nonzero" fill-opacity="1" /><path clip-path="url(#clip030)" d="M1323.97 103.68 L1323.97 99.7892 Q1330.7 99.7892 1332.25 98.9864 Q1333.79 98.1217 1333.79 94.0457 L1333.79 60.1403 Q1333.79 55.4467 1332.12 54.2733 Q1330.52 53.0999 1323.97 53.0999 L1323.97 49.1473 L1341.76 47.7886 L1341.76 61.0667 Q1347.69 47.7886 1360.47 47.7886 Q1375.29 47.7886 1377.33 60.1403 Q1379.49 55.3232 1384 51.5559 Q1388.57 47.7886 1395.67 47.7886 Q1405.18 47.7886 1408.95 52.4823 Q1411.73 55.632 1412.29 59.1522 Q1412.84 62.6724 1412.84 71.8127 L1412.84 95.9602 Q1412.96 98.6158 1415 99.2334 Q1417.04 99.7892 1422.72 99.7892 L1422.72 103.68 Q1409.82 103.309 1408.58 103.309 Q1407.59 103.309 1394.25 103.68 L1394.25 99.7892 Q1400.98 99.7892 1402.53 98.9864 Q1404.13 98.1217 1404.13 94.0457 L1404.13 64.5869 Q1404.13 58.1641 1402.16 54.3968 Q1400.18 50.5678 1394.75 50.5678 Q1388.2 50.5678 1382.95 56.0643 Q1377.7 61.5608 1377.7 70.8245 L1377.7 94.0457 Q1377.7 98.1217 1379.24 98.9864 Q1380.85 99.7892 1387.58 99.7892 L1387.58 103.68 Q1374.67 103.309 1373.38 103.309 Q1372.39 103.309 1359.11 103.68 L1359.11 99.7892 Q1365.84 99.7892 1367.39 98.9864 Q1368.99 98.1217 1368.99 94.0457 L1368.99 64.5869 Q1368.99 58.1641 1367.02 54.3968 Q1365.04 50.5678 1359.61 50.5678 Q1353.06 50.5678 1347.81 56.0643 Q1342.56 61.5608 1342.56 70.8245 L1342.56 94.0457 Q1342.56 98.1217 1344.1 98.9864 Q1345.71 99.7892 1352.38 99.7892 L1352.38 103.68 Q1339.47 103.309 1338.24 103.309 Q1337.25 103.309 1323.97 103.68 Z" fill="#000000" fill-rule="nonzero" fill-opacity="1" /><path clip-path="url(#clip030)" d="M1428.71 124.307 Q1435.44 124.307 1436.99 123.443 Q1438.59 122.64 1438.59 118.626 L1438.59 59.3992 Q1438.59 55.1997 1436.99 54.1498 Q1435.44 53.0999 1428.71 53.0999 L1428.71 49.1473 L1446.93 47.7886 L1446.93 56.126 Q1454.53 47.7886 1464.66 47.7886 Q1475.4 47.7886 1483.25 56.126 Q1491.09 64.4634 1491.09 76.3828 Q1491.09 88.4257 1482.75 96.7631 Q1474.41 105.1 1462.87 105.1 Q1456.57 105.1 1452.3 101.889 Q1448.11 98.6158 1447.3 96.2072 L1447.3 97.3806 L1447.3 118.626 Q1447.3 122.702 1448.91 123.504 Q1450.51 124.307 1457.18 124.307 L1457.18 128.198 Q1443.91 127.828 1442.92 127.828 Q1441.68 127.828 1428.71 128.198 L1428.71 124.307 M1447.3 89.2903 Q1447.3 91.2048 1447.55 91.8841 Q1447.86 92.5635 1449.09 94.6015 Q1454.1 102.26 1462.25 102.26 Q1462.31 102.26 1462.37 102.26 Q1469.6 102.26 1475.09 94.9103 Q1480.59 87.4993 1480.59 76.3828 Q1480.59 65.7603 1475.59 58.3493 Q1470.59 50.9383 1463.67 50.9383 Q1458.73 50.9383 1454.4 53.5939 Q1450.08 56.2495 1447.3 61.0667 L1447.3 89.2903 Z" fill="#000000" fill-rule="nonzero" fill-opacity="1" /><path clip-path="url(#clip030)" d="M1499.55 103.68 L1499.55 99.7892 Q1506.28 99.7892 1507.83 98.9864 Q1509.37 98.1217 1509.37 94.0457 L1509.37 28.273 Q1509.37 23.5794 1507.7 22.4059 Q1506.1 21.2325 1499.55 21.2325 L1499.55 17.28 L1517.71 15.9213 L1517.71 94.0457 Q1517.71 98.1217 1519.31 98.9864 Q1520.92 99.7892 1527.59 99.7892 L1527.59 103.68 Q1526.04 103.68 1522.83 103.556 Q1519.62 103.433 1517.27 103.371 Q1514.93 103.309 1513.57 103.309 Q1512.09 103.309 1499.55 103.68 Z" fill="#000000" fill-rule="nonzero" fill-opacity="1" /><path clip-path="url(#clip030)" d="M1533.89 75.827 Q1533.89 63.9076 1541.55 55.4467 Q1549.2 46.9858 1560.2 46.9858 Q1571.31 46.9858 1577.06 54.2115 Q1582.86 61.4373 1582.86 71.8127 Q1582.86 73.7272 1582.37 74.0977 Q1581.87 74.4683 1579.71 74.4683 L1544.39 74.4683 Q1544.39 87.3758 1548.22 93.4281 Q1553.53 101.889 1562.48 101.889 Q1563.72 101.889 1565.2 101.642 Q1566.68 101.395 1569.71 100.345 Q1572.73 99.2334 1575.39 96.3308 Q1578.04 93.4281 1579.59 88.858 Q1579.96 87.067 1581.19 87.1287 Q1582.86 87.1287 1582.86 88.611 Q1582.86 89.7226 1581.63 92.2547 Q1580.45 94.725 1578.17 97.6894 Q1575.88 100.654 1571.44 102.877 Q1567.05 105.1 1561.74 105.1 Q1550.62 105.1 1542.23 96.7013 Q1533.89 88.2404 1533.89 75.827 M1544.51 71.8127 L1574.52 71.8127 Q1574.52 69.1571 1574.03 66.1927 Q1573.6 63.2282 1572.24 59.1522 Q1570.94 55.0144 1567.85 52.4205 Q1564.77 49.8267 1560.2 49.8267 Q1558.16 49.8267 1555.94 50.6913 Q1553.77 51.5559 1551.12 53.6557 Q1548.46 55.7555 1546.61 60.5109 Q1544.76 65.2663 1544.51 71.8127 Z" fill="#000000" fill-rule="nonzero" fill-opacity="1" /><path clip-path="url(#clip030)" d="M1648.63 93.0576 Q1635.67 79.656 1635.67 60.4491 Q1635.67 41.1805 1648.76 27.8407 Q1661.85 14.5009 1679.64 14.5009 Q1684.08 14.5009 1687.85 15.5508 Q1691.68 16.5389 1694.71 18.5769 Q1697.73 20.5532 1699.28 21.9119 Q1700.88 23.2088 1703.04 25.3704 L1709.41 16.0448 Q1710.39 14.5009 1711.38 14.5009 Q1712.43 14.5009 1712.62 15.1185 Q1712.8 15.6743 1712.8 17.527 L1712.8 47.5416 Q1712.8 49.5796 1712.55 50.0737 Q1712.31 50.5678 1710.76 50.5678 Q1709.53 50.5678 1709.28 50.1972 Q1709.03 49.8267 1708.73 48.4062 Q1706.81 34.7576 1699.15 26.6055 Q1691.56 18.4534 1681.18 18.4534 Q1678.16 18.4534 1674.76 19.1328 Q1671.42 19.8121 1666.48 22.4059 Q1661.6 24.9998 1657.84 29.2611 Q1654.13 33.4607 1651.41 41.6128 Q1648.7 49.7032 1648.7 60.4491 Q1648.7 71.0716 1651.41 79.2237 Q1654.13 87.3758 1657.9 91.6371 Q1661.73 95.8367 1666.67 98.4923 Q1671.67 101.148 1675.19 101.889 Q1678.77 102.568 1681.92 102.568 Q1684.08 102.568 1686.62 102.136 Q1689.15 101.642 1692.92 100.283 Q1696.74 98.8628 1699.15 95.5279 Q1701.56 92.1929 1701.56 87.2523 L1701.56 79.1619 Q1701.56 75.3947 1699.71 74.2212 Q1697.86 73.0478 1689.77 73.0478 L1685.75 73.0478 L1685.75 69.1571 Q1690.32 69.5276 1706.07 69.5276 Q1707.49 69.5276 1721.51 69.1571 L1721.51 73.0478 Q1715.46 73.0478 1714.1 73.9742 Q1712.8 74.8388 1712.8 78.6061 L1712.8 100.654 Q1712.8 103.556 1711.69 103.556 Q1710.7 103.556 1707.74 100.716 Q1704.83 97.8747 1703.54 95.7132 Q1700.51 101.024 1693.9 103.742 Q1687.36 106.459 1679.88 106.459 Q1661.67 106.459 1648.63 93.0576 Z" fill="#000000" fill-rule="nonzero" fill-opacity="1" /><path clip-path="url(#clip030)" d="M1731.21 103.68 L1731.21 99.7892 Q1737.94 99.7892 1739.48 98.9864 Q1741.09 98.1217 1741.09 94.0457 L1741.09 60.1403 Q1741.09 55.4467 1739.42 54.2733 Q1737.81 53.0999 1731.21 53.0999 L1731.21 49.1473 L1748.81 47.7886 L1748.81 61.6843 Q1750.6 56.2495 1754.37 52.05 Q1758.19 47.7886 1764.37 47.7886 Q1768.45 47.7886 1771.04 50.0737 Q1773.7 52.3588 1773.7 55.5084 Q1773.7 58.2876 1771.97 59.708 Q1770.3 61.0667 1768.26 61.0667 Q1765.98 61.0667 1764.37 59.6463 Q1762.83 58.1641 1762.83 55.632 Q1762.83 54.088 1763.51 52.9146 Q1764.25 51.6794 1764.8 51.2471 Q1765.36 50.8148 1765.73 50.6913 Q1765.48 50.5678 1764.37 50.5678 Q1757.39 50.5678 1753.38 57.5465 Q1749.42 64.4634 1749.42 74.3448 L1749.42 93.7987 Q1749.42 97.4424 1750.91 98.6158 Q1752.45 99.7892 1759.06 99.7892 L1761.71 99.7892 L1761.71 103.68 Q1756.65 103.309 1745.66 103.309 Q1744.11 103.309 1741.7 103.371 Q1739.3 103.433 1736.15 103.556 Q1733 103.68 1731.21 103.68 Z" fill="#000000" fill-rule="nonzero" fill-opacity="1" /><path clip-path="url(#clip030)" d="M1782.4 91.6371 Q1782.4 80.8912 1795.06 75.2094 Q1802.66 71.5656 1818.35 70.6393 L1818.35 66.0074 Q1818.35 58.1641 1814.21 54.0262 Q1810.13 49.8267 1804.95 49.8267 Q1795.68 49.8267 1791.23 55.632 Q1795 55.7555 1796.36 57.67 Q1797.72 59.5227 1797.72 61.4373 Q1797.72 63.9693 1796.11 65.6368 Q1794.57 67.2425 1791.91 67.2425 Q1789.38 67.2425 1787.71 65.6986 Q1786.05 64.0929 1786.05 61.3137 Q1786.05 55.1379 1791.61 51.0618 Q1797.23 46.9858 1805.19 46.9858 Q1815.57 46.9858 1822.48 53.9645 Q1824.65 56.126 1825.7 58.9052 Q1826.81 61.6843 1826.93 63.537 Q1827.05 65.328 1827.05 68.91 L1827.05 94.1692 Q1827.05 94.9103 1827.3 96.1455 Q1827.55 97.3806 1828.66 98.9864 Q1829.83 100.53 1831.75 100.53 Q1836.32 100.53 1836.26 92.44 L1836.26 85.3378 L1839.47 85.3378 L1839.47 92.44 Q1839.47 99.1716 1835.89 101.827 Q1832.37 104.421 1829.09 104.421 Q1824.89 104.421 1822.24 101.333 Q1819.58 98.2453 1819.21 94.0457 Q1817.3 98.8628 1812.91 102.013 Q1808.59 105.1 1802.66 105.1 Q1798.09 105.1 1793.77 103.927 Q1789.51 102.815 1785.92 99.6657 Q1782.4 96.4543 1782.4 91.6371 M1792.16 91.5136 Q1792.16 96.2072 1795.5 99.2334 Q1798.83 102.26 1803.52 102.26 Q1808.84 102.26 1813.59 98.1835 Q1818.35 94.0457 1818.35 85.9553 L1818.35 73.2949 Q1804.33 73.7889 1798.21 79.4089 Q1792.16 84.9672 1792.16 91.5136 Z" fill="#000000" fill-rule="nonzero" fill-opacity="1" /><path clip-path="url(#clip030)" d="M1843.85 124.307 Q1850.58 124.307 1852.13 123.443 Q1853.73 122.64 1853.73 118.626 L1853.73 59.3992 Q1853.73 55.1997 1852.13 54.1498 Q1850.58 53.0999 1843.85 53.0999 L1843.85 49.1473 L1862.07 47.7886 L1862.07 56.126 Q1869.67 47.7886 1879.8 47.7886 Q1890.54 47.7886 1898.39 56.126 Q1906.23 64.4634 1906.23 76.3828 Q1906.23 88.4257 1897.89 96.7631 Q1889.55 105.1 1878.01 105.1 Q1871.71 105.1 1867.44 101.889 Q1863.25 98.6158 1862.44 96.2072 L1862.44 97.3806 L1862.44 118.626 Q1862.44 122.702 1864.05 123.504 Q1865.65 124.307 1872.32 124.307 L1872.32 128.198 Q1859.05 127.828 1858.06 127.828 Q1856.82 127.828 1843.85 128.198 L1843.85 124.307 M1862.44 89.2903 Q1862.44 91.2048 1862.69 91.8841 Q1863 92.5635 1864.23 94.6015 Q1869.24 102.26 1877.39 102.26 Q1877.45 102.26 1877.51 102.26 Q1884.74 102.26 1890.23 94.9103 Q1895.73 87.4993 1895.73 76.3828 Q1895.73 65.7603 1890.73 58.3493 Q1885.73 50.9383 1878.81 50.9383 Q1873.87 50.9383 1869.54 53.5939 Q1865.22 56.2495 1862.44 61.0667 L1862.44 89.2903 Z" fill="#000000" fill-rule="nonzero" fill-opacity="1" /><path clip-path="url(#clip030)" d="M1914.57 103.68 L1914.57 99.7892 Q1921.3 99.7892 1922.84 98.9864 Q1924.39 98.1217 1924.39 94.0457 L1924.39 28.273 Q1924.39 23.5794 1922.72 22.4059 Q1921.11 21.2325 1914.57 21.2325 L1914.57 17.28 L1932.72 15.9213 L1932.72 59.8933 L1932.85 59.8933 Q1934.88 55.3232 1939.46 51.5559 Q1944.03 47.7886 1951.07 47.7886 Q1960.58 47.7886 1964.34 52.4823 Q1967.12 55.632 1967.68 59.1522 Q1968.3 62.6724 1968.3 71.8127 L1968.3 95.9602 Q1968.42 98.6158 1970.46 99.2334 Q1972.5 99.7892 1978.18 99.7892 L1978.18 103.68 Q1965.27 103.309 1963.97 103.309 Q1962.98 103.309 1949.71 103.68 L1949.71 99.7892 Q1956.44 99.7892 1957.98 98.9864 Q1959.59 98.1217 1959.59 94.0457 L1959.59 64.5869 Q1959.59 58.1641 1957.61 54.3968 Q1955.64 50.5678 1950.2 50.5678 Q1943.65 50.5678 1938.41 56.0643 Q1933.16 61.5608 1933.16 70.8245 L1933.16 94.0457 Q1933.16 98.1217 1934.7 98.9864 Q1936.31 99.7892 1942.98 99.7892 L1942.98 103.68 Q1930.07 103.309 1928.83 103.309 Q1927.84 103.309 1914.57 103.68 Z" fill="#000000" fill-rule="nonzero" fill-opacity="1" /><polyline clip-path="url(#clip032)" style="stroke:#000000; stroke-linecap:round; stroke-linejoin:round; stroke-width:4; stroke-opacity:1; fill:none" points="1760.41,2025.65 1776.82,2019.67 1793.21,2013.68 1809.59,2007.67 1825.93,2001.61 1842.23,1995.5 1858.49,1989.33 1874.68,1983.07 1890.81,1976.72 1906.85,1970.26 1922.81,1963.69 1938.66,1956.98 1954.41,1950.12 1970.04,1943.1 1985.54,1935.91 2000.89,1928.53 2016.1,1920.95 2031.15,1913.15 2046.03,1905.13 2060.73,1896.87 2075.24,1888.35 2089.55,1879.56 2103.66,1870.5 2117.54,1861.14 2131.19,1851.47 2144.61,1841.48 2157.79,1831.17 2170.73,1820.55 2183.46,1809.64 2195.98,1798.45 2208.3,1786.99 2220.43,1775.27 2232.38,1763.32 2244.16,1751.14 2255.79,1738.74 2267.26,1726.14 2278.59,1713.36 2289.8,1700.4 2300.88,1687.28 2311.86,1674.01 2322.73,1660.61 2333.52,1647.09 2344.23,1633.47 2354.86,1619.74 2365.44,1605.94 2375.96,1592.07 2386.45,1578.15 2396.91,1564.19 2407.35,1550.2 2417.77,1536.2 "/>
<polyline clip-path="url(#clip032)" style="stroke:#000000; stroke-linecap:round; stroke-linejoin:round; stroke-width:4; stroke-opacity:1; fill:none" points="1760.41,2025.65 1752.23,2009.92 1744.06,1994.19 1735.93,1978.46 1727.84,1962.71 1719.82,1946.95 1711.88,1931.18 1704.04,1915.38 1696.32,1899.57 1688.72,1883.73 1681.27,1867.86 1673.99,1851.95 1666.89,1836.02 1659.98,1820.04 1653.28,1804.02 1646.82,1787.96 1640.6,1771.85 1634.64,1755.68 1628.96,1739.47 1623.58,1723.19 1618.5,1706.86 1613.76,1690.46 1609.35,1673.99 1605.31,1657.45 1601.65,1640.84 1598.37,1624.15 1595.49,1607.38 1592.98,1590.54 1590.84,1573.63 1589.04,1556.65 1587.57,1539.61 1586.4,1522.51 1585.53,1505.35 1584.94,1488.13 1584.62,1470.86 1584.53,1453.55 1584.68,1436.19 1585.04,1418.79 1585.6,1401.34 1586.33,1383.87 1587.23,1366.36 1588.28,1348.82 1589.46,1331.26 1590.75,1313.68 1592.14,1296.07 1593.62,1278.45 1595.15,1260.82 1596.74,1243.18 1598.36,1225.53 1600,1207.87 "/>
<polyline clip-path="url(#clip032)" style="stroke:#000000; stroke-linecap:round; stroke-linejoin:round; stroke-width:4; stroke-opacity:1; fill:none" points="2417.77,1536.2 2399.22,1534.14 2380.67,1532.07 2362.14,1529.97 2343.62,1527.82 2325.13,1525.6 2306.67,1523.32 2288.25,1520.93 2269.87,1518.44 2251.54,1515.83 2233.26,1513.08 2215.05,1510.17 2196.91,1507.09 2178.84,1503.82 2160.85,1500.36 2142.95,1496.68 2125.14,1492.76 2107.43,1488.6 2089.83,1484.17 2072.34,1479.47 2054.97,1474.47 2037.72,1469.16 2020.6,1463.53 2003.62,1457.56 1986.78,1451.23 1970.09,1444.53 1953.55,1437.46 1937.15,1430.03 1920.89,1422.26 1904.76,1414.17 1888.76,1405.77 1872.87,1397.07 1857.09,1388.09 1841.42,1378.85 1825.85,1369.37 1810.38,1359.65 1794.99,1349.71 1779.68,1339.58 1764.44,1329.25 1749.27,1318.76 1734.17,1308.11 1719.12,1297.33 1704.12,1286.42 1689.17,1275.4 1674.25,1264.29 1659.36,1253.1 1644.5,1241.84 1629.66,1230.55 1614.82,1219.22 1600,1207.87 "/>
<polyline clip-path="url(#clip032)" style="stroke:#000000; stroke-linecap:round; stroke-linejoin:round; stroke-width:4; stroke-opacity:1; fill:none" points="1600,1207.87 1591.82,1192.15 1583.65,1176.42 1575.51,1160.68 1567.43,1144.94 1559.41,1129.18 1551.47,1113.41 1543.63,1097.61 1535.9,1081.8 1528.31,1065.95 1520.86,1050.08 1513.58,1034.18 1506.47,1018.24 1499.56,1002.27 1492.87,986.249 1486.4,970.186 1480.19,954.074 1474.23,937.911 1468.55,921.694 1463.16,905.419 1458.09,889.083 1453.34,872.682 1448.94,856.215 1444.9,839.676 1441.23,823.064 1437.96,806.375 1435.08,789.608 1432.57,772.768 1430.43,755.858 1428.63,738.88 1427.15,721.837 1425.99,704.734 1425.12,687.573 1424.53,670.357 1424.2,653.09 1424.12,635.775 1424.27,618.414 1424.63,601.012 1425.19,583.572 1425.92,566.096 1426.82,548.588 1427.87,531.051 1429.05,513.489 1430.34,495.904 1431.73,478.299 1433.2,460.679 1434.74,443.046 1436.33,425.403 1437.95,407.754 1439.59,390.101 "/>
<polyline clip-path="url(#clip032)" style="stroke:#000000; stroke-linecap:round; stroke-linejoin:round; stroke-width:4; stroke-opacity:1; fill:none" points="1600,1207.87 1581.45,1205.82 1562.9,1203.75 1544.36,1201.64 1525.85,1199.49 1507.36,1197.28 1488.9,1194.99 1470.47,1192.61 1452.09,1190.12 1433.76,1187.51 1415.49,1184.75 1397.28,1181.84 1379.13,1178.76 1361.06,1175.5 1343.08,1172.04 1325.18,1168.35 1307.37,1164.44 1289.66,1160.28 1272.06,1155.85 1254.57,1151.15 1237.19,1146.15 1219.95,1140.84 1202.83,1135.21 1185.85,1129.23 1169.01,1122.9 1152.32,1116.2 1135.78,1109.13 1119.38,1101.7 1103.12,1093.94 1086.99,1085.84 1070.98,1077.44 1055.1,1068.74 1039.32,1059.77 1023.65,1050.53 1008.08,1041.04 992.603,1031.32 977.213,1021.39 961.903,1011.25 946.668,1000.93 931.501,990.437 916.397,979.789 901.348,969.002 886.349,958.092 871.394,947.072 856.476,935.96 841.589,924.771 826.727,913.52 811.883,902.222 797.052,890.893 782.227,879.549 "/>
<polyline clip-path="url(#clip032)" style="stroke:#000000; stroke-linecap:round; stroke-linejoin:round; stroke-width:4; stroke-opacity:1; fill:none" points="1439.59,390.101 1429.16,404.104 1418.72,418.093 1408.27,432.055 1397.78,445.977 1387.25,459.845 1376.68,473.647 1366.04,487.368 1355.33,500.996 1344.55,514.517 1333.67,527.917 1322.7,541.184 1311.61,554.303 1300.41,567.261 1289.08,580.046 1277.6,592.644 1265.98,605.04 1254.2,617.223 1242.25,629.178 1230.12,640.892 1217.8,652.352 1205.28,663.545 1192.55,674.456 1179.6,685.073 1166.42,695.383 1153.01,705.371 1139.35,715.039 1125.47,724.4 1111.37,733.466 1097.06,742.251 1082.54,750.768 1067.84,759.031 1052.96,767.054 1037.92,774.849 1022.71,782.429 1007.35,789.809 991.852,797.002 976.225,804.021 960.479,810.879 944.623,817.59 928.667,824.167 912.622,830.624 896.497,836.974 880.302,843.23 864.048,849.406 847.743,855.515 831.399,861.57 815.025,867.585 798.631,873.574 782.227,879.549 "/>
<path clip-path="url(#clip032)" d="M1903.94 2025.65 L1832.17 1901.35 L1688.65 1901.35 L1616.89 2025.65 L1688.65 2149.94 L1832.17 2149.94 L1903.94 2025.65 L1903.94 2025.65  Z" fill="#f5fffa" fill-rule="evenodd" fill-opacity="1"/>
<polyline clip-path="url(#clip032)" style="stroke:#000000; stroke-linecap:round; stroke-linejoin:round; stroke-width:4; stroke-opacity:1; fill:none" points="1903.94,2025.65 1832.17,1901.35 1688.65,1901.35 1616.89,2025.65 1688.65,2149.94 1832.17,2149.94 1903.94,2025.65 "/>
<path clip-path="url(#clip032)" d="M2561.29 1536.2 L2489.53 1411.9 L2346.01 1411.9 L2274.25 1536.2 L2346.01 1660.49 L2489.53 1660.49 L2561.29 1536.2 L2561.29 1536.2  Z" fill="#f5fffa" fill-rule="evenodd" fill-opacity="1"/>
<polyline clip-path="url(#clip032)" style="stroke:#000000; stroke-linecap:round; stroke-linejoin:round; stroke-width:4; stroke-opacity:1; fill:none" points="2561.29,1536.2 2489.53,1411.9 2346.01,1411.9 2274.25,1536.2 2346.01,1660.49 2489.53,1660.49 2561.29,1536.2 2561.29,1536.2 "/>
<path clip-path="url(#clip032)" d="M1743.52 1207.87 L1671.76 1083.58 L1528.24 1083.58 L1456.48 1207.87 L1528.24 1332.17 L1671.76 1332.17 L1743.52 1207.87 L1743.52 1207.87  Z" fill="#f5fffa" fill-rule="evenodd" fill-opacity="1"/>
<polyline clip-path="url(#clip032)" style="stroke:#000000; stroke-linecap:round; stroke-linejoin:round; stroke-width:4; stroke-opacity:1; fill:none" points="1743.52,1207.87 1671.76,1083.58 1528.24,1083.58 1456.48,1207.87 1528.24,1332.17 1671.76,1332.17 1743.52,1207.87 "/>
<path clip-path="url(#clip032)" d="M1583.11 390.101 L1511.35 265.808 L1367.83 265.808 L1296.07 390.101 L1367.83 514.395 L1511.35 514.395 L1583.11 390.101 L1583.11 390.101  Z" fill="#f5fffa" fill-rule="evenodd" fill-opacity="1"/>
<polyline clip-path="url(#clip032)" style="stroke:#000000; stroke-linecap:round; stroke-linejoin:round; stroke-width:4; stroke-opacity:1; fill:none" points="1583.11,390.101 1511.35,265.808 1367.83,265.808 1296.07,390.101 1367.83,514.395 1511.35,514.395 1583.11,390.101 "/>
<path clip-path="url(#clip032)" d="M925.749 879.549 L853.988 755.256 L710.466 755.256 L638.706 879.549 L710.466 1003.84 L853.988 1003.84 L925.749 879.549 L925.749 879.549  Z" fill="#f5fffa" fill-rule="evenodd" fill-opacity="1"/>
<polyline clip-path="url(#clip032)" style="stroke:#000000; stroke-linecap:round; stroke-linejoin:round; stroke-width:4; stroke-opacity:1; fill:none" points="925.749,879.549 853.988,755.256 710.466,755.256 638.706,879.549 710.466,1003.84 853.988,1003.84 925.749,879.549 "/>
<path clip-path="url(#clip032)" d="M1760.41 2026.45 L1759.72 2026.05 L1759.72 2025.25 L1760.41 2024.85 L1761.11 2025.25 L1761.11 2026.05 Z" fill="#f5fffa" fill-rule="evenodd" fill-opacity="1" stroke="#000000" stroke-opacity="1" stroke-width="4.8"/>
<path clip-path="url(#clip032)" d="M2417.77 1537 L2417.08 1536.6 L2417.08 1535.8 L2417.77 1535.4 L2418.47 1535.8 L2418.47 1536.6 Z" fill="#f5fffa" fill-rule="evenodd" fill-opacity="1" stroke="#000000" stroke-opacity="1" stroke-width="4.8"/>
<path clip-path="url(#clip032)" d="M1600 1208.67 L1599.31 1208.27 L1599.31 1207.47 L1600 1207.07 L1600.69 1207.47 L1600.69 1208.27 Z" fill="#f5fffa" fill-rule="evenodd" fill-opacity="1" stroke="#000000" stroke-opacity="1" stroke-width="4.8"/>
<path clip-path="url(#clip032)" d="M1439.59 390.901 L1438.89 390.501 L1438.89 389.701 L1439.59 389.301 L1440.28 389.701 L1440.28 390.501 Z" fill="#f5fffa" fill-rule="evenodd" fill-opacity="1" stroke="#000000" stroke-opacity="1" stroke-width="4.8"/>
<path clip-path="url(#clip032)" d="M782.227 880.349 L781.534 879.949 L781.534 879.149 L782.227 878.749 L782.92 879.149 L782.92 879.949 Z" fill="#f5fffa" fill-rule="evenodd" fill-opacity="1" stroke="#000000" stroke-opacity="1" stroke-width="4.8"/>
<path clip-path="url(#clip030)" d="M1747.75 2013.22 Q1744.59 2013.22 1742.99 2016.34 Q1741.41 2019.44 1741.41 2025.68 Q1741.41 2031.9 1742.99 2035.01 Q1744.59 2038.11 1747.75 2038.11 Q1750.93 2038.11 1752.51 2035.01 Q1754.11 2031.9 1754.11 2025.68 Q1754.11 2019.44 1752.51 2016.34 Q1750.93 2013.22 1747.75 2013.22 M1747.75 2009.98 Q1752.84 2009.98 1755.51 2014.01 Q1758.21 2018.02 1758.21 2025.68 Q1758.21 2033.31 1755.51 2037.34 Q1752.84 2041.35 1747.75 2041.35 Q1742.67 2041.35 1739.98 2037.34 Q1737.3 2033.31 1737.3 2025.68 Q1737.3 2018.02 1739.98 2014.01 Q1742.67 2009.98 1747.75 2009.98 Z" fill="#000000" fill-rule="nonzero" fill-opacity="1" /><path clip-path="url(#clip030)" d="M1766.11 2037.32 L1772.79 2037.32 L1772.79 2014.25 L1765.52 2015.71 L1765.52 2011.99 L1772.75 2010.53 L1776.84 2010.53 L1776.84 2037.32 L1783.52 2037.32 L1783.52 2040.77 L1766.11 2040.77 L1766.11 2037.32 Z" fill="#000000" fill-rule="nonzero" fill-opacity="1" /><path clip-path="url(#clip030)" d="M2405.28 1523.77 Q2402.12 1523.77 2400.52 1526.89 Q2398.94 1529.99 2398.94 1536.23 Q2398.94 1542.45 2400.52 1545.57 Q2402.12 1548.66 2405.28 1548.66 Q2408.46 1548.66 2410.04 1545.57 Q2411.64 1542.45 2411.64 1536.23 Q2411.64 1529.99 2410.04 1526.89 Q2408.46 1523.77 2405.28 1523.77 M2405.28 1520.53 Q2410.36 1520.53 2413.03 1524.56 Q2415.73 1528.57 2415.73 1536.23 Q2415.73 1543.86 2413.03 1547.89 Q2410.36 1551.91 2405.28 1551.91 Q2400.19 1551.91 2397.5 1547.89 Q2394.82 1543.86 2394.82 1536.23 Q2394.82 1528.57 2397.5 1524.56 Q2400.19 1520.53 2405.28 1520.53 Z" fill="#000000" fill-rule="nonzero" fill-opacity="1" /><path clip-path="url(#clip030)" d="M2426.44 1547.87 L2440.72 1547.87 L2440.72 1551.32 L2421.52 1551.32 L2421.52 1547.87 Q2423.85 1545.46 2427.86 1541.41 Q2431.89 1537.34 2432.92 1536.17 Q2434.89 1533.96 2435.66 1532.44 Q2436.45 1530.9 2436.45 1529.42 Q2436.45 1527.01 2434.75 1525.49 Q2433.06 1523.97 2430.35 1523.97 Q2428.43 1523.97 2426.28 1524.64 Q2424.15 1525.31 2421.72 1526.67 L2421.72 1522.54 Q2424.19 1521.54 2426.34 1521.04 Q2428.49 1520.53 2430.27 1520.53 Q2434.97 1520.53 2437.76 1522.88 Q2440.56 1525.23 2440.56 1529.16 Q2440.56 1531.02 2439.85 1532.7 Q2439.16 1534.36 2437.32 1536.63 Q2436.81 1537.22 2434.1 1540.04 Q2431.38 1542.83 2426.44 1547.87 Z" fill="#000000" fill-rule="nonzero" fill-opacity="1" /><path clip-path="url(#clip030)" d="M1587.09 1195.45 Q1583.93 1195.45 1582.33 1198.57 Q1580.75 1201.67 1580.75 1207.9 Q1580.75 1214.12 1582.33 1217.24 Q1583.93 1220.34 1587.09 1220.34 Q1590.27 1220.34 1591.85 1217.24 Q1593.45 1214.12 1593.45 1207.9 Q1593.45 1201.67 1591.85 1198.57 Q1590.27 1195.45 1587.09 1195.45 M1587.09 1192.21 Q1592.17 1192.21 1594.84 1196.24 Q1597.54 1200.25 1597.54 1207.9 Q1597.54 1215.54 1594.84 1219.57 Q1592.17 1223.58 1587.09 1223.58 Q1582 1223.58 1579.31 1219.57 Q1576.64 1215.54 1576.64 1207.9 Q1576.64 1200.25 1579.31 1196.24 Q1582 1192.21 1587.09 1192.21 Z" fill="#000000" fill-rule="nonzero" fill-opacity="1" /><path clip-path="url(#clip030)" d="M1617.12 1206.69 Q1620.06 1207.32 1621.7 1209.3 Q1623.36 1211.29 1623.36 1214.2 Q1623.36 1218.68 1620.28 1221.13 Q1617.21 1223.58 1611.53 1223.58 Q1609.63 1223.58 1607.6 1223.2 Q1605.6 1222.83 1603.45 1222.08 L1603.45 1218.13 Q1605.15 1219.13 1607.18 1219.63 Q1609.21 1220.14 1611.41 1220.14 Q1615.26 1220.14 1617.27 1218.62 Q1619.29 1217.1 1619.29 1214.2 Q1619.29 1211.53 1617.41 1210.03 Q1615.54 1208.51 1612.2 1208.51 L1608.68 1208.51 L1608.68 1205.15 L1612.36 1205.15 Q1615.38 1205.15 1616.98 1203.96 Q1618.58 1202.74 1618.58 1200.47 Q1618.58 1198.14 1616.92 1196.91 Q1615.28 1195.65 1612.2 1195.65 Q1610.52 1195.65 1608.6 1196.02 Q1606.67 1196.38 1604.36 1197.15 L1604.36 1193.5 Q1606.69 1192.86 1608.72 1192.53 Q1610.76 1192.21 1612.57 1192.21 Q1617.23 1192.21 1619.94 1194.33 Q1622.65 1196.44 1622.65 1200.05 Q1622.65 1202.56 1621.22 1204.3 Q1619.78 1206.02 1617.12 1206.69 Z" fill="#000000" fill-rule="nonzero" fill-opacity="1" /><path clip-path="url(#clip030)" d="M1426.18 377.675 Q1423.02 377.675 1421.42 380.794 Q1419.84 383.893 1419.84 390.132 Q1419.84 396.35 1421.42 399.469 Q1423.02 402.568 1426.18 402.568 Q1429.36 402.568 1430.94 399.469 Q1432.54 396.35 1432.54 390.132 Q1432.54 383.893 1430.94 380.794 Q1429.36 377.675 1426.18 377.675 M1426.18 374.434 Q1431.26 374.434 1433.94 378.465 Q1436.63 382.475 1436.63 390.132 Q1436.63 397.768 1433.94 401.798 Q1431.26 405.809 1426.18 405.809 Q1421.1 405.809 1418.4 401.798 Q1415.73 397.768 1415.73 390.132 Q1415.73 382.475 1418.4 378.465 Q1421.1 374.434 1426.18 374.434 Z" fill="#000000" fill-rule="nonzero" fill-opacity="1" /><path clip-path="url(#clip030)" d="M1455.06 378.546 L1444.73 394.689 L1455.06 394.689 L1455.06 378.546 M1453.99 374.981 L1459.13 374.981 L1459.13 394.689 L1463.45 394.689 L1463.45 398.092 L1459.13 398.092 L1459.13 405.221 L1455.06 405.221 L1455.06 398.092 L1441.41 398.092 L1441.41 394.142 L1453.99 374.981 Z" fill="#000000" fill-rule="nonzero" fill-opacity="1" /><path clip-path="url(#clip030)" d="M769.467 867.123 Q766.307 867.123 764.707 870.242 Q763.127 873.341 763.127 879.579 Q763.127 885.797 764.707 888.917 Q766.307 892.016 769.467 892.016 Q772.647 892.016 774.227 888.917 Q775.827 885.797 775.827 879.579 Q775.827 873.341 774.227 870.242 Q772.647 867.123 769.467 867.123 M769.467 863.882 Q774.551 863.882 777.224 867.913 Q779.918 871.923 779.918 879.579 Q779.918 887.215 777.224 891.246 Q774.551 895.256 769.467 895.256 Q764.383 895.256 761.689 891.246 Q759.016 887.215 759.016 879.579 Q759.016 871.923 761.689 867.913 Q764.383 863.882 769.467 863.882 Z" fill="#000000" fill-rule="nonzero" fill-opacity="1" /><path clip-path="url(#clip030)" d="M787.149 864.429 L803.211 864.429 L803.211 867.872 L790.896 867.872 L790.896 875.285 Q791.787 874.982 792.679 874.84 Q793.57 874.678 794.461 874.678 Q799.525 874.678 802.482 877.453 Q805.439 880.227 805.439 884.967 Q805.439 889.848 802.401 892.562 Q799.363 895.256 793.833 895.256 Q791.929 895.256 789.944 894.932 Q787.98 894.608 785.873 893.96 L785.873 889.848 Q787.696 890.841 789.64 891.327 Q791.585 891.813 793.752 891.813 Q797.256 891.813 799.302 889.97 Q801.347 888.127 801.347 884.967 Q801.347 881.807 799.302 879.964 Q797.256 878.121 793.752 878.121 Q792.111 878.121 790.471 878.486 Q788.85 878.85 787.149 879.62 L787.149 864.429 Z" fill="#000000" fill-rule="nonzero" fill-opacity="1" /></svg>
