<?xml version="1.0" encoding="utf-8"?>
<svg xmlns="http://www.w3.org/2000/svg" xmlns:xlink="http://www.w3.org/1999/xlink" width="800" height="600" viewBox="0 0 3200 2400">
<defs>
  <clipPath id="clip450">
    <rect x="0" y="0" width="3200" height="2400"/>
  </clipPath>
</defs>
<path clip-path="url(#clip450)" d="M0 2400 L3200 2400 L3200 0 L0 0  Z" fill="#ffffff" fill-rule="evenodd" fill-opacity="1"/>
<defs>
  <clipPath id="clip451">
    <rect x="640" y="0" width="2241" height="2241"/>
  </clipPath>
</defs>
<path clip-path="url(#clip450)" d="M455.118 2352.76 L2744.88 2352.76 L2744.88 62.9921 L455.118 62.9921  Z" fill="#ffffff" fill-rule="evenodd" fill-opacity="1"/>
<defs>
  <clipPath id="clip452">
    <rect x="455" y="62" width="2291" height="2291"/>
  </clipPath>
</defs>
<path clip-path="url(#clip450)" d="M1221.82 103.433 L1221.82 78.112 Q1221.82 76.6916 1221.88 76.1975 Q1221.95 75.7034 1222.32 75.3329 Q1222.69 74.9623 1223.43 74.9623 Q1224.85 74.9623 1224.97 76.2593 Q1225.34 88.7962 1232.82 95.7132 Q1240.16 102.568 1252.76 102.568 Q1260.36 102.568 1265.05 97.1336 Q1269.75 91.6371 1269.75 84.4731 Q1269.75 77.618 1265.79 72.8008 Q1264.13 70.6393 1262.03 69.2806 Q1259.99 67.8601 1258.69 67.4278 Q1257.46 66.9955 1255.05 66.3779 Q1239.36 62.6107 1238.37 62.1784 Q1230.9 59.6463 1226.33 53.2851 Q1221.82 46.8623 1221.82 39.019 Q1221.82 28.8906 1228.92 21.7266 Q1236.09 14.5009 1246.46 14.5009 Q1251.65 14.5009 1255.97 16.1683 Q1260.36 17.7741 1262.15 19.2563 Q1263.94 20.7385 1266.72 23.3941 L1271.11 16.1683 Q1272.09 14.5009 1273.02 14.5009 Q1274.01 14.5009 1274.19 15.1185 Q1274.44 15.6743 1274.44 17.527 L1274.44 42.9715 Q1274.44 44.3919 1274.38 44.886 Q1274.32 45.3801 1273.88 45.6889 Q1273.51 45.9977 1272.77 45.9977 Q1271.54 45.9977 1271.23 44.5155 Q1267.71 18.0829 1246.59 18.0829 Q1239.36 18.0829 1234.61 22.9618 Q1229.91 27.7789 1229.91 34.6341 Q1229.91 40.1924 1233.37 44.7625 Q1236.83 49.2709 1242.7 50.6913 L1258.88 54.5821 Q1266.97 56.4966 1272.4 63.6606 Q1277.84 70.8245 1277.84 80.1501 Q1277.84 90.896 1270.8 98.6776 Q1263.82 106.459 1252.89 106.459 Q1245.04 106.459 1238.99 103.865 Q1232.94 101.271 1229.67 97.6277 Q1227.13 101.827 1225.47 104.174 L1225.1 104.792 Q1224.11 106.459 1223.18 106.459 Q1222.19 106.459 1222.01 105.842 Q1221.82 105.224 1221.82 103.433 Z" fill="#000000" fill-rule="nonzero" fill-opacity="1" /><path clip-path="url(#clip450)" d="M1289.08 103.68 L1289.08 99.7892 Q1295.81 99.7892 1297.35 98.9864 Q1298.9 98.1217 1298.9 94.0457 L1298.9 60.0168 Q1298.9 55.3232 1297.29 54.2115 Q1295.75 53.0999 1289.57 53.0999 L1289.57 49.1473 L1307.23 47.7886 L1307.23 94.1692 Q1307.23 97.9365 1308.59 98.8628 Q1309.95 99.7892 1316.13 99.7892 L1316.13 103.68 Q1303.22 103.309 1302.97 103.309 Q1301.24 103.309 1289.08 103.68 M1294.39 25.7409 Q1294.39 23.2088 1296.3 21.1708 Q1298.28 19.071 1301.06 19.071 Q1303.84 19.071 1305.81 20.9855 Q1307.79 22.8383 1307.79 25.8027 Q1307.79 28.7053 1305.81 30.6198 Q1303.84 32.4726 1301.06 32.4726 Q1298.16 32.4726 1296.24 30.4345 Q1294.39 28.3965 1294.39 25.7409 Z" fill="#000000" fill-rule="nonzero" fill-opacity="1" /><path clip-path="url(#clip450)" d="M1323.97 103.68 L1323.97 99.7892 Q1330.7 99.7892 1332.25 98.9864 Q1333.79 98.1217 1333.79 94.0457 L1333.79 60.1403 Q1333.79 55.4467 1332.12 54.2733 Q1330.52 53.0999 1323.97 53.0999 L1323.97 49.1473 L1341.76 47.7886 L1341.76 61.0667 Q1347.69 47.7886 1360.47 47.7886 Q1375.29 47.7886 1377.33 60.1403 Q1379.49 55.3232 1384 51.5559 Q1388.57 47.7886 1395.67 47.7886 Q1405.18 47.7886 1408.95 52.4823 Q1411.73 55.632 1412.29 59.1522 Q1412.84 62.6724 1412.84 71.8127 L1412.84 95.9602 Q1412.96 98.6158 1415 99.2334 Q1417.04 99.7892 1422.72 99.7892 L1422.72 103.68 Q1409.82 103.309 1408.58 103.309 Q1407.59 103.309 1394.25 103.68 L1394.25 99.7892 Q1400.98 99.7892 1402.53 98.9864 Q1404.13 98.1217 1404.13 94.0457 L1404.13 64.5869 Q1404.13 58.1641 1402.16 54.3968 Q1400.18 50.5678 1394.75 50.5678 Q1388.2 50.5678 1382.95 56.0643 Q1377.7 61.5608 1377.7 70.8245 L1377.7 94.0457 Q1377.7 98.1217 1379.24 98.9864 Q1380.85 99.7892 1387.58 99.7892 L1387.58 103.68 Q1374.67 103.309 1373.38 103.309 Q1372.39 103.309 1359.11 103.68 L1359.11 99.7892 Q1365.84 99.7892 1367.39 98.9864 Q1368.99 98.1217 1368.99 94.0457 L1368.99 64.5869 Q1368.99 58.1641 1367.02 54.3968 Q1365.04 50.5678 1359.61 50.5678 Q1353.06 50.5678 1347.81 56.0643 Q1342.56 61.5608 1342.56 70.8245 L1342.56 94.0457 Q1342.56 98.1217 1344.1 98.9864 Q1345.71 99.7892 1352.38 99.7892 L1352.38 103.68 Q1339.47 103.309 1338.24 103.309 Q1337.25 103.309 1323.97 103.68 Z" fill="#000000" fill-rule="nonzero" fill-opacity="1" /><path clip-path="url(#clip450)" d="M1428.71 124.307 Q1435.44 124.307 1436.99 123.443 Q1438.59 122.64 1438.59 118.626 L1438.59 59.3992 Q1438.59 55.1997 1436.99 54.1498 Q1435.44 53.0999 1428.71 53.0999 L1428.71 49.1473 L1446.93 47.7886 L1446.93 56.126 Q1454.53 47.7886 1464.66 47.7886 Q1475.4 47.7886 1483.25 56.126 Q1491.09 64.4634 1491.09 76.3828 Q1491.09 88.4257 1482.75 96.7631 Q1474.41 105.1 1462.87 105.1 Q1456.57 105.1 1452.3 101.889 Q1448.11 98.6158 1447.3 96.2072 L1447.3 97.3806 L1447.3 118.626 Q1447.3 122.702 1448.91 123.504 Q1450.51 124.307 1457.18 124.307 L1457.18 128.198 Q1443.91 127.828 1442.92 127.828 Q1441.68 127.828 1428.71 128.198 L1428.71 124.307 M1447.3 89.2903 Q1447.3 91.2048 1447.55 91.8841 Q1447.86 92.5635 1449.09 94.6015 Q1454.1 102.26 1462.25 102.26 Q1462.31 102.26 1462.37 102.26 Q1469.6 102.26 1475.09 94.9103 Q1480.59 87.4993 1480.59 76.3828 Q1480.59 65.7603 1475.59 58.3493 Q1470.59 50.9383 1463.67 50.9383 Q1458.73 50.9383 1454.4 53.5939 Q1450.08 56.2495 1447.3 61.0667 L1447.3 89.2903 Z" fill="#000000" fill-rule="nonzero" fill-opacity="1" /><path clip-path="url(#clip450)" d="M1499.55 103.68 L1499.55 99.7892 Q1506.28 99.7892 1507.83 98.9864 Q1509.37 98.1217 1509.37 94.0457 L1509.37 28.273 Q1509.37 23.5794 1507.7 22.4059 Q1506.1 21.2325 1499.55 21.2325 L1499.55 17.28 L1517.71 15.9213 L1517.71 94.0457 Q1517.71 98.1217 1519.31 98.9864 Q1520.92 99.7892 1527.59 99.7892 L1527.59 103.68 Q1526.04 103.68 1522.83 103.556 Q1519.62 103.433 1517.27 103.371 Q1514.93 103.309 1513.57 103.309 Q1512.09 103.309 1499.55 103.68 Z" fill="#000000" fill-rule="nonzero" fill-opacity="1" /><path clip-path="url(#clip450)" d="M1533.89 75.827 Q1533.89 63.9076 1541.55 55.4467 Q1549.2 46.9858 1560.2 46.9858 Q1571.31 46.9858 1577.06 54.2115 Q1582.86 61.4373 1582.86 71.8127 Q1582.86 73.7272 1582.37 74.0977 Q1581.87 74.4683 1579.71 74.4683 L1544.39 74.4683 Q1544.39 87.3758 1548.22 93.4281 Q1553.53 101.889 1562.48 101.889 Q1563.72 101.889 1565.2 101.642 Q1566.68 101.395 1569.71 100.345 Q1572.73 99.2334 1575.39 96.3308 Q1578.04 93.4281 1579.59 88.858 Q1579.96 87.067 1581.19 87.1287 Q1582.86 87.1287 1582.86 88.611 Q1582.86 89.7226 1581.63 92.2547 Q1580.45 94.725 1578.17 97.6894 Q1575.88 100.654 1571.44 102.877 Q1567.05 105.1 1561.74 105.1 Q1550.62 105.1 1542.23 96.7013 Q1533.89 88.2404 1533.89 75.827 M1544.51 71.8127 L1574.52 71.8127 Q1574.52 69.1571 1574.03 66.1927 Q1573.6 63.2282 1572.24 59.1522 Q1570.94 55.0144 1567.85 52.4205 Q1564.77 49.8267 1560.2 49.8267 Q1558.16 49.8267 1555.94 50.6913 Q1553.77 51.5559 1551.12 53.6557 Q1548.46 55.7555 1546.61 60.5109 Q1544.76 65.2663 1544.51 71.8127 Z" fill="#000000" fill-rule="nonzero" fill-opacity="1" /><path clip-path="url(#clip450)" d="M1648.63 93.0576 Q1635.67 79.656 1635.67 60.4491 Q1635.67 41.1805 1648.76 27.8407 Q1661.85 14.5009 1679.64 14.5009 Q1684.08 14.5009 1687.85 15.5508 Q1691.68 16.5389 1694.71 18.5769 Q1697.73 20.5532 1699.28 21.9119 Q1700.88 23.2088 1703.04 25.3704 L1709.41 16.0448 Q1710.39 14.5009 1711.38 14.5009 Q1712.43 14.5009 1712.62 15.1185 Q1712.8 15.6743 1712.8 17.527 L1712.8 47.5416 Q1712.8 49.5796 1712.55 50.0737 Q1712.31 50.5678 1710.76 50.5678 Q1709.53 50.5678 1709.28 50.1972 Q1709.03 49.8267 1708.73 48.4062 Q1706.81 34.7576 1699.15 26.6055 Q1691.56 18.4534 1681.18 18.4534 Q1678.16 18.4534 1674.76 19.1328 Q1671.42 19.8121 1666.48 22.4059 Q1661.6 24.9998 1657.84 29.2611 Q1654.13 33.4607 1651.41 41.6128 Q1648.7 49.7032 1648.7 60.4491 Q1648.7 71.0716 1651.41 79.2237 Q1654.13 87.3758 1657.9 91.6371 Q1661.73 95.8367 1666.67 98.4923 Q1671.67 101.148 1675.19 101.889 Q1678.77 102.568 1681.92 102.568 Q1684.08 102.568 1686.62 102.136 Q1689.15 101.642 1692.92 100.283 Q1696.74 98.8628 1699.15 95.5279 Q1701.56 92.1929 1701.56 87.2523 L1701.56 79.1619 Q1701.56 75.3947 1699.71 74.2212 Q1697.86 73.0478 1689.77 73.0478 L1685.75 73.0478 L1685.75 69.1571 Q1690.32 69.5276 1706.07 69.5276 Q1707.49 69.5276 1721.51 69.1571 L1721.51 73.0478 Q1715.46 73.0478 1714.1 73.9742 Q1712.8 74.8388 1712.8 78.6061 L1712.8 100.654 Q1712.8 103.556 1711.69 103.556 Q1710.7 103.556 1707.74 100.716 Q1704.83 97.8747 1703.54 95.7132 Q1700.51 101.024 1693.9 103.742 Q1687.36 106.459 1679.88 106.459 Q1661.67 106.459 1648.63 93.0576 Z" fill="#000000" fill-rule="nonzero" fill-opacity="1" /><path clip-path="url(#clip450)" d="M1731.21 103.68 L1731.21 99.7892 Q1737.94 99.7892 1739.48 98.9864 Q1741.09 98.1217 1741.09 94.0457 L1741.09 60.1403 Q1741.09 55.4467 1739.42 54.2733 Q1737.81 53.0999 1731.21 53.0999 L1731.21 49.1473 L1748.81 47.7886 L1748.81 61.6843 Q1750.6 56.2495 1754.37 52.05 Q1758.19 47.7886 1764.37 47.7886 Q1768.45 47.7886 1771.04 50.0737 Q1773.7 52.3588 1773.7 55.5084 Q1773.7 58.2876 1771.97 59.708 Q1770.3 61.0667 1768.26 61.0667 Q1765.98 61.0667 1764.37 59.6463 Q1762.83 58.1641 1762.83 55.632 Q1762.83 54.088 1763.51 52.9146 Q1764.25 51.6794 1764.8 51.2471 Q1765.36 50.8148 1765.73 50.6913 Q1765.48 50.5678 1764.37 50.5678 Q1757.39 50.5678 1753.38 57.5465 Q1749.42 64.4634 1749.42 74.3448 L1749.42 93.7987 Q1749.42 97.4424 1750.91 98.6158 Q1752.45 99.7892 1759.06 99.7892 L1761.71 99.7892 L1761.71 103.68 Q1756.65 103.309 1745.66 103.309 Q1744.11 103.309 1741.7 103.371 Q1739.3 103.433 1736.15 103.556 Q1733 103.68 1731.21 103.68 Z" fill="#000000" fill-rule="nonzero" fill-opacity="1" /><path clip-path="url(#clip450)" d="M1782.4 91.6371 Q1782.4 80.8912 1795.06 75.2094 Q1802.66 71.5656 1818.35 70.6393 L1818.35 66.0074 Q1818.35 58.1641 1814.21 54.0262 Q1810.13 49.8267 1804.95 49.8267 Q1795.68 49.8267 1791.23 55.632 Q1795 55.7555 1796.36 57.67 Q1797.72 59.5227 1797.72 61.4373 Q1797.72 63.9693 1796.11 65.6368 Q1794.57 67.2425 1791.91 67.2425 Q1789.38 67.2425 1787.71 65.6986 Q1786.05 64.0929 1786.05 61.3137 Q1786.05 55.1379 1791.61 51.0618 Q1797.23 46.9858 1805.19 46.9858 Q1815.57 46.9858 1822.48 53.9645 Q1824.65 56.126 1825.7 58.9052 Q1826.81 61.6843 1826.93 63.537 Q1827.05 65.328 1827.05 68.91 L1827.05 94.1692 Q1827.05 94.9103 1827.3 96.1455 Q1827.55 97.3806 1828.66 98.9864 Q1829.83 100.53 1831.75 100.53 Q1836.32 100.53 1836.26 92.44 L1836.26 85.3378 L1839.47 85.3378 L1839.47 92.44 Q1839.47 99.1716 1835.89 101.827 Q1832.37 104.421 1829.09 104.421 Q1824.89 104.421 1822.24 101.333 Q1819.58 98.2453 1819.21 94.0457 Q1817.3 98.8628 1812.91 102.013 Q1808.59 105.1 1802.66 105.1 Q1798.09 105.1 1793.77 103.927 Q1789.51 102.815 1785.92 99.6657 Q1782.4 96.4543 1782.4 91.6371 M1792.16 91.5136 Q1792.16 96.2072 1795.5 99.2334 Q1798.83 102.26 1803.52 102.26 Q1808.84 102.26 1813.59 98.1835 Q1818.35 94.0457 1818.35 85.9553 L1818.35 73.2949 Q1804.33 73.7889 1798.21 79.4089 Q1792.16 84.9672 1792.16 91.5136 Z" fill="#000000" fill-rule="nonzero" fill-opacity="1" /><path clip-path="url(#clip450)" d="M1843.85 124.307 Q1850.58 124.307 1852.13 123.443 Q1853.73 122.64 1853.73 118.626 L1853.73 59.3992 Q1853.73 55.1997 1852.13 54.1498 Q1850.58 53.0999 1843.85 53.0999 L1843.85 49.1473 L1862.07 47.7886 L1862.07 56.126 Q1869.67 47.7886 1879.8 47.7886 Q1890.54 47.7886 1898.39 56.126 Q1906.23 64.4634 1906.23 76.3828 Q1906.23 88.4257 1897.89 96.7631 Q1889.55 105.1 1878.01 105.1 Q1871.71 105.1 1867.44 101.889 Q1863.25 98.6158 1862.44 96.2072 L1862.44 97.3806 L1862.44 118.626 Q1862.44 122.702 1864.05 123.504 Q1865.65 124.307 1872.32 124.307 L1872.32 128.198 Q1859.05 127.828 1858.06 127.828 Q1856.82 127.828 1843.85 128.198 L1843.85 124.307 M1862.44 89.2903 Q1862.44 91.2048 1862.69 91.8841 Q1863 92.5635 1864.23 94.6015 Q1869.24 102.26 1877.39 102.26 Q1877.45 102.26 1877.51 102.26 Q1884.74 102.26 1890.23 94.9103 Q1895.73 87.4993 1895.73 76.3828 Q1895.73 65.7603 1890.73 58.3493 Q1885.73 50.9383 1878.81 50.9383 Q1873.87 50.9383 1869.54 53.5939 Q1865.22 56.2495 1862.44 61.0667 L1862.44 89.2903 Z" fill="#000000" fill-rule="nonzero" fill-opacity="1" /><path clip-path="url(#clip450)" d="M1914.57 103.68 L1914.57 99.7892 Q1921.3 99.7892 1922.84 98.9864 Q1924.39 98.1217 1924.39 94.0457 L1924.39 28.273 Q1924.39 23.5794 1922.72 22.4059 Q1921.11 21.2325 1914.57 21.2325 L1914.57 17.28 L1932.72 15.9213 L1932.72 59.8933 L1932.85 59.8933 Q1934.88 55.3232 1939.46 51.5559 Q1944.03 47.7886 1951.07 47.7886 Q1960.58 47.7886 1964.34 52.4823 Q1967.12 55.632 1967.68 59.1522 Q1968.3 62.6724 1968.3 71.8127 L1968.3 95.9602 Q1968.42 98.6158 1970.46 99.2334 Q1972.5 99.7892 1978.18 99.7892 L1978.18 103.68 Q1965.27 103.309 1963.97 103.309 Q1962.98 103.309 1949.71 103.68 L1949.71 99.7892 Q1956.44 99.7892 1957.98 98.9864 Q1959.59 98.1217 1959.59 94.0457 L1959.59 64.5869 Q1959.59 58.1641 1957.61 54.3968 Q1955.64 50.5678 1950.2 50.5678 Q1943.65 50.5678 1938.41 56.0643 Q1933.16 61.5608 1933.16 70.8245 L1933.16 94.0457 Q1933.16 98.1217 1934.7 98.9864 Q1936.31 99.7892 1942.98 99.7892 L1942.98 103.68 Q1930.07 103.309 1928.83 103.309 Q1927.84 103.309 1914.57 103.68 Z" fill="#000000" fill-rule="nonzero" fill-opacity="1" /><polyline clip-path="url(#clip452)" style="stroke:#000000; stroke-linecap:round; stroke-linejoin:round; stroke-width:4; stroke-opacity:1; fill:none" points="1740.92,390.101 1751.87,403.851 1762.83,417.586 1773.8,431.295 1784.81,444.962 1795.85,458.575 1806.95,472.119 1818.09,485.581 1829.31,498.947 1840.6,512.204 1851.98,525.338 1863.45,538.335 1875.03,551.182 1886.72,563.865 1898.54,576.369 1910.49,588.683 1922.59,600.791 1934.84,612.68 1947.24,624.337 1959.83,635.747 1972.59,646.898 1985.54,657.775 1998.7,668.365 2012.06,678.654 2025.65,688.629 2039.46,698.276 2053.5,707.595 2067.76,716.599 2082.24,725.303 2096.91,733.719 2111.77,741.862 2126.82,749.745 2142.03,757.382 2157.41,764.786 2172.95,771.972 2188.62,778.952 2204.43,785.741 2220.36,792.352 2236.41,798.799 2252.56,805.095 2268.81,811.255 2285.15,817.292 2301.56,823.219 2318.04,829.05 2334.57,834.8 2351.15,840.481 2367.78,846.107 2384.43,851.692 2401.09,857.25 2417.77,862.795 "/>
<polyline clip-path="url(#clip452)" style="stroke:#000000; stroke-linecap:round; stroke-linejoin:round; stroke-width:4; stroke-opacity:1; fill:none" points="1740.92,390.101 1742.98,407.64 1745.02,425.176 1747.02,442.707 1748.98,460.229 1750.87,477.74 1752.68,495.236 1754.39,512.716 1755.98,530.175 1757.45,547.612 1758.76,565.024 1759.91,582.407 1760.88,599.759 1761.66,617.077 1762.22,634.359 1762.55,651.6 1762.63,668.799 1762.45,685.953 1761.99,703.058 1761.23,720.113 1760.16,737.114 1758.77,754.058 1757.02,770.942 1754.92,787.765 1752.44,804.522 1749.56,821.211 1746.29,837.832 1742.64,854.389 1738.63,870.883 1734.28,887.317 1729.6,903.695 1724.6,920.019 1719.31,936.291 1713.74,952.516 1707.9,968.696 1701.82,984.832 1695.51,1000.93 1688.98,1016.99 1682.26,1033.02 1675.36,1049.01 1668.29,1064.98 1661.08,1080.92 1653.73,1096.84 1646.27,1112.74 1638.71,1128.62 1631.06,1144.49 1623.36,1160.34 1615.6,1176.19 1607.81,1192.03 1600,1207.87 "/>
<polyline clip-path="url(#clip452)" style="stroke:#000000; stroke-linecap:round; stroke-linejoin:round; stroke-width:4; stroke-opacity:1; fill:none" points="2417.77,862.795 2403.03,874.447 2388.28,886.085 2373.52,897.691 2358.73,909.252 2343.92,920.751 2329.08,932.173 2314.2,943.503 2299.28,954.726 2284.3,965.825 2269.26,976.786 2254.16,987.594 2238.99,998.232 2223.74,1008.69 2208.41,1018.94 2192.98,1028.98 2177.46,1038.79 2161.84,1048.35 2146.1,1057.65 2130.25,1066.68 2114.27,1075.41 2098.16,1083.83 2081.92,1091.94 2065.54,1099.7 2049,1107.11 2032.31,1114.15 2015.47,1120.83 1998.48,1127.15 1981.34,1133.13 1964.07,1138.79 1946.66,1144.14 1929.14,1149.2 1911.5,1153.99 1893.74,1158.51 1875.89,1162.79 1857.93,1166.83 1839.89,1170.66 1821.76,1174.29 1803.55,1177.74 1785.28,1181.02 1766.93,1184.14 1748.53,1187.13 1730.08,1189.99 1711.58,1192.74 1693.04,1195.41 1674.47,1197.99 1655.88,1200.52 1637.26,1202.99 1618.63,1205.44 1600,1207.87 "/>
<polyline clip-path="url(#clip452)" style="stroke:#000000; stroke-linecap:round; stroke-linejoin:round; stroke-width:4; stroke-opacity:1; fill:none" points="1600,1207.87 1602.05,1225.41 1604.09,1242.95 1606.1,1260.48 1608.06,1278 1609.95,1295.51 1611.76,1313.01 1613.47,1330.49 1615.06,1347.95 1616.53,1365.38 1617.84,1382.8 1618.99,1400.18 1619.96,1417.53 1620.74,1434.85 1621.29,1452.13 1621.62,1469.37 1621.71,1486.57 1621.53,1503.73 1621.07,1520.83 1620.31,1537.89 1619.24,1554.89 1617.84,1571.83 1616.1,1588.71 1614,1605.54 1611.52,1622.29 1608.64,1638.98 1605.37,1655.6 1601.72,1672.16 1597.71,1688.66 1593.36,1705.09 1588.68,1721.47 1583.68,1737.79 1578.39,1754.06 1572.82,1770.29 1566.98,1786.47 1560.9,1802.61 1554.59,1818.7 1548.06,1834.76 1541.34,1850.79 1534.44,1866.78 1527.37,1882.75 1520.16,1898.69 1512.81,1914.61 1505.35,1930.51 1497.79,1946.39 1490.14,1962.26 1482.44,1978.12 1474.68,1993.97 1466.89,2009.81 1459.08,2025.65 "/>
<polyline clip-path="url(#clip452)" style="stroke:#000000; stroke-linecap:round; stroke-linejoin:round; stroke-width:4; stroke-opacity:1; fill:none" points="1600,1207.87 1585.26,1219.53 1570.51,1231.16 1555.74,1242.77 1540.96,1254.33 1526.15,1265.83 1511.31,1277.25 1496.43,1288.58 1481.5,1299.81 1466.53,1310.9 1451.49,1321.87 1436.39,1332.67 1421.22,1343.31 1405.97,1353.77 1390.64,1364.02 1375.21,1374.06 1359.69,1383.87 1344.06,1393.43 1328.33,1402.73 1312.47,1411.76 1296.5,1420.49 1280.39,1428.91 1264.15,1437.02 1247.77,1444.78 1231.23,1452.19 1214.54,1459.23 1197.7,1465.91 1180.7,1472.23 1163.57,1478.21 1146.29,1483.87 1128.89,1489.22 1111.37,1494.28 1093.72,1499.07 1075.97,1503.59 1058.12,1507.87 1040.16,1511.91 1022.12,1515.74 1003.99,1519.37 985.782,1522.82 967.504,1526.1 949.161,1529.22 930.76,1532.21 912.307,1535.07 893.808,1537.82 875.271,1540.49 856.701,1543.07 838.105,1545.6 819.49,1548.08 800.862,1550.52 782.227,1552.95 "/>
<polyline clip-path="url(#clip452)" style="stroke:#000000; stroke-linecap:round; stroke-linejoin:round; stroke-width:4; stroke-opacity:1; fill:none" points="1459.08,2025.65 1442.4,2020.1 1425.73,2014.54 1409.08,2008.96 1392.46,2003.33 1375.88,1997.65 1359.34,1991.9 1342.87,1986.07 1326.45,1980.14 1310.12,1974.11 1293.87,1967.95 1277.72,1961.65 1261.67,1955.2 1245.74,1948.59 1229.93,1941.8 1214.25,1934.82 1198.72,1927.64 1183.34,1920.23 1168.12,1912.6 1153.08,1904.71 1138.21,1896.57 1123.54,1888.16 1109.07,1879.45 1094.81,1870.45 1080.77,1861.13 1066.95,1851.48 1053.37,1841.51 1040,1831.22 1026.85,1820.63 1013.89,1809.75 1001.13,1798.6 988.55,1787.19 976.141,1775.53 963.894,1763.64 951.799,1751.54 939.848,1739.22 928.031,1726.72 916.337,1714.04 904.759,1701.19 893.285,1688.19 881.907,1675.06 870.615,1661.8 859.4,1648.43 848.251,1634.97 837.159,1621.43 826.116,1607.82 815.11,1594.15 804.133,1580.44 793.175,1566.7 782.227,1552.95 "/>
<path clip-path="url(#clip452)" d="M1884.44 390.101 L1812.68 265.808 L1669.16 265.808 L1597.4 390.101 L1669.16 514.395 L1812.68 514.395 L1884.44 390.101 L1884.44 390.101  Z" fill="#f5fffa" fill-rule="evenodd" fill-opacity="1"/>
<polyline clip-path="url(#clip452)" style="stroke:#000000; stroke-linecap:round; stroke-linejoin:round; stroke-width:4; stroke-opacity:1; fill:none" points="1884.44,390.101 1812.68,265.808 1669.16,265.808 1597.4,390.101 1669.16,514.395 1812.68,514.395 1884.44,390.101 "/>
<path clip-path="url(#clip452)" d="M2561.29 862.795 L2489.53 738.501 L2346.01 738.501 L2274.25 862.795 L2346.01 987.088 L2489.53 987.088 L2561.29 862.795 L2561.29 862.795  Z" fill="#f5fffa" fill-rule="evenodd" fill-opacity="1"/>
<polyline clip-path="url(#clip452)" style="stroke:#000000; stroke-linecap:round; stroke-linejoin:round; stroke-width:4; stroke-opacity:1; fill:none" points="2561.29,862.795 2489.53,738.501 2346.01,738.501 2274.25,862.795 2346.01,987.088 2489.53,987.088 2561.29,862.795 "/>
<path clip-path="url(#clip452)" d="M1743.52 1207.87 L1671.76 1083.58 L1528.24 1083.58 L1456.48 1207.87 L1528.24 1332.17 L1671.76 1332.17 L1743.52 1207.87 L1743.52 1207.87  Z" fill="#f5fffa" fill-rule="evenodd" fill-opacity="1"/>
<polyline clip-path="url(#clip452)" style="stroke:#000000; stroke-linecap:round; stroke-linejoin:round; stroke-width:4; stroke-opacity:1; fill:none" points="1743.52,1207.87 1671.76,1083.58 1528.24,1083.58 1456.48,1207.87 1528.24,1332.17 1671.76,1332.17 1743.52,1207.87 "/>
<path clip-path="url(#clip452)" d="M1602.6 2025.65 L1530.84 1901.35 L1387.32 1901.35 L1315.56 2025.65 L1387.32 2149.94 L1530.84 2149.94 L1602.6 2025.65 L1602.6 2025.65  Z" fill="#f5fffa" fill-rule="evenodd" fill-opacity="1"/>
<polyline clip-path="url(#clip452)" style="stroke:#000000; stroke-linecap:round; stroke-linejoin:round; stroke-width:4; stroke-opacity:1; fill:none" points="1602.6,2025.65 1530.84,1901.35 1387.32,1901.35 1315.56,2025.65 1387.32,2149.94 1530.84,2149.94 1602.6,2025.65 "/>
<path clip-path="url(#clip452)" d="M925.749 1552.95 L853.988 1428.66 L710.466 1428.66 L638.706 1552.95 L710.466 1677.25 L853.988 1677.25 L925.749 1552.95 L925.749 1552.95  Z" fill="#f5fffa" fill-rule="evenodd" fill-opacity="1"/>
<polyline clip-path="url(#clip452)" style="stroke:#000000; stroke-linecap:round; stroke-linejoin:round; stroke-width:4; stroke-opacity:1; fill:none" points="925.749,1552.95 853.988,1428.66 710.466,1428.66 638.706,1552.95 710.466,1677.25 853.988,1677.25 925.749,1552.95 925.749,1552.95 "/>
<path clip-path="url(#clip452)" d="M1740.92 390.901 L1740.23 390.501 L1740.23 389.701 L1740.92 389.301 L1741.61 389.701 L1741.61 390.501 Z" fill="#f5fffa" fill-rule="evenodd" fill-opacity="1" stroke="#000000" stroke-opacity="1" stroke-width="4.8"/>
<path clip-path="url(#clip452)" d="M2417.77 863.595 L2417.08 863.195 L2417.08 862.395 L2417.77 861.995 L2418.47 862.395 L2418.47 863.195 Z" fill="#f5fffa" fill-rule="evenodd" fill-opacity="1" stroke="#000000" stroke-opacity="1" stroke-width="4.8"/>
<path clip-path="url(#clip452)" d="M1600 1208.67 L1599.31 1208.27 L1599.31 1207.47 L1600 1207.07 L1600.69 1207.47 L1600.69 1208.27 Z" fill="#f5fffa" fill-rule="evenodd" fill-opacity="1" stroke="#000000" stroke-opacity="1" stroke-width="4.8"/>
<path clip-path="url(#clip452)" d="M1459.08 2026.45 L1458.39 2026.05 L1458.39 2025.25 L1459.08 2024.85 L1459.77 2025.25 L1459.77 2026.05 Z" fill="#f5fffa" fill-rule="evenodd" fill-opacity="1" stroke="#000000" stroke-opacity="1" stroke-width="4.8"/>
<path clip-path="url(#clip452)" d="M782.227 1553.75 L781.534 1553.35 L781.534 1552.55 L782.227 1552.15 L782.92 1552.55 L782.92 1553.35 Z" fill="#f5fffa" fill-rule="evenodd" fill-opacity="1" stroke="#000000" stroke-opacity="1" stroke-width="4.8"/>
<path clip-path="url(#clip450)" d="M1728.26 377.675 Q1725.1 377.675 1723.5 380.794 Q1721.92 383.893 1721.92 390.132 Q1721.92 396.35 1723.5 399.469 Q1725.1 402.568 1728.26 402.568 Q1731.44 402.568 1733.02 399.469 Q1734.62 396.35 1734.62 390.132 Q1734.62 383.893 1733.02 380.794 Q1731.44 377.675 1728.26 377.675 M1728.26 374.434 Q1733.35 374.434 1736.02 378.465 Q1738.71 382.475 1738.71 390.132 Q1738.71 397.768 1736.02 401.798 Q1733.35 405.809 1728.26 405.809 Q1723.18 405.809 1720.49 401.798 Q1717.81 397.768 1717.81 390.132 Q1717.81 382.475 1720.49 378.465 Q1723.18 374.434 1728.26 374.434 Z" fill="#000000" fill-rule="nonzero" fill-opacity="1" /><path clip-path="url(#clip450)" d="M1746.61 401.778 L1753.3 401.778 L1753.3 378.708 L1746.03 380.166 L1746.03 376.44 L1753.26 374.981 L1757.35 374.981 L1757.35 401.778 L1764.03 401.778 L1764.03 405.221 L1746.61 405.221 L1746.61 401.778 Z" fill="#000000" fill-rule="nonzero" fill-opacity="1" /><path clip-path="url(#clip450)" d="M2405.28 850.368 Q2402.12 850.368 2400.52 853.488 Q2398.94 856.587 2398.94 862.825 Q2398.94 869.043 2400.52 872.162 Q2402.12 875.261 2405.28 875.261 Q2408.46 875.261 2410.04 872.162 Q2411.64 869.043 2411.64 862.825 Q2411.64 856.587 2410.04 853.488 Q2408.46 850.368 2405.28 850.368 M2405.28 847.128 Q2410.36 847.128 2413.03 851.158 Q2415.73 855.169 2415.73 862.825 Q2415.73 870.461 2413.03 874.492 Q2410.36 878.502 2405.28 878.502 Q2400.19 878.502 2397.5 874.492 Q2394.82 870.461 2394.82 862.825 Q2394.82 855.169 2397.5 851.158 Q2400.19 847.128 2405.28 847.128 Z" fill="#000000" fill-rule="nonzero" fill-opacity="1" /><path clip-path="url(#clip450)" d="M2426.44 874.471 L2440.72 874.471 L2440.72 877.915 L2421.52 877.915 L2421.52 874.471 Q2423.85 872.061 2427.86 868.01 Q2431.89 863.939 2432.92 862.764 Q2434.89 860.556 2435.66 859.037 Q2436.45 857.498 2436.45 856.019 Q2436.45 853.609 2434.75 852.09 Q2433.06 850.571 2430.35 850.571 Q2428.43 850.571 2426.28 851.239 Q2424.15 851.908 2421.72 853.265 L2421.72 849.133 Q2424.19 848.14 2426.34 847.634 Q2428.49 847.128 2430.27 847.128 Q2434.97 847.128 2437.76 849.477 Q2440.56 851.827 2440.56 855.756 Q2440.56 857.62 2439.85 859.301 Q2439.16 860.962 2437.32 863.23 Q2436.81 863.817 2434.1 866.633 Q2431.38 869.428 2426.44 874.471 Z" fill="#000000" fill-rule="nonzero" fill-opacity="1" /><path clip-path="url(#clip450)" d="M1587.09 1195.45 Q1583.93 1195.45 1582.33 1198.57 Q1580.75 1201.67 1580.75 1207.9 Q1580.75 1214.12 1582.33 1217.24 Q1583.93 1220.34 1587.09 1220.34 Q1590.27 1220.34 1591.85 1217.24 Q1593.45 1214.12 1593.45 1207.9 Q1593.45 1201.67 1591.85 1198.57 Q1590.27 1195.45 1587.09 1195.45 M1587.09 1192.21 Q1592.17 1192.21 1594.84 1196.24 Q1597.54 1200.25 1597.54 1207.9 Q1597.54 1215.54 1594.84 1219.57 Q1592.17 1223.58 1587.09 1223.58 Q1582 1223.58 1579.31 1219.57 Q1576.64 1215.54 1576.64 1207.9 Q1576.64 1200.25 1579.31 1196.24 Q1582 1192.21 1587.09 1192.21 Z" fill="#000000" fill-rule="nonzero" fill-opacity="1" /><path clip-path="url(#clip450)" d="M1617.12 1206.69 Q1620.06 1207.32 1621.7 1209.3 Q1623.36 1211.29 1623.36 1214.2 Q1623.36 1218.68 1620.28 1221.13 Q1617.21 1223.58 1611.53 1223.58 Q1609.63 1223.58 1607.6 1223.2 Q1605.6 1222.83 1603.45 1222.08 L1603.45 1218.13 Q1605.15 1219.13 1607.18 1219.63 Q1609.21 1220.14 1611.41 1220.14 Q1615.26 1220.14 1617.27 1218.62 Q1619.29 1217.1 1619.29 1214.2 Q1619.29 1211.53 1617.41 1210.03 Q1615.54 1208.51 1612.2 1208.51 L1608.68 1208.51 L1608.68 1205.15 L1612.36 1205.15 Q1615.38 1205.15 1616.98 1203.95 Q1618.58 1202.74 1618.58 1200.47 Q1618.58 1198.14 1616.92 1196.91 Q1615.28 1195.65 1612.2 1195.65 Q1610.52 1195.65 1608.6 1196.01 Q1606.67 1196.38 1604.36 1197.15 L1604.36 1193.5 Q1606.69 1192.86 1608.72 1192.53 Q1610.76 1192.21 1612.57 1192.21 Q1617.23 1192.21 1619.94 1194.33 Q1622.65 1196.44 1622.65 1200.05 Q1622.65 1202.56 1621.22 1204.3 Q1619.78 1206.02 1617.12 1206.69 Z" fill="#000000" fill-rule="nonzero" fill-opacity="1" /><path clip-path="url(#clip450)" d="M1445.67 2013.22 Q1442.51 2013.22 1440.91 2016.34 Q1439.33 2019.44 1439.33 2025.68 Q1439.33 2031.9 1440.91 2035.01 Q1442.51 2038.11 1445.67 2038.11 Q1448.85 2038.11 1450.43 2035.01 Q1452.03 2031.9 1452.03 2025.68 Q1452.03 2019.44 1450.43 2016.34 Q1448.85 2013.22 1445.67 2013.22 M1445.67 2009.98 Q1450.75 2009.98 1453.43 2014.01 Q1456.12 2018.02 1456.12 2025.68 Q1456.12 2033.31 1453.43 2037.34 Q1450.75 2041.35 1445.67 2041.35 Q1440.59 2041.35 1437.89 2037.34 Q1435.22 2033.31 1435.22 2025.68 Q1435.22 2018.02 1437.89 2014.01 Q1440.59 2009.98 1445.67 2009.98 Z" fill="#000000" fill-rule="nonzero" fill-opacity="1" /><path clip-path="url(#clip450)" d="M1474.55 2014.09 L1464.22 2030.23 L1474.55 2030.23 L1474.55 2014.09 M1473.48 2010.53 L1478.62 2010.53 L1478.62 2030.23 L1482.94 2030.23 L1482.94 2033.64 L1478.62 2033.64 L1478.62 2040.77 L1474.55 2040.77 L1474.55 2033.64 L1460.9 2033.64 L1460.9 2029.69 L1473.48 2010.53 Z" fill="#000000" fill-rule="nonzero" fill-opacity="1" /><path clip-path="url(#clip450)" d="M769.467 1540.53 Q766.307 1540.53 764.707 1543.65 Q763.127 1546.75 763.127 1552.99 Q763.127 1559.2 764.707 1562.32 Q766.307 1565.42 769.467 1565.42 Q772.647 1565.42 774.227 1562.32 Q775.827 1559.2 775.827 1552.99 Q775.827 1546.75 774.227 1543.65 Q772.647 1540.53 769.467 1540.53 M769.467 1537.29 Q774.551 1537.29 777.224 1541.32 Q779.918 1545.33 779.918 1552.99 Q779.918 1560.62 777.224 1564.65 Q774.551 1568.66 769.467 1568.66 Q764.383 1568.66 761.689 1564.65 Q759.016 1560.62 759.016 1552.99 Q759.016 1545.33 761.689 1541.32 Q764.383 1537.29 769.467 1537.29 Z" fill="#000000" fill-rule="nonzero" fill-opacity="1" /><path clip-path="url(#clip450)" d="M787.149 1537.83 L803.211 1537.83 L803.211 1541.28 L790.896 1541.28 L790.896 1548.69 Q791.787 1548.39 792.679 1548.25 Q793.57 1548.08 794.461 1548.08 Q799.525 1548.08 802.482 1550.86 Q805.439 1553.63 805.439 1558.37 Q805.439 1563.25 802.401 1565.97 Q799.363 1568.66 793.833 1568.66 Q791.929 1568.66 789.944 1568.34 Q787.98 1568.01 785.873 1567.37 L785.873 1563.25 Q787.696 1564.25 789.64 1564.73 Q791.585 1565.22 793.752 1565.22 Q797.256 1565.22 799.302 1563.38 Q801.347 1561.53 801.347 1558.37 Q801.347 1555.21 799.302 1553.37 Q797.256 1551.53 793.752 1551.53 Q792.111 1551.53 790.471 1551.89 Q788.85 1552.26 787.149 1553.03 L787.149 1537.83 Z" fill="#000000" fill-rule="nonzero" fill-opacity="1" /></svg>
