<?xml version="1.0" encoding="utf-8"?>
<svg xmlns="http://www.w3.org/2000/svg" xmlns:xlink="http://www.w3.org/1999/xlink" width="800" height="600" viewBox="0 0 3200 2400">
<defs>
  <clipPath id="clip380">
    <rect x="0" y="0" width="3200" height="2400"/>
  </clipPath>
</defs>
<path clip-path="url(#clip380)" d="
M0 2400 L3200 2400 L3200 0 L0 0  Z
  " fill="#ffffff" fill-rule="evenodd" fill-opacity="1"/>
<defs>
  <clipPath id="clip381">
    <rect x="640" y="0" width="2241" height="2241"/>
  </clipPath>
</defs>
<path clip-path="url(#clip380)" d="
M455.118 2352.76 L2744.88 2352.76 L2744.88 62.9921 L455.118 62.9921  Z
  " fill="#ffffff" fill-rule="evenodd" fill-opacity="1"/>
<defs>
  <clipPath id="clip382">
    <rect x="455" y="62" width="2291" height="2291"/>
  </clipPath>
</defs>
<path clip-path="url(#clip380)" d="M1221.82 103.433 L1221.82 78.112 Q1221.82 76.6916 1221.88 76.1975 Q1221.95 75.7034 1222.32 75.3329 Q1222.69 74.9623 1223.43 74.9623 Q1224.85 74.9623 1224.97 76.2593 Q1225.34 88.7962 1232.82 95.7132 Q1240.16 102.568 1252.76 102.568 Q1260.36 102.568 1265.05 97.1336 Q1269.75 91.6371 1269.75 84.4731 Q1269.75 77.618 1265.79 72.8008 Q1264.13 70.6393 1262.03 69.2806 Q1259.99 67.8601 1258.69 67.4278 Q1257.46 66.9955 1255.05 66.3779 Q1239.36 62.6107 1238.37 62.1784 Q1230.9 59.6463 1226.33 53.2851 Q1221.82 46.8623 1221.82 39.019 Q1221.82 28.8906 1228.92 21.7266 Q1236.09 14.5009 1246.46 14.5009 Q1251.65 14.5009 1255.97 16.1683 Q1260.36 17.7741 1262.15 19.2563 Q1263.94 20.7385 1266.72 23.3941 L1271.11 16.1683 Q1272.09 14.5009 1273.02 14.5009 Q1274.01 14.5009 1274.19 15.1185 Q1274.44 15.6743 1274.44 17.527 L1274.44 42.9715 Q1274.44 44.3919 1274.38 44.886 Q1274.32 45.3801 1273.88 45.6889 Q1273.51 45.9977 1272.77 45.9977 Q1271.54 45.9977 1271.23 44.5155 Q1267.71 18.0829 1246.59 18.0829 Q1239.36 18.0829 1234.61 22.9618 Q1229.91 27.7789 1229.91 34.6341 Q1229.91 40.1924 1233.37 44.7625 Q1236.83 49.2709 1242.7 50.6913 L1258.88 54.5821 Q1266.97 56.4966 1272.4 63.6606 Q1277.84 70.8245 1277.84 80.1501 Q1277.84 90.896 1270.8 98.6776 Q1263.82 106.459 1252.89 106.459 Q1245.04 106.459 1238.99 103.865 Q1232.94 101.271 1229.67 97.6277 Q1227.13 101.827 1225.47 104.174 L1225.1 104.792 Q1224.11 106.459 1223.18 106.459 Q1222.19 106.459 1222.01 105.842 Q1221.82 105.224 1221.82 103.433 Z" fill="#000000" fill-rule="evenodd" fill-opacity="1" /><path clip-path="url(#clip380)" d="M1289.08 103.68 L1289.08 99.7892 Q1295.81 99.7892 1297.35 98.9864 Q1298.9 98.1217 1298.9 94.0457 L1298.9 60.0168 Q1298.9 55.3232 1297.29 54.2115 Q1295.75 53.0999 1289.57 53.0999 L1289.57 49.1473 L1307.23 47.7886 L1307.23 94.1692 Q1307.23 97.9365 1308.59 98.8628 Q1309.95 99.7892 1316.13 99.7892 L1316.13 103.68 Q1303.22 103.309 1302.97 103.309 Q1301.24 103.309 1289.08 103.68 M1294.39 25.7409 Q1294.39 23.2088 1296.3 21.1708 Q1298.28 19.071 1301.06 19.071 Q1303.84 19.071 1305.81 20.9855 Q1307.79 22.8383 1307.79 25.8027 Q1307.79 28.7053 1305.81 30.6198 Q1303.84 32.4726 1301.06 32.4726 Q1298.16 32.4726 1296.24 30.4345 Q1294.39 28.3965 1294.39 25.7409 Z" fill="#000000" fill-rule="evenodd" fill-opacity="1" /><path clip-path="url(#clip380)" d="M1323.97 103.68 L1323.97 99.7892 Q1330.7 99.7892 1332.25 98.9864 Q1333.79 98.1217 1333.79 94.0457 L1333.79 60.1403 Q1333.79 55.4467 1332.12 54.2733 Q1330.52 53.0999 1323.97 53.0999 L1323.97 49.1473 L1341.76 47.7886 L1341.76 61.0667 Q1347.69 47.7886 1360.47 47.7886 Q1375.29 47.7886 1377.33 60.1403 Q1379.49 55.3232 1384 51.5559 Q1388.57 47.7886 1395.67 47.7886 Q1405.18 47.7886 1408.95 52.4823 Q1411.73 55.632 1412.29 59.1522 Q1412.84 62.6724 1412.84 71.8127 L1412.84 95.9602 Q1412.96 98.6158 1415 99.2334 Q1417.04 99.7892 1422.72 99.7892 L1422.72 103.68 Q1409.82 103.309 1408.58 103.309 Q1407.59 103.309 1394.25 103.68 L1394.25 99.7892 Q1400.98 99.7892 1402.53 98.9864 Q1404.13 98.1217 1404.13 94.0457 L1404.13 64.5869 Q1404.13 58.1641 1402.16 54.3968 Q1400.18 50.5678 1394.75 50.5678 Q1388.2 50.5678 1382.95 56.0643 Q1377.7 61.5608 1377.7 70.8245 L1377.7 94.0457 Q1377.7 98.1217 1379.24 98.9864 Q1380.85 99.7892 1387.58 99.7892 L1387.58 103.68 Q1374.67 103.309 1373.38 103.309 Q1372.39 103.309 1359.11 103.68 L1359.11 99.7892 Q1365.84 99.7892 1367.39 98.9864 Q1368.99 98.1217 1368.99 94.0457 L1368.99 64.5869 Q1368.99 58.1641 1367.02 54.3968 Q1365.04 50.5678 1359.61 50.5678 Q1353.06 50.5678 1347.81 56.0643 Q1342.56 61.5608 1342.56 70.8245 L1342.56 94.0457 Q1342.56 98.1217 1344.1 98.9864 Q1345.71 99.7892 1352.38 99.7892 L1352.38 103.68 Q1339.47 103.309 1338.24 103.309 Q1337.25 103.309 1323.97 103.68 Z" fill="#000000" fill-rule="evenodd" fill-opacity="1" /><path clip-path="url(#clip380)" d="M1428.71 124.307 Q1435.44 124.307 1436.99 123.443 Q1438.59 122.64 1438.59 118.626 L1438.59 59.3992 Q1438.59 55.1997 1436.99 54.1498 Q1435.44 53.0999 1428.71 53.0999 L1428.71 49.1473 L1446.93 47.7886 L1446.93 56.126 Q1454.53 47.7886 1464.66 47.7886 Q1475.4 47.7886 1483.25 56.126 Q1491.09 64.4634 1491.09 76.3828 Q1491.09 88.4257 1482.75 96.7631 Q1474.41 105.1 1462.87 105.1 Q1456.57 105.1 1452.3 101.889 Q1448.11 98.6158 1447.3 96.2072 L1447.3 97.3806 L1447.3 118.626 Q1447.3 122.702 1448.91 123.504 Q1450.51 124.307 1457.18 124.307 L1457.18 128.198 Q1443.91 127.828 1442.92 127.828 Q1441.68 127.828 1428.71 128.198 L1428.71 124.307 M1447.3 89.2903 Q1447.3 91.2048 1447.55 91.8841 Q1447.86 92.5635 1449.09 94.6015 Q1454.1 102.26 1462.25 102.26 Q1462.31 102.26 1462.37 102.26 Q1469.6 102.26 1475.09 94.9103 Q1480.59 87.4993 1480.59 76.3828 Q1480.59 65.7603 1475.59 58.3493 Q1470.59 50.9383 1463.67 50.9383 Q1458.73 50.9383 1454.4 53.5939 Q1450.08 56.2495 1447.3 61.0667 L1447.3 89.2903 Z" fill="#000000" fill-rule="evenodd" fill-opacity="1" /><path clip-path="url(#clip380)" d="M1499.55 103.68 L1499.55 99.7892 Q1506.28 99.7892 1507.83 98.9864 Q1509.37 98.1217 1509.37 94.0457 L1509.37 28.273 Q1509.37 23.5794 1507.7 22.4059 Q1506.1 21.2325 1499.55 21.2325 L1499.55 17.28 L1517.71 15.9213 L1517.71 94.0457 Q1517.71 98.1217 1519.31 98.9864 Q1520.92 99.7892 1527.59 99.7892 L1527.59 103.68 Q1526.04 103.68 1522.83 103.556 Q1519.62 103.433 1517.27 103.371 Q1514.93 103.309 1513.57 103.309 Q1512.09 103.309 1499.55 103.68 Z" fill="#000000" fill-rule="evenodd" fill-opacity="1" /><path clip-path="url(#clip380)" d="M1533.89 75.827 Q1533.89 63.9076 1541.55 55.4467 Q1549.2 46.9858 1560.2 46.9858 Q1571.31 46.9858 1577.06 54.2115 Q1582.86 61.4373 1582.86 71.8127 Q1582.86 73.7272 1582.37 74.0977 Q1581.87 74.4683 1579.71 74.4683 L1544.39 74.4683 Q1544.39 87.3758 1548.22 93.4281 Q1553.53 101.889 1562.48 101.889 Q1563.72 101.889 1565.2 101.642 Q1566.68 101.395 1569.71 100.345 Q1572.73 99.2334 1575.39 96.3308 Q1578.04 93.4281 1579.59 88.858 Q1579.96 87.067 1581.19 87.1287 Q1582.86 87.1287 1582.86 88.611 Q1582.86 89.7226 1581.63 92.2547 Q1580.45 94.725 1578.17 97.6894 Q1575.88 100.654 1571.44 102.877 Q1567.05 105.1 1561.74 105.1 Q1550.62 105.1 1542.23 96.7013 Q1533.89 88.2404 1533.89 75.827 M1544.51 71.8127 L1574.52 71.8127 Q1574.52 69.1571 1574.03 66.1927 Q1573.6 63.2282 1572.24 59.1522 Q1570.94 55.0144 1567.85 52.4205 Q1564.77 49.8267 1560.2 49.8267 Q1558.16 49.8267 1555.94 50.6913 Q1553.77 51.5559 1551.12 53.6557 Q1548.46 55.7555 1546.61 60.5109 Q1544.76 65.2663 1544.51 71.8127 Z" fill="#000000" fill-rule="evenodd" fill-opacity="1" /><path clip-path="url(#clip380)" d="M1648.63 93.0576 Q1635.67 79.656 1635.67 60.4491 Q1635.67 41.1805 1648.76 27.8407 Q1661.85 14.5009 1679.64 14.5009 Q1684.08 14.5009 1687.85 15.5508 Q1691.68 16.5389 1694.71 18.5769 Q1697.73 20.5532 1699.28 21.9119 Q1700.88 23.2088 1703.04 25.3704 L1709.41 16.0448 Q1710.39 14.5009 1711.38 14.5009 Q1712.43 14.5009 1712.62 15.1185 Q1712.8 15.6743 1712.8 17.527 L1712.8 47.5416 Q1712.8 49.5796 1712.55 50.0737 Q1712.31 50.5678 1710.76 50.5678 Q1709.53 50.5678 1709.28 50.1972 Q1709.03 49.8267 1708.73 48.4062 Q1706.81 34.7576 1699.15 26.6055 Q1691.56 18.4534 1681.18 18.4534 Q1678.16 18.4534 1674.76 19.1328 Q1671.42 19.8121 1666.48 22.4059 Q1661.6 24.9998 1657.84 29.2611 Q1654.13 33.4607 1651.41 41.6128 Q1648.7 49.7032 1648.7 60.4491 Q1648.7 71.0716 1651.41 79.2237 Q1654.13 87.3758 1657.9 91.6371 Q1661.73 95.8367 1666.67 98.4923 Q1671.67 101.148 1675.19 101.889 Q1678.77 102.568 1681.92 102.568 Q1684.08 102.568 1686.62 102.136 Q1689.15 101.642 1692.92 100.283 Q1696.74 98.8628 1699.15 95.5279 Q1701.56 92.1929 1701.56 87.2523 L1701.56 79.1619 Q1701.56 75.3947 1699.71 74.2212 Q1697.86 73.0478 1689.77 73.0478 L1685.75 73.0478 L1685.75 69.1571 Q1690.32 69.5276 1706.07 69.5276 Q1707.49 69.5276 1721.51 69.1571 L1721.51 73.0478 Q1715.46 73.0478 1714.1 73.9742 Q1712.8 74.8388 1712.8 78.6061 L1712.8 100.654 Q1712.8 103.556 1711.69 103.556 Q1710.7 103.556 1707.74 100.716 Q1704.83 97.8747 1703.54 95.7132 Q1700.51 101.024 1693.9 103.742 Q1687.36 106.459 1679.88 106.459 Q1661.67 106.459 1648.63 93.0576 Z" fill="#000000" fill-rule="evenodd" fill-opacity="1" /><path clip-path="url(#clip380)" d="M1731.21 103.68 L1731.21 99.7892 Q1737.94 99.7892 1739.48 98.9864 Q1741.09 98.1217 1741.09 94.0457 L1741.09 60.1403 Q1741.09 55.4467 1739.42 54.2733 Q1737.81 53.0999 1731.21 53.0999 L1731.21 49.1473 L1748.81 47.7886 L1748.81 61.6843 Q1750.6 56.2495 1754.37 52.05 Q1758.19 47.7886 1764.37 47.7886 Q1768.45 47.7886 1771.04 50.0737 Q1773.7 52.3588 1773.7 55.5084 Q1773.7 58.2876 1771.97 59.708 Q1770.3 61.0667 1768.26 61.0667 Q1765.98 61.0667 1764.37 59.6463 Q1762.83 58.1641 1762.83 55.632 Q1762.83 54.088 1763.51 52.9146 Q1764.25 51.6794 1764.8 51.2471 Q1765.36 50.8148 1765.73 50.6913 Q1765.48 50.5678 1764.37 50.5678 Q1757.39 50.5678 1753.38 57.5465 Q1749.42 64.4634 1749.42 74.3448 L1749.42 93.7987 Q1749.42 97.4424 1750.91 98.6158 Q1752.45 99.7892 1759.06 99.7892 L1761.71 99.7892 L1761.71 103.68 Q1756.65 103.309 1745.66 103.309 Q1744.11 103.309 1741.7 103.371 Q1739.3 103.433 1736.15 103.556 Q1733 103.68 1731.21 103.68 Z" fill="#000000" fill-rule="evenodd" fill-opacity="1" /><path clip-path="url(#clip380)" d="M1782.4 91.6371 Q1782.4 80.8912 1795.06 75.2094 Q1802.66 71.5656 1818.35 70.6393 L1818.35 66.0074 Q1818.35 58.1641 1814.21 54.0262 Q1810.13 49.8267 1804.95 49.8267 Q1795.68 49.8267 1791.23 55.632 Q1795 55.7555 1796.36 57.67 Q1797.72 59.5227 1797.72 61.4373 Q1797.72 63.9693 1796.11 65.6368 Q1794.57 67.2425 1791.91 67.2425 Q1789.38 67.2425 1787.71 65.6986 Q1786.05 64.0929 1786.05 61.3137 Q1786.05 55.1379 1791.61 51.0618 Q1797.23 46.9858 1805.19 46.9858 Q1815.57 46.9858 1822.48 53.9645 Q1824.65 56.126 1825.7 58.9052 Q1826.81 61.6843 1826.93 63.537 Q1827.05 65.328 1827.05 68.91 L1827.05 94.1692 Q1827.05 94.9103 1827.3 96.1455 Q1827.55 97.3806 1828.66 98.9864 Q1829.83 100.53 1831.75 100.53 Q1836.32 100.53 1836.26 92.44 L1836.26 85.3378 L1839.47 85.3378 L1839.47 92.44 Q1839.47 99.1716 1835.89 101.827 Q1832.37 104.421 1829.09 104.421 Q1824.89 104.421 1822.24 101.333 Q1819.58 98.2453 1819.21 94.0457 Q1817.3 98.8628 1812.91 102.013 Q1808.59 105.1 1802.66 105.1 Q1798.09 105.1 1793.77 103.927 Q1789.51 102.815 1785.92 99.6657 Q1782.4 96.4543 1782.4 91.6371 M1792.16 91.5136 Q1792.16 96.2072 1795.5 99.2334 Q1798.83 102.26 1803.52 102.26 Q1808.84 102.26 1813.59 98.1835 Q1818.35 94.0457 1818.35 85.9553 L1818.35 73.2949 Q1804.33 73.7889 1798.21 79.4089 Q1792.16 84.9672 1792.16 91.5136 Z" fill="#000000" fill-rule="evenodd" fill-opacity="1" /><path clip-path="url(#clip380)" d="M1843.85 124.307 Q1850.58 124.307 1852.13 123.443 Q1853.73 122.64 1853.73 118.626 L1853.73 59.3992 Q1853.73 55.1997 1852.13 54.1498 Q1850.58 53.0999 1843.85 53.0999 L1843.85 49.1473 L1862.07 47.7886 L1862.07 56.126 Q1869.67 47.7886 1879.8 47.7886 Q1890.54 47.7886 1898.39 56.126 Q1906.23 64.4634 1906.23 76.3828 Q1906.23 88.4257 1897.89 96.7631 Q1889.55 105.1 1878.01 105.1 Q1871.71 105.1 1867.44 101.889 Q1863.25 98.6158 1862.44 96.2072 L1862.44 97.3806 L1862.44 118.626 Q1862.44 122.702 1864.05 123.504 Q1865.65 124.307 1872.32 124.307 L1872.32 128.198 Q1859.05 127.828 1858.06 127.828 Q1856.82 127.828 1843.85 128.198 L1843.85 124.307 M1862.44 89.2903 Q1862.44 91.2048 1862.69 91.8841 Q1863 92.5635 1864.23 94.6015 Q1869.24 102.26 1877.39 102.26 Q1877.45 102.26 1877.51 102.26 Q1884.74 102.26 1890.23 94.9103 Q1895.73 87.4993 1895.73 76.3828 Q1895.73 65.7603 1890.73 58.3493 Q1885.73 50.9383 1878.81 50.9383 Q1873.87 50.9383 1869.54 53.5939 Q1865.22 56.2495 1862.44 61.0667 L1862.44 89.2903 Z" fill="#000000" fill-rule="evenodd" fill-opacity="1" /><path clip-path="url(#clip380)" d="M1914.57 103.68 L1914.57 99.7892 Q1921.3 99.7892 1922.84 98.9864 Q1924.39 98.1217 1924.39 94.0457 L1924.39 28.273 Q1924.39 23.5794 1922.72 22.4059 Q1921.11 21.2325 1914.57 21.2325 L1914.57 17.28 L1932.72 15.9213 L1932.72 59.8933 L1932.85 59.8933 Q1934.88 55.3232 1939.46 51.5559 Q1944.03 47.7886 1951.07 47.7886 Q1960.58 47.7886 1964.34 52.4823 Q1967.12 55.632 1967.68 59.1522 Q1968.3 62.6724 1968.3 71.8127 L1968.3 95.9602 Q1968.42 98.6158 1970.46 99.2334 Q1972.5 99.7892 1978.18 99.7892 L1978.18 103.68 Q1965.27 103.309 1963.97 103.309 Q1962.98 103.309 1949.71 103.68 L1949.71 99.7892 Q1956.44 99.7892 1957.98 98.9864 Q1959.59 98.1217 1959.59 94.0457 L1959.59 64.5869 Q1959.59 58.1641 1957.61 54.3968 Q1955.64 50.5678 1950.2 50.5678 Q1943.65 50.5678 1938.41 56.0643 Q1933.16 61.5608 1933.16 70.8245 L1933.16 94.0457 Q1933.16 98.1217 1934.7 98.9864 Q1936.31 99.7892 1942.98 99.7892 L1942.98 103.68 Q1930.07 103.309 1928.83 103.309 Q1927.84 103.309 1914.57 103.68 Z" fill="#000000" fill-rule="evenodd" fill-opacity="1" /><polyline clip-path="url(#clip382)" style="stroke:#000000; stroke-linecap:butt; stroke-linejoin:round; stroke-width:4; stroke-opacity:1; fill:none" points="
  1441.01,390.101 1430.54,404.085 1420.07,418.055 1409.57,431.999 1399.05,445.902 1388.48,459.752 1377.87,473.535 1367.2,487.237 1356.45,500.846 1345.63,514.347 
  1334.72,527.728 1323.71,540.974 1312.59,554.074 1301.35,567.012 1289.98,579.776 1278.47,592.353 1266.81,604.728 1255,616.889 1243.01,628.822 1230.85,640.514 
  1218.5,651.951 1205.94,663.121 1193.18,674.008 1180.21,684.601 1167,694.886 1153.56,704.849 1139.87,714.492 1125.96,723.826 1111.83,732.865 1097.49,741.623 
  1082.96,750.112 1068.23,758.347 1053.33,766.341 1038.26,774.107 1023.02,781.659 1007.64,789.009 992.123,796.172 976.473,803.16 960.705,809.988 944.827,816.669 
  928.85,823.215 912.784,829.64 896.638,835.959 880.423,842.183 864.148,848.328 847.824,854.405 831.459,860.428 815.065,866.412 798.651,872.368 782.227,878.311 
  
  "/>
<polyline clip-path="url(#clip382)" style="stroke:#000000; stroke-linecap:butt; stroke-linejoin:round; stroke-width:4; stroke-opacity:1; fill:none" points="
  1441.01,390.101 1439.34,407.745 1437.69,425.387 1436.07,443.021 1434.5,460.646 1433,478.259 1431.58,495.855 1430.25,513.433 1429.05,530.988 1427.97,548.517 
  1427.04,566.018 1426.27,583.487 1425.68,600.921 1425.29,618.317 1425.12,635.672 1425.17,652.982 1425.47,670.244 1426.03,687.455 1426.87,704.612 1428,721.712 
  1429.44,738.752 1431.21,755.727 1433.33,772.636 1435.81,789.475 1438.66,806.24 1441.9,822.929 1445.54,839.542 1449.55,856.082 1453.93,872.552 1458.65,888.955 
  1463.69,905.294 1469.05,921.572 1474.7,937.794 1480.63,953.961 1486.82,970.077 1493.26,986.146 1499.92,1002.17 1506.8,1018.15 1513.88,1034.1 1521.14,1050.01 
  1528.55,1065.88 1536.12,1081.73 1543.82,1097.56 1551.63,1113.36 1559.54,1129.14 1567.54,1144.9 1575.6,1160.66 1583.7,1176.4 1591.84,1192.14 1600,1207.87 
  
  "/>
<polyline clip-path="url(#clip382)" style="stroke:#000000; stroke-linecap:butt; stroke-linejoin:round; stroke-width:4; stroke-opacity:1; fill:none" points="
  782.227,878.311 797.046,889.678 811.871,901.03 826.709,912.351 841.565,923.625 856.446,934.837 871.358,945.972 886.308,957.014 901.302,967.948 916.345,978.758 
  931.444,989.429 946.606,999.945 961.836,1010.29 977.142,1020.45 992.528,1030.41 1008,1040.15 1023.57,1049.66 1039.24,1058.92 1055.01,1067.92 1070.89,1076.65 
  1086.9,1085.07 1103.03,1093.19 1119.28,1100.98 1135.68,1108.44 1152.22,1115.53 1168.91,1122.26 1185.75,1128.61 1202.73,1134.61 1219.85,1140.27 1237.1,1145.6 
  1254.48,1150.63 1271.97,1155.36 1289.57,1159.81 1307.29,1164 1325.1,1167.94 1343,1171.65 1360.99,1175.14 1379.07,1178.43 1397.22,1181.54 1415.43,1184.48 
  1433.71,1187.26 1452.05,1189.9 1470.43,1192.42 1488.86,1194.83 1507.33,1197.14 1525.82,1199.38 1544.35,1201.56 1562.89,1203.69 1581.44,1205.79 1600,1207.87 
  
  "/>
<polyline clip-path="url(#clip382)" style="stroke:#000000; stroke-linecap:butt; stroke-linejoin:round; stroke-width:4; stroke-opacity:1; fill:none" points="
  1600,1207.87 1598.33,1225.52 1596.68,1243.16 1595.06,1260.79 1593.5,1278.42 1591.99,1296.03 1590.57,1313.63 1589.25,1331.21 1588.04,1348.76 1586.96,1366.29 
  1586.03,1383.79 1585.26,1401.26 1584.68,1418.69 1584.29,1436.09 1584.11,1453.44 1584.16,1470.75 1584.46,1488.02 1585.02,1505.23 1585.86,1522.38 1586.99,1539.48 
  1588.43,1556.52 1590.21,1573.5 1592.32,1590.41 1594.8,1607.25 1597.65,1624.01 1600.89,1640.7 1604.53,1657.31 1608.54,1673.85 1612.92,1690.32 1617.64,1706.73 
  1622.68,1723.07 1628.04,1739.35 1633.69,1755.57 1639.62,1771.73 1645.81,1787.85 1652.25,1803.92 1658.91,1819.94 1665.79,1835.93 1672.87,1851.87 1680.13,1867.78 
  1687.55,1883.66 1695.11,1899.51 1702.81,1915.33 1710.62,1931.13 1718.53,1946.91 1726.53,1962.68 1734.59,1978.43 1742.69,1994.18 1750.83,2009.91 1758.99,2025.65 
  
  "/>
<polyline clip-path="url(#clip382)" style="stroke:#000000; stroke-linecap:butt; stroke-linejoin:round; stroke-width:4; stroke-opacity:1; fill:none" points="
  1600,1207.87 1614.82,1219.24 1629.64,1230.59 1644.48,1241.91 1659.34,1253.19 1674.22,1264.4 1689.13,1275.53 1704.08,1286.58 1719.07,1297.51 1734.12,1308.32 
  1749.22,1318.99 1764.38,1329.51 1779.61,1339.85 1794.91,1350.01 1810.3,1359.97 1825.77,1369.71 1841.34,1379.23 1857.01,1388.49 1872.78,1397.49 1888.67,1406.21 
  1904.67,1414.64 1920.8,1422.75 1937.06,1430.55 1953.45,1438 1969.99,1445.1 1986.68,1451.82 2003.52,1458.18 2020.5,1464.18 2037.62,1469.83 2054.87,1475.17 
  2072.25,1480.19 2089.74,1484.92 2107.35,1489.38 2125.06,1493.56 2142.87,1497.51 2160.77,1501.21 2178.77,1504.71 2196.84,1508 2214.99,1511.1 2233.2,1514.04 
  2251.48,1516.82 2269.82,1519.46 2288.2,1521.98 2306.63,1524.39 2325.1,1526.71 2343.6,1528.95 2362.12,1531.12 2380.66,1533.25 2399.21,1535.35 2417.77,1537.44 
  
  "/>
<polyline clip-path="url(#clip382)" style="stroke:#000000; stroke-linecap:butt; stroke-linejoin:round; stroke-width:4; stroke-opacity:1; fill:none" points="
  1758.99,2025.65 1775.41,2019.7 1791.83,2013.75 1808.22,2007.76 1824.59,2001.74 1840.91,1995.66 1857.19,1989.52 1873.4,1983.29 1889.55,1976.98 1905.61,1970.55 
  1921.59,1964 1937.47,1957.32 1953.24,1950.5 1968.89,1943.51 1984.41,1936.35 1999.79,1928.99 2015.02,1921.44 2030.09,1913.68 2045,1905.68 2059.72,1897.45 
  2074.26,1888.96 2088.6,1880.2 2102.73,1871.16 2116.64,1861.83 2130.32,1852.19 2143.76,1842.22 2156.97,1831.94 2169.95,1821.34 2182.71,1810.46 2195.26,1799.29 
  2207.61,1787.85 2219.78,1776.16 2231.76,1764.23 2243.58,1752.06 2255.23,1739.69 2266.74,1727.11 2278.11,1714.35 2289.35,1701.41 2300.47,1688.31 2311.48,1675.06 
  2322.39,1661.68 2333.22,1648.18 2343.96,1634.57 2354.63,1620.87 2365.25,1607.09 2375.81,1593.24 2386.34,1579.34 2396.83,1565.39 2407.31,1551.42 2417.77,1537.44 
  
  "/>
<path clip-path="url(#clip382)" d="
M1584.53 390.101 L1512.77 265.808 L1369.25 265.808 L1297.49 390.101 L1369.25 514.395 L1512.77 514.395 L1584.53 390.101 L1584.53 390.101  Z
  " fill="#f5fffa" fill-rule="evenodd" fill-opacity="1"/>
<polyline clip-path="url(#clip382)" style="stroke:#000000; stroke-linecap:butt; stroke-linejoin:round; stroke-width:4; stroke-opacity:1; fill:none" points="
  1584.53,390.101 1512.77,265.808 1369.25,265.808 1297.49,390.101 1369.25,514.395 1512.77,514.395 1584.53,390.101 
  "/>
<path clip-path="url(#clip382)" d="
M925.749 878.311 L853.988 754.018 L710.466 754.018 L638.706 878.311 L710.466 1002.6 L853.988 1002.6 L925.749 878.311 L925.749 878.311  Z
  " fill="#f5fffa" fill-rule="evenodd" fill-opacity="1"/>
<polyline clip-path="url(#clip382)" style="stroke:#000000; stroke-linecap:butt; stroke-linejoin:round; stroke-width:4; stroke-opacity:1; fill:none" points="
  925.749,878.311 853.988,754.018 710.466,754.018 638.706,878.311 710.466,1002.6 853.988,1002.6 925.749,878.311 
  "/>
<path clip-path="url(#clip382)" d="
M1743.52 1207.87 L1671.76 1083.58 L1528.24 1083.58 L1456.48 1207.87 L1528.24 1332.17 L1671.76 1332.17 L1743.52 1207.87 L1743.52 1207.87  Z
  " fill="#f5fffa" fill-rule="evenodd" fill-opacity="1"/>
<polyline clip-path="url(#clip382)" style="stroke:#000000; stroke-linecap:butt; stroke-linejoin:round; stroke-width:4; stroke-opacity:1; fill:none" points="
  1743.52,1207.87 1671.76,1083.58 1528.24,1083.58 1456.48,1207.87 1528.24,1332.17 1671.76,1332.17 1743.52,1207.87 
  "/>
<path clip-path="url(#clip382)" d="
M1902.51 2025.65 L1830.75 1901.35 L1687.23 1901.35 L1615.47 2025.65 L1687.23 2149.94 L1830.75 2149.94 L1902.51 2025.65 L1902.51 2025.65  Z
  " fill="#f5fffa" fill-rule="evenodd" fill-opacity="1"/>
<polyline clip-path="url(#clip382)" style="stroke:#000000; stroke-linecap:butt; stroke-linejoin:round; stroke-width:4; stroke-opacity:1; fill:none" points="
  1902.51,2025.65 1830.75,1901.35 1687.23,1901.35 1615.47,2025.65 1687.23,2149.94 1830.75,2149.94 1902.51,2025.65 
  "/>
<path clip-path="url(#clip382)" d="
M2561.29 1537.44 L2489.53 1413.14 L2346.01 1413.14 L2274.25 1537.44 L2346.01 1661.73 L2489.53 1661.73 L2561.29 1537.44 L2561.29 1537.44  Z
  " fill="#f5fffa" fill-rule="evenodd" fill-opacity="1"/>
<polyline clip-path="url(#clip382)" style="stroke:#000000; stroke-linecap:butt; stroke-linejoin:round; stroke-width:4; stroke-opacity:1; fill:none" points="
  2561.29,1537.44 2489.53,1413.14 2346.01,1413.14 2274.25,1537.44 2346.01,1661.73 2489.53,1661.73 2561.29,1537.44 
  "/>
<circle clip-path="url(#clip382)" style="fill:#f5fffa; stroke:none; fill-opacity:1" cx="1441.01" cy="390.101" r="2"/>
<circle clip-path="url(#clip382)" style="fill:#f5fffa; stroke:none; fill-opacity:1" cx="782.227" cy="878.311" r="2"/>
<circle clip-path="url(#clip382)" style="fill:#f5fffa; stroke:none; fill-opacity:1" cx="1600" cy="1207.87" r="2"/>
<circle clip-path="url(#clip382)" style="fill:#f5fffa; stroke:none; fill-opacity:1" cx="1758.99" cy="2025.65" r="2"/>
<circle clip-path="url(#clip382)" style="fill:#f5fffa; stroke:none; fill-opacity:1" cx="2417.77" cy="1537.44" r="2"/>
<path clip-path="url(#clip380)" d="M1428.35 377.675 Q1425.19 377.675 1423.59 380.794 Q1422.01 383.893 1422.01 390.132 Q1422.01 396.35 1423.59 399.469 Q1425.19 402.568 1428.35 402.568 Q1431.53 402.568 1433.11 399.469 Q1434.71 396.35 1434.71 390.132 Q1434.71 383.893 1433.11 380.794 Q1431.53 377.675 1428.35 377.675 M1428.35 374.434 Q1433.43 374.434 1436.11 378.465 Q1438.8 382.475 1438.8 390.132 Q1438.8 397.768 1436.11 401.798 Q1433.43 405.809 1428.35 405.809 Q1423.27 405.809 1420.57 401.798 Q1417.9 397.768 1417.9 390.132 Q1417.9 382.475 1420.57 378.465 Q1423.27 374.434 1428.35 374.434 Z" fill="#000000" fill-rule="evenodd" fill-opacity="1" /><path clip-path="url(#clip380)" d="M1446.7 401.778 L1453.38 401.778 L1453.38 378.708 L1446.11 380.166 L1446.11 376.44 L1453.34 374.981 L1457.43 374.981 L1457.43 401.778 L1464.12 401.778 L1464.12 405.221 L1446.7 405.221 L1446.7 401.778 Z" fill="#000000" fill-rule="evenodd" fill-opacity="1" /><path clip-path="url(#clip380)" d="M769.73 865.885 Q766.57 865.885 764.97 869.004 Q763.391 872.103 763.391 878.342 Q763.391 884.56 764.97 887.679 Q766.57 890.778 769.73 890.778 Q772.91 890.778 774.49 887.679 Q776.09 884.56 776.09 878.342 Q776.09 872.103 774.49 869.004 Q772.91 865.885 769.73 865.885 M769.73 862.644 Q774.814 862.644 777.488 866.675 Q780.182 870.685 780.182 878.342 Q780.182 885.978 777.488 890.008 Q774.814 894.019 769.73 894.019 Q764.646 894.019 761.952 890.008 Q759.279 885.978 759.279 878.342 Q759.279 870.685 761.952 866.675 Q764.646 862.644 769.73 862.644 Z" fill="#000000" fill-rule="evenodd" fill-opacity="1" /><path clip-path="url(#clip380)" d="M790.896 889.988 L805.176 889.988 L805.176 893.431 L785.974 893.431 L785.974 889.988 Q788.304 887.578 792.314 883.527 Q796.345 879.456 797.378 878.281 Q799.342 876.073 800.112 874.554 Q800.902 873.015 800.902 871.536 Q800.902 869.126 799.201 867.607 Q797.519 866.088 794.805 866.088 Q792.881 866.088 790.734 866.756 Q788.607 867.425 786.177 868.782 L786.177 864.65 Q788.648 863.657 790.795 863.151 Q792.942 862.644 794.724 862.644 Q799.423 862.644 802.218 864.994 Q805.014 867.343 805.014 871.273 Q805.014 873.136 804.305 874.817 Q803.616 876.478 801.773 878.747 Q801.266 879.334 798.552 882.15 Q795.838 884.945 790.896 889.988 Z" fill="#000000" fill-rule="evenodd" fill-opacity="1" /><path clip-path="url(#clip380)" d="M1587.09 1195.45 Q1583.93 1195.45 1582.33 1198.57 Q1580.75 1201.67 1580.75 1207.9 Q1580.75 1214.12 1582.33 1217.24 Q1583.93 1220.34 1587.09 1220.34 Q1590.27 1220.34 1591.85 1217.24 Q1593.45 1214.12 1593.45 1207.9 Q1593.45 1201.67 1591.85 1198.57 Q1590.27 1195.45 1587.09 1195.45 M1587.09 1192.21 Q1592.17 1192.21 1594.85 1196.24 Q1597.54 1200.25 1597.54 1207.9 Q1597.54 1215.54 1594.85 1219.57 Q1592.17 1223.58 1587.09 1223.58 Q1582 1223.58 1579.31 1219.57 Q1576.64 1215.54 1576.64 1207.9 Q1576.64 1200.25 1579.31 1196.24 Q1582 1192.21 1587.09 1192.21 Z" fill="#000000" fill-rule="evenodd" fill-opacity="1" /><path clip-path="url(#clip380)" d="M1617.13 1206.69 Q1620.06 1207.32 1621.7 1209.3 Q1623.36 1211.29 1623.36 1214.2 Q1623.36 1218.68 1620.29 1221.13 Q1617.21 1223.58 1611.54 1223.58 Q1609.63 1223.58 1607.61 1223.2 Q1605.6 1222.83 1603.45 1222.08 L1603.45 1218.13 Q1605.16 1219.13 1607.18 1219.63 Q1609.21 1220.14 1611.41 1220.14 Q1615.26 1220.14 1617.27 1218.62 Q1619.29 1217.1 1619.29 1214.2 Q1619.29 1211.53 1617.41 1210.03 Q1615.55 1208.51 1612.2 1208.51 L1608.68 1208.51 L1608.68 1205.15 L1612.37 1205.15 Q1615.38 1205.15 1616.98 1203.95 Q1618.58 1202.74 1618.58 1200.47 Q1618.58 1198.14 1616.92 1196.91 Q1615.28 1195.65 1612.2 1195.65 Q1610.52 1195.65 1608.6 1196.01 Q1606.67 1196.38 1604.37 1197.15 L1604.37 1193.5 Q1606.69 1192.85 1608.72 1192.53 Q1610.77 1192.21 1612.57 1192.21 Q1617.23 1192.21 1619.94 1194.33 Q1622.66 1196.44 1622.66 1200.05 Q1622.66 1202.56 1621.22 1204.3 Q1619.78 1206.02 1617.13 1206.69 Z" fill="#000000" fill-rule="evenodd" fill-opacity="1" /><path clip-path="url(#clip380)" d="M1745.58 2013.22 Q1742.42 2013.22 1740.82 2016.34 Q1739.24 2019.44 1739.24 2025.68 Q1739.24 2031.9 1740.82 2035.01 Q1742.42 2038.11 1745.58 2038.11 Q1748.76 2038.11 1750.34 2035.01 Q1751.94 2031.9 1751.94 2025.68 Q1751.94 2019.44 1750.34 2016.34 Q1748.76 2013.22 1745.58 2013.22 M1745.58 2009.98 Q1750.67 2009.98 1753.34 2014.01 Q1756.03 2018.02 1756.03 2025.68 Q1756.03 2033.31 1753.34 2037.34 Q1750.67 2041.35 1745.58 2041.35 Q1740.5 2041.35 1737.8 2037.34 Q1735.13 2033.31 1735.13 2025.68 Q1735.13 2018.02 1737.8 2014.01 Q1740.5 2009.98 1745.58 2009.98 Z" fill="#000000" fill-rule="evenodd" fill-opacity="1" /><path clip-path="url(#clip380)" d="M1774.46 2014.09 L1764.14 2030.23 L1774.46 2030.23 L1774.46 2014.09 M1773.39 2010.53 L1778.54 2010.53 L1778.54 2030.23 L1782.85 2030.23 L1782.85 2033.64 L1778.54 2033.64 L1778.54 2040.77 L1774.46 2040.77 L1774.46 2033.64 L1760.81 2033.64 L1760.81 2029.69 L1773.39 2010.53 Z" fill="#000000" fill-rule="evenodd" fill-opacity="1" /><path clip-path="url(#clip380)" d="M2405.01 1525.01 Q2401.85 1525.01 2400.25 1528.13 Q2398.67 1531.23 2398.67 1537.47 Q2398.67 1543.69 2400.25 1546.81 Q2401.85 1549.9 2405.01 1549.9 Q2408.19 1549.9 2409.77 1546.81 Q2411.37 1543.69 2411.37 1537.47 Q2411.37 1531.23 2409.77 1528.13 Q2408.19 1525.01 2405.01 1525.01 M2405.01 1521.77 Q2410.1 1521.77 2412.77 1525.8 Q2415.46 1529.81 2415.46 1537.47 Q2415.46 1545.1 2412.77 1549.14 Q2410.1 1553.15 2405.01 1553.15 Q2399.93 1553.15 2397.23 1549.14 Q2394.56 1545.1 2394.56 1537.47 Q2394.56 1529.81 2397.23 1525.8 Q2399.93 1521.77 2405.01 1521.77 Z" fill="#000000" fill-rule="evenodd" fill-opacity="1" /><path clip-path="url(#clip380)" d="M2422.69 1522.32 L2438.76 1522.32 L2438.76 1525.76 L2426.44 1525.76 L2426.44 1533.17 Q2427.33 1532.87 2428.22 1532.73 Q2429.12 1532.57 2430.01 1532.57 Q2435.07 1532.57 2438.03 1535.34 Q2440.98 1538.12 2440.98 1542.86 Q2440.98 1547.74 2437.95 1550.45 Q2434.91 1553.15 2429.38 1553.15 Q2427.47 1553.15 2425.49 1552.82 Q2423.53 1552.5 2421.42 1551.85 L2421.42 1547.74 Q2423.24 1548.73 2425.19 1549.22 Q2427.13 1549.7 2429.3 1549.7 Q2432.8 1549.7 2434.85 1547.86 Q2436.89 1546.02 2436.89 1542.86 Q2436.89 1539.7 2434.85 1537.85 Q2432.8 1536.01 2429.3 1536.01 Q2427.66 1536.01 2426.02 1536.37 Q2424.4 1536.74 2422.69 1537.51 L2422.69 1522.32 Z" fill="#000000" fill-rule="evenodd" fill-opacity="1" /></svg>
