<?xml version="1.0" encoding="utf-8"?>
<svg xmlns="http://www.w3.org/2000/svg" xmlns:xlink="http://www.w3.org/1999/xlink" width="800" height="600" viewBox="0 0 3200 2400">
<defs>
  <clipPath id="clip840">
    <rect x="0" y="0" width="3200" height="2400"/>
  </clipPath>
</defs>
<path clip-path="url(#clip840)" d="M0 2400 L3200 2400 L3200 0 L0 0  Z" fill="#ffffff" fill-rule="evenodd" fill-opacity="1"/>
<defs>
  <clipPath id="clip841">
    <rect x="640" y="0" width="2241" height="2241"/>
  </clipPath>
</defs>
<path clip-path="url(#clip840)" d="M455.118 2352.76 L2744.88 2352.76 L2744.88 62.9921 L455.118 62.9921  Z" fill="#ffffff" fill-rule="evenodd" fill-opacity="1"/>
<defs>
  <clipPath id="clip842">
    <rect x="455" y="62" width="2291" height="2291"/>
  </clipPath>
</defs>
<path clip-path="url(#clip840)" d="M1221.82 103.433 L1221.82 78.112 Q1221.82 76.6916 1221.88 76.1975 Q1221.95 75.7034 1222.32 75.3329 Q1222.69 74.9623 1223.43 74.9623 Q1224.85 74.9623 1224.97 76.2593 Q1225.34 88.7962 1232.82 95.7132 Q1240.16 102.568 1252.76 102.568 Q1260.36 102.568 1265.05 97.1336 Q1269.75 91.6371 1269.75 84.4731 Q1269.75 77.618 1265.79 72.8008 Q1264.13 70.6393 1262.03 69.2806 Q1259.99 67.8601 1258.69 67.4278 Q1257.46 66.9955 1255.05 66.3779 Q1239.36 62.6107 1238.37 62.1784 Q1230.9 59.6463 1226.33 53.2851 Q1221.82 46.8623 1221.82 39.019 Q1221.82 28.8906 1228.92 21.7266 Q1236.09 14.5009 1246.46 14.5009 Q1251.65 14.5009 1255.97 16.1683 Q1260.36 17.7741 1262.15 19.2563 Q1263.94 20.7385 1266.72 23.3941 L1271.11 16.1683 Q1272.09 14.5009 1273.02 14.5009 Q1274.01 14.5009 1274.19 15.1185 Q1274.44 15.6743 1274.44 17.527 L1274.44 42.9715 Q1274.44 44.3919 1274.38 44.886 Q1274.32 45.3801 1273.88 45.6889 Q1273.51 45.9977 1272.77 45.9977 Q1271.54 45.9977 1271.23 44.5155 Q1267.71 18.0829 1246.59 18.0829 Q1239.36 18.0829 1234.61 22.9618 Q1229.91 27.7789 1229.91 34.6341 Q1229.91 40.1924 1233.37 44.7625 Q1236.83 49.2709 1242.7 50.6913 L1258.88 54.5821 Q1266.97 56.4966 1272.4 63.6606 Q1277.84 70.8245 1277.84 80.1501 Q1277.84 90.896 1270.8 98.6776 Q1263.82 106.459 1252.89 106.459 Q1245.04 106.459 1238.99 103.865 Q1232.94 101.271 1229.67 97.6277 Q1227.13 101.827 1225.47 104.174 L1225.1 104.792 Q1224.11 106.459 1223.18 106.459 Q1222.19 106.459 1222.01 105.842 Q1221.82 105.224 1221.82 103.433 Z" fill="#000000" fill-rule="nonzero" fill-opacity="1" /><path clip-path="url(#clip840)" d="M1289.08 103.68 L1289.08 99.7892 Q1295.81 99.7892 1297.35 98.9864 Q1298.9 98.1217 1298.9 94.0457 L1298.9 60.0168 Q1298.9 55.3232 1297.29 54.2115 Q1295.75 53.0999 1289.57 53.0999 L1289.57 49.1473 L1307.23 47.7886 L1307.23 94.1692 Q1307.23 97.9365 1308.59 98.8628 Q1309.95 99.7892 1316.13 99.7892 L1316.13 103.68 Q1303.22 103.309 1302.97 103.309 Q1301.24 103.309 1289.08 103.68 M1294.39 25.7409 Q1294.39 23.2088 1296.3 21.1708 Q1298.28 19.071 1301.06 19.071 Q1303.84 19.071 1305.81 20.9855 Q1307.79 22.8383 1307.79 25.8027 Q1307.79 28.7053 1305.81 30.6198 Q1303.84 32.4726 1301.06 32.4726 Q1298.16 32.4726 1296.24 30.4345 Q1294.39 28.3965 1294.39 25.7409 Z" fill="#000000" fill-rule="nonzero" fill-opacity="1" /><path clip-path="url(#clip840)" d="M1323.97 103.68 L1323.97 99.7892 Q1330.7 99.7892 1332.25 98.9864 Q1333.79 98.1217 1333.79 94.0457 L1333.79 60.1403 Q1333.79 55.4467 1332.12 54.2733 Q1330.52 53.0999 1323.97 53.0999 L1323.97 49.1473 L1341.76 47.7886 L1341.76 61.0667 Q1347.69 47.7886 1360.47 47.7886 Q1375.29 47.7886 1377.33 60.1403 Q1379.49 55.3232 1384 51.5559 Q1388.57 47.7886 1395.67 47.7886 Q1405.18 47.7886 1408.95 52.4823 Q1411.73 55.632 1412.29 59.1522 Q1412.84 62.6724 1412.84 71.8127 L1412.84 95.9602 Q1412.96 98.6158 1415 99.2334 Q1417.04 99.7892 1422.72 99.7892 L1422.72 103.68 Q1409.82 103.309 1408.58 103.309 Q1407.59 103.309 1394.25 103.68 L1394.25 99.7892 Q1400.98 99.7892 1402.53 98.9864 Q1404.13 98.1217 1404.13 94.0457 L1404.13 64.5869 Q1404.13 58.1641 1402.16 54.3968 Q1400.18 50.5678 1394.75 50.5678 Q1388.2 50.5678 1382.95 56.0643 Q1377.7 61.5608 1377.7 70.8245 L1377.7 94.0457 Q1377.7 98.1217 1379.24 98.9864 Q1380.85 99.7892 1387.58 99.7892 L1387.58 103.68 Q1374.67 103.309 1373.38 103.309 Q1372.39 103.309 1359.11 103.68 L1359.11 99.7892 Q1365.84 99.7892 1367.39 98.9864 Q1368.99 98.1217 1368.99 94.0457 L1368.99 64.5869 Q1368.99 58.1641 1367.02 54.3968 Q1365.04 50.5678 1359.61 50.5678 Q1353.06 50.5678 1347.81 56.0643 Q1342.56 61.5608 1342.56 70.8245 L1342.56 94.0457 Q1342.56 98.1217 1344.1 98.9864 Q1345.71 99.7892 1352.38 99.7892 L1352.38 103.68 Q1339.47 103.309 1338.24 103.309 Q1337.25 103.309 1323.97 103.68 Z" fill="#000000" fill-rule="nonzero" fill-opacity="1" /><path clip-path="url(#clip840)" d="M1428.71 124.307 Q1435.44 124.307 1436.99 123.443 Q1438.59 122.64 1438.59 118.626 L1438.59 59.3992 Q1438.59 55.1997 1436.99 54.1498 Q1435.44 53.0999 1428.71 53.0999 L1428.71 49.1473 L1446.93 47.7886 L1446.93 56.126 Q1454.53 47.7886 1464.66 47.7886 Q1475.4 47.7886 1483.25 56.126 Q1491.09 64.4634 1491.09 76.3828 Q1491.09 88.4257 1482.75 96.7631 Q1474.41 105.1 1462.87 105.1 Q1456.57 105.1 1452.3 101.889 Q1448.11 98.6158 1447.3 96.2072 L1447.3 97.3806 L1447.3 118.626 Q1447.3 122.702 1448.91 123.504 Q1450.51 124.307 1457.18 124.307 L1457.18 128.198 Q1443.91 127.828 1442.92 127.828 Q1441.68 127.828 1428.71 128.198 L1428.71 124.307 M1447.3 89.2903 Q1447.3 91.2048 1447.55 91.8841 Q1447.86 92.5635 1449.09 94.6015 Q1454.1 102.26 1462.25 102.26 Q1462.31 102.26 1462.37 102.26 Q1469.6 102.26 1475.09 94.9103 Q1480.59 87.4993 1480.59 76.3828 Q1480.59 65.7603 1475.59 58.3493 Q1470.59 50.9383 1463.67 50.9383 Q1458.73 50.9383 1454.4 53.5939 Q1450.08 56.2495 1447.3 61.0667 L1447.3 89.2903 Z" fill="#000000" fill-rule="nonzero" fill-opacity="1" /><path clip-path="url(#clip840)" d="M1499.55 103.68 L1499.55 99.7892 Q1506.28 99.7892 1507.83 98.9864 Q1509.37 98.1217 1509.37 94.0457 L1509.37 28.273 Q1509.37 23.5794 1507.7 22.4059 Q1506.1 21.2325 1499.55 21.2325 L1499.55 17.28 L1517.71 15.9213 L1517.71 94.0457 Q1517.71 98.1217 1519.31 98.9864 Q1520.92 99.7892 1527.59 99.7892 L1527.59 103.68 Q1526.04 103.68 1522.83 103.556 Q1519.62 103.433 1517.27 103.371 Q1514.93 103.309 1513.57 103.309 Q1512.09 103.309 1499.55 103.68 Z" fill="#000000" fill-rule="nonzero" fill-opacity="1" /><path clip-path="url(#clip840)" d="M1533.89 75.827 Q1533.89 63.9076 1541.55 55.4467 Q1549.2 46.9858 1560.2 46.9858 Q1571.31 46.9858 1577.06 54.2115 Q1582.86 61.4373 1582.86 71.8127 Q1582.86 73.7272 1582.37 74.0977 Q1581.87 74.4683 1579.71 74.4683 L1544.39 74.4683 Q1544.39 87.3758 1548.22 93.4281 Q1553.53 101.889 1562.48 101.889 Q1563.72 101.889 1565.2 101.642 Q1566.68 101.395 1569.71 100.345 Q1572.73 99.2334 1575.39 96.3308 Q1578.04 93.4281 1579.59 88.858 Q1579.96 87.067 1581.19 87.1287 Q1582.86 87.1287 1582.86 88.611 Q1582.86 89.7226 1581.63 92.2547 Q1580.45 94.725 1578.17 97.6894 Q1575.88 100.654 1571.44 102.877 Q1567.05 105.1 1561.74 105.1 Q1550.62 105.1 1542.23 96.7013 Q1533.89 88.2404 1533.89 75.827 M1544.51 71.8127 L1574.52 71.8127 Q1574.52 69.1571 1574.03 66.1927 Q1573.6 63.2282 1572.24 59.1522 Q1570.94 55.0144 1567.85 52.4205 Q1564.77 49.8267 1560.2 49.8267 Q1558.16 49.8267 1555.94 50.6913 Q1553.77 51.5559 1551.12 53.6557 Q1548.46 55.7555 1546.61 60.5109 Q1544.76 65.2663 1544.51 71.8127 Z" fill="#000000" fill-rule="nonzero" fill-opacity="1" /><path clip-path="url(#clip840)" d="M1648.63 93.0576 Q1635.67 79.656 1635.67 60.4491 Q1635.67 41.1805 1648.76 27.8407 Q1661.85 14.5009 1679.64 14.5009 Q1684.08 14.5009 1687.85 15.5508 Q1691.68 16.5389 1694.71 18.5769 Q1697.73 20.5532 1699.28 21.9119 Q1700.88 23.2088 1703.04 25.3704 L1709.41 16.0448 Q1710.39 14.5009 1711.38 14.5009 Q1712.43 14.5009 1712.62 15.1185 Q1712.8 15.6743 1712.8 17.527 L1712.8 47.5416 Q1712.8 49.5796 1712.55 50.0737 Q1712.31 50.5678 1710.76 50.5678 Q1709.53 50.5678 1709.28 50.1972 Q1709.03 49.8267 1708.73 48.4062 Q1706.81 34.7576 1699.15 26.6055 Q1691.56 18.4534 1681.18 18.4534 Q1678.16 18.4534 1674.76 19.1328 Q1671.42 19.8121 1666.48 22.4059 Q1661.6 24.9998 1657.84 29.2611 Q1654.13 33.4607 1651.41 41.6128 Q1648.7 49.7032 1648.7 60.4491 Q1648.7 71.0716 1651.41 79.2237 Q1654.13 87.3758 1657.9 91.6371 Q1661.73 95.8367 1666.67 98.4923 Q1671.67 101.148 1675.19 101.889 Q1678.77 102.568 1681.92 102.568 Q1684.08 102.568 1686.62 102.136 Q1689.15 101.642 1692.92 100.283 Q1696.74 98.8628 1699.15 95.5279 Q1701.56 92.1929 1701.56 87.2523 L1701.56 79.1619 Q1701.56 75.3947 1699.71 74.2212 Q1697.86 73.0478 1689.77 73.0478 L1685.75 73.0478 L1685.75 69.1571 Q1690.32 69.5276 1706.07 69.5276 Q1707.49 69.5276 1721.51 69.1571 L1721.51 73.0478 Q1715.46 73.0478 1714.1 73.9742 Q1712.8 74.8388 1712.8 78.6061 L1712.8 100.654 Q1712.8 103.556 1711.69 103.556 Q1710.7 103.556 1707.74 100.716 Q1704.83 97.8747 1703.54 95.7132 Q1700.51 101.024 1693.9 103.742 Q1687.36 106.459 1679.88 106.459 Q1661.67 106.459 1648.63 93.0576 Z" fill="#000000" fill-rule="nonzero" fill-opacity="1" /><path clip-path="url(#clip840)" d="M1731.21 103.68 L1731.21 99.7892 Q1737.94 99.7892 1739.48 98.9864 Q1741.09 98.1217 1741.09 94.0457 L1741.09 60.1403 Q1741.09 55.4467 1739.42 54.2733 Q1737.81 53.0999 1731.21 53.0999 L1731.21 49.1473 L1748.81 47.7886 L1748.81 61.6843 Q1750.6 56.2495 1754.37 52.05 Q1758.19 47.7886 1764.37 47.7886 Q1768.45 47.7886 1771.04 50.0737 Q1773.7 52.3588 1773.7 55.5084 Q1773.7 58.2876 1771.97 59.708 Q1770.3 61.0667 1768.26 61.0667 Q1765.98 61.0667 1764.37 59.6463 Q1762.83 58.1641 1762.83 55.632 Q1762.83 54.088 1763.51 52.9146 Q1764.25 51.6794 1764.8 51.2471 Q1765.36 50.8148 1765.73 50.6913 Q1765.48 50.5678 1764.37 50.5678 Q1757.39 50.5678 1753.38 57.5465 Q1749.42 64.4634 1749.42 74.3448 L1749.42 93.7987 Q1749.42 97.4424 1750.91 98.6158 Q1752.45 99.7892 1759.06 99.7892 L1761.71 99.7892 L1761.71 103.68 Q1756.65 103.309 1745.66 103.309 Q1744.11 103.309 1741.7 103.371 Q1739.3 103.433 1736.15 103.556 Q1733 103.68 1731.21 103.68 Z" fill="#000000" fill-rule="nonzero" fill-opacity="1" /><path clip-path="url(#clip840)" d="M1782.4 91.6371 Q1782.4 80.8912 1795.06 75.2094 Q1802.66 71.5656 1818.35 70.6393 L1818.35 66.0074 Q1818.35 58.1641 1814.21 54.0262 Q1810.13 49.8267 1804.95 49.8267 Q1795.68 49.8267 1791.23 55.632 Q1795 55.7555 1796.36 57.67 Q1797.72 59.5227 1797.72 61.4373 Q1797.72 63.9693 1796.11 65.6368 Q1794.57 67.2425 1791.91 67.2425 Q1789.38 67.2425 1787.71 65.6986 Q1786.05 64.0929 1786.05 61.3137 Q1786.05 55.1379 1791.61 51.0618 Q1797.23 46.9858 1805.19 46.9858 Q1815.57 46.9858 1822.48 53.9645 Q1824.65 56.126 1825.7 58.9052 Q1826.81 61.6843 1826.93 63.537 Q1827.05 65.328 1827.05 68.91 L1827.05 94.1692 Q1827.05 94.9103 1827.3 96.1455 Q1827.55 97.3806 1828.66 98.9864 Q1829.83 100.53 1831.75 100.53 Q1836.32 100.53 1836.26 92.44 L1836.26 85.3378 L1839.47 85.3378 L1839.47 92.44 Q1839.47 99.1716 1835.89 101.827 Q1832.37 104.421 1829.09 104.421 Q1824.89 104.421 1822.24 101.333 Q1819.58 98.2453 1819.21 94.0457 Q1817.3 98.8628 1812.91 102.013 Q1808.59 105.1 1802.66 105.1 Q1798.09 105.1 1793.77 103.927 Q1789.51 102.815 1785.92 99.6657 Q1782.4 96.4543 1782.4 91.6371 M1792.16 91.5136 Q1792.16 96.2072 1795.5 99.2334 Q1798.83 102.26 1803.52 102.26 Q1808.84 102.26 1813.59 98.1835 Q1818.35 94.0457 1818.35 85.9553 L1818.35 73.2949 Q1804.33 73.7889 1798.21 79.4089 Q1792.16 84.9672 1792.16 91.5136 Z" fill="#000000" fill-rule="nonzero" fill-opacity="1" /><path clip-path="url(#clip840)" d="M1843.85 124.307 Q1850.58 124.307 1852.13 123.443 Q1853.73 122.64 1853.73 118.626 L1853.73 59.3992 Q1853.73 55.1997 1852.13 54.1498 Q1850.58 53.0999 1843.85 53.0999 L1843.85 49.1473 L1862.07 47.7886 L1862.07 56.126 Q1869.67 47.7886 1879.8 47.7886 Q1890.54 47.7886 1898.39 56.126 Q1906.23 64.4634 1906.23 76.3828 Q1906.23 88.4257 1897.89 96.7631 Q1889.55 105.1 1878.01 105.1 Q1871.71 105.1 1867.44 101.889 Q1863.25 98.6158 1862.44 96.2072 L1862.44 97.3806 L1862.44 118.626 Q1862.44 122.702 1864.05 123.504 Q1865.65 124.307 1872.32 124.307 L1872.32 128.198 Q1859.05 127.828 1858.06 127.828 Q1856.82 127.828 1843.85 128.198 L1843.85 124.307 M1862.44 89.2903 Q1862.44 91.2048 1862.69 91.8841 Q1863 92.5635 1864.23 94.6015 Q1869.24 102.26 1877.39 102.26 Q1877.45 102.26 1877.51 102.26 Q1884.74 102.26 1890.23 94.9103 Q1895.73 87.4993 1895.73 76.3828 Q1895.73 65.7603 1890.73 58.3493 Q1885.73 50.9383 1878.81 50.9383 Q1873.87 50.9383 1869.54 53.5939 Q1865.22 56.2495 1862.44 61.0667 L1862.44 89.2903 Z" fill="#000000" fill-rule="nonzero" fill-opacity="1" /><path clip-path="url(#clip840)" d="M1914.57 103.68 L1914.57 99.7892 Q1921.3 99.7892 1922.84 98.9864 Q1924.39 98.1217 1924.39 94.0457 L1924.39 28.273 Q1924.39 23.5794 1922.72 22.4059 Q1921.11 21.2325 1914.57 21.2325 L1914.57 17.28 L1932.72 15.9213 L1932.72 59.8933 L1932.85 59.8933 Q1934.88 55.3232 1939.46 51.5559 Q1944.03 47.7886 1951.07 47.7886 Q1960.58 47.7886 1964.34 52.4823 Q1967.12 55.632 1967.68 59.1522 Q1968.3 62.6724 1968.3 71.8127 L1968.3 95.9602 Q1968.42 98.6158 1970.46 99.2334 Q1972.5 99.7892 1978.18 99.7892 L1978.18 103.68 Q1965.27 103.309 1963.97 103.309 Q1962.98 103.309 1949.71 103.68 L1949.71 99.7892 Q1956.44 99.7892 1957.98 98.9864 Q1959.59 98.1217 1959.59 94.0457 L1959.59 64.5869 Q1959.59 58.1641 1957.61 54.3968 Q1955.64 50.5678 1950.2 50.5678 Q1943.65 50.5678 1938.41 56.0643 Q1933.16 61.5608 1933.16 70.8245 L1933.16 94.0457 Q1933.16 98.1217 1934.7 98.9864 Q1936.31 99.7892 1942.98 99.7892 L1942.98 103.68 Q1930.07 103.309 1928.83 103.309 Q1927.84 103.309 1914.57 103.68 Z" fill="#000000" fill-rule="nonzero" fill-opacity="1" /><polyline clip-path="url(#clip842)" style="stroke:#000000; stroke-linecap:round; stroke-linejoin:round; stroke-width:4; stroke-opacity:1; fill:none" points="1687.7,2025.65 1705.14,2021.2 1722.57,2016.74 1739.98,2012.24 1757.36,2007.71 1774.71,2003.12 1792.02,1998.45 1809.28,1993.7 1826.48,1988.85 1843.61,1983.88 1860.67,1978.79 1877.64,1973.55 1894.52,1968.15 1911.29,1962.58 1927.96,1956.82 1944.51,1950.86 1960.93,1944.69 1977.21,1938.29 1993.36,1931.64 2009.35,1924.73 2025.18,1917.55 2040.84,1910.08 2056.32,1902.31 2071.62,1894.22 2086.72,1885.81 2101.62,1877.04 2116.31,1867.94 2130.82,1858.5 2145.13,1848.75 2159.27,1838.69 2173.24,1828.35 2187.05,1817.73 2200.71,1806.86 2214.22,1795.74 2227.6,1784.39 2240.85,1772.82 2253.98,1761.05 2267,1749.1 2279.92,1736.97 2292.75,1724.69 2305.49,1712.26 2318.16,1699.7 2330.76,1687.03 2343.3,1674.26 2355.79,1661.4 2368.24,1648.46 2380.65,1635.48 2393.04,1622.44 2405.41,1609.38 2417.77,1596.31 "/>
<polyline clip-path="url(#clip842)" style="stroke:#000000; stroke-linecap:round; stroke-linejoin:round; stroke-width:4; stroke-opacity:1; fill:none" points="1687.7,2025.65 1680.94,2009.49 1674.19,1993.33 1667.47,1977.17 1660.81,1961.01 1654.21,1944.83 1647.69,1928.65 1641.27,1912.46 1634.97,1896.25 1628.81,1880.03 1622.79,1863.8 1616.93,1847.54 1611.26,1831.27 1605.79,1814.98 1600.54,1798.66 1595.51,1782.32 1590.74,1765.95 1586.23,1749.55 1582,1733.12 1578.07,1716.66 1574.46,1700.17 1571.18,1683.64 1568.24,1667.07 1565.67,1650.47 1563.49,1633.82 1561.7,1617.13 1560.3,1600.4 1559.29,1583.63 1558.65,1566.81 1558.35,1549.97 1558.38,1533.08 1558.73,1516.16 1559.38,1499.21 1560.31,1482.23 1561.5,1465.22 1562.95,1448.18 1564.62,1431.12 1566.52,1414.04 1568.61,1396.93 1570.88,1379.81 1573.32,1362.67 1575.91,1345.51 1578.63,1328.33 1581.47,1311.15 1584.4,1293.95 1587.42,1276.75 1590.51,1259.54 1593.64,1242.32 1596.81,1225.1 1600,1207.87 "/>
<polyline clip-path="url(#clip842)" style="stroke:#000000; stroke-linecap:round; stroke-linejoin:round; stroke-width:4; stroke-opacity:1; fill:none" points="2417.77,1596.31 2398.94,1592.9 2380.11,1589.48 2361.29,1586.02 2342.5,1582.53 2323.73,1578.97 2305.01,1575.34 2286.32,1571.61 2267.68,1567.78 2249.11,1563.83 2230.59,1559.75 2212.15,1555.51 2193.79,1551.11 2175.51,1546.53 2157.32,1541.75 2139.24,1536.76 2121.26,1531.54 2103.4,1526.09 2085.66,1520.38 2068.04,1514.39 2050.57,1508.12 2033.23,1501.55 2016.05,1494.66 1999.03,1487.44 1982.17,1479.88 1965.48,1471.95 1948.96,1463.66 1932.61,1455.03 1916.41,1446.06 1900.36,1436.78 1884.46,1427.19 1868.7,1417.32 1853.06,1407.18 1837.54,1396.78 1822.14,1386.14 1806.85,1375.28 1791.65,1364.2 1776.55,1352.93 1761.54,1341.48 1746.6,1329.86 1731.74,1318.09 1716.94,1306.19 1702.2,1294.16 1687.5,1282.03 1672.85,1269.81 1658.24,1257.51 1643.65,1245.16 1629.09,1232.75 1614.54,1220.32 1600,1207.87 "/>
<polyline clip-path="url(#clip842)" style="stroke:#000000; stroke-linecap:round; stroke-linejoin:round; stroke-width:4; stroke-opacity:1; fill:none" points="1600,1207.87 1581.16,1204.47 1562.33,1201.04 1543.52,1197.59 1524.73,1194.09 1505.96,1190.54 1487.23,1186.9 1468.55,1183.18 1449.91,1179.35 1431.33,1175.4 1412.82,1171.32 1394.38,1167.08 1376.01,1162.68 1357.73,1158.1 1339.55,1153.32 1321.46,1148.33 1303.49,1143.11 1285.62,1137.66 1267.88,1131.94 1250.27,1125.96 1232.79,1119.69 1215.46,1113.12 1198.28,1106.23 1181.25,1099.01 1164.39,1091.44 1147.7,1083.52 1131.19,1075.23 1114.83,1066.59 1098.64,1057.63 1082.59,1048.34 1066.69,1038.76 1050.92,1028.89 1035.29,1018.75 1019.77,1008.35 1004.37,997.71 989.076,986.845 973.882,975.769 958.781,964.497 943.767,953.044 928.831,941.426 913.966,929.657 899.167,917.752 884.424,905.727 869.731,893.596 855.082,881.375 840.468,869.078 825.883,856.721 811.319,844.319 796.769,831.887 782.227,819.44 "/>
<polyline clip-path="url(#clip842)" style="stroke:#000000; stroke-linecap:round; stroke-linejoin:round; stroke-width:4; stroke-opacity:1; fill:none" points="1600,1207.87 1593.23,1191.72 1586.49,1175.56 1579.77,1159.4 1573.1,1143.23 1566.5,1127.06 1559.99,1110.88 1553.57,1094.69 1547.27,1078.48 1541.1,1062.26 1535.08,1046.02 1529.23,1029.77 1523.56,1013.5 1518.09,997.203 1512.83,980.886 1507.81,964.543 1503.03,948.174 1498.52,931.777 1494.3,915.349 1490.37,898.889 1486.75,882.395 1483.47,865.866 1480.54,849.299 1477.97,832.694 1475.78,816.047 1473.99,799.358 1472.6,782.626 1471.59,765.853 1470.94,749.041 1470.65,732.192 1470.68,715.307 1471.03,698.388 1471.68,681.438 1472.61,664.457 1473.8,647.448 1475.25,630.412 1476.92,613.351 1478.81,596.266 1480.91,579.161 1483.18,562.036 1485.62,544.893 1488.21,527.734 1490.93,510.561 1493.76,493.376 1496.7,476.18 1499.72,458.975 1502.81,441.763 1505.94,424.545 1509.11,407.324 1512.3,390.101 "/>
<polyline clip-path="url(#clip842)" style="stroke:#000000; stroke-linecap:round; stroke-linejoin:round; stroke-width:4; stroke-opacity:1; fill:none" points="782.227,819.44 799.663,814.991 817.091,810.528 834.501,806.037 851.887,801.502 869.238,796.909 886.547,792.245 903.806,787.494 921.005,782.643 938.137,777.677 955.192,772.581 972.163,767.342 989.041,761.944 1005.82,756.374 1022.48,750.617 1039.03,744.658 1055.45,738.484 1071.74,732.08 1087.88,725.431 1103.87,718.523 1119.7,711.342 1135.36,703.874 1150.84,696.104 1166.14,688.017 1181.24,679.599 1196.14,670.837 1210.84,661.731 1225.34,652.294 1239.66,642.54 1253.8,632.484 1267.76,622.141 1281.57,611.525 1295.23,600.649 1308.74,589.53 1322.12,578.18 1335.37,566.614 1348.5,554.847 1361.53,542.894 1374.45,530.767 1387.27,518.483 1400.02,506.054 1412.69,493.497 1425.28,480.824 1437.83,468.05 1450.31,455.191 1462.76,442.259 1475.18,429.27 1487.56,416.238 1499.94,403.177 1512.3,390.101 "/>
<path clip-path="url(#clip842)" d="M1831.22 2025.65 L1759.46 1901.35 L1615.94 1901.35 L1544.18 2025.65 L1615.94 2149.94 L1759.46 2149.94 L1831.22 2025.65 L1831.22 2025.65  Z" fill="#f5fffa" fill-rule="evenodd" fill-opacity="1"/>
<polyline clip-path="url(#clip842)" style="stroke:#000000; stroke-linecap:round; stroke-linejoin:round; stroke-width:4; stroke-opacity:1; fill:none" points="1831.22,2025.65 1759.46,1901.35 1615.94,1901.35 1544.18,2025.65 1615.94,2149.94 1759.46,2149.94 1831.22,2025.65 "/>
<path clip-path="url(#clip842)" d="M2561.29 1596.31 L2489.53 1472.01 L2346.01 1472.01 L2274.25 1596.31 L2346.01 1720.6 L2489.53 1720.6 L2561.29 1596.31 L2561.29 1596.31  Z" fill="#f5fffa" fill-rule="evenodd" fill-opacity="1"/>
<polyline clip-path="url(#clip842)" style="stroke:#000000; stroke-linecap:round; stroke-linejoin:round; stroke-width:4; stroke-opacity:1; fill:none" points="2561.29,1596.31 2489.53,1472.01 2346.01,1472.01 2274.25,1596.31 2346.01,1720.6 2489.53,1720.6 2561.29,1596.31 "/>
<path clip-path="url(#clip842)" d="M1743.52 1207.87 L1671.76 1083.58 L1528.24 1083.58 L1456.48 1207.87 L1528.24 1332.17 L1671.76 1332.17 L1743.52 1207.87 L1743.52 1207.87  Z" fill="#f5fffa" fill-rule="evenodd" fill-opacity="1"/>
<polyline clip-path="url(#clip842)" style="stroke:#000000; stroke-linecap:round; stroke-linejoin:round; stroke-width:4; stroke-opacity:1; fill:none" points="1743.52,1207.87 1671.76,1083.58 1528.24,1083.58 1456.48,1207.87 1528.24,1332.17 1671.76,1332.17 1743.52,1207.87 "/>
<path clip-path="url(#clip842)" d="M925.749 819.44 L853.988 695.147 L710.466 695.147 L638.706 819.44 L710.466 943.733 L853.988 943.733 L925.749 819.44 L925.749 819.44  Z" fill="#f5fffa" fill-rule="evenodd" fill-opacity="1"/>
<polyline clip-path="url(#clip842)" style="stroke:#000000; stroke-linecap:round; stroke-linejoin:round; stroke-width:4; stroke-opacity:1; fill:none" points="925.749,819.44 853.988,695.147 710.466,695.147 638.706,819.44 710.466,943.733 853.988,943.733 925.749,819.44 "/>
<path clip-path="url(#clip842)" d="M1655.82 390.101 L1584.06 265.808 L1440.54 265.808 L1368.78 390.101 L1440.54 514.395 L1584.06 514.395 L1655.82 390.101 L1655.82 390.101  Z" fill="#f5fffa" fill-rule="evenodd" fill-opacity="1"/>
<polyline clip-path="url(#clip842)" style="stroke:#000000; stroke-linecap:round; stroke-linejoin:round; stroke-width:4; stroke-opacity:1; fill:none" points="1655.82,390.101 1584.06,265.808 1440.54,265.808 1368.78,390.101 1440.54,514.395 1584.06,514.395 1655.82,390.101 "/>
<path clip-path="url(#clip842)" d="M1687.7 2026.45 L1687.01 2026.05 L1687.01 2025.25 L1687.7 2024.85 L1688.4 2025.25 L1688.4 2026.05 Z" fill="#f5fffa" fill-rule="evenodd" fill-opacity="1" stroke="#000000" stroke-opacity="1" stroke-width="4.8"/>
<path clip-path="url(#clip842)" d="M2417.77 1597.11 L2417.08 1596.71 L2417.08 1595.91 L2417.77 1595.51 L2418.47 1595.91 L2418.47 1596.71 Z" fill="#f5fffa" fill-rule="evenodd" fill-opacity="1" stroke="#000000" stroke-opacity="1" stroke-width="4.8"/>
<path clip-path="url(#clip842)" d="M1600 1208.67 L1599.31 1208.27 L1599.31 1207.47 L1600 1207.07 L1600.69 1207.47 L1600.69 1208.27 Z" fill="#f5fffa" fill-rule="evenodd" fill-opacity="1" stroke="#000000" stroke-opacity="1" stroke-width="4.8"/>
<path clip-path="url(#clip842)" d="M782.227 820.24 L781.534 819.84 L781.534 819.04 L782.227 818.64 L782.92 819.04 L782.92 819.84 Z" fill="#f5fffa" fill-rule="evenodd" fill-opacity="1" stroke="#000000" stroke-opacity="1" stroke-width="4.8"/>
<path clip-path="url(#clip842)" d="M1512.3 390.901 L1511.61 390.501 L1511.61 389.701 L1512.3 389.301 L1512.99 389.701 L1512.99 390.501 Z" fill="#f5fffa" fill-rule="evenodd" fill-opacity="1" stroke="#000000" stroke-opacity="1" stroke-width="4.8"/>
<path clip-path="url(#clip840)" d="M1675.04 2013.22 Q1671.88 2013.22 1670.28 2016.34 Q1668.7 2019.44 1668.7 2025.68 Q1668.7 2031.9 1670.28 2035.01 Q1671.88 2038.11 1675.04 2038.11 Q1678.22 2038.11 1679.8 2035.01 Q1681.4 2031.9 1681.4 2025.68 Q1681.4 2019.44 1679.8 2016.34 Q1678.22 2013.22 1675.04 2013.22 M1675.04 2009.98 Q1680.13 2009.98 1682.8 2014.01 Q1685.5 2018.02 1685.5 2025.68 Q1685.5 2033.31 1682.8 2037.34 Q1680.13 2041.35 1675.04 2041.35 Q1669.96 2041.35 1667.27 2037.34 Q1664.59 2033.31 1664.59 2025.68 Q1664.59 2018.02 1667.27 2014.01 Q1669.96 2009.98 1675.04 2009.98 Z" fill="#000000" fill-rule="nonzero" fill-opacity="1" /><path clip-path="url(#clip840)" d="M1693.39 2037.32 L1700.08 2037.32 L1700.08 2014.25 L1692.81 2015.71 L1692.81 2011.99 L1700.04 2010.53 L1704.13 2010.53 L1704.13 2037.32 L1710.81 2037.32 L1710.81 2040.77 L1693.39 2040.77 L1693.39 2037.32 Z" fill="#000000" fill-rule="nonzero" fill-opacity="1" /><path clip-path="url(#clip840)" d="M2405.28 1583.88 Q2402.12 1583.88 2400.52 1587 Q2398.94 1590.1 2398.94 1596.34 Q2398.94 1602.55 2400.52 1605.67 Q2402.12 1608.77 2405.28 1608.77 Q2408.46 1608.77 2410.04 1605.67 Q2411.64 1602.55 2411.64 1596.34 Q2411.64 1590.1 2410.04 1587 Q2408.46 1583.88 2405.28 1583.88 M2405.28 1580.64 Q2410.36 1580.64 2413.03 1584.67 Q2415.73 1588.68 2415.73 1596.34 Q2415.73 1603.97 2413.03 1608 Q2410.36 1612.01 2405.28 1612.01 Q2400.19 1612.01 2397.5 1608 Q2394.82 1603.97 2394.82 1596.34 Q2394.82 1588.68 2397.5 1584.67 Q2400.19 1580.64 2405.28 1580.64 Z" fill="#000000" fill-rule="nonzero" fill-opacity="1" /><path clip-path="url(#clip840)" d="M2426.44 1607.98 L2440.72 1607.98 L2440.72 1611.43 L2421.52 1611.43 L2421.52 1607.98 Q2423.85 1605.57 2427.86 1601.52 Q2431.89 1597.45 2432.92 1596.28 Q2434.89 1594.07 2435.66 1592.55 Q2436.45 1591.01 2436.45 1589.53 Q2436.45 1587.12 2434.75 1585.6 Q2433.06 1584.08 2430.35 1584.08 Q2428.43 1584.08 2426.28 1584.75 Q2424.15 1585.42 2421.72 1586.78 L2421.72 1582.64 Q2424.19 1581.65 2426.34 1581.15 Q2428.49 1580.64 2430.27 1580.64 Q2434.97 1580.64 2437.76 1582.99 Q2440.56 1585.34 2440.56 1589.27 Q2440.56 1591.13 2439.85 1592.81 Q2439.16 1594.47 2437.32 1596.74 Q2436.81 1597.33 2434.1 1600.14 Q2431.38 1602.94 2426.44 1607.98 Z" fill="#000000" fill-rule="nonzero" fill-opacity="1" /><path clip-path="url(#clip840)" d="M1587.09 1195.45 Q1583.93 1195.45 1582.33 1198.57 Q1580.75 1201.67 1580.75 1207.9 Q1580.75 1214.12 1582.33 1217.24 Q1583.93 1220.34 1587.09 1220.34 Q1590.27 1220.34 1591.85 1217.24 Q1593.45 1214.12 1593.45 1207.9 Q1593.45 1201.67 1591.85 1198.57 Q1590.27 1195.45 1587.09 1195.45 M1587.09 1192.21 Q1592.17 1192.21 1594.84 1196.24 Q1597.54 1200.25 1597.54 1207.9 Q1597.54 1215.54 1594.84 1219.57 Q1592.17 1223.58 1587.09 1223.58 Q1582 1223.58 1579.31 1219.57 Q1576.64 1215.54 1576.64 1207.9 Q1576.64 1200.25 1579.31 1196.24 Q1582 1192.21 1587.09 1192.21 Z" fill="#000000" fill-rule="nonzero" fill-opacity="1" /><path clip-path="url(#clip840)" d="M1617.12 1206.69 Q1620.06 1207.32 1621.7 1209.3 Q1623.36 1211.29 1623.36 1214.2 Q1623.36 1218.68 1620.28 1221.13 Q1617.21 1223.58 1611.53 1223.58 Q1609.63 1223.58 1607.6 1223.2 Q1605.6 1222.83 1603.45 1222.08 L1603.45 1218.13 Q1605.15 1219.13 1607.18 1219.63 Q1609.2 1220.14 1611.41 1220.14 Q1615.26 1220.14 1617.27 1218.62 Q1619.29 1217.1 1619.29 1214.2 Q1619.29 1211.53 1617.41 1210.03 Q1615.54 1208.51 1612.2 1208.51 L1608.68 1208.51 L1608.68 1205.15 L1612.36 1205.15 Q1615.38 1205.15 1616.98 1203.95 Q1618.58 1202.74 1618.58 1200.47 Q1618.58 1198.14 1616.92 1196.91 Q1615.28 1195.65 1612.2 1195.65 Q1610.52 1195.65 1608.6 1196.02 Q1606.67 1196.38 1604.36 1197.15 L1604.36 1193.5 Q1606.69 1192.86 1608.72 1192.53 Q1610.76 1192.21 1612.57 1192.21 Q1617.23 1192.21 1619.94 1194.33 Q1622.65 1196.44 1622.65 1200.05 Q1622.65 1202.56 1621.22 1204.3 Q1619.78 1206.02 1617.12 1206.69 Z" fill="#000000" fill-rule="nonzero" fill-opacity="1" /><path clip-path="url(#clip840)" d="M768.819 807.014 Q765.659 807.014 764.059 810.133 Q762.479 813.232 762.479 819.47 Q762.479 825.689 764.059 828.808 Q765.659 831.907 768.819 831.907 Q771.999 831.907 773.579 828.808 Q775.179 825.689 775.179 819.47 Q775.179 813.232 773.579 810.133 Q771.999 807.014 768.819 807.014 M768.819 803.773 Q773.903 803.773 776.576 807.804 Q779.27 811.814 779.27 819.47 Q779.27 827.106 776.576 831.137 Q773.903 835.147 768.819 835.147 Q763.735 835.147 761.041 831.137 Q758.367 827.106 758.367 819.47 Q758.367 811.814 761.041 807.804 Q763.735 803.773 768.819 803.773 Z" fill="#000000" fill-rule="nonzero" fill-opacity="1" /><path clip-path="url(#clip840)" d="M797.702 807.885 L787.372 824.028 L797.702 824.028 L797.702 807.885 M796.628 804.32 L801.773 804.32 L801.773 824.028 L806.087 824.028 L806.087 827.43 L801.773 827.43 L801.773 834.56 L797.702 834.56 L797.702 827.43 L784.05 827.43 L784.05 823.481 L796.628 804.32 Z" fill="#000000" fill-rule="nonzero" fill-opacity="1" /><path clip-path="url(#clip840)" d="M1499.54 377.675 Q1496.38 377.675 1494.78 380.794 Q1493.2 383.893 1493.2 390.132 Q1493.2 396.35 1494.78 399.469 Q1496.38 402.568 1499.54 402.568 Q1502.72 402.568 1504.3 399.469 Q1505.9 396.35 1505.9 390.132 Q1505.9 383.893 1504.3 380.794 Q1502.72 377.675 1499.54 377.675 M1499.54 374.434 Q1504.62 374.434 1507.3 378.465 Q1509.99 382.475 1509.99 390.132 Q1509.99 397.768 1507.3 401.798 Q1504.62 405.809 1499.54 405.809 Q1494.45 405.809 1491.76 401.798 Q1489.09 397.768 1489.09 390.132 Q1489.09 382.475 1491.76 378.465 Q1494.45 374.434 1499.54 374.434 Z" fill="#000000" fill-rule="nonzero" fill-opacity="1" /><path clip-path="url(#clip840)" d="M1517.22 374.981 L1533.28 374.981 L1533.28 378.425 L1520.97 378.425 L1520.97 385.838 Q1521.86 385.534 1522.75 385.392 Q1523.64 385.23 1524.53 385.23 Q1529.6 385.23 1532.55 388.005 Q1535.51 390.78 1535.51 395.519 Q1535.51 400.401 1532.47 403.115 Q1529.43 405.809 1523.9 405.809 Q1522 405.809 1520.01 405.485 Q1518.05 405.16 1515.94 404.512 L1515.94 400.401 Q1517.77 401.393 1519.71 401.879 Q1521.66 402.365 1523.82 402.365 Q1527.33 402.365 1529.37 400.522 Q1531.42 398.679 1531.42 395.519 Q1531.42 392.36 1529.37 390.516 Q1527.33 388.673 1523.82 388.673 Q1522.18 388.673 1520.54 389.038 Q1518.92 389.402 1517.22 390.172 L1517.22 374.981 Z" fill="#000000" fill-rule="nonzero" fill-opacity="1" /></svg>
