<?xml version="1.0" encoding="utf-8"?>
<svg xmlns="http://www.w3.org/2000/svg" xmlns:xlink="http://www.w3.org/1999/xlink" width="800" height="600" viewBox="0 0 3200 2400">
<defs>
  <clipPath id="clip170">
    <rect x="0" y="0" width="3200" height="2400"/>
  </clipPath>
</defs>
<path clip-path="url(#clip170)" d="
M0 2400 L3200 2400 L3200 0 L0 0  Z
  " fill="#ffffff" fill-rule="evenodd" fill-opacity="1"/>
<defs>
  <clipPath id="clip171">
    <rect x="640" y="0" width="2241" height="2241"/>
  </clipPath>
</defs>
<path clip-path="url(#clip170)" d="
M455.118 2352.76 L2744.88 2352.76 L2744.88 62.9921 L455.118 62.9921  Z
  " fill="#ffffff" fill-rule="evenodd" fill-opacity="1"/>
<defs>
  <clipPath id="clip172">
    <rect x="455" y="62" width="2291" height="2291"/>
  </clipPath>
</defs>
<path clip-path="url(#clip170)" d="M540.782 103.433 L540.782 78.112 Q540.782 76.6916 540.843 76.1975 Q540.905 75.7034 541.276 75.3329 Q541.646 74.9623 542.387 74.9623 Q543.808 74.9623 543.931 76.2593 Q544.302 88.7962 551.775 95.7132 Q559.124 102.568 571.723 102.568 Q579.319 102.568 584.013 97.1336 Q588.706 91.6371 588.706 84.4731 Q588.706 77.618 584.754 72.8008 Q583.086 70.6393 580.986 69.2806 Q578.948 67.8601 577.651 67.4278 Q576.416 66.9955 574.008 66.3779 Q558.321 62.6107 557.333 62.1784 Q549.86 59.6463 545.29 53.2851 Q540.782 46.8623 540.782 39.019 Q540.782 28.8906 547.884 21.7266 Q555.048 14.5009 565.423 14.5009 Q570.611 14.5009 574.934 16.1683 Q579.319 17.7741 581.11 19.2563 Q582.901 20.7385 585.68 23.3941 L590.065 16.1683 Q591.053 14.5009 591.979 14.5009 Q592.968 14.5009 593.153 15.1185 Q593.4 15.6743 593.4 17.527 L593.4 42.9715 Q593.4 44.3919 593.338 44.886 Q593.276 45.3801 592.844 45.6889 Q592.473 45.9977 591.732 45.9977 Q590.497 45.9977 590.188 44.5155 Q586.668 18.0829 565.547 18.0829 Q558.321 18.0829 553.566 22.9618 Q548.872 27.7789 548.872 34.6341 Q548.872 40.1924 552.331 44.7625 Q555.789 49.2709 561.656 50.6913 L577.837 54.5821 Q585.927 56.4966 591.362 63.6606 Q596.797 70.8245 596.797 80.1501 Q596.797 90.896 589.756 98.6776 Q582.777 106.459 571.846 106.459 Q564.003 106.459 557.951 103.865 Q551.898 101.271 548.625 97.6277 Q546.093 101.827 544.425 104.174 L544.055 104.792 Q543.067 106.459 542.14 106.459 Q541.152 106.459 540.967 105.842 Q540.782 105.224 540.782 103.433 Z" fill="#000000" fill-rule="evenodd" fill-opacity="1" /><path clip-path="url(#clip170)" d="M608.037 103.68 L608.037 99.7892 Q614.768 99.7892 616.312 98.9864 Q617.856 98.1217 617.856 94.0457 L617.856 60.0168 Q617.856 55.3232 616.25 54.2115 Q614.707 53.0999 608.531 53.0999 L608.531 49.1473 L626.194 47.7886 L626.194 94.1692 Q626.194 97.9365 627.552 98.8628 Q628.911 99.7892 635.087 99.7892 L635.087 103.68 Q622.179 103.309 621.932 103.309 Q620.203 103.309 608.037 103.68 M613.348 25.7409 Q613.348 23.2088 615.262 21.1708 Q617.239 19.071 620.018 19.071 Q622.797 19.071 624.773 20.9855 Q626.749 22.8383 626.749 25.8027 Q626.749 28.7053 624.773 30.6198 Q622.797 32.4726 620.018 32.4726 Q617.115 32.4726 615.201 30.4345 Q613.348 28.3965 613.348 25.7409 Z" fill="#000000" fill-rule="evenodd" fill-opacity="1" /><path clip-path="url(#clip170)" d="M642.93 103.68 L642.93 99.7892 Q649.662 99.7892 651.206 98.9864 Q652.75 98.1217 652.75 94.0457 L652.75 60.1403 Q652.75 55.4467 651.082 54.2733 Q649.476 53.0999 642.93 53.0999 L642.93 49.1473 L660.717 47.7886 L660.717 61.0667 Q666.645 47.7886 679.429 47.7886 Q694.251 47.7886 696.289 60.1403 Q698.451 55.3232 702.959 51.5559 Q707.529 47.7886 714.632 47.7886 Q724.142 47.7886 727.91 52.4823 Q730.689 55.632 731.245 59.1522 Q731.8 62.6724 731.8 71.8127 L731.8 95.9602 Q731.924 98.6158 733.962 99.2334 Q736 99.7892 741.682 99.7892 L741.682 103.68 Q728.774 103.309 727.539 103.309 Q726.551 103.309 713.211 103.68 L713.211 99.7892 Q719.943 99.7892 721.487 98.9864 Q723.092 98.1217 723.092 94.0457 L723.092 64.5869 Q723.092 58.1641 721.116 54.3968 Q719.14 50.5678 713.705 50.5678 Q707.159 50.5678 701.909 56.0643 Q696.66 61.5608 696.66 70.8245 L696.66 94.0457 Q696.66 98.1217 698.204 98.9864 Q699.81 99.7892 706.541 99.7892 L706.541 103.68 Q693.634 103.309 692.337 103.309 Q691.349 103.309 678.071 103.68 L678.071 99.7892 Q684.802 99.7892 686.346 98.9864 Q687.952 98.1217 687.952 94.0457 L687.952 64.5869 Q687.952 58.1641 685.976 54.3968 Q683.999 50.5678 678.565 50.5678 Q672.018 50.5678 666.769 56.0643 Q661.519 61.5608 661.519 70.8245 L661.519 94.0457 Q661.519 98.1217 663.063 98.9864 Q664.669 99.7892 671.339 99.7892 L671.339 103.68 Q658.431 103.309 657.196 103.309 Q656.208 103.309 642.93 103.68 Z" fill="#000000" fill-rule="evenodd" fill-opacity="1" /><path clip-path="url(#clip170)" d="M747.672 124.307 Q754.404 124.307 755.948 123.443 Q757.554 122.64 757.554 118.626 L757.554 59.3992 Q757.554 55.1997 755.948 54.1498 Q754.404 53.0999 747.672 53.0999 L747.672 49.1473 L765.891 47.7886 L765.891 56.126 Q773.487 47.7886 783.616 47.7886 Q794.362 47.7886 802.205 56.126 Q810.048 64.4634 810.048 76.3828 Q810.048 88.4257 801.711 96.7631 Q793.374 105.1 781.825 105.1 Q775.525 105.1 771.264 101.889 Q767.064 98.6158 766.262 96.2072 L766.262 97.3806 L766.262 118.626 Q766.262 122.702 767.867 123.504 Q769.473 124.307 776.143 124.307 L776.143 128.198 Q762.865 127.828 761.877 127.828 Q760.642 127.828 747.672 128.198 L747.672 124.307 M766.262 89.2903 Q766.262 91.2048 766.509 91.8841 Q766.817 92.5635 768.053 94.6015 Q773.055 102.26 781.207 102.26 Q781.269 102.26 781.331 102.26 Q788.556 102.26 794.053 94.9103 Q799.549 87.4993 799.549 76.3828 Q799.549 65.7603 794.547 58.3493 Q789.545 50.9383 782.628 50.9383 Q777.687 50.9383 773.364 53.5939 Q769.041 56.2495 766.262 61.0667 L766.262 89.2903 Z" fill="#000000" fill-rule="evenodd" fill-opacity="1" /><path clip-path="url(#clip170)" d="M818.509 103.68 L818.509 99.7892 Q825.241 99.7892 826.785 98.9864 Q828.329 98.1217 828.329 94.0457 L828.329 28.273 Q828.329 23.5794 826.661 22.4059 Q825.056 21.2325 818.509 21.2325 L818.509 17.28 L836.666 15.9213 L836.666 94.0457 Q836.666 98.1217 838.272 98.9864 Q839.878 99.7892 846.548 99.7892 L846.548 103.68 Q845.004 103.68 841.792 103.556 Q838.581 103.433 836.234 103.371 Q833.887 103.309 832.528 103.309 Q831.046 103.309 818.509 103.68 Z" fill="#000000" fill-rule="evenodd" fill-opacity="1" /><path clip-path="url(#clip170)" d="M852.847 75.827 Q852.847 63.9076 860.505 55.4467 Q868.163 46.9858 879.156 46.9858 Q890.272 46.9858 896.016 54.2115 Q901.821 61.4373 901.821 71.8127 Q901.821 73.7272 901.327 74.0977 Q900.833 74.4683 898.672 74.4683 L863.346 74.4683 Q863.346 87.3758 867.175 93.4281 Q872.486 101.889 881.441 101.889 Q882.676 101.889 884.158 101.642 Q885.641 101.395 888.667 100.345 Q891.693 99.2334 894.349 96.3308 Q897.004 93.4281 898.548 88.858 Q898.919 87.067 900.154 87.1287 Q901.821 87.1287 901.821 88.611 Q901.821 89.7226 900.586 92.2547 Q899.413 94.725 897.128 97.6894 Q894.843 100.654 890.396 102.877 Q886.011 105.1 880.7 105.1 Q869.583 105.1 861.184 96.7013 Q852.847 88.2404 852.847 75.827 M863.469 71.8127 L893.484 71.8127 Q893.484 69.1571 892.99 66.1927 Q892.558 63.2282 891.199 59.1522 Q889.902 55.0144 886.814 52.4205 Q883.726 49.8267 879.156 49.8267 Q877.118 49.8267 874.895 50.6913 Q872.733 51.5559 870.077 53.6557 Q867.422 55.7555 865.569 60.5109 Q863.716 65.2663 863.469 71.8127 Z" fill="#000000" fill-rule="evenodd" fill-opacity="1" /><path clip-path="url(#clip170)" d="M967.594 93.0576 Q954.625 79.656 954.625 60.4491 Q954.625 41.1805 967.718 27.8407 Q980.81 14.5009 998.597 14.5009 Q1003.04 14.5009 1006.81 15.5508 Q1010.64 16.5389 1013.67 18.5769 Q1016.69 20.5532 1018.24 21.9119 Q1019.84 23.2088 1022 25.3704 L1028.36 16.0448 Q1029.35 14.5009 1030.34 14.5009 Q1031.39 14.5009 1031.58 15.1185 Q1031.76 15.6743 1031.76 17.527 L1031.76 47.5416 Q1031.76 49.5796 1031.51 50.0737 Q1031.27 50.5678 1029.72 50.5678 Q1028.49 50.5678 1028.24 50.1972 Q1027.99 49.8267 1027.68 48.4062 Q1025.77 34.7576 1018.11 26.6055 Q1010.52 18.4534 1000.14 18.4534 Q997.115 18.4534 993.718 19.1328 Q990.383 19.8121 985.442 22.4059 Q980.563 24.9998 976.796 29.2611 Q973.09 33.4607 970.373 41.6128 Q967.656 49.7032 967.656 60.4491 Q967.656 71.0716 970.373 79.2237 Q973.09 87.3758 976.858 91.6371 Q980.687 95.8367 985.627 98.4923 Q990.63 101.148 994.15 101.889 Q997.732 102.568 1000.88 102.568 Q1003.04 102.568 1005.58 102.136 Q1008.11 101.642 1011.87 100.283 Q1015.7 98.8628 1018.11 95.5279 Q1020.52 92.1929 1020.52 87.2523 L1020.52 79.1619 Q1020.52 75.3947 1018.67 74.2212 Q1016.82 73.0478 1008.73 73.0478 L1004.71 73.0478 L1004.71 69.1571 Q1009.28 69.5276 1025.03 69.5276 Q1026.45 69.5276 1040.47 69.1571 L1040.47 73.0478 Q1034.42 73.0478 1033.06 73.9742 Q1031.76 74.8388 1031.76 78.6061 L1031.76 100.654 Q1031.76 103.556 1030.65 103.556 Q1029.66 103.556 1026.7 100.716 Q1023.79 97.8747 1022.5 95.7132 Q1019.47 101.024 1012.86 103.742 Q1006.32 106.459 998.844 106.459 Q980.625 106.459 967.594 93.0576 Z" fill="#000000" fill-rule="evenodd" fill-opacity="1" /><path clip-path="url(#clip170)" d="M1050.16 103.68 L1050.16 99.7892 Q1056.9 99.7892 1058.44 98.9864 Q1060.05 98.1217 1060.05 94.0457 L1060.05 60.1403 Q1060.05 55.4467 1058.38 54.2733 Q1056.77 53.0999 1050.16 53.0999 L1050.16 49.1473 L1067.77 47.7886 L1067.77 61.6843 Q1069.56 56.2495 1073.32 52.05 Q1077.15 47.7886 1083.33 47.7886 Q1087.41 47.7886 1090 50.0737 Q1092.65 52.3588 1092.65 55.5084 Q1092.65 58.2876 1090.93 59.708 Q1089.26 61.0667 1087.22 61.0667 Q1084.93 61.0667 1083.33 59.6463 Q1081.79 58.1641 1081.79 55.632 Q1081.79 54.088 1082.46 52.9146 Q1083.21 51.6794 1083.76 51.2471 Q1084.32 50.8148 1084.69 50.6913 Q1084.44 50.5678 1083.33 50.5678 Q1076.35 50.5678 1072.34 57.5465 Q1068.38 64.4634 1068.38 74.3448 L1068.38 93.7987 Q1068.38 97.4424 1069.87 98.6158 Q1071.41 99.7892 1078.02 99.7892 L1080.67 99.7892 L1080.67 103.68 Q1075.61 103.309 1064.62 103.309 Q1063.07 103.309 1060.66 103.371 Q1058.26 103.433 1055.11 103.556 Q1051.96 103.68 1050.16 103.68 Z" fill="#000000" fill-rule="evenodd" fill-opacity="1" /><path clip-path="url(#clip170)" d="M1101.36 91.6371 Q1101.36 80.8912 1114.02 75.2094 Q1121.62 71.5656 1137.31 70.6393 L1137.31 66.0074 Q1137.31 58.1641 1133.17 54.0262 Q1129.09 49.8267 1123.9 49.8267 Q1114.64 49.8267 1110.19 55.632 Q1113.96 55.7555 1115.32 57.67 Q1116.68 59.5227 1116.68 61.4373 Q1116.68 63.9693 1115.07 65.6368 Q1113.53 67.2425 1110.87 67.2425 Q1108.34 67.2425 1106.67 65.6986 Q1105.01 64.0929 1105.01 61.3137 Q1105.01 55.1379 1110.56 51.0618 Q1116.18 46.9858 1124.15 46.9858 Q1134.53 46.9858 1141.44 53.9645 Q1143.61 56.126 1144.66 58.9052 Q1145.77 61.6843 1145.89 63.537 Q1146.01 65.328 1146.01 68.91 L1146.01 94.1692 Q1146.01 94.9103 1146.26 96.1455 Q1146.51 97.3806 1147.62 98.9864 Q1148.79 100.53 1150.71 100.53 Q1155.28 100.53 1155.22 92.44 L1155.22 85.3378 L1158.43 85.3378 L1158.43 92.44 Q1158.43 99.1716 1154.85 101.827 Q1151.33 104.421 1148.05 104.421 Q1143.85 104.421 1141.2 101.333 Q1138.54 98.2453 1138.17 94.0457 Q1136.26 98.8628 1131.87 102.013 Q1127.55 105.1 1121.62 105.1 Q1117.05 105.1 1112.73 103.927 Q1108.46 102.815 1104.88 99.6657 Q1101.36 96.4543 1101.36 91.6371 M1111.12 91.5136 Q1111.12 96.2072 1114.46 99.2334 Q1117.79 102.26 1122.48 102.26 Q1127.8 102.26 1132.55 98.1835 Q1137.31 94.0457 1137.31 85.9553 L1137.31 73.2949 Q1123.29 73.7889 1117.17 79.4089 Q1111.12 84.9672 1111.12 91.5136 Z" fill="#000000" fill-rule="evenodd" fill-opacity="1" /><path clip-path="url(#clip170)" d="M1162.81 124.307 Q1169.54 124.307 1171.09 123.443 Q1172.69 122.64 1172.69 118.626 L1172.69 59.3992 Q1172.69 55.1997 1171.09 54.1498 Q1169.54 53.0999 1162.81 53.0999 L1162.81 49.1473 L1181.03 47.7886 L1181.03 56.126 Q1188.63 47.7886 1198.76 47.7886 Q1209.5 47.7886 1217.34 56.126 Q1225.19 64.4634 1225.19 76.3828 Q1225.19 88.4257 1216.85 96.7631 Q1208.51 105.1 1196.96 105.1 Q1190.67 105.1 1186.4 101.889 Q1182.2 98.6158 1181.4 96.2072 L1181.4 97.3806 L1181.4 118.626 Q1181.4 122.702 1183.01 123.504 Q1184.61 124.307 1191.28 124.307 L1191.28 128.198 Q1178 127.828 1177.02 127.828 Q1175.78 127.828 1162.81 128.198 L1162.81 124.307 M1181.4 89.2903 Q1181.4 91.2048 1181.65 91.8841 Q1181.96 92.5635 1183.19 94.6015 Q1188.19 102.26 1196.35 102.26 Q1196.41 102.26 1196.47 102.26 Q1203.7 102.26 1209.19 94.9103 Q1214.69 87.4993 1214.69 76.3828 Q1214.69 65.7603 1209.69 58.3493 Q1204.68 50.9383 1197.77 50.9383 Q1192.83 50.9383 1188.5 53.5939 Q1184.18 56.2495 1181.4 61.0667 L1181.4 89.2903 Z" fill="#000000" fill-rule="evenodd" fill-opacity="1" /><path clip-path="url(#clip170)" d="M1233.53 103.68 L1233.53 99.7892 Q1240.26 99.7892 1241.8 98.9864 Q1243.35 98.1217 1243.35 94.0457 L1243.35 28.273 Q1243.35 23.5794 1241.68 22.4059 Q1240.07 21.2325 1233.53 21.2325 L1233.53 17.28 L1251.68 15.9213 L1251.68 59.8933 L1251.81 59.8933 Q1253.84 55.3232 1258.41 51.5559 Q1262.98 47.7886 1270.02 47.7886 Q1279.54 47.7886 1283.3 52.4823 Q1286.08 55.632 1286.64 59.1522 Q1287.26 62.6724 1287.26 71.8127 L1287.26 95.9602 Q1287.38 98.6158 1289.42 99.2334 Q1291.46 99.7892 1297.14 99.7892 L1297.14 103.68 Q1284.23 103.309 1282.93 103.309 Q1281.94 103.309 1268.67 103.68 L1268.67 99.7892 Q1275.4 99.7892 1276.94 98.9864 Q1278.55 98.1217 1278.55 94.0457 L1278.55 64.5869 Q1278.55 58.1641 1276.57 54.3968 Q1274.59 50.5678 1269.16 50.5678 Q1262.61 50.5678 1257.36 56.0643 Q1252.11 61.5608 1252.11 70.8245 L1252.11 94.0457 Q1252.11 98.1217 1253.66 98.9864 Q1255.26 99.7892 1261.93 99.7892 L1261.93 103.68 Q1249.03 103.309 1247.79 103.309 Q1246.8 103.309 1233.53 103.68 Z" fill="#000000" fill-rule="evenodd" fill-opacity="1" /><path clip-path="url(#clip170)" d="M1312.27 101.642 Q1310.48 99.6039 1310.48 96.9483 Q1310.48 94.2927 1312.21 92.3165 Q1314 90.2784 1317.21 90.2784 Q1320.98 90.2784 1323.14 93.9222 Q1325.3 97.5042 1325.3 103.556 Q1325.3 110.103 1322.64 116.155 Q1319.99 122.269 1317.39 125.172 Q1314.8 128.075 1313.75 128.075 Q1312.51 128.075 1312.51 126.716 Q1312.51 126.222 1313.38 125.295 Q1322.46 115.538 1322.52 103.556 Q1322.52 101.642 1322.27 101.642 L1321.96 101.889 Q1319.8 103.68 1317.21 103.68 Q1314.06 103.68 1312.27 101.642 Z" fill="#000000" fill-rule="evenodd" fill-opacity="1" /><path clip-path="url(#clip170)" d="M1380.76 103.68 L1380.76 99.7892 Q1392 99.5422 1394.9 91.2666 L1421.09 15.6743 Q1421.58 14.1303 1422.14 13.6363 Q1422.69 13.1422 1424.11 13.1422 Q1424.85 13.1422 1425.29 13.2657 Q1425.78 13.3892 1426.09 13.8215 Q1426.4 14.2538 1426.52 14.5009 Q1426.64 14.7479 1427.01 15.6743 L1454.31 94.725 Q1455.3 97.8747 1457.34 98.8628 Q1459.38 99.7892 1465.12 99.7892 L1467.34 99.7892 L1467.34 103.68 Q1459.38 103.309 1450.79 103.309 Q1437.14 103.309 1432.57 103.68 L1432.57 99.7892 Q1443.07 99.7892 1443.07 95.9602 Q1443.07 95.7132 1442.7 94.1692 L1436.03 74.8388 L1404.78 74.8388 L1398.91 91.3901 Q1398.67 91.8841 1398.67 93.3046 Q1398.67 95.9602 1401.14 97.8747 Q1403.61 99.7892 1408.18 99.7892 L1408.18 103.68 Q1396.01 103.309 1393.6 103.309 Q1389.47 103.309 1380.76 103.68 M1406.14 70.948 L1434.61 70.948 L1420.34 29.817 L1406.14 70.948 Z" fill="#000000" fill-rule="evenodd" fill-opacity="1" /><path clip-path="url(#clip170)" d="M1475.74 103.68 L1475.74 99.7892 Q1482.47 99.7892 1484.02 98.9864 Q1485.56 98.1217 1485.56 94.0457 L1485.56 28.273 Q1485.56 23.5794 1483.89 22.4059 Q1482.29 21.2325 1475.74 21.2325 L1475.74 17.28 L1493.9 15.9213 L1493.9 94.0457 Q1493.9 98.1217 1495.5 98.9864 Q1497.11 99.7892 1503.78 99.7892 L1503.78 103.68 Q1502.24 103.68 1499.03 103.556 Q1495.81 103.433 1493.47 103.371 Q1491.12 103.309 1489.76 103.309 Q1488.28 103.309 1475.74 103.68 Z" fill="#000000" fill-rule="evenodd" fill-opacity="1" /><path clip-path="url(#clip170)" d="M1508.97 53.0999 L1508.97 50.3207 Q1514.77 50.0737 1518.6 45.9977 Q1522.49 41.8598 1523.79 36.7957 Q1525.15 31.7315 1525.27 25.8644 L1528.42 25.8644 L1528.42 49.1473 L1546.52 49.1473 L1546.52 53.0999 L1528.42 53.0999 L1528.42 88.2404 Q1528.42 101.889 1536.94 101.889 Q1540.59 101.889 1543 98.1835 Q1545.41 94.4162 1545.41 87.7463 L1545.41 80.7676 L1548.56 80.7676 L1548.56 87.9934 Q1548.56 94.8485 1545.41 99.9745 Q1542.26 105.1 1536.02 105.1 Q1533.73 105.1 1531.45 104.483 Q1529.22 103.927 1526.26 102.445 Q1523.36 100.901 1521.51 97.1954 Q1519.71 93.4281 1519.71 87.9934 L1519.71 53.0999 L1508.97 53.0999 Z" fill="#000000" fill-rule="evenodd" fill-opacity="1" /><path clip-path="url(#clip170)" d="M1559.12 75.827 Q1559.12 63.9076 1566.77 55.4467 Q1574.43 46.9858 1585.43 46.9858 Q1596.54 46.9858 1602.29 54.2115 Q1608.09 61.4373 1608.09 71.8127 Q1608.09 73.7272 1607.6 74.0977 Q1607.1 74.4683 1604.94 74.4683 L1569.61 74.4683 Q1569.61 87.3758 1573.44 93.4281 Q1578.76 101.889 1587.71 101.889 Q1588.95 101.889 1590.43 101.642 Q1591.91 101.395 1594.94 100.345 Q1597.96 99.2334 1600.62 96.3308 Q1603.27 93.4281 1604.82 88.858 Q1605.19 87.067 1606.42 87.1287 Q1608.09 87.1287 1608.09 88.611 Q1608.09 89.7226 1606.86 92.2547 Q1605.68 94.725 1603.4 97.6894 Q1601.11 100.654 1596.67 102.877 Q1592.28 105.1 1586.97 105.1 Q1575.85 105.1 1567.45 96.7013 Q1559.12 88.2404 1559.12 75.827 M1569.74 71.8127 L1599.75 71.8127 Q1599.75 69.1571 1599.26 66.1927 Q1598.83 63.2282 1597.47 59.1522 Q1596.17 55.0144 1593.08 52.4205 Q1590 49.8267 1585.43 49.8267 Q1583.39 49.8267 1581.16 50.6913 Q1579 51.5559 1576.35 53.6557 Q1573.69 55.7555 1571.84 60.5109 Q1569.99 65.2663 1569.74 71.8127 Z" fill="#000000" fill-rule="evenodd" fill-opacity="1" /><path clip-path="url(#clip170)" d="M1615.25 103.68 L1615.25 99.7892 Q1621.99 99.7892 1623.53 98.9864 Q1625.14 98.1217 1625.14 94.0457 L1625.14 60.1403 Q1625.14 55.4467 1623.47 54.2733 Q1621.86 53.0999 1615.25 53.0999 L1615.25 49.1473 L1632.86 47.7886 L1632.86 61.6843 Q1634.65 56.2495 1638.41 52.05 Q1642.24 47.7886 1648.42 47.7886 Q1652.49 47.7886 1655.09 50.0737 Q1657.74 52.3588 1657.74 55.5084 Q1657.74 58.2876 1656.01 59.708 Q1654.35 61.0667 1652.31 61.0667 Q1650.02 61.0667 1648.42 59.6463 Q1646.87 58.1641 1646.87 55.632 Q1646.87 54.088 1647.55 52.9146 Q1648.3 51.6794 1648.85 51.2471 Q1649.41 50.8148 1649.78 50.6913 Q1649.53 50.5678 1648.42 50.5678 Q1641.44 50.5678 1637.43 57.5465 Q1633.47 64.4634 1633.47 74.3448 L1633.47 93.7987 Q1633.47 97.4424 1634.96 98.6158 Q1636.5 99.7892 1643.11 99.7892 L1645.76 99.7892 L1645.76 103.68 Q1640.7 103.309 1629.71 103.309 Q1628.16 103.309 1625.75 103.371 Q1623.34 103.433 1620.19 103.556 Q1617.05 103.68 1615.25 103.68 Z" fill="#000000" fill-rule="evenodd" fill-opacity="1" /><path clip-path="url(#clip170)" d="M1665.22 103.68 L1665.22 99.7892 Q1671.95 99.7892 1673.49 98.9864 Q1675.04 98.1217 1675.04 94.0457 L1675.04 60.1403 Q1675.04 55.4467 1673.37 54.2733 Q1671.76 53.0999 1665.22 53.0999 L1665.22 49.1473 L1683 47.7886 L1683 61.0667 Q1688.93 47.7886 1701.72 47.7886 Q1711.23 47.7886 1714.99 52.4823 Q1717.77 55.632 1718.33 59.1522 Q1718.95 62.6724 1718.95 71.8127 L1718.95 95.9602 Q1719.07 98.6158 1721.11 99.2334 Q1723.15 99.7892 1728.83 99.7892 L1728.83 103.68 Q1715.92 103.309 1714.62 103.309 Q1713.64 103.309 1700.36 103.68 L1700.36 99.7892 Q1707.09 99.7892 1708.63 98.9864 Q1710.24 98.1217 1710.24 94.0457 L1710.24 64.5869 Q1710.24 58.1641 1708.26 54.3968 Q1706.29 50.5678 1700.85 50.5678 Q1694.31 50.5678 1689.06 56.0643 Q1683.81 61.5608 1683.81 70.8245 L1683.81 94.0457 Q1683.81 98.1217 1685.35 98.9864 Q1686.96 99.7892 1693.63 99.7892 L1693.63 103.68 Q1680.72 103.309 1679.48 103.309 Q1678.49 103.309 1665.22 103.68 Z" fill="#000000" fill-rule="evenodd" fill-opacity="1" /><path clip-path="url(#clip170)" d="M1736.61 91.6371 Q1736.61 80.8912 1749.27 75.2094 Q1756.87 71.5656 1772.55 70.6393 L1772.55 66.0074 Q1772.55 58.1641 1768.42 54.0262 Q1764.34 49.8267 1759.15 49.8267 Q1749.89 49.8267 1745.44 55.632 Q1749.21 55.7555 1750.57 57.67 Q1751.93 59.5227 1751.93 61.4373 Q1751.93 63.9693 1750.32 65.6368 Q1748.78 67.2425 1746.12 67.2425 Q1743.59 67.2425 1741.92 65.6986 Q1740.25 64.0929 1740.25 61.3137 Q1740.25 55.1379 1745.81 51.0618 Q1751.43 46.9858 1759.4 46.9858 Q1769.77 46.9858 1776.69 53.9645 Q1778.85 56.126 1779.9 58.9052 Q1781.01 61.6843 1781.14 63.537 Q1781.26 65.328 1781.26 68.91 L1781.26 94.1692 Q1781.26 94.9103 1781.51 96.1455 Q1781.75 97.3806 1782.87 98.9864 Q1784.04 100.53 1785.95 100.53 Q1790.52 100.53 1790.46 92.44 L1790.46 85.3378 L1793.67 85.3378 L1793.67 92.44 Q1793.67 99.1716 1790.09 101.827 Q1786.57 104.421 1783.3 104.421 Q1779.1 104.421 1776.44 101.333 Q1773.79 98.2453 1773.42 94.0457 Q1771.5 98.8628 1767.12 102.013 Q1762.8 105.1 1756.87 105.1 Q1752.3 105.1 1747.97 103.927 Q1743.71 102.815 1740.13 99.6657 Q1736.61 96.4543 1736.61 91.6371 M1746.37 91.5136 Q1746.37 96.2072 1749.7 99.2334 Q1753.04 102.26 1757.73 102.26 Q1763.04 102.26 1767.8 98.1835 Q1772.55 94.0457 1772.55 85.9553 L1772.55 73.2949 Q1758.53 73.7889 1752.42 79.4089 Q1746.37 84.9672 1746.37 91.5136 Z" fill="#000000" fill-rule="evenodd" fill-opacity="1" /><path clip-path="url(#clip170)" d="M1796.95 53.0999 L1796.95 50.3207 Q1802.75 50.0737 1806.58 45.9977 Q1810.47 41.8598 1811.77 36.7957 Q1813.13 31.7315 1813.25 25.8644 L1816.4 25.8644 L1816.4 49.1473 L1834.5 49.1473 L1834.5 53.0999 L1816.4 53.0999 L1816.4 88.2404 Q1816.4 101.889 1824.92 101.889 Q1828.57 101.889 1830.98 98.1835 Q1833.38 94.4162 1833.38 87.7463 L1833.38 80.7676 L1836.53 80.7676 L1836.53 87.9934 Q1836.53 94.8485 1833.38 99.9745 Q1830.24 105.1 1824 105.1 Q1821.71 105.1 1819.43 104.483 Q1817.2 103.927 1814.24 102.445 Q1811.34 100.901 1809.48 97.1954 Q1807.69 93.4281 1807.69 87.9934 L1807.69 53.0999 L1796.95 53.0999 Z" fill="#000000" fill-rule="evenodd" fill-opacity="1" /><path clip-path="url(#clip170)" d="M1847.1 75.827 Q1847.1 63.9076 1854.75 55.4467 Q1862.41 46.9858 1873.4 46.9858 Q1884.52 46.9858 1890.26 54.2115 Q1896.07 61.4373 1896.07 71.8127 Q1896.07 73.7272 1895.58 74.0977 Q1895.08 74.4683 1892.92 74.4683 L1857.59 74.4683 Q1857.59 87.3758 1861.42 93.4281 Q1866.73 101.889 1875.69 101.889 Q1876.92 101.889 1878.41 101.642 Q1879.89 101.395 1882.92 100.345 Q1885.94 99.2334 1888.6 96.3308 Q1891.25 93.4281 1892.8 88.858 Q1893.17 87.067 1894.4 87.1287 Q1896.07 87.1287 1896.07 88.611 Q1896.07 89.7226 1894.83 92.2547 Q1893.66 94.725 1891.38 97.6894 Q1889.09 100.654 1884.64 102.877 Q1880.26 105.1 1874.95 105.1 Q1863.83 105.1 1855.43 96.7013 Q1847.1 88.2404 1847.1 75.827 M1857.72 71.8127 L1887.73 71.8127 Q1887.73 69.1571 1887.24 66.1927 Q1886.81 63.2282 1885.45 59.1522 Q1884.15 55.0144 1881.06 52.4205 Q1877.97 49.8267 1873.4 49.8267 Q1871.37 49.8267 1869.14 50.6913 Q1866.98 51.5559 1864.33 53.6557 Q1861.67 55.7555 1859.82 60.5109 Q1857.96 65.2663 1857.72 71.8127 Z" fill="#000000" fill-rule="evenodd" fill-opacity="1" /><path clip-path="url(#clip170)" d="M1944.18 21.2325 L1944.18 17.28 Q1957.83 17.6506 1960.24 17.6506 Q1973.76 17.6506 1978.33 17.28 L1978.33 21.2325 Q1967.96 21.2325 1967.96 24.8763 Q1967.96 25.3704 1968.7 27.1613 L1992.85 91.0195 L2016 30.064 Q2016.62 28.1495 2016.62 27.5319 Q2016.62 24.9998 2014.28 23.2088 Q2011.99 21.3561 2007.42 21.2325 L2007.42 17.28 Q2017.3 17.6506 2021.81 17.6506 Q2028.23 17.6506 2034.1 17.28 L2034.1 21.2325 Q2023.48 21.3561 2020.33 29.6934 L1992.1 104.051 Q1991.61 105.595 1991.12 106.027 Q1990.62 106.459 1989.08 106.459 Q1987.84 106.459 1987.16 105.965 Q1986.55 105.471 1985.93 103.68 L1956.59 26.0497 Q1955.36 22.653 1953.13 21.9736 Q1950.91 21.2325 1944.18 21.2325 Z" fill="#000000" fill-rule="evenodd" fill-opacity="1" /><path clip-path="url(#clip170)" d="M2040.83 103.68 L2040.83 99.7892 Q2047.56 99.7892 2049.11 98.9864 Q2050.65 98.1217 2050.65 94.0457 L2050.65 60.0168 Q2050.65 55.3232 2049.05 54.2115 Q2047.5 53.0999 2041.33 53.0999 L2041.33 49.1473 L2058.99 47.7886 L2058.99 94.1692 Q2058.99 97.9365 2060.35 98.8628 Q2061.71 99.7892 2067.88 99.7892 L2067.88 103.68 Q2054.97 103.309 2054.73 103.309 Q2053 103.309 2040.83 103.68 M2046.14 25.7409 Q2046.14 23.2088 2048.06 21.1708 Q2050.03 19.071 2052.81 19.071 Q2055.59 19.071 2057.57 20.9855 Q2059.54 22.8383 2059.54 25.8027 Q2059.54 28.7053 2057.57 30.6198 Q2055.59 32.4726 2052.81 32.4726 Q2049.91 32.4726 2048 30.4345 Q2046.14 28.3965 2046.14 25.7409 Z" fill="#000000" fill-rule="evenodd" fill-opacity="1" /><path clip-path="url(#clip170)" d="M2075.85 102.013 L2075.85 85.3378 Q2075.85 83.9173 2075.91 83.4232 Q2075.97 82.9292 2076.34 82.5586 Q2076.71 82.1881 2077.45 82.1881 Q2078.32 82.1881 2078.63 82.5586 Q2079 82.9292 2079.25 84.3496 Q2081.16 93.0576 2085.24 97.6894 Q2089.37 102.26 2096.85 102.26 Q2103.95 102.26 2107.53 99.1099 Q2111.11 95.9602 2111.11 90.7725 Q2111.11 81.5087 2097.96 79.1619 Q2090.36 77.618 2087.21 76.6298 Q2084.06 75.5799 2081.28 73.2949 Q2075.85 68.8483 2075.85 62.5489 Q2075.85 56.2495 2080.6 51.6177 Q2085.42 46.9858 2096.04 46.9858 Q2103.15 46.9858 2107.96 50.5678 Q2109.38 49.4561 2110.12 48.5297 Q2111.79 46.9858 2112.66 46.9858 Q2113.64 46.9858 2113.83 47.6651 Q2114.02 48.2827 2114.02 50.0737 L2114.02 62.7959 Q2114.02 64.2164 2113.95 64.7105 Q2113.89 65.2045 2113.52 65.5751 Q2113.15 65.8839 2112.35 65.8839 Q2110.93 65.8839 2110.87 64.7105 Q2109.88 49.3944 2096.04 49.3944 Q2088.57 49.3944 2085.24 52.297 Q2081.9 55.1379 2081.9 59.0287 Q2081.9 61.1902 2082.89 62.8577 Q2083.94 64.4634 2085.24 65.4516 Q2086.59 66.3779 2089.06 67.3043 Q2091.54 68.1689 2093.02 68.4777 Q2094.56 68.7865 2097.46 69.4041 Q2107.59 71.3186 2111.85 75.4564 Q2117.16 80.7676 2117.16 87.4993 Q2117.16 94.9721 2112.1 100.036 Q2107.04 105.1 2096.85 105.1 Q2088.63 105.1 2082.89 99.6039 Q2082.15 100.345 2081.59 101.024 Q2081.04 101.642 2080.79 101.889 Q2080.6 102.136 2080.54 102.321 Q2080.48 102.445 2080.36 102.568 Q2077.82 105.1 2077.21 105.1 Q2076.22 105.1 2076.03 104.421 Q2075.85 103.804 2075.85 102.013 Z" fill="#000000" fill-rule="evenodd" fill-opacity="1" /><path clip-path="url(#clip170)" d="M2125.5 53.0999 L2125.5 49.1473 L2144.09 47.7886 L2144.09 89.7844 Q2144.09 92.8105 2144.34 94.6015 Q2144.59 96.3308 2145.57 98.3688 Q2146.62 100.407 2148.97 101.333 Q2151.38 102.26 2155.21 102.26 Q2162.06 102.26 2166.26 96.6395 Q2170.52 91.0195 2170.52 82.6821 L2170.52 60.1403 Q2170.52 55.4467 2168.86 54.2733 Q2167.19 53.0999 2160.64 53.0999 L2160.64 49.1473 L2179.23 47.7886 L2179.23 92.687 Q2179.23 97.3806 2180.84 98.6158 Q2182.51 99.7892 2189.11 99.7892 L2189.11 103.68 L2170.89 105.1 L2170.89 93.6751 Q2165.58 105.039 2154.59 105.1 Q2149.03 105.1 2145.2 103.68 Q2141.44 102.26 2139.52 100.53 Q2137.61 98.7393 2136.56 95.3426 Q2135.57 91.9459 2135.45 89.8461 Q2135.32 87.7463 2135.32 83.6703 L2135.32 64.7105 Q2135.32 56.126 2134.09 54.6438 Q2132.85 53.0999 2125.5 53.0999 Z" fill="#000000" fill-rule="evenodd" fill-opacity="1" /><path clip-path="url(#clip170)" d="M2196.89 91.6371 Q2196.89 80.8912 2209.56 75.2094 Q2217.15 71.5656 2232.84 70.6393 L2232.84 66.0074 Q2232.84 58.1641 2228.7 54.0262 Q2224.62 49.8267 2219.44 49.8267 Q2210.17 49.8267 2205.73 55.632 Q2209.49 55.7555 2210.85 57.67 Q2212.21 59.5227 2212.21 61.4373 Q2212.21 63.9693 2210.61 65.6368 Q2209.06 67.2425 2206.41 67.2425 Q2203.87 67.2425 2202.21 65.6986 Q2200.54 64.0929 2200.54 61.3137 Q2200.54 55.1379 2206.1 51.0618 Q2211.72 46.9858 2219.68 46.9858 Q2230.06 46.9858 2236.98 53.9645 Q2239.14 56.126 2240.19 58.9052 Q2241.3 61.6843 2241.42 63.537 Q2241.55 65.328 2241.55 68.91 L2241.55 94.1692 Q2241.55 94.9103 2241.79 96.1455 Q2242.04 97.3806 2243.15 98.9864 Q2244.33 100.53 2246.24 100.53 Q2250.81 100.53 2250.75 92.44 L2250.75 85.3378 L2253.96 85.3378 L2253.96 92.44 Q2253.96 99.1716 2250.38 101.827 Q2246.86 104.421 2243.58 104.421 Q2239.38 104.421 2236.73 101.333 Q2234.07 98.2453 2233.7 94.0457 Q2231.79 98.8628 2227.4 102.013 Q2223.08 105.1 2217.15 105.1 Q2212.58 105.1 2208.26 103.927 Q2204 102.815 2200.42 99.6657 Q2196.89 96.4543 2196.89 91.6371 M2206.65 91.5136 Q2206.65 96.2072 2209.99 99.2334 Q2213.32 102.26 2218.02 102.26 Q2223.33 102.26 2228.08 98.1835 Q2232.84 94.0457 2232.84 85.9553 L2232.84 73.2949 Q2218.82 73.7889 2212.71 79.4089 Q2206.65 84.9672 2206.65 91.5136 Z" fill="#000000" fill-rule="evenodd" fill-opacity="1" /><path clip-path="url(#clip170)" d="M2259.02 103.68 L2259.02 99.7892 Q2265.76 99.7892 2267.3 98.9864 Q2268.84 98.1217 2268.84 94.0457 L2268.84 28.273 Q2268.84 23.5794 2267.18 22.4059 Q2265.57 21.2325 2259.02 21.2325 L2259.02 17.28 L2277.18 15.9213 L2277.18 94.0457 Q2277.18 98.1217 2278.79 98.9864 Q2280.39 99.7892 2287.06 99.7892 L2287.06 103.68 Q2285.52 103.68 2282.31 103.556 Q2279.1 103.433 2276.75 103.371 Q2274.4 103.309 2273.04 103.309 Q2271.56 103.309 2259.02 103.68 Z" fill="#000000" fill-rule="evenodd" fill-opacity="1" /><path clip-path="url(#clip170)" d="M2294.04 103.68 L2294.04 99.7892 Q2300.77 99.7892 2302.32 98.9864 Q2303.86 98.1217 2303.86 94.0457 L2303.86 60.0168 Q2303.86 55.3232 2302.25 54.2115 Q2300.71 53.0999 2294.53 53.0999 L2294.53 49.1473 L2312.2 47.7886 L2312.2 94.1692 Q2312.2 97.9365 2313.56 98.8628 Q2314.92 99.7892 2321.09 99.7892 L2321.09 103.68 Q2308.18 103.309 2307.94 103.309 Q2306.21 103.309 2294.04 103.68 M2299.35 25.7409 Q2299.35 23.2088 2301.27 21.1708 Q2303.24 19.071 2306.02 19.071 Q2308.8 19.071 2310.78 20.9855 Q2312.75 22.8383 2312.75 25.8027 Q2312.75 28.7053 2310.78 30.6198 Q2308.8 32.4726 2306.02 32.4726 Q2303.12 32.4726 2301.2 30.4345 Q2299.35 28.3965 2299.35 25.7409 Z" fill="#000000" fill-rule="evenodd" fill-opacity="1" /><path clip-path="url(#clip170)" d="M2328.38 101.889 Q2328.38 101.024 2329.55 99.6039 L2364.82 51.9265 L2350.43 51.9265 Q2340.42 51.9265 2337.15 55.632 Q2333.94 59.2757 2333.32 69.5276 L2330.17 69.5276 L2331.59 49.1473 L2372.04 49.1473 Q2373.46 49.1473 2374.02 49.2091 Q2374.57 49.2709 2374.94 49.7032 Q2375.31 50.0737 2375.31 50.8148 Q2375.31 51.5559 2374.2 52.9764 L2339 100.53 L2353.95 100.53 Q2364.45 100.53 2367.97 96.1455 Q2371.55 91.7606 2372.41 80.0265 L2375.56 80.0265 L2373.4 103.68 L2331.71 103.68 Q2329.68 103.68 2329 103.433 Q2328.38 103.124 2328.38 101.889 Z" fill="#000000" fill-rule="evenodd" fill-opacity="1" /><path clip-path="url(#clip170)" d="M2386.31 91.6371 Q2386.31 80.8912 2398.97 75.2094 Q2406.56 71.5656 2422.25 70.6393 L2422.25 66.0074 Q2422.25 58.1641 2418.11 54.0262 Q2414.04 49.8267 2408.85 49.8267 Q2399.59 49.8267 2395.14 55.632 Q2398.91 55.7555 2400.27 57.67 Q2401.62 59.5227 2401.62 61.4373 Q2401.62 63.9693 2400.02 65.6368 Q2398.47 67.2425 2395.82 67.2425 Q2393.29 67.2425 2391.62 65.6986 Q2389.95 64.0929 2389.95 61.3137 Q2389.95 55.1379 2395.51 51.0618 Q2401.13 46.9858 2409.1 46.9858 Q2419.47 46.9858 2426.39 53.9645 Q2428.55 56.126 2429.6 58.9052 Q2430.71 61.6843 2430.84 63.537 Q2430.96 65.328 2430.96 68.91 L2430.96 94.1692 Q2430.96 94.9103 2431.21 96.1455 Q2431.45 97.3806 2432.56 98.9864 Q2433.74 100.53 2435.65 100.53 Q2440.22 100.53 2440.16 92.44 L2440.16 85.3378 L2443.37 85.3378 L2443.37 92.44 Q2443.37 99.1716 2439.79 101.827 Q2436.27 104.421 2433 104.421 Q2428.8 104.421 2426.14 101.333 Q2423.49 98.2453 2423.12 94.0457 Q2421.2 98.8628 2416.82 102.013 Q2412.49 105.1 2406.56 105.1 Q2401.99 105.1 2397.67 103.927 Q2393.41 102.815 2389.83 99.6657 Q2386.31 96.4543 2386.31 91.6371 M2396.07 91.5136 Q2396.07 96.2072 2399.4 99.2334 Q2402.74 102.26 2407.43 102.26 Q2412.74 102.26 2417.5 98.1835 Q2422.25 94.0457 2422.25 85.9553 L2422.25 73.2949 Q2408.23 73.7889 2402.12 79.4089 Q2396.07 84.9672 2396.07 91.5136 Z" fill="#000000" fill-rule="evenodd" fill-opacity="1" /><path clip-path="url(#clip170)" d="M2446.65 53.0999 L2446.65 50.3207 Q2452.45 50.0737 2456.28 45.9977 Q2460.17 41.8598 2461.47 36.7957 Q2462.83 31.7315 2462.95 25.8644 L2466.1 25.8644 L2466.1 49.1473 L2484.19 49.1473 L2484.19 53.0999 L2466.1 53.0999 L2466.1 88.2404 Q2466.1 101.889 2474.62 101.889 Q2478.27 101.889 2480.67 98.1835 Q2483.08 94.4162 2483.08 87.7463 L2483.08 80.7676 L2486.23 80.7676 L2486.23 87.9934 Q2486.23 94.8485 2483.08 99.9745 Q2479.93 105.1 2473.7 105.1 Q2471.41 105.1 2469.13 104.483 Q2466.9 103.927 2463.94 102.445 Q2461.04 100.901 2459.18 97.1954 Q2457.39 93.4281 2457.39 87.9934 L2457.39 53.0999 L2446.65 53.0999 Z" fill="#000000" fill-rule="evenodd" fill-opacity="1" /><path clip-path="url(#clip170)" d="M2497.47 103.68 L2497.47 99.7892 Q2504.2 99.7892 2505.75 98.9864 Q2507.29 98.1217 2507.29 94.0457 L2507.29 60.0168 Q2507.29 55.3232 2505.69 54.2115 Q2504.14 53.0999 2497.97 53.0999 L2497.97 49.1473 L2515.63 47.7886 L2515.63 94.1692 Q2515.63 97.9365 2516.99 98.8628 Q2518.35 99.7892 2524.52 99.7892 L2524.52 103.68 Q2511.62 103.309 2511.37 103.309 Q2509.64 103.309 2497.47 103.68 M2502.78 25.7409 Q2502.78 23.2088 2504.7 21.1708 Q2506.68 19.071 2509.45 19.071 Q2512.23 19.071 2514.21 20.9855 Q2516.19 22.8383 2516.19 25.8027 Q2516.19 28.7053 2514.21 30.6198 Q2512.23 32.4726 2509.45 32.4726 Q2506.55 32.4726 2504.64 30.4345 Q2502.78 28.3965 2502.78 25.7409 Z" fill="#000000" fill-rule="evenodd" fill-opacity="1" /><path clip-path="url(#clip170)" d="M2540.15 96.8866 Q2531.81 88.611 2531.81 76.6298 Q2531.81 64.5869 2539.96 55.8172 Q2548.18 46.9858 2559.91 46.9858 Q2571.4 46.9858 2579.61 55.7555 Q2587.89 64.4634 2587.89 76.6298 Q2587.89 88.5492 2579.55 96.8248 Q2571.27 105.1 2559.79 105.1 Q2548.55 105.1 2540.15 96.8866 M2542.31 75.5799 Q2542.31 87.8698 2545.52 93.4281 Q2550.46 101.889 2559.91 101.889 Q2564.6 101.889 2568.5 99.3569 Q2572.45 96.8248 2574.61 92.5635 Q2577.39 87.0052 2577.39 75.5799 Q2577.39 63.4135 2574.05 58.0405 Q2569.11 49.8267 2559.79 49.8267 Q2555.71 49.8267 2551.7 51.9882 Q2547.74 54.088 2545.34 58.2876 Q2542.31 63.8458 2542.31 75.5799 Z" fill="#000000" fill-rule="evenodd" fill-opacity="1" /><path clip-path="url(#clip170)" d="M2595.61 103.68 L2595.61 99.7892 Q2602.34 99.7892 2603.88 98.9864 Q2605.43 98.1217 2605.43 94.0457 L2605.43 60.1403 Q2605.43 55.4467 2603.76 54.2733 Q2602.15 53.0999 2595.61 53.0999 L2595.61 49.1473 L2613.39 47.7886 L2613.39 61.0667 Q2619.32 47.7886 2632.11 47.7886 Q2641.62 47.7886 2645.38 52.4823 Q2648.16 55.632 2648.72 59.1522 Q2649.34 62.6724 2649.34 71.8127 L2649.34 95.9602 Q2649.46 98.6158 2651.5 99.2334 Q2653.54 99.7892 2659.22 99.7892 L2659.22 103.68 Q2646.31 103.309 2645.01 103.309 Q2644.03 103.309 2630.75 103.68 L2630.75 99.7892 Q2637.48 99.7892 2639.02 98.9864 Q2640.63 98.1217 2640.63 94.0457 L2640.63 64.5869 Q2640.63 58.1641 2638.65 54.3968 Q2636.68 50.5678 2631.24 50.5678 Q2624.7 50.5678 2619.45 56.0643 Q2614.2 61.5608 2614.2 70.8245 L2614.2 94.0457 Q2614.2 98.1217 2615.74 98.9864 Q2617.35 99.7892 2624.02 99.7892 L2624.02 103.68 Q2611.11 103.309 2609.87 103.309 Q2608.89 103.309 2595.61 103.68 Z" fill="#000000" fill-rule="evenodd" fill-opacity="1" /><polyline clip-path="url(#clip172)" style="stroke:#000000; stroke-linecap:butt; stroke-linejoin:round; stroke-width:4; stroke-opacity:1; fill:none" points="
  2417.77,1207.87 2401.05,1194.22 2384.33,1180.56 2367.65,1166.88 2351,1153.17 2334.41,1139.41 2317.88,1125.61 2301.43,1111.75 2285.08,1097.81 2268.83,1083.8 
  2252.7,1069.69 2236.7,1055.48 2220.85,1041.16 2205.16,1026.72 2189.64,1012.15 2174.31,997.43 2159.17,982.563 2144.25,967.535 2129.55,952.334 2115.09,936.95 
  2100.89,921.375 2086.94,905.597 2073.28,889.606 2059.91,873.392 2046.84,856.945 2034.09,840.256 2021.66,823.324 2009.53,806.159 1997.7,788.772 1986.14,771.172 
  1974.85,753.369 1963.81,735.374 1953.01,717.196 1942.43,698.846 1932.07,680.335 1921.9,661.671 1911.92,642.866 1902.12,623.929 1892.47,604.87 1882.97,585.7 
  1873.6,566.429 1864.35,547.066 1855.2,527.623 1846.15,508.109 1837.18,488.534 1828.27,468.908 1819.42,449.242 1810.61,429.545 1801.82,409.828 1793.05,390.101 
  
  "/>
<polyline clip-path="url(#clip172)" style="stroke:#000000; stroke-linecap:butt; stroke-linejoin:round; stroke-width:4; stroke-opacity:1; fill:none" points="
  2417.77,1207.87 2382.92,1202.34 2348.07,1196.79 2313.22,1191.21 2278.4,1185.58 2243.59,1179.89 2208.81,1174.11 2174.06,1168.25 2139.34,1162.27 2104.66,1156.16 
  2070.03,1149.91 2035.44,1143.5 2000.91,1136.91 1966.44,1130.14 1932.03,1123.15 1897.69,1115.94 1863.43,1108.5 1829.24,1100.8 1795.14,1092.82 1761.13,1084.57 
  1727.21,1076 1693.38,1067.12 1659.67,1057.91 1626.06,1048.34 1592.56,1038.41 1559.18,1028.09 1525.92,1017.4 1492.77,1006.34 1459.74,994.921 1426.8,983.173 
  1393.96,971.106 1361.22,958.736 1328.56,946.079 1295.99,933.151 1263.5,919.969 1231.08,906.547 1198.73,892.902 1166.45,879.05 1134.22,865.006 1102.05,850.787 
  1069.93,836.409 1037.85,821.887 1005.81,807.238 973.806,792.477 941.831,777.621 909.881,762.685 877.95,747.685 846.034,732.638 814.128,717.558 782.227,702.463 
  
  "/>
<polyline clip-path="url(#clip172)" style="stroke:#000000; stroke-linecap:butt; stroke-linejoin:round; stroke-width:4; stroke-opacity:1; fill:none" points="
  1793.05,390.101 1773.9,401.257 1754.74,412.397 1735.58,423.504 1716.39,434.564 1697.19,445.561 1677.97,456.477 1658.71,467.298 1639.42,478.008 1620.09,488.589 
  1600.72,499.028 1581.3,509.307 1561.82,519.411 1542.29,529.323 1522.69,539.028 1503.02,548.51 1483.27,557.753 1463.45,566.741 1443.55,575.458 1423.55,583.889 
  1403.47,592.016 1383.28,599.824 1362.99,607.298 1342.59,614.421 1322.08,621.178 1301.45,627.553 1280.71,633.546 1259.85,639.172 1238.88,644.447 1217.81,649.388 
  1196.63,654.01 1175.37,658.33 1154.02,662.362 1132.58,666.124 1111.07,669.63 1089.48,672.897 1067.82,675.942 1046.1,678.779 1024.31,681.424 1002.48,683.895 
  980.594,686.206 958.665,688.373 936.696,690.414 914.693,692.342 892.661,694.175 870.604,695.928 848.527,697.618 826.435,699.259 804.334,700.869 782.227,702.463 
  
  "/>
<polyline clip-path="url(#clip172)" style="stroke:#000000; stroke-linecap:butt; stroke-linejoin:round; stroke-width:4; stroke-opacity:1; fill:none" points="
  782.227,702.463 787.231,723.092 792.219,743.721 797.172,764.35 802.076,784.979 806.914,805.608 811.667,826.237 816.321,846.866 820.858,867.495 825.261,888.124 
  829.515,908.753 833.601,929.382 837.504,950.011 841.207,970.64 844.693,991.269 847.945,1011.9 850.947,1032.53 853.682,1053.16 856.134,1073.79 858.285,1094.41 
  860.12,1115.04 861.62,1135.67 862.771,1156.3 863.554,1176.93 863.954,1197.56 863.954,1218.19 863.554,1238.82 862.771,1259.45 861.62,1280.08 860.12,1300.7 
  858.285,1321.33 856.134,1341.96 853.682,1362.59 850.947,1383.22 847.945,1403.85 844.693,1424.48 841.207,1445.11 837.504,1465.74 833.601,1486.37 829.515,1507 
  825.261,1527.62 820.858,1548.25 816.321,1568.88 811.667,1589.51 806.914,1610.14 802.076,1630.77 797.172,1651.4 792.219,1672.03 787.231,1692.66 782.227,1713.29 
  
  "/>
<polyline clip-path="url(#clip172)" style="stroke:#000000; stroke-linecap:butt; stroke-linejoin:round; stroke-width:4; stroke-opacity:1; fill:none" points="
  782.227,702.463 798.88,732.504 815.546,762.535 832.238,792.547 848.97,822.527 865.755,852.468 882.607,882.357 899.538,912.186 916.562,941.944 933.691,971.621 
  950.94,1001.21 968.322,1030.69 985.85,1060.06 1003.54,1089.32 1021.4,1118.44 1039.44,1147.41 1057.68,1176.24 1076.14,1204.9 1094.82,1233.4 1113.74,1261.71 
  1132.91,1289.82 1152.35,1317.74 1172.06,1345.44 1192.07,1372.92 1212.38,1400.17 1233.01,1427.17 1253.96,1453.93 1275.21,1480.46 1296.75,1506.76 1318.57,1532.86 
  1340.66,1558.75 1363,1584.45 1385.57,1609.96 1408.38,1635.3 1431.39,1660.49 1454.61,1685.51 1478,1710.4 1501.58,1735.16 1525.31,1759.79 1549.18,1784.32 
  1573.19,1808.74 1597.32,1833.07 1621.55,1857.32 1645.88,1881.5 1670.29,1905.61 1694.76,1929.68 1719.29,1953.71 1743.85,1977.7 1768.44,2001.68 1793.05,2025.65 
  
  "/>
<polyline clip-path="url(#clip172)" style="stroke:#000000; stroke-linecap:butt; stroke-linejoin:round; stroke-width:4; stroke-opacity:1; fill:none" points="
  782.227,1713.29 801.379,1724.44 820.535,1735.58 839.702,1746.69 858.883,1757.75 878.084,1768.74 897.309,1779.66 916.565,1790.48 935.854,1801.19 955.183,1811.77 
  974.556,1822.21 993.979,1832.49 1013.46,1842.59 1032.99,1852.51 1052.59,1862.21 1072.26,1871.69 1092,1880.94 1111.82,1889.93 1131.73,1898.64 1151.72,1907.07 
  1171.81,1915.2 1192,1923.01 1212.29,1930.48 1232.68,1937.61 1253.19,1944.36 1273.82,1950.74 1294.57,1956.73 1315.43,1962.36 1336.4,1967.63 1357.47,1972.57 
  1378.64,1977.19 1399.91,1981.51 1421.26,1985.55 1442.7,1989.31 1464.21,1992.81 1485.8,1996.08 1507.46,1999.13 1529.18,2001.96 1550.96,2004.61 1572.8,2007.08 
  1594.68,2009.39 1616.61,2011.56 1638.58,2013.6 1660.58,2015.53 1682.62,2017.36 1704.67,2019.11 1726.75,2020.8 1748.84,2022.44 1770.94,2024.05 1793.05,2025.65 
  
  "/>
<path clip-path="url(#clip172)" d="
M2561.29 1207.87 L2489.53 1083.58 L2346.01 1083.58 L2274.25 1207.87 L2346.01 1332.17 L2489.53 1332.17 L2561.29 1207.87 L2561.29 1207.87  Z
  " fill="#f5fffa" fill-rule="evenodd" fill-opacity="1"/>
<polyline clip-path="url(#clip172)" style="stroke:#000000; stroke-linecap:butt; stroke-linejoin:round; stroke-width:4; stroke-opacity:1; fill:none" points="
  2561.29,1207.87 2489.53,1083.58 2346.01,1083.58 2274.25,1207.87 2346.01,1332.17 2489.53,1332.17 2561.29,1207.87 
  "/>
<path clip-path="url(#clip172)" d="
M1936.57 390.101 L1864.81 265.808 L1721.29 265.808 L1649.53 390.101 L1721.29 514.395 L1864.81 514.395 L1936.57 390.101 L1936.57 390.101  Z
  " fill="#f5fffa" fill-rule="evenodd" fill-opacity="1"/>
<polyline clip-path="url(#clip172)" style="stroke:#000000; stroke-linecap:butt; stroke-linejoin:round; stroke-width:4; stroke-opacity:1; fill:none" points="
  1936.57,390.101 1864.81,265.808 1721.29,265.808 1649.53,390.101 1721.29,514.395 1864.81,514.395 1936.57,390.101 
  "/>
<path clip-path="url(#clip172)" d="
M925.749 702.463 L853.988 578.169 L710.466 578.169 L638.706 702.463 L710.466 826.756 L853.988 826.756 L925.749 702.463 L925.749 702.463  Z
  " fill="#f5fffa" fill-rule="evenodd" fill-opacity="1"/>
<polyline clip-path="url(#clip172)" style="stroke:#000000; stroke-linecap:butt; stroke-linejoin:round; stroke-width:4; stroke-opacity:1; fill:none" points="
  925.749,702.463 853.988,578.169 710.466,578.169 638.706,702.463 710.466,826.756 853.988,826.756 925.749,702.463 
  "/>
<path clip-path="url(#clip172)" d="
M925.749 1713.29 L853.988 1588.99 L710.466 1588.99 L638.706 1713.29 L710.466 1837.58 L853.988 1837.58 L925.749 1713.29 L925.749 1713.29  Z
  " fill="#f5fffa" fill-rule="evenodd" fill-opacity="1"/>
<polyline clip-path="url(#clip172)" style="stroke:#000000; stroke-linecap:butt; stroke-linejoin:round; stroke-width:4; stroke-opacity:1; fill:none" points="
  925.749,1713.29 853.988,1588.99 710.466,1588.99 638.706,1713.29 710.466,1837.58 853.988,1837.58 925.749,1713.29 
  "/>
<path clip-path="url(#clip172)" d="
M1936.57 2025.65 L1864.81 1901.35 L1721.29 1901.35 L1649.53 2025.65 L1721.29 2149.94 L1864.81 2149.94 L1936.57 2025.65 L1936.57 2025.65  Z
  " fill="#f5fffa" fill-rule="evenodd" fill-opacity="1"/>
<polyline clip-path="url(#clip172)" style="stroke:#000000; stroke-linecap:butt; stroke-linejoin:round; stroke-width:4; stroke-opacity:1; fill:none" points="
  1936.57,2025.65 1864.81,1901.35 1721.29,1901.35 1649.53,2025.65 1721.29,2149.94 1864.81,2149.94 1936.57,2025.65 
  "/>
<circle clip-path="url(#clip172)" style="fill:#f5fffa; stroke:none; fill-opacity:1" cx="2417.77" cy="1207.87" r="2"/>
<circle clip-path="url(#clip172)" style="fill:#f5fffa; stroke:none; fill-opacity:1" cx="1793.05" cy="390.101" r="2"/>
<circle clip-path="url(#clip172)" style="fill:#f5fffa; stroke:none; fill-opacity:1" cx="782.227" cy="702.463" r="2"/>
<circle clip-path="url(#clip172)" style="fill:#f5fffa; stroke:none; fill-opacity:1" cx="782.227" cy="1713.29" r="2"/>
<circle clip-path="url(#clip172)" style="fill:#f5fffa; stroke:none; fill-opacity:1" cx="1793.05" cy="2025.65" r="2"/>
<path clip-path="url(#clip170)" d="M2405.11 1195.45 Q2401.95 1195.45 2400.35 1198.57 Q2398.77 1201.67 2398.77 1207.9 Q2398.77 1214.12 2400.35 1217.24 Q2401.95 1220.34 2405.11 1220.34 Q2408.29 1220.34 2409.87 1217.24 Q2411.47 1214.12 2411.47 1207.9 Q2411.47 1201.67 2409.87 1198.57 Q2408.29 1195.45 2405.11 1195.45 M2405.11 1192.21 Q2410.2 1192.21 2412.87 1196.24 Q2415.57 1200.25 2415.57 1207.9 Q2415.57 1215.54 2412.87 1219.57 Q2410.2 1223.58 2405.11 1223.58 Q2400.03 1223.58 2397.34 1219.57 Q2394.66 1215.54 2394.66 1207.9 Q2394.66 1200.25 2397.34 1196.24 Q2400.03 1192.21 2405.11 1192.21 Z" fill="#000000" fill-rule="evenodd" fill-opacity="1" /><path clip-path="url(#clip170)" d="M2423.46 1219.55 L2430.15 1219.55 L2430.15 1196.48 L2422.88 1197.94 L2422.88 1194.21 L2430.11 1192.75 L2434.2 1192.75 L2434.2 1219.55 L2440.88 1219.55 L2440.88 1222.99 L2423.46 1222.99 L2423.46 1219.55 Z" fill="#000000" fill-rule="evenodd" fill-opacity="1" /><path clip-path="url(#clip170)" d="M1780.55 377.675 Q1777.39 377.675 1775.79 380.794 Q1774.21 383.893 1774.21 390.132 Q1774.21 396.35 1775.79 399.469 Q1777.39 402.568 1780.55 402.568 Q1783.73 402.568 1785.31 399.469 Q1786.91 396.35 1786.91 390.132 Q1786.91 383.893 1785.31 380.794 Q1783.73 377.675 1780.55 377.675 M1780.55 374.434 Q1785.64 374.434 1788.31 378.465 Q1791 382.475 1791 390.132 Q1791 397.768 1788.31 401.798 Q1785.64 405.809 1780.55 405.809 Q1775.47 405.809 1772.78 401.798 Q1770.1 397.768 1770.1 390.132 Q1770.1 382.475 1772.78 378.465 Q1775.47 374.434 1780.55 374.434 Z" fill="#000000" fill-rule="evenodd" fill-opacity="1" /><path clip-path="url(#clip170)" d="M1801.72 401.778 L1816 401.778 L1816 405.221 L1796.8 405.221 L1796.8 401.778 Q1799.13 399.368 1803.14 395.317 Q1807.17 391.246 1808.2 390.071 Q1810.17 387.863 1810.93 386.344 Q1811.72 384.805 1811.72 383.326 Q1811.72 380.916 1810.02 379.397 Q1808.34 377.878 1805.63 377.878 Q1803.7 377.878 1801.56 378.546 Q1799.43 379.214 1797 380.571 L1797 376.44 Q1799.47 375.447 1801.62 374.941 Q1803.76 374.434 1805.55 374.434 Q1810.25 374.434 1813.04 376.784 Q1815.84 379.133 1815.84 383.063 Q1815.84 384.926 1815.13 386.607 Q1814.44 388.268 1812.6 390.537 Q1812.09 391.124 1809.38 393.939 Q1806.66 396.735 1801.72 401.778 Z" fill="#000000" fill-rule="evenodd" fill-opacity="1" /><path clip-path="url(#clip170)" d="M769.315 690.036 Q766.155 690.036 764.555 693.156 Q762.975 696.255 762.975 702.493 Q762.975 708.711 764.555 711.83 Q766.155 714.929 769.315 714.929 Q772.495 714.929 774.075 711.83 Q775.675 708.711 775.675 702.493 Q775.675 696.255 774.075 693.156 Q772.495 690.036 769.315 690.036 M769.315 686.796 Q774.399 686.796 777.072 690.826 Q779.766 694.837 779.766 702.493 Q779.766 710.129 777.072 714.16 Q774.399 718.17 769.315 718.17 Q764.231 718.17 761.537 714.16 Q758.864 710.129 758.864 702.493 Q758.864 694.837 761.537 690.826 Q764.231 686.796 769.315 686.796 Z" fill="#000000" fill-rule="evenodd" fill-opacity="1" /><path clip-path="url(#clip170)" d="M799.352 701.278 Q802.289 701.906 803.93 703.891 Q805.591 705.876 805.591 708.792 Q805.591 713.268 802.512 715.719 Q799.433 718.17 793.762 718.17 Q791.858 718.17 789.833 717.785 Q787.828 717.421 785.681 716.671 L785.681 712.722 Q787.382 713.714 789.407 714.22 Q791.433 714.727 793.641 714.727 Q797.489 714.727 799.494 713.208 Q801.52 711.689 801.52 708.792 Q801.52 706.119 799.636 704.62 Q797.773 703.101 794.431 703.101 L790.906 703.101 L790.906 699.738 L794.593 699.738 Q797.611 699.738 799.211 698.543 Q800.811 697.328 800.811 695.06 Q800.811 692.73 799.15 691.495 Q797.509 690.239 794.431 690.239 Q792.749 690.239 790.825 690.604 Q788.901 690.968 786.592 691.738 L786.592 688.092 Q788.921 687.444 790.947 687.12 Q792.992 686.796 794.795 686.796 Q799.454 686.796 802.168 688.922 Q804.882 691.029 804.882 694.634 Q804.882 697.146 803.444 698.888 Q802.006 700.609 799.352 701.278 Z" fill="#000000" fill-rule="evenodd" fill-opacity="1" /><path clip-path="url(#clip170)" d="M768.819 1700.86 Q765.659 1700.86 764.059 1703.98 Q762.479 1707.08 762.479 1713.32 Q762.479 1719.53 764.059 1722.65 Q765.659 1725.75 768.819 1725.75 Q771.999 1725.75 773.579 1722.65 Q775.179 1719.53 775.179 1713.32 Q775.179 1707.08 773.579 1703.98 Q771.999 1700.86 768.819 1700.86 M768.819 1697.62 Q773.903 1697.62 776.576 1701.65 Q779.27 1705.66 779.27 1713.32 Q779.27 1720.95 776.576 1724.98 Q773.903 1728.99 768.819 1728.99 Q763.735 1728.99 761.041 1724.98 Q758.367 1720.95 758.367 1713.32 Q758.367 1705.66 761.041 1701.65 Q763.735 1697.62 768.819 1697.62 Z" fill="#000000" fill-rule="evenodd" fill-opacity="1" /><path clip-path="url(#clip170)" d="M797.702 1701.73 L787.372 1717.87 L797.702 1717.87 L797.702 1701.73 M796.628 1698.17 L801.773 1698.17 L801.773 1717.87 L806.087 1717.87 L806.087 1721.28 L801.773 1721.28 L801.773 1728.41 L797.702 1728.41 L797.702 1721.28 L784.05 1721.28 L784.05 1717.33 L796.628 1698.17 Z" fill="#000000" fill-rule="evenodd" fill-opacity="1" /><path clip-path="url(#clip170)" d="M1780.29 2013.22 Q1777.13 2013.22 1775.53 2016.34 Q1773.95 2019.44 1773.95 2025.68 Q1773.95 2031.9 1775.53 2035.01 Q1777.13 2038.11 1780.29 2038.11 Q1783.47 2038.11 1785.05 2035.01 Q1786.65 2031.9 1786.65 2025.68 Q1786.65 2019.44 1785.05 2016.34 Q1783.47 2013.22 1780.29 2013.22 M1780.29 2009.98 Q1785.37 2009.98 1788.05 2014.01 Q1790.74 2018.02 1790.74 2025.68 Q1790.74 2033.31 1788.05 2037.34 Q1785.37 2041.35 1780.29 2041.35 Q1775.21 2041.35 1772.51 2037.34 Q1769.84 2033.31 1769.84 2025.68 Q1769.84 2018.02 1772.51 2014.01 Q1775.21 2009.98 1780.29 2009.98 Z" fill="#000000" fill-rule="evenodd" fill-opacity="1" /><path clip-path="url(#clip170)" d="M1797.97 2010.53 L1814.03 2010.53 L1814.03 2013.97 L1801.72 2013.97 L1801.72 2021.38 Q1802.61 2021.08 1803.5 2020.94 Q1804.39 2020.78 1805.28 2020.78 Q1810.35 2020.78 1813.3 2023.55 Q1816.26 2026.33 1816.26 2031.06 Q1816.26 2035.95 1813.22 2038.66 Q1810.19 2041.35 1804.66 2041.35 Q1802.75 2041.35 1800.77 2041.03 Q1798.8 2040.71 1796.7 2040.06 L1796.7 2035.95 Q1798.52 2036.94 1800.46 2037.42 Q1802.41 2037.91 1804.57 2037.91 Q1808.08 2037.91 1810.12 2036.07 Q1812.17 2034.22 1812.17 2031.06 Q1812.17 2027.91 1810.12 2026.06 Q1808.08 2024.22 1804.57 2024.22 Q1802.93 2024.22 1801.29 2024.58 Q1799.67 2024.95 1797.97 2025.72 L1797.97 2010.53 Z" fill="#000000" fill-rule="evenodd" fill-opacity="1" /></svg>
