<?xml version="1.0" encoding="utf-8"?>
<svg xmlns="http://www.w3.org/2000/svg" xmlns:xlink="http://www.w3.org/1999/xlink" width="800" height="600" viewBox="0 0 3200 2400">
<defs>
  <clipPath id="clip650">
    <rect x="0" y="0" width="3200" height="2400"/>
  </clipPath>
</defs>
<path clip-path="url(#clip650)" d="M0 2400 L3200 2400 L3200 0 L0 0  Z" fill="#ffffff" fill-rule="evenodd" fill-opacity="1"/>
<defs>
  <clipPath id="clip651">
    <rect x="640" y="0" width="2241" height="2241"/>
  </clipPath>
</defs>
<path clip-path="url(#clip650)" d="M455.118 2352.76 L2744.88 2352.76 L2744.88 62.9921 L455.118 62.9921  Z" fill="#ffffff" fill-rule="evenodd" fill-opacity="1"/>
<defs>
  <clipPath id="clip652">
    <rect x="455" y="62" width="2291" height="2291"/>
  </clipPath>
</defs>
<path clip-path="url(#clip650)" d="M715.99 103.68 L715.99 99.7892 L719.016 99.7892 Q725.872 99.7892 727.416 98.6776 Q729.021 97.5042 729.021 93.7987 L729.021 27.1613 Q729.021 23.5176 727.416 22.4059 Q725.81 21.2325 719.016 21.2325 L715.99 21.2325 L715.99 17.28 L755.701 17.28 Q769.473 17.28 779.046 24.0734 Q788.68 30.8051 788.68 40.0688 Q788.68 47.1711 782.442 52.7293 Q776.205 58.2876 766.57 60.6962 Q779.107 65.0192 782.01 75.3329 L783.616 85.4613 Q784.11 89.105 784.419 90.9578 Q784.789 92.8105 785.345 95.3426 Q785.901 97.8747 786.457 99.1099 Q787.074 100.283 787.939 101.58 Q788.803 102.815 789.915 103.248 Q791.088 103.68 792.632 103.68 Q795.535 103.68 798.005 101.086 Q800.476 98.4923 800.97 92.44 Q801.217 90.4019 802.514 90.4019 Q804.12 90.4019 804.12 92.44 Q804.12 94.231 803.625 96.3308 Q803.131 98.3688 801.896 100.777 Q800.723 103.186 798.129 104.792 Q795.535 106.459 792.138 106.459 Q782.257 106.459 776.205 101.148 Q773.673 98.8628 772.499 95.8984 Q771.388 92.934 771.202 90.5872 Q771.017 88.2404 771.017 83.0527 Q771.017 75.7034 770.214 72.492 Q769.473 69.2806 766.2 66.1309 Q761.753 61.8078 754.404 61.8078 L739.891 61.8078 L739.891 93.7987 Q739.891 97.4424 741.435 98.6158 Q743.04 99.7892 749.896 99.7892 L752.922 99.7892 L752.922 103.68 Q748.352 103.309 734.456 103.309 Q720.56 103.309 715.99 103.68 M739.891 59.0287 L753.91 59.0287 Q760.642 59.0287 765.15 57.423 Q769.72 55.7555 771.882 52.7911 Q774.043 49.8267 774.846 46.8623 Q775.649 43.8361 775.649 40.0688 Q775.649 35.6222 774.661 32.2873 Q773.673 28.9523 771.511 26.9761 Q769.35 24.9998 767.188 23.7646 Q765.026 22.4677 761.691 21.9736 Q758.357 21.4796 756.071 21.3561 Q753.786 21.2325 750.143 21.2325 Q743.967 21.2325 742.67 21.4796 Q741.249 21.6031 740.694 22.2824 Q740.138 22.9618 740.014 23.7646 Q739.891 24.5057 739.891 26.2967 L739.891 59.0287 Z" fill="#000000" fill-rule="nonzero" fill-opacity="1" /><path clip-path="url(#clip650)" d="M809.925 91.6371 Q809.925 80.8912 822.585 75.2094 Q830.182 71.5656 845.868 70.6393 L845.868 66.0074 Q845.868 58.1641 841.73 54.0262 Q837.654 49.8267 832.467 49.8267 Q823.203 49.8267 818.756 55.632 Q822.524 55.7555 823.882 57.67 Q825.241 59.5227 825.241 61.4373 Q825.241 63.9693 823.635 65.6368 Q822.091 67.2425 819.436 67.2425 Q816.904 67.2425 815.236 65.6986 Q813.569 64.0929 813.569 61.3137 Q813.569 55.1379 819.127 51.0618 Q824.747 46.9858 832.714 46.9858 Q843.089 46.9858 850.006 53.9645 Q852.168 56.126 853.217 58.9052 Q854.329 61.6843 854.453 63.537 Q854.576 65.328 854.576 68.91 L854.576 94.1692 Q854.576 94.9103 854.823 96.1455 Q855.07 97.3806 856.182 98.9864 Q857.355 100.53 859.27 100.53 Q863.84 100.53 863.778 92.44 L863.778 85.3378 L866.99 85.3378 L866.99 92.44 Q866.99 99.1716 863.408 101.827 Q859.887 104.421 856.614 104.421 Q852.415 104.421 849.759 101.333 Q847.103 98.2453 846.733 94.0457 Q844.818 98.8628 840.433 102.013 Q836.11 105.1 830.182 105.1 Q825.611 105.1 821.288 103.927 Q817.027 102.815 813.445 99.6657 Q809.925 96.4543 809.925 91.6371 M819.683 91.5136 Q819.683 96.2072 823.018 99.2334 Q826.353 102.26 831.046 102.26 Q836.357 102.26 841.113 98.1835 Q845.868 94.0457 845.868 85.9553 L845.868 73.2949 Q831.849 73.7889 825.735 79.4089 Q819.683 84.9672 819.683 91.5136 Z" fill="#000000" fill-rule="nonzero" fill-opacity="1" /><path clip-path="url(#clip650)" d="M871.93 103.68 L871.93 99.7892 Q878.662 99.7892 880.206 98.9864 Q881.75 98.1217 881.75 94.0457 L881.75 60.1403 Q881.75 55.4467 880.082 54.2733 Q878.477 53.0999 871.93 53.0999 L871.93 49.1473 L889.717 47.7886 L889.717 61.0667 Q895.645 47.7886 908.429 47.7886 Q917.94 47.7886 921.708 52.4823 Q924.487 55.632 925.042 59.1522 Q925.66 62.6724 925.66 71.8127 L925.66 95.9602 Q925.784 98.6158 927.822 99.2334 Q929.86 99.7892 935.541 99.7892 L935.541 103.68 Q922.634 103.309 921.337 103.309 Q920.349 103.309 907.071 103.68 L907.071 99.7892 Q913.802 99.7892 915.346 98.9864 Q916.952 98.1217 916.952 94.0457 L916.952 64.5869 Q916.952 58.1641 914.976 54.3968 Q913 50.5678 907.565 50.5678 Q901.018 50.5678 895.769 56.0643 Q890.52 61.5608 890.52 70.8245 L890.52 94.0457 Q890.52 98.1217 892.063 98.9864 Q893.669 99.7892 900.339 99.7892 L900.339 103.68 Q887.432 103.309 886.196 103.309 Q885.208 103.309 871.93 103.68 Z" fill="#000000" fill-rule="nonzero" fill-opacity="1" /><path clip-path="url(#clip650)" d="M942.335 76.5063 Q942.335 64.4634 950.734 56.126 Q959.133 47.7886 970.497 47.7886 Q980.131 47.7886 986.43 55.632 L986.43 28.273 Q986.43 23.5794 984.763 22.4059 Q983.157 21.2325 976.611 21.2325 L976.611 17.28 L994.829 15.9213 L994.829 92.687 Q994.829 97.3806 996.435 98.6158 Q998.103 99.7892 1004.65 99.7892 L1004.65 103.68 L986.06 105.1 L986.06 96.7013 Q979.513 105.039 969.138 105.1 Q958.268 105.1 950.302 96.7631 Q942.335 88.4257 942.335 76.5063 M952.834 76.6298 Q952.834 88.3639 956.477 94.1692 Q961.542 102.26 969.756 102.26 Q979.143 102.26 984.701 93.4281 Q986.122 91.2666 986.06 88.7345 L986.06 62.7959 Q986.06 60.2638 984.701 58.1641 Q979.513 50.5678 971.052 50.5678 Q962.221 50.5678 956.725 58.6581 Q952.834 64.7105 952.834 76.6298 Z" fill="#000000" fill-rule="nonzero" fill-opacity="1" /><path clip-path="url(#clip650)" d="M1020.03 96.8866 Q1011.69 88.611 1011.69 76.6298 Q1011.69 64.5869 1019.84 55.8172 Q1028.06 46.9858 1039.79 46.9858 Q1051.28 46.9858 1059.49 55.7555 Q1067.77 64.4634 1067.77 76.6298 Q1067.77 88.5492 1059.43 96.8248 Q1051.15 105.1 1039.67 105.1 Q1028.43 105.1 1020.03 96.8866 M1022.19 75.5799 Q1022.19 87.8698 1025.4 93.4281 Q1030.34 101.889 1039.79 101.889 Q1044.48 101.889 1048.37 99.3569 Q1052.33 96.8248 1054.49 92.5635 Q1057.27 87.0052 1057.27 75.5799 Q1057.27 63.4135 1053.93 58.0405 Q1048.99 49.8267 1039.67 49.8267 Q1035.59 49.8267 1031.58 51.9882 Q1027.62 54.088 1025.21 58.2876 Q1022.19 63.8458 1022.19 75.5799 Z" fill="#000000" fill-rule="nonzero" fill-opacity="1" /><path clip-path="url(#clip650)" d="M1075.49 103.68 L1075.49 99.7892 Q1082.22 99.7892 1083.76 98.9864 Q1085.31 98.1217 1085.31 94.0457 L1085.31 60.1403 Q1085.31 55.4467 1083.64 54.2733 Q1082.03 53.0999 1075.49 53.0999 L1075.49 49.1473 L1093.27 47.7886 L1093.27 61.0667 Q1099.2 47.7886 1111.99 47.7886 Q1126.81 47.7886 1128.85 60.1403 Q1131.01 55.3232 1135.52 51.5559 Q1140.09 47.7886 1147.19 47.7886 Q1156.7 47.7886 1160.47 52.4823 Q1163.24 55.632 1163.8 59.1522 Q1164.36 62.6724 1164.36 71.8127 L1164.36 95.9602 Q1164.48 98.6158 1166.52 99.2334 Q1168.56 99.7892 1174.24 99.7892 L1174.24 103.68 Q1161.33 103.309 1160.09 103.309 Q1159.11 103.309 1145.77 103.68 L1145.77 99.7892 Q1152.5 99.7892 1154.04 98.9864 Q1155.65 98.1217 1155.65 94.0457 L1155.65 64.5869 Q1155.65 58.1641 1153.67 54.3968 Q1151.7 50.5678 1146.26 50.5678 Q1139.71 50.5678 1134.47 56.0643 Q1129.22 61.5608 1129.22 70.8245 L1129.22 94.0457 Q1129.22 98.1217 1130.76 98.9864 Q1132.37 99.7892 1139.1 99.7892 L1139.1 103.68 Q1126.19 103.309 1124.89 103.309 Q1123.9 103.309 1110.63 103.68 L1110.63 99.7892 Q1117.36 99.7892 1118.9 98.9864 Q1120.51 98.1217 1120.51 94.0457 L1120.51 64.5869 Q1120.51 58.1641 1118.53 54.3968 Q1116.56 50.5678 1111.12 50.5678 Q1104.57 50.5678 1099.32 56.0643 Q1094.08 61.5608 1094.08 70.8245 L1094.08 94.0457 Q1094.08 98.1217 1095.62 98.9864 Q1097.22 99.7892 1103.89 99.7892 L1103.89 103.68 Q1090.99 103.309 1089.75 103.309 Q1088.76 103.309 1075.49 103.68 Z" fill="#000000" fill-rule="nonzero" fill-opacity="1" /><path clip-path="url(#clip650)" d="M1221.05 21.2325 L1221.05 17.28 Q1222.84 17.28 1226.05 17.4035 Q1229.26 17.527 1231.8 17.5888 Q1234.33 17.6506 1236.49 17.6506 Q1249.89 17.6506 1254.46 17.28 L1254.46 21.2325 Q1243.84 21.2325 1243.84 24.9998 Q1243.84 25.8644 1244.09 26.6673 L1264.4 88.858 L1282.01 34.6341 L1279.23 25.7409 Q1278.24 22.5912 1276.08 21.9119 Q1273.92 21.2325 1267.86 21.2325 L1267.86 17.28 Q1269.65 17.28 1272.87 17.4035 Q1276.08 17.527 1278.61 17.5888 Q1281.14 17.6506 1283.24 17.6506 Q1296.64 17.6506 1301.21 17.28 L1301.21 21.2325 Q1290.59 21.2325 1290.59 24.9998 Q1290.59 25.3704 1290.96 26.9143 L1311.22 88.858 L1330.18 30.4345 Q1330.8 28.52 1330.86 27.9024 Q1330.86 25.6174 1328.2 23.5176 Q1325.55 21.3561 1319.8 21.2325 L1319.8 17.28 Q1329.68 17.6506 1334.87 17.6506 Q1340.68 17.6506 1346.36 17.28 L1346.36 21.2325 Q1336.35 21.2325 1333.76 29.6934 L1309.55 103.927 Q1309.3 104.915 1309.12 105.347 Q1308.93 105.842 1308.44 106.15 Q1307.94 106.459 1307.08 106.459 Q1305.41 106.459 1304.67 104.051 L1283.67 39.6983 L1262.8 103.927 Q1262.55 104.915 1262.31 105.347 Q1262.12 105.842 1261.63 106.15 Q1261.13 106.459 1260.27 106.459 Q1258.6 106.459 1257.86 104.051 L1232.54 26.5438 Q1231.43 22.9 1229.7 22.0972 Q1228.03 21.2325 1221.05 21.2325 Z" fill="#000000" fill-rule="nonzero" fill-opacity="1" /><path clip-path="url(#clip650)" d="M1343.46 91.6371 Q1343.46 80.8912 1356.12 75.2094 Q1363.71 71.5656 1379.4 70.6393 L1379.4 66.0074 Q1379.4 58.1641 1375.26 54.0262 Q1371.19 49.8267 1366 49.8267 Q1356.73 49.8267 1352.29 55.632 Q1356.05 55.7555 1357.41 57.67 Q1358.77 59.5227 1358.77 61.4373 Q1358.77 63.9693 1357.17 65.6368 Q1355.62 67.2425 1352.97 67.2425 Q1350.43 67.2425 1348.77 65.6986 Q1347.1 64.0929 1347.1 61.3137 Q1347.1 55.1379 1352.66 51.0618 Q1358.28 46.9858 1366.24 46.9858 Q1376.62 46.9858 1383.54 53.9645 Q1385.7 56.126 1386.75 58.9052 Q1387.86 61.6843 1387.98 63.537 Q1388.11 65.328 1388.11 68.91 L1388.11 94.1692 Q1388.11 94.9103 1388.35 96.1455 Q1388.6 97.3806 1389.71 98.9864 Q1390.89 100.53 1392.8 100.53 Q1397.37 100.53 1397.31 92.44 L1397.31 85.3378 L1400.52 85.3378 L1400.52 92.44 Q1400.52 99.1716 1396.94 101.827 Q1393.42 104.421 1390.14 104.421 Q1385.95 104.421 1383.29 101.333 Q1380.63 98.2453 1380.26 94.0457 Q1378.35 98.8628 1373.96 102.013 Q1369.64 105.1 1363.71 105.1 Q1359.14 105.1 1354.82 103.927 Q1350.56 102.815 1346.98 99.6657 Q1343.46 96.4543 1343.46 91.6371 M1353.21 91.5136 Q1353.21 96.2072 1356.55 99.2334 Q1359.88 102.26 1364.58 102.26 Q1369.89 102.26 1374.64 98.1835 Q1379.4 94.0457 1379.4 85.9553 L1379.4 73.2949 Q1365.38 73.7889 1359.27 79.4089 Q1353.21 84.9672 1353.21 91.5136 Z" fill="#000000" fill-rule="nonzero" fill-opacity="1" /><path clip-path="url(#clip650)" d="M1405.58 103.68 L1405.58 99.7892 Q1412.32 99.7892 1413.86 98.9864 Q1415.4 98.1217 1415.4 94.0457 L1415.4 28.273 Q1415.4 23.5794 1413.74 22.4059 Q1412.13 21.2325 1405.58 21.2325 L1405.58 17.28 L1423.74 15.9213 L1423.74 94.0457 Q1423.74 98.1217 1425.35 98.9864 Q1426.95 99.7892 1433.62 99.7892 L1433.62 103.68 Q1432.08 103.68 1428.87 103.556 Q1425.66 103.433 1423.31 103.371 Q1420.96 103.309 1419.6 103.309 Q1418.12 103.309 1405.58 103.68 Z" fill="#000000" fill-rule="nonzero" fill-opacity="1" /><path clip-path="url(#clip650)" d="M1439.92 103.68 L1439.92 99.7892 Q1446.65 99.7892 1448.2 98.9864 Q1449.8 98.1217 1449.8 94.0457 L1449.8 28.273 Q1449.8 23.5794 1448.14 22.4059 Q1446.53 21.2325 1439.92 21.2325 L1439.92 17.28 L1458.14 15.9213 L1458.14 76.6298 L1475.99 61.1902 Q1478.77 58.7816 1478.77 56.2495 Q1478.77 53.3469 1475.12 53.0999 L1475.12 49.1473 Q1480.44 49.5179 1489.27 49.5179 Q1494.45 49.5179 1498.1 49.1473 L1498.1 53.0999 Q1490.13 53.4704 1482.16 59.8933 Q1480.37 61.3137 1476.11 65.0192 Q1471.91 68.663 1471.91 69.0335 Q1471.91 69.1571 1472.04 69.4658 Q1472.22 69.7746 1472.47 70.0217 Q1472.72 70.2687 1472.72 70.3922 L1488.77 93.0576 Q1492.05 97.6277 1494.45 98.7393 Q1496.86 99.7892 1501.06 99.7892 L1501.06 103.68 Q1495.63 103.309 1490.01 103.309 Q1486.98 103.309 1476.36 103.68 L1476.36 99.7892 Q1480.93 99.7892 1480.93 96.8248 Q1480.93 94.7868 1470.68 80.6441 Q1469.94 79.656 1468.27 77.4944 Q1466.73 75.2094 1465.86 74.0977 L1457.77 81.0147 L1457.77 94.0457 Q1457.77 98.1217 1459.31 98.9864 Q1460.92 99.7892 1467.65 99.7892 L1467.65 103.68 Q1460.06 103.309 1453.76 103.309 Q1452.46 103.309 1439.92 103.68 Z" fill="#000000" fill-rule="nonzero" fill-opacity="1" /><path clip-path="url(#clip650)" d="M1556.95 96.8866 Q1548.62 88.611 1548.62 76.6298 Q1548.62 64.5869 1556.77 55.8172 Q1564.98 46.9858 1576.72 46.9858 Q1588.2 46.9858 1596.42 55.7555 Q1604.69 64.4634 1604.69 76.6298 Q1604.69 88.5492 1596.36 96.8248 Q1588.08 105.1 1576.59 105.1 Q1565.35 105.1 1556.95 96.8866 M1559.12 75.5799 Q1559.12 87.8698 1562.33 93.4281 Q1567.27 101.889 1576.72 101.889 Q1581.41 101.889 1585.3 99.3569 Q1589.25 96.8248 1591.42 92.5635 Q1594.19 87.0052 1594.19 75.5799 Q1594.19 63.4135 1590.86 58.0405 Q1585.92 49.8267 1576.59 49.8267 Q1572.52 49.8267 1568.5 51.9882 Q1564.55 54.088 1562.14 58.2876 Q1559.12 63.8458 1559.12 75.5799 Z" fill="#000000" fill-rule="nonzero" fill-opacity="1" /><path clip-path="url(#clip650)" d="M1612.41 103.68 L1612.41 99.7892 Q1619.15 99.7892 1620.69 98.9864 Q1622.23 98.1217 1622.23 94.0457 L1622.23 60.1403 Q1622.23 55.4467 1620.57 54.2733 Q1618.96 53.0999 1612.41 53.0999 L1612.41 49.1473 L1630.2 47.7886 L1630.2 61.0667 Q1636.13 47.7886 1648.91 47.7886 Q1658.42 47.7886 1662.19 52.4823 Q1664.97 55.632 1665.53 59.1522 Q1666.14 62.6724 1666.14 71.8127 L1666.14 95.9602 Q1666.27 98.6158 1668.3 99.2334 Q1670.34 99.7892 1676.02 99.7892 L1676.02 103.68 Q1663.12 103.309 1661.82 103.309 Q1660.83 103.309 1647.55 103.68 L1647.55 99.7892 Q1654.29 99.7892 1655.83 98.9864 Q1657.44 98.1217 1657.44 94.0457 L1657.44 64.5869 Q1657.44 58.1641 1655.46 54.3968 Q1653.48 50.5678 1648.05 50.5678 Q1641.5 50.5678 1636.25 56.0643 Q1631 61.5608 1631 70.8245 L1631 94.0457 Q1631 98.1217 1632.55 98.9864 Q1634.15 99.7892 1640.82 99.7892 L1640.82 103.68 Q1627.91 103.309 1626.68 103.309 Q1625.69 103.309 1612.41 103.68 Z" fill="#000000" fill-rule="nonzero" fill-opacity="1" /><path clip-path="url(#clip650)" d="M1727.65 103.433 L1727.65 78.112 Q1727.65 76.6916 1727.72 76.1975 Q1727.78 75.7034 1728.15 75.3329 Q1728.52 74.9623 1729.26 74.9623 Q1730.68 74.9623 1730.8 76.2593 Q1731.17 88.7962 1738.65 95.7132 Q1746 102.568 1758.6 102.568 Q1766.19 102.568 1770.89 97.1336 Q1775.58 91.6371 1775.58 84.4731 Q1775.58 77.618 1771.63 72.8008 Q1769.96 70.6393 1767.86 69.2806 Q1765.82 67.8601 1764.52 67.4278 Q1763.29 66.9955 1760.88 66.3779 Q1745.19 62.6107 1744.21 62.1784 Q1736.73 59.6463 1732.16 53.2851 Q1727.65 46.8623 1727.65 39.019 Q1727.65 28.8906 1734.76 21.7266 Q1741.92 14.5009 1752.3 14.5009 Q1757.48 14.5009 1761.81 16.1683 Q1766.19 17.7741 1767.98 19.2563 Q1769.77 20.7385 1772.55 23.3941 L1776.94 16.1683 Q1777.93 14.5009 1778.85 14.5009 Q1779.84 14.5009 1780.03 15.1185 Q1780.27 15.6743 1780.27 17.527 L1780.27 42.9715 Q1780.27 44.3919 1780.21 44.886 Q1780.15 45.3801 1779.72 45.6889 Q1779.35 45.9977 1778.61 45.9977 Q1777.37 45.9977 1777.06 44.5155 Q1773.54 18.0829 1752.42 18.0829 Q1745.19 18.0829 1740.44 22.9618 Q1735.74 27.7789 1735.74 34.6341 Q1735.74 40.1924 1739.2 44.7625 Q1742.66 49.2709 1748.53 50.6913 L1764.71 54.5821 Q1772.8 56.4966 1778.23 63.6606 Q1783.67 70.8245 1783.67 80.1501 Q1783.67 90.896 1776.63 98.6776 Q1769.65 106.459 1758.72 106.459 Q1750.88 106.459 1744.82 103.865 Q1738.77 101.271 1735.5 97.6277 Q1732.97 101.827 1731.3 104.174 L1730.93 104.792 Q1729.94 106.459 1729.01 106.459 Q1728.03 106.459 1727.84 105.842 Q1727.65 105.224 1727.65 103.433 Z" fill="#000000" fill-rule="nonzero" fill-opacity="1" /><path clip-path="url(#clip650)" d="M1794.91 103.68 L1794.91 99.7892 Q1801.64 99.7892 1803.19 98.9864 Q1804.73 98.1217 1804.73 94.0457 L1804.73 60.0168 Q1804.73 55.3232 1803.12 54.2115 Q1801.58 53.0999 1795.4 53.0999 L1795.4 49.1473 L1813.07 47.7886 L1813.07 94.1692 Q1813.07 97.9365 1814.43 98.8628 Q1815.78 99.7892 1821.96 99.7892 L1821.96 103.68 Q1809.05 103.309 1808.81 103.309 Q1807.08 103.309 1794.91 103.68 M1800.22 25.7409 Q1800.22 23.2088 1802.14 21.1708 Q1804.11 19.071 1806.89 19.071 Q1809.67 19.071 1811.65 20.9855 Q1813.62 22.8383 1813.62 25.8027 Q1813.62 28.7053 1811.65 30.6198 Q1809.67 32.4726 1806.89 32.4726 Q1803.99 32.4726 1802.07 30.4345 Q1800.22 28.3965 1800.22 25.7409 Z" fill="#000000" fill-rule="nonzero" fill-opacity="1" /><path clip-path="url(#clip650)" d="M1829.8 103.68 L1829.8 99.7892 Q1836.53 99.7892 1838.08 98.9864 Q1839.62 98.1217 1839.62 94.0457 L1839.62 60.1403 Q1839.62 55.4467 1837.96 54.2733 Q1836.35 53.0999 1829.8 53.0999 L1829.8 49.1473 L1847.59 47.7886 L1847.59 61.0667 Q1853.52 47.7886 1866.3 47.7886 Q1881.12 47.7886 1883.16 60.1403 Q1885.32 55.3232 1889.83 51.5559 Q1894.4 47.7886 1901.5 47.7886 Q1911.02 47.7886 1914.78 52.4823 Q1917.56 55.632 1918.12 59.1522 Q1918.67 62.6724 1918.67 71.8127 L1918.67 95.9602 Q1918.8 98.6158 1920.83 99.2334 Q1922.87 99.7892 1928.55 99.7892 L1928.55 103.68 Q1915.65 103.309 1914.41 103.309 Q1913.42 103.309 1900.08 103.68 L1900.08 99.7892 Q1906.82 99.7892 1908.36 98.9864 Q1909.97 98.1217 1909.97 94.0457 L1909.97 64.5869 Q1909.97 58.1641 1907.99 54.3968 Q1906.01 50.5678 1900.58 50.5678 Q1894.03 50.5678 1888.78 56.0643 Q1883.53 61.5608 1883.53 70.8245 L1883.53 94.0457 Q1883.53 98.1217 1885.08 98.9864 Q1886.68 99.7892 1893.41 99.7892 L1893.41 103.68 Q1880.51 103.309 1879.21 103.309 Q1878.22 103.309 1864.94 103.68 L1864.94 99.7892 Q1871.68 99.7892 1873.22 98.9864 Q1874.82 98.1217 1874.82 94.0457 L1874.82 64.5869 Q1874.82 58.1641 1872.85 54.3968 Q1870.87 50.5678 1865.44 50.5678 Q1858.89 50.5678 1853.64 56.0643 Q1848.39 61.5608 1848.39 70.8245 L1848.39 94.0457 Q1848.39 98.1217 1849.94 98.9864 Q1851.54 99.7892 1858.21 99.7892 L1858.21 103.68 Q1845.3 103.309 1844.07 103.309 Q1843.08 103.309 1829.8 103.68 Z" fill="#000000" fill-rule="nonzero" fill-opacity="1" /><path clip-path="url(#clip650)" d="M1934.55 124.307 Q1941.28 124.307 1942.82 123.443 Q1944.43 122.64 1944.43 118.626 L1944.43 59.3992 Q1944.43 55.1997 1942.82 54.1498 Q1941.28 53.0999 1934.55 53.0999 L1934.55 49.1473 L1952.76 47.7886 L1952.76 56.126 Q1960.36 47.7886 1970.49 47.7886 Q1981.23 47.7886 1989.08 56.126 Q1996.92 64.4634 1996.92 76.3828 Q1996.92 88.4257 1988.58 96.7631 Q1980.25 105.1 1968.7 105.1 Q1962.4 105.1 1958.14 101.889 Q1953.94 98.6158 1953.13 96.2072 L1953.13 97.3806 L1953.13 118.626 Q1953.13 122.702 1954.74 123.504 Q1956.35 124.307 1963.02 124.307 L1963.02 128.198 Q1949.74 127.828 1948.75 127.828 Q1947.51 127.828 1934.55 128.198 L1934.55 124.307 M1953.13 89.2903 Q1953.13 91.2048 1953.38 91.8841 Q1953.69 92.5635 1954.93 94.6015 Q1959.93 102.26 1968.08 102.26 Q1968.14 102.26 1968.2 102.26 Q1975.43 102.26 1980.93 94.9103 Q1986.42 87.4993 1986.42 76.3828 Q1986.42 65.7603 1981.42 58.3493 Q1976.42 50.9383 1969.5 50.9383 Q1964.56 50.9383 1960.24 53.5939 Q1955.91 56.2495 1953.13 61.0667 L1953.13 89.2903 Z" fill="#000000" fill-rule="nonzero" fill-opacity="1" /><path clip-path="url(#clip650)" d="M2005.38 103.68 L2005.38 99.7892 Q2012.11 99.7892 2013.66 98.9864 Q2015.2 98.1217 2015.2 94.0457 L2015.2 28.273 Q2015.2 23.5794 2013.53 22.4059 Q2011.93 21.2325 2005.38 21.2325 L2005.38 17.28 L2023.54 15.9213 L2023.54 94.0457 Q2023.54 98.1217 2025.14 98.9864 Q2026.75 99.7892 2033.42 99.7892 L2033.42 103.68 Q2031.88 103.68 2028.67 103.556 Q2025.45 103.433 2023.11 103.371 Q2020.76 103.309 2019.4 103.309 Q2017.92 103.309 2005.38 103.68 Z" fill="#000000" fill-rule="nonzero" fill-opacity="1" /><path clip-path="url(#clip650)" d="M2039.72 75.827 Q2039.72 63.9076 2047.38 55.4467 Q2055.04 46.9858 2066.03 46.9858 Q2077.15 46.9858 2082.89 54.2115 Q2088.69 61.4373 2088.69 71.8127 Q2088.69 73.7272 2088.2 74.0977 Q2087.71 74.4683 2085.54 74.4683 L2050.22 74.4683 Q2050.22 87.3758 2054.05 93.4281 Q2059.36 101.889 2068.31 101.889 Q2069.55 101.889 2071.03 101.642 Q2072.51 101.395 2075.54 100.345 Q2078.57 99.2334 2081.22 96.3308 Q2083.88 93.4281 2085.42 88.858 Q2085.79 87.067 2087.03 87.1287 Q2088.69 87.1287 2088.69 88.611 Q2088.69 89.7226 2087.46 92.2547 Q2086.29 94.725 2084 97.6894 Q2081.72 100.654 2077.27 102.877 Q2072.88 105.1 2067.57 105.1 Q2056.46 105.1 2048.06 96.7013 Q2039.72 88.2404 2039.72 75.827 M2050.34 71.8127 L2080.36 71.8127 Q2080.36 69.1571 2079.86 66.1927 Q2079.43 63.2282 2078.07 59.1522 Q2076.77 55.0144 2073.69 52.4205 Q2070.6 49.8267 2066.03 49.8267 Q2063.99 49.8267 2061.77 50.6913 Q2059.61 51.5559 2056.95 53.6557 Q2054.29 55.7555 2052.44 60.5109 Q2050.59 65.2663 2050.34 71.8127 Z" fill="#000000" fill-rule="nonzero" fill-opacity="1" /><path clip-path="url(#clip650)" d="M2154.47 93.0576 Q2141.5 79.656 2141.5 60.4491 Q2141.5 41.1805 2154.59 27.8407 Q2167.68 14.5009 2185.47 14.5009 Q2189.92 14.5009 2193.68 15.5508 Q2197.51 16.5389 2200.54 18.5769 Q2203.56 20.5532 2205.11 21.9119 Q2206.71 23.2088 2208.88 25.3704 L2215.24 16.0448 Q2216.23 14.5009 2217.21 14.5009 Q2218.26 14.5009 2218.45 15.1185 Q2218.63 15.6743 2218.63 17.527 L2218.63 47.5416 Q2218.63 49.5796 2218.39 50.0737 Q2218.14 50.5678 2216.6 50.5678 Q2215.36 50.5678 2215.11 50.1972 Q2214.87 49.8267 2214.56 48.4062 Q2212.64 34.7576 2204.99 26.6055 Q2197.39 18.4534 2187.01 18.4534 Q2183.99 18.4534 2180.59 19.1328 Q2177.26 19.8121 2172.32 22.4059 Q2167.44 24.9998 2163.67 29.2611 Q2159.96 33.4607 2157.25 41.6128 Q2154.53 49.7032 2154.53 60.4491 Q2154.53 71.0716 2157.25 79.2237 Q2159.96 87.3758 2163.73 91.6371 Q2167.56 95.8367 2172.5 98.4923 Q2177.5 101.148 2181.02 101.889 Q2184.61 102.568 2187.75 102.568 Q2189.92 102.568 2192.45 102.136 Q2194.98 101.642 2198.75 100.283 Q2202.58 98.8628 2204.99 95.5279 Q2207.39 92.1929 2207.39 87.2523 L2207.39 79.1619 Q2207.39 75.3947 2205.54 74.2212 Q2203.69 73.0478 2195.6 73.0478 L2191.58 73.0478 L2191.58 69.1571 Q2196.15 69.5276 2211.9 69.5276 Q2213.32 69.5276 2227.34 69.1571 L2227.34 73.0478 Q2221.29 73.0478 2219.93 73.9742 Q2218.63 74.8388 2218.63 78.6061 L2218.63 100.654 Q2218.63 103.556 2217.52 103.556 Q2216.53 103.556 2213.57 100.716 Q2210.67 97.8747 2209.37 95.7132 Q2206.34 101.024 2199.74 103.742 Q2193.19 106.459 2185.72 106.459 Q2167.5 106.459 2154.47 93.0576 Z" fill="#000000" fill-rule="nonzero" fill-opacity="1" /><path clip-path="url(#clip650)" d="M2237.04 103.68 L2237.04 99.7892 Q2243.77 99.7892 2245.31 98.9864 Q2246.92 98.1217 2246.92 94.0457 L2246.92 60.1403 Q2246.92 55.4467 2245.25 54.2733 Q2243.65 53.0999 2237.04 53.0999 L2237.04 49.1473 L2254.64 47.7886 L2254.64 61.6843 Q2256.43 56.2495 2260.2 52.05 Q2264.03 47.7886 2270.2 47.7886 Q2274.28 47.7886 2276.87 50.0737 Q2279.53 52.3588 2279.53 55.5084 Q2279.53 58.2876 2277.8 59.708 Q2276.13 61.0667 2274.09 61.0667 Q2271.81 61.0667 2270.2 59.6463 Q2268.66 58.1641 2268.66 55.632 Q2268.66 54.088 2269.34 52.9146 Q2270.08 51.6794 2270.63 51.2471 Q2271.19 50.8148 2271.56 50.6913 Q2271.31 50.5678 2270.2 50.5678 Q2263.22 50.5678 2259.21 57.5465 Q2255.26 64.4634 2255.26 74.3448 L2255.26 93.7987 Q2255.26 97.4424 2256.74 98.6158 Q2258.28 99.7892 2264.89 99.7892 L2267.55 99.7892 L2267.55 103.68 Q2262.48 103.309 2251.49 103.309 Q2249.95 103.309 2247.54 103.371 Q2245.13 103.433 2241.98 103.556 Q2238.83 103.68 2237.04 103.68 Z" fill="#000000" fill-rule="nonzero" fill-opacity="1" /><path clip-path="url(#clip650)" d="M2288.24 91.6371 Q2288.24 80.8912 2300.9 75.2094 Q2308.49 71.5656 2324.18 70.6393 L2324.18 66.0074 Q2324.18 58.1641 2320.04 54.0262 Q2315.97 49.8267 2310.78 49.8267 Q2301.51 49.8267 2297.07 55.632 Q2300.83 55.7555 2302.19 57.67 Q2303.55 59.5227 2303.55 61.4373 Q2303.55 63.9693 2301.95 65.6368 Q2300.4 67.2425 2297.75 67.2425 Q2295.21 67.2425 2293.55 65.6986 Q2291.88 64.0929 2291.88 61.3137 Q2291.88 55.1379 2297.44 51.0618 Q2303.06 46.9858 2311.02 46.9858 Q2321.4 46.9858 2328.32 53.9645 Q2330.48 56.126 2331.53 58.9052 Q2332.64 61.6843 2332.76 63.537 Q2332.89 65.328 2332.89 68.91 L2332.89 94.1692 Q2332.89 94.9103 2333.13 96.1455 Q2333.38 97.3806 2334.49 98.9864 Q2335.67 100.53 2337.58 100.53 Q2342.15 100.53 2342.09 92.44 L2342.09 85.3378 L2345.3 85.3378 L2345.3 92.44 Q2345.3 99.1716 2341.72 101.827 Q2338.2 104.421 2334.92 104.421 Q2330.73 104.421 2328.07 101.333 Q2325.41 98.2453 2325.04 94.0457 Q2323.13 98.8628 2318.74 102.013 Q2314.42 105.1 2308.49 105.1 Q2303.92 105.1 2299.6 103.927 Q2295.34 102.815 2291.76 99.6657 Q2288.24 96.4543 2288.24 91.6371 M2297.99 91.5136 Q2297.99 96.2072 2301.33 99.2334 Q2304.66 102.26 2309.36 102.26 Q2314.67 102.26 2319.42 98.1835 Q2324.18 94.0457 2324.18 85.9553 L2324.18 73.2949 Q2310.16 73.7889 2304.05 79.4089 Q2297.99 84.9672 2297.99 91.5136 Z" fill="#000000" fill-rule="nonzero" fill-opacity="1" /><path clip-path="url(#clip650)" d="M2349.69 124.307 Q2356.42 124.307 2357.96 123.443 Q2359.57 122.64 2359.57 118.626 L2359.57 59.3992 Q2359.57 55.1997 2357.96 54.1498 Q2356.42 53.0999 2349.69 53.0999 L2349.69 49.1473 L2367.9 47.7886 L2367.9 56.126 Q2375.5 47.7886 2385.63 47.7886 Q2396.37 47.7886 2404.22 56.126 Q2412.06 64.4634 2412.06 76.3828 Q2412.06 88.4257 2403.72 96.7631 Q2395.39 105.1 2383.84 105.1 Q2377.54 105.1 2373.28 101.889 Q2369.08 98.6158 2368.27 96.2072 L2368.27 97.3806 L2368.27 118.626 Q2368.27 122.702 2369.88 123.504 Q2371.49 124.307 2378.16 124.307 L2378.16 128.198 Q2364.88 127.828 2363.89 127.828 Q2362.65 127.828 2349.69 128.198 L2349.69 124.307 M2368.27 89.2903 Q2368.27 91.2048 2368.52 91.8841 Q2368.83 92.5635 2370.07 94.6015 Q2375.07 102.26 2383.22 102.26 Q2383.28 102.26 2383.34 102.26 Q2390.57 102.26 2396.07 94.9103 Q2401.56 87.4993 2401.56 76.3828 Q2401.56 65.7603 2396.56 58.3493 Q2391.56 50.9383 2384.64 50.9383 Q2379.7 50.9383 2375.38 53.5939 Q2371.05 56.2495 2368.27 61.0667 L2368.27 89.2903 Z" fill="#000000" fill-rule="nonzero" fill-opacity="1" /><path clip-path="url(#clip650)" d="M2420.4 103.68 L2420.4 99.7892 Q2427.13 99.7892 2428.67 98.9864 Q2430.22 98.1217 2430.22 94.0457 L2430.22 28.273 Q2430.22 23.5794 2428.55 22.4059 Q2426.94 21.2325 2420.4 21.2325 L2420.4 17.28 L2438.56 15.9213 L2438.56 59.8933 L2438.68 59.8933 Q2440.72 55.3232 2445.29 51.5559 Q2449.86 47.7886 2456.9 47.7886 Q2466.41 47.7886 2470.18 52.4823 Q2472.95 55.632 2473.51 59.1522 Q2474.13 62.6724 2474.13 71.8127 L2474.13 95.9602 Q2474.25 98.6158 2476.29 99.2334 Q2478.33 99.7892 2484.01 99.7892 L2484.01 103.68 Q2471.1 103.309 2469.81 103.309 Q2468.82 103.309 2455.54 103.68 L2455.54 99.7892 Q2462.27 99.7892 2463.81 98.9864 Q2465.42 98.1217 2465.42 94.0457 L2465.42 64.5869 Q2465.42 58.1641 2463.44 54.3968 Q2461.47 50.5678 2456.03 50.5678 Q2449.49 50.5678 2444.24 56.0643 Q2438.99 61.5608 2438.99 70.8245 L2438.99 94.0457 Q2438.99 98.1217 2440.53 98.9864 Q2442.14 99.7892 2448.81 99.7892 L2448.81 103.68 Q2435.9 103.309 2434.66 103.309 Q2433.68 103.309 2420.4 103.68 Z" fill="#000000" fill-rule="nonzero" fill-opacity="1" /><polyline clip-path="url(#clip652)" style="stroke:#000000; stroke-linecap:round; stroke-linejoin:round; stroke-width:4; stroke-opacity:1; fill:none" points="2504.11,1207.87 2487.38,1194.22 2470.67,1180.56 2453.98,1166.88 2437.34,1153.17 2420.74,1139.41 2404.22,1125.61 2387.77,1111.75 2371.41,1097.81 2355.17,1083.8 2339.04,1069.69 2323.04,1055.48 2307.19,1041.16 2291.5,1026.72 2275.98,1012.15 2260.64,997.43 2245.51,982.563 2230.58,967.535 2215.89,952.334 2201.43,936.95 2187.22,921.375 2173.28,905.597 2159.62,889.606 2146.24,873.392 2133.18,856.945 2120.43,840.256 2108,823.324 2095.87,806.159 2084.03,788.772 2072.48,771.172 2061.18,753.369 2050.14,735.374 2039.34,717.196 2028.77,698.846 2018.4,680.335 2008.24,661.671 1998.26,642.866 1988.45,623.929 1978.8,604.87 1969.3,585.7 1959.93,566.429 1950.68,547.066 1941.54,527.623 1932.49,508.109 1923.51,488.534 1914.61,468.908 1905.76,449.242 1896.94,429.545 1888.16,409.828 1879.38,390.101 "/>
<polyline clip-path="url(#clip652)" style="stroke:#000000; stroke-linecap:round; stroke-linejoin:round; stroke-width:4; stroke-opacity:1; fill:none" points="2504.11,1207.87 2469.25,1202.34 2434.4,1196.79 2399.56,1191.21 2364.73,1185.58 2329.93,1179.89 2295.14,1174.11 2260.39,1168.25 2225.67,1162.27 2191,1156.16 2156.36,1149.91 2121.78,1143.5 2087.25,1136.91 2052.77,1130.14 2018.37,1123.15 1984.03,1115.94 1949.76,1108.5 1915.58,1100.8 1881.47,1092.82 1847.46,1084.57 1813.54,1076 1779.72,1067.12 1746,1057.91 1712.39,1048.34 1678.89,1038.41 1645.52,1028.09 1612.26,1017.4 1579.11,1006.34 1546.07,994.921 1513.13,983.173 1480.3,971.106 1447.55,958.736 1414.9,946.079 1382.33,933.151 1349.84,919.969 1317.42,906.547 1285.07,892.902 1252.78,879.05 1220.56,865.006 1188.39,850.787 1156.26,836.409 1124.18,821.887 1092.15,807.238 1060.14,792.477 1028.17,777.621 996.215,762.685 964.285,747.685 932.369,732.638 900.463,717.558 868.562,702.463 "/>
<polyline clip-path="url(#clip652)" style="stroke:#000000; stroke-linecap:round; stroke-linejoin:round; stroke-width:4; stroke-opacity:1; fill:none" points="1879.38,390.101 1860.23,401.257 1841.08,412.397 1821.91,423.504 1802.73,434.564 1783.53,445.561 1764.3,456.477 1745.05,467.298 1725.76,478.008 1706.43,488.589 1687.06,499.028 1667.63,509.307 1648.16,519.411 1628.62,529.323 1609.02,539.028 1589.35,548.51 1569.61,557.753 1549.79,566.741 1529.88,575.458 1509.89,583.889 1489.8,592.016 1469.61,599.824 1449.33,607.298 1428.93,614.421 1408.42,621.178 1387.79,627.553 1367.04,633.546 1346.18,639.172 1325.21,644.447 1304.14,649.388 1282.97,654.01 1261.7,658.33 1240.35,662.362 1218.92,666.124 1197.4,669.63 1175.81,672.897 1154.15,675.942 1132.43,678.779 1110.65,681.424 1088.81,683.895 1066.93,686.206 1045,688.373 1023.03,690.414 1001.03,692.342 978.995,694.175 956.938,695.928 934.861,697.618 912.77,699.259 890.668,700.869 868.562,702.463 "/>
<polyline clip-path="url(#clip652)" style="stroke:#000000; stroke-linecap:round; stroke-linejoin:round; stroke-width:4; stroke-opacity:1; fill:none" points="868.562,702.463 873.566,723.092 878.553,743.721 883.507,764.35 888.411,784.979 893.248,805.608 898.002,826.237 902.656,846.866 907.192,867.495 911.596,888.124 915.849,908.753 919.936,929.382 923.839,950.011 927.541,970.64 931.027,991.269 934.28,1011.9 937.282,1032.53 940.017,1053.16 942.469,1073.79 944.62,1094.41 946.454,1115.04 947.955,1135.67 949.105,1156.3 949.889,1176.93 950.288,1197.56 950.288,1218.19 949.889,1238.82 949.105,1259.45 947.955,1280.08 946.454,1300.7 944.62,1321.33 942.469,1341.96 940.017,1362.59 937.282,1383.22 934.28,1403.85 931.027,1424.48 927.541,1445.11 923.839,1465.74 919.936,1486.37 915.849,1507 911.596,1527.62 907.192,1548.25 902.656,1568.88 898.002,1589.51 893.248,1610.14 888.411,1630.77 883.507,1651.4 878.553,1672.03 873.566,1692.66 868.562,1713.29 "/>
<polyline clip-path="url(#clip652)" style="stroke:#000000; stroke-linecap:round; stroke-linejoin:round; stroke-width:4; stroke-opacity:1; fill:none" points="868.562,702.463 885.214,732.504 901.88,762.535 918.573,792.547 935.305,822.527 952.09,852.468 968.941,882.357 985.872,912.186 1002.9,941.944 1020.03,971.621 1037.28,1001.21 1054.66,1030.69 1072.18,1060.06 1089.87,1089.32 1107.73,1118.44 1125.77,1147.41 1144.02,1176.24 1162.47,1204.9 1181.15,1233.4 1200.07,1261.71 1219.24,1289.82 1238.68,1317.74 1258.4,1345.44 1278.4,1372.92 1298.71,1400.17 1319.34,1427.17 1340.29,1453.93 1361.54,1480.46 1383.08,1506.76 1404.91,1532.86 1426.99,1558.75 1449.33,1584.45 1471.91,1609.96 1494.71,1635.3 1517.73,1660.49 1540.94,1685.51 1564.34,1710.4 1587.91,1735.16 1611.64,1759.79 1635.52,1784.32 1659.53,1808.74 1683.65,1833.07 1707.89,1857.32 1732.22,1881.5 1756.62,1905.61 1781.1,1929.68 1805.62,1953.71 1830.19,1977.7 1854.78,2001.68 1879.38,2025.65 "/>
<polyline clip-path="url(#clip652)" style="stroke:#000000; stroke-linecap:round; stroke-linejoin:round; stroke-width:4; stroke-opacity:1; fill:none" points="868.562,1713.29 887.713,1724.44 906.87,1735.58 926.036,1746.69 945.218,1757.75 964.419,1768.74 983.644,1779.66 1002.9,1790.48 1022.19,1801.19 1041.52,1811.77 1060.89,1822.21 1080.31,1832.49 1099.79,1842.59 1119.33,1852.51 1138.93,1862.21 1158.59,1871.69 1178.34,1880.94 1198.16,1889.93 1218.06,1898.64 1238.06,1907.07 1258.15,1915.2 1278.33,1923.01 1298.62,1930.48 1319.02,1937.61 1339.53,1944.36 1360.16,1950.74 1380.91,1956.73 1401.77,1962.36 1422.73,1967.63 1443.81,1972.57 1464.98,1977.19 1486.24,1981.51 1507.59,1985.55 1529.03,1989.31 1550.55,1992.81 1572.14,1996.08 1593.79,1999.13 1615.52,2001.96 1637.3,2004.61 1659.13,2007.08 1681.02,2009.39 1702.95,2011.56 1724.92,2013.6 1746.92,2015.53 1768.95,2017.36 1791.01,2019.11 1813.08,2020.8 1835.18,2022.44 1857.28,2024.05 1879.38,2025.65 "/>
<path clip-path="url(#clip652)" d="M2647.63 1207.87 L2575.87 1083.58 L2432.35 1083.58 L2360.59 1207.87 L2432.35 1332.17 L2575.87 1332.17 L2647.63 1207.87 L2647.63 1207.87  Z" fill="#f5fffa" fill-rule="evenodd" fill-opacity="1"/>
<polyline clip-path="url(#clip652)" style="stroke:#000000; stroke-linecap:round; stroke-linejoin:round; stroke-width:4; stroke-opacity:1; fill:none" points="2647.63,1207.87 2575.87,1083.58 2432.35,1083.58 2360.59,1207.87 2432.35,1332.17 2575.87,1332.17 2647.63,1207.87 "/>
<path clip-path="url(#clip652)" d="M2022.91 390.101 L1951.15 265.808 L1807.62 265.808 L1735.86 390.101 L1807.62 514.395 L1951.15 514.395 L2022.91 390.101 L2022.91 390.101  Z" fill="#f5fffa" fill-rule="evenodd" fill-opacity="1"/>
<polyline clip-path="url(#clip652)" style="stroke:#000000; stroke-linecap:round; stroke-linejoin:round; stroke-width:4; stroke-opacity:1; fill:none" points="2022.91,390.101 1951.15,265.808 1807.62,265.808 1735.86,390.101 1807.62,514.395 1951.15,514.395 2022.91,390.101 "/>
<path clip-path="url(#clip652)" d="M1012.08 702.463 L940.323 578.169 L796.801 578.169 L725.04 702.463 L796.801 826.756 L940.323 826.756 L1012.08 702.463 L1012.08 702.463  Z" fill="#f5fffa" fill-rule="evenodd" fill-opacity="1"/>
<polyline clip-path="url(#clip652)" style="stroke:#000000; stroke-linecap:round; stroke-linejoin:round; stroke-width:4; stroke-opacity:1; fill:none" points="1012.08,702.463 940.323,578.169 796.801,578.169 725.04,702.463 796.801,826.756 940.323,826.756 1012.08,702.463 "/>
<path clip-path="url(#clip652)" d="M1012.08 1713.29 L940.323 1588.99 L796.801 1588.99 L725.04 1713.29 L796.801 1837.58 L940.323 1837.58 L1012.08 1713.29 L1012.08 1713.29  Z" fill="#f5fffa" fill-rule="evenodd" fill-opacity="1"/>
<polyline clip-path="url(#clip652)" style="stroke:#000000; stroke-linecap:round; stroke-linejoin:round; stroke-width:4; stroke-opacity:1; fill:none" points="1012.08,1713.29 940.323,1588.99 796.801,1588.99 725.04,1713.29 796.801,1837.58 940.323,1837.58 1012.08,1713.29 "/>
<path clip-path="url(#clip652)" d="M2022.91 2025.65 L1951.15 1901.35 L1807.62 1901.35 L1735.86 2025.65 L1807.62 2149.94 L1951.15 2149.94 L2022.91 2025.65 L2022.91 2025.65  Z" fill="#f5fffa" fill-rule="evenodd" fill-opacity="1"/>
<polyline clip-path="url(#clip652)" style="stroke:#000000; stroke-linecap:round; stroke-linejoin:round; stroke-width:4; stroke-opacity:1; fill:none" points="2022.91,2025.65 1951.15,1901.35 1807.62,1901.35 1735.86,2025.65 1807.62,2149.94 1951.15,2149.94 2022.91,2025.65 "/>
<path clip-path="url(#clip652)" d="M2504.11 1208.67 L2503.41 1208.27 L2503.41 1207.47 L2504.11 1207.07 L2504.8 1207.47 L2504.8 1208.27 Z" fill="#f5fffa" fill-rule="evenodd" fill-opacity="1" stroke="#000000" stroke-opacity="1" stroke-width="4.8"/>
<path clip-path="url(#clip652)" d="M1879.38 390.901 L1878.69 390.501 L1878.69 389.701 L1879.38 389.301 L1880.08 389.701 L1880.08 390.501 Z" fill="#f5fffa" fill-rule="evenodd" fill-opacity="1" stroke="#000000" stroke-opacity="1" stroke-width="4.8"/>
<path clip-path="url(#clip652)" d="M868.562 703.263 L867.869 702.863 L867.869 702.063 L868.562 701.663 L869.255 702.063 L869.255 702.863 Z" fill="#f5fffa" fill-rule="evenodd" fill-opacity="1" stroke="#000000" stroke-opacity="1" stroke-width="4.8"/>
<path clip-path="url(#clip652)" d="M868.562 1714.09 L867.869 1713.69 L867.869 1712.89 L868.562 1712.49 L869.255 1712.89 L869.255 1713.69 Z" fill="#f5fffa" fill-rule="evenodd" fill-opacity="1" stroke="#000000" stroke-opacity="1" stroke-width="4.8"/>
<path clip-path="url(#clip652)" d="M1879.38 2026.45 L1878.69 2026.05 L1878.69 2025.25 L1879.38 2024.85 L1880.08 2025.25 L1880.08 2026.05 Z" fill="#f5fffa" fill-rule="evenodd" fill-opacity="1" stroke="#000000" stroke-opacity="1" stroke-width="4.8"/>
<polyline clip-path="url(#clip652)" style="stroke:#ff0000; stroke-linecap:round; stroke-linejoin:round; stroke-width:12; stroke-opacity:1; fill:none" points="2417.77,1207.87 2409.8,1198.19 2401.85,1188.52 2393.93,1178.84 2386.06,1169.18 2378.25,1159.54 2370.52,1149.91 2362.89,1140.3 2355.37,1130.72 2347.97,1121.17 2340.72,1111.64 2333.63,1102.16 2326.71,1092.71 2319.99,1083.3 2313.47,1073.94 2307.18,1064.63 2301.12,1055.37 2295.32,1046.17 2289.79,1037.03 2284.55,1027.95 2279.61,1018.94 2274.98,1010 2270.7,1001.13 2266.76,992.343 2263.19,983.635 2260.01,975.011 2257.2,966.472 2254.76,958.015 2252.67,949.634 2250.92,941.328 2249.48,933.092 2248.35,924.924 2247.5,916.819 2246.93,908.773 2246.61,900.784 2246.53,892.849 2246.67,884.962 2247.02,877.121 2247.56,869.323 2248.28,861.563 2249.16,853.839 2250.17,846.146 2251.32,838.482 2252.58,830.842 2253.93,823.224 2255.37,815.623 2256.86,808.036 2258.41,800.46 2259.99,792.891 2261.58,785.325 "/>
<polyline clip-path="url(#clip652)" style="stroke:#ff0000; stroke-linecap:round; stroke-linejoin:round; stroke-width:12; stroke-opacity:1; fill:none" points="2228.21,827.35 2261.58,785.325 2275.18,837.24 "/>
<polyline clip-path="url(#clip652)" style="stroke:#ff0000; stroke-linecap:round; stroke-linejoin:round; stroke-width:12; stroke-opacity:1; fill:none" points="2261.58,785.325 2259.99,792.891 "/>
<polyline clip-path="url(#clip652)" style="stroke:#ff0000; stroke-linecap:round; stroke-linejoin:round; stroke-width:12; stroke-opacity:1; fill:none" points="2261.59,702.463 2249.68,699.301 2237.77,696.134 2225.9,692.956 2214.08,689.761 2202.32,686.543 2190.63,683.298 2179.04,680.018 2167.56,676.7 2156.2,673.336 2144.98,669.922 2133.92,666.452 2123.02,662.92 2112.31,659.32 2101.8,655.648 2091.51,651.897 2081.45,648.061 2071.64,644.136 2062.09,640.116 2052.82,635.994 2043.84,631.766 2035.18,627.425 2026.84,622.966 2018.83,618.384 2011.19,613.673 2003.91,608.827 1997.01,603.846 1990.46,598.736 1984.26,593.503 1978.37,588.152 1972.8,582.689 1967.52,577.118 1962.52,571.447 1957.78,565.68 1953.29,559.824 1949.04,553.883 1945,547.864 1941.16,541.771 1937.5,535.611 1934.02,529.39 1930.69,523.112 1927.5,516.784 1924.43,510.41 1921.48,503.998 1918.61,497.552 1915.82,491.077 1913.1,484.58 1910.42,478.067 1907.77,471.542 1905.14,465.011 "/>
<polyline clip-path="url(#clip652)" style="stroke:#ff0000; stroke-linecap:round; stroke-linejoin:round; stroke-width:12; stroke-opacity:1; fill:none" points="1900.83,518.504 1905.14,465.011 1945.34,500.556 "/>
<polyline clip-path="url(#clip652)" style="stroke:#ff0000; stroke-linecap:round; stroke-linejoin:round; stroke-width:12; stroke-opacity:1; fill:none" points="1905.14,465.011 1907.77,471.542 "/>
<polyline clip-path="url(#clip652)" style="stroke:#ff0000; stroke-linecap:round; stroke-linejoin:round; stroke-width:12; stroke-opacity:1; fill:none" points="1852.71,390.101 1834.77,401.356 1816.84,412.594 1798.92,423.798 1781.01,434.949 1763.11,446.032 1745.24,457.029 1727.38,467.922 1709.54,478.694 1691.74,489.329 1673.96,499.808 1656.23,510.115 1638.53,520.232 1620.87,530.143 1603.26,539.829 1585.7,549.274 1568.19,558.461 1550.73,567.371 1533.34,575.989 1516.01,584.296 1498.75,592.275 1481.56,599.91 1464.44,607.183 1447.4,614.076 1430.44,620.573 1413.57,626.657 1396.78,632.328 1380.07,637.602 1363.44,642.497 1346.88,647.031 1330.4,651.219 1313.98,655.079 1297.62,658.63 1281.32,661.887 1265.08,664.869 1248.9,667.591 1232.76,670.073 1216.67,672.33 1200.62,674.381 1184.61,676.242 1168.63,677.93 1152.69,679.463 1136.77,680.859 1120.88,682.134 1105.01,683.305 1089.16,684.39 1073.33,685.406 1057.5,686.37 1041.68,687.3 1025.86,688.213 "/>
<polyline clip-path="url(#clip652)" style="stroke:#ff0000; stroke-linecap:round; stroke-linejoin:round; stroke-width:12; stroke-opacity:1; fill:none" points="1075.16,709.408 1025.86,688.213 1072.4,661.488 "/>
<polyline clip-path="url(#clip652)" style="stroke:#ff0000; stroke-linecap:round; stroke-linejoin:round; stroke-width:12; stroke-opacity:1; fill:none" points="1025.86,688.213 1041.68,687.3 "/>
<path clip-path="url(#clip652)" d="M2513.45 1207.87 L2465.61 1125.01 L2369.93 1125.01 L2322.09 1207.87 L2369.93 1290.74 L2465.61 1290.74 L2513.45 1207.87 L2513.45 1207.87  Z" fill="#f5fffa" fill-rule="evenodd" fill-opacity="1"/>
<polyline clip-path="url(#clip652)" style="stroke:#000000; stroke-linecap:round; stroke-linejoin:round; stroke-width:4; stroke-opacity:1; fill:none" points="2513.45,1207.87 2465.61,1125.01 2369.93,1125.01 2322.09,1207.87 2369.93,1290.74 2465.61,1290.74 2513.45,1207.87 "/>
<path clip-path="url(#clip652)" d="M2357.27 702.463 L2309.43 619.6 L2213.75 619.6 L2165.91 702.463 L2213.75 785.325 L2309.43 785.325 L2357.27 702.463 L2357.27 702.463  Z" fill="#f5fffa" fill-rule="evenodd" fill-opacity="1"/>
<polyline clip-path="url(#clip652)" style="stroke:#000000; stroke-linecap:round; stroke-linejoin:round; stroke-width:4; stroke-opacity:1; fill:none" points="2357.27,702.463 2309.43,619.6 2213.75,619.6 2165.91,702.463 2213.75,785.325 2309.43,785.325 2357.27,702.463 "/>
<path clip-path="url(#clip652)" d="M1948.39 390.101 L1900.55 307.239 L1804.87 307.239 L1757.02 390.101 L1804.87 472.963 L1900.55 472.963 L1948.39 390.101 L1948.39 390.101  Z" fill="#f5fffa" fill-rule="evenodd" fill-opacity="1"/>
<polyline clip-path="url(#clip652)" style="stroke:#000000; stroke-linecap:round; stroke-linejoin:round; stroke-width:4; stroke-opacity:1; fill:none" points="1948.39,390.101 1900.55,307.239 1804.87,307.239 1757.02,390.101 1804.87,472.963 1900.55,472.963 1948.39,390.101 "/>
<path clip-path="url(#clip652)" d="M1442.98 390.101 L1395.13 307.239 L1299.45 307.239 L1251.61 390.101 L1299.45 472.963 L1395.13 472.963 L1442.98 390.101 L1442.98 390.101  Z" fill="#f5fffa" fill-rule="evenodd" fill-opacity="1"/>
<polyline clip-path="url(#clip652)" style="stroke:#000000; stroke-linecap:round; stroke-linejoin:round; stroke-width:4; stroke-opacity:1; fill:none" points="1442.98,390.101 1395.13,307.239 1299.45,307.239 1251.61,390.101 1299.45,472.963 1395.13,472.963 1442.98,390.101 "/>
<path clip-path="url(#clip652)" d="M1034.09 702.463 L986.248 619.6 L890.567 619.6 L842.727 702.463 L890.567 785.325 L986.248 785.325 L1034.09 702.463 L1034.09 702.463  Z" fill="#f5fffa" fill-rule="evenodd" fill-opacity="1"/>
<polyline clip-path="url(#clip652)" style="stroke:#000000; stroke-linecap:round; stroke-linejoin:round; stroke-width:4; stroke-opacity:1; fill:none" points="1034.09,702.463 986.248,619.6 890.567,619.6 842.727,702.463 890.567,785.325 986.248,785.325 1034.09,702.463 "/>
<path clip-path="url(#clip652)" d="M877.908 1207.87 L830.068 1125.01 L734.387 1125.01 L686.546 1207.87 L734.387 1290.74 L830.068 1290.74 L877.908 1207.87 L877.908 1207.87  Z" fill="#f5fffa" fill-rule="evenodd" fill-opacity="1"/>
<polyline clip-path="url(#clip652)" style="stroke:#000000; stroke-linecap:round; stroke-linejoin:round; stroke-width:4; stroke-opacity:1; fill:none" points="877.908,1207.87 830.068,1125.01 734.387,1125.01 686.546,1207.87 734.387,1290.74 830.068,1290.74 877.908,1207.87 877.908,1207.87 "/>
<path clip-path="url(#clip652)" d="M1034.09 1713.29 L986.248 1630.42 L890.567 1630.42 L842.727 1713.29 L890.567 1796.15 L986.248 1796.15 L1034.09 1713.29 L1034.09 1713.29  Z" fill="#f5fffa" fill-rule="evenodd" fill-opacity="1"/>
<polyline clip-path="url(#clip652)" style="stroke:#000000; stroke-linecap:round; stroke-linejoin:round; stroke-width:4; stroke-opacity:1; fill:none" points="1034.09,1713.29 986.248,1630.42 890.567,1630.42 842.727,1713.29 890.567,1796.15 986.248,1796.15 1034.09,1713.29 "/>
<path clip-path="url(#clip652)" d="M1442.98 2025.65 L1395.13 1942.78 L1299.45 1942.78 L1251.61 2025.65 L1299.45 2108.51 L1395.13 2108.51 L1442.98 2025.65 L1442.98 2025.65  Z" fill="#f5fffa" fill-rule="evenodd" fill-opacity="1"/>
<polyline clip-path="url(#clip652)" style="stroke:#000000; stroke-linecap:round; stroke-linejoin:round; stroke-width:4; stroke-opacity:1; fill:none" points="1442.98,2025.65 1395.13,1942.78 1299.45,1942.78 1251.61,2025.65 1299.45,2108.51 1395.13,2108.51 1442.98,2025.65 "/>
<path clip-path="url(#clip652)" d="M1948.39 2025.65 L1900.55 1942.78 L1804.87 1942.78 L1757.02 2025.65 L1804.87 2108.51 L1900.55 2108.51 L1948.39 2025.65 L1948.39 2025.65  Z" fill="#f5fffa" fill-rule="evenodd" fill-opacity="1"/>
<polyline clip-path="url(#clip652)" style="stroke:#000000; stroke-linecap:round; stroke-linejoin:round; stroke-width:4; stroke-opacity:1; fill:none" points="1948.39,2025.65 1900.55,1942.78 1804.87,1942.78 1757.02,2025.65 1804.87,2108.51 1900.55,2108.51 1948.39,2025.65 "/>
<path clip-path="url(#clip652)" d="M2357.27 1713.29 L2309.43 1630.42 L2213.75 1630.42 L2165.91 1713.29 L2213.75 1796.15 L2309.43 1796.15 L2357.27 1713.29 L2357.27 1713.29  Z" fill="#f5fffa" fill-rule="evenodd" fill-opacity="1"/>
<polyline clip-path="url(#clip652)" style="stroke:#000000; stroke-linecap:round; stroke-linejoin:round; stroke-width:4; stroke-opacity:1; fill:none" points="2357.27,1713.29 2309.43,1630.42 2213.75,1630.42 2165.91,1713.29 2213.75,1796.15 2309.43,1796.15 2357.27,1713.29 "/>
<path clip-path="url(#clip652)" d="M2417.77 1208.67 L2417.08 1208.27 L2417.08 1207.47 L2417.77 1207.07 L2418.47 1207.47 L2418.47 1208.27 Z" fill="#f5fffa" fill-rule="evenodd" fill-opacity="1" stroke="#000000" stroke-opacity="1" stroke-width="4.8"/>
<path clip-path="url(#clip652)" d="M2261.59 703.263 L2260.9 702.863 L2260.9 702.063 L2261.59 701.663 L2262.28 702.063 L2262.28 702.863 Z" fill="#f5fffa" fill-rule="evenodd" fill-opacity="1" stroke="#000000" stroke-opacity="1" stroke-width="4.8"/>
<path clip-path="url(#clip652)" d="M1852.71 390.901 L1852.01 390.501 L1852.01 389.701 L1852.71 389.301 L1853.4 389.701 L1853.4 390.501 Z" fill="#f5fffa" fill-rule="evenodd" fill-opacity="1" stroke="#000000" stroke-opacity="1" stroke-width="4.8"/>
<path clip-path="url(#clip652)" d="M1347.29 390.901 L1346.6 390.501 L1346.6 389.701 L1347.29 389.301 L1347.99 389.701 L1347.99 390.501 Z" fill="#f5fffa" fill-rule="evenodd" fill-opacity="1" stroke="#000000" stroke-opacity="1" stroke-width="4.8"/>
<path clip-path="url(#clip652)" d="M938.408 703.263 L937.715 702.863 L937.715 702.063 L938.408 701.663 L939.101 702.063 L939.101 702.863 Z" fill="#f5fffa" fill-rule="evenodd" fill-opacity="1" stroke="#000000" stroke-opacity="1" stroke-width="4.8"/>
<path clip-path="url(#clip652)" d="M782.227 1208.67 L781.534 1208.27 L781.534 1207.47 L782.227 1207.07 L782.92 1207.47 L782.92 1208.27 Z" fill="#f5fffa" fill-rule="evenodd" fill-opacity="1" stroke="#000000" stroke-opacity="1" stroke-width="4.8"/>
<path clip-path="url(#clip652)" d="M938.408 1714.09 L937.715 1713.69 L937.715 1712.89 L938.408 1712.49 L939.101 1712.89 L939.101 1713.69 Z" fill="#f5fffa" fill-rule="evenodd" fill-opacity="1" stroke="#000000" stroke-opacity="1" stroke-width="4.8"/>
<path clip-path="url(#clip652)" d="M1347.29 2026.45 L1346.6 2026.05 L1346.6 2025.25 L1347.29 2024.85 L1347.99 2025.25 L1347.99 2026.05 Z" fill="#f5fffa" fill-rule="evenodd" fill-opacity="1" stroke="#000000" stroke-opacity="1" stroke-width="4.8"/>
<path clip-path="url(#clip652)" d="M1852.71 2026.45 L1852.01 2026.05 L1852.01 2025.25 L1852.71 2024.85 L1853.4 2025.25 L1853.4 2026.05 Z" fill="#f5fffa" fill-rule="evenodd" fill-opacity="1" stroke="#000000" stroke-opacity="1" stroke-width="4.8"/>
<path clip-path="url(#clip652)" d="M2261.59 1714.09 L2260.9 1713.69 L2260.9 1712.89 L2261.59 1712.49 L2262.28 1712.89 L2262.28 1713.69 Z" fill="#f5fffa" fill-rule="evenodd" fill-opacity="1" stroke="#000000" stroke-opacity="1" stroke-width="4.8"/>
<path clip-path="url(#clip650)" d="M2491.45 1195.45 Q2488.29 1195.45 2486.69 1198.57 Q2485.11 1201.67 2485.11 1207.9 Q2485.11 1214.12 2486.69 1217.24 Q2488.29 1220.34 2491.45 1220.34 Q2494.63 1220.34 2496.21 1217.24 Q2497.81 1214.12 2497.81 1207.9 Q2497.81 1201.67 2496.21 1198.57 Q2494.63 1195.45 2491.45 1195.45 M2491.45 1192.21 Q2496.53 1192.21 2499.21 1196.24 Q2501.9 1200.25 2501.9 1207.9 Q2501.9 1215.54 2499.21 1219.57 Q2496.53 1223.58 2491.45 1223.58 Q2486.36 1223.58 2483.67 1219.57 Q2481 1215.54 2481 1207.9 Q2481 1200.25 2483.67 1196.24 Q2486.36 1192.21 2491.45 1192.21 Z" fill="#000000" fill-rule="nonzero" fill-opacity="1" /><path clip-path="url(#clip650)" d="M2509.8 1219.55 L2516.48 1219.55 L2516.48 1196.48 L2509.21 1197.94 L2509.21 1194.21 L2516.44 1192.75 L2520.53 1192.75 L2520.53 1219.55 L2527.22 1219.55 L2527.22 1222.99 L2509.8 1222.99 L2509.8 1219.55 Z" fill="#000000" fill-rule="nonzero" fill-opacity="1" /><path clip-path="url(#clip650)" d="M1866.89 377.675 Q1863.73 377.675 1862.13 380.794 Q1860.55 383.893 1860.55 390.132 Q1860.55 396.35 1862.13 399.469 Q1863.73 402.568 1866.89 402.568 Q1870.07 402.568 1871.65 399.469 Q1873.25 396.35 1873.25 390.132 Q1873.25 383.893 1871.65 380.794 Q1870.07 377.675 1866.89 377.675 M1866.89 374.434 Q1871.97 374.434 1874.64 378.465 Q1877.34 382.475 1877.34 390.132 Q1877.34 397.768 1874.64 401.798 Q1871.97 405.809 1866.89 405.809 Q1861.8 405.809 1859.11 401.798 Q1856.44 397.768 1856.44 390.132 Q1856.44 382.475 1859.11 378.465 Q1861.8 374.434 1866.89 374.434 Z" fill="#000000" fill-rule="nonzero" fill-opacity="1" /><path clip-path="url(#clip650)" d="M1888.05 401.778 L1902.33 401.778 L1902.33 405.221 L1883.13 405.221 L1883.13 401.778 Q1885.46 399.368 1889.47 395.317 Q1893.5 391.246 1894.53 390.071 Q1896.5 387.863 1897.27 386.344 Q1898.06 384.805 1898.06 383.326 Q1898.06 380.916 1896.36 379.397 Q1894.68 377.878 1891.96 377.878 Q1890.04 377.878 1887.89 378.546 Q1885.76 379.214 1883.33 380.571 L1883.33 376.44 Q1885.81 375.447 1887.95 374.941 Q1890.1 374.434 1891.88 374.434 Q1896.58 374.434 1899.38 376.784 Q1902.17 379.133 1902.17 383.063 Q1902.17 384.926 1901.46 386.607 Q1900.77 388.268 1898.93 390.537 Q1898.42 391.124 1895.71 393.939 Q1893 396.735 1888.05 401.778 Z" fill="#000000" fill-rule="nonzero" fill-opacity="1" /><path clip-path="url(#clip650)" d="M855.65 690.036 Q852.49 690.036 850.89 693.156 Q849.31 696.255 849.31 702.493 Q849.31 708.711 850.89 711.83 Q852.49 714.929 855.65 714.929 Q858.829 714.929 860.409 711.83 Q862.009 708.711 862.009 702.493 Q862.009 696.255 860.409 693.156 Q858.829 690.036 855.65 690.036 M855.65 686.796 Q860.733 686.796 863.407 690.826 Q866.101 694.837 866.101 702.493 Q866.101 710.129 863.407 714.16 Q860.733 718.17 855.65 718.17 Q850.566 718.17 847.872 714.16 Q845.198 710.129 845.198 702.493 Q845.198 694.837 847.872 690.826 Q850.566 686.796 855.65 686.796 Z" fill="#000000" fill-rule="nonzero" fill-opacity="1" /><path clip-path="url(#clip650)" d="M885.687 701.278 Q888.624 701.906 890.265 703.891 Q891.925 705.876 891.925 708.792 Q891.925 713.268 888.847 715.719 Q885.768 718.17 880.097 718.17 Q878.193 718.17 876.167 717.785 Q874.162 717.421 872.015 716.671 L872.015 712.722 Q873.717 713.714 875.742 714.22 Q877.767 714.727 879.975 714.727 Q883.824 714.727 885.829 713.208 Q887.854 711.689 887.854 708.792 Q887.854 706.119 885.971 704.62 Q884.107 703.101 880.765 703.101 L877.241 703.101 L877.241 699.738 L880.927 699.738 Q883.945 699.738 885.545 698.543 Q887.145 697.328 887.145 695.06 Q887.145 692.73 885.484 691.495 Q883.844 690.239 880.765 690.239 Q879.084 690.239 877.16 690.604 Q875.236 690.968 872.927 691.738 L872.927 688.092 Q875.256 687.444 877.281 687.12 Q879.327 686.796 881.13 686.796 Q885.788 686.796 888.502 688.922 Q891.216 691.029 891.216 694.634 Q891.216 697.146 889.778 698.888 Q888.34 700.609 885.687 701.278 Z" fill="#000000" fill-rule="nonzero" fill-opacity="1" /><path clip-path="url(#clip650)" d="M855.153 1700.86 Q851.994 1700.86 850.393 1703.98 Q848.814 1707.08 848.814 1713.32 Q848.814 1719.53 850.393 1722.65 Q851.994 1725.75 855.153 1725.75 Q858.333 1725.75 859.913 1722.65 Q861.513 1719.53 861.513 1713.32 Q861.513 1707.08 859.913 1703.98 Q858.333 1700.86 855.153 1700.86 M855.153 1697.62 Q860.237 1697.62 862.911 1701.65 Q865.605 1705.66 865.605 1713.32 Q865.605 1720.95 862.911 1724.98 Q860.237 1728.99 855.153 1728.99 Q850.069 1728.99 847.376 1724.98 Q844.702 1720.95 844.702 1713.32 Q844.702 1705.66 847.376 1701.65 Q850.069 1697.62 855.153 1697.62 Z" fill="#000000" fill-rule="nonzero" fill-opacity="1" /><path clip-path="url(#clip650)" d="M884.036 1701.73 L873.706 1717.87 L884.036 1717.87 L884.036 1701.73 M882.963 1698.17 L888.107 1698.17 L888.107 1717.87 L892.422 1717.87 L892.422 1721.28 L888.107 1721.28 L888.107 1728.41 L884.036 1728.41 L884.036 1721.28 L870.385 1721.28 L870.385 1717.33 L882.963 1698.17 Z" fill="#000000" fill-rule="nonzero" fill-opacity="1" /><path clip-path="url(#clip650)" d="M1866.62 2013.22 Q1863.46 2013.22 1861.86 2016.34 Q1860.28 2019.44 1860.28 2025.68 Q1860.28 2031.9 1861.86 2035.01 Q1863.46 2038.11 1866.62 2038.11 Q1869.8 2038.11 1871.38 2035.01 Q1872.98 2031.9 1872.98 2025.68 Q1872.98 2019.44 1871.38 2016.34 Q1869.8 2013.22 1866.62 2013.22 M1866.62 2009.98 Q1871.71 2009.98 1874.38 2014.01 Q1877.08 2018.02 1877.08 2025.68 Q1877.08 2033.31 1874.38 2037.34 Q1871.71 2041.35 1866.62 2041.35 Q1861.54 2041.35 1858.85 2037.34 Q1856.17 2033.31 1856.17 2025.68 Q1856.17 2018.02 1858.85 2014.01 Q1861.54 2009.98 1866.62 2009.98 Z" fill="#000000" fill-rule="nonzero" fill-opacity="1" /><path clip-path="url(#clip650)" d="M1884.31 2010.53 L1900.37 2010.53 L1900.37 2013.97 L1888.05 2013.97 L1888.05 2021.38 Q1888.94 2021.08 1889.84 2020.94 Q1890.73 2020.78 1891.62 2020.78 Q1896.68 2020.78 1899.64 2023.55 Q1902.6 2026.33 1902.6 2031.06 Q1902.6 2035.95 1899.56 2038.66 Q1896.52 2041.35 1890.99 2041.35 Q1889.09 2041.35 1887.1 2041.03 Q1885.14 2040.71 1883.03 2040.06 L1883.03 2035.95 Q1884.85 2036.94 1886.8 2037.42 Q1888.74 2037.91 1890.91 2037.91 Q1894.41 2037.91 1896.46 2036.07 Q1898.5 2034.22 1898.5 2031.06 Q1898.5 2027.91 1896.46 2026.06 Q1894.41 2024.22 1890.91 2024.22 Q1889.27 2024.22 1887.63 2024.58 Q1886.01 2024.95 1884.31 2025.72 L1884.31 2010.53 Z" fill="#000000" fill-rule="nonzero" fill-opacity="1" /><path clip-path="url(#clip650)" d="M2405.11 1195.45 Q2401.95 1195.45 2400.35 1198.57 Q2398.77 1201.67 2398.77 1207.9 Q2398.77 1214.12 2400.35 1217.24 Q2401.95 1220.34 2405.11 1220.34 Q2408.29 1220.34 2409.87 1217.24 Q2411.47 1214.12 2411.47 1207.9 Q2411.47 1201.67 2409.87 1198.57 Q2408.29 1195.45 2405.11 1195.45 M2405.11 1192.21 Q2410.2 1192.21 2412.87 1196.24 Q2415.57 1200.25 2415.57 1207.9 Q2415.57 1215.54 2412.87 1219.57 Q2410.2 1223.58 2405.11 1223.58 Q2400.03 1223.58 2397.34 1219.57 Q2394.66 1215.54 2394.66 1207.9 Q2394.66 1200.25 2397.34 1196.24 Q2400.03 1192.21 2405.11 1192.21 Z" fill="#000000" fill-rule="nonzero" fill-opacity="1" /><path clip-path="url(#clip650)" d="M2423.46 1219.55 L2430.15 1219.55 L2430.15 1196.48 L2422.88 1197.94 L2422.88 1194.21 L2430.11 1192.75 L2434.2 1192.75 L2434.2 1219.55 L2440.88 1219.55 L2440.88 1222.99 L2423.46 1222.99 L2423.46 1219.55 Z" fill="#000000" fill-rule="nonzero" fill-opacity="1" /><path clip-path="url(#clip650)" d="M2249.1 690.036 Q2245.94 690.036 2244.34 693.156 Q2242.76 696.255 2242.76 702.493 Q2242.76 708.711 2244.34 711.83 Q2245.94 714.929 2249.1 714.929 Q2252.27 714.929 2253.85 711.83 Q2255.45 708.711 2255.45 702.493 Q2255.45 696.255 2253.85 693.156 Q2252.27 690.036 2249.1 690.036 M2249.1 686.796 Q2254.18 686.796 2256.85 690.826 Q2259.55 694.837 2259.55 702.493 Q2259.55 710.129 2256.85 714.16 Q2254.18 718.17 2249.1 718.17 Q2244.01 718.17 2241.32 714.16 Q2238.64 710.129 2238.64 702.493 Q2238.64 694.837 2241.32 690.826 Q2244.01 686.796 2249.1 686.796 Z" fill="#000000" fill-rule="nonzero" fill-opacity="1" /><path clip-path="url(#clip650)" d="M2270.26 714.139 L2284.54 714.139 L2284.54 717.583 L2265.34 717.583 L2265.34 714.139 Q2267.67 711.729 2271.68 707.678 Q2275.71 703.607 2276.74 702.432 Q2278.71 700.225 2279.48 698.705 Q2280.27 697.166 2280.27 695.688 Q2280.27 693.277 2278.57 691.758 Q2276.88 690.239 2274.17 690.239 Q2272.25 690.239 2270.1 690.907 Q2267.97 691.576 2265.54 692.933 L2265.54 688.801 Q2268.01 687.808 2270.16 687.302 Q2272.31 686.796 2274.09 686.796 Q2278.79 686.796 2281.58 689.145 Q2284.38 691.495 2284.38 695.424 Q2284.38 697.288 2283.67 698.969 Q2282.98 700.63 2281.14 702.898 Q2280.63 703.485 2277.92 706.301 Q2275.2 709.096 2270.26 714.139 Z" fill="#000000" fill-rule="nonzero" fill-opacity="1" /><path clip-path="url(#clip650)" d="M1839.79 377.675 Q1836.63 377.675 1835.03 380.794 Q1833.45 383.893 1833.45 390.132 Q1833.45 396.35 1835.03 399.469 Q1836.63 402.568 1839.79 402.568 Q1842.97 402.568 1844.55 399.469 Q1846.15 396.35 1846.15 390.132 Q1846.15 383.893 1844.55 380.794 Q1842.97 377.675 1839.79 377.675 M1839.79 374.434 Q1844.88 374.434 1847.55 378.465 Q1850.24 382.475 1850.24 390.132 Q1850.24 397.768 1847.55 401.798 Q1844.88 405.809 1839.79 405.809 Q1834.71 405.809 1832.02 401.798 Q1829.34 397.768 1829.34 390.132 Q1829.34 382.475 1832.02 378.465 Q1834.71 374.434 1839.79 374.434 Z" fill="#000000" fill-rule="nonzero" fill-opacity="1" /><path clip-path="url(#clip650)" d="M1869.83 388.916 Q1872.77 389.544 1874.41 391.529 Q1876.07 393.514 1876.07 396.431 Q1876.07 400.907 1872.99 403.358 Q1869.91 405.809 1864.24 405.809 Q1862.34 405.809 1860.31 405.424 Q1858.31 405.059 1856.16 404.31 L1856.16 400.36 Q1857.86 401.353 1859.89 401.859 Q1861.91 402.365 1864.12 402.365 Q1867.97 402.365 1869.97 400.846 Q1872 399.327 1872 396.431 Q1872 393.757 1870.11 392.258 Q1868.25 390.739 1864.91 390.739 L1861.38 390.739 L1861.38 387.377 L1865.07 387.377 Q1868.09 387.377 1869.69 386.182 Q1871.29 384.967 1871.29 382.698 Q1871.29 380.369 1869.63 379.133 Q1867.99 377.878 1864.91 377.878 Q1863.23 377.878 1861.3 378.242 Q1859.38 378.607 1857.07 379.376 L1857.07 375.731 Q1859.4 375.083 1861.43 374.758 Q1863.47 374.434 1865.27 374.434 Q1869.93 374.434 1872.65 376.561 Q1875.36 378.668 1875.36 382.273 Q1875.36 384.784 1873.92 386.526 Q1872.48 388.248 1869.83 388.916 Z" fill="#000000" fill-rule="nonzero" fill-opacity="1" /><path clip-path="url(#clip650)" d="M1333.89 377.675 Q1330.73 377.675 1329.13 380.794 Q1327.55 383.893 1327.55 390.132 Q1327.55 396.35 1329.13 399.469 Q1330.73 402.568 1333.89 402.568 Q1337.07 402.568 1338.65 399.469 Q1340.25 396.35 1340.25 390.132 Q1340.25 383.893 1338.65 380.794 Q1337.07 377.675 1333.89 377.675 M1333.89 374.434 Q1338.97 374.434 1341.64 378.465 Q1344.34 382.475 1344.34 390.132 Q1344.34 397.768 1341.64 401.798 Q1338.97 405.809 1333.89 405.809 Q1328.8 405.809 1326.11 401.798 Q1323.43 397.768 1323.43 390.132 Q1323.43 382.475 1326.11 378.465 Q1328.8 374.434 1333.89 374.434 Z" fill="#000000" fill-rule="nonzero" fill-opacity="1" /><path clip-path="url(#clip650)" d="M1362.77 378.546 L1352.44 394.689 L1362.77 394.689 L1362.77 378.546 M1361.7 374.981 L1366.84 374.981 L1366.84 394.689 L1371.15 394.689 L1371.15 398.092 L1366.84 398.092 L1366.84 405.221 L1362.77 405.221 L1362.77 398.092 L1349.12 398.092 L1349.12 394.142 L1361.7 374.981 Z" fill="#000000" fill-rule="nonzero" fill-opacity="1" /><path clip-path="url(#clip650)" d="M925.648 690.036 Q922.488 690.036 920.888 693.156 Q919.308 696.255 919.308 702.493 Q919.308 708.711 920.888 711.83 Q922.488 714.929 925.648 714.929 Q928.828 714.929 930.407 711.83 Q932.007 708.711 932.007 702.493 Q932.007 696.255 930.407 693.156 Q928.828 690.036 925.648 690.036 M925.648 686.796 Q930.731 686.796 933.405 690.826 Q936.099 694.837 936.099 702.493 Q936.099 710.129 933.405 714.16 Q930.731 718.17 925.648 718.17 Q920.564 718.17 917.87 714.16 Q915.196 710.129 915.196 702.493 Q915.196 694.837 917.87 690.826 Q920.564 686.796 925.648 686.796 Z" fill="#000000" fill-rule="nonzero" fill-opacity="1" /><path clip-path="url(#clip650)" d="M943.33 687.343 L959.392 687.343 L959.392 690.786 L947.077 690.786 L947.077 698.199 Q947.968 697.895 948.859 697.753 Q949.75 697.591 950.642 697.591 Q955.705 697.591 958.662 700.366 Q961.62 703.141 961.62 707.881 Q961.62 712.762 958.581 715.476 Q955.543 718.17 950.014 718.17 Q948.11 718.17 946.125 717.846 Q944.16 717.522 942.054 716.874 L942.054 712.762 Q943.877 713.755 945.821 714.241 Q947.766 714.727 949.933 714.727 Q953.437 714.727 955.482 712.884 Q957.528 711.04 957.528 707.881 Q957.528 704.721 955.482 702.878 Q953.437 701.035 949.933 701.035 Q948.292 701.035 946.652 701.399 Q945.031 701.764 943.33 702.534 L943.33 687.343 Z" fill="#000000" fill-rule="nonzero" fill-opacity="1" /><path clip-path="url(#clip650)" d="M769.568 1195.45 Q766.408 1195.45 764.808 1198.57 Q763.228 1201.67 763.228 1207.9 Q763.228 1214.12 764.808 1217.24 Q766.408 1220.34 769.568 1220.34 Q772.748 1220.34 774.328 1217.24 Q775.928 1214.12 775.928 1207.9 Q775.928 1201.67 774.328 1198.57 Q772.748 1195.45 769.568 1195.45 M769.568 1192.21 Q774.652 1192.21 777.326 1196.24 Q780.019 1200.25 780.019 1207.9 Q780.019 1215.54 777.326 1219.57 Q774.652 1223.58 769.568 1223.58 Q764.484 1223.58 761.79 1219.57 Q759.117 1215.54 759.117 1207.9 Q759.117 1200.25 761.79 1196.24 Q764.484 1192.21 769.568 1192.21 Z" fill="#000000" fill-rule="nonzero" fill-opacity="1" /><path clip-path="url(#clip650)" d="M787.919 1219.55 L794.603 1219.55 L794.603 1196.48 L787.331 1197.94 L787.331 1194.21 L794.562 1192.75 L798.654 1192.75 L798.654 1219.55 L805.338 1219.55 L805.338 1222.99 L787.919 1222.99 L787.919 1219.55 Z" fill="#000000" fill-rule="nonzero" fill-opacity="1" /><path clip-path="url(#clip650)" d="M925.911 1700.86 Q922.751 1700.86 921.151 1703.98 Q919.571 1707.08 919.571 1713.32 Q919.571 1719.53 921.151 1722.65 Q922.751 1725.75 925.911 1725.75 Q929.091 1725.75 930.671 1722.65 Q932.271 1719.53 932.271 1713.32 Q932.271 1707.08 930.671 1703.98 Q929.091 1700.86 925.911 1700.86 M925.911 1697.62 Q930.995 1697.62 933.668 1701.65 Q936.362 1705.66 936.362 1713.32 Q936.362 1720.95 933.668 1724.98 Q930.995 1728.99 925.911 1728.99 Q920.827 1728.99 918.133 1724.98 Q915.46 1720.95 915.46 1713.32 Q915.46 1705.66 918.133 1701.65 Q920.827 1697.62 925.911 1697.62 Z" fill="#000000" fill-rule="nonzero" fill-opacity="1" /><path clip-path="url(#clip650)" d="M947.077 1724.96 L961.356 1724.96 L961.356 1728.41 L942.155 1728.41 L942.155 1724.96 Q944.484 1722.55 948.495 1718.5 Q952.525 1714.43 953.558 1713.26 Q955.523 1711.05 956.293 1709.53 Q957.083 1707.99 957.083 1706.51 Q957.083 1704.1 955.381 1702.58 Q953.7 1701.06 950.986 1701.06 Q949.062 1701.06 946.915 1701.73 Q944.788 1702.4 942.358 1703.76 L942.358 1699.62 Q944.829 1698.63 946.976 1698.12 Q949.123 1697.62 950.905 1697.62 Q955.604 1697.62 958.399 1699.97 Q961.194 1702.32 961.194 1706.25 Q961.194 1708.11 960.485 1709.79 Q959.797 1711.45 957.954 1713.72 Q957.447 1714.31 954.733 1717.12 Q952.019 1719.92 947.077 1724.96 Z" fill="#000000" fill-rule="nonzero" fill-opacity="1" /><path clip-path="url(#clip650)" d="M1334.38 2013.22 Q1331.22 2013.22 1329.62 2016.34 Q1328.04 2019.44 1328.04 2025.68 Q1328.04 2031.9 1329.62 2035.01 Q1331.22 2038.11 1334.38 2038.11 Q1337.56 2038.11 1339.14 2035.01 Q1340.74 2031.9 1340.74 2025.68 Q1340.74 2019.44 1339.14 2016.34 Q1337.56 2013.22 1334.38 2013.22 M1334.38 2009.98 Q1339.47 2009.98 1342.14 2014.01 Q1344.83 2018.02 1344.83 2025.68 Q1344.83 2033.31 1342.14 2037.34 Q1339.47 2041.35 1334.38 2041.35 Q1329.3 2041.35 1326.6 2037.34 Q1323.93 2033.31 1323.93 2025.68 Q1323.93 2018.02 1326.6 2014.01 Q1329.3 2009.98 1334.38 2009.98 Z" fill="#000000" fill-rule="nonzero" fill-opacity="1" /><path clip-path="url(#clip650)" d="M1364.42 2024.46 Q1367.36 2025.09 1369 2027.07 Q1370.66 2029.06 1370.66 2031.98 Q1370.66 2036.45 1367.58 2038.9 Q1364.5 2041.35 1358.83 2041.35 Q1356.93 2041.35 1354.9 2040.97 Q1352.89 2040.6 1350.75 2039.86 L1350.75 2035.91 Q1352.45 2036.9 1354.47 2037.4 Q1356.5 2037.91 1358.71 2037.91 Q1362.56 2037.91 1364.56 2036.39 Q1366.59 2034.87 1366.59 2031.98 Q1366.59 2029.3 1364.7 2027.8 Q1362.84 2026.28 1359.5 2026.28 L1355.97 2026.28 L1355.97 2022.92 L1359.66 2022.92 Q1362.68 2022.92 1364.28 2021.73 Q1365.88 2020.51 1365.88 2018.24 Q1365.88 2015.91 1364.22 2014.68 Q1362.58 2013.42 1359.5 2013.42 Q1357.82 2013.42 1355.89 2013.79 Q1353.97 2014.15 1351.66 2014.92 L1351.66 2011.28 Q1353.99 2010.63 1356.01 2010.3 Q1358.06 2009.98 1359.86 2009.98 Q1364.52 2009.98 1367.23 2012.11 Q1369.95 2014.21 1369.95 2017.82 Q1369.95 2020.33 1368.51 2022.07 Q1367.07 2023.79 1364.42 2024.46 Z" fill="#000000" fill-rule="nonzero" fill-opacity="1" /><path clip-path="url(#clip650)" d="M1839.3 2013.22 Q1836.14 2013.22 1834.54 2016.34 Q1832.96 2019.44 1832.96 2025.68 Q1832.96 2031.9 1834.54 2035.01 Q1836.14 2038.11 1839.3 2038.11 Q1842.48 2038.11 1844.06 2035.01 Q1845.66 2031.9 1845.66 2025.68 Q1845.66 2019.44 1844.06 2016.34 Q1842.48 2013.22 1839.3 2013.22 M1839.3 2009.98 Q1844.38 2009.98 1847.05 2014.01 Q1849.75 2018.02 1849.75 2025.68 Q1849.75 2033.31 1847.05 2037.34 Q1844.38 2041.35 1839.3 2041.35 Q1834.21 2041.35 1831.52 2037.34 Q1828.85 2033.31 1828.85 2025.68 Q1828.85 2018.02 1831.52 2014.01 Q1834.21 2009.98 1839.3 2009.98 Z" fill="#000000" fill-rule="nonzero" fill-opacity="1" /><path clip-path="url(#clip650)" d="M1868.18 2014.09 L1857.85 2030.23 L1868.18 2030.23 L1868.18 2014.09 M1867.11 2010.53 L1872.25 2010.53 L1872.25 2030.23 L1876.57 2030.23 L1876.57 2033.64 L1872.25 2033.64 L1872.25 2040.77 L1868.18 2040.77 L1868.18 2033.64 L1854.53 2033.64 L1854.53 2029.69 L1867.11 2010.53 Z" fill="#000000" fill-rule="nonzero" fill-opacity="1" /><path clip-path="url(#clip650)" d="M2248.83 1700.86 Q2245.67 1700.86 2244.07 1703.98 Q2242.49 1707.08 2242.49 1713.32 Q2242.49 1719.53 2244.07 1722.65 Q2245.67 1725.75 2248.83 1725.75 Q2252.01 1725.75 2253.59 1722.65 Q2255.19 1719.53 2255.19 1713.32 Q2255.19 1707.08 2253.59 1703.98 Q2252.01 1700.86 2248.83 1700.86 M2248.83 1697.62 Q2253.92 1697.62 2256.59 1701.65 Q2259.28 1705.66 2259.28 1713.32 Q2259.28 1720.95 2256.59 1724.98 Q2253.92 1728.99 2248.83 1728.99 Q2243.75 1728.99 2241.05 1724.98 Q2238.38 1720.95 2238.38 1713.32 Q2238.38 1705.66 2241.05 1701.65 Q2243.75 1697.62 2248.83 1697.62 Z" fill="#000000" fill-rule="nonzero" fill-opacity="1" /><path clip-path="url(#clip650)" d="M2266.51 1698.17 L2282.58 1698.17 L2282.58 1701.61 L2270.26 1701.61 L2270.26 1709.02 Q2271.15 1708.72 2272.04 1708.58 Q2272.93 1708.41 2273.83 1708.41 Q2278.89 1708.41 2281.85 1711.19 Q2284.8 1713.96 2284.8 1718.7 Q2284.8 1723.58 2281.77 1726.3 Q2278.73 1728.99 2273.2 1728.99 Q2271.29 1728.99 2269.31 1728.67 Q2267.34 1728.34 2265.24 1727.7 L2265.24 1723.58 Q2267.06 1724.58 2269.01 1725.06 Q2270.95 1725.55 2273.12 1725.55 Q2276.62 1725.55 2278.67 1723.71 Q2280.71 1721.86 2280.71 1718.7 Q2280.71 1715.54 2278.67 1713.7 Q2276.62 1711.86 2273.12 1711.86 Q2271.48 1711.86 2269.84 1712.22 Q2268.22 1712.59 2266.51 1713.36 L2266.51 1698.17 Z" fill="#000000" fill-rule="nonzero" fill-opacity="1" /></svg>
