<?xml version="1.0" encoding="utf-8"?>
<svg xmlns="http://www.w3.org/2000/svg" xmlns:xlink="http://www.w3.org/1999/xlink" width="800" height="600" viewBox="0 0 3200 2400">
<defs>
  <clipPath id="clip220">
    <rect x="0" y="0" width="3200" height="2400"/>
  </clipPath>
</defs>
<path clip-path="url(#clip220)" d="
M0 2400 L3200 2400 L3200 0 L0 0  Z
  " fill="#ffffff" fill-rule="evenodd" fill-opacity="1"/>
<defs>
  <clipPath id="clip221">
    <rect x="640" y="0" width="2241" height="2241"/>
  </clipPath>
</defs>
<path clip-path="url(#clip220)" d="
M455.118 2352.76 L2744.88 2352.76 L2744.88 62.9921 L455.118 62.9921  Z
  " fill="#ffffff" fill-rule="evenodd" fill-opacity="1"/>
<defs>
  <clipPath id="clip222">
    <rect x="455" y="62" width="2291" height="2291"/>
  </clipPath>
</defs>
<path clip-path="url(#clip220)" d="M715.99 103.68 L715.99 99.7892 L719.016 99.7892 Q725.872 99.7892 727.416 98.6776 Q729.021 97.5042 729.021 93.7987 L729.021 27.1613 Q729.021 23.5176 727.416 22.4059 Q725.81 21.2325 719.016 21.2325 L715.99 21.2325 L715.99 17.28 L755.701 17.28 Q769.473 17.28 779.046 24.0734 Q788.68 30.8051 788.68 40.0688 Q788.68 47.1711 782.442 52.7293 Q776.205 58.2876 766.57 60.6962 Q779.107 65.0192 782.01 75.3329 L783.616 85.4613 Q784.11 89.105 784.419 90.9578 Q784.789 92.8105 785.345 95.3426 Q785.901 97.8747 786.457 99.1099 Q787.074 100.283 787.939 101.58 Q788.803 102.815 789.915 103.248 Q791.088 103.68 792.632 103.68 Q795.535 103.68 798.005 101.086 Q800.476 98.4923 800.97 92.44 Q801.217 90.4019 802.514 90.4019 Q804.12 90.4019 804.12 92.44 Q804.12 94.231 803.625 96.3308 Q803.131 98.3688 801.896 100.777 Q800.723 103.186 798.129 104.792 Q795.535 106.459 792.138 106.459 Q782.257 106.459 776.205 101.148 Q773.673 98.8628 772.499 95.8984 Q771.388 92.934 771.202 90.5872 Q771.017 88.2404 771.017 83.0527 Q771.017 75.7034 770.214 72.492 Q769.473 69.2806 766.2 66.1309 Q761.753 61.8078 754.404 61.8078 L739.891 61.8078 L739.891 93.7987 Q739.891 97.4424 741.435 98.6158 Q743.04 99.7892 749.896 99.7892 L752.922 99.7892 L752.922 103.68 Q748.352 103.309 734.456 103.309 Q720.56 103.309 715.99 103.68 M739.891 59.0287 L753.91 59.0287 Q760.642 59.0287 765.15 57.423 Q769.72 55.7555 771.882 52.7911 Q774.043 49.8267 774.846 46.8623 Q775.649 43.8361 775.649 40.0688 Q775.649 35.6222 774.661 32.2873 Q773.673 28.9523 771.511 26.9761 Q769.35 24.9998 767.188 23.7646 Q765.026 22.4677 761.691 21.9736 Q758.357 21.4796 756.071 21.3561 Q753.786 21.2325 750.143 21.2325 Q743.967 21.2325 742.67 21.4796 Q741.249 21.6031 740.694 22.2824 Q740.138 22.9618 740.014 23.7646 Q739.891 24.5057 739.891 26.2967 L739.891 59.0287 Z" fill="#000000" fill-rule="evenodd" fill-opacity="1" /><path clip-path="url(#clip220)" d="M809.925 91.6371 Q809.925 80.8912 822.585 75.2094 Q830.182 71.5656 845.868 70.6393 L845.868 66.0074 Q845.868 58.1641 841.73 54.0262 Q837.654 49.8267 832.467 49.8267 Q823.203 49.8267 818.756 55.632 Q822.524 55.7555 823.882 57.67 Q825.241 59.5227 825.241 61.4373 Q825.241 63.9693 823.635 65.6368 Q822.091 67.2425 819.436 67.2425 Q816.904 67.2425 815.236 65.6986 Q813.569 64.0929 813.569 61.3137 Q813.569 55.1379 819.127 51.0618 Q824.747 46.9858 832.714 46.9858 Q843.089 46.9858 850.006 53.9645 Q852.168 56.126 853.217 58.9052 Q854.329 61.6843 854.453 63.537 Q854.576 65.328 854.576 68.91 L854.576 94.1692 Q854.576 94.9103 854.823 96.1455 Q855.07 97.3806 856.182 98.9864 Q857.355 100.53 859.27 100.53 Q863.84 100.53 863.778 92.44 L863.778 85.3378 L866.99 85.3378 L866.99 92.44 Q866.99 99.1716 863.408 101.827 Q859.887 104.421 856.614 104.421 Q852.415 104.421 849.759 101.333 Q847.103 98.2453 846.733 94.0457 Q844.818 98.8628 840.433 102.013 Q836.11 105.1 830.182 105.1 Q825.611 105.1 821.288 103.927 Q817.027 102.815 813.445 99.6657 Q809.925 96.4543 809.925 91.6371 M819.683 91.5136 Q819.683 96.2072 823.018 99.2334 Q826.353 102.26 831.046 102.26 Q836.357 102.26 841.113 98.1835 Q845.868 94.0457 845.868 85.9553 L845.868 73.2949 Q831.849 73.7889 825.735 79.4089 Q819.683 84.9672 819.683 91.5136 Z" fill="#000000" fill-rule="evenodd" fill-opacity="1" /><path clip-path="url(#clip220)" d="M871.93 103.68 L871.93 99.7892 Q878.662 99.7892 880.206 98.9864 Q881.75 98.1217 881.75 94.0457 L881.75 60.1403 Q881.75 55.4467 880.082 54.2733 Q878.477 53.0999 871.93 53.0999 L871.93 49.1473 L889.717 47.7886 L889.717 61.0667 Q895.645 47.7886 908.429 47.7886 Q917.94 47.7886 921.708 52.4823 Q924.487 55.632 925.042 59.1522 Q925.66 62.6724 925.66 71.8127 L925.66 95.9602 Q925.784 98.6158 927.822 99.2334 Q929.86 99.7892 935.541 99.7892 L935.541 103.68 Q922.634 103.309 921.337 103.309 Q920.349 103.309 907.071 103.68 L907.071 99.7892 Q913.802 99.7892 915.346 98.9864 Q916.952 98.1217 916.952 94.0457 L916.952 64.5869 Q916.952 58.1641 914.976 54.3968 Q913 50.5678 907.565 50.5678 Q901.018 50.5678 895.769 56.0643 Q890.52 61.5608 890.52 70.8245 L890.52 94.0457 Q890.52 98.1217 892.063 98.9864 Q893.669 99.7892 900.339 99.7892 L900.339 103.68 Q887.432 103.309 886.196 103.309 Q885.208 103.309 871.93 103.68 Z" fill="#000000" fill-rule="evenodd" fill-opacity="1" /><path clip-path="url(#clip220)" d="M942.335 76.5063 Q942.335 64.4634 950.734 56.126 Q959.133 47.7886 970.497 47.7886 Q980.131 47.7886 986.43 55.632 L986.43 28.273 Q986.43 23.5794 984.763 22.4059 Q983.157 21.2325 976.611 21.2325 L976.611 17.28 L994.829 15.9213 L994.829 92.687 Q994.829 97.3806 996.435 98.6158 Q998.103 99.7892 1004.65 99.7892 L1004.65 103.68 L986.06 105.1 L986.06 96.7013 Q979.513 105.039 969.138 105.1 Q958.268 105.1 950.302 96.7631 Q942.335 88.4257 942.335 76.5063 M952.834 76.6298 Q952.834 88.3639 956.477 94.1692 Q961.542 102.26 969.756 102.26 Q979.143 102.26 984.701 93.4281 Q986.122 91.2666 986.06 88.7345 L986.06 62.7959 Q986.06 60.2638 984.701 58.1641 Q979.513 50.5678 971.052 50.5678 Q962.221 50.5678 956.725 58.6581 Q952.834 64.7105 952.834 76.6298 Z" fill="#000000" fill-rule="evenodd" fill-opacity="1" /><path clip-path="url(#clip220)" d="M1020.03 96.8866 Q1011.69 88.611 1011.69 76.6298 Q1011.69 64.5869 1019.84 55.8172 Q1028.06 46.9858 1039.79 46.9858 Q1051.28 46.9858 1059.49 55.7555 Q1067.77 64.4634 1067.77 76.6298 Q1067.77 88.5492 1059.43 96.8248 Q1051.15 105.1 1039.67 105.1 Q1028.43 105.1 1020.03 96.8866 M1022.19 75.5799 Q1022.19 87.8698 1025.4 93.4281 Q1030.34 101.889 1039.79 101.889 Q1044.48 101.889 1048.37 99.3569 Q1052.33 96.8248 1054.49 92.5635 Q1057.27 87.0052 1057.27 75.5799 Q1057.27 63.4135 1053.93 58.0405 Q1048.99 49.8267 1039.67 49.8267 Q1035.59 49.8267 1031.58 51.9882 Q1027.62 54.088 1025.21 58.2876 Q1022.19 63.8458 1022.19 75.5799 Z" fill="#000000" fill-rule="evenodd" fill-opacity="1" /><path clip-path="url(#clip220)" d="M1075.49 103.68 L1075.49 99.7892 Q1082.22 99.7892 1083.76 98.9864 Q1085.31 98.1217 1085.31 94.0457 L1085.31 60.1403 Q1085.31 55.4467 1083.64 54.2733 Q1082.03 53.0999 1075.49 53.0999 L1075.49 49.1473 L1093.27 47.7886 L1093.27 61.0667 Q1099.2 47.7886 1111.99 47.7886 Q1126.81 47.7886 1128.85 60.1403 Q1131.01 55.3232 1135.52 51.5559 Q1140.09 47.7886 1147.19 47.7886 Q1156.7 47.7886 1160.47 52.4823 Q1163.24 55.632 1163.8 59.1522 Q1164.36 62.6724 1164.36 71.8127 L1164.36 95.9602 Q1164.48 98.6158 1166.52 99.2334 Q1168.56 99.7892 1174.24 99.7892 L1174.24 103.68 Q1161.33 103.309 1160.09 103.309 Q1159.11 103.309 1145.77 103.68 L1145.77 99.7892 Q1152.5 99.7892 1154.04 98.9864 Q1155.65 98.1217 1155.65 94.0457 L1155.65 64.5869 Q1155.65 58.1641 1153.67 54.3968 Q1151.7 50.5678 1146.26 50.5678 Q1139.71 50.5678 1134.47 56.0643 Q1129.22 61.5608 1129.22 70.8245 L1129.22 94.0457 Q1129.22 98.1217 1130.76 98.9864 Q1132.37 99.7892 1139.1 99.7892 L1139.1 103.68 Q1126.19 103.309 1124.89 103.309 Q1123.9 103.309 1110.63 103.68 L1110.63 99.7892 Q1117.36 99.7892 1118.9 98.9864 Q1120.51 98.1217 1120.51 94.0457 L1120.51 64.5869 Q1120.51 58.1641 1118.53 54.3968 Q1116.56 50.5678 1111.12 50.5678 Q1104.57 50.5678 1099.32 56.0643 Q1094.08 61.5608 1094.08 70.8245 L1094.08 94.0457 Q1094.08 98.1217 1095.62 98.9864 Q1097.22 99.7892 1103.89 99.7892 L1103.89 103.68 Q1090.99 103.309 1089.75 103.309 Q1088.76 103.309 1075.49 103.68 Z" fill="#000000" fill-rule="evenodd" fill-opacity="1" /><path clip-path="url(#clip220)" d="M1221.05 21.2325 L1221.05 17.28 Q1222.84 17.28 1226.05 17.4035 Q1229.26 17.527 1231.8 17.5888 Q1234.33 17.6506 1236.49 17.6506 Q1249.89 17.6506 1254.46 17.28 L1254.46 21.2325 Q1243.84 21.2325 1243.84 24.9998 Q1243.84 25.8644 1244.09 26.6673 L1264.4 88.858 L1282.01 34.6341 L1279.23 25.7409 Q1278.24 22.5912 1276.08 21.9119 Q1273.92 21.2325 1267.86 21.2325 L1267.86 17.28 Q1269.65 17.28 1272.87 17.4035 Q1276.08 17.527 1278.61 17.5888 Q1281.14 17.6506 1283.24 17.6506 Q1296.64 17.6506 1301.21 17.28 L1301.21 21.2325 Q1290.59 21.2325 1290.59 24.9998 Q1290.59 25.3704 1290.96 26.9143 L1311.22 88.858 L1330.18 30.4345 Q1330.8 28.52 1330.86 27.9024 Q1330.86 25.6174 1328.2 23.5176 Q1325.55 21.3561 1319.8 21.2325 L1319.8 17.28 Q1329.68 17.6506 1334.87 17.6506 Q1340.68 17.6506 1346.36 17.28 L1346.36 21.2325 Q1336.35 21.2325 1333.76 29.6934 L1309.55 103.927 Q1309.3 104.915 1309.12 105.347 Q1308.93 105.842 1308.44 106.15 Q1307.94 106.459 1307.08 106.459 Q1305.41 106.459 1304.67 104.051 L1283.67 39.6983 L1262.8 103.927 Q1262.55 104.915 1262.31 105.347 Q1262.12 105.842 1261.63 106.15 Q1261.13 106.459 1260.27 106.459 Q1258.6 106.459 1257.86 104.051 L1232.54 26.5438 Q1231.43 22.9 1229.7 22.0972 Q1228.03 21.2325 1221.05 21.2325 Z" fill="#000000" fill-rule="evenodd" fill-opacity="1" /><path clip-path="url(#clip220)" d="M1343.46 91.6371 Q1343.46 80.8912 1356.12 75.2094 Q1363.71 71.5656 1379.4 70.6393 L1379.4 66.0074 Q1379.4 58.1641 1375.26 54.0262 Q1371.19 49.8267 1366 49.8267 Q1356.73 49.8267 1352.29 55.632 Q1356.05 55.7555 1357.41 57.67 Q1358.77 59.5227 1358.77 61.4373 Q1358.77 63.9693 1357.17 65.6368 Q1355.62 67.2425 1352.97 67.2425 Q1350.43 67.2425 1348.77 65.6986 Q1347.1 64.0929 1347.1 61.3137 Q1347.1 55.1379 1352.66 51.0618 Q1358.28 46.9858 1366.24 46.9858 Q1376.62 46.9858 1383.54 53.9645 Q1385.7 56.126 1386.75 58.9052 Q1387.86 61.6843 1387.98 63.537 Q1388.11 65.328 1388.11 68.91 L1388.11 94.1692 Q1388.11 94.9103 1388.35 96.1455 Q1388.6 97.3806 1389.71 98.9864 Q1390.89 100.53 1392.8 100.53 Q1397.37 100.53 1397.31 92.44 L1397.31 85.3378 L1400.52 85.3378 L1400.52 92.44 Q1400.52 99.1716 1396.94 101.827 Q1393.42 104.421 1390.14 104.421 Q1385.95 104.421 1383.29 101.333 Q1380.63 98.2453 1380.26 94.0457 Q1378.35 98.8628 1373.96 102.013 Q1369.64 105.1 1363.71 105.1 Q1359.14 105.1 1354.82 103.927 Q1350.56 102.815 1346.98 99.6657 Q1343.46 96.4543 1343.46 91.6371 M1353.21 91.5136 Q1353.21 96.2072 1356.55 99.2334 Q1359.88 102.26 1364.58 102.26 Q1369.89 102.26 1374.64 98.1835 Q1379.4 94.0457 1379.4 85.9553 L1379.4 73.2949 Q1365.38 73.7889 1359.27 79.4089 Q1353.21 84.9672 1353.21 91.5136 Z" fill="#000000" fill-rule="evenodd" fill-opacity="1" /><path clip-path="url(#clip220)" d="M1405.58 103.68 L1405.58 99.7892 Q1412.32 99.7892 1413.86 98.9864 Q1415.4 98.1217 1415.4 94.0457 L1415.4 28.273 Q1415.4 23.5794 1413.74 22.4059 Q1412.13 21.2325 1405.58 21.2325 L1405.58 17.28 L1423.74 15.9213 L1423.74 94.0457 Q1423.74 98.1217 1425.35 98.9864 Q1426.95 99.7892 1433.62 99.7892 L1433.62 103.68 Q1432.08 103.68 1428.87 103.556 Q1425.66 103.433 1423.31 103.371 Q1420.96 103.309 1419.6 103.309 Q1418.12 103.309 1405.58 103.68 Z" fill="#000000" fill-rule="evenodd" fill-opacity="1" /><path clip-path="url(#clip220)" d="M1439.92 103.68 L1439.92 99.7892 Q1446.65 99.7892 1448.2 98.9864 Q1449.8 98.1217 1449.8 94.0457 L1449.8 28.273 Q1449.8 23.5794 1448.14 22.4059 Q1446.53 21.2325 1439.92 21.2325 L1439.92 17.28 L1458.14 15.9213 L1458.14 76.6298 L1475.99 61.1902 Q1478.77 58.7816 1478.77 56.2495 Q1478.77 53.3469 1475.12 53.0999 L1475.12 49.1473 Q1480.44 49.5179 1489.27 49.5179 Q1494.45 49.5179 1498.1 49.1473 L1498.1 53.0999 Q1490.13 53.4704 1482.16 59.8933 Q1480.37 61.3137 1476.11 65.0192 Q1471.91 68.663 1471.91 69.0335 Q1471.91 69.1571 1472.04 69.4658 Q1472.22 69.7746 1472.47 70.0217 Q1472.72 70.2687 1472.72 70.3922 L1488.77 93.0576 Q1492.05 97.6277 1494.45 98.7393 Q1496.86 99.7892 1501.06 99.7892 L1501.06 103.68 Q1495.63 103.309 1490.01 103.309 Q1486.98 103.309 1476.36 103.68 L1476.36 99.7892 Q1480.93 99.7892 1480.93 96.8248 Q1480.93 94.7868 1470.68 80.6441 Q1469.94 79.656 1468.27 77.4944 Q1466.73 75.2094 1465.86 74.0977 L1457.77 81.0147 L1457.77 94.0457 Q1457.77 98.1217 1459.31 98.9864 Q1460.92 99.7892 1467.65 99.7892 L1467.65 103.68 Q1460.06 103.309 1453.76 103.309 Q1452.46 103.309 1439.92 103.68 Z" fill="#000000" fill-rule="evenodd" fill-opacity="1" /><path clip-path="url(#clip220)" d="M1556.95 96.8866 Q1548.62 88.611 1548.62 76.6298 Q1548.62 64.5869 1556.77 55.8172 Q1564.98 46.9858 1576.72 46.9858 Q1588.2 46.9858 1596.42 55.7555 Q1604.69 64.4634 1604.69 76.6298 Q1604.69 88.5492 1596.36 96.8248 Q1588.08 105.1 1576.59 105.1 Q1565.35 105.1 1556.95 96.8866 M1559.12 75.5799 Q1559.12 87.8698 1562.33 93.4281 Q1567.27 101.889 1576.72 101.889 Q1581.41 101.889 1585.3 99.3569 Q1589.25 96.8248 1591.42 92.5635 Q1594.19 87.0052 1594.19 75.5799 Q1594.19 63.4135 1590.86 58.0405 Q1585.92 49.8267 1576.59 49.8267 Q1572.52 49.8267 1568.5 51.9882 Q1564.55 54.088 1562.14 58.2876 Q1559.12 63.8458 1559.12 75.5799 Z" fill="#000000" fill-rule="evenodd" fill-opacity="1" /><path clip-path="url(#clip220)" d="M1612.41 103.68 L1612.41 99.7892 Q1619.15 99.7892 1620.69 98.9864 Q1622.23 98.1217 1622.23 94.0457 L1622.23 60.1403 Q1622.23 55.4467 1620.57 54.2733 Q1618.96 53.0999 1612.41 53.0999 L1612.41 49.1473 L1630.2 47.7886 L1630.2 61.0667 Q1636.13 47.7886 1648.91 47.7886 Q1658.42 47.7886 1662.19 52.4823 Q1664.97 55.632 1665.53 59.1522 Q1666.14 62.6724 1666.14 71.8127 L1666.14 95.9602 Q1666.27 98.6158 1668.3 99.2334 Q1670.34 99.7892 1676.02 99.7892 L1676.02 103.68 Q1663.12 103.309 1661.82 103.309 Q1660.83 103.309 1647.55 103.68 L1647.55 99.7892 Q1654.29 99.7892 1655.83 98.9864 Q1657.44 98.1217 1657.44 94.0457 L1657.44 64.5869 Q1657.44 58.1641 1655.46 54.3968 Q1653.48 50.5678 1648.05 50.5678 Q1641.5 50.5678 1636.25 56.0643 Q1631 61.5608 1631 70.8245 L1631 94.0457 Q1631 98.1217 1632.55 98.9864 Q1634.15 99.7892 1640.82 99.7892 L1640.82 103.68 Q1627.91 103.309 1626.68 103.309 Q1625.69 103.309 1612.41 103.68 Z" fill="#000000" fill-rule="evenodd" fill-opacity="1" /><path clip-path="url(#clip220)" d="M1727.65 103.433 L1727.65 78.112 Q1727.65 76.6916 1727.72 76.1975 Q1727.78 75.7034 1728.15 75.3329 Q1728.52 74.9623 1729.26 74.9623 Q1730.68 74.9623 1730.8 76.2593 Q1731.17 88.7962 1738.65 95.7132 Q1746 102.568 1758.6 102.568 Q1766.19 102.568 1770.89 97.1336 Q1775.58 91.6371 1775.58 84.4731 Q1775.58 77.618 1771.63 72.8008 Q1769.96 70.6393 1767.86 69.2806 Q1765.82 67.8601 1764.52 67.4278 Q1763.29 66.9955 1760.88 66.3779 Q1745.19 62.6107 1744.21 62.1784 Q1736.73 59.6463 1732.16 53.2851 Q1727.65 46.8623 1727.65 39.019 Q1727.65 28.8906 1734.76 21.7266 Q1741.92 14.5009 1752.3 14.5009 Q1757.48 14.5009 1761.81 16.1683 Q1766.19 17.7741 1767.98 19.2563 Q1769.77 20.7385 1772.55 23.3941 L1776.94 16.1683 Q1777.93 14.5009 1778.85 14.5009 Q1779.84 14.5009 1780.03 15.1185 Q1780.27 15.6743 1780.27 17.527 L1780.27 42.9715 Q1780.27 44.3919 1780.21 44.886 Q1780.15 45.3801 1779.72 45.6889 Q1779.35 45.9977 1778.61 45.9977 Q1777.37 45.9977 1777.06 44.5155 Q1773.54 18.0829 1752.42 18.0829 Q1745.19 18.0829 1740.44 22.9618 Q1735.74 27.7789 1735.74 34.6341 Q1735.74 40.1924 1739.2 44.7625 Q1742.66 49.2709 1748.53 50.6913 L1764.71 54.5821 Q1772.8 56.4966 1778.23 63.6606 Q1783.67 70.8245 1783.67 80.1501 Q1783.67 90.896 1776.63 98.6776 Q1769.65 106.459 1758.72 106.459 Q1750.88 106.459 1744.82 103.865 Q1738.77 101.271 1735.5 97.6277 Q1732.97 101.827 1731.3 104.174 L1730.93 104.792 Q1729.94 106.459 1729.01 106.459 Q1728.03 106.459 1727.84 105.842 Q1727.65 105.224 1727.65 103.433 Z" fill="#000000" fill-rule="evenodd" fill-opacity="1" /><path clip-path="url(#clip220)" d="M1794.91 103.68 L1794.91 99.7892 Q1801.64 99.7892 1803.19 98.9864 Q1804.73 98.1217 1804.73 94.0457 L1804.73 60.0168 Q1804.73 55.3232 1803.12 54.2115 Q1801.58 53.0999 1795.4 53.0999 L1795.4 49.1473 L1813.07 47.7886 L1813.07 94.1692 Q1813.07 97.9365 1814.43 98.8628 Q1815.78 99.7892 1821.96 99.7892 L1821.96 103.68 Q1809.05 103.309 1808.81 103.309 Q1807.08 103.309 1794.91 103.68 M1800.22 25.7409 Q1800.22 23.2088 1802.14 21.1708 Q1804.11 19.071 1806.89 19.071 Q1809.67 19.071 1811.65 20.9855 Q1813.62 22.8383 1813.62 25.8027 Q1813.62 28.7053 1811.65 30.6198 Q1809.67 32.4726 1806.89 32.4726 Q1803.99 32.4726 1802.07 30.4345 Q1800.22 28.3965 1800.22 25.7409 Z" fill="#000000" fill-rule="evenodd" fill-opacity="1" /><path clip-path="url(#clip220)" d="M1829.8 103.68 L1829.8 99.7892 Q1836.53 99.7892 1838.08 98.9864 Q1839.62 98.1217 1839.62 94.0457 L1839.62 60.1403 Q1839.62 55.4467 1837.96 54.2733 Q1836.35 53.0999 1829.8 53.0999 L1829.8 49.1473 L1847.59 47.7886 L1847.59 61.0667 Q1853.52 47.7886 1866.3 47.7886 Q1881.12 47.7886 1883.16 60.1403 Q1885.32 55.3232 1889.83 51.5559 Q1894.4 47.7886 1901.5 47.7886 Q1911.02 47.7886 1914.78 52.4823 Q1917.56 55.632 1918.12 59.1522 Q1918.67 62.6724 1918.67 71.8127 L1918.67 95.9602 Q1918.8 98.6158 1920.83 99.2334 Q1922.87 99.7892 1928.55 99.7892 L1928.55 103.68 Q1915.65 103.309 1914.41 103.309 Q1913.42 103.309 1900.08 103.68 L1900.08 99.7892 Q1906.82 99.7892 1908.36 98.9864 Q1909.97 98.1217 1909.97 94.0457 L1909.97 64.5869 Q1909.97 58.1641 1907.99 54.3968 Q1906.01 50.5678 1900.58 50.5678 Q1894.03 50.5678 1888.78 56.0643 Q1883.53 61.5608 1883.53 70.8245 L1883.53 94.0457 Q1883.53 98.1217 1885.08 98.9864 Q1886.68 99.7892 1893.41 99.7892 L1893.41 103.68 Q1880.51 103.309 1879.21 103.309 Q1878.22 103.309 1864.94 103.68 L1864.94 99.7892 Q1871.68 99.7892 1873.22 98.9864 Q1874.82 98.1217 1874.82 94.0457 L1874.82 64.5869 Q1874.82 58.1641 1872.85 54.3968 Q1870.87 50.5678 1865.44 50.5678 Q1858.89 50.5678 1853.64 56.0643 Q1848.39 61.5608 1848.39 70.8245 L1848.39 94.0457 Q1848.39 98.1217 1849.94 98.9864 Q1851.54 99.7892 1858.21 99.7892 L1858.21 103.68 Q1845.3 103.309 1844.07 103.309 Q1843.08 103.309 1829.8 103.68 Z" fill="#000000" fill-rule="evenodd" fill-opacity="1" /><path clip-path="url(#clip220)" d="M1934.55 124.307 Q1941.28 124.307 1942.82 123.443 Q1944.43 122.64 1944.43 118.626 L1944.43 59.3992 Q1944.43 55.1997 1942.82 54.1498 Q1941.28 53.0999 1934.55 53.0999 L1934.55 49.1473 L1952.76 47.7886 L1952.76 56.126 Q1960.36 47.7886 1970.49 47.7886 Q1981.23 47.7886 1989.08 56.126 Q1996.92 64.4634 1996.92 76.3828 Q1996.92 88.4257 1988.58 96.7631 Q1980.25 105.1 1968.7 105.1 Q1962.4 105.1 1958.14 101.889 Q1953.94 98.6158 1953.13 96.2072 L1953.13 97.3806 L1953.13 118.626 Q1953.13 122.702 1954.74 123.504 Q1956.35 124.307 1963.02 124.307 L1963.02 128.198 Q1949.74 127.828 1948.75 127.828 Q1947.51 127.828 1934.55 128.198 L1934.55 124.307 M1953.13 89.2903 Q1953.13 91.2048 1953.38 91.8841 Q1953.69 92.5635 1954.93 94.6015 Q1959.93 102.26 1968.08 102.26 Q1968.14 102.26 1968.2 102.26 Q1975.43 102.26 1980.93 94.9103 Q1986.42 87.4993 1986.42 76.3828 Q1986.42 65.7603 1981.42 58.3493 Q1976.42 50.9383 1969.5 50.9383 Q1964.56 50.9383 1960.24 53.5939 Q1955.91 56.2495 1953.13 61.0667 L1953.13 89.2903 Z" fill="#000000" fill-rule="evenodd" fill-opacity="1" /><path clip-path="url(#clip220)" d="M2005.38 103.68 L2005.38 99.7892 Q2012.11 99.7892 2013.66 98.9864 Q2015.2 98.1217 2015.2 94.0457 L2015.2 28.273 Q2015.2 23.5794 2013.53 22.4059 Q2011.93 21.2325 2005.38 21.2325 L2005.38 17.28 L2023.54 15.9213 L2023.54 94.0457 Q2023.54 98.1217 2025.14 98.9864 Q2026.75 99.7892 2033.42 99.7892 L2033.42 103.68 Q2031.88 103.68 2028.67 103.556 Q2025.45 103.433 2023.11 103.371 Q2020.76 103.309 2019.4 103.309 Q2017.92 103.309 2005.38 103.68 Z" fill="#000000" fill-rule="evenodd" fill-opacity="1" /><path clip-path="url(#clip220)" d="M2039.72 75.827 Q2039.72 63.9076 2047.38 55.4467 Q2055.04 46.9858 2066.03 46.9858 Q2077.15 46.9858 2082.89 54.2115 Q2088.69 61.4373 2088.69 71.8127 Q2088.69 73.7272 2088.2 74.0977 Q2087.71 74.4683 2085.54 74.4683 L2050.22 74.4683 Q2050.22 87.3758 2054.05 93.4281 Q2059.36 101.889 2068.31 101.889 Q2069.55 101.889 2071.03 101.642 Q2072.51 101.395 2075.54 100.345 Q2078.57 99.2334 2081.22 96.3308 Q2083.88 93.4281 2085.42 88.858 Q2085.79 87.067 2087.03 87.1287 Q2088.69 87.1287 2088.69 88.611 Q2088.69 89.7226 2087.46 92.2547 Q2086.29 94.725 2084 97.6894 Q2081.72 100.654 2077.27 102.877 Q2072.88 105.1 2067.57 105.1 Q2056.46 105.1 2048.06 96.7013 Q2039.72 88.2404 2039.72 75.827 M2050.34 71.8127 L2080.36 71.8127 Q2080.36 69.1571 2079.86 66.1927 Q2079.43 63.2282 2078.07 59.1522 Q2076.77 55.0144 2073.69 52.4205 Q2070.6 49.8267 2066.03 49.8267 Q2063.99 49.8267 2061.77 50.6913 Q2059.61 51.5559 2056.95 53.6557 Q2054.29 55.7555 2052.44 60.5109 Q2050.59 65.2663 2050.34 71.8127 Z" fill="#000000" fill-rule="evenodd" fill-opacity="1" /><path clip-path="url(#clip220)" d="M2154.47 93.0576 Q2141.5 79.656 2141.5 60.4491 Q2141.5 41.1805 2154.59 27.8407 Q2167.68 14.5009 2185.47 14.5009 Q2189.92 14.5009 2193.68 15.5508 Q2197.51 16.5389 2200.54 18.5769 Q2203.56 20.5532 2205.11 21.9119 Q2206.71 23.2088 2208.88 25.3704 L2215.24 16.0448 Q2216.23 14.5009 2217.21 14.5009 Q2218.26 14.5009 2218.45 15.1185 Q2218.63 15.6743 2218.63 17.527 L2218.63 47.5416 Q2218.63 49.5796 2218.39 50.0737 Q2218.14 50.5678 2216.6 50.5678 Q2215.36 50.5678 2215.11 50.1972 Q2214.87 49.8267 2214.56 48.4062 Q2212.64 34.7576 2204.99 26.6055 Q2197.39 18.4534 2187.01 18.4534 Q2183.99 18.4534 2180.59 19.1328 Q2177.26 19.8121 2172.32 22.4059 Q2167.44 24.9998 2163.67 29.2611 Q2159.96 33.4607 2157.25 41.6128 Q2154.53 49.7032 2154.53 60.4491 Q2154.53 71.0716 2157.25 79.2237 Q2159.96 87.3758 2163.73 91.6371 Q2167.56 95.8367 2172.5 98.4923 Q2177.5 101.148 2181.02 101.889 Q2184.61 102.568 2187.75 102.568 Q2189.92 102.568 2192.45 102.136 Q2194.98 101.642 2198.75 100.283 Q2202.58 98.8628 2204.99 95.5279 Q2207.39 92.1929 2207.39 87.2523 L2207.39 79.1619 Q2207.39 75.3947 2205.54 74.2212 Q2203.69 73.0478 2195.6 73.0478 L2191.58 73.0478 L2191.58 69.1571 Q2196.15 69.5276 2211.9 69.5276 Q2213.32 69.5276 2227.34 69.1571 L2227.34 73.0478 Q2221.29 73.0478 2219.93 73.9742 Q2218.63 74.8388 2218.63 78.6061 L2218.63 100.654 Q2218.63 103.556 2217.52 103.556 Q2216.53 103.556 2213.57 100.716 Q2210.67 97.8747 2209.37 95.7132 Q2206.34 101.024 2199.74 103.742 Q2193.19 106.459 2185.72 106.459 Q2167.5 106.459 2154.47 93.0576 Z" fill="#000000" fill-rule="evenodd" fill-opacity="1" /><path clip-path="url(#clip220)" d="M2237.04 103.68 L2237.04 99.7892 Q2243.77 99.7892 2245.31 98.9864 Q2246.92 98.1217 2246.92 94.0457 L2246.92 60.1403 Q2246.92 55.4467 2245.25 54.2733 Q2243.65 53.0999 2237.04 53.0999 L2237.04 49.1473 L2254.64 47.7886 L2254.64 61.6843 Q2256.43 56.2495 2260.2 52.05 Q2264.03 47.7886 2270.2 47.7886 Q2274.28 47.7886 2276.87 50.0737 Q2279.53 52.3588 2279.53 55.5084 Q2279.53 58.2876 2277.8 59.708 Q2276.13 61.0667 2274.09 61.0667 Q2271.81 61.0667 2270.2 59.6463 Q2268.66 58.1641 2268.66 55.632 Q2268.66 54.088 2269.34 52.9146 Q2270.08 51.6794 2270.63 51.2471 Q2271.19 50.8148 2271.56 50.6913 Q2271.31 50.5678 2270.2 50.5678 Q2263.22 50.5678 2259.21 57.5465 Q2255.26 64.4634 2255.26 74.3448 L2255.26 93.7987 Q2255.26 97.4424 2256.74 98.6158 Q2258.28 99.7892 2264.89 99.7892 L2267.55 99.7892 L2267.55 103.68 Q2262.48 103.309 2251.49 103.309 Q2249.95 103.309 2247.54 103.371 Q2245.13 103.433 2241.98 103.556 Q2238.83 103.68 2237.04 103.68 Z" fill="#000000" fill-rule="evenodd" fill-opacity="1" /><path clip-path="url(#clip220)" d="M2288.24 91.6371 Q2288.24 80.8912 2300.9 75.2094 Q2308.49 71.5656 2324.18 70.6393 L2324.18 66.0074 Q2324.18 58.1641 2320.04 54.0262 Q2315.97 49.8267 2310.78 49.8267 Q2301.51 49.8267 2297.07 55.632 Q2300.83 55.7555 2302.19 57.67 Q2303.55 59.5227 2303.55 61.4373 Q2303.55 63.9693 2301.95 65.6368 Q2300.4 67.2425 2297.75 67.2425 Q2295.21 67.2425 2293.55 65.6986 Q2291.88 64.0929 2291.88 61.3137 Q2291.88 55.1379 2297.44 51.0618 Q2303.06 46.9858 2311.02 46.9858 Q2321.4 46.9858 2328.32 53.9645 Q2330.48 56.126 2331.53 58.9052 Q2332.64 61.6843 2332.76 63.537 Q2332.89 65.328 2332.89 68.91 L2332.89 94.1692 Q2332.89 94.9103 2333.13 96.1455 Q2333.38 97.3806 2334.49 98.9864 Q2335.67 100.53 2337.58 100.53 Q2342.15 100.53 2342.09 92.44 L2342.09 85.3378 L2345.3 85.3378 L2345.3 92.44 Q2345.3 99.1716 2341.72 101.827 Q2338.2 104.421 2334.92 104.421 Q2330.73 104.421 2328.07 101.333 Q2325.41 98.2453 2325.04 94.0457 Q2323.13 98.8628 2318.74 102.013 Q2314.42 105.1 2308.49 105.1 Q2303.92 105.1 2299.6 103.927 Q2295.34 102.815 2291.76 99.6657 Q2288.24 96.4543 2288.24 91.6371 M2297.99 91.5136 Q2297.99 96.2072 2301.33 99.2334 Q2304.66 102.26 2309.36 102.26 Q2314.67 102.26 2319.42 98.1835 Q2324.18 94.0457 2324.18 85.9553 L2324.18 73.2949 Q2310.16 73.7889 2304.05 79.4089 Q2297.99 84.9672 2297.99 91.5136 Z" fill="#000000" fill-rule="evenodd" fill-opacity="1" /><path clip-path="url(#clip220)" d="M2349.69 124.307 Q2356.42 124.307 2357.96 123.443 Q2359.57 122.64 2359.57 118.626 L2359.57 59.3992 Q2359.57 55.1997 2357.96 54.1498 Q2356.42 53.0999 2349.69 53.0999 L2349.69 49.1473 L2367.9 47.7886 L2367.9 56.126 Q2375.5 47.7886 2385.63 47.7886 Q2396.37 47.7886 2404.22 56.126 Q2412.06 64.4634 2412.06 76.3828 Q2412.06 88.4257 2403.72 96.7631 Q2395.39 105.1 2383.84 105.1 Q2377.54 105.1 2373.28 101.889 Q2369.08 98.6158 2368.27 96.2072 L2368.27 97.3806 L2368.27 118.626 Q2368.27 122.702 2369.88 123.504 Q2371.49 124.307 2378.16 124.307 L2378.16 128.198 Q2364.88 127.828 2363.89 127.828 Q2362.65 127.828 2349.69 128.198 L2349.69 124.307 M2368.27 89.2903 Q2368.27 91.2048 2368.52 91.8841 Q2368.83 92.5635 2370.07 94.6015 Q2375.07 102.26 2383.22 102.26 Q2383.28 102.26 2383.34 102.26 Q2390.57 102.26 2396.07 94.9103 Q2401.56 87.4993 2401.56 76.3828 Q2401.56 65.7603 2396.56 58.3493 Q2391.56 50.9383 2384.64 50.9383 Q2379.7 50.9383 2375.38 53.5939 Q2371.05 56.2495 2368.27 61.0667 L2368.27 89.2903 Z" fill="#000000" fill-rule="evenodd" fill-opacity="1" /><path clip-path="url(#clip220)" d="M2420.4 103.68 L2420.4 99.7892 Q2427.13 99.7892 2428.67 98.9864 Q2430.22 98.1217 2430.22 94.0457 L2430.22 28.273 Q2430.22 23.5794 2428.55 22.4059 Q2426.94 21.2325 2420.4 21.2325 L2420.4 17.28 L2438.56 15.9213 L2438.56 59.8933 L2438.68 59.8933 Q2440.72 55.3232 2445.29 51.5559 Q2449.86 47.7886 2456.9 47.7886 Q2466.41 47.7886 2470.18 52.4823 Q2472.95 55.632 2473.51 59.1522 Q2474.13 62.6724 2474.13 71.8127 L2474.13 95.9602 Q2474.25 98.6158 2476.29 99.2334 Q2478.33 99.7892 2484.01 99.7892 L2484.01 103.68 Q2471.1 103.309 2469.81 103.309 Q2468.82 103.309 2455.54 103.68 L2455.54 99.7892 Q2462.27 99.7892 2463.81 98.9864 Q2465.42 98.1217 2465.42 94.0457 L2465.42 64.5869 Q2465.42 58.1641 2463.44 54.3968 Q2461.47 50.5678 2456.03 50.5678 Q2449.49 50.5678 2444.24 56.0643 Q2438.99 61.5608 2438.99 70.8245 L2438.99 94.0457 Q2438.99 98.1217 2440.53 98.9864 Q2442.14 99.7892 2448.81 99.7892 L2448.81 103.68 Q2435.9 103.309 2434.66 103.309 Q2433.68 103.309 2420.4 103.68 Z" fill="#000000" fill-rule="evenodd" fill-opacity="1" /><polyline clip-path="url(#clip222)" style="stroke:#000000; stroke-linecap:butt; stroke-linejoin:round; stroke-width:4; stroke-opacity:1; fill:none" points="
  2417.77,1207.87 2401.05,1194.22 2384.33,1180.56 2367.65,1166.88 2351,1153.17 2334.41,1139.41 2317.88,1125.61 2301.43,1111.75 2285.08,1097.81 2268.83,1083.8 
  2252.7,1069.69 2236.7,1055.48 2220.85,1041.16 2205.16,1026.72 2189.64,1012.15 2174.31,997.43 2159.17,982.563 2144.25,967.535 2129.55,952.334 2115.09,936.95 
  2100.89,921.375 2086.94,905.597 2073.28,889.606 2059.91,873.392 2046.84,856.945 2034.09,840.256 2021.66,823.324 2009.53,806.159 1997.7,788.772 1986.14,771.172 
  1974.85,753.369 1963.81,735.374 1953.01,717.196 1942.43,698.846 1932.07,680.335 1921.9,661.671 1911.92,642.866 1902.12,623.929 1892.47,604.87 1882.97,585.7 
  1873.6,566.429 1864.35,547.066 1855.2,527.623 1846.15,508.109 1837.18,488.534 1828.27,468.908 1819.42,449.242 1810.61,429.545 1801.82,409.828 1793.05,390.101 
  
  "/>
<polyline clip-path="url(#clip222)" style="stroke:#000000; stroke-linecap:butt; stroke-linejoin:round; stroke-width:4; stroke-opacity:1; fill:none" points="
  2417.77,1207.87 2382.92,1202.34 2348.07,1196.79 2313.22,1191.21 2278.4,1185.58 2243.59,1179.89 2208.81,1174.11 2174.06,1168.25 2139.34,1162.27 2104.66,1156.16 
  2070.03,1149.91 2035.44,1143.5 2000.91,1136.91 1966.44,1130.14 1932.03,1123.15 1897.69,1115.94 1863.43,1108.5 1829.24,1100.8 1795.14,1092.82 1761.13,1084.57 
  1727.21,1076 1693.38,1067.12 1659.67,1057.91 1626.06,1048.34 1592.56,1038.41 1559.18,1028.09 1525.92,1017.4 1492.77,1006.34 1459.74,994.921 1426.8,983.173 
  1393.96,971.106 1361.22,958.736 1328.56,946.079 1295.99,933.151 1263.5,919.969 1231.08,906.547 1198.73,892.902 1166.45,879.05 1134.22,865.006 1102.05,850.787 
  1069.93,836.409 1037.85,821.887 1005.81,807.238 973.806,792.477 941.831,777.621 909.881,762.685 877.95,747.685 846.034,732.638 814.128,717.558 782.227,702.463 
  
  "/>
<polyline clip-path="url(#clip222)" style="stroke:#000000; stroke-linecap:butt; stroke-linejoin:round; stroke-width:4; stroke-opacity:1; fill:none" points="
  1793.05,390.101 1773.9,401.257 1754.74,412.397 1735.58,423.504 1716.39,434.564 1697.19,445.561 1677.97,456.477 1658.71,467.298 1639.42,478.008 1620.09,488.589 
  1600.72,499.028 1581.3,509.307 1561.82,519.411 1542.29,529.323 1522.69,539.028 1503.02,548.51 1483.27,557.753 1463.45,566.741 1443.55,575.458 1423.55,583.889 
  1403.47,592.016 1383.28,599.824 1362.99,607.298 1342.59,614.421 1322.08,621.178 1301.45,627.553 1280.71,633.546 1259.85,639.172 1238.88,644.447 1217.81,649.388 
  1196.63,654.01 1175.37,658.33 1154.02,662.362 1132.58,666.124 1111.07,669.63 1089.48,672.897 1067.82,675.942 1046.1,678.779 1024.31,681.424 1002.48,683.895 
  980.594,686.206 958.665,688.373 936.696,690.414 914.693,692.342 892.661,694.175 870.604,695.928 848.527,697.618 826.435,699.259 804.334,700.869 782.227,702.463 
  
  "/>
<polyline clip-path="url(#clip222)" style="stroke:#000000; stroke-linecap:butt; stroke-linejoin:round; stroke-width:4; stroke-opacity:1; fill:none" points="
  782.227,702.463 787.231,723.092 792.219,743.721 797.172,764.35 802.076,784.979 806.914,805.608 811.667,826.237 816.321,846.866 820.858,867.495 825.261,888.124 
  829.515,908.753 833.601,929.382 837.504,950.011 841.207,970.64 844.693,991.269 847.945,1011.9 850.947,1032.53 853.682,1053.16 856.134,1073.79 858.285,1094.41 
  860.12,1115.04 861.62,1135.67 862.771,1156.3 863.554,1176.93 863.954,1197.56 863.954,1218.19 863.554,1238.82 862.771,1259.45 861.62,1280.08 860.12,1300.7 
  858.285,1321.33 856.134,1341.96 853.682,1362.59 850.947,1383.22 847.945,1403.85 844.693,1424.48 841.207,1445.11 837.504,1465.74 833.601,1486.37 829.515,1507 
  825.261,1527.62 820.858,1548.25 816.321,1568.88 811.667,1589.51 806.914,1610.14 802.076,1630.77 797.172,1651.4 792.219,1672.03 787.231,1692.66 782.227,1713.29 
  
  "/>
<polyline clip-path="url(#clip222)" style="stroke:#000000; stroke-linecap:butt; stroke-linejoin:round; stroke-width:4; stroke-opacity:1; fill:none" points="
  782.227,702.463 798.88,732.504 815.546,762.535 832.238,792.547 848.97,822.527 865.755,852.468 882.607,882.357 899.538,912.186 916.562,941.944 933.691,971.621 
  950.94,1001.21 968.322,1030.69 985.85,1060.06 1003.54,1089.32 1021.4,1118.44 1039.44,1147.41 1057.68,1176.24 1076.14,1204.9 1094.82,1233.4 1113.74,1261.71 
  1132.91,1289.82 1152.35,1317.74 1172.06,1345.44 1192.07,1372.92 1212.38,1400.17 1233.01,1427.17 1253.96,1453.93 1275.21,1480.46 1296.75,1506.76 1318.57,1532.86 
  1340.66,1558.75 1363,1584.45 1385.57,1609.96 1408.38,1635.3 1431.39,1660.49 1454.61,1685.51 1478,1710.4 1501.58,1735.16 1525.31,1759.79 1549.18,1784.32 
  1573.19,1808.74 1597.32,1833.07 1621.55,1857.32 1645.88,1881.5 1670.29,1905.61 1694.76,1929.68 1719.29,1953.71 1743.85,1977.7 1768.44,2001.68 1793.05,2025.65 
  
  "/>
<polyline clip-path="url(#clip222)" style="stroke:#000000; stroke-linecap:butt; stroke-linejoin:round; stroke-width:4; stroke-opacity:1; fill:none" points="
  782.227,1713.29 801.379,1724.44 820.535,1735.58 839.702,1746.69 858.883,1757.75 878.084,1768.74 897.309,1779.66 916.565,1790.48 935.854,1801.19 955.183,1811.77 
  974.556,1822.21 993.979,1832.49 1013.46,1842.59 1032.99,1852.51 1052.59,1862.21 1072.26,1871.69 1092,1880.94 1111.82,1889.93 1131.73,1898.64 1151.72,1907.07 
  1171.81,1915.2 1192,1923.01 1212.29,1930.48 1232.68,1937.61 1253.19,1944.36 1273.82,1950.74 1294.57,1956.73 1315.43,1962.36 1336.4,1967.63 1357.47,1972.57 
  1378.64,1977.19 1399.91,1981.51 1421.26,1985.55 1442.7,1989.31 1464.21,1992.81 1485.8,1996.08 1507.46,1999.13 1529.18,2001.96 1550.96,2004.61 1572.8,2007.08 
  1594.68,2009.39 1616.61,2011.56 1638.58,2013.6 1660.58,2015.53 1682.62,2017.36 1704.67,2019.11 1726.75,2020.8 1748.84,2022.44 1770.94,2024.05 1793.05,2025.65 
  
  "/>
<path clip-path="url(#clip222)" d="
M2561.29 1207.87 L2489.53 1083.58 L2346.01 1083.58 L2274.25 1207.87 L2346.01 1332.17 L2489.53 1332.17 L2561.29 1207.87 L2561.29 1207.87  Z
  " fill="#f5fffa" fill-rule="evenodd" fill-opacity="1"/>
<polyline clip-path="url(#clip222)" style="stroke:#000000; stroke-linecap:butt; stroke-linejoin:round; stroke-width:4; stroke-opacity:1; fill:none" points="
  2561.29,1207.87 2489.53,1083.58 2346.01,1083.58 2274.25,1207.87 2346.01,1332.17 2489.53,1332.17 2561.29,1207.87 
  "/>
<path clip-path="url(#clip222)" d="
M1936.57 390.101 L1864.81 265.808 L1721.29 265.808 L1649.53 390.101 L1721.29 514.395 L1864.81 514.395 L1936.57 390.101 L1936.57 390.101  Z
  " fill="#f5fffa" fill-rule="evenodd" fill-opacity="1"/>
<polyline clip-path="url(#clip222)" style="stroke:#000000; stroke-linecap:butt; stroke-linejoin:round; stroke-width:4; stroke-opacity:1; fill:none" points="
  1936.57,390.101 1864.81,265.808 1721.29,265.808 1649.53,390.101 1721.29,514.395 1864.81,514.395 1936.57,390.101 
  "/>
<path clip-path="url(#clip222)" d="
M925.749 702.463 L853.988 578.169 L710.466 578.169 L638.706 702.463 L710.466 826.756 L853.988 826.756 L925.749 702.463 L925.749 702.463  Z
  " fill="#f5fffa" fill-rule="evenodd" fill-opacity="1"/>
<polyline clip-path="url(#clip222)" style="stroke:#000000; stroke-linecap:butt; stroke-linejoin:round; stroke-width:4; stroke-opacity:1; fill:none" points="
  925.749,702.463 853.988,578.169 710.466,578.169 638.706,702.463 710.466,826.756 853.988,826.756 925.749,702.463 
  "/>
<path clip-path="url(#clip222)" d="
M925.749 1713.29 L853.988 1588.99 L710.466 1588.99 L638.706 1713.29 L710.466 1837.58 L853.988 1837.58 L925.749 1713.29 L925.749 1713.29  Z
  " fill="#f5fffa" fill-rule="evenodd" fill-opacity="1"/>
<polyline clip-path="url(#clip222)" style="stroke:#000000; stroke-linecap:butt; stroke-linejoin:round; stroke-width:4; stroke-opacity:1; fill:none" points="
  925.749,1713.29 853.988,1588.99 710.466,1588.99 638.706,1713.29 710.466,1837.58 853.988,1837.58 925.749,1713.29 
  "/>
<path clip-path="url(#clip222)" d="
M1936.57 2025.65 L1864.81 1901.35 L1721.29 1901.35 L1649.53 2025.65 L1721.29 2149.94 L1864.81 2149.94 L1936.57 2025.65 L1936.57 2025.65  Z
  " fill="#f5fffa" fill-rule="evenodd" fill-opacity="1"/>
<polyline clip-path="url(#clip222)" style="stroke:#000000; stroke-linecap:butt; stroke-linejoin:round; stroke-width:4; stroke-opacity:1; fill:none" points="
  1936.57,2025.65 1864.81,1901.35 1721.29,1901.35 1649.53,2025.65 1721.29,2149.94 1864.81,2149.94 1936.57,2025.65 
  "/>
<circle clip-path="url(#clip222)" style="fill:#f5fffa; stroke:none; fill-opacity:1" cx="2417.77" cy="1207.87" r="2"/>
<circle clip-path="url(#clip222)" style="fill:#f5fffa; stroke:none; fill-opacity:1" cx="1793.05" cy="390.101" r="2"/>
<circle clip-path="url(#clip222)" style="fill:#f5fffa; stroke:none; fill-opacity:1" cx="782.227" cy="702.463" r="2"/>
<circle clip-path="url(#clip222)" style="fill:#f5fffa; stroke:none; fill-opacity:1" cx="782.227" cy="1713.29" r="2"/>
<circle clip-path="url(#clip222)" style="fill:#f5fffa; stroke:none; fill-opacity:1" cx="1793.05" cy="2025.65" r="2"/>
<polyline clip-path="url(#clip222)" style="stroke:#ff0000; stroke-linecap:butt; stroke-linejoin:round; stroke-width:12; stroke-opacity:1; fill:none" points="
  2417.77,1207.87 2400.36,1192.96 2382.97,1178.04 2365.63,1163.13 2348.34,1148.23 2331.13,1133.34 2314.02,1118.46 2297.04,1103.59 2280.19,1088.75 2263.5,1073.92 
  2247,1059.12 2230.7,1044.34 2214.61,1029.59 2198.77,1014.87 2183.19,1000.19 2167.89,985.537 2152.89,970.925 2138.22,956.354 2123.88,941.827 2109.91,927.345 
  2096.32,912.912 2083.13,898.53 2070.37,884.202 2058.04,869.929 2046.18,855.716 2034.8,841.563 2023.9,827.471 2013.46,813.439 2003.47,799.462 1993.89,785.539 
  1984.72,771.666 1975.93,757.843 1967.5,744.065 1959.42,730.33 1951.65,716.637 1944.19,702.981 1937.01,689.362 1930.09,675.775 1923.41,662.219 1916.95,648.691 
  1910.69,635.189 1904.62,621.71 1898.7,608.251 1892.93,594.809 1887.27,581.384 1881.72,567.97 1876.25,554.568 1870.83,541.172 1865.46,527.782 1860.11,514.395 
  
  "/>
<polyline clip-path="url(#clip222)" style="stroke:#ff0000; stroke-linecap:butt; stroke-linejoin:round; stroke-width:12; stroke-opacity:1; fill:none" points="
  1855.64,567.874 1860.11,514.395 1900.21,550.054 
  "/>
<polyline clip-path="url(#clip222)" style="stroke:#ff0000; stroke-linecap:butt; stroke-linejoin:round; stroke-width:12; stroke-opacity:1; fill:none" points="
  1860.11,514.395 1865.46,527.782 
  "/>
<polyline clip-path="url(#clip222)" style="stroke:#ff0000; stroke-linecap:butt; stroke-linejoin:round; stroke-width:12; stroke-opacity:1; fill:none" points="
  1793.05,390.101 1772.55,401.455 1752.06,412.792 1731.59,424.092 1711.14,435.339 1690.73,446.514 1670.36,457.599 1650.04,468.577 1629.78,479.429 1609.59,490.138 
  1589.47,500.686 1569.44,511.054 1549.51,521.225 1529.68,531.181 1509.96,540.904 1490.36,550.376 1470.89,559.579 1451.56,568.495 1432.37,577.106 1413.33,585.395 
  1394.46,593.343 1375.76,600.933 1357.24,608.146 1338.91,614.964 1320.77,621.371 1302.84,627.348 1285.12,632.895 1267.59,638.03 1250.25,642.771 1233.09,647.135 
  1216.11,651.141 1199.28,654.806 1182.61,658.148 1166.08,661.186 1149.7,663.936 1133.44,666.418 1117.3,668.649 1101.27,670.647 1085.34,672.43 1069.51,674.015 
  1053.77,675.421 1038.1,676.666 1022.5,677.768 1006.96,678.744 991.467,679.612 976.021,680.391 960.609,681.098 945.223,681.751 929.854,682.369 914.494,682.968 
  
  "/>
<polyline clip-path="url(#clip222)" style="stroke:#ff0000; stroke-linecap:butt; stroke-linejoin:round; stroke-width:12; stroke-opacity:1; fill:none" points="
  963.393,705.078 914.494,682.968 961.521,657.115 
  "/>
<polyline clip-path="url(#clip222)" style="stroke:#ff0000; stroke-linecap:butt; stroke-linejoin:round; stroke-width:12; stroke-opacity:1; fill:none" points="
  914.494,682.968 929.854,682.369 
  "/>
<polyline clip-path="url(#clip222)" style="stroke:#ff0000; stroke-linecap:butt; stroke-linejoin:round; stroke-width:12; stroke-opacity:1; fill:none" points="
  782.227,702.463 818.262,708.487 854.279,714.523 890.263,720.581 926.197,726.672 962.064,732.807 997.848,738.997 1033.53,745.254 1069.1,751.587 1104.53,758.009 
  1139.81,764.529 1174.93,771.16 1209.86,777.912 1244.59,784.797 1279.1,791.825 1313.38,799.006 1347.4,806.354 1381.16,813.877 1414.64,821.588 1447.81,829.497 
  1480.67,837.616 1513.19,845.955 1545.36,854.526 1577.17,863.338 1608.58,872.405 1639.6,881.735 1670.22,891.33 1700.45,901.177 1730.32,911.268 1759.83,921.589 
  1789.01,932.132 1817.87,942.883 1846.43,953.833 1874.7,964.97 1902.71,976.284 1930.47,987.762 1957.99,999.395 1985.3,1011.17 2012.4,1023.08 2039.32,1035.11 
  2066.08,1047.25 2092.68,1059.49 2119.15,1071.82 2145.5,1084.22 2171.75,1096.69 2197.92,1109.22 2224.02,1121.79 2250.07,1134.39 2276.09,1147.01 2302.09,1159.65 
  
  "/>
<polyline clip-path="url(#clip222)" style="stroke:#ff0000; stroke-linecap:butt; stroke-linejoin:round; stroke-width:12; stroke-opacity:1; fill:none" points="
  2269.41,1117.08 2302.09,1159.65 2248.43,1160.26 
  "/>
<polyline clip-path="url(#clip222)" style="stroke:#ff0000; stroke-linecap:butt; stroke-linejoin:round; stroke-width:12; stroke-opacity:1; fill:none" points="
  2302.09,1159.65 2276.09,1147.01 
  "/>
<polyline clip-path="url(#clip222)" style="stroke:#ff0000; stroke-linecap:butt; stroke-linejoin:round; stroke-width:12; stroke-opacity:1; fill:none" points="
  782.227,702.463 787.026,724.358 791.811,746.24 796.566,768.098 801.277,789.917 805.93,811.685 810.51,833.39 815.002,855.019 819.391,876.559 823.664,897.998 
  827.804,919.323 831.799,940.521 835.632,961.579 839.29,982.486 842.758,1003.23 846.021,1023.79 849.064,1044.17 851.873,1064.34 854.434,1084.29 856.731,1104.02 
  858.75,1123.51 860.477,1142.74 861.896,1161.71 862.994,1180.39 863.755,1198.79 864.165,1216.88 864.225,1234.67 863.948,1252.17 863.35,1269.39 862.444,1286.34 
  861.246,1303.04 859.77,1319.49 858.03,1335.72 856.041,1351.74 853.819,1367.55 851.377,1383.17 848.73,1398.61 845.893,1413.89 842.88,1429.02 839.707,1444 
  836.387,1458.86 832.935,1473.61 829.367,1488.25 825.696,1502.81 821.937,1517.29 818.105,1531.71 814.215,1546.07 810.28,1560.4 806.317,1574.7 802.338,1588.99 
  
  "/>
<polyline clip-path="url(#clip222)" style="stroke:#ff0000; stroke-linecap:butt; stroke-linejoin:round; stroke-width:12; stroke-opacity:1; fill:none" points="
  838.333,1549.19 802.338,1588.99 792.091,1536.31 
  "/>
<polyline clip-path="url(#clip222)" style="stroke:#ff0000; stroke-linecap:butt; stroke-linejoin:round; stroke-width:12; stroke-opacity:1; fill:none" points="
  802.338,1588.99 806.317,1574.7 
  "/>
<polyline clip-path="url(#clip222)" style="stroke:#ff0000; stroke-linecap:butt; stroke-linejoin:round; stroke-width:12; stroke-opacity:1; fill:none" points="
  782.227,1713.29 802.726,1724.64 823.217,1735.98 843.69,1747.28 864.138,1758.52 884.551,1769.7 904.922,1780.78 925.241,1791.76 945.5,1802.61 965.691,1813.32 
  985.804,1823.87 1005.83,1834.24 1025.77,1844.41 1045.6,1854.37 1065.32,1864.09 1084.92,1873.56 1104.39,1882.76 1123.72,1891.68 1142.91,1900.29 1161.94,1908.58 
  1180.82,1916.53 1199.52,1924.12 1218.04,1931.33 1236.37,1938.15 1254.5,1944.55 1272.43,1950.53 1290.16,1956.08 1307.69,1961.21 1325.02,1965.95 1342.18,1970.32 
  1359.17,1974.32 1376,1977.99 1392.67,1981.33 1409.19,1984.37 1425.58,1987.12 1441.84,1989.6 1457.98,1991.83 1474.01,1993.83 1489.93,1995.61 1505.77,1997.2 
  1521.51,1998.61 1537.18,1999.85 1552.78,2000.95 1568.32,2001.93 1583.81,2002.8 1599.26,2003.58 1614.67,2004.28 1630.05,2004.94 1645.42,2005.55 1660.78,2006.15 
  
  "/>
<polyline clip-path="url(#clip222)" style="stroke:#ff0000; stroke-linecap:butt; stroke-linejoin:round; stroke-width:12; stroke-opacity:1; fill:none" points="
  1613.76,1980.3 1660.78,2006.15 1611.88,2028.26 
  "/>
<polyline clip-path="url(#clip222)" style="stroke:#ff0000; stroke-linecap:butt; stroke-linejoin:round; stroke-width:12; stroke-opacity:1; fill:none" points="
  1660.78,2006.15 1645.42,2005.55 
  "/>
<polyline clip-path="url(#clip222)" style="stroke:#ff0000; stroke-linecap:butt; stroke-linejoin:round; stroke-width:12; stroke-opacity:1; fill:none" points="
  1793.05,2025.65 1775.49,1994.64 1757.93,1963.65 1740.37,1932.7 1722.79,1901.8 1705.19,1870.99 1687.57,1840.28 1669.93,1809.69 1652.25,1779.23 1634.55,1748.93 
  1616.8,1718.82 1599.01,1688.9 1581.18,1659.2 1563.29,1629.73 1545.36,1600.53 1527.36,1571.6 1509.3,1542.97 1491.17,1514.65 1472.97,1486.68 1454.69,1459.06 
  1436.33,1431.81 1417.89,1404.97 1399.36,1378.54 1380.74,1352.54 1362.02,1327 1343.2,1301.94 1324.28,1277.35 1305.26,1253.22 1286.15,1229.52 1266.95,1206.24 
  1247.67,1183.36 1228.3,1160.85 1208.86,1138.7 1189.35,1116.89 1169.77,1095.39 1150.13,1074.2 1130.43,1053.28 1110.67,1032.61 1090.86,1012.19 1071.01,991.981 
  1051.11,971.972 1031.18,952.142 1011.21,932.471 991.217,912.938 971.195,893.524 951.152,874.209 931.092,854.974 911.019,835.798 890.938,816.661 870.853,797.545 
  
  "/>
<polyline clip-path="url(#clip222)" style="stroke:#ff0000; stroke-linecap:butt; stroke-linejoin:round; stroke-width:12; stroke-opacity:1; fill:none" points="
  889.076,848.022 870.853,797.545 922.169,813.252 
  "/>
<polyline clip-path="url(#clip222)" style="stroke:#ff0000; stroke-linecap:butt; stroke-linejoin:round; stroke-width:12; stroke-opacity:1; fill:none" points="
  870.853,797.545 890.938,816.661 
  "/>
<path clip-path="url(#clip222)" d="
M2561.29 1207.87 L2489.53 1083.58 L2346.01 1083.58 L2274.25 1207.87 L2346.01 1332.17 L2489.53 1332.17 L2561.29 1207.87 L2561.29 1207.87  Z
  " fill="#f5fffa" fill-rule="evenodd" fill-opacity="1"/>
<polyline clip-path="url(#clip222)" style="stroke:#000000; stroke-linecap:butt; stroke-linejoin:round; stroke-width:4; stroke-opacity:1; fill:none" points="
  2561.29,1207.87 2489.53,1083.58 2346.01,1083.58 2274.25,1207.87 2346.01,1332.17 2489.53,1332.17 2561.29,1207.87 
  "/>
<path clip-path="url(#clip222)" d="
M1936.57 390.101 L1864.81 265.808 L1721.29 265.808 L1649.53 390.101 L1721.29 514.395 L1864.81 514.395 L1936.57 390.101 L1936.57 390.101  Z
  " fill="#f5fffa" fill-rule="evenodd" fill-opacity="1"/>
<polyline clip-path="url(#clip222)" style="stroke:#000000; stroke-linecap:butt; stroke-linejoin:round; stroke-width:4; stroke-opacity:1; fill:none" points="
  1936.57,390.101 1864.81,265.808 1721.29,265.808 1649.53,390.101 1721.29,514.395 1864.81,514.395 1936.57,390.101 
  "/>
<path clip-path="url(#clip222)" d="
M925.749 702.463 L853.988 578.169 L710.466 578.169 L638.706 702.463 L710.466 826.756 L853.988 826.756 L925.749 702.463 L925.749 702.463  Z
  " fill="#f5fffa" fill-rule="evenodd" fill-opacity="1"/>
<polyline clip-path="url(#clip222)" style="stroke:#000000; stroke-linecap:butt; stroke-linejoin:round; stroke-width:4; stroke-opacity:1; fill:none" points="
  925.749,702.463 853.988,578.169 710.466,578.169 638.706,702.463 710.466,826.756 853.988,826.756 925.749,702.463 
  "/>
<path clip-path="url(#clip222)" d="
M925.749 1713.29 L853.988 1588.99 L710.466 1588.99 L638.706 1713.29 L710.466 1837.58 L853.988 1837.58 L925.749 1713.29 L925.749 1713.29  Z
  " fill="#f5fffa" fill-rule="evenodd" fill-opacity="1"/>
<polyline clip-path="url(#clip222)" style="stroke:#000000; stroke-linecap:butt; stroke-linejoin:round; stroke-width:4; stroke-opacity:1; fill:none" points="
  925.749,1713.29 853.988,1588.99 710.466,1588.99 638.706,1713.29 710.466,1837.58 853.988,1837.58 925.749,1713.29 
  "/>
<path clip-path="url(#clip222)" d="
M1936.57 2025.65 L1864.81 1901.35 L1721.29 1901.35 L1649.53 2025.65 L1721.29 2149.94 L1864.81 2149.94 L1936.57 2025.65 L1936.57 2025.65  Z
  " fill="#f5fffa" fill-rule="evenodd" fill-opacity="1"/>
<polyline clip-path="url(#clip222)" style="stroke:#000000; stroke-linecap:butt; stroke-linejoin:round; stroke-width:4; stroke-opacity:1; fill:none" points="
  1936.57,2025.65 1864.81,1901.35 1721.29,1901.35 1649.53,2025.65 1721.29,2149.94 1864.81,2149.94 1936.57,2025.65 
  "/>
<circle clip-path="url(#clip222)" style="fill:#f5fffa; stroke:none; fill-opacity:1" cx="2417.77" cy="1207.87" r="2"/>
<circle clip-path="url(#clip222)" style="fill:#f5fffa; stroke:none; fill-opacity:1" cx="1793.05" cy="390.101" r="2"/>
<circle clip-path="url(#clip222)" style="fill:#f5fffa; stroke:none; fill-opacity:1" cx="782.227" cy="702.463" r="2"/>
<circle clip-path="url(#clip222)" style="fill:#f5fffa; stroke:none; fill-opacity:1" cx="782.227" cy="1713.29" r="2"/>
<circle clip-path="url(#clip222)" style="fill:#f5fffa; stroke:none; fill-opacity:1" cx="1793.05" cy="2025.65" r="2"/>
<path clip-path="url(#clip220)" d="M2405.11 1195.45 Q2401.95 1195.45 2400.35 1198.57 Q2398.77 1201.67 2398.77 1207.9 Q2398.77 1214.12 2400.35 1217.24 Q2401.95 1220.34 2405.11 1220.34 Q2408.29 1220.34 2409.87 1217.24 Q2411.47 1214.12 2411.47 1207.9 Q2411.47 1201.67 2409.87 1198.57 Q2408.29 1195.45 2405.11 1195.45 M2405.11 1192.21 Q2410.2 1192.21 2412.87 1196.24 Q2415.57 1200.25 2415.57 1207.9 Q2415.57 1215.54 2412.87 1219.57 Q2410.2 1223.58 2405.11 1223.58 Q2400.03 1223.58 2397.34 1219.57 Q2394.66 1215.54 2394.66 1207.9 Q2394.66 1200.25 2397.34 1196.24 Q2400.03 1192.21 2405.11 1192.21 Z" fill="#000000" fill-rule="evenodd" fill-opacity="1" /><path clip-path="url(#clip220)" d="M2423.46 1219.55 L2430.15 1219.55 L2430.15 1196.48 L2422.88 1197.94 L2422.88 1194.21 L2430.11 1192.75 L2434.2 1192.75 L2434.2 1219.55 L2440.88 1219.55 L2440.88 1222.99 L2423.46 1222.99 L2423.46 1219.55 Z" fill="#000000" fill-rule="evenodd" fill-opacity="1" /><path clip-path="url(#clip220)" d="M1780.55 377.675 Q1777.39 377.675 1775.79 380.794 Q1774.21 383.893 1774.21 390.132 Q1774.21 396.35 1775.79 399.469 Q1777.39 402.568 1780.55 402.568 Q1783.73 402.568 1785.31 399.469 Q1786.91 396.35 1786.91 390.132 Q1786.91 383.893 1785.31 380.794 Q1783.73 377.675 1780.55 377.675 M1780.55 374.434 Q1785.64 374.434 1788.31 378.465 Q1791 382.475 1791 390.132 Q1791 397.768 1788.31 401.798 Q1785.64 405.809 1780.55 405.809 Q1775.47 405.809 1772.78 401.798 Q1770.1 397.768 1770.1 390.132 Q1770.1 382.475 1772.78 378.465 Q1775.47 374.434 1780.55 374.434 Z" fill="#000000" fill-rule="evenodd" fill-opacity="1" /><path clip-path="url(#clip220)" d="M1801.72 401.778 L1816 401.778 L1816 405.221 L1796.8 405.221 L1796.8 401.778 Q1799.13 399.368 1803.14 395.317 Q1807.17 391.246 1808.2 390.071 Q1810.17 387.863 1810.93 386.344 Q1811.72 384.805 1811.72 383.326 Q1811.72 380.916 1810.02 379.397 Q1808.34 377.878 1805.63 377.878 Q1803.7 377.878 1801.56 378.546 Q1799.43 379.214 1797 380.571 L1797 376.44 Q1799.47 375.447 1801.62 374.941 Q1803.76 374.434 1805.55 374.434 Q1810.25 374.434 1813.04 376.784 Q1815.84 379.133 1815.84 383.063 Q1815.84 384.926 1815.13 386.607 Q1814.44 388.268 1812.6 390.537 Q1812.09 391.124 1809.38 393.939 Q1806.66 396.735 1801.72 401.778 Z" fill="#000000" fill-rule="evenodd" fill-opacity="1" /><path clip-path="url(#clip220)" d="M769.315 690.036 Q766.155 690.036 764.555 693.156 Q762.975 696.255 762.975 702.493 Q762.975 708.711 764.555 711.83 Q766.155 714.929 769.315 714.929 Q772.495 714.929 774.075 711.83 Q775.675 708.711 775.675 702.493 Q775.675 696.255 774.075 693.156 Q772.495 690.036 769.315 690.036 M769.315 686.796 Q774.399 686.796 777.072 690.826 Q779.766 694.837 779.766 702.493 Q779.766 710.129 777.072 714.16 Q774.399 718.17 769.315 718.17 Q764.231 718.17 761.537 714.16 Q758.864 710.129 758.864 702.493 Q758.864 694.837 761.537 690.826 Q764.231 686.796 769.315 686.796 Z" fill="#000000" fill-rule="evenodd" fill-opacity="1" /><path clip-path="url(#clip220)" d="M799.352 701.278 Q802.289 701.906 803.93 703.891 Q805.591 705.876 805.591 708.792 Q805.591 713.268 802.512 715.719 Q799.433 718.17 793.762 718.17 Q791.858 718.17 789.833 717.785 Q787.828 717.421 785.681 716.671 L785.681 712.722 Q787.382 713.714 789.407 714.22 Q791.433 714.727 793.641 714.727 Q797.489 714.727 799.494 713.208 Q801.52 711.689 801.52 708.792 Q801.52 706.119 799.636 704.62 Q797.773 703.101 794.431 703.101 L790.906 703.101 L790.906 699.738 L794.593 699.738 Q797.611 699.738 799.211 698.543 Q800.811 697.328 800.811 695.06 Q800.811 692.73 799.15 691.495 Q797.509 690.239 794.431 690.239 Q792.749 690.239 790.825 690.604 Q788.901 690.968 786.592 691.738 L786.592 688.092 Q788.921 687.444 790.947 687.12 Q792.992 686.796 794.795 686.796 Q799.454 686.796 802.168 688.922 Q804.882 691.029 804.882 694.634 Q804.882 697.146 803.444 698.888 Q802.006 700.609 799.352 701.278 Z" fill="#000000" fill-rule="evenodd" fill-opacity="1" /><path clip-path="url(#clip220)" d="M768.819 1700.86 Q765.659 1700.86 764.059 1703.98 Q762.479 1707.08 762.479 1713.32 Q762.479 1719.53 764.059 1722.65 Q765.659 1725.75 768.819 1725.75 Q771.999 1725.75 773.579 1722.65 Q775.179 1719.53 775.179 1713.32 Q775.179 1707.08 773.579 1703.98 Q771.999 1700.86 768.819 1700.86 M768.819 1697.62 Q773.903 1697.62 776.576 1701.65 Q779.27 1705.66 779.27 1713.32 Q779.27 1720.95 776.576 1724.98 Q773.903 1728.99 768.819 1728.99 Q763.735 1728.99 761.041 1724.98 Q758.367 1720.95 758.367 1713.32 Q758.367 1705.66 761.041 1701.65 Q763.735 1697.62 768.819 1697.62 Z" fill="#000000" fill-rule="evenodd" fill-opacity="1" /><path clip-path="url(#clip220)" d="M797.702 1701.73 L787.372 1717.87 L797.702 1717.87 L797.702 1701.73 M796.628 1698.17 L801.773 1698.17 L801.773 1717.87 L806.087 1717.87 L806.087 1721.28 L801.773 1721.28 L801.773 1728.41 L797.702 1728.41 L797.702 1721.28 L784.05 1721.28 L784.05 1717.33 L796.628 1698.17 Z" fill="#000000" fill-rule="evenodd" fill-opacity="1" /><path clip-path="url(#clip220)" d="M1780.29 2013.22 Q1777.13 2013.22 1775.53 2016.34 Q1773.95 2019.44 1773.95 2025.68 Q1773.95 2031.9 1775.53 2035.01 Q1777.13 2038.11 1780.29 2038.11 Q1783.47 2038.11 1785.05 2035.01 Q1786.65 2031.9 1786.65 2025.68 Q1786.65 2019.44 1785.05 2016.34 Q1783.47 2013.22 1780.29 2013.22 M1780.29 2009.98 Q1785.37 2009.98 1788.05 2014.01 Q1790.74 2018.02 1790.74 2025.68 Q1790.74 2033.31 1788.05 2037.34 Q1785.37 2041.35 1780.29 2041.35 Q1775.21 2041.35 1772.51 2037.34 Q1769.84 2033.31 1769.84 2025.68 Q1769.84 2018.02 1772.51 2014.01 Q1775.21 2009.98 1780.29 2009.98 Z" fill="#000000" fill-rule="evenodd" fill-opacity="1" /><path clip-path="url(#clip220)" d="M1797.97 2010.53 L1814.03 2010.53 L1814.03 2013.97 L1801.72 2013.97 L1801.72 2021.38 Q1802.61 2021.08 1803.5 2020.94 Q1804.39 2020.78 1805.28 2020.78 Q1810.35 2020.78 1813.3 2023.55 Q1816.26 2026.33 1816.26 2031.06 Q1816.26 2035.95 1813.22 2038.66 Q1810.19 2041.35 1804.66 2041.35 Q1802.75 2041.35 1800.77 2041.03 Q1798.8 2040.71 1796.7 2040.06 L1796.7 2035.95 Q1798.52 2036.94 1800.46 2037.42 Q1802.41 2037.91 1804.57 2037.91 Q1808.08 2037.91 1810.12 2036.07 Q1812.17 2034.22 1812.17 2031.06 Q1812.17 2027.91 1810.12 2026.06 Q1808.08 2024.22 1804.57 2024.22 Q1802.93 2024.22 1801.29 2024.58 Q1799.67 2024.95 1797.97 2025.72 L1797.97 2010.53 Z" fill="#000000" fill-rule="evenodd" fill-opacity="1" /><path clip-path="url(#clip220)" d="M2405.11 1195.45 Q2401.95 1195.45 2400.35 1198.57 Q2398.77 1201.67 2398.77 1207.9 Q2398.77 1214.12 2400.35 1217.24 Q2401.95 1220.34 2405.11 1220.34 Q2408.29 1220.34 2409.87 1217.24 Q2411.47 1214.12 2411.47 1207.9 Q2411.47 1201.67 2409.87 1198.57 Q2408.29 1195.45 2405.11 1195.45 M2405.11 1192.21 Q2410.2 1192.21 2412.87 1196.24 Q2415.57 1200.25 2415.57 1207.9 Q2415.57 1215.54 2412.87 1219.57 Q2410.2 1223.58 2405.11 1223.58 Q2400.03 1223.58 2397.34 1219.57 Q2394.66 1215.54 2394.66 1207.9 Q2394.66 1200.25 2397.34 1196.24 Q2400.03 1192.21 2405.11 1192.21 Z" fill="#000000" fill-rule="evenodd" fill-opacity="1" /><path clip-path="url(#clip220)" d="M2423.46 1219.55 L2430.15 1219.55 L2430.15 1196.48 L2422.88 1197.94 L2422.88 1194.21 L2430.11 1192.75 L2434.2 1192.75 L2434.2 1219.55 L2440.88 1219.55 L2440.88 1222.99 L2423.46 1222.99 L2423.46 1219.55 Z" fill="#000000" fill-rule="evenodd" fill-opacity="1" /><path clip-path="url(#clip220)" d="M1780.55 377.675 Q1777.39 377.675 1775.79 380.794 Q1774.21 383.893 1774.21 390.132 Q1774.21 396.35 1775.79 399.469 Q1777.39 402.568 1780.55 402.568 Q1783.73 402.568 1785.31 399.469 Q1786.91 396.35 1786.91 390.132 Q1786.91 383.893 1785.31 380.794 Q1783.73 377.675 1780.55 377.675 M1780.55 374.434 Q1785.64 374.434 1788.31 378.465 Q1791 382.475 1791 390.132 Q1791 397.768 1788.31 401.798 Q1785.64 405.809 1780.55 405.809 Q1775.47 405.809 1772.78 401.798 Q1770.1 397.768 1770.1 390.132 Q1770.1 382.475 1772.78 378.465 Q1775.47 374.434 1780.55 374.434 Z" fill="#000000" fill-rule="evenodd" fill-opacity="1" /><path clip-path="url(#clip220)" d="M1801.72 401.778 L1816 401.778 L1816 405.221 L1796.8 405.221 L1796.8 401.778 Q1799.13 399.368 1803.14 395.317 Q1807.17 391.246 1808.2 390.071 Q1810.17 387.863 1810.93 386.344 Q1811.72 384.805 1811.72 383.326 Q1811.72 380.916 1810.02 379.397 Q1808.34 377.878 1805.63 377.878 Q1803.7 377.878 1801.56 378.546 Q1799.43 379.214 1797 380.571 L1797 376.44 Q1799.47 375.447 1801.62 374.941 Q1803.76 374.434 1805.55 374.434 Q1810.25 374.434 1813.04 376.784 Q1815.84 379.133 1815.84 383.063 Q1815.84 384.926 1815.13 386.607 Q1814.44 388.268 1812.6 390.537 Q1812.09 391.124 1809.38 393.939 Q1806.66 396.735 1801.72 401.778 Z" fill="#000000" fill-rule="evenodd" fill-opacity="1" /><path clip-path="url(#clip220)" d="M769.315 690.036 Q766.155 690.036 764.555 693.156 Q762.975 696.255 762.975 702.493 Q762.975 708.711 764.555 711.83 Q766.155 714.929 769.315 714.929 Q772.495 714.929 774.075 711.83 Q775.675 708.711 775.675 702.493 Q775.675 696.255 774.075 693.156 Q772.495 690.036 769.315 690.036 M769.315 686.796 Q774.399 686.796 777.072 690.826 Q779.766 694.837 779.766 702.493 Q779.766 710.129 777.072 714.16 Q774.399 718.17 769.315 718.17 Q764.231 718.17 761.537 714.16 Q758.864 710.129 758.864 702.493 Q758.864 694.837 761.537 690.826 Q764.231 686.796 769.315 686.796 Z" fill="#000000" fill-rule="evenodd" fill-opacity="1" /><path clip-path="url(#clip220)" d="M799.352 701.278 Q802.289 701.906 803.93 703.891 Q805.591 705.876 805.591 708.792 Q805.591 713.268 802.512 715.719 Q799.433 718.17 793.762 718.17 Q791.858 718.17 789.833 717.785 Q787.828 717.421 785.681 716.671 L785.681 712.722 Q787.382 713.714 789.407 714.22 Q791.433 714.727 793.641 714.727 Q797.489 714.727 799.494 713.208 Q801.52 711.689 801.52 708.792 Q801.52 706.119 799.636 704.62 Q797.773 703.101 794.431 703.101 L790.906 703.101 L790.906 699.738 L794.593 699.738 Q797.611 699.738 799.211 698.543 Q800.811 697.328 800.811 695.06 Q800.811 692.73 799.15 691.495 Q797.509 690.239 794.431 690.239 Q792.749 690.239 790.825 690.604 Q788.901 690.968 786.592 691.738 L786.592 688.092 Q788.921 687.444 790.947 687.12 Q792.992 686.796 794.795 686.796 Q799.454 686.796 802.168 688.922 Q804.882 691.029 804.882 694.634 Q804.882 697.146 803.444 698.888 Q802.006 700.609 799.352 701.278 Z" fill="#000000" fill-rule="evenodd" fill-opacity="1" /><path clip-path="url(#clip220)" d="M768.819 1700.86 Q765.659 1700.86 764.059 1703.98 Q762.479 1707.08 762.479 1713.32 Q762.479 1719.53 764.059 1722.65 Q765.659 1725.75 768.819 1725.75 Q771.999 1725.75 773.579 1722.65 Q775.179 1719.53 775.179 1713.32 Q775.179 1707.08 773.579 1703.98 Q771.999 1700.86 768.819 1700.86 M768.819 1697.62 Q773.903 1697.62 776.576 1701.65 Q779.27 1705.66 779.27 1713.32 Q779.27 1720.95 776.576 1724.98 Q773.903 1728.99 768.819 1728.99 Q763.735 1728.99 761.041 1724.98 Q758.367 1720.95 758.367 1713.32 Q758.367 1705.66 761.041 1701.65 Q763.735 1697.62 768.819 1697.62 Z" fill="#000000" fill-rule="evenodd" fill-opacity="1" /><path clip-path="url(#clip220)" d="M797.702 1701.73 L787.372 1717.87 L797.702 1717.87 L797.702 1701.73 M796.628 1698.17 L801.773 1698.17 L801.773 1717.87 L806.087 1717.87 L806.087 1721.28 L801.773 1721.28 L801.773 1728.41 L797.702 1728.41 L797.702 1721.28 L784.05 1721.28 L784.05 1717.33 L796.628 1698.17 Z" fill="#000000" fill-rule="evenodd" fill-opacity="1" /><path clip-path="url(#clip220)" d="M1780.29 2013.22 Q1777.13 2013.22 1775.53 2016.34 Q1773.95 2019.44 1773.95 2025.68 Q1773.95 2031.9 1775.53 2035.01 Q1777.13 2038.11 1780.29 2038.11 Q1783.47 2038.11 1785.05 2035.01 Q1786.65 2031.9 1786.65 2025.68 Q1786.65 2019.44 1785.05 2016.34 Q1783.47 2013.22 1780.29 2013.22 M1780.29 2009.98 Q1785.37 2009.98 1788.05 2014.01 Q1790.74 2018.02 1790.74 2025.68 Q1790.74 2033.31 1788.05 2037.34 Q1785.37 2041.35 1780.29 2041.35 Q1775.21 2041.35 1772.51 2037.34 Q1769.84 2033.31 1769.84 2025.68 Q1769.84 2018.02 1772.51 2014.01 Q1775.21 2009.98 1780.29 2009.98 Z" fill="#000000" fill-rule="evenodd" fill-opacity="1" /><path clip-path="url(#clip220)" d="M1797.97 2010.53 L1814.03 2010.53 L1814.03 2013.97 L1801.72 2013.97 L1801.72 2021.38 Q1802.61 2021.08 1803.5 2020.94 Q1804.39 2020.78 1805.28 2020.78 Q1810.35 2020.78 1813.3 2023.55 Q1816.26 2026.33 1816.26 2031.06 Q1816.26 2035.95 1813.22 2038.66 Q1810.19 2041.35 1804.66 2041.35 Q1802.75 2041.35 1800.77 2041.03 Q1798.8 2040.71 1796.7 2040.06 L1796.7 2035.95 Q1798.52 2036.94 1800.46 2037.42 Q1802.41 2037.91 1804.57 2037.91 Q1808.08 2037.91 1810.12 2036.07 Q1812.17 2034.22 1812.17 2031.06 Q1812.17 2027.91 1810.12 2026.06 Q1808.08 2024.22 1804.57 2024.22 Q1802.93 2024.22 1801.29 2024.58 Q1799.67 2024.95 1797.97 2025.72 L1797.97 2010.53 Z" fill="#000000" fill-rule="evenodd" fill-opacity="1" /></svg>
